<svg width="504" height="504" viewBox="0 0 504 504" fill="none" xmlns="http://www.w3.org/2000/svg">
<path d="M224.296 130.353H276.566L274.425 113.941L241.181 113.792V81.3464H259.38V64.7261H276.566V48.8612H294.565V32.7595H312.507V15.8454H364.207V48.8612H329.883V64.7261H312.507V81.3464H294.565V97.9669H276.566V113.941H364.207V130.183H382.183V146.582H399.528V162.981H417.189V179.223H434.377V195.622H451.722V342.269H434.85V374.91H416.92V407.201H399.233V439.296H381.273V456.37H364.013V472.77H347.024V488.92H293.996V472.77H206.991V488.92H154.159V472.77H136.64V456.072H118.847V439.921H101.601V406.525H83.8083V375.045H66.5627V341.923H49.3223V195.385H66.7213V179.146H83.4239V163.474H101.643V146.914H120.274V130.353H136.317V113.792H224.296V130.353Z" fill="url(#paint0_linear_530_21391)" fill-opacity="0.2"/>
<path d="M224.636 48.7969V98.1378H189.099V64.9501H171.771V32.3501H206.721V48.7969H224.636Z" fill="url(#paint1_linear_530_21391)" fill-opacity="0.2"/>
<defs>
<linearGradient id="paint0_linear_530_21391" x1="250.522" y1="15.8454" x2="250.522" y2="528.868" gradientUnits="userSpaceOnUse">
<stop stop-color="#EF232C"/>
<stop offset="0.958384" stop-color="#EF232C" stop-opacity="0"/>
</linearGradient>
<linearGradient id="paint1_linear_530_21391" x1="198.204" y1="32.3501" x2="198.204" y2="98.1378" gradientUnits="userSpaceOnUse">
<stop stop-color="#EF232C"/>
<stop offset="1" stop-color="#EF232C" stop-opacity="0"/>
</linearGradient>
</defs>
</svg>
