<svg width="141" height="546" viewBox="0 0 141 546" fill="none" xmlns="http://www.w3.org/2000/svg">
<path d="M19 119.239V82.6029C19 82.0506 19.4477 81.6029 20 81.6029H59.1558C59.7081 81.6029 60.1558 81.1552 60.1558 80.6029V3C60.1558 2.44772 60.6035 2 61.1558 2H82.7118C83.2641 2 83.7118 2.44772 83.7118 3V26.1548C83.7118 26.7169 83.2486 27.1686 82.6867 27.1545L19.9749 25.5802C19.4326 25.5666 19 25.123 19 24.5805V3C19 2.44771 19.4477 2 20 2H43.181C43.7333 2 44.181 2.44772 44.181 3V65.1695C44.181 65.7218 43.7333 66.1695 43.181 66.1695H20C19.4477 66.1695 19 65.7218 19 65.1695V44.4258C19 43.8735 19.4477 43.4258 20 43.4258H98.1451C98.6973 43.4258 99.1451 42.9781 99.1451 42.4258V3C99.1451 2.44772 99.5928 2 100.145 2H140.3" stroke="#EF232C" stroke-width="3"/>
<path d="M2.77587 207.932L17.1388 222.523C18.2406 223.642 20.0476 223.635 21.1404 222.507L35.2754 207.915C36.3904 206.764 36.312 204.913 35.1035 203.86L20.9699 191.55C19.9234 190.638 18.3669 190.632 17.3132 191.535L2.94885 203.847C1.71857 204.902 1.63914 206.778 2.77587 207.932Z" stroke="#EF232C" stroke-width="2"/>
<path d="M2.77587 226.992L17.1388 241.582C18.2406 242.702 20.0476 242.694 21.1404 241.566L35.2754 226.975C36.3904 225.824 36.312 223.973 35.1035 222.92L20.9699 210.61C19.9234 209.698 18.3669 209.692 17.3132 210.595L2.94885 222.907C1.71857 223.962 1.63914 225.838 2.77587 226.992Z" stroke="#EF232C" stroke-width="2"/>
<path d="M2.77587 244.292L17.1388 258.882C18.2406 260.001 20.0476 259.994 21.1404 258.866L35.2754 244.275C36.3904 243.123 36.312 241.273 35.1035 240.22L20.9699 227.909C19.9234 226.998 18.3669 226.992 17.3132 227.895L2.94885 240.207C1.71857 241.261 1.63914 243.137 2.77587 244.292Z" stroke="#EF232C" stroke-width="2"/>
<path d="M19 291.647V545.949" stroke="#EF232C" stroke-width="2"/>
</svg>
