<svg width="137" height="546" viewBox="0 0 137 546" fill="none" xmlns="http://www.w3.org/2000/svg">
<path d="M0.761391 1.99999L37.3971 2C37.9494 2 38.3971 2.44771 38.3971 3L38.3971 42.1558C38.3971 42.7081 38.8448 43.1558 39.3971 43.1558L117 43.1558C117.552 43.1558 118 43.6035 118 44.1558L118 65.7118C118 66.2641 117.552 66.7118 117 66.7118L93.8452 66.7118C93.283 66.7118 92.8314 66.2486 92.8455 65.6867L94.4198 2.9749C94.4334 2.43257 94.877 2 95.4195 2L117 2C117.552 2 118 2.44772 118 3L118 26.181C118 26.7333 117.552 27.181 117 27.181L54.8305 27.181C54.2782 27.181 53.8305 26.7333 53.8305 26.181L53.8305 3C53.8305 2.44771 54.2782 2 54.8305 2L75.5742 2C76.1265 2 76.5742 2.44771 76.5742 3L76.5742 81.1451C76.5742 81.6973 77.0219 82.1451 77.5742 82.1451L117 82.1451C117.552 82.1451 118 82.5928 118 83.1451L118 123.3" stroke="#EF232C" stroke-width="3"/>
<path d="M102.329 207.932L116.692 222.523C117.793 223.642 119.6 223.635 120.693 222.507L134.828 207.915C135.943 206.764 135.865 204.913 134.656 203.86L120.523 191.55C119.476 190.638 117.92 190.632 116.866 191.535L102.502 203.847C101.271 204.902 101.192 206.778 102.329 207.932Z" stroke="#EF232C" stroke-width="2"/>
<path d="M102.329 226.992L116.692 241.582C117.793 242.702 119.6 242.694 120.693 241.566L134.828 226.975C135.943 225.824 135.865 223.973 134.656 222.92L120.523 210.61C119.476 209.698 117.92 209.692 116.866 210.595L102.502 222.907C101.271 223.962 101.192 225.838 102.329 226.992Z" stroke="#EF232C" stroke-width="2"/>
<path d="M102.329 244.292L116.692 258.882C117.793 260.001 119.6 259.994 120.693 258.866L134.828 244.275C135.943 243.123 135.865 241.273 134.656 240.22L120.523 227.909C119.476 226.998 117.92 226.992 116.866 227.895L102.502 240.207C101.271 241.261 101.192 243.137 102.329 244.292Z" stroke="#EF232C" stroke-width="2"/>
<path d="M118.553 291.013V545.315" stroke="#EF232C" stroke-width="2"/>
</svg>
