<svg width="81" height="38" viewBox="0 0 81 38" fill="none" xmlns="http://www.w3.org/2000/svg">
<g clip-path="url(#clip0_530_21380)">
<path d="M21.7772 35.934L37.7802 21.0625C39.0642 19.8692 39.0561 17.834 37.7625 16.651L21.7581 2.01552C20.5393 0.900932 18.6488 0.98117 17.5287 2.19503L4.02612 16.8291C2.97216 17.9714 2.96512 19.7294 4.00989 20.8801L17.514 35.7531C18.6368 36.9898 20.5536 37.0711 21.7772 35.934Z" stroke="#AE9955"/>
<path d="M41.2655 35.934L57.2685 21.0625C58.5525 19.8692 58.5444 17.834 57.2508 16.651L41.2464 2.01552C40.0276 0.900932 38.137 0.98117 37.017 2.19503L23.5144 16.8291C22.4604 17.9714 22.4534 19.7294 23.4982 20.8801L37.0022 35.7531C38.1251 36.9898 40.0419 37.0711 41.2655 35.934Z" stroke="#AE9955"/>
<path d="M60.2655 35.934L76.2685 21.0625C77.5525 19.8692 77.5444 17.834 76.2508 16.651L60.2464 2.01552C59.0276 0.900932 57.137 0.98117 56.017 2.19503L42.5144 16.8291C41.4604 17.9714 41.4534 19.7294 42.4982 20.8801L56.0022 35.7531C57.1251 36.9898 59.0419 37.0711 60.2655 35.934Z" stroke="#AE9955"/>
</g>
<defs>
<clipPath id="clip0_530_21380">
<rect width="38" height="80" fill="white" transform="translate(0.164062 38) rotate(-90)"/>
</clipPath>
</defs>
</svg>
