<svg width="378" height="200" viewBox="0 0 378 200" fill="none" xmlns="http://www.w3.org/2000/svg">
<g clip-path="url(#clip0_183_15312)">
<rect width="378" height="200" rx="12" fill="url(#paint0_linear_183_15312)"/>
<g opacity="0.25">
<path d="M269.162 47.9C269.262 47.8 269.462 47.7 269.562 47.7C271.762 46.4 273.362 43.3 272.662 40.5C271.862 37.6 269.062 36.3 267.962 33.6C266.862 30.7 268.162 27 270.362 25.2C272.562 23.4 275.262 22.8 277.962 22.4C305.962 18.4 334.562 24 362.362 18.5C366.562 17.7 370.862 16.5 374.162 13.3C377.462 10.1 379.562 4.39999 377.862 -0.300003C376.162 -5.2 371.262 -7.2 366.962 -8.3C341.362 -14.6 314.262 -7.89999 289.062 -16.1C287.062 -16.7 284.762 -18.1 284.762 -20.6C284.762 -22.8 286.762 -24.2 288.562 -24.4C290.362 -24.5 293.162 -25 294.962 -25.1C299.862 -25.3 302.362 -29.6 306.862 -32C310.362 -33.9 314.262 -34 318.162 -34.1C330.862 -34.6 343.462 -37 355.762 -41.1C362.562 -43.4 370.362 -47.8 371.362 -56.2C372.162 -62.9 368.062 -69.3 363.062 -72.1C358.062 -75 352.262 -75 346.762 -75C335.662 -74.9 324.562 -74.5 313.462 -73.8C313.662 -73.7 313.862 -73.5 314.062 -73.3C314.762 -72.7 318.262 -73.2 318.862 -72.4C322.362 -67.8 325.362 -67.8 330.562 -68C333.162 -68.1 335.762 -67.7 338.362 -67C340.062 -66.5 341.862 -65.7 342.762 -63.9C343.962 -61.5 343.062 -58.1 341.362 -56.3C339.562 -54.4 337.262 -53.7 334.962 -53.1C321.062 -49.6 306.562 -49.8 292.662 -46.1C291.062 -45.7 289.362 -45.1 288.262 -43.6C287.562 -42.6 287.362 -41.1 287.662 -39.9C282.062 -40 275.562 -37.7 271.862 -36.2C263.562 -32.8 267.062 -29.7 250.662 -25.4C246.862 -24.4 242.862 -21.1 242.562 -16.4C242.362 -12.4 245.462 -8.99999 248.662 -7.89999C251.862 -6.7 255.262 -7.09999 258.562 -6.39999C265.462 -4.99999 271.162 0.499992 277.662 3.59999C294.562 11.5 313.762 2.20001 331.462 6.40001C334.662 7.20001 338.662 10.4 337.262 14C336.362 16.2 333.962 16.6 331.862 16.8C300.662 18.7 269.362 18.5 238.162 16.5C234.962 16.3 231.162 16.6 228.662 18.6C225.562 18 222.362 17.4 219.562 18.8C216.662 20.3 214.462 24.8 216.062 28.1C217.062 30.3 219.262 31.3 221.362 31.8C232.062 34.4 243.662 28.9 253.962 33.4C255.762 34.2 257.862 36 257.462 38.3C257.262 39.2 256.762 39.9 256.262 40.5C250.462 47.1 241.462 46.3 233.562 45.4C215.862 43.4 197.962 43.6 180.262 46.1C207.762 47.5 235.362 48.5 262.862 49.1C264.662 48.9 267.062 48.9 269.162 47.9Z" fill="#FFF278"/>
</g>
<g opacity="0.12">
<path d="M127.961 230.1C127.161 229.3 126.661 228.3 126.461 227.2C126.361 226.5 126.461 225.7 126.761 225C127.261 223.8 126.761 222.5 125.661 222.1C123.561 221.2 121.461 219.8 122.461 217.2C123.061 215.5 124.861 214.9 126.461 214.5C139.061 211.6 152.561 214.2 164.561 209.2C167.061 208.2 169.561 206.6 170.561 204C171.661 201.1 170.561 197.7 168.561 195.4C166.561 193.1 163.761 191.9 160.961 191C147.261 186.2 132.661 186.4 118.261 186.6C88.8614 187.1 59.4614 187.5 30.0614 188C23.6614 188.1 16.8614 188.1 11.4614 184.2C10.9614 183.9 10.5614 183.4 10.3614 182.9C8.96141 180.3 11.3614 177.9 13.6614 176.8C21.3614 172.8 30.2614 172.8 38.7614 172.6C52.8614 172.2 66.8614 170.9 80.7614 168.5C87.3614 167.4 94.2614 165.9 99.4614 161.5C100.661 160.5 101.761 159.2 101.761 157.6C101.761 155.4 99.4614 154 97.5614 153.2C87.2614 149 76.1614 147 65.1614 147.4C66.9614 146.7 67.2614 143.9 66.2614 142.3C65.2614 140.7 63.3614 139.8 61.6614 139.1C55.4614 136.7 49.0614 135.1 42.4614 134.5C40.9614 134.4 39.3614 134.2 38.0614 133.4C37.1614 132.8 36.4614 131.9 35.7614 131.1C29.2614 123.9 18.8614 123.2 9.56137 124.2C2.46137 124.9 -4.73862 126.4 -11.7386 125.6C-3.93862 128.5 5.26137 126.6 13.5614 128C16.9614 128.6 25.3614 130.8 27.5614 133.6C30.0614 136.8 23.3614 137.3 23.6614 140.1C23.9614 142.3 25.7614 143.7 29.4614 144C32.4614 144.3 35.3614 145.1 38.2614 145.6C41.6614 146.2 45.9614 148.1 45.5614 151.8C45.2614 154.4 42.6614 155.9 40.3614 156.8C21.3614 163.7 0.261368 159.2 -19.4386 163.6C-22.2386 164.2 -25.1386 165.1 -27.4386 167C-29.7386 168.9 -31.3386 171.9 -30.9386 175C-30.5386 177.7 -28.1386 180 -25.7386 179.9C-26.2386 181.8 -25.5386 184 -24.2386 185.5C-22.4386 187.5 -19.8386 188.3 -17.3386 188.9C-1.8386 192.7 14.2614 192.9 30.1614 193.2C62.9614 193.7 95.7614 194.3 128.661 194.8C133.561 194.9 138.561 195 142.961 197.3C144.161 197.9 145.361 198.9 145.261 200.3C145.161 201.6 143.861 202.4 142.661 202.8C135.061 205.6 126.561 204.9 119.361 208.7C115.861 210.6 112.561 215.3 114.961 218.6C115.461 219.3 116.261 219.9 116.661 220.7C117.261 221.7 117.161 222.9 117.361 224.1C118.561 231.2 126.861 233.6 133.661 234C142.461 234.5 151.361 234.2 160.061 233.1C151.361 233.1 142.461 233.5 133.861 232.5C132.261 232.3 130.661 232 129.261 231.2C128.761 230.8 128.361 230.5 127.961 230.1Z" fill="#FFF278"/>
</g>
<g opacity="0.48">
<path opacity="0.39" d="M313.761 86.7C318.561 86 323.361 85.3 328.061 84.5C332.861 83.8 337.961 82.9 341.561 80.1C345.161 77.3 346.261 71.9 342.461 69.2L329.161 67.6C332.961 69.1 333.361 74 330.961 76.9C328.461 79.8 324.261 81.2 320.161 82.3C302.261 86.9 283.361 87.9 265.061 90.9C257.661 92.1 250.161 93.7 244.161 97.5C241.661 99.1 239.361 101.3 239.161 103.9C238.961 107.7 243.061 110.6 247.061 112.3C255.661 116 265.361 117.5 274.961 118.6C295.561 121.1 316.561 122.7 336.061 128.8C340.961 130.3 345.961 132.2 349.561 135.4C353.161 138.6 355.361 143.3 353.761 147.5C351.261 154.1 341.661 156.3 333.561 157.1C325.361 157.9 317.061 158.4 308.761 158.5C301.161 158.6 290.361 160.5 286.461 165.9C282.861 170.9 286.261 177.9 291.661 181C297.661 184.5 305.961 183.4 312.761 183.6C326.161 184 357.761 184.5 358.061 186.4C358.361 188.9 339.661 187.7 336.861 187.5C316.761 186.7 309.561 186.1 289.461 186C283.261 185.9 276.961 185.9 270.861 187.2C269.161 187.6 267.361 188.1 266.261 189.3C265.161 190.5 265.261 192.5 266.861 193.2C267.461 193.4 268.061 193.5 268.561 193.8C269.861 194.5 269.561 196.3 268.361 197.1C267.161 197.9 265.461 198 263.961 198.1C252.861 198.5 241.361 196.9 230.661 199.3C228.761 199.7 226.061 201 223.961 202.5C231.361 199.9 239.961 199.8 248.061 200.2C257.961 200.7 268.161 201.7 277.461 198.9C278.861 198.5 280.461 197.8 280.661 196.5C280.861 195.4 279.861 194.4 279.761 193.4C279.261 190.4 284.161 189.2 287.761 189.2C317.061 189.1 346.461 193.2 375.561 190.8C377.361 190.7 383.861 190.2 383.861 187.8C383.861 185 374.761 184.3 372.661 184.1C353.461 182.2 333.961 181.9 314.661 181.3C310.261 181.2 305.761 181 301.761 179.4C297.761 177.9 294.361 174.6 294.561 170.9C294.661 167.3 298.161 164.2 302.161 162.8C306.161 161.4 310.661 161.3 314.961 161.3C336.661 161 358.261 160.8 379.961 160.5C387.861 160.4 395.861 160.3 403.661 159.1C409.461 158.2 415.861 156.1 417.561 151.4C418.661 148.2 417.061 144.7 414.361 142.3C411.661 139.9 408.061 138.3 404.361 137C369.261 124.1 329.261 125.6 292.161 117.5C287.461 116.5 282.761 115.3 278.861 112.9C274.961 110.5 272.061 106.7 272.361 102.6C272.661 98.5 276.261 94.9 280.561 92.9C284.861 90.9 289.861 90.1 294.661 89.4C300.961 88.6 307.361 87.6 313.761 86.7Z" fill="#FFF278"/>
</g>
<g opacity="0.47">
<path opacity="0.31" d="M106.661 -32.6C101.861 -33.3 97.0608 -34 92.3608 -34.8C87.5608 -35.5 82.4608 -36.4 78.8608 -39.2C75.2608 -42 74.1608 -47.4 77.9608 -50.1L91.2608 -51.7C87.4608 -50.2 87.0608 -45.3 89.4608 -42.4C91.9608 -39.5 96.1608 -38.1 100.261 -37C118.161 -32.4 137.061 -31.4 155.361 -28.4C162.761 -27.2 170.261 -25.6 176.261 -21.8C178.761 -20.2 181.061 -18 181.261 -15.4C181.461 -11.6 177.361 -8.70002 173.361 -7.00002C164.761 -3.30001 155.061 -1.80001 145.461 -0.700012C124.861 1.79999 103.861 3.4 84.3608 9.5C79.4608 11 74.4608 12.9 70.8608 16.1C67.2608 19.3 65.0608 24 66.6608 28.2C69.1608 34.8 78.7608 37 86.8608 37.8C95.0608 38.6 103.361 39.1 111.661 39.2C119.261 39.3 130.061 41.2 133.961 46.6C137.561 51.6 134.161 58.6 128.761 61.7C122.761 65.2 114.461 64.1 107.661 64.3C94.2608 64.7 62.6608 65.2 62.3608 67.1C62.0608 69.6 80.7607 68.4 83.5608 68.2C103.661 67.4 110.861 66.8 130.961 66.7C137.161 66.6 143.461 66.6 149.561 67.9C151.261 68.3 153.061 68.8 154.161 70C155.261 71.2 155.161 73.2 153.561 73.9C152.961 74.1 152.361 74.2 151.861 74.5C150.561 75.2 150.861 77 152.061 77.8C153.261 78.6 154.961 78.7 156.461 78.8C167.561 79.2 179.061 77.6 189.761 80C191.661 80.4 194.361 81.7 196.461 83.2C189.061 80.6 180.461 80.5 172.361 80.9C162.461 81.4 152.261 82.4 142.961 79.6C141.561 79.2 139.961 78.5 139.761 77.2C139.561 76.1 140.561 75.1 140.661 74.1C141.161 71.1 136.261 69.9 132.661 69.9C103.361 69.8 73.9608 73.9 44.8608 71.5C43.0608 71.4 36.5608 70.9 36.5608 68.5C36.5608 65.7 45.6608 65 47.7608 64.8C66.9608 62.9 86.4608 62.6 105.761 62C110.161 61.9 114.661 61.7 118.661 60.1C122.661 58.6 126.061 55.3 125.861 51.6C125.761 48 122.261 44.9 118.261 43.5C114.261 42.1 109.761 42 105.461 42C83.7608 41.7 62.1608 41.5 40.4608 41.2C32.5608 41.1 24.5608 41 16.7608 39.8C10.9608 38.9 4.5608 36.8 2.8608 32.1C1.7608 28.9 3.36076 25.4 6.06076 23C8.76076 20.6 12.3608 19 16.0608 17.7C51.1608 4.79998 91.1608 6.29998 128.261 -1.80002C132.961 -2.80002 137.661 -4.00001 141.561 -6.40001C145.461 -8.80001 148.361 -12.6 148.061 -16.7C147.761 -20.8 144.161 -24.4 139.861 -26.4C135.561 -28.4 130.561 -29.2 125.761 -29.9C119.361 -30.7 112.961 -31.7 106.661 -32.6Z" fill="#FFF278"/>
</g>
<circle cx="189" cy="100" r="39.5" fill="#AC7D1C" stroke="url(#paint1_linear_183_15312)" stroke-width="3"/>
<path d="M204.373 84.9268C201.372 81.926 197.548 79.8824 193.386 79.0546C189.223 78.2267 184.909 78.6517 180.988 80.2758C177.067 81.8999 173.716 84.6502 171.358 88.1789C169.001 91.7076 167.742 95.8562 167.742 100.1C167.742 104.344 169.001 108.493 171.358 112.021C173.716 115.55 177.067 118.3 180.988 119.924C184.909 121.549 189.223 121.974 193.386 121.146C197.548 120.318 201.372 118.274 204.373 115.273C206.366 113.281 207.947 110.916 209.026 108.312C210.104 105.709 210.66 102.918 210.66 100.1C210.66 97.282 210.104 94.4915 209.026 91.888C207.947 89.2845 206.366 86.919 204.373 84.9268ZM171.301 107.522C169.828 103.979 169.439 100.078 170.185 96.3143C170.931 92.5502 172.778 89.0923 175.491 86.3789C178.205 83.6655 181.663 81.8188 185.427 81.0729C189.191 80.327 193.092 80.7154 196.635 82.189C190.381 80.5179 182.857 82.5979 177.284 88.1579C171.71 93.7179 169.644 101.269 171.301 107.522ZM182.813 106.487V93.7135H195.586V106.487H182.813ZM181.777 117.998C188.03 119.669 195.555 117.589 201.128 112.029C206.701 106.469 208.755 98.9312 207.097 92.6779C208.571 96.221 208.959 100.122 208.213 103.886C207.467 107.65 205.62 111.108 202.907 113.821C200.194 116.535 196.736 118.381 192.972 119.127C189.208 119.873 185.307 119.485 181.764 118.011L181.777 117.998Z" fill="#EDE8D5"/>
</g>
<defs>
<linearGradient id="paint0_linear_183_15312" x1="189.084" y1="-0.0213174" x2="189.084" y2="199.979" gradientUnits="userSpaceOnUse">
<stop stop-color="#FFE55A"/>
<stop offset="1" stop-color="#8F5907"/>
</linearGradient>
<linearGradient id="paint1_linear_183_15312" x1="157.945" y1="53.6178" x2="176.581" y2="147.728" gradientUnits="userSpaceOnUse">
<stop stop-color="#E5B039"/>
<stop offset="0.47968" stop-color="#FFEBBD"/>
<stop offset="1" stop-color="#E5B039"/>
</linearGradient>
<clipPath id="clip0_183_15312">
<rect width="378" height="200" rx="12" fill="white"/>
</clipPath>
</defs>
</svg>
