<svg width="235" height="417" viewBox="0 0 235 417" fill="none" xmlns="http://www.w3.org/2000/svg">
<g clip-path="url(#clip0_187_18656)">
<rect width="235" height="417" rx="12" fill="url(#paint0_linear_187_18656)"/>
<path d="M204.561 337.4C200.061 319.6 184.861 306.1 166.161 304.1C165.861 304.1 165.661 304 165.361 304C163.961 303.9 162.661 303.8 161.261 303.8C140.361 303.8 122.761 318.1 117.861 337.5C117.761 337.9 117.661 338.3 117.561 338.8C117.461 338.4 117.361 337.9 117.261 337.5C112.761 319.6 97.4614 306.1 78.6614 304.1C78.4614 304.1 78.2613 304.1 78.0613 304C76.6613 303.9 75.3614 303.8 73.9614 303.8C53.0614 303.8 35.4613 318.1 30.5613 337.5C29.6613 341 29.1614 344.7 29.1614 348.5C29.1614 352.5 29.6614 356.4 30.6614 360.1C31.9614 360 33.2613 359.9 34.5613 359.9C55.2613 359.9 72.7614 373.9 77.7614 393.1C78.0614 393.1 78.3614 393 78.6614 393C83.3614 375.4 98.4613 362.2 117.061 360.2C117.361 360.2 117.661 360.1 117.961 360.1C119.261 360 120.561 359.9 121.861 359.9C142.561 359.9 160.061 373.9 165.061 393.1C165.461 393.1 165.761 393 166.161 393C170.861 375.5 185.961 362.3 204.361 360.2C205.361 356.5 205.861 352.5 205.861 348.5C205.961 344.7 205.461 341 204.561 337.4ZM73.7614 369.5C70.2614 355.1 67.2614 352.1 52.8614 348.6C67.2614 345.1 70.2614 342.1 73.7614 327.7C77.2614 342.2 80.2614 345.1 94.6614 348.6C80.2614 352.1 77.3614 354.9 73.7614 369.5ZM161.261 369.5C157.761 355.1 154.761 352.1 140.361 348.6C154.761 345.1 157.761 342.1 161.261 327.7C164.761 342.2 167.761 345.1 182.161 348.6C167.661 352.1 164.761 354.9 161.261 369.5Z" fill="#B78A24"/>
<path d="M209.261 359.1C207.561 359.1 205.861 359.2 204.261 359.4C185.861 361.4 170.861 374.8 166.061 392.2C165.861 393 165.661 393.7 165.461 394.5C165.261 393.8 165.161 393 164.961 392.3C159.961 373.2 142.461 359.1 121.761 359.1C120.461 359.1 119.161 359.2 117.861 359.3C117.561 359.3 117.261 359.4 116.961 359.4C98.4614 361.4 83.3613 374.6 78.5613 392.2C78.3613 392.8 78.2613 393.4 78.0613 394.1C77.9613 393.5 77.7613 392.9 77.5613 392.3C72.5613 373.2 55.0614 359.1 34.3614 359.1C33.0614 359.1 31.7614 359.2 30.4614 359.3C7.66137 361.3 -10.3386 380.5 -10.3386 403.8C-10.3386 428.5 9.66139 448.5 34.3614 448.5C55.7614 448.5 73.6613 433.6 78.0613 413.5C82.4613 433.5 100.361 448.5 121.761 448.5C143.261 448.5 161.261 433.4 165.461 413.1C169.761 433.3 187.761 448.5 209.261 448.5C233.961 448.5 253.961 428.5 253.961 403.8C253.961 379.2 233.961 359.1 209.261 359.1ZM34.1614 424.9C30.6614 410.4 27.6614 407.5 13.2614 404C27.6614 400.5 30.6614 397.5 34.1614 383.1C37.6614 397.5 40.6613 400.5 55.0613 404C40.6613 407.5 37.7614 410.3 34.1614 424.9ZM121.661 424.9C118.161 410.4 115.161 407.5 100.761 404C115.261 400.5 118.161 397.5 121.661 383.1C125.161 397.5 128.161 400.5 142.561 404C128.061 407.5 125.161 410.3 121.661 424.9ZM209.261 424.9C205.761 410.4 202.761 407.5 188.361 404C202.861 400.5 205.761 397.5 209.261 383.1C212.761 397.5 215.761 400.5 230.161 404C215.561 407.5 212.761 410.3 209.261 424.9Z" fill="#AC7D1C"/>
<g opacity="0.25">
<path d="M202.161 91.9C202.261 91.8 202.461 91.7 202.561 91.7C204.761 90.4 206.361 87.3 205.661 84.5C204.861 81.6 202.061 80.3 200.961 77.6C199.861 74.7 201.161 71 203.361 69.2C205.561 67.4 208.261 66.8 210.961 66.4C238.961 62.4 267.561 68 295.361 62.5C299.561 61.7 303.861 60.5 307.161 57.3C310.461 54.1 312.561 48.4 310.861 43.7C309.161 38.8 304.261 36.8 299.961 35.7C274.361 29.4 247.261 36.1 222.061 27.9C220.061 27.3 217.761 25.9 217.761 23.4C217.761 21.2 219.761 19.8 221.561 19.6C223.361 19.5 226.161 19 227.961 18.9C232.861 18.7 235.361 14.4 239.861 12C243.361 10.1 247.261 10 251.161 9.90001C263.861 9.40001 276.461 7.00001 288.761 2.90001C295.561 0.60001 303.361 -3.8 304.361 -12.2C305.161 -18.9 301.061 -25.3 296.061 -28.1C291.061 -31 285.261 -31 279.761 -31C268.661 -30.9 257.561 -30.5 246.461 -29.8C246.661 -29.7 246.861 -29.5 247.061 -29.3C247.761 -28.7 251.261 -29.2 251.861 -28.4C255.361 -23.8 258.361 -23.8 263.561 -24C266.161 -24.1 268.761 -23.7 271.361 -23C273.061 -22.5 274.861 -21.7 275.761 -19.9C276.961 -17.5 276.061 -14.1 274.361 -12.3C272.561 -10.4 270.261 -9.69999 267.961 -9.09999C254.061 -5.59999 239.561 -5.79999 225.661 -2.09999C224.061 -1.69999 222.361 -1.09999 221.261 0.400009C220.561 1.40001 220.361 2.90001 220.661 4.10001C215.061 4.00001 208.561 6.3 204.861 7.8C196.561 11.2 200.061 14.3 183.661 18.6C179.861 19.6 175.861 22.9 175.561 27.6C175.361 31.6 178.461 35 181.661 36.1C184.861 37.3 188.261 36.9 191.561 37.6C198.461 39 204.161 44.5 210.661 47.6C227.561 55.5 246.761 46.2 264.461 50.4C267.661 51.2 271.661 54.4 270.261 58C269.361 60.2 266.961 60.6 264.861 60.8C233.661 62.7 202.361 62.5 171.161 60.5C167.961 60.3 164.161 60.6 161.661 62.6C158.561 62 155.361 61.4 152.561 62.8C149.661 64.3 147.461 68.8 149.061 72.1C150.061 74.3 152.261 75.3 154.361 75.8C165.061 78.4 176.661 72.9 186.961 77.4C188.761 78.2 190.861 80 190.461 82.3C190.261 83.2 189.761 83.9 189.261 84.5C183.461 91.1 174.461 90.3 166.561 89.4C148.861 87.4 130.961 87.6 113.261 90.1C140.761 91.5 168.361 92.5 195.861 93.1C197.661 92.9 200.061 92.9 202.161 91.9Z" fill="#FFF278"/>
</g>
<g opacity="0.12">
<path d="M60.9614 274.1C60.1614 273.3 59.6614 272.3 59.4614 271.2C59.3614 270.5 59.4614 269.7 59.7614 269C60.2614 267.8 59.7614 266.5 58.6614 266.1C56.5614 265.2 54.4614 263.8 55.4614 261.2C56.0614 259.5 57.8614 258.9 59.4614 258.5C72.0614 255.6 85.5614 258.2 97.5614 253.2C100.061 252.2 102.561 250.6 103.561 248C104.661 245.1 103.561 241.7 101.561 239.4C99.5614 237.1 96.7614 235.9 93.9614 235C80.2614 230.2 65.6614 230.4 51.2614 230.6C21.8614 231.1 -7.53864 231.5 -36.9386 232C-43.3386 232.1 -50.1386 232.1 -55.5386 228.2C-56.0386 227.9 -56.4386 227.4 -56.6386 226.9C-58.0386 224.3 -55.6386 221.9 -53.3386 220.8C-45.6386 216.8 -36.7386 216.8 -28.2386 216.6C-14.1386 216.2 -0.138618 214.9 13.7614 212.5C20.3614 211.4 27.2614 209.9 32.4614 205.5C33.6614 204.5 34.7614 203.2 34.7614 201.6C34.7614 199.4 32.4614 198 30.5614 197.2C20.2614 193 9.16141 191 -1.83859 191.4C-0.0385895 190.7 0.261383 187.9 -0.738617 186.3C-1.73862 184.7 -3.6386 183.8 -5.33859 183.1C-11.5386 180.7 -17.9386 179.1 -24.5386 178.5C-26.0386 178.4 -27.6386 178.2 -28.9386 177.4C-29.8386 176.8 -30.5386 175.9 -31.2386 175.1C-37.7386 167.9 -48.1386 167.2 -57.4386 168.2C-64.5386 168.9 -71.7386 170.4 -78.7386 169.6C-70.9386 172.5 -61.7386 170.6 -53.4386 172C-50.0386 172.6 -41.6386 174.8 -39.4386 177.6C-36.9386 180.8 -43.6386 181.3 -43.3386 184.1C-43.0386 186.3 -41.2386 187.7 -37.5386 188C-34.5386 188.3 -31.6386 189.1 -28.7386 189.6C-25.3386 190.2 -21.0386 192.1 -21.4386 195.8C-21.7386 198.4 -24.3386 199.9 -26.6386 200.8C-45.6386 207.7 -66.7386 203.2 -86.4386 207.6C-89.2386 208.2 -92.1386 209.1 -94.4386 211C-96.7386 212.9 -98.3386 215.9 -97.9386 219C-97.5386 221.7 -95.1386 224 -92.7386 223.9C-93.2386 225.8 -92.5386 228 -91.2386 229.5C-89.4386 231.5 -86.8386 232.3 -84.3386 232.9C-68.8386 236.7 -52.7386 236.9 -36.8386 237.2C-4.0386 237.7 28.7614 238.3 61.6614 238.8C66.5614 238.9 71.5614 239 75.9614 241.3C77.1614 241.9 78.3614 242.9 78.2614 244.3C78.1614 245.6 76.8614 246.4 75.6614 246.8C68.0614 249.6 59.5614 248.9 52.3614 252.7C48.8614 254.6 45.5614 259.3 47.9614 262.6C48.4614 263.3 49.2614 263.9 49.6614 264.7C50.2614 265.7 50.1614 266.9 50.3614 268.1C51.5614 275.2 59.8614 277.6 66.6614 278C75.4614 278.5 84.3614 278.2 93.0614 277.1C84.3614 277.1 75.4614 277.5 66.8614 276.5C65.2614 276.3 63.6614 276 62.2614 275.2C61.7614 274.8 61.3614 274.5 60.9614 274.1Z" fill="#FFF278"/>
</g>
<g opacity="0.48">
<path opacity="0.39" d="M246.761 130.7C251.561 130 256.361 129.3 261.061 128.5C265.861 127.8 270.961 126.9 274.561 124.1C278.161 121.3 279.261 115.9 275.461 113.2L262.161 111.6C265.961 113.1 266.361 118 263.961 120.9C261.461 123.8 257.261 125.2 253.161 126.3C235.261 130.9 216.361 131.9 198.061 134.9C190.661 136.1 183.161 137.7 177.161 141.5C174.661 143.1 172.361 145.3 172.161 147.9C171.961 151.7 176.061 154.6 180.061 156.3C188.661 160 198.361 161.5 207.961 162.6C228.561 165.1 249.561 166.7 269.061 172.8C273.961 174.3 278.961 176.2 282.561 179.4C286.161 182.6 288.361 187.3 286.761 191.5C284.261 198.1 274.661 200.3 266.561 201.1C258.361 201.9 250.061 202.4 241.761 202.5C234.161 202.6 223.361 204.5 219.461 209.9C215.861 214.9 219.261 221.9 224.661 225C230.661 228.5 238.961 227.4 245.761 227.6C259.161 228 290.761 228.5 291.061 230.4C291.361 232.9 272.661 231.7 269.861 231.5C249.761 230.7 242.561 230.1 222.461 230C216.261 229.9 209.961 229.9 203.861 231.2C202.161 231.6 200.361 232.1 199.261 233.3C198.161 234.5 198.261 236.5 199.861 237.2C200.461 237.4 201.061 237.5 201.561 237.8C202.861 238.5 202.561 240.3 201.361 241.1C200.161 241.9 198.461 242 196.961 242.1C185.861 242.5 174.361 240.9 163.661 243.3C161.761 243.7 159.061 245 156.961 246.5C164.361 243.9 172.961 243.8 181.061 244.2C190.961 244.7 201.161 245.7 210.461 242.9C211.861 242.5 213.461 241.8 213.661 240.5C213.861 239.4 212.861 238.4 212.761 237.4C212.261 234.4 217.161 233.2 220.761 233.2C250.061 233.1 279.461 237.2 308.561 234.8C310.361 234.7 316.861 234.2 316.861 231.8C316.861 229 307.761 228.3 305.661 228.1C286.461 226.2 266.961 225.9 247.661 225.3C243.261 225.2 238.761 225 234.761 223.4C230.761 221.9 227.361 218.6 227.561 214.9C227.661 211.3 231.161 208.2 235.161 206.8C239.161 205.4 243.661 205.3 247.961 205.3C269.661 205 291.261 204.8 312.961 204.5C320.861 204.4 328.861 204.3 336.661 203.1C342.461 202.2 348.861 200.1 350.561 195.4C351.661 192.2 350.061 188.7 347.361 186.3C344.661 183.9 341.061 182.3 337.361 181C302.261 168.1 262.261 169.6 225.161 161.5C220.461 160.5 215.761 159.3 211.861 156.9C207.961 154.5 205.061 150.7 205.361 146.6C205.661 142.5 209.261 138.9 213.561 136.9C217.861 134.9 222.861 134.1 227.661 133.4C233.961 132.6 240.361 131.6 246.761 130.7Z" fill="#FFF278"/>
</g>
<g opacity="0.47">
<path opacity="0.31" d="M39.6614 11.4C34.8614 10.7 30.0614 9.99998 25.3614 9.19998C20.5614 8.49998 15.4614 7.59999 11.8614 4.79999C8.26141 1.99999 7.16138 -3.40001 10.9614 -6.10001L24.2614 -7.70001C20.4614 -6.20001 20.0614 -1.30001 22.4614 1.59999C24.9614 4.49999 29.1614 5.89998 33.2614 6.99998C51.1614 11.6 70.0614 12.6 88.3614 15.6C95.7614 16.8 103.261 18.4 109.261 22.2C111.761 23.8 114.061 26 114.261 28.6C114.461 32.4 110.361 35.3 106.361 37C97.7614 40.7 88.0614 42.2 78.4614 43.3C57.8614 45.8 36.8614 47.4 17.3614 53.5C12.4614 55 7.46141 56.9 3.86141 60.1C0.261414 63.3 -1.9386 68 -0.3386 72.2C2.1614 78.8 11.7614 81 19.8614 81.8C28.0614 82.6 36.3614 83.1 44.6614 83.2C52.2614 83.3 63.0614 85.2 66.9614 90.6C70.5614 95.6 67.1614 102.6 61.7614 105.7C55.7614 109.2 47.4614 108.1 40.6614 108.3C27.2614 108.7 -4.33858 109.2 -4.63858 111.1C-4.93858 113.6 13.7614 112.4 16.5614 112.2C36.6614 111.4 43.8614 110.8 63.9614 110.7C70.1614 110.6 76.4614 110.6 82.5614 111.9C84.2614 112.3 86.0614 112.8 87.1614 114C88.2614 115.2 88.1614 117.2 86.5614 117.9C85.9614 118.1 85.3614 118.2 84.8614 118.5C83.5614 119.2 83.8614 121 85.0614 121.8C86.2614 122.6 87.9614 122.7 89.4614 122.8C100.561 123.2 112.061 121.6 122.761 124C124.661 124.4 127.361 125.7 129.461 127.2C122.061 124.6 113.461 124.5 105.361 124.9C95.4614 125.4 85.2614 126.4 75.9614 123.6C74.5614 123.2 72.9614 122.5 72.7614 121.2C72.5614 120.1 73.5614 119.1 73.6614 118.1C74.1614 115.1 69.2614 113.9 65.6614 113.9C36.3614 113.8 6.96142 117.9 -22.1386 115.5C-23.9386 115.4 -30.4386 114.9 -30.4386 112.5C-30.4386 109.7 -21.3386 109 -19.2386 108.8C-0.03862 106.9 19.4614 106.6 38.7614 106C43.1614 105.9 47.6614 105.7 51.6614 104.1C55.6614 102.6 59.0614 99.3 58.8614 95.6C58.7614 92 55.2614 88.9 51.2614 87.5C47.2614 86.1 42.7614 86 38.4614 86C16.7614 85.7 -4.83861 85.5 -26.5386 85.2C-34.4386 85.1 -42.4386 85 -50.2386 83.8C-56.0386 82.9 -62.4386 80.8 -64.1386 76.1C-65.2386 72.9 -63.6386 69.4 -60.9386 67C-58.2386 64.6 -54.6386 63 -50.9386 61.7C-15.8386 48.8 24.1614 50.3 61.2614 42.2C65.9614 41.2 70.6614 40 74.5614 37.6C78.4614 35.2 81.3614 31.4 81.0614 27.3C80.7614 23.2 77.1614 19.6 72.8614 17.6C68.5614 15.6 63.5614 14.8 58.7614 14.1C52.3614 13.3 45.9614 12.3 39.6614 11.4Z" fill="#FFF278"/>
</g>
<circle cx="118" cy="158" r="39.5" fill="#AC7D1C" stroke="url(#paint1_linear_187_18656)" stroke-width="3"/>
<path d="M133.373 142.927C130.372 139.926 126.549 137.882 122.387 137.055C118.224 136.227 113.91 136.652 109.989 138.276C106.068 139.9 102.717 142.65 100.359 146.179C98.0014 149.708 96.7429 153.856 96.7429 158.1C96.7429 162.344 98.0014 166.493 100.359 170.021C102.717 173.55 106.068 176.3 109.989 177.924C113.91 179.549 118.224 179.974 122.387 179.146C126.549 178.318 130.372 176.274 133.373 173.273C135.366 171.281 136.948 168.916 138.026 166.312C139.105 163.709 139.66 160.918 139.66 158.1C139.66 155.282 139.105 152.491 138.026 149.888C136.948 147.284 135.366 144.919 133.373 142.927ZM100.302 165.522C98.8286 161.979 98.4401 158.078 99.1861 154.314C99.932 150.55 101.779 147.092 104.492 144.379C107.205 141.666 110.663 139.819 114.427 139.073C118.192 138.327 122.092 138.715 125.635 140.189C119.382 138.518 111.858 140.598 106.284 146.158C100.711 151.718 98.6444 159.269 100.302 165.522ZM111.813 164.487V151.713H124.587V164.487H111.813ZM110.778 175.998C117.031 177.669 124.555 175.589 130.129 170.029C135.702 164.469 137.755 156.931 136.098 150.678C137.571 154.221 137.96 158.122 137.214 161.886C136.468 165.65 134.621 169.108 131.908 171.821C129.194 174.535 125.737 176.381 121.972 177.127C118.208 177.873 114.307 177.485 110.764 176.011L110.778 175.998Z" fill="#EDE8D5"/>
</g>
<defs>
<linearGradient id="paint0_linear_187_18656" x1="117.552" y1="-0.0444468" x2="117.552" y2="416.955" gradientUnits="userSpaceOnUse">
<stop stop-color="#FFE55A"/>
<stop offset="1" stop-color="#8F5907"/>
</linearGradient>
<linearGradient id="paint1_linear_187_18656" x1="86.9452" y1="111.618" x2="105.581" y2="205.728" gradientUnits="userSpaceOnUse">
<stop stop-color="#E5B039"/>
<stop offset="0.47968" stop-color="#FFEBBD"/>
<stop offset="1" stop-color="#E5B039"/>
</linearGradient>
<clipPath id="clip0_187_18656">
<rect width="235" height="417" rx="12" fill="white"/>
</clipPath>
</defs>
</svg>
