<svg width="25" height="24" viewBox="0 0 25 24" fill="none" xmlns="http://www.w3.org/2000/svg">
<path d="M23.6762 14.8149C22.1222 21.0487 15.8091 24.8425 9.57521 23.288C3.34396 21.7339 -0.4494 15.4196 1.10523 9.1863C2.65849 2.95179 8.97164 -0.842281 15.2036 0.71184C21.437 2.26596 25.2301 8.5809 23.676 14.815L23.6761 14.8149H23.6762Z" fill="#F7931A"/>
<path fill-rule="evenodd" clip-rule="evenodd" d="M17.5211 10.3421C17.7526 8.79356 16.5738 7.96116 14.9619 7.40587L15.4848 5.30822L14.208 4.99005L13.699 7.03246C13.3633 6.94874 13.0186 6.86985 12.676 6.79165L13.1888 4.73575L11.9128 4.41758L11.3896 6.51454C11.1119 6.45129 10.8391 6.38878 10.5744 6.32292L10.5759 6.31632L8.81518 5.8766L8.47555 7.24041C8.47555 7.24041 9.42279 7.45757 9.40283 7.47093C9.91984 7.59999 10.0133 7.94228 9.99782 8.21358L9.40215 10.6033C9.43775 10.6123 9.48393 10.6254 9.53488 10.6459L9.49779 10.6366L9.49775 10.6366C9.46626 10.6287 9.43353 10.6206 9.39993 10.6125L8.56501 13.9601C8.50182 14.1172 8.34144 14.353 7.97997 14.2635C7.99277 14.282 7.05201 14.0319 7.05201 14.0319L6.41812 15.4935L8.07961 15.9077C8.26148 15.9534 8.4412 16.0002 8.61911 16.0466L8.6193 16.0466L8.61952 16.0467C8.74383 16.0791 8.86725 16.1113 8.98989 16.1426L8.46156 18.2643L9.73683 18.5825L10.26 16.4833C10.6084 16.5779 10.9465 16.6652 11.2775 16.7474L10.7561 18.8367L12.0329 19.1549L12.5612 17.0372C14.7383 17.4492 16.3753 17.2831 17.0644 15.3137C17.6196 13.728 17.0367 12.8134 15.8914 12.217C16.7256 12.0246 17.354 11.4758 17.5215 10.3423L17.5211 10.342L17.5211 10.3421ZM14.604 14.4331C14.242 15.8878 11.9651 15.2864 10.9234 15.0112C10.8297 14.9865 10.746 14.9644 10.6745 14.9466L11.3756 12.1357C11.4627 12.1575 11.5691 12.1813 11.6896 12.2084C12.7671 12.4502 14.9749 12.9458 14.604 14.4331H14.604ZM11.9057 10.9038C12.7742 11.1356 14.6689 11.6413 14.9988 10.3191H14.999C15.3359 8.96685 13.4946 8.55914 12.5953 8.36002C12.4942 8.33762 12.4049 8.31786 12.332 8.29969L11.6964 10.849C11.7564 10.864 11.8268 10.8828 11.9057 10.9038Z" fill="white"/>
</svg>
