<svg width="21" height="20" viewBox="0 0 21 20" fill="none" xmlns="http://www.w3.org/2000/svg">
<g clip-path="url(#clip0_134_7529)">
<path d="M4.38843 0H12.3884V2H4.38843V0ZM2.38843 4V2H4.38843V4H2.38843ZM2.38843 12H0.388428V4H2.38843V12ZM4.38843 14H2.38843V12H4.38843V14ZM12.3884 14V16H4.38843V14H12.3884ZM14.3884 12H12.3884V14H14.3884V16H16.3884V18H18.3884V20H20.3884V18H18.3884V16H16.3884V14H14.3884V12ZM14.3884 4H16.3884V12H14.3884V4ZM14.3884 4V2H12.3884V4H14.3884Z" fill="#929292"/>
</g>
<defs>
<clipPath id="clip0_134_7529">
<rect width="20" height="20" fill="white" transform="translate(0.388428)"/>
</clipPath>
</defs>
</svg>
