<svg width="16" height="17" viewBox="0 0 16 17" fill="none" xmlns="http://www.w3.org/2000/svg">
<path d="M13 1.22754H4.625C4.55625 1.22754 4.5 1.28379 4.5 1.35254V2.22754C4.5 2.29629 4.55625 2.35254 4.625 2.35254H12.375V13.1025C12.375 13.1713 12.4312 13.2275 12.5 13.2275H13.375C13.4438 13.2275 13.5 13.1713 13.5 13.1025V1.72754C13.5 1.45098 13.2766 1.22754 13 1.22754ZM11 3.22754H3C2.72344 3.22754 2.5 3.45098 2.5 3.72754V12.0197C2.5 12.1525 2.55312 12.2791 2.64687 12.3729L5.35469 15.0807C5.38906 15.115 5.42813 15.1432 5.47031 15.1666V15.1963H5.53594C5.59062 15.2166 5.64844 15.2275 5.70781 15.2275H11C11.2766 15.2275 11.5 15.0041 11.5 14.7275V3.72754C11.5 3.45098 11.2766 3.22754 11 3.22754ZM5.46875 13.6057L4.12344 12.2588H5.46875V13.6057ZM10.375 14.1025H6.46875V11.8838C6.46875 11.5385 6.18906 11.2588 5.84375 11.2588H3.625V4.35254H10.375V14.1025Z" fill="#7A7377"/>
</svg>
