<svg width="168" height="83" viewBox="0 0 168 83" fill="none" xmlns="http://www.w3.org/2000/svg">
<g filter="url(#filter0_dd_354_59459)">
<path d="M4 9.98615V9.29149C4 5.26345 7.65024 2 12.1557 2H106.655C111.16 2 114.811 5.26345 114.811 9.29149V9.98615C114.811 14.0142 111.16 17.2776 106.655 17.2776H71.2738C66.7683 17.2776 63.1181 20.5411 63.1181 24.5691C63.1181 28.5972 66.7683 31.8606 71.2738 31.8606H155.844C160.35 31.8606 164 35.1241 164 39.1521V39.8468C164 43.8748 160.35 47.1383 155.844 47.1383H125.986C121.48 47.1383 117.83 50.4017 117.83 54.4298C117.83 58.4578 121.48 61.7213 125.986 61.7213H129.954C134.459 61.7213 138.109 64.9847 138.109 69.0127V69.7074C138.109 73.7354 134.459 76.9989 129.954 76.9989H44.5175C40.0121 76.9989 36.3619 73.7354 36.3619 69.7074V69.0127C36.3619 64.9847 40.0121 61.7213 44.5175 61.7213H83.0066C87.5121 61.7213 91.1623 58.4578 91.1623 54.4298C91.1623 50.4017 87.5121 47.1383 83.0066 47.1383H24.5821C20.0766 47.1383 16.4264 43.8748 16.4264 39.8468V39.1521C16.4264 35.1241 20.0766 31.8606 24.5821 31.8606H28.2949C32.8003 31.8606 36.4505 28.5972 36.4505 24.5691C36.4505 20.5411 32.8003 17.2776 28.2949 17.2776H12.1557C7.65024 17.2776 4 14.0142 4 9.98615Z" fill="url(#paint0_linear_354_59459)"/>
<path d="M4.30803 9.98615V9.29149C4.30803 5.46511 7.78701 2.30803 12.1557 2.30803H106.655C111.024 2.30803 114.503 5.46511 114.503 9.29149V9.98615C114.503 13.8125 111.024 16.9696 106.655 16.9696H71.2738C66.6315 16.9696 62.8101 20.3394 62.8101 24.5691C62.8101 28.7988 66.6316 32.1687 71.2738 32.1687H155.844C160.213 32.1687 163.692 35.3257 163.692 39.1521V39.8468C163.692 43.6731 160.213 46.8302 155.844 46.8302H125.986C121.343 46.8302 117.522 50.2001 117.522 54.4298C117.522 58.6595 121.343 62.0293 125.986 62.0293H129.954C134.322 62.0293 137.801 65.1864 137.801 69.0127V69.7074C137.801 73.5338 134.322 76.6908 129.954 76.6908H44.5175C40.1489 76.6908 36.6699 73.5338 36.6699 69.7074V69.0127C36.6699 65.1864 40.1489 62.0293 44.5175 62.0293H83.0066C87.6488 62.0293 91.4703 58.6595 91.4703 54.4298C91.4703 50.2001 87.6488 46.8302 83.0066 46.8302H24.5821C20.2134 46.8302 16.7345 43.6731 16.7345 39.8468V39.1521C16.7345 35.3257 20.2134 32.1687 24.5821 32.1687H28.2949C32.9371 32.1687 36.7586 28.7988 36.7586 24.5691C36.7586 20.3394 32.9371 16.9696 28.2949 16.9696H12.1557C7.78701 16.9696 4.30803 13.8125 4.30803 9.98615Z" stroke="black" stroke-width="0.61606" style="mix-blend-mode:soft-light"/>
</g>
<defs>
<filter id="filter0_dd_354_59459" x="0" y="0" width="168" height="82.999" filterUnits="userSpaceOnUse" color-interpolation-filters="sRGB">
<feFlood flood-opacity="0" result="BackgroundImageFix"/>
<feColorMatrix in="SourceAlpha" type="matrix" values="0 0 0 0 0 0 0 0 0 0 0 0 0 0 0 0 0 0 127 0" result="hardAlpha"/>
<feOffset dy="-1.5"/>
<feComposite in2="hardAlpha" operator="out"/>
<feColorMatrix type="matrix" values="0 0 0 0 0.815686 0 0 0 0 0.611765 0 0 0 0 0.054902 0 0 0 1 0"/>
<feBlend mode="normal" in2="BackgroundImageFix" result="effect1_dropShadow_354_59459"/>
<feColorMatrix in="SourceAlpha" type="matrix" values="0 0 0 0 0 0 0 0 0 0 0 0 0 0 0 0 0 0 127 0" result="hardAlpha"/>
<feOffset dy="2"/>
<feGaussianBlur stdDeviation="2"/>
<feComposite in2="hardAlpha" operator="out"/>
<feColorMatrix type="matrix" values="0 0 0 0 0.317647 0 0 0 0 0.12549 0 0 0 0 0.054902 0 0 0 0.32 0"/>
<feBlend mode="normal" in2="effect1_dropShadow_354_59459" result="effect2_dropShadow_354_59459"/>
<feBlend mode="normal" in="SourceGraphic" in2="effect2_dropShadow_354_59459" result="shape"/>
</filter>
<linearGradient id="paint0_linear_354_59459" x1="84" y1="2" x2="84" y2="87.7947" gradientUnits="userSpaceOnUse">
<stop stop-color="#FFF4AD"/>
<stop offset="1" stop-color="#FFB442"/>
</linearGradient>
</defs>
</svg>
