<svg width="289" height="284" viewBox="0 0 289 284" fill="none" xmlns="http://www.w3.org/2000/svg">
<path d="M289 16.3124V0.285817H272.651V14.1852H268.4V0.227539H252.05V16.2541H266.23V20.4793H247.339V0.227539H41.9308V20.4793H23.1587V16.3124H37.3381V0.285817H20.9887V14.1852H16.6784V0.227539H0.328984V16.2541H14.4489V20.4793H0.269531V36.5059H16.6189V22.6647H20.9887V40.7456H0.269531V242.739H20.9887V260.805H16.6784V246.906H0.328984V262.932H14.4489V267.143H0.269531V283.169H16.6189V269.27H20.9887V283.169H37.3381V267.143H23.1587V262.961H41.9308V283.228H247.339V262.99H266.111V267.143H251.931V283.169H268.281V269.27H272.532V283.169H288.881V267.143H274.702V262.961H288.881V246.935H272.532V260.834H268.281V242.768H288.941V40.7456H268.281V22.6647H272.532V36.5641H288.881V20.5376H274.702V16.3124H289ZM274.821 2.41298H286.711V14.0687H274.821V2.41298ZM254.161 14.0687V2.41298H266.051V14.0687H254.161ZM23.1587 2.41298H35.0492V14.0687H23.1587V2.41298ZM2.499 14.0687V2.41298H14.3895V14.0687H2.499ZM14.3895 34.3204H2.499V22.6647H14.3895V34.3204ZM16.6189 20.421V16.3124H20.9887V20.4793L16.6189 20.421ZM27.573 22.6065V26.9773H23.1141V22.6065H27.573ZM2.499 260.805V249.149H14.3895V260.805H2.499ZM14.3895 281.071H2.499V269.416H14.3895V281.071ZM35.0492 269.416V281.071H23.1587V269.416H35.0492ZM20.9887 267.143H16.6784V262.961H20.9887V267.143ZM27.6919 260.776H23.233V256.405H27.6919V260.776ZM266.17 281.042H254.28V269.386H266.17V281.042ZM286.83 269.386V281.042H274.939V269.386H286.83ZM274.939 249.12H286.83V260.776H274.939V249.12ZM272.71 263.02V267.143H268.459V262.961L272.71 263.02ZM261.756 260.834V256.463H266.215V260.834H261.756ZM286.771 42.9311V240.553H266.111V254.249H259.408V260.805H245.109V281.071H44.1602V260.805H29.9065V254.249H23.1587V240.553H2.499V42.9311H23.1587V29.2211H29.9065V22.6647H44.2048V2.41298H245.154V22.6647H259.452V29.2211H266.155V42.9311H286.771ZM266.111 27.0356H261.652V22.6647H266.111V27.0356ZM286.771 22.6647V34.3204H274.88V22.6647H286.771ZM272.591 20.4793H268.34V16.3124H272.591V20.4793Z" fill="#BB5C4E"/>
</svg>
