<svg width="368" height="283" viewBox="0 0 368 283" fill="none" xmlns="http://www.w3.org/2000/svg">
<path d="M125.556 99.6979C125.807 96.4009 126.359 93.1335 127.206 89.9373C103.939 66.9455 84.5559 60.5876 64.073 53.9204C55.0479 51.1489 46.1795 47.8908 37.5069 44.1602C38.7097 66.1209 44.1398 125.061 68.9531 148.74C94.974 173.056 127.785 188.868 163.016 194.071C133.186 170.976 123.7 131.969 125.556 99.6979Z" fill="#FFDFAC"/>
<path d="M156.347 203.592C121.745 197.39 89.5887 181.573 63.5548 157.952C48.3214 160.146 33.5179 164.679 19.6676 171.39C13.4802 174.27 7.14831 176.828 0.69696 179.054C51.7668 220.226 119.745 212.219 156.347 203.592Z" fill="#FFDFAC"/>
<path d="M205.15 194.071C240.377 188.851 273.183 173.041 299.214 148.74C324.027 125.027 329.491 66.2584 330.66 44.1602C321.987 47.8908 313.119 51.1489 304.094 53.9204C283.473 60.5876 264.228 66.9455 240.961 89.9373C241.808 93.1335 242.36 96.4009 242.611 99.6979C244.466 131.969 234.981 170.976 205.15 194.071Z" fill="#FFDFAC"/>
<path d="M367.363 179.054C360.912 176.828 354.58 174.27 348.392 171.39C334.542 164.679 319.739 160.146 304.505 157.952C278.466 181.566 246.312 197.381 211.713 203.592C248.418 212.219 316.568 220.226 367.363 179.054Z" fill="#FFDFAC"/>
<path d="M329.149 254.9C325.315 251.324 321.807 247.414 318.667 243.216C311.706 233.362 302.522 225.285 291.86 219.639C284.274 220.531 276.644 221.002 269.006 221.048C263.553 221.048 257.985 220.842 252.303 220.43C234.041 219.073 215.964 215.872 198.347 210.876C216.733 231.634 260.105 268.681 329.149 254.9Z" fill="#FFDFAC"/>
<path d="M169.819 210.913C152.197 215.88 134.121 219.069 115.863 220.433C102.627 221.417 89.3283 221.187 76.1342 219.745C65.547 225.386 56.4258 233.424 49.4995 243.218C46.3593 247.417 42.8513 251.327 39.0173 254.903C108.027 268.65 151.433 231.637 169.819 210.913Z" fill="#FFDFAC"/>
<path d="M184.081 209.604C174.322 221.964 162.814 232.836 149.919 241.875C156.793 255.863 169.818 273.253 184.081 282.738C198.343 273.253 211.574 255.829 218.242 241.841C205.358 232.801 193.851 221.943 184.081 209.604Z" fill="#FFDFAC"/>
<path d="M232.266 100.284C231.988 96.9323 231.377 93.6168 230.445 90.3859C230.445 90.3859 230.445 90.3861 230.445 90.1455C222.884 62.9609 194.978 17.1837 184.152 0C173.326 17.1837 145.351 63.0641 137.824 90.2487C136.894 93.4918 136.284 96.8186 136.003 100.181C134.01 134.548 145.729 177.026 184.117 195.069C222.54 177.129 234.259 134.548 232.266 100.284Z" fill="#FFDFAC"/>
</svg>
