<svg width="572" height="593" viewBox="0 0 572 593" fill="none" xmlns="http://www.w3.org/2000/svg">
<path d="M10.043 591.675H490.515L422.681 433.043H84.1766L10.043 591.675Z" fill="url(#paint0_radial_65_24300)"/>
<path d="M470.327 544.366L469.711 543.126L440.66 557.582L427.651 519.464L451.978 501.156L451.141 500.047L427.174 518.076L416.209 485.953L436.8 465.444L435.823 464.459L415.708 484.483L405.787 455.408L423.207 433.47L422.123 432.608L404.67 454.586L340.77 454.931L350.371 433.33L349.106 432.764L339.25 454.94L291.235 455.194L295.498 433.174L294.134 432.911L289.822 455.202L245.963 455.441L245.487 433.035L244.099 433.067L244.575 455.449L191.615 455.728L185.398 432.862L184.059 433.224L190.178 455.728L141.013 455.991L128.619 432.714L127.395 433.363L139.469 455.999L102.065 456.196L84.7352 432.632L83.6182 433.454L100.932 457.009L90.3039 486.61L69.7623 464.484L68.7439 465.428L89.77 488.089L78.8873 518.404L53.7545 498.495L52.8921 499.579L78.3945 519.776L68.6125 547.028L39.143 529.533L38.4366 530.724L68.1361 548.35L57.5737 577.77L23.3569 563.101L22.8066 564.374L57.1056 579.076L52.6704 591.429L53.9763 591.897L58.3786 579.618L85.3677 591.191L85.2855 591.454L86.6079 591.872L86.649 591.741L87.9549 592.3L88.497 591.026L87.0596 590.41L95.2237 564.432L119.404 578.78L116.291 591.495L117.638 591.823L120.652 579.52L138.574 590.156L138.311 591.527L139.674 591.782L139.839 590.903L142.105 592.25L142.812 591.059L140.11 589.458L143.526 571.347L158.376 583.109L157.169 591.56L158.54 591.757L159.633 584.111L169.85 592.201L170.713 591.117L159.863 582.517L162.195 566.115L175.484 580.439L174.376 591.585L175.756 591.725L176.749 581.795L186.342 592.127L187.361 591.183L176.938 579.955L178.655 562.748L200.207 592.061L201.324 591.24L179.517 561.573H195.763L211.976 591.979L213.2 591.33L197.332 561.573H218.974L227.204 591.831L228.543 591.47L220.411 561.573H246.842L247.483 591.667L248.871 591.634L248.23 561.573H269.223L263.425 591.519L264.788 591.782L270.636 561.573H291.851L278.611 591.371L279.876 591.938L293.371 561.573H319.703L296.163 591.224L297.247 592.086L320.516 562.781L321.091 578.682L308.557 591.158L309.534 592.143L321.156 580.571L321.559 591.675L322.947 591.626L322.495 579.24L336.926 564.867L338.799 584.538L330.076 591.1L330.914 592.209L338.955 586.156L339.489 591.716L340.868 591.585L340.261 585.179L357.328 572.341L360.35 591.766L361.722 591.552L358.585 571.397L378.962 556.062L385.738 584.875L373.369 591.026L373.985 592.267L386.058 586.255L387.364 591.799L388.711 591.478L387.331 585.614L414.222 572.234L420.053 591.831L421.384 591.437L415.478 571.61L439.847 559.487L450.894 591.864L452.208 591.413L441.096 558.863L470.311 544.325L470.327 544.366ZM426.016 518.954L404.604 535.061L395.98 506.101L415.117 487.046L426.008 518.963L426.016 518.954ZM366.839 502.24L319.456 502.914L329.789 479.654L385.459 478.783L366.831 502.24H366.839ZM350.166 523.242L310.348 523.414L318.84 504.31L365.73 503.645L350.166 523.242ZM139.288 506.848L166.376 506.462L175.731 523.997L151.978 524.104L139.288 506.848ZM167.936 506.445L203.853 505.936L208.732 523.858L177.308 523.997L167.945 506.445H167.936ZM205.283 505.912L245.659 505.345L246.054 523.702L210.169 523.858L205.291 505.92L205.283 505.912ZM247.047 505.32L280.229 504.852L276.607 523.562L247.442 523.685L247.047 505.32ZM281.642 504.836L317.312 504.335L308.828 523.422L278.012 523.554L281.634 504.836H281.642ZM317.937 502.938L281.913 503.448L286.389 480.343L328.277 479.686L317.945 502.938H317.937ZM280.492 503.464L247.014 503.94L246.522 480.968L284.96 480.368L280.484 503.472L280.492 503.464ZM245.626 503.957L204.905 504.532L198.695 481.707L245.134 480.976L245.626 503.949V503.957ZM203.476 504.556L167.205 505.066L155.115 482.397L197.274 481.74L203.484 504.556H203.476ZM165.645 505.09L138.278 505.476L121.695 482.922L153.547 482.421L165.637 505.09H165.645ZM137.186 506.322L131.215 530.683L112.266 510.273L120.595 483.76L137.177 506.322H137.186ZM130.82 532.301L125.235 555.093L103.577 537.944L111.79 511.801L130.82 532.301ZM131.946 533.517L146.352 549.032L142.615 568.85L126.434 556.029L131.954 533.508L131.946 533.517ZM132.34 531.899L138.253 507.776L150.886 524.967L146.664 547.34L132.34 531.899ZM152.011 526.494L164.117 542.97L161.259 563.06L147.838 548.605L152.011 526.502V526.494ZM152.988 525.484L176.47 525.385L185.382 542.091H165.201L152.996 525.484H152.988ZM178.039 525.377L209.11 525.246L213.693 542.1H186.958L178.047 525.385L178.039 525.377ZM210.539 525.238L246.078 525.082L246.44 542.091H215.122L210.539 525.229V525.238ZM247.466 525.073L276.336 524.95L273.018 542.1H247.836L247.474 525.082L247.466 525.073ZM277.749 524.942L308.212 524.811L300.533 542.1H274.431L277.749 524.95V524.942ZM309.732 524.802L349.065 524.63L335.201 542.091H302.052L309.74 524.802H309.732ZM350.059 525.607L353.328 546.617L338.035 561.836L336.236 543.003L350.051 525.607H350.059ZM351.234 524.129L366.831 504.483L372.301 527.726L354.544 545.401L351.234 524.129ZM367.931 503.103L386.641 479.547L394.428 505.706L373.459 526.585L367.94 503.111L367.931 503.103ZM394.871 507.209L403.429 535.948L379.832 553.697L373.828 528.162L394.871 507.209ZM414.632 485.575L395.545 504.581L387.693 478.208L404.776 456.689L414.632 485.567V485.575ZM403.577 455.975L386.584 477.378L330.421 478.257L340.178 456.311L403.585 455.975H403.577ZM338.651 456.319L328.893 478.282L286.66 478.947L290.989 456.582L338.659 456.328L338.651 456.319ZM289.568 456.582L285.231 478.964L246.489 479.571L246.004 456.812L289.568 456.582ZM244.624 456.829L245.109 479.604L198.326 480.335L192.01 457.108L244.624 456.829ZM190.572 457.116L196.897 480.36L154.384 481.025L141.777 457.379L190.581 457.116H190.572ZM140.208 457.379L152.824 481.042L120.693 481.543L103.076 457.576L140.2 457.379H140.208ZM101.926 458.356L119.584 482.372L111.182 509.098L91.3716 487.752L101.926 458.348V458.356ZM90.846 489.23L110.706 510.626L102.41 537.016L80.0454 519.308L90.8378 489.23H90.846ZM79.5526 520.679L101.967 538.428L94.4516 562.354L69.8445 547.742L79.5608 520.679H79.5526ZM85.803 589.877L58.8714 578.329L69.3681 549.081L94.0245 563.717L85.803 589.877ZM95.6754 563.085L103.133 539.356L124.874 556.572L119.773 577.384L95.6754 563.076V563.085ZM138.861 588.719L121.014 578.123L126.065 557.516L142.319 570.395L138.861 588.727V588.719ZM158.622 581.54L143.83 569.828L147.518 550.297L161.004 564.826L158.622 581.54ZM175.698 578.616L162.475 564.366L165.292 544.564L177.439 561.097L175.69 578.616H175.698ZM178.507 560.21L166.212 543.479H186.113L195.032 560.21H178.507ZM196.609 560.21L187.689 543.479H214.063L218.613 560.21H196.609ZM220.05 560.21L215.5 543.479H246.472L246.826 560.21H220.05ZM248.214 560.21L247.86 543.479H272.747L269.511 560.21H248.222H248.214ZM270.915 560.21L274.151 543.479H299.908L292.475 560.21H270.915ZM293.995 560.21L301.428 543.479H334.092L320.811 560.21H293.995ZM322.438 577.376L321.846 561.138L335.004 544.572L336.77 563.109L322.438 577.376ZM340.113 583.585L338.207 563.627L353.591 548.309L357.09 570.805L340.113 583.577V583.585ZM358.355 569.861L354.815 547.093L372.679 529.303L378.633 554.6L358.363 569.852L358.355 569.861ZM387.027 584.267L380.186 555.175L403.856 537.369L413.844 570.928L387.027 584.267ZM415.101 570.296L405.031 536.473L426.492 520.326L439.412 558.19L415.101 570.288V570.296Z" fill="url(#paint1_linear_65_24300)"/>
<path d="M492.092 592.719H8.4082L83.5192 432H423.371L423.642 432.632L492.1 592.719H492.092ZM11.6771 590.633H488.946L421.991 434.078H84.8416L11.6771 590.633Z" fill="url(#paint2_linear_65_24300)"/>
<path d="M81.3601 499.629L38.1744 453.47L7.58789 516.129L61.9274 556.629L81.3601 499.629Z" fill="#EF232C"/>
<path d="M7.58671 516.129L0.6875 515.645L55.7826 555.808L61.9262 556.629L7.58671 516.129Z" fill="#770009"/>
<path d="M7.58671 516.129L0.6875 515.645L31.1015 453.807L38.1732 453.47L7.58671 516.129Z" fill="#770009"/>
<path d="M16.5796 514.084L6.9043 515.184L7.25747 517.451L16.5796 514.084Z" fill="#770009"/>
<path d="M62.0981 556.136L59.5684 545.163L60.6032 555.644L61.9256 556.629L62.0981 556.136Z" fill="#770009"/>
<path d="M72.9805 501.263L80.9967 499.234L81.3581 499.628L81.161 500.203L72.9805 501.263Z" fill="#770009"/>
<path d="M38.6421 453.979L40.8679 464.566L37.4922 454.858L38.1739 453.47L38.6421 453.979Z" fill="#770009"/>
<path d="M76.1428 500.663L40.0616 461.551L14.1074 514.552L59.9872 548.063L76.1428 500.663Z" fill="#FAF5F0"/>
<path d="M41.8207 495.21L44.9747 488.187L42.5271 485.748L44.1041 482.339L41.6483 479.81L38.3301 486.766L40.9009 489.247L39.2418 492.828L41.8207 495.21Z" fill="#86FCD2"/>
<path d="M56.5241 490.611L55.2346 493.806L53.1484 491.654L48.9432 501.797L51.169 503.859L49.7481 507.374L47.4648 505.345L42.8242 516.54L45.2718 518.454L43.703 522.339L52.9184 529.23L54.2818 525.509L56.3598 527.135L57.6411 523.538L59.6123 525.148L62.0106 518.273L60.1215 516.598L61.3207 513.238L64.7621 503.604L62.9716 501.756L64.105 498.66L56.5405 490.602L56.5241 490.611Z" fill="#FFD400"/>
<path d="M63.1605 514.963L65.4027 508.524L63.6287 506.758L61.3125 513.255L63.1605 514.963Z" fill="#FFD400"/>
<path d="M53.5093 520.178L52.1376 523.85L47.6367 520.318L49.1151 516.573L53.5093 520.178Z" fill="white"/>
<path d="M56.8999 518.347L55.6022 521.887L53.5078 520.178L54.8466 516.589L56.8999 518.347Z" fill="white"/>
<path d="M43.4231 491.662L44.9836 488.196L42.495 485.715L40.877 489.214L43.4231 491.662Z" fill="#3AAA85"/>
<path d="M42.5516 485.781L44.1286 482.372L41.6153 479.777L39.9727 483.21L42.5516 485.781Z" fill="#3AAA85"/>
<path d="M47.4714 505.353L42.8227 516.556L40.293 514.569L45.1142 503.259L47.4714 505.353Z" fill="#D8AB3A"/>
<path d="M53.1456 491.662L48.9404 501.806L46.6406 499.678L50.9937 489.444L53.1456 491.662Z" fill="#D8AB3A"/>
<path d="M51.1667 503.867L49.7458 507.382L47.4707 505.353L48.9409 501.805L51.1667 503.867Z" fill="#D8AB3A"/>
<path d="M45.2711 518.47L43.7023 522.355L41.1973 520.482L42.8235 516.556L45.2711 518.47Z" fill="#D8AB3A"/>
<path d="M56.3492 527.152L55.0351 530.832L52.916 529.247L54.2712 525.526L56.3492 527.152Z" fill="#D8AB3A"/>
<path d="M59.6021 525.164L58.3619 528.72L56.3496 527.151L57.6309 523.554L59.6021 525.164Z" fill="#D8AB3A"/>
<path d="M63.8314 519.916L61.5071 526.733L59.6016 525.164L61.9999 518.29L63.8314 519.916Z" fill="#D8AB3A"/>
<path d="M67.1272 510.24L64.9589 516.622L63.1602 514.963L65.4024 508.524L67.1272 510.24Z" fill="#D8AB3A"/>
<path d="M52.917 529.246L51.5207 533.057L42.0918 526.338L43.7016 522.355L52.917 529.246Z" fill="#D8AB3A"/>
<path d="M55.2327 493.814L56.5222 490.61L54.4853 488.442L53.1465 491.662L55.2327 493.814Z" fill="#D8AB3A"/>
<path d="M39.2424 492.828L40.9014 489.247L38.3307 486.766L36.5977 490.388L39.2424 492.828Z" fill="#2D8B6F"/>
<path d="M44.1042 482.339L45.6401 479.021L43.2418 476.459L41.6484 479.81L44.1042 482.339Z" fill="#2D8B6F"/>
<path d="M64.7514 503.62L65.8438 500.549L64.0944 498.676L62.9609 501.772L64.7514 503.62Z" fill="#D8AB3A"/>
<path d="M65.401 508.524L66.4934 505.411L64.7522 503.62L63.627 506.758L65.401 508.524Z" fill="#D8AB3A"/>
<path d="M62.0004 518.289L63.1585 514.963L61.3105 513.255L60.1113 516.606L62.0004 518.289Z" fill="#D8AB3A"/>
<path d="M64.0961 498.676L65.2049 495.646L57.7883 487.49L56.5234 490.611L64.0961 498.676Z" fill="#D8AB3A"/>
<path d="M39.2087 492.803L37.5332 496.516L45.1141 503.259L46.6089 499.645L39.2087 492.803Z" fill="#2D8B6F"/>
<path d="M38.3299 486.767L43.2415 476.459L40.761 473.823L35.6523 484.204L38.3299 486.767Z" fill="#2D8B6F"/>
<path d="M44.9585 488.172L46.478 484.788L44.1043 482.34L42.5273 485.749L44.9585 488.172Z" fill="#2D8B6F"/>
<path d="M44.2597 497.469L47.3068 490.512L44.9742 488.188L41.8203 495.21L44.2597 497.469Z" fill="#2D8B6F"/>
<path d="M422.557 511.85L451.312 475.022L476.14 528.606L436.413 555.545L422.557 511.85Z" fill="#EF232C"/>
<path d="M476.138 528.606L481.953 528.68L440.5 555.627L436.41 555.545L476.138 528.606Z" fill="#770009"/>
<path d="M476.139 528.606L481.955 528.68L456.731 475.022H451.311L476.139 528.606Z" fill="#770009"/>
<path d="M468.787 526.281L476.697 527.85L476.409 529.747L468.787 526.281Z" fill="#770009"/>
<path d="M436.289 555.16L437.743 547.283L437.266 554.962L436.412 555.546L436.289 555.16Z" fill="#770009"/>
<path d="M427.945 513.354L422.778 511.563L422.557 511.851L422.696 512.286L427.945 513.354Z" fill="#770009"/>
<path d="M450.966 475.465L449.471 484.434L451.844 476.172L451.311 475.022L450.966 475.465Z" fill="#770009"/>
<path d="M425.891 512.795L450.021 481.897L470.777 526.832L437.529 549.41L425.891 512.795Z" fill="#FAF5F0"/>
<path d="M449.257 509.608L446.842 503.85L448.583 501.904L447.376 499.111L449.133 497.058L451.696 502.799L449.831 504.779L451.113 507.744L449.257 509.608Z" fill="#86FCD2"/>
<path d="M433.741 511.661L434.57 514.092L433.412 515.448L435.925 522.996L436.804 525.632L435.572 526.807L437.33 532.203L438.628 531.11L439.572 533.952L440.96 532.86L441.97 535.817L448.336 531.152L447.153 527.989L448.878 526.634L445.363 517.526L443.786 519.029L442.726 516.195L444.262 514.651L441.108 506.479L439.695 508.13L438.734 505.575L433.757 511.678L433.741 511.661Z" fill="#FFD400"/>
<path d="M434.718 524.211L433.084 519.185L434.226 517.912L435.918 523.004L434.718 524.211Z" fill="#FFD400"/>
<path d="M441.379 528.786L442.397 531.718L445.486 529.287L444.377 526.265L441.379 528.786Z" fill="white"/>
<path d="M439.016 527.16L439.977 529.969L441.381 528.786L440.387 525.936L439.016 527.16Z" fill="white"/>
<path d="M448.025 506.692L446.834 503.851L448.608 501.879L449.848 504.754L448.025 506.692Z" fill="#3AAA85"/>
<path d="M448.569 501.929L447.361 499.136L449.16 497.033L450.425 499.859L448.569 501.929Z" fill="#3AAA85"/>
<path d="M445.348 517.518L448.863 526.626L450.662 525.206L446.999 515.949L445.348 517.518Z" fill="#D8AB3A"/>
<path d="M441.086 506.471L444.24 514.643L445.841 513.033L442.564 504.746L441.086 506.471Z" fill="#D8AB3A"/>
<path d="M442.703 516.187L443.771 519.021L445.348 517.518L444.239 514.643L442.703 516.187Z" fill="#D8AB3A"/>
<path d="M447.139 527.99L448.321 531.144L450.095 529.846L448.863 526.626L447.139 527.99Z" fill="#D8AB3A"/>
<path d="M439.564 533.953L440.534 536.86L441.963 535.809L440.953 532.852L439.564 533.953Z" fill="#D8AB3A"/>
<path d="M437.324 532.203L438.228 534.996L439.566 533.953L438.622 531.111L437.324 532.203Z" fill="#D8AB3A"/>
<path d="M434.375 527.94L436.067 533.254L437.324 532.203L435.566 526.807L434.375 527.94Z" fill="#D8AB3A"/>
<path d="M431.977 520.409L433.562 525.37L434.72 524.212L433.085 519.185L431.977 520.409Z" fill="#D8AB3A"/>
<path d="M441.963 535.809L442.99 538.848L449.544 534.396L448.32 531.143L441.963 535.809Z" fill="#D8AB3A"/>
<path d="M439.682 508.121L438.721 505.567L440.092 503.883L441.086 506.47L439.682 508.121Z" fill="#D8AB3A"/>
<path d="M451.113 507.744L449.832 504.779L451.696 502.799L453.035 505.805L451.113 507.744Z" fill="#2D8B6F"/>
<path d="M447.378 499.112L446.203 496.393L447.912 494.307L449.135 497.058L447.378 499.112Z" fill="#2D8B6F"/>
<path d="M433.404 515.448L432.607 513.05L433.741 511.662L434.562 514.093L433.404 515.448Z" fill="#D8AB3A"/>
<path d="M433.086 519.185L432.289 516.754L433.406 515.448L434.227 517.904L433.086 519.185Z" fill="#D8AB3A"/>
<path d="M435.565 526.807L434.719 524.212L435.918 523.004L436.797 525.641L435.565 526.807Z" fill="#D8AB3A"/>
<path d="M433.743 511.662L432.93 509.288L437.784 503.071L438.72 505.567L433.743 511.662Z" fill="#D8AB3A"/>
<path d="M451.14 507.719L452.43 510.791L447.001 515.949L445.867 513.009L451.14 507.719Z" fill="#2D8B6F"/>
<path d="M451.696 502.799L447.91 494.307L449.692 492.122L453.659 500.721L451.696 502.799Z" fill="#2D8B6F"/>
<path d="M446.859 503.834L445.701 501.074L447.377 499.111L448.584 501.904L446.859 503.834Z" fill="#2D8B6F"/>
<path d="M447.515 511.35L445.207 505.674L446.842 503.851L449.256 509.608L447.515 511.35Z" fill="#2D8B6F"/>
<path d="M359.322 234.017C343.453 210.769 319.555 198.583 290.795 204.936C274.117 208.611 259.412 205.851 245.284 196.609C228.967 185.94 211.173 182.506 192.337 188.707C160.456 199.184 143.208 222.786 135.034 254.105C131.207 268.746 131.592 283.627 133.052 298.565C135.78 326.298 142.992 352.563 158.346 376.141C165.021 386.377 173.116 395.186 184.924 399.67C194.712 403.393 204.86 403.625 214.992 401.893C226.384 399.943 236.508 402.085 246.568 408.054C265.412 419.221 284.385 418.964 303.165 406.858C315.76 398.756 326.47 388.84 335.656 377.144C353.152 354.866 366.237 330.406 372.558 303.346C376.818 278.068 373.529 254.843 359.298 234.009H359.314L359.322 234.017Z" fill="url(#paint3_linear_65_24300)"/>
<path d="M173.052 328.055C172.29 330.775 169.466 332.371 166.746 331.609C164.027 330.847 162.43 328.023 163.192 325.304C163.954 322.584 166.778 320.988 169.498 321.75C172.217 322.512 173.814 325.336 173.052 328.055Z" fill="#FFB813"/>
<path d="M218.004 361.51C218.437 359.956 217.529 358.346 215.975 357.913C214.422 357.48 212.811 358.388 212.378 359.941C211.945 361.495 212.853 363.105 214.407 363.538C215.96 363.971 217.571 363.063 218.004 361.51Z" fill="#FFB813"/>
<path d="M158.981 348.103C158.676 349.202 157.537 349.844 156.438 349.539C155.339 349.234 154.697 348.095 155.002 346.996C155.306 345.897 156.446 345.255 157.545 345.56C158.644 345.865 159.286 347.004 158.981 348.103Z" fill="#FFB813"/>
<path d="M229.858 384.131C229.553 385.23 228.414 385.872 227.315 385.567C226.215 385.262 225.574 384.123 225.879 383.024C226.183 381.925 227.323 381.283 228.422 381.588C229.521 381.893 230.162 383.032 229.858 384.131Z" fill="#FFB813"/>
<path d="M196.476 335.34C196.148 336.511 194.944 337.193 193.773 336.864C192.602 336.535 191.92 335.332 192.249 334.16C192.578 332.989 193.781 332.307 194.952 332.636C196.123 332.965 196.805 334.168 196.476 335.34Z" fill="#FFB813"/>
<path d="M180.304 381.059C180.144 381.644 179.542 381.981 178.956 381.821C178.371 381.66 178.034 381.059 178.194 380.473C178.355 379.887 178.956 379.551 179.542 379.711C180.128 379.871 180.465 380.473 180.304 381.059Z" fill="#FFB813"/>
<path d="M202.662 380.979C202.333 382.15 201.13 382.832 199.958 382.503C198.787 382.174 198.105 380.971 198.434 379.799C198.763 378.628 199.966 377.946 201.138 378.275C202.309 378.604 202.991 379.807 202.662 380.979Z" fill="#FFB813"/>
<path d="M181.451 356.647C181.122 357.819 179.919 358.5 178.748 358.172C177.576 357.843 176.894 356.639 177.223 355.468C177.552 354.297 178.756 353.615 179.927 353.944C181.098 354.273 181.78 355.476 181.451 356.647Z" fill="#FFB813"/>
<path d="M337.638 329.323C338.817 328.513 340.437 328.809 341.256 329.989C342.074 331.168 341.769 332.788 340.59 333.607C339.41 334.425 337.79 334.12 336.972 332.941C336.153 331.762 336.458 330.141 337.638 329.323Z" fill="#EBDBCB"/>
<path d="M331.011 301.654C331.685 301.188 332.608 301.357 333.073 302.031C333.538 302.705 333.37 303.627 332.696 304.092C332.022 304.558 331.099 304.389 330.634 303.715C330.169 303.042 330.337 302.119 331.011 301.654Z" fill="#EBDBCB"/>
<path d="M349.647 326.09C350.121 325.761 350.779 325.881 351.107 326.362C351.436 326.844 351.316 327.494 350.835 327.823C350.353 328.151 349.704 328.031 349.375 327.55C349.046 327.076 349.166 326.419 349.647 326.09Z" fill="#EBDBCB"/>
<path d="M333.747 288.986C334.228 288.658 334.878 288.778 335.207 289.259C335.536 289.741 335.416 290.39 334.934 290.719C334.461 291.048 333.803 290.928 333.474 290.447C333.145 289.965 333.266 289.315 333.747 288.986Z" fill="#EBDBCB"/>
<path d="M330.883 318.861C331.388 318.508 332.086 318.637 332.431 319.15C332.784 319.656 332.655 320.354 332.142 320.698C331.637 321.051 330.939 320.923 330.594 320.41C330.241 319.904 330.369 319.206 330.883 318.861Z" fill="#EBDBCB"/>
<path d="M352.053 306.307C352.301 306.13 352.654 306.194 352.823 306.451C352.999 306.7 352.935 307.053 352.678 307.221C352.43 307.398 352.077 307.333 351.908 307.077C351.732 306.828 351.796 306.475 352.053 306.307Z" fill="#EBDBCB"/>
<path d="M343.318 299.062C343.823 298.709 344.521 298.838 344.866 299.351C345.219 299.857 345.091 300.555 344.578 300.9C344.072 301.253 343.374 301.124 343.029 300.611C342.676 300.105 342.805 299.407 343.318 299.062Z" fill="#EBDBCB"/>
<path d="M343.67 315.444C344.175 315.091 344.873 315.219 345.218 315.733C345.571 316.238 345.443 316.936 344.93 317.281C344.424 317.634 343.726 317.506 343.381 316.992C343.036 316.479 343.157 315.789 343.67 315.444Z" fill="#EBDBCB"/>
<path d="M339.274 255.525C332.439 261.903 320.766 260.507 313.193 252.396C305.62 244.286 305.018 232.541 311.853 226.163C318.688 219.786 330.361 221.181 337.934 229.292C345.507 237.403 346.109 249.147 339.274 255.525Z" fill="white"/>
<path d="M353.361 275.67C350.834 278.028 346.518 277.515 343.718 274.514C340.919 271.522 340.694 267.174 343.221 264.815C345.748 262.457 350.064 262.978 352.864 265.971C355.664 268.971 355.888 273.311 353.361 275.67Z" fill="white"/>
<path d="M277.437 218.149C276.875 221.19 270.225 222.513 262.58 221.101C254.934 219.689 249.19 216.087 249.744 213.047C250.297 210.007 256.956 208.683 264.601 210.095C272.247 211.507 277.991 215.109 277.437 218.149Z" fill="url(#paint4_linear_65_24300)"/>
<path d="M288.052 98.0388C288.052 98.0388 303.888 126.245 290.049 161.929C279.797 188.37 266.167 204.519 259.789 211.113C258.233 212.726 258.923 215.405 261.057 216.079L265.589 217.507C267.105 217.981 268.766 217.692 270.009 216.713C275.858 212.108 292.448 196.625 300.534 163.974C310.466 123.935 293.009 97.6377 293.009 97.6377L288.052 98.0388Z" fill="url(#paint5_linear_65_24300)"/>
<path d="M572.4 35.8118V70.1794C572.4 70.1794 562.284 70.8613 555.521 71.6074C552.978 71.8881 550.908 72.177 550.025 72.4417C547.555 73.1797 540.551 76.3726 535.224 78.4183H535.2C533.572 79.0521 532.096 79.5655 530.964 79.8704C528.927 80.4159 522.87 81.8759 516.548 83.3841C507.852 85.4619 498.651 87.6279 498.651 87.6279L493.805 90.532C493.805 90.532 489.93 92.4734 487.347 95.0566C484.756 97.6398 469.241 112.658 469.241 112.658L452.955 128.325C452.955 128.325 449.642 131.117 448.07 132.521H448.062C446.481 133.925 444.436 145.902 444.436 145.902C444.436 145.902 441.219 157.43 440.416 160.374C439.614 163.327 437.633 176.692 437.633 176.692H436.598C436.598 176.692 437.224 162.171 437.44 160.695C437.649 159.219 439.333 149.953 439.333 149.953L436.181 152.127C436.181 152.127 426.073 157.35 422.414 158.008C418.756 158.674 409.45 161.169 406.626 162.171C403.795 163.166 376.695 175.135 376.695 175.135L375.781 173.707L407.373 156.628C407.373 156.628 425.744 150.178 428.319 148.894C430.902 147.603 438.956 141.153 438.956 141.153C438.956 141.153 441.532 132.457 443.144 129.873C443.28 129.665 443.537 129.288 443.906 128.774C448.014 123.071 465.39 100.544 465.39 100.544L467.323 96.3562L452.169 95.7064C452.169 95.7064 446.473 95.923 439.333 96.2279C429.065 96.6531 415.82 97.2627 412.202 97.6398L411.897 97.6719C405.006 98.4581 371.513 103.817 371.513 103.817C371.513 103.817 350.141 101.218 346.387 102.084C342.632 102.951 334.835 107.283 332.235 108.438C329.989 109.433 324.51 112.16 321.004 112.69C320.996 112.69 320.996 112.698 320.996 112.698H320.988C320.451 112.778 319.953 112.81 319.528 112.77H319.504C319.448 112.762 319.392 112.754 319.328 112.746C319.328 112.746 319.322 112.743 319.312 112.738C319.103 112.722 318.886 112.682 318.654 112.634C315.164 111.912 308.874 108.887 308.874 108.887C308.874 108.887 302.609 106.424 298.429 104.33C295.622 102.926 291.787 102.036 288.763 100.857C287.615 100.408 286.588 99.9181 285.786 99.3486C285.554 99.1801 285.337 99.0116 285.144 98.8271C282.481 96.3562 247.159 81.892 245.699 81.0577C244.239 80.2233 207.617 64.6199 207.617 64.6199C207.617 64.6199 204.135 64.5638 200.581 64.7082C197.035 64.8606 188.909 70.9174 182.258 72.8348C181.689 73.0032 180.991 73.2198 180.196 73.4926C171.709 76.3325 151.886 84.3227 151.886 84.3227L148.107 85.2614C148.107 85.2614 139.17 87.4755 137.068 88.3098C134.967 89.1522 130.346 88.9436 129.078 89.9945C128.645 90.3555 127.923 91.1899 127.169 92.1365C125.725 93.9335 124.136 96.1236 124.136 96.1236H124.128L124.12 96.1396C123.775 96.5167 118.248 102.501 116.948 103.985C115.609 105.526 106.977 116.741 106.977 116.741L105.926 115.778H105.934C106.191 115.345 114.566 101.675 115.705 100.728C116.852 99.7737 124.714 89.8983 124.714 88.9356C124.714 87.9729 126.351 85.8149 126.351 85.8149C126.351 85.8149 140.261 80.464 146.687 79.397C153.105 78.322 168.805 70.1152 168.805 70.1152C168.805 70.1152 176.089 66.4731 182.972 62.9673H182.988C186.759 61.0339 190.409 59.1567 192.671 57.9373C192.679 57.9373 192.687 57.9373 192.703 57.9213C193.489 57.4961 194.099 57.1511 194.492 56.9185C198.062 54.7765 199.843 52.9956 201.632 52.9956C203.421 52.9956 211.989 56.0681 211.989 56.0681C211.989 56.0681 234.564 64.9007 239.144 65.8794C241.551 66.4009 256.32 72.0566 269.806 77.3193C281.992 82.0605 293.119 86.4888 293.119 86.4888C293.119 86.4888 303.917 88.4542 305.224 88.7832C306.532 89.1121 312.749 93.035 312.749 93.035L317.33 90.4197C317.33 90.4197 322.857 89.0399 328.722 87.66C334.626 86.2561 340.876 84.8602 342.191 84.8602C344.806 84.8602 353.968 86.1679 356.254 86.3925C358.549 86.6091 367.871 86.3925 367.871 86.3925C367.871 86.3925 369.186 86.1518 371.192 85.7748L373.205 85.4058C379.351 84.2746 388.825 82.5498 390.558 82.3011C391.472 82.1647 393.438 81.6272 395.684 80.9774C399.84 79.7741 404.966 78.2097 406.177 78.2097C408.038 78.2097 444.853 77.4637 450.428 76.3486C456.012 75.2335 474.231 72.6262 474.231 72.6262C474.231 72.6262 482.782 67.0507 488.735 64.8205C494.688 62.5903 526.295 55.1536 526.295 55.1536L531.879 52.5463C531.879 52.5463 537.077 48.4549 540.431 46.2247C543.776 43.9945 572.408 35.8118 572.408 35.8118H572.4Z" fill="#4E473F"/>
<path d="M101 44.2439C117.863 86.1124 148.011 76.3252 148.011 76.3252C148.011 76.3252 146.134 44.6851 101 44.2439Z" fill="url(#paint6_linear_65_24300)"/>
<path d="M156.058 34.6011C136.668 57.1358 151.517 71.8086 151.517 71.8086C151.517 71.8086 169.455 61.1309 156.058 34.6011Z" fill="url(#paint7_linear_65_24300)"/>
<path d="M155.721 81.9888C155.721 81.9888 130.098 89.9389 138.874 127.114C169.864 104.78 155.721 81.9888 155.721 81.9888Z" fill="url(#paint8_linear_65_24300)"/>
<path d="M481.197 0.327637C489.99 55.9865 529.411 52.5209 529.411 52.5209C529.411 52.5209 535.99 13.5003 481.197 0.327637Z" fill="url(#paint9_linear_65_24300)"/>
<path d="M327.301 52.5559C324.258 80.5644 343.643 84.012 343.643 84.012C343.643 84.012 351.897 66.0312 327.301 52.5559Z" fill="url(#paint10_linear_65_24300)"/>
<path d="M341.631 192.689C381.678 197.366 386.893 169.536 386.893 169.536C386.893 169.536 361.278 157.479 341.631 192.689Z" fill="url(#paint11_linear_65_24300)"/>
<path d="M437.073 174.181C437.073 174.181 420.459 190.186 441.557 215.36C456.744 186.231 437.073 174.181 437.073 174.181Z" fill="url(#paint12_linear_65_24300)"/>
<path d="M412.33 187.241C432.771 187.883 434.207 173.595 434.207 173.595C434.207 173.595 420.737 168.605 412.33 187.241Z" fill="url(#paint13_linear_65_24300)"/>
<path d="M421.717 117.07C431.063 135.714 444.58 130.066 444.58 130.066C444.58 130.066 442.519 115.57 421.717 117.07Z" fill="url(#paint14_linear_65_24300)"/>
<path d="M182.965 62.9675L177.494 67.1151L160.15 76.3247C160.15 76.3247 154.887 78.2019 153.098 79.2047C151.309 80.2075 151.518 80.2957 151.518 80.2957C151.518 80.2957 150.611 81.4269 150.395 81.5552C150.178 81.6916 148.87 82.3896 148.91 82.558C148.95 82.7345 147.563 82.911 147.218 82.6062C146.865 82.3013 147.827 82.3414 148.012 81.5552C148.204 80.7771 146.873 80.6888 146.078 80.9536C145.292 81.2103 134.454 84.2026 134.141 84.2588C133.828 84.3149 129.986 85.2054 129.986 85.2054L127.459 86.5211C127.459 86.5211 127.619 87.572 127.146 88.1015C126.673 88.6229 124.707 88.9358 124.707 88.9358C124.707 87.9811 126.344 85.8151 126.344 85.8151C126.344 85.8151 140.254 80.4642 146.68 79.3972C153.098 78.3223 168.798 70.1154 168.798 70.1154C168.798 70.1154 176.082 66.4733 182.965 62.9675Z" fill="#766B5E"/>
<path d="M269.798 77.319L258.526 74.5273L254.531 75.2252C254.531 75.2252 251.892 75.0086 251.764 75.0086C251.627 75.0086 248.86 74.784 248.723 74.784C248.587 74.784 246.758 73.5726 245.242 73.5165C243.717 73.4523 242.602 72.6821 241.664 72.9469C240.725 73.2196 240.95 72.4575 240.95 72.1045C240.95 71.7515 243.1 72.1045 244.568 72.2329C246.044 72.3693 252.405 73.9577 252.069 73.3881C251.724 72.8265 244.014 68.1736 244.014 68.1736L241.166 66.9382L238.96 66.3445C238.96 66.3445 227.52 63.6811 226.381 63.4725C225.25 63.2639 211.724 58.3061 211.724 58.3061L209.358 57.4879C209.358 57.4879 205.499 56.2043 204.753 56.7097C204.007 57.2231 204.753 57.3595 204.753 57.3595L202.25 58.3061H199.474C199.474 58.3061 199.675 57.1509 199.947 56.5332C200.22 55.9075 199.137 55.1213 199.137 55.1213L197.645 56.0037C197.645 56.0037 193.112 57.7366 192.695 57.9211C193.481 57.4959 194.091 57.1509 194.484 56.9183C198.054 54.7763 199.835 52.9954 201.624 52.9954C203.413 52.9954 211.981 56.0679 211.981 56.0679C211.981 56.0679 234.556 64.9005 239.137 65.8792C241.543 66.4007 256.312 72.0564 269.798 77.319Z" fill="#766B5E"/>
<path d="M238.358 70.9418C238.358 70.9418 235.574 69.3373 234.523 69.1448C233.472 68.9522 231.739 69.241 231.835 69.3614C231.932 69.4817 231.033 70.0753 232.269 70.4123C233.504 70.7492 235.421 71.4311 237.339 71.7119C239.256 71.9927 239.569 71.4632 239.569 71.4632L238.366 70.9337L238.358 70.9418Z" fill="#766B5E"/>
<path d="M544.209 50.0838C544.209 50.0838 549.712 50.0677 548.774 51.1668C547.827 52.2739 544.995 53.5253 541.225 53.6858C537.446 53.8462 531.943 56.5177 531.943 56.5177L522.188 60.1357H516.684C516.684 60.1357 486.176 68.4709 485.702 68.6314C485.229 68.7838 475.955 72.089 477.367 72.5623C478.779 73.0276 482.718 76.9666 483.183 77.5923C483.657 78.218 483.969 79.9509 480.825 78.5389C477.68 77.119 472.963 78.8518 472.016 78.218C471.078 77.5923 466.673 76.6457 466.673 76.6457L462.582 76.9666L437.576 79.0764L423.104 80.4242H401.556L397.385 81.7799C396.711 81.9965 395.989 81.6757 395.7 81.0339L395.676 80.9857C399.831 79.7824 404.958 78.218 406.169 78.218C408.03 78.218 444.845 77.472 450.42 76.3569C456.004 75.2418 474.222 72.6345 474.222 72.6345C474.222 72.6345 482.774 67.059 488.727 64.8288C494.679 62.5986 526.287 55.1619 526.287 55.1619L531.871 52.5546C531.871 52.5546 537.069 48.4632 540.423 46.233C543.768 44.0028 572.399 35.8201 572.399 35.8201V41.2672C572.399 41.2672 546.255 46.1448 544.209 47.5567C542.163 48.9767 544.209 50.0918 544.209 50.0918V50.0838Z" fill="#766B5E"/>
<path d="M475.103 92.1766C473.691 92.8264 471.517 94.8881 471.517 94.8881L468.581 99.0196L464.891 103.576L458.914 110.315L452.729 118.241L444.578 128.774H443.904C448.012 123.071 465.388 100.544 465.388 100.544L467.321 96.3562L469.343 92.4975L473.908 90.7646C473.908 90.7646 478.248 89.6736 478.681 90.1148C479.114 90.548 476.515 91.5268 475.103 92.1766Z" fill="#766B5E"/>
<path d="M555.521 71.6075C552.978 71.8883 550.908 72.1771 550.025 72.4419C550.025 72.4419 551.453 69.8266 551.558 69.0885C551.662 68.3585 552.921 66.3609 552.921 66.3609C552.921 66.3609 555.128 64.9971 555.336 65.4143C555.545 65.8395 554.494 68.888 554.494 68.888L555.36 71.0861L555.521 71.6075Z" fill="#766B5E"/>
<path d="M124.113 96.1394C123.768 96.5165 118.24 102.501 116.941 103.985C115.601 105.526 106.969 116.741 106.969 116.741L105.918 115.778H105.926L107.715 115.112L112.488 108.847L117.294 102.309L124.113 96.1394Z" fill="#302822"/>
<path d="M137.06 88.3099C134.958 89.1522 130.337 88.9437 129.069 89.9946C128.636 90.3556 127.914 91.1899 127.16 92.1366C127.16 92.1366 128.299 89.5534 128.644 89.3047C128.997 89.048 130.048 88.35 130.048 88.35H131.653L136.073 88.0452L137.06 88.3099Z" fill="#302822"/>
<path d="M288.763 100.857C287.287 100.28 286.012 99.6378 285.145 98.8275C282.482 96.3566 247.16 81.8924 245.7 81.0581C244.239 80.2237 207.618 64.6203 207.618 64.6203C207.618 64.6203 204.136 64.5642 200.582 64.7086C197.036 64.861 188.91 70.9178 182.259 72.8352C181.689 73.0036 180.991 73.2202 180.197 73.493L189.672 69.0888L195.504 65.1578L199.13 63.5774L208.949 62.1575L215.054 62.9677C215.054 62.9677 215.913 63.5052 215.479 63.9946C215.054 64.492 210.738 64.7326 210.738 64.7326C210.738 64.7326 214.557 66.4574 214.926 66.2168C215.295 65.9681 231.251 73.485 231.251 73.485L284.544 96.9021C284.544 96.9021 284.078 94.9688 284.544 94.2869C285.017 93.613 285.883 94.335 285.883 94.335C285.883 94.335 285.996 96.3807 286.164 96.9021C286.333 97.4316 288.049 99.5415 288.049 99.5415L288.771 100.857H288.763Z" fill="#302822"/>
<path d="M328.715 87.6599L327.913 88.9836L323.829 90.7485C323.829 90.7485 321.623 91.8476 320.075 92.5134C318.534 93.1793 313.24 96.3722 313.24 96.3722L311.691 95.2731L312.742 93.0349L317.323 90.4196C317.323 90.4196 322.85 89.0398 328.715 87.6599Z" fill="#302822"/>
<path d="M411.897 97.6722C405.006 98.4584 371.512 103.817 371.512 103.817C371.512 103.817 350.141 101.218 346.387 102.084C342.632 102.951 334.834 107.283 332.235 108.438C329.989 109.433 324.51 112.16 321.004 112.69C321.525 112.425 338.396 103.954 339.158 102.718C339.937 101.467 343.699 100.857 343.699 100.857L348.288 96.3726C348.288 96.3726 350.237 96.7336 351.352 97.0143C352.459 97.2951 353.302 100.857 353.302 100.857H359.84L371.528 102.582L374.866 100.857H379.037L411.897 97.6722Z" fill="#302822"/>
<path d="M469.344 92.4976L467.322 96.3563L452.168 95.7065C452.168 95.7065 446.472 95.9231 439.332 96.2279L441.835 94.9765L455.056 93.9897L458.337 92.4976H469.344Z" fill="#302822"/>
<path d="M535.199 78.4263C533.57 79.052 532.094 79.5654 530.963 79.8703C526.118 81.1619 498.649 87.6279 498.649 87.6279L493.804 90.532C493.804 90.532 489.929 92.4734 487.346 95.0565C484.754 97.6397 469.239 112.658 469.239 112.658L452.954 128.325C452.954 128.325 449.641 131.117 448.068 132.521C448.518 132.047 462.87 116.965 463.664 116.171C464.458 115.377 464.939 113.508 464.939 113.508C464.939 113.508 459.733 119.115 459.268 118.426C458.81 117.728 463.431 112.69 463.431 112.69L466.439 111.077C466.439 111.077 467.595 112.465 468.525 111.077C469.448 109.689 469.344 112.04 469.344 112.04L480.446 100.64L486.062 94.4228L491.132 90.0105L496.756 87.7482C496.756 87.7482 493.739 85.2854 494.838 85.0126C495.938 84.7318 500.59 85.0126 500.59 85.0126L507.586 84.3227L520.333 81.8438L535.199 78.4263Z" fill="#302822"/>
<path d="M469.346 109.393C469.33 108.735 471.231 107.54 471.416 107.411C471.6 107.283 473.566 104.82 473.509 105.47C473.453 106.12 472.707 107.371 472.707 107.371L470.613 109.385C470.613 109.385 469.362 110.316 469.346 109.385V109.393Z" fill="#302822"/>
<path d="M550.026 72.4415C547.555 73.1796 540.552 76.3725 535.225 78.4182H535.201C533.572 79.0519 532.096 79.5654 530.965 79.8702C528.927 80.4157 522.87 81.8758 516.549 83.384V82.5818C517.046 82.4855 534.31 76.3404 534.31 76.3404C534.31 76.3404 530.861 76.1719 529.128 75.3055C527.403 74.4391 532.409 72.1688 534.31 72.4415C536.212 72.7143 542.092 73.5727 542.092 73.5727L550.026 72.4415Z" fill="#302822"/>
<path d="M398.003 88.3663L391.858 89.5697L381.982 89.8104C381.982 89.8104 377.41 90.8934 369.941 89.8104C362.472 88.7274 360.787 89.8104 360.787 89.8104C360.787 89.8104 355.846 88.8477 351.995 87.6604C348.136 86.4731 342.184 84.8606 342.184 84.8606C344.799 84.8606 353.96 86.1682 356.247 86.3929C358.541 86.6095 367.863 86.3929 367.863 86.3929C367.863 86.3929 369.179 86.1522 371.184 85.7751L371.024 87.5802L376.808 88.607L389.451 88.3663C389.451 88.3663 396.318 87.163 398.003 86.802C399.688 86.441 398.003 88.3663 398.003 88.3663Z" fill="#766B5E"/>
<path d="M554.494 68.8879L572.456 64.3232L572.4 70.1795L555.521 71.6075L554.494 68.8879Z" fill="#302822"/>
<path d="M306.17 105.422C306.17 105.422 316.374 111.807 319.046 112.674C318.933 112.658 318.797 112.65 318.653 112.634C315.163 111.912 308.873 108.887 308.873 108.887C308.873 108.887 302.608 106.424 298.428 104.331C295.621 102.927 291.786 102.036 288.761 100.857C287.614 100.408 286.587 99.9183 285.785 99.3487L286.162 96.9019C286.162 96.9019 290.807 100.729 294.257 101.418C297.706 102.108 306.178 105.422 306.178 105.422H306.17Z" fill="#302822"/>
<path d="M319.528 112.77H319.504C319.448 112.762 319.392 112.754 319.327 112.746C319.327 112.746 319.322 112.743 319.311 112.738C319.239 112.738 319.151 112.706 319.055 112.674C319.544 112.722 319.745 112.762 319.528 112.77Z" fill="#302822"/>
<path d="M182.436 110.465C210.61 207.84 280.188 192.814 280.188 192.814C280.188 192.814 283.172 121.688 182.436 110.465Z" fill="url(#paint15_linear_65_24300)"/>
<path d="M280.188 194.018C279.827 194.018 279.474 193.857 279.233 193.552C278.872 193.087 242.675 146.646 182.355 111.917C181.778 111.588 181.585 110.85 181.914 110.273C182.243 109.695 182.981 109.502 183.559 109.831C244.312 144.801 280.781 191.611 281.142 192.076C281.543 192.606 281.447 193.36 280.926 193.761C280.709 193.929 280.444 194.01 280.188 194.01V194.018Z" fill="#95080F"/>
<defs>
<radialGradient id="paint0_radial_65_24300" cx="0" cy="0" r="1" gradientUnits="userSpaceOnUse" gradientTransform="translate(247.967 589.905) scale(238.138 121.45)">
<stop stop-color="#EF232C"/>
<stop offset="1" stop-color="#FAF5F0" stop-opacity="0"/>
</radialGradient>
<linearGradient id="paint1_linear_65_24300" x1="246.579" y1="599.634" x2="246.579" y2="273.351" gradientUnits="userSpaceOnUse">
<stop offset="0.17" stop-color="#FAF5F0"/>
<stop offset="0.4" stop-color="#F59E9F"/>
<stop offset="0.6" stop-color="#F15B61"/>
<stop offset="0.75" stop-color="#EF323A"/>
<stop offset="0.82" stop-color="#EF232C"/>
</linearGradient>
<linearGradient id="paint2_linear_65_24300" x1="250.25" y1="210.084" x2="250.25" y2="607.199" gradientUnits="userSpaceOnUse">
<stop offset="0.31" stop-color="#FAF5F0"/>
<stop offset="0.54" stop-color="#F59E9F"/>
<stop offset="0.74" stop-color="#F15B61"/>
<stop offset="0.88" stop-color="#EF323A"/>
<stop offset="0.95" stop-color="#EF232C"/>
</linearGradient>
<linearGradient id="paint3_linear_65_24300" x1="355.913" y1="80.1612" x2="244.858" y2="397.518" gradientUnits="userSpaceOnUse">
<stop stop-color="#FF8136"/>
<stop offset="1" stop-color="#FFD400"/>
</linearGradient>
<linearGradient id="paint4_linear_65_24300" x1="249.707" y1="215.591" x2="277.474" y2="215.591" gradientUnits="userSpaceOnUse">
<stop stop-color="#FF792E"/>
<stop offset="1" stop-color="#EF232C"/>
</linearGradient>
<linearGradient id="paint5_linear_65_24300" x1="258.943" y1="157.618" x2="303.59" y2="157.618" gradientUnits="userSpaceOnUse">
<stop stop-color="#FF792E"/>
<stop offset="1" stop-color="#EF232C"/>
</linearGradient>
<linearGradient id="paint6_linear_65_24300" x1="101" y1="60.7629" x2="148.011" y2="60.7629" gradientUnits="userSpaceOnUse">
<stop stop-color="#FF792E"/>
<stop offset="1" stop-color="#EF232C"/>
</linearGradient>
<linearGradient id="paint7_linear_65_24300" x1="146.082" y1="53.1843" x2="161.027" y2="53.1843" gradientUnits="userSpaceOnUse">
<stop stop-color="#FF792E"/>
<stop offset="1" stop-color="#EF232C"/>
</linearGradient>
<linearGradient id="paint8_linear_65_24300" x1="137.043" y1="104.527" x2="158.942" y2="104.527" gradientUnits="userSpaceOnUse">
<stop stop-color="#FF792E"/>
<stop offset="1" stop-color="#EF232C"/>
</linearGradient>
<linearGradient id="paint9_linear_65_24300" x1="481.197" y1="26.4167" x2="529.658" y2="26.4167" gradientUnits="userSpaceOnUse">
<stop stop-color="#FF792E"/>
<stop offset="1" stop-color="#EF232C"/>
</linearGradient>
<linearGradient id="paint10_linear_65_24300" x1="323.895" y1="65.1491" x2="347.17" y2="71.4435" gradientUnits="userSpaceOnUse">
<stop stop-color="#FF792E"/>
<stop offset="1" stop-color="#EF232C"/>
</linearGradient>
<linearGradient id="paint11_linear_65_24300" x1="341.631" y1="180.367" x2="386.893" y2="180.367" gradientUnits="userSpaceOnUse">
<stop stop-color="#FF792E"/>
<stop offset="1" stop-color="#EF232C"/>
</linearGradient>
<linearGradient id="paint12_linear_65_24300" x1="430.857" y1="194.748" x2="447.312" y2="194.748" gradientUnits="userSpaceOnUse">
<stop stop-color="#FF792E"/>
<stop offset="1" stop-color="#EF232C"/>
</linearGradient>
<linearGradient id="paint13_linear_65_24300" x1="412.33" y1="180.117" x2="434.207" y2="180.117" gradientUnits="userSpaceOnUse">
<stop stop-color="#FF792E"/>
<stop offset="1" stop-color="#EF232C"/>
</linearGradient>
<linearGradient id="paint14_linear_65_24300" x1="421.717" y1="123.908" x2="444.58" y2="123.908" gradientUnits="userSpaceOnUse">
<stop stop-color="#FF792E"/>
<stop offset="1" stop-color="#EF232C"/>
</linearGradient>
<linearGradient id="paint15_linear_65_24300" x1="182.436" y1="152.012" x2="280.197" y2="152.012" gradientUnits="userSpaceOnUse">
<stop stop-color="#FF792E"/>
<stop offset="1" stop-color="#EF232C"/>
</linearGradient>
</defs>
</svg>
