<svg width="25" height="24" viewBox="0 0 25 24" fill="none" xmlns="http://www.w3.org/2000/svg">
<path d="M9.69038 4.80019C9.43364 4.80202 7.33026 4.86162 5.10952 6.51755C5.10952 6.51755 2.74023 10.7949 2.74023 16.0607C2.74023 16.0607 4.12201 18.4382 7.75846 18.5538C7.75846 18.5538 8.36728 17.8276 8.86058 17.1995C6.77187 16.5714 5.9815 15.2667 5.9815 15.2667C5.9815 15.2667 6.14654 15.3822 6.44178 15.5482C6.45829 15.5482 6.47387 15.5656 6.50597 15.5812C6.5564 15.6133 6.60499 15.6307 6.6545 15.6637C7.06528 15.8947 7.47605 16.0763 7.85565 16.2239C8.53049 16.5054 9.33645 16.7521 10.2754 16.9336C11.5095 17.1647 12.9573 17.2472 14.5353 16.951C15.3535 16.7987 16.1535 16.5609 16.922 16.2413C17.5875 15.99 18.2219 15.663 18.8127 15.2667C18.8127 15.2667 17.9911 16.6035 15.8355 17.2151C16.3288 17.8257 16.922 18.5345 16.922 18.5345C20.5575 18.419 21.9402 16.0405 21.9402 16.0589C21.9402 10.7903 19.571 6.5148 19.571 6.5148C17.2182 4.75068 14.9635 4.80019 14.9635 4.80019L14.7334 5.06426C17.5299 5.90598 18.8301 7.14563 18.8301 7.14563C17.2956 6.30997 15.6146 5.77734 13.8788 5.57681C12.7733 5.45375 11.657 5.46484 10.5541 5.60982C10.456 5.60982 10.3735 5.62724 10.2735 5.64191C9.69771 5.70793 8.29943 5.90598 6.53897 6.6826C5.93107 6.94666 5.56797 7.14563 5.56797 7.14563C5.56797 7.14563 6.91949 5.84088 9.88018 4.99916L9.71514 4.80019H9.69038ZM9.27135 10.893C10.2084 10.893 10.9667 11.7017 10.9493 12.7094C10.9493 13.718 10.2084 14.5267 9.27135 14.5267C8.34986 14.5267 7.59342 13.7171 7.59342 12.7094C7.59342 11.7017 8.33244 10.893 9.27135 10.893ZM15.2771 10.893C16.1977 10.893 16.955 11.7017 16.955 12.7094C16.955 13.718 16.2132 14.5267 15.2771 14.5267C14.3547 14.5267 13.5991 13.7171 13.5991 12.7094C13.5991 11.7017 14.3382 10.893 15.2771 10.893Z" fill="#4E473F"/>
</svg>
