<svg width="414" height="550" viewBox="0 0 414 550" fill="none" xmlns="http://www.w3.org/2000/svg">
<g clip-path="url(#clip0_696_14871)">
<rect width="414" height="550" fill="url(#paint0_linear_696_14871)"/>
<g style="mix-blend-mode:multiply">
<ellipse cx="4.57499" cy="4.49997" rx="4.57499" ry="4.49997" transform="matrix(1 0 0 -1 15.8984 57.9999)" fill="#92171C" fill-opacity="0.2"/>
<ellipse cx="4.57499" cy="4.49997" rx="4.57499" ry="4.49997" transform="matrix(1 0 0 -1 90.1094 57.9999)" fill="#92171C" fill-opacity="0.2"/>
<ellipse cx="4.57499" cy="4.49997" rx="4.57499" ry="4.49997" transform="matrix(1 0 0 -1 164.32 57.9999)" fill="#92171C" fill-opacity="0.2"/>
<ellipse cx="4.57499" cy="4.49997" rx="4.57499" ry="4.49997" transform="matrix(1 0 0 -1 238.531 57.9999)" fill="#92171C" fill-opacity="0.2"/>
<ellipse cx="4.57499" cy="4.49997" rx="4.57499" ry="4.49997" transform="matrix(1 0 0 -1 312.742 57.9999)" fill="#92171C" fill-opacity="0.2"/>
<ellipse cx="4.57499" cy="4.49997" rx="4.57499" ry="4.49997" transform="matrix(1 0 0 -1 386.953 57.9999)" fill="#92171C" fill-opacity="0.2"/>
<ellipse cx="4.57499" cy="4.49997" rx="4.57499" ry="4.49997" transform="matrix(1 0 0 -1 15.8984 132)" fill="#92171C" fill-opacity="0.2"/>
<ellipse cx="4.57499" cy="4.49997" rx="4.57499" ry="4.49997" transform="matrix(1 0 0 -1 90.1094 132)" fill="#92171C" fill-opacity="0.2"/>
<ellipse cx="4.57499" cy="4.49997" rx="4.57499" ry="4.49997" transform="matrix(1 0 0 -1 164.32 132)" fill="#92171C" fill-opacity="0.2"/>
<ellipse cx="4.57499" cy="4.49997" rx="4.57499" ry="4.49997" transform="matrix(1 0 0 -1 238.531 132)" fill="#92171C" fill-opacity="0.2"/>
<ellipse cx="4.57499" cy="4.49997" rx="4.57499" ry="4.49997" transform="matrix(1 0 0 -1 312.742 132)" fill="#92171C" fill-opacity="0.2"/>
<ellipse cx="4.57499" cy="4.49997" rx="4.57499" ry="4.49997" transform="matrix(1 0 0 -1 386.953 132)" fill="#92171C" fill-opacity="0.2"/>
<ellipse cx="4.57499" cy="4.49997" rx="4.57499" ry="4.49997" transform="matrix(1 0 0 -1 15.8984 206)" fill="#92171C" fill-opacity="0.2"/>
<ellipse cx="4.57499" cy="4.49997" rx="4.57499" ry="4.49997" transform="matrix(1 0 0 -1 90.1094 206)" fill="#92171C" fill-opacity="0.2"/>
<ellipse cx="4.57499" cy="4.49997" rx="4.57499" ry="4.49997" transform="matrix(1 0 0 -1 164.32 206)" fill="#92171C" fill-opacity="0.2"/>
<ellipse cx="4.57499" cy="4.49997" rx="4.57499" ry="4.49997" transform="matrix(1 0 0 -1 238.531 206)" fill="#92171C" fill-opacity="0.2"/>
<ellipse cx="4.57499" cy="4.49997" rx="4.57499" ry="4.49997" transform="matrix(1 0 0 -1 312.742 206)" fill="#92171C" fill-opacity="0.2"/>
<ellipse cx="4.57499" cy="4.49997" rx="4.57499" ry="4.49997" transform="matrix(1 0 0 -1 386.953 206)" fill="#92171C" fill-opacity="0.2"/>
<ellipse cx="4.57499" cy="4.49997" rx="4.57499" ry="4.49997" transform="matrix(1 0 0 -1 15.8984 280)" fill="#92171C" fill-opacity="0.2"/>
<ellipse cx="4.57499" cy="4.49997" rx="4.57499" ry="4.49997" transform="matrix(1 0 0 -1 90.1094 280)" fill="#92171C" fill-opacity="0.2"/>
<ellipse cx="4.57499" cy="4.49997" rx="4.57499" ry="4.49997" transform="matrix(1 0 0 -1 164.32 280)" fill="#92171C" fill-opacity="0.2"/>
<ellipse cx="4.57499" cy="4.49997" rx="4.57499" ry="4.49997" transform="matrix(1 0 0 -1 238.531 280)" fill="#92171C" fill-opacity="0.2"/>
<ellipse cx="4.57499" cy="4.49997" rx="4.57499" ry="4.49997" transform="matrix(1 0 0 -1 312.742 280)" fill="#92171C" fill-opacity="0.2"/>
<ellipse cx="4.57499" cy="4.49997" rx="4.57499" ry="4.49997" transform="matrix(1 0 0 -1 386.953 280)" fill="#92171C" fill-opacity="0.2"/>
<ellipse cx="4.57499" cy="4.49997" rx="4.57499" ry="4.49997" transform="matrix(1 0 0 -1 15.8984 354)" fill="#92171C" fill-opacity="0.2"/>
<ellipse cx="4.57499" cy="4.49997" rx="4.57499" ry="4.49997" transform="matrix(1 0 0 -1 90.1094 354)" fill="#92171C" fill-opacity="0.2"/>
<ellipse cx="4.57499" cy="4.49997" rx="4.57499" ry="4.49997" transform="matrix(1 0 0 -1 164.32 354)" fill="#92171C" fill-opacity="0.2"/>
<ellipse cx="4.57499" cy="4.49997" rx="4.57499" ry="4.49997" transform="matrix(1 0 0 -1 238.531 354)" fill="#92171C" fill-opacity="0.2"/>
<ellipse cx="4.57499" cy="4.49997" rx="4.57499" ry="4.49997" transform="matrix(1 0 0 -1 312.742 354)" fill="#92171C" fill-opacity="0.2"/>
<ellipse cx="4.57499" cy="4.49997" rx="4.57499" ry="4.49997" transform="matrix(1 0 0 -1 386.953 354)" fill="#92171C" fill-opacity="0.2"/>
<ellipse cx="4.57499" cy="4.49997" rx="4.57499" ry="4.49997" transform="matrix(1 0 0 -1 15.8984 428)" fill="#92171C" fill-opacity="0.2"/>
<ellipse cx="4.57499" cy="4.49997" rx="4.57499" ry="4.49997" transform="matrix(1 0 0 -1 90.1094 428)" fill="#92171C" fill-opacity="0.2"/>
<ellipse cx="4.57499" cy="4.49997" rx="4.57499" ry="4.49997" transform="matrix(1 0 0 -1 164.32 428)" fill="#92171C" fill-opacity="0.2"/>
<ellipse cx="4.57499" cy="4.49997" rx="4.57499" ry="4.49997" transform="matrix(1 0 0 -1 238.531 428)" fill="#92171C" fill-opacity="0.2"/>
<ellipse cx="4.57499" cy="4.49997" rx="4.57499" ry="4.49997" transform="matrix(1 0 0 -1 312.742 428)" fill="#92171C" fill-opacity="0.2"/>
<ellipse cx="4.57499" cy="4.49997" rx="4.57499" ry="4.49997" transform="matrix(1 0 0 -1 386.953 428)" fill="#92171C" fill-opacity="0.2"/>
<ellipse cx="4.57499" cy="4.49997" rx="4.57499" ry="4.49997" transform="matrix(1 0 0 -1 15.8984 502)" fill="#92171C" fill-opacity="0.2"/>
<ellipse cx="4.57499" cy="4.49997" rx="4.57499" ry="4.49997" transform="matrix(1 0 0 -1 90.1094 502)" fill="#92171C" fill-opacity="0.2"/>
<ellipse cx="4.57499" cy="4.49997" rx="4.57499" ry="4.49997" transform="matrix(1 0 0 -1 164.32 502)" fill="#92171C" fill-opacity="0.2"/>
<ellipse cx="4.57499" cy="4.49997" rx="4.57499" ry="4.49997" transform="matrix(1 0 0 -1 238.531 502)" fill="#92171C" fill-opacity="0.2"/>
<ellipse cx="4.57499" cy="4.49997" rx="4.57499" ry="4.49997" transform="matrix(1 0 0 -1 312.742 502)" fill="#92171C" fill-opacity="0.2"/>
<ellipse cx="4.57499" cy="4.49997" rx="4.57499" ry="4.49997" transform="matrix(1 0 0 -1 386.953 502)" fill="#92171C" fill-opacity="0.2"/>
</g>
<path d="M377.039 396.182L375.598 384.977L353.209 384.875V362.722H365.466V351.374H377.039V340.542H389.161V329.548H401.244V318H436.062V340.542H412.946V351.374H401.244V362.722H389.161V374.07H377.039V384.977H436.062V396.066H448.168V407.263H459.85V418.459H471.743V429.549H483.319V440.746H495V540.871H483.637V563.158H471.562V585.205H459.65V607.118H447.555V618.775H435.932V629.973H424.49V641H388.778V629.973H330.183V641H294.603V629.973H282.805V618.572H270.822V607.545H259.208V584.743H247.225V563.25H235.611V540.635H224V440.584H235.718V429.496H246.966V418.796H259.236V407.489H271.783V396.182H282.587V384.875H341.837V396.182H377.039Z" fill="#CC2626"/>
<path d="M342.066 374.186V340.498H330.001V329.269H306.464V351.527H318.134V374.186H342.066Z" fill="#CC2626"/>
<path d="M73.1976 -109.507C109.078 -103.941 141.665 -84.2962 163.919 -54.8152C186.173 -25.3343 196.308 11.6163 192.135 48.055C187.963 84.4937 169.817 117.496 141.617 139.932C113.418 162.369 77.4286 172.439 41.423 167.968C5.41732 163.497 -27.7144 144.844 -50.8156 116.037C-73.9169 87.2298 -85.1333 50.5818 -82.0422 14.0088C-78.9511 -22.5642 -61.8006 -56.1265 -34.2951 -79.4286C-6.78969 -102.731 28.8628 -113.902 64.9613 -110.53L60.2106 -42.2695C41.7792 -43.9913 23.5755 -38.2874 9.53159 -26.3897C-4.51232 -14.492 -13.2692 2.64447 -14.8474 21.3182C-16.4257 39.9918 -10.6987 58.7038 1.09644 73.4123C12.8916 88.1207 29.8082 97.645 48.1922 99.9278C66.5762 102.211 84.9519 97.0689 99.3502 85.613C113.748 74.1571 123.013 57.3068 125.144 38.7017C127.274 20.0966 122.1 1.23013 110.737 -13.8225C99.3742 -28.875 82.7359 -38.9055 64.4159 -41.7473L73.1976 -109.507Z" fill="#C1121C"/>
</g>
<defs>
<linearGradient id="paint0_linear_696_14871" x1="382.353" y1="-80.3" x2="-221.348" y2="204.16" gradientUnits="userSpaceOnUse">
<stop offset="0.0688176" stop-color="#FF4034"/>
<stop offset="0.417916" stop-color="#DE3232"/>
<stop offset="0.634" stop-color="#C50B17"/>
<stop offset="1" stop-color="#91070C"/>
</linearGradient>
<clipPath id="clip0_696_14871">
<rect width="414" height="550" fill="white"/>
</clipPath>
</defs>
</svg>
