<svg width="1440" height="500" viewBox="0 0 1440 500" fill="none" xmlns="http://www.w3.org/2000/svg">
<g clip-path="url(#clip0_696_12864)">
<rect width="1440" height="500" fill="url(#paint0_linear_696_12864)"/>
<g style="mix-blend-mode:multiply">
<ellipse cx="4.57499" cy="4.49997" rx="4.57499" ry="4.49997" transform="matrix(1 0 0 -1 9.42188 31.9999)" fill="#92171C" fill-opacity="0.2"/>
<ellipse cx="4.57499" cy="4.49997" rx="4.57499" ry="4.49997" transform="matrix(1 0 0 -1 83.6328 31.9999)" fill="#92171C" fill-opacity="0.2"/>
<ellipse cx="4.57499" cy="4.49997" rx="4.57499" ry="4.49997" transform="matrix(1 0 0 -1 157.844 31.9999)" fill="#92171C" fill-opacity="0.2"/>
<ellipse cx="4.57499" cy="4.49997" rx="4.57499" ry="4.49997" transform="matrix(1 0 0 -1 232.055 31.9999)" fill="#92171C" fill-opacity="0.2"/>
<ellipse cx="4.57499" cy="4.49997" rx="4.57499" ry="4.49997" transform="matrix(1 0 0 -1 306.266 31.9999)" fill="#92171C" fill-opacity="0.2"/>
<ellipse cx="4.57499" cy="4.49997" rx="4.57499" ry="4.49997" transform="matrix(1 0 0 -1 380.477 31.9999)" fill="#92171C" fill-opacity="0.2"/>
<ellipse cx="4.57499" cy="4.49997" rx="4.57499" ry="4.49997" transform="matrix(1 0 0 -1 454.688 31.9999)" fill="#92171C" fill-opacity="0.2"/>
<ellipse cx="4.57499" cy="4.49997" rx="4.57499" ry="4.49997" transform="matrix(1 0 0 -1 528.898 31.9999)" fill="#92171C" fill-opacity="0.2"/>
<ellipse cx="4.57499" cy="4.49997" rx="4.57499" ry="4.49997" transform="matrix(1 0 0 -1 603.109 31.9999)" fill="#92171C" fill-opacity="0.2"/>
<ellipse cx="4.57499" cy="4.49997" rx="4.57499" ry="4.49997" transform="matrix(1 0 0 -1 677.32 31.9999)" fill="#92171C" fill-opacity="0.2"/>
<ellipse cx="4.57499" cy="4.49997" rx="4.57499" ry="4.49997" transform="matrix(1 0 0 -1 751.531 31.9999)" fill="#92171C" fill-opacity="0.2"/>
<ellipse cx="4.57499" cy="4.49997" rx="4.57499" ry="4.49997" transform="matrix(1 0 0 -1 825.742 31.9999)" fill="#92171C" fill-opacity="0.2"/>
<ellipse cx="4.57499" cy="4.49997" rx="4.57499" ry="4.49997" transform="matrix(1 0 0 -1 899.953 31.9999)" fill="#92171C" fill-opacity="0.2"/>
<ellipse cx="4.57499" cy="4.49997" rx="4.57499" ry="4.49997" transform="matrix(1 0 0 -1 974.164 31.9999)" fill="#92171C" fill-opacity="0.2"/>
<ellipse cx="4.57499" cy="4.49997" rx="4.57499" ry="4.49997" transform="matrix(1 0 0 -1 1048.38 31.9999)" fill="#92171C" fill-opacity="0.2"/>
<ellipse cx="4.57499" cy="4.49997" rx="4.57499" ry="4.49997" transform="matrix(1 0 0 -1 1122.59 31.9999)" fill="#92171C" fill-opacity="0.2"/>
<ellipse cx="4.57499" cy="4.49997" rx="4.57499" ry="4.49997" transform="matrix(1 0 0 -1 1196.8 31.9999)" fill="#92171C" fill-opacity="0.2"/>
<ellipse cx="4.57499" cy="4.49997" rx="4.57499" ry="4.49997" transform="matrix(1 0 0 -1 1271.01 31.9999)" fill="#92171C" fill-opacity="0.2"/>
<ellipse cx="4.57499" cy="4.49997" rx="4.57499" ry="4.49997" transform="matrix(1 0 0 -1 1345.22 31.9999)" fill="#92171C" fill-opacity="0.2"/>
<ellipse cx="4.57499" cy="4.49997" rx="4.57499" ry="4.49997" transform="matrix(1 0 0 -1 1419.43 31.9999)" fill="#92171C" fill-opacity="0.2"/>
<ellipse cx="4.57499" cy="4.49997" rx="4.57499" ry="4.49997" transform="matrix(1 0 0 -1 9.42188 106)" fill="#92171C" fill-opacity="0.2"/>
<ellipse cx="4.57499" cy="4.49997" rx="4.57499" ry="4.49997" transform="matrix(1 0 0 -1 83.6328 106)" fill="#92171C" fill-opacity="0.2"/>
<ellipse cx="4.57499" cy="4.49997" rx="4.57499" ry="4.49997" transform="matrix(1 0 0 -1 157.844 106)" fill="#92171C" fill-opacity="0.2"/>
<ellipse cx="4.57499" cy="4.49997" rx="4.57499" ry="4.49997" transform="matrix(1 0 0 -1 232.055 106)" fill="#92171C" fill-opacity="0.2"/>
<ellipse cx="4.57499" cy="4.49997" rx="4.57499" ry="4.49997" transform="matrix(1 0 0 -1 306.266 106)" fill="#92171C" fill-opacity="0.2"/>
<ellipse cx="4.57499" cy="4.49997" rx="4.57499" ry="4.49997" transform="matrix(1 0 0 -1 380.477 106)" fill="#92171C" fill-opacity="0.2"/>
<ellipse cx="4.57499" cy="4.49997" rx="4.57499" ry="4.49997" transform="matrix(1 0 0 -1 454.688 106)" fill="#92171C" fill-opacity="0.2"/>
<ellipse cx="4.57499" cy="4.49997" rx="4.57499" ry="4.49997" transform="matrix(1 0 0 -1 528.898 106)" fill="#92171C" fill-opacity="0.2"/>
<ellipse cx="4.57499" cy="4.49997" rx="4.57499" ry="4.49997" transform="matrix(1 0 0 -1 603.109 106)" fill="#92171C" fill-opacity="0.2"/>
<ellipse cx="4.57499" cy="4.49997" rx="4.57499" ry="4.49997" transform="matrix(1 0 0 -1 677.32 106)" fill="#92171C" fill-opacity="0.2"/>
<ellipse cx="4.57499" cy="4.49997" rx="4.57499" ry="4.49997" transform="matrix(1 0 0 -1 751.531 106)" fill="#92171C" fill-opacity="0.2"/>
<ellipse cx="4.57499" cy="4.49997" rx="4.57499" ry="4.49997" transform="matrix(1 0 0 -1 825.742 106)" fill="#92171C" fill-opacity="0.2"/>
<ellipse cx="4.57499" cy="4.49997" rx="4.57499" ry="4.49997" transform="matrix(1 0 0 -1 899.953 106)" fill="#92171C" fill-opacity="0.2"/>
<ellipse cx="4.57499" cy="4.49997" rx="4.57499" ry="4.49997" transform="matrix(1 0 0 -1 974.164 106)" fill="#92171C" fill-opacity="0.2"/>
<ellipse cx="4.57499" cy="4.49997" rx="4.57499" ry="4.49997" transform="matrix(1 0 0 -1 1048.38 106)" fill="#92171C" fill-opacity="0.2"/>
<ellipse cx="4.57499" cy="4.49997" rx="4.57499" ry="4.49997" transform="matrix(1 0 0 -1 1122.59 106)" fill="#92171C" fill-opacity="0.2"/>
<ellipse cx="4.57499" cy="4.49997" rx="4.57499" ry="4.49997" transform="matrix(1 0 0 -1 1196.8 106)" fill="#92171C" fill-opacity="0.2"/>
<ellipse cx="4.57499" cy="4.49997" rx="4.57499" ry="4.49997" transform="matrix(1 0 0 -1 1271.01 106)" fill="#92171C" fill-opacity="0.2"/>
<ellipse cx="4.57499" cy="4.49997" rx="4.57499" ry="4.49997" transform="matrix(1 0 0 -1 1345.22 106)" fill="#92171C" fill-opacity="0.2"/>
<ellipse cx="4.57499" cy="4.49997" rx="4.57499" ry="4.49997" transform="matrix(1 0 0 -1 1419.43 106)" fill="#92171C" fill-opacity="0.2"/>
<ellipse cx="4.57499" cy="4.49997" rx="4.57499" ry="4.49997" transform="matrix(1 0 0 -1 9.42188 180)" fill="#92171C" fill-opacity="0.2"/>
<ellipse cx="4.57499" cy="4.49997" rx="4.57499" ry="4.49997" transform="matrix(1 0 0 -1 83.6328 180)" fill="#92171C" fill-opacity="0.2"/>
<ellipse cx="4.57499" cy="4.49997" rx="4.57499" ry="4.49997" transform="matrix(1 0 0 -1 157.844 180)" fill="#92171C" fill-opacity="0.2"/>
<ellipse cx="4.57499" cy="4.49997" rx="4.57499" ry="4.49997" transform="matrix(1 0 0 -1 232.055 180)" fill="#92171C" fill-opacity="0.2"/>
<ellipse cx="4.57499" cy="4.49997" rx="4.57499" ry="4.49997" transform="matrix(1 0 0 -1 306.266 180)" fill="#92171C" fill-opacity="0.2"/>
<ellipse cx="4.57499" cy="4.49997" rx="4.57499" ry="4.49997" transform="matrix(1 0 0 -1 380.477 180)" fill="#92171C" fill-opacity="0.2"/>
<ellipse cx="4.57499" cy="4.49997" rx="4.57499" ry="4.49997" transform="matrix(1 0 0 -1 454.688 180)" fill="#92171C" fill-opacity="0.2"/>
<ellipse cx="4.57499" cy="4.49997" rx="4.57499" ry="4.49997" transform="matrix(1 0 0 -1 528.898 180)" fill="#92171C" fill-opacity="0.2"/>
<ellipse cx="4.57499" cy="4.49997" rx="4.57499" ry="4.49997" transform="matrix(1 0 0 -1 603.109 180)" fill="#92171C" fill-opacity="0.2"/>
<ellipse cx="4.57499" cy="4.49997" rx="4.57499" ry="4.49997" transform="matrix(1 0 0 -1 677.32 180)" fill="#92171C" fill-opacity="0.2"/>
<ellipse cx="4.57499" cy="4.49997" rx="4.57499" ry="4.49997" transform="matrix(1 0 0 -1 751.531 180)" fill="#92171C" fill-opacity="0.2"/>
<ellipse cx="4.57499" cy="4.49997" rx="4.57499" ry="4.49997" transform="matrix(1 0 0 -1 825.742 180)" fill="#92171C" fill-opacity="0.2"/>
<ellipse cx="4.57499" cy="4.49997" rx="4.57499" ry="4.49997" transform="matrix(1 0 0 -1 899.953 180)" fill="#92171C" fill-opacity="0.2"/>
<ellipse cx="4.57499" cy="4.49997" rx="4.57499" ry="4.49997" transform="matrix(1 0 0 -1 974.164 180)" fill="#92171C" fill-opacity="0.2"/>
<ellipse cx="4.57499" cy="4.49997" rx="4.57499" ry="4.49997" transform="matrix(1 0 0 -1 1048.38 180)" fill="#92171C" fill-opacity="0.2"/>
<ellipse cx="4.57499" cy="4.49997" rx="4.57499" ry="4.49997" transform="matrix(1 0 0 -1 1122.59 180)" fill="#92171C" fill-opacity="0.2"/>
<ellipse cx="4.57499" cy="4.49997" rx="4.57499" ry="4.49997" transform="matrix(1 0 0 -1 1196.8 180)" fill="#92171C" fill-opacity="0.2"/>
<ellipse cx="4.57499" cy="4.49997" rx="4.57499" ry="4.49997" transform="matrix(1 0 0 -1 1271.01 180)" fill="#92171C" fill-opacity="0.2"/>
<ellipse cx="4.57499" cy="4.49997" rx="4.57499" ry="4.49997" transform="matrix(1 0 0 -1 1345.22 180)" fill="#92171C" fill-opacity="0.2"/>
<ellipse cx="4.57499" cy="4.49997" rx="4.57499" ry="4.49997" transform="matrix(1 0 0 -1 1419.43 180)" fill="#92171C" fill-opacity="0.2"/>
<ellipse cx="4.57499" cy="4.49997" rx="4.57499" ry="4.49997" transform="matrix(1 0 0 -1 9.42188 254)" fill="#92171C" fill-opacity="0.2"/>
<ellipse cx="4.57499" cy="4.49997" rx="4.57499" ry="4.49997" transform="matrix(1 0 0 -1 83.6328 254)" fill="#92171C" fill-opacity="0.2"/>
<ellipse cx="4.57499" cy="4.49997" rx="4.57499" ry="4.49997" transform="matrix(1 0 0 -1 157.844 254)" fill="#92171C" fill-opacity="0.2"/>
<ellipse cx="4.57499" cy="4.49997" rx="4.57499" ry="4.49997" transform="matrix(1 0 0 -1 232.055 254)" fill="#92171C" fill-opacity="0.2"/>
<ellipse cx="4.57499" cy="4.49997" rx="4.57499" ry="4.49997" transform="matrix(1 0 0 -1 306.266 254)" fill="#92171C" fill-opacity="0.2"/>
<ellipse cx="4.57499" cy="4.49997" rx="4.57499" ry="4.49997" transform="matrix(1 0 0 -1 380.477 254)" fill="#92171C" fill-opacity="0.2"/>
<ellipse cx="4.57499" cy="4.49997" rx="4.57499" ry="4.49997" transform="matrix(1 0 0 -1 454.688 254)" fill="#92171C" fill-opacity="0.2"/>
<ellipse cx="4.57499" cy="4.49997" rx="4.57499" ry="4.49997" transform="matrix(1 0 0 -1 528.898 254)" fill="#92171C" fill-opacity="0.2"/>
<ellipse cx="4.57499" cy="4.49997" rx="4.57499" ry="4.49997" transform="matrix(1 0 0 -1 603.109 254)" fill="#92171C" fill-opacity="0.2"/>
<ellipse cx="4.57499" cy="4.49997" rx="4.57499" ry="4.49997" transform="matrix(1 0 0 -1 677.32 254)" fill="#92171C" fill-opacity="0.2"/>
<ellipse cx="4.57499" cy="4.49997" rx="4.57499" ry="4.49997" transform="matrix(1 0 0 -1 751.531 254)" fill="#92171C" fill-opacity="0.2"/>
<ellipse cx="4.57499" cy="4.49997" rx="4.57499" ry="4.49997" transform="matrix(1 0 0 -1 825.742 254)" fill="#92171C" fill-opacity="0.2"/>
<ellipse cx="4.57499" cy="4.49997" rx="4.57499" ry="4.49997" transform="matrix(1 0 0 -1 899.953 254)" fill="#92171C" fill-opacity="0.2"/>
<ellipse cx="4.57499" cy="4.49997" rx="4.57499" ry="4.49997" transform="matrix(1 0 0 -1 974.164 254)" fill="#92171C" fill-opacity="0.2"/>
<ellipse cx="4.57499" cy="4.49997" rx="4.57499" ry="4.49997" transform="matrix(1 0 0 -1 1048.38 254)" fill="#92171C" fill-opacity="0.2"/>
<ellipse cx="4.57499" cy="4.49997" rx="4.57499" ry="4.49997" transform="matrix(1 0 0 -1 1122.59 254)" fill="#92171C" fill-opacity="0.2"/>
<ellipse cx="4.57499" cy="4.49997" rx="4.57499" ry="4.49997" transform="matrix(1 0 0 -1 1196.8 254)" fill="#92171C" fill-opacity="0.2"/>
<ellipse cx="4.57499" cy="4.49997" rx="4.57499" ry="4.49997" transform="matrix(1 0 0 -1 1271.01 254)" fill="#92171C" fill-opacity="0.2"/>
<ellipse cx="4.57499" cy="4.49997" rx="4.57499" ry="4.49997" transform="matrix(1 0 0 -1 1345.22 254)" fill="#92171C" fill-opacity="0.2"/>
<ellipse cx="4.57499" cy="4.49997" rx="4.57499" ry="4.49997" transform="matrix(1 0 0 -1 1419.43 254)" fill="#92171C" fill-opacity="0.2"/>
<ellipse cx="4.57499" cy="4.49997" rx="4.57499" ry="4.49997" transform="matrix(1 0 0 -1 9.42188 328)" fill="#92171C" fill-opacity="0.2"/>
<ellipse cx="4.57499" cy="4.49997" rx="4.57499" ry="4.49997" transform="matrix(1 0 0 -1 83.6328 328)" fill="#92171C" fill-opacity="0.2"/>
<ellipse cx="4.57499" cy="4.49997" rx="4.57499" ry="4.49997" transform="matrix(1 0 0 -1 157.844 328)" fill="#92171C" fill-opacity="0.2"/>
<ellipse cx="4.57499" cy="4.49997" rx="4.57499" ry="4.49997" transform="matrix(1 0 0 -1 232.055 328)" fill="#92171C" fill-opacity="0.2"/>
<ellipse cx="4.57499" cy="4.49997" rx="4.57499" ry="4.49997" transform="matrix(1 0 0 -1 306.266 328)" fill="#92171C" fill-opacity="0.2"/>
<ellipse cx="4.57499" cy="4.49997" rx="4.57499" ry="4.49997" transform="matrix(1 0 0 -1 380.477 328)" fill="#92171C" fill-opacity="0.2"/>
<ellipse cx="4.57499" cy="4.49997" rx="4.57499" ry="4.49997" transform="matrix(1 0 0 -1 454.688 328)" fill="#92171C" fill-opacity="0.2"/>
<ellipse cx="4.57499" cy="4.49997" rx="4.57499" ry="4.49997" transform="matrix(1 0 0 -1 528.898 328)" fill="#92171C" fill-opacity="0.2"/>
<ellipse cx="4.57499" cy="4.49997" rx="4.57499" ry="4.49997" transform="matrix(1 0 0 -1 603.109 328)" fill="#92171C" fill-opacity="0.2"/>
<ellipse cx="4.57499" cy="4.49997" rx="4.57499" ry="4.49997" transform="matrix(1 0 0 -1 677.32 328)" fill="#92171C" fill-opacity="0.2"/>
<ellipse cx="4.57499" cy="4.49997" rx="4.57499" ry="4.49997" transform="matrix(1 0 0 -1 751.531 328)" fill="#92171C" fill-opacity="0.2"/>
<ellipse cx="4.57499" cy="4.49997" rx="4.57499" ry="4.49997" transform="matrix(1 0 0 -1 825.742 328)" fill="#92171C" fill-opacity="0.2"/>
<ellipse cx="4.57499" cy="4.49997" rx="4.57499" ry="4.49997" transform="matrix(1 0 0 -1 899.953 328)" fill="#92171C" fill-opacity="0.2"/>
<ellipse cx="4.57499" cy="4.49997" rx="4.57499" ry="4.49997" transform="matrix(1 0 0 -1 974.164 328)" fill="#92171C" fill-opacity="0.2"/>
<ellipse cx="4.57499" cy="4.49997" rx="4.57499" ry="4.49997" transform="matrix(1 0 0 -1 1048.38 328)" fill="#92171C" fill-opacity="0.2"/>
<ellipse cx="4.57499" cy="4.49997" rx="4.57499" ry="4.49997" transform="matrix(1 0 0 -1 1122.59 328)" fill="#92171C" fill-opacity="0.2"/>
<ellipse cx="4.57499" cy="4.49997" rx="4.57499" ry="4.49997" transform="matrix(1 0 0 -1 1196.8 328)" fill="#92171C" fill-opacity="0.2"/>
<ellipse cx="4.57499" cy="4.49997" rx="4.57499" ry="4.49997" transform="matrix(1 0 0 -1 1271.01 328)" fill="#92171C" fill-opacity="0.2"/>
<ellipse cx="4.57499" cy="4.49997" rx="4.57499" ry="4.49997" transform="matrix(1 0 0 -1 1345.22 328)" fill="#92171C" fill-opacity="0.2"/>
<ellipse cx="4.57499" cy="4.49997" rx="4.57499" ry="4.49997" transform="matrix(1 0 0 -1 1419.43 328)" fill="#92171C" fill-opacity="0.2"/>
<ellipse cx="4.57499" cy="4.49997" rx="4.57499" ry="4.49997" transform="matrix(1 0 0 -1 9.42188 402)" fill="#92171C" fill-opacity="0.2"/>
<ellipse cx="4.57499" cy="4.49997" rx="4.57499" ry="4.49997" transform="matrix(1 0 0 -1 83.6328 402)" fill="#92171C" fill-opacity="0.2"/>
<ellipse cx="4.57499" cy="4.49997" rx="4.57499" ry="4.49997" transform="matrix(1 0 0 -1 157.844 402)" fill="#92171C" fill-opacity="0.2"/>
<ellipse cx="4.57499" cy="4.49997" rx="4.57499" ry="4.49997" transform="matrix(1 0 0 -1 232.055 402)" fill="#92171C" fill-opacity="0.2"/>
<ellipse cx="4.57499" cy="4.49997" rx="4.57499" ry="4.49997" transform="matrix(1 0 0 -1 306.266 402)" fill="#92171C" fill-opacity="0.2"/>
<ellipse cx="4.57499" cy="4.49997" rx="4.57499" ry="4.49997" transform="matrix(1 0 0 -1 380.477 402)" fill="#92171C" fill-opacity="0.2"/>
<ellipse cx="4.57499" cy="4.49997" rx="4.57499" ry="4.49997" transform="matrix(1 0 0 -1 454.688 402)" fill="#92171C" fill-opacity="0.2"/>
<ellipse cx="4.57499" cy="4.49997" rx="4.57499" ry="4.49997" transform="matrix(1 0 0 -1 528.898 402)" fill="#92171C" fill-opacity="0.2"/>
<ellipse cx="4.57499" cy="4.49997" rx="4.57499" ry="4.49997" transform="matrix(1 0 0 -1 603.109 402)" fill="#92171C" fill-opacity="0.2"/>
<ellipse cx="4.57499" cy="4.49997" rx="4.57499" ry="4.49997" transform="matrix(1 0 0 -1 677.32 402)" fill="#92171C" fill-opacity="0.2"/>
<ellipse cx="4.57499" cy="4.49997" rx="4.57499" ry="4.49997" transform="matrix(1 0 0 -1 751.531 402)" fill="#92171C" fill-opacity="0.2"/>
<ellipse cx="4.57499" cy="4.49997" rx="4.57499" ry="4.49997" transform="matrix(1 0 0 -1 825.742 402)" fill="#92171C" fill-opacity="0.2"/>
<ellipse cx="4.57499" cy="4.49997" rx="4.57499" ry="4.49997" transform="matrix(1 0 0 -1 899.953 402)" fill="#92171C" fill-opacity="0.2"/>
<ellipse cx="4.57499" cy="4.49997" rx="4.57499" ry="4.49997" transform="matrix(1 0 0 -1 974.164 402)" fill="#92171C" fill-opacity="0.2"/>
<ellipse cx="4.57499" cy="4.49997" rx="4.57499" ry="4.49997" transform="matrix(1 0 0 -1 1048.38 402)" fill="#92171C" fill-opacity="0.2"/>
<ellipse cx="4.57499" cy="4.49997" rx="4.57499" ry="4.49997" transform="matrix(1 0 0 -1 1122.59 402)" fill="#92171C" fill-opacity="0.2"/>
<ellipse cx="4.57499" cy="4.49997" rx="4.57499" ry="4.49997" transform="matrix(1 0 0 -1 1196.8 402)" fill="#92171C" fill-opacity="0.2"/>
<ellipse cx="4.57499" cy="4.49997" rx="4.57499" ry="4.49997" transform="matrix(1 0 0 -1 1271.01 402)" fill="#92171C" fill-opacity="0.2"/>
<ellipse cx="4.57499" cy="4.49997" rx="4.57499" ry="4.49997" transform="matrix(1 0 0 -1 1345.22 402)" fill="#92171C" fill-opacity="0.2"/>
<ellipse cx="4.57499" cy="4.49997" rx="4.57499" ry="4.49997" transform="matrix(1 0 0 -1 1419.43 402)" fill="#92171C" fill-opacity="0.2"/>
<ellipse cx="4.57499" cy="4.49997" rx="4.57499" ry="4.49997" transform="matrix(1 0 0 -1 9.42188 476)" fill="#92171C" fill-opacity="0.2"/>
<ellipse cx="4.57499" cy="4.49997" rx="4.57499" ry="4.49997" transform="matrix(1 0 0 -1 83.6328 476)" fill="#92171C" fill-opacity="0.2"/>
<ellipse cx="4.57499" cy="4.49997" rx="4.57499" ry="4.49997" transform="matrix(1 0 0 -1 157.844 476)" fill="#92171C" fill-opacity="0.2"/>
<ellipse cx="4.57499" cy="4.49997" rx="4.57499" ry="4.49997" transform="matrix(1 0 0 -1 232.055 476)" fill="#92171C" fill-opacity="0.2"/>
<ellipse cx="4.57499" cy="4.49997" rx="4.57499" ry="4.49997" transform="matrix(1 0 0 -1 306.266 476)" fill="#92171C" fill-opacity="0.2"/>
<ellipse cx="4.57499" cy="4.49997" rx="4.57499" ry="4.49997" transform="matrix(1 0 0 -1 380.477 476)" fill="#92171C" fill-opacity="0.2"/>
<ellipse cx="4.57499" cy="4.49997" rx="4.57499" ry="4.49997" transform="matrix(1 0 0 -1 454.688 476)" fill="#92171C" fill-opacity="0.2"/>
<ellipse cx="4.57499" cy="4.49997" rx="4.57499" ry="4.49997" transform="matrix(1 0 0 -1 528.898 476)" fill="#92171C" fill-opacity="0.2"/>
<ellipse cx="4.57499" cy="4.49997" rx="4.57499" ry="4.49997" transform="matrix(1 0 0 -1 603.109 476)" fill="#92171C" fill-opacity="0.2"/>
<ellipse cx="4.57499" cy="4.49997" rx="4.57499" ry="4.49997" transform="matrix(1 0 0 -1 677.32 476)" fill="#92171C" fill-opacity="0.2"/>
<ellipse cx="4.57499" cy="4.49997" rx="4.57499" ry="4.49997" transform="matrix(1 0 0 -1 751.531 476)" fill="#92171C" fill-opacity="0.2"/>
<ellipse cx="4.57499" cy="4.49997" rx="4.57499" ry="4.49997" transform="matrix(1 0 0 -1 825.742 476)" fill="#92171C" fill-opacity="0.2"/>
<ellipse cx="4.57499" cy="4.49997" rx="4.57499" ry="4.49997" transform="matrix(1 0 0 -1 899.953 476)" fill="#92171C" fill-opacity="0.2"/>
<ellipse cx="4.57499" cy="4.49997" rx="4.57499" ry="4.49997" transform="matrix(1 0 0 -1 974.164 476)" fill="#92171C" fill-opacity="0.2"/>
<ellipse cx="4.57499" cy="4.49997" rx="4.57499" ry="4.49997" transform="matrix(1 0 0 -1 1048.38 476)" fill="#92171C" fill-opacity="0.2"/>
<ellipse cx="4.57499" cy="4.49997" rx="4.57499" ry="4.49997" transform="matrix(1 0 0 -1 1122.59 476)" fill="#92171C" fill-opacity="0.2"/>
<ellipse cx="4.57499" cy="4.49997" rx="4.57499" ry="4.49997" transform="matrix(1 0 0 -1 1196.8 476)" fill="#92171C" fill-opacity="0.2"/>
<ellipse cx="4.57499" cy="4.49997" rx="4.57499" ry="4.49997" transform="matrix(1 0 0 -1 1271.01 476)" fill="#92171C" fill-opacity="0.2"/>
<ellipse cx="4.57499" cy="4.49997" rx="4.57499" ry="4.49997" transform="matrix(1 0 0 -1 1345.22 476)" fill="#92171C" fill-opacity="0.2"/>
<ellipse cx="4.57499" cy="4.49997" rx="4.57499" ry="4.49997" transform="matrix(1 0 0 -1 1419.43 476)" fill="#92171C" fill-opacity="0.2"/>
</g>
<path d="M1325.06 230.005L1322.96 213.665L1290.33 213.517V181.214H1308.2V164.666H1325.06V148.871H1342.73V132.84H1360.35V116H1411.09V148.871H1377.4V164.666H1360.35V181.214H1342.73V197.761H1325.06V213.665H1411.09V229.836H1428.74V246.163H1445.77V262.49H1463.1V278.661H1479.97V294.988H1497V440.992H1480.44V473.49H1462.84V505.639H1445.48V537.593H1427.85V554.592H1410.9V570.92H1394.23V587H1342.17V570.92H1256.77V587H1204.91V570.92H1187.71V554.295H1170.25V538.216H1153.32V504.966H1135.85V473.624H1118.92V440.647H1102V294.752H1119.08V278.584H1135.47V262.982H1153.36V246.493H1171.65V230.005H1187.39V213.517H1273.76V230.005H1325.06Z" fill="#CC2626"/>
<path d="M1274.09 197.931V148.807H1256.5V132.432H1222.2V164.889H1239.21V197.931H1274.09Z" fill="#CC2626"/>
<path d="M137.444 -156.003C193.675 -147.281 244.744 -116.494 279.62 -70.292C314.496 -24.0903 330.379 33.8175 323.84 90.9231C317.301 148.029 288.863 199.748 244.67 234.91C200.477 270.073 144.075 285.855 87.6481 278.848C31.2212 271.841 -20.7018 242.608 -56.9054 197.462C-93.109 152.317 -110.687 94.8831 -105.843 37.567C-100.998 -19.7491 -74.1206 -72.3469 -31.015 -108.865C12.0907 -145.383 67.9642 -162.891 124.537 -157.606L117.092 -50.6306C88.2064 -53.3291 59.6781 -44.3901 37.6689 -25.7443C15.6598 -7.0986 1.93631 19.7572 -0.537123 49.022C-3.01056 78.2868 5.96459 107.612 24.4496 130.662C42.9347 153.713 69.4459 168.639 98.2567 172.217C127.068 175.794 155.865 167.736 178.43 149.783C200.994 131.83 215.514 105.422 218.853 76.2649C222.192 47.1076 214.082 17.5406 196.275 -6.04933C178.468 -29.6393 152.393 -45.3587 123.682 -49.8122L137.444 -156.003Z" fill="#C1121C"/>
</g>
<defs>
<linearGradient id="paint0_linear_696_12864" x1="1329.92" y1="-73" x2="726.176" y2="1015.45" gradientUnits="userSpaceOnUse">
<stop offset="0.0688176" stop-color="#FF4034"/>
<stop offset="0.417916" stop-color="#DE3232"/>
<stop offset="0.634" stop-color="#C50B17"/>
<stop offset="1" stop-color="#91070C"/>
</linearGradient>
<clipPath id="clip0_696_12864">
<rect width="1440" height="500" fill="white"/>
</clipPath>
</defs>
</svg>
