<svg width="48" height="27" viewBox="0 0 48 27" fill="none" xmlns="http://www.w3.org/2000/svg">
<path d="M47.9968 22.1994L43.5815 22.1994L43.5815 26.6146L47.9968 26.6146L47.9968 22.1994ZM44.0752 26.121L44.0752 22.682L47.5032 22.682L47.5032 26.11L44.0752 26.121Z" fill="#A08B8B"/>
<path d="M46.9163 25.5341L46.9163 23.2799L44.662 23.2799L44.662 25.5341L46.9163 25.5341ZM45.1557 25.0405L45.1557 23.779L46.4227 23.779L46.4227 25.0405L45.1557 25.0405Z" fill="#A08B8B"/>
<path d="M44.6374 17.9843L44.6374 20.7321L46.9136 20.7321L46.9136 18.9962L45.5177 18.9962L45.5177 19.4898L46.4199 19.4898L46.4199 20.2358L45.131 20.2358L45.131 18.4779L47.5032 18.4779L47.5032 21.2587L44.0752 21.2587L44.0752 17.3453L47.9968 17.3453L47.9968 0.167114L47.5032 16.8517L43.5815 16.8517L43.5815 21.7523L47.9968 21.7523L47.9968 17.9843L44.6374 17.9843Z" fill="#A08B8B"/>
<path d="M38.2339 22.1994L38.2339 26.121L0.877721 26.6146L38.7275 26.6146L38.7275 22.693L42.6437 22.693L42.6437 26.121L39.8601 26.121L39.8601 23.7488L41.6207 23.7488L41.6207 25.0377L40.8721 25.0377L40.8721 24.1355L40.3812 24.1355L40.3812 25.5314L42.1144 25.5314L42.1144 23.2552L39.3665 23.2552L39.3665 26.6146L43.1345 26.6146L43.1345 22.1994L38.2339 22.1994Z" fill="#A08B8B"/>
</svg>
