<svg width="48" height="27" viewBox="0 0 48 27" fill="none" xmlns="http://www.w3.org/2000/svg">
<path d="M-0.000213962 22.1994L4.41504 22.1994L4.41504 26.6146L-0.000214155 26.6146L-0.000213962 22.1994ZM3.92141 26.121L3.92141 22.682L0.493417 22.682L0.493416 26.11L3.92141 26.121Z" fill="#A08B8B"/>
<path d="M1.08029 25.5341L1.08029 23.2799L3.33453 23.2799L3.33453 25.5341L1.08029 25.5341ZM2.8409 25.0405L2.8409 23.779L1.57392 23.779L1.57392 25.0405L2.8409 25.0405Z" fill="#A08B8B"/>
<path d="M3.35922 17.9843L3.35922 20.7321L1.08303 20.7321L1.08303 18.9962L2.47891 18.9962L2.47891 19.4898L1.57666 19.4898L1.57666 20.2358L2.86559 20.2358L2.86559 18.4779L0.493417 18.4779L0.493417 21.2587L3.92141 21.2587L3.92141 17.3453L-0.000213749 17.3453L-0.000213623 0.167114L0.493417 16.8517L4.41504 16.8517L4.41504 21.7523L-0.000213942 21.7523L-0.000213777 17.9843L3.35922 17.9843Z" fill="#A08B8B"/>
<path d="M9.7627 22.1994L9.7627 26.121L47.1189 26.6146L9.26906 26.6146L9.26906 22.693L5.35293 22.693L5.35293 26.121L8.13646 26.121L8.13646 23.7488L6.37584 23.7488L6.37584 25.0377L7.12451 25.0377L7.12451 24.1355L7.6154 24.1355L7.6154 25.5314L5.88221 25.5314L5.88221 23.2552L8.63009 23.2552L8.63009 26.6146L4.86204 26.6146L4.86204 22.1994L9.7627 22.1994Z" fill="#A08B8B"/>
</svg>
