<svg width="48" height="27" viewBox="0 0 48 27" fill="none" xmlns="http://www.w3.org/2000/svg">
<path d="M-0.000213962 4.41525L4.41504 4.41525L4.41504 2.84172e-05L-0.000214155 2.86102e-05L-0.000213962 4.41525ZM3.92141 0.493656L3.92141 3.9326L0.493417 3.9326L0.493416 0.504625L3.92141 0.493656Z" fill="#A08B8B"/>
<path d="M1.08029 1.08054L1.08029 3.33477L3.33453 3.33477L3.33453 1.08054L1.08029 1.08054ZM2.8409 1.57417L2.8409 2.83566L1.57392 2.83566L1.57392 1.57417L2.8409 1.57417Z" fill="#A08B8B"/>
<path d="M3.35922 8.63035L3.35922 5.88249L1.08303 5.88249L1.08303 7.61841L2.47891 7.61841L2.47891 7.12479L1.57666 7.12479L1.57666 6.37886L2.86559 6.37886L2.86559 8.13672L0.493417 8.13672L0.493417 5.35596L3.92141 5.35595L3.92141 9.26932L-0.000213749 9.26932L-0.000213623 26.4475L0.493417 9.76295L4.41504 9.76295L4.41504 4.86233L-0.000213942 4.86233L-0.000213777 8.63035L3.35922 8.63035Z" fill="#A08B8B"/>
<path d="M9.7627 4.41525L9.7627 0.493656L47.1189 3.03653e-05L9.26906 2.82051e-05L9.26906 3.92163L5.35293 3.92163L5.35293 0.493656L8.13646 0.493656L8.13646 2.86581L6.37584 2.86581L6.37584 1.5769L7.12451 1.5769L7.12451 2.47914L7.6154 2.47914L7.6154 1.08327L5.88221 1.08327L5.88221 3.35944L8.63009 3.35944L8.63009 2.8233e-05L4.86204 2.83977e-05L4.86204 4.41525L9.7627 4.41525Z" fill="#A08B8B"/>
</svg>
