<svg width="48" height="27" viewBox="0 0 48 27" fill="none" xmlns="http://www.w3.org/2000/svg">
<path d="M47.3008 4.41525L42.8855 4.41525L42.8855 2.84172e-05L47.3008 2.86102e-05L47.3008 4.41525ZM43.3792 0.493656L43.3792 3.9326L46.8072 3.9326L46.8072 0.504625L43.3792 0.493656Z" fill="#A08B8B"/>
<path d="M46.2203 1.08054L46.2203 3.33477L43.966 3.33477L43.966 1.08054L46.2203 1.08054ZM44.4597 1.57417L44.4597 2.83566L45.7266 2.83566L45.7266 1.57417L44.4597 1.57417Z" fill="#A08B8B"/>
<path d="M43.9414 8.63035L43.9414 5.88249L46.2175 5.88249L46.2175 7.61841L44.8217 7.61841L44.8217 7.12479L45.7239 7.12479L45.7239 6.37886L44.435 6.37886L44.435 8.13672L46.8072 8.13672L46.8072 5.35596L43.3792 5.35595L43.3792 9.26932L47.3008 9.26932L47.3008 26.4475L46.8072 9.76295L42.8855 9.76295L42.8855 4.86233L47.3008 4.86233L47.3008 8.63035L43.9414 8.63035Z" fill="#A08B8B"/>
<path d="M37.5379 4.41525L37.5379 0.493656L0.181707 3.03653e-05L38.0315 2.82051e-05L38.0315 3.92163L41.9476 3.92163L41.9476 0.493656L39.1641 0.493656L39.1641 2.86581L40.9247 2.86581L40.9247 1.5769L40.1761 1.5769L40.1761 2.47914L39.6852 2.47914L39.6852 1.08327L41.4184 1.08327L41.4184 3.35944L38.6705 3.35944L38.6705 2.8233e-05L42.4385 2.83977e-05L42.4385 4.41525L37.5379 4.41525Z" fill="#A08B8B"/>
</svg>
