<svg width="82" height="82" viewBox="0 0 82 82" fill="none" xmlns="http://www.w3.org/2000/svg">
<circle cx="41" cy="41" r="39.5" fill="#303FB7" stroke="url(#paint0_linear_144_67487)" stroke-width="3"/>
<path d="M55.6666 44.3689C43.6932 44.3689 41.8177 52.2 33.191 51.9867C24.191 51.76 22.9377 44.7155 25.9066 42.4089C25.8558 42.8821 25.9121 43.3607 26.0713 43.8092C26.2306 44.2578 26.4887 44.6647 26.8266 45C27.6808 45.8535 28.839 46.333 30.0466 46.333C31.2541 46.333 32.4123 45.8535 33.2666 45C33.925 44.3425 34.4339 43.5507 34.7583 42.6786C35.0828 41.8065 35.2152 40.8746 35.1466 39.9467C37.3904 40.752 39.8171 40.9026 42.1433 40.3809C44.4695 39.8591 46.5994 38.6865 48.2843 37C54.0977 31.1867 59.3955 34.5022 61.3421 37.3867C61.3421 37.3867 59.311 30.24 54.0666 30.24C46.1377 30.24 44.8932 35.4311 39.1777 35.2889C33.2132 35.1378 32.3866 30.4711 34.3554 28.9422C34.3203 29.2552 34.3565 29.5721 34.4611 29.8692C34.5658 30.1663 34.7363 30.4359 34.9599 30.6578C35.5258 31.2234 36.2931 31.5411 37.0932 31.5411C37.8933 31.5411 38.6607 31.2234 39.2266 30.6578C40.035 29.8479 40.4887 28.7501 40.4879 27.6057C40.4871 26.4614 40.0318 25.3642 39.2221 24.5555C38.6505 23.9837 37.9718 23.5301 37.2249 23.2207C36.4779 22.9112 35.6773 22.7519 34.8688 22.7519C34.0603 22.7519 33.2597 22.9112 32.5127 23.2207C31.7657 23.5301 31.0871 23.9837 30.5154 24.5555C29.4059 25.668 28.6146 27.0573 28.2238 28.5791C27.833 30.1008 27.857 31.6995 28.2932 33.2089C26.8215 32.949 25.3088 33.0489 23.8841 33.5001C22.4593 33.9512 21.1648 34.7403 20.111 35.8C18.8786 37.0323 17.9009 38.4954 17.2339 40.1056C16.5669 41.7158 16.2236 43.4416 16.2236 45.1844C16.2236 46.9273 16.5669 48.6531 17.2339 50.2633C17.9009 51.8735 18.8786 53.3365 20.111 54.5689C23.6674 58.1248 28.4907 60.1224 33.5199 60.1224C38.5491 60.1224 43.3723 58.1248 46.9288 54.5689C55.7021 45.7955 63.671 50.8 66.6354 55.1511C66.6488 55.1511 63.5821 44.3689 55.6666 44.3689Z" fill="#EDE8D5"/>
<defs>
<linearGradient id="paint0_linear_144_67487" x1="9.94519" y1="-5.38221" x2="28.5811" y2="88.7278" gradientUnits="userSpaceOnUse">
<stop stop-color="#E5B039"/>
<stop offset="0.47968" stop-color="#FFEBBD"/>
<stop offset="1" stop-color="#E5B039"/>
</linearGradient>
</defs>
</svg>
