<svg width="76" height="20" viewBox="0 0 76 20" fill="none" xmlns="http://www.w3.org/2000/svg">
<rect x="0.5" y="0.5" width="19" height="19" rx="9.5" fill="#EF232C"/>
<rect x="0.5" y="0.5" width="19" height="19" rx="9.5" stroke="white"/>
<path fill-rule="evenodd" clip-rule="evenodd" d="M8.07656 4.27717C7.92677 4.29992 7.93005 4.43471 8.08807 4.7506C8.30939 5.19302 8.36992 5.65628 8.36963 6.9058C8.36931 8.32708 8.24791 9.85023 8.06932 10.6733C7.80042 11.9129 7.34705 12.858 6.64439 13.6439C6.05508 14.303 5.08141 15.0175 4.16827 15.4609C3.76986 15.6544 3.70571 15.7005 3.73376 15.7736C3.7543 15.8272 3.96198 15.8319 4.29355 15.7863C5.03259 15.6846 5.81043 15.3407 6.52213 14.801C7.44379 14.1019 8.12851 13.2721 8.45724 12.4556C8.68448 11.8912 8.77232 11.6163 8.99727 10.7653L9.03424 10.6254L9.09983 10.6929C9.13588 10.7299 9.30105 10.9559 9.46684 11.195C9.63262 11.4341 9.85099 11.7471 9.95208 11.8905C10.0532 12.034 10.19 12.2296 10.2561 12.3252C10.5251 12.7144 11.4733 14.0218 11.8345 14.5014C12.044 14.7797 12.527 15.2588 12.7387 15.3983C13.0329 15.5922 13.1793 15.6351 13.6757 15.6733C14.3823 15.7275 16.0216 15.6154 16.2413 15.4978C16.3209 15.4552 16.3123 15.3404 16.2243 15.2712C16.1501 15.2128 15.8374 15.0959 15.5444 15.0171C15.3455 14.9635 14.6036 14.6909 14.371 14.586C13.5757 14.227 12.939 13.8542 12.4009 13.4325C11.3925 12.6423 10.203 11.3501 9.39727 10.1699L9.17035 9.83757L9.17001 9.58888C9.16966 9.33075 9.20112 8.77796 9.27405 7.76073C9.36529 6.48806 9.46304 5.74314 9.59675 5.30129C9.69795 4.96685 9.67104 4.87513 9.42494 4.71602C9.32779 4.65319 9.23401 4.60175 9.21657 4.60167C9.19912 4.60161 9.08054 4.5608 8.95306 4.51098C8.54016 4.34965 8.1988 4.25859 8.07656 4.27717ZM12.6497 6.73939C12.5889 6.80016 12.5597 6.86395 12.5459 6.96628C12.4832 7.42797 12.2753 7.70176 11.1699 8.77788C10.7084 9.22717 10.3889 9.55975 10.3938 9.58578C10.411 9.67669 10.5745 9.65151 10.8835 9.51031C11.0487 9.43479 11.2035 9.35808 11.2274 9.33985C11.2513 9.32165 11.3521 9.26606 11.4514 9.21633C11.6491 9.11736 12.5599 8.59446 12.6763 8.51314C12.8296 8.40596 13.5682 8.05396 13.7389 8.00666C14.0115 7.93117 14.0941 7.82023 14.0006 7.65516C13.9293 7.52935 13.5536 7.13695 13.3465 6.97207C13.1141 6.787 12.9737 6.70658 12.8283 6.67519C12.7484 6.65795 12.7214 6.66772 12.6497 6.73939ZM5.58349 8.05634C5.48443 8.15542 5.58589 8.45407 5.88403 8.94121C6.37512 9.74352 6.84405 10.2531 7.09128 10.2531C7.27835 10.2531 7.41302 9.95827 7.41557 9.54306C7.41803 9.14309 7.28476 8.94475 6.76052 8.56826C6.60632 8.45755 6.3294 8.28923 6.1451 8.19426C5.80907 8.02107 5.65627 7.98354 5.58349 8.05634Z" fill="white"/>
<rect x="14.5" y="0.5" width="19" height="19" rx="9.5" fill="#B26802"/>
<rect x="14.5" y="0.5" width="19" height="19" rx="9.5" stroke="white"/>
<path d="M22.661 4.26077C23.3757 4.99583 23.3558 7.76001 23.2565 9.05022C23.0727 9.34371 20.8618 9.78946 19.7792 9.97565L20.1363 10.2477C20.9525 10.2477 22.5565 9.94164 23.2565 9.78861V14.5327C22.8228 14.5837 16.4335 15.2354 16.4591 15.5417C16.4795 15.7867 16.961 16.0351 17.1992 16.1287C23.9882 14.1635 31.2621 15.3375 31.5173 14.8015C31.7726 14.2656 29.9094 13.1426 29.1693 13.602C28.7201 14.1533 25.6812 14.3081 24.2179 14.3166L24.371 9.62048C25.6131 9.5269 28.1126 9.28183 28.1739 9.05022C28.2505 8.76071 26.6681 7.91047 26.4128 8.19122C26.2087 8.41582 25.0516 8.67615 24.4986 8.77824C24.6007 7.58719 24.7947 5.12341 24.7538 4.79672C24.7028 4.38836 22.2526 3.2909 22.661 4.26077Z" fill="white"/>
<rect x="28.5" y="0.5" width="19" height="19" rx="9.5" fill="#FFD744"/>
<rect x="28.5" y="0.5" width="19" height="19" rx="9.5" stroke="white"/>
<path d="M34.9668 15.1352C34.5767 15.0341 33.6124 13.8651 33.1789 13.2932C33.0839 13.1696 33.1393 12.9768 33.1789 12.8959C33.6364 13.0283 34.6345 13.3943 34.9668 13.7988C35.3822 14.3045 35.4544 15.2616 34.9668 15.1352Z" fill="white"/>
<path d="M34.843 9.43951C34.766 9.44912 34.5061 9.21894 34.3858 9.10265C34.0201 8.83317 34.7587 8.79027 35.1738 8.80251C35.9604 8.74195 37.6682 8.47265 38.2066 7.87987C38.927 7.77935 40.1834 8.68401 39.4634 8.68401C38.8873 8.68401 37.6815 9.01906 37.1506 9.18659V10.8302C37.8743 10.8184 39.4173 10.6795 39.8001 10.2188C40.6065 10.2099 41.528 10.9099 41.1382 11.1403C40.7979 11.0056 38.338 11.2969 37.1506 11.4593V14.8354C37.9363 14.1384 39.4988 12.6627 39.4634 12.3366C39.4279 12.0105 39.549 11.7754 39.614 11.6986C39.9183 11.864 40.5569 12.287 40.6774 12.6556C40.7979 13.0242 38.3764 14.481 37.1506 15.1633V15.5709C38.3173 15.5532 40.727 15.3972 41.0318 14.9152C42.4673 15.3317 42.7775 16.069 42.6357 16.1912C42.4939 16.3134 40.7144 16.1412 38.5126 16.069C36.3108 15.9968 32.9179 17.0436 32.3885 16.9714C31.965 16.9136 31.6666 16.5462 31.5703 16.3698C31.8783 16.312 34.9152 15.8644 36.3951 15.6479V11.5571C35.4085 11.7536 33.3558 12.1418 33.0382 12.1226C32.6412 12.0985 32.184 11.6895 32.2682 11.6895C32.3356 11.6895 35.0475 11.2884 36.3951 11.0879C36.4232 10.6026 36.4408 9.59353 36.2868 9.43951C36.0943 9.24699 34.9392 9.42749 34.843 9.43951Z" fill="white"/>
<path d="M32.5084 9.10574C31.569 10.0115 30.9428 10.6853 30.7471 10.909C32.2911 10.5815 35.8536 6.82775 37.4418 4.99183C38.6187 6.6395 41.157 10.0011 41.8948 10.2663C42.7825 10.4277 44.5032 10.3335 45.2526 10.2663C43.7884 10.0933 39.6522 6.44324 37.7671 4.6398C37.8161 4.47099 37.8847 4.05428 37.7671 3.73792C37.6495 3.42157 36.8962 3.13084 36.5343 3.02502V3.73792C36.1569 4.91214 33.6826 7.97348 32.5084 9.10574Z" fill="white"/>
<rect x="42.5" y="0.5" width="19" height="19" rx="9.5" fill="#2D8B6F"/>
<rect x="42.5" y="0.5" width="19" height="19" rx="9.5" stroke="white"/>
<path d="M49.6745 3.04178C50.077 3.60527 50.1106 5.78104 50.077 6.79849C49.6382 7.09296 48.8263 7.1449 47.3504 7.526C45.8744 7.9071 45.1752 7.9994 46.1463 8.40724C47.1173 8.81507 49.9139 7.26388 49.9139 7.74694C48.7487 10.8737 44.2236 14.0392 44.5538 14.4859C45.2529 15.0092 48.5273 11.5976 50.077 9.82639C49.966 12.3578 49.939 17.4682 50.7196 17.6581C51.5001 17.8479 51.4438 11.9702 51.3181 9.00765C52.7109 10.5108 55.5385 13.5801 55.7063 13.8317C55.9161 14.1464 58.5553 13.8842 59.1496 13.7094C59.625 13.5696 59.4563 13.3146 59.3125 13.2046C58.0215 13.5843 53.445 10.0396 51.3181 8.21983V7.526L54.9742 7.26388C55.6623 7.28444 57.0415 7.2423 57.0539 6.90926C57.0693 6.49296 55.1754 5.38971 54.9742 5.79222C54.8132 6.11422 52.4697 6.59723 51.3181 6.79849C51.4746 5.70278 51.7407 3.41744 51.5529 3.04178C51.3651 2.66611 50.2224 2.41567 49.6745 2.3374C49.5068 2.3374 49.272 2.47828 49.6745 3.04178Z" fill="white"/>
<rect x="56.5" y="0.5" width="19" height="19" rx="9.5" fill="#00176F"/>
<rect x="56.5" y="0.5" width="19" height="19" rx="9.5" stroke="white"/>
<path d="M64.599 4.07395C64.6235 3.60575 64.0778 2.81668 63.8018 2.48068C63.696 2.34634 63.5591 1.9404 64.599 2.06217C65.6388 2.18393 65.8935 3.13776 65.8935 3.25953V8.61719C66.0466 8.54277 66.5326 8.21942 67.252 7.5213C68.1514 6.64865 68.4767 5.57306 68.381 5.16718C68.2853 4.76129 68.4384 4.59894 68.7254 4.59894C69.0124 4.59894 70.0266 5.18747 70.5049 5.87747C70.8876 6.42947 68.0493 8.21807 66.5823 9.04336C68.2662 11.0525 73.5856 13.8531 73.8917 14.4213C73.8343 15.0301 70.1796 14.9896 69.8161 14.8069C69.5252 14.6608 67.0798 11.0254 65.8935 9.22601L66.0018 15.9428C65.4249 18.3044 64.8075 18.0682 64.599 17.7891C64.3905 17.51 62.4088 15.4813 62.3379 15.2666C62.2813 15.0948 63.8217 15.2984 64.599 15.4217C64.5887 11.8342 64.5744 4.54216 64.599 4.07395Z" fill="white"/>
<path d="M58.3139 9.01077C58.3138 9.31632 59.1432 9.62419 59.5579 9.73993C60.6209 9.61297 61.6293 8.2469 61.7262 8.61601C61.8037 8.9113 61.2733 9.99756 60.9984 10.5038C60.1429 12.283 57.3318 14.3231 58.3139 14.5662C59.0995 14.7606 61.1729 12.2861 62.1114 11.0246C62.6461 10.2607 63.7352 8.67744 63.8138 8.45523C63.912 8.17746 63.4209 7.79554 62.8971 7.55249C62.3733 7.30944 61.8168 7.7608 60.7037 8.2469C59.5907 8.73299 58.3139 8.62883 58.3139 9.01077Z" fill="white"/>
</svg>
