<svg width="20" height="20" viewBox="0 0 20 20" fill="none" xmlns="http://www.w3.org/2000/svg">
<g clip-path="url(#clip0_1632_20284)">
<path d="M12.2993 6.3636L12.2993 4.54541L14.0106 4.54541L14.0106 6.3636L12.2993 6.3636Z" fill="#EF232C"/>
<path d="M10.5884 19.0908L10.5884 6.36353L12.2996 6.36353L12.2996 19.0908L10.5884 19.0908Z" fill="#EF232C"/>
<path d="M17.4336 0.90918V13.6364H19.1448V0.90918H17.4336Z" fill="#EF232C"/>
<path d="M14.0107 17.2728L14.0107 15.4546L15.722 15.4546L15.722 17.2728L14.0107 17.2728Z" fill="#EF232C"/>
<path d="M14.0107 4.54548L14.0107 2.72729L15.722 2.72729L15.722 4.54548L14.0107 4.54548Z" fill="#EF232C"/>
<path d="M15.7222 15.4547L15.7222 13.6365L17.4334 13.6365L17.4334 15.4547L15.7222 15.4547Z" fill="#EF232C"/>
<path d="M15.7222 2.72737L15.7222 0.90918L17.4334 0.90918L17.4334 2.72737L15.7222 2.72737Z" fill="#EF232C"/>
<path d="M7.16553 6.3636L7.16553 4.54541L8.87676 4.54541L8.87676 6.3636L7.16553 6.3636Z" fill="#EF232C"/>
<path d="M5.45459 19.0908L5.45459 6.36353L7.16581 6.36353L7.16581 19.0908L5.45459 19.0908Z" fill="#EF232C"/>
<path d="M8.87695 4.54548L8.87695 2.72729L10.5882 2.72729L10.5882 4.54548L8.87695 4.54548Z" fill="#EF232C"/>
<path d="M10.5884 2.72737L10.5884 0.90918L12.2996 0.90918L12.2996 2.72737L10.5884 2.72737Z" fill="#EF232C"/>
<path d="M2.03223 6.3636L2.03223 4.54541L3.74346 4.54541L3.74346 6.3636L2.03223 6.3636Z" fill="#EF232C"/>
<path d="M0.32129 19.0908L0.321289 6.36353L2.03251 6.36353L2.03251 19.0908L0.32129 19.0908Z" fill="#EF232C"/>
<path d="M3.74365 4.54548L3.74365 2.72729L5.45489 2.72729L5.45489 4.54548L3.74365 4.54548Z" fill="#EF232C"/>
<path d="M5.45508 2.72737L5.45508 0.90918L7.16631 0.90918L7.16631 2.72737L5.45508 2.72737Z" fill="#EF232C"/>
<path d="M12.2993 19.0909L12.2993 17.2727L14.0106 17.2727L14.0106 19.0909L12.2993 19.0909Z" fill="#EF232C"/>
</g>
<defs>
<clipPath id="clip0_1632_20284">
<rect width="20" height="20" fill="white"/>
</clipPath>
</defs>
</svg>
