<svg width="20" height="20" viewBox="0 0 20 20" fill="none" xmlns="http://www.w3.org/2000/svg">
<g clip-path="url(#clip0_1632_18787)">
<path d="M3.33317 7.5H1.6665V9.16666H3.33317V7.5Z" fill="#EF232C"/>
<path d="M5.00016 8.33313H3.3335V9.99979H5.00016V8.33313Z" fill="#EF232C"/>
<path d="M7.5 6.66687H0V8.33354H7.5V6.66687Z" fill="#EF232C"/>
<path d="M7.50016 6.66687H3.3335V8.33354H7.50016V6.66687Z" fill="#EF232C"/>
<path d="M6.66666 10H5V11.6667H6.66666V10Z" fill="#EF232C"/>
<path d="M16.6668 7.5H18.3335V9.16666H16.6668V7.5Z" fill="#EF232C"/>
<path d="M14.9998 8.33313H16.6665V9.99979H14.9998V8.33313Z" fill="#EF232C"/>
<path d="M12.5 6.66687H20V8.33354H12.5V6.66687Z" fill="#EF232C"/>
<path d="M12.4998 6.66687H16.6665V8.33354H12.4998V6.66687Z" fill="#EF232C"/>
<path d="M13.3333 10H15V11.6667H13.3333V10Z" fill="#EF232C"/>
<path d="M8.3335 15.8331H5.8335V17.4998H8.3335V15.8331Z" fill="#EF232C"/>
<path d="M5.83317 15H4.1665V17.5H5.83317V15Z" fill="#EF232C"/>
<path d="M6.66666 13.3331H5V14.9998H6.66666V13.3331Z" fill="#EF232C"/>
<path d="M5.00016 16.6669H3.3335V19.1669H5.00016V16.6669Z" fill="#EF232C"/>
<path d="M10.0002 14.1669H8.3335V15.8335H10.0002V14.1669Z" fill="#EF232C"/>
<path d="M5.8335 17.5H3.3335V19.1667H5.8335V17.5Z" fill="#EF232C"/>
<path d="M4.16666 18.3331H2.5V19.9998H4.16666V18.3331Z" fill="#EF232C"/>
<path d="M11.6668 15.8331H15.8335V17.4998H11.6668V15.8331Z" fill="#EF232C"/>
<path d="M13.3333 13.3331H15V14.9998H13.3333V13.3331Z" fill="#EF232C"/>
<path d="M14.9998 16.6669H16.6665V19.1669H14.9998V16.6669Z" fill="#EF232C"/>
<path d="M14.1668 15H15.8335V17.5H14.1668V15Z" fill="#EF232C"/>
<path d="M14.1665 17.5H16.6665V19.1667H14.1665V17.5Z" fill="#EF232C"/>
<path d="M15.8333 18.3331H17.5V19.9998H15.8333V18.3331Z" fill="#EF232C"/>
<path d="M12.4998 10.8331H14.1665V13.3331H12.4998V10.8331Z" fill="#EF232C"/>
<path d="M9.99984 14.1669H11.6665V15.8335H9.99984V14.1669Z" fill="#EF232C"/>
<path d="M7.50016 11.6669H5.8335V13.3335H7.50016V11.6669Z" fill="#EF232C"/>
<path d="M9.16666 5H7.5V6.66666H9.16666V5Z" fill="#EF232C"/>
<path d="M12.5002 5H10.8335V6.66666H12.5002V5Z" fill="#EF232C"/>
<path d="M11.6667 1.66687H10V5.00021H11.6667V1.66687Z" fill="#EF232C"/>
<path d="M10.0002 1.66687H8.3335V5.00021H10.0002V1.66687Z" fill="#EF232C"/>
<path d="M11.6667 1.66687H10V3.33354H11.6667V1.66687Z" fill="#EF232C"/>
<path d="M10.8332 0H9.1665V1.66666H10.8332V0Z" fill="#EF232C"/>
</g>
<defs>
<clipPath id="clip0_1632_18787">
<rect width="20" height="20" fill="white"/>
</clipPath>
</defs>
</svg>
