<svg width="14" height="15" viewBox="0 0 14 15" fill="none" xmlns="http://www.w3.org/2000/svg">
<path fill-rule="evenodd" clip-rule="evenodd" d="M8.67774 0.442871H5.97346C4.74829 0.442861 3.77786 0.442853 3.01839 0.544961C2.23677 0.650047 1.60414 0.871458 1.10523 1.37037C0.606321 1.86928 0.38491 2.50191 0.279825 3.28352C0.177716 4.043 0.177724 5.01342 0.177735 6.23859V10.2762C0.177735 11.5244 1.09244 12.5589 2.28808 12.746C2.38006 13.2553 2.55609 13.6901 2.90997 14.044C3.31125 14.4453 3.8165 14.6178 4.41657 14.6985C4.99455 14.7762 5.72943 14.7762 6.64115 14.7762H8.71432C9.62604 14.7762 10.3609 14.7762 10.9389 14.6985C11.539 14.6178 12.0442 14.4453 12.4455 14.044C12.8468 13.6427 13.0194 13.1374 13.1001 12.5374C13.1778 11.9594 13.1778 11.2245 13.1777 10.3128V6.90629C13.1778 5.99456 13.1778 5.25968 13.1001 4.6817C13.0194 4.08163 12.8468 3.57638 12.4455 3.17511C12.0916 2.82122 11.6569 2.64519 11.1475 2.55321C10.9604 1.35757 9.9259 0.442871 8.67774 0.442871ZM10.0973 2.45698C9.89541 1.86703 9.33611 1.44287 8.67774 1.44287H6.01107C4.73985 1.44287 3.83674 1.44393 3.15163 1.53604C2.48091 1.62622 2.09448 1.79533 1.81234 2.07747C1.5302 2.35961 1.36108 2.74604 1.27091 3.41677C1.1788 4.10188 1.17774 5.00499 1.17774 6.2762V10.2762C1.17774 10.9346 1.60189 11.4939 2.19185 11.6958C2.17772 11.2891 2.17773 10.8293 2.17773 10.3128V6.90629C2.17772 5.99456 2.17771 5.25968 2.25542 4.6817C2.33609 4.08163 2.50869 3.57638 2.90997 3.17511C3.31125 2.77383 3.8165 2.60123 4.41657 2.52055C4.99455 2.44285 5.72943 2.44286 6.64115 2.44287H8.71432C9.23087 2.44286 9.69065 2.44286 10.0973 2.45698ZM3.61708 3.88221C3.80158 3.6977 4.06063 3.57741 4.54982 3.51164C5.05338 3.44393 5.72079 3.44287 6.67774 3.44287H8.67774C9.63468 3.44287 10.3021 3.44393 10.8057 3.51164C11.2948 3.57741 11.5539 3.6977 11.7384 3.88221C11.9229 4.06672 12.0432 4.32577 12.109 4.81495C12.1767 5.31852 12.1777 5.98593 12.1777 6.94287V10.2762C12.1777 11.2331 12.1767 11.9006 12.109 12.4041C12.0432 12.8933 11.9229 13.1524 11.7384 13.3369C11.5539 13.5214 11.2948 13.6417 10.8057 13.7074C10.3021 13.7751 9.63468 13.7762 8.67774 13.7762H6.67773C5.72079 13.7762 5.05338 13.7751 4.54982 13.7074C4.06063 13.6417 3.80158 13.5214 3.61708 13.3369C3.43257 13.1524 3.31227 12.8933 3.2465 12.4041C3.1788 11.9006 3.17774 11.2331 3.17774 10.2762V6.94287C3.17774 5.98593 3.1788 5.31852 3.2465 4.81495C3.31227 4.32577 3.43257 4.06672 3.61708 3.88221Z" fill="#B3B0AD"/>
</svg>
