<svg width="20" height="14" viewBox="0 0 20 14" fill="none" xmlns="http://www.w3.org/2000/svg">
<path d="M7.02827 0.00746409C6.77154 0.0092979 4.66815 0.0688967 2.44741 1.72483C2.44741 1.72483 0.078125 6.00219 0.078125 11.268C0.078125 11.268 1.4599 13.6455 5.09635 13.761C5.09635 13.761 5.70517 13.0349 6.19847 12.4068C4.10976 11.7787 3.31939 10.4739 3.31939 10.4739C3.31939 10.4739 3.48443 10.5895 3.77967 10.7554C3.79618 10.7554 3.81176 10.7729 3.84386 10.7884C3.89429 10.8205 3.94288 10.838 3.99239 10.871C4.40317 11.102 4.81394 11.2836 5.19354 11.4312C5.86838 11.7127 6.67434 11.9593 7.61326 12.1409C8.84741 12.3719 10.2952 12.4545 11.8732 12.1583C12.6914 12.006 13.4914 11.7681 14.2599 11.4486C14.9254 11.1973 15.5598 10.8702 16.1506 10.4739C16.1506 10.4739 15.329 11.8108 13.1734 12.4224C13.6667 13.033 14.2599 13.7418 14.2599 13.7418C17.8954 13.6263 19.2781 11.2478 19.2781 11.2661C19.2781 5.99761 16.9088 1.72208 16.9088 1.72208C14.5561 -0.0420489 12.3014 0.00746409 12.3014 0.00746409L12.0712 0.271533C14.8678 1.11325 16.168 2.35291 16.168 2.35291C14.6334 1.51724 12.9525 0.984618 11.2167 0.784083C10.1112 0.66103 8.99485 0.672113 7.89199 0.817092C7.79389 0.817092 7.71136 0.834513 7.61142 0.849183C7.0356 0.9152 5.63732 1.11325 3.87686 1.88987C3.26896 2.15394 2.90586 2.35291 2.90586 2.35291C2.90586 2.35291 4.25738 1.04815 7.21807 0.206433L7.05303 0.00746409H7.02827ZM6.60924 6.1003C7.54632 6.1003 8.3046 6.90901 8.28718 7.91669C8.28718 8.92529 7.54632 9.734 6.60924 9.734C5.68775 9.734 4.93131 8.92437 4.93131 7.91669C4.93131 6.90901 5.67033 6.1003 6.60924 6.1003ZM12.615 6.1003C13.5355 6.1003 14.2929 6.90901 14.2929 7.91669C14.2929 8.92529 13.5511 9.734 12.615 9.734C11.6926 9.734 10.937 8.92437 10.937 7.91669C10.937 6.90901 11.6761 6.1003 12.615 6.1003Z" fill="#4E473F"/>
</svg>
