<svg width="25" height="25" viewBox="0 0 25 25" fill="none" xmlns="http://www.w3.org/2000/svg">
<path d="M19.3515 3.63492C18.3418 2.88972 16.9976 3.95661 16.2527 4.96566L9.9668 14.4418L11.7949 15.7904L18.9946 6.98817C19.7396 5.97889 20.3612 4.37989 19.3515 3.63492Z" fill="#4E473F"/>
<path d="M5.96962 19.457C5.96958 20.1633 4.97423 20.7104 4.47656 20.8957C4.89399 21.506 6.3229 22.4389 8.69918 21.288C11.0755 20.1371 10.8453 18.3454 10.4332 17.5934L11.4929 16.3019L9.64648 14.8796L8.69918 16.3019C8.41553 16.291 7.70371 16.351 7.1257 16.6779C6.40318 17.0866 5.96967 18.5743 5.96962 19.457Z" fill="#4E473F"/>
</svg>
