<svg xmlns="http://www.w3.org/2000/svg" width="16" height="16" viewBox="0 0 16 16" fill="none">
<path d="M7.33865 6.54327L6.70131 8.45594C6.66413 8.57323 6.65989 8.69848 6.68907 8.81801C6.71824 8.93754 6.7797 9.04675 6.86674 9.13372C6.95377 9.22069 7.06304 9.28206 7.18259 9.31114C7.30214 9.34022 7.42739 9.33588 7.54465 9.29861L9.45731 8.66127C9.55518 8.62842 9.64415 8.57344 9.71731 8.50061L14.208 4.00994C14.5019 3.71569 14.6669 3.31682 14.6669 2.90094C14.6669 2.48506 14.5019 2.08619 14.208 1.79194C13.9136 1.49858 13.5149 1.33386 13.0993 1.33386C12.6837 1.33386 12.285 1.49858 11.9906 1.79194L7.49998 6.28327C7.42677 6.35626 7.37154 6.44527 7.33865 6.54327Z" fill="#A88D65"/>
<path d="M14.0007 6.00004C13.8238 6.00004 13.6543 6.07028 13.5292 6.1953C13.4042 6.32033 13.334 6.4899 13.334 6.66671V11.3334C13.334 11.8638 13.1233 12.3725 12.7482 12.7476C12.3731 13.1227 11.8644 13.3334 11.334 13.3334H4.66732C4.13688 13.3334 3.62818 13.1227 3.2531 12.7476C2.87803 12.3725 2.66732 11.8638 2.66732 11.3334V4.66671C2.66732 4.13627 2.87803 3.62757 3.2531 3.25249C3.62818 2.87742 4.13688 2.66671 4.66732 2.66671H9.33398C9.51079 2.66671 9.68036 2.59647 9.80539 2.47145C9.93041 2.34642 10.0007 2.17685 10.0007 2.00004C10.0007 1.82323 9.93041 1.65366 9.80539 1.52864C9.68036 1.40361 9.51079 1.33337 9.33398 1.33337H4.66732C3.78359 1.33443 2.93636 1.68596 2.31146 2.31085C1.68657 2.93575 1.33504 3.78298 1.33398 4.66671V11.3334C1.33504 12.2171 1.68657 13.0643 2.31146 13.6892C2.93636 14.3141 3.78359 14.6656 4.66732 14.6667H11.334C12.2177 14.6656 13.0649 14.3141 13.6898 13.6892C14.3147 13.0643 14.6663 12.2171 14.6673 11.3334V6.66671C14.6673 6.4899 14.5971 6.32033 14.4721 6.1953C14.347 6.07028 14.1775 6.00004 14.0007 6.00004Z" fill="#A88D65"/>
</svg>