<svg width="24" height="20" viewBox="0 0 24 20" fill="none" xmlns="http://www.w3.org/2000/svg">
<path fill-rule="evenodd" clip-rule="evenodd" d="M2.24296 8.98682C8.34862 6.31603 12.4299 4.58978 14.4543 3.74295C20.2661 1.33272 21.4742 0.909302 22.2578 0.909302C22.421 0.909302 22.8128 0.941873 23.074 1.1373C23.2699 1.30015 23.3352 1.52814 23.3679 1.691C23.4005 1.85385 23.4332 2.21213 23.4005 2.50526C23.074 5.79489 21.7354 13.8398 21.017 17.5203C20.7232 19.0837 20.1355 19.6048 19.5804 19.67C18.3723 19.7677 17.4255 18.8557 16.2501 18.1066C14.4216 16.9015 13.3768 16.1524 11.581 14.9798C9.52404 13.6118 10.8627 12.8627 12.0381 11.6576C12.332 11.3319 17.7193 6.47888 17.8173 6.02289C17.8173 5.95775 17.8499 5.76232 17.7193 5.66461C17.5887 5.5669 17.4255 5.59947 17.2949 5.63204C17.099 5.66461 14.1604 7.61885 8.44657 11.4622C7.59766 12.0485 6.8467 12.309 6.16103 12.309C5.41007 12.309 3.97345 11.8856 2.89598 11.5273C1.58995 11.1039 0.545135 10.8759 0.643087 10.1594C0.741039 9.76851 1.26345 9.37766 2.24296 8.98682Z" fill="#4E473F"/>
</svg>
