<svg width="223" height="122" viewBox="0 0 223 122" fill="none" xmlns="http://www.w3.org/2000/svg">
<g id="corner">
<path d="M0.841795 20.3029L21.5704 20.3029L21.5704 -0.0086679L0.841794 -0.00866699L0.841795 20.3029ZM19.2529 2.26218L19.2529 18.0825L3.15928 18.0825L3.15928 2.31264L19.2529 2.26218Z" fill="#FFDFAC"/>
<path d="M5.91451 4.96204L5.91451 15.3323L16.4977 15.3323L16.4977 4.96204L5.91451 4.96204ZM14.1802 7.2329L14.1802 13.0362L8.23199 13.0362L8.23199 7.2329L14.1802 7.2329Z" fill="#FFDFAC"/>
<path d="M16.6136 39.6937L16.6136 27.0526L5.92739 27.0526L5.92739 35.0385L12.4807 35.0385L12.4807 32.7676L8.24487 32.7676L8.24487 29.3361L14.2961 29.3361L14.2961 37.4229L3.15928 37.4229L3.15928 24.6304L19.2529 24.6304L19.2529 42.6332L0.841796 42.6332L0.841797 121.659L3.15928 44.9041L21.5704 44.9041L21.5704 22.3595L0.841795 22.3595L0.841796 39.6937L16.6136 39.6937Z" fill="#FFDFAC"/>
<path d="M46.6764 20.3029L46.6764 2.26217L222.055 -0.00866903L44.359 -0.00866889L44.359 18.032L25.9736 18.032L25.9736 2.26218L39.0416 2.26217L39.0416 13.1749L30.7759 13.1749L30.7759 7.24545L34.2908 7.24545L34.2908 11.3961L36.5954 11.3961L36.5954 4.97459L28.4584 4.97459L28.4584 15.4458L41.3591 15.4458L41.3591 -0.00866876L23.669 -0.00866799L23.669 20.3029L46.6764 20.3029Z" fill="#FFDFAC"/>
</g>
</svg>
