<svg xmlns="http://www.w3.org/2000/svg" width="19" height="18" viewBox="0 0 19 18" fill="none">
<path d="M7.67243 8.35968C7.51849 8.21479 7.31699 8.1421 7.11523 8.1421C6.91318 8.1421 6.71195 8.21479 6.55801 8.35943C6.2501 8.6487 6.2501 9.11846 6.55801 9.40798L8.91113 11.6225C9.06507 11.7674 9.26631 11.8394 9.46807 11.8394H9.47991C9.68115 11.8394 9.88291 11.7674 10.0368 11.6225L12.39 9.40798C12.6979 9.11846 12.6979 8.6487 12.39 8.35943C12.236 8.21454 12.0342 8.14185 11.8327 8.14185C11.6312 8.14185 11.4295 8.21454 11.2756 8.35943L10.2355 9.33801V1.74172C10.2355 1.33229 9.88265 1 9.44733 1C9.01201 1 8.65918 1.33229 8.65918 1.74172V9.28807L7.67243 8.35968Z" fill="#EF232C"/>
<path d="M7.13597 5.04171H4.47969C2.80882 5.04171 1.50026 6.00373 1.5 7.23228V13.8102C1.5 15.038 2.80908 16 4.47917 16H14.5208C16.1914 16 17.5 15.0385 17.5 13.8102V7.23228C17.5 6.00422 16.1914 5.0422 14.5208 5.0422H11.8648V6.52565H14.5208C15.3108 6.52565 15.9237 6.90542 15.9237 7.23228V13.8099C15.9237 14.1365 15.3108 14.5165 14.5208 14.5165H4.47969C3.68945 14.5165 3.07653 14.1365 3.07653 13.8099V7.23153C3.07653 6.90468 3.68945 6.52516 4.47969 6.52516H7.13597V5.04171Z" fill="#EF232C"/>
</svg>