<svg width="24" height="25" viewBox="0 0 24 25" fill="none" xmlns="http://www.w3.org/2000/svg">
<g clip-path="url(#clip0_2442_4178)">
<mask id="mask0_2442_4178" style="mask-type:luminance" maskUnits="userSpaceOnUse" x="0" y="0" width="142" height="25">
<path d="M0 0.293213H141.176V24.2932H0V0.293213Z" fill="white"/>
</mask>
<g mask="url(#mask0_2442_4178)">
<path d="M18.7229 16.3028L16.48 19.054C16.4314 19.1138 16.3727 19.1614 16.3074 19.1941C16.242 19.2267 16.1715 19.2436 16.1002 19.2437H5.46764C5.41692 19.2436 5.36732 19.2267 5.3249 19.1949C5.28248 19.1631 5.24908 19.1179 5.2288 19.0647C5.20851 19.0115 5.20222 18.9527 5.2107 18.8955C5.21917 18.8384 5.24204 18.7852 5.2765 18.7427L7.51694 15.9915C7.56545 15.9317 7.62421 15.884 7.68954 15.8514C7.75487 15.8187 7.82538 15.8019 7.89668 15.8018H18.5293C18.5804 15.8006 18.6308 15.8167 18.674 15.8481C18.7171 15.8796 18.7512 15.9249 18.7719 15.9785C18.7926 16.0321 18.799 16.0914 18.7903 16.1491C18.7816 16.2068 18.7581 16.2603 18.7229 16.3028ZM16.48 10.7613C16.4313 10.7018 16.3725 10.6543 16.3072 10.6217C16.2419 10.5891 16.1715 10.572 16.1002 10.5716H5.46764C5.41692 10.5716 5.36732 10.5886 5.3249 10.6203C5.28248 10.6521 5.24908 10.6974 5.2288 10.7506C5.20851 10.8037 5.20222 10.8625 5.2107 10.9197C5.21917 10.9769 5.24204 11.03 5.2765 11.0726L7.51694 13.8252C7.56564 13.8847 7.62443 13.9322 7.68972 13.9648C7.75501 13.9975 7.82543 14.0145 7.89668 14.0149H18.5293C18.5799 14.0146 18.6293 13.9975 18.6715 13.9656C18.7138 13.9337 18.747 13.8884 18.7671 13.8353C18.7872 13.7822 18.7934 13.7235 18.7849 13.6665C18.7764 13.6094 18.7535 13.5564 18.7191 13.5139L16.48 10.7613ZM5.46764 8.78474H16.1002C16.1715 8.78467 16.242 8.76779 16.3074 8.73516C16.3727 8.70252 16.4315 8.65483 16.48 8.59505L18.7229 5.84385C18.7492 5.81205 18.769 5.774 18.781 5.73242C18.7929 5.69084 18.7967 5.64675 18.792 5.60332C18.7873 5.55988 18.7743 5.51816 18.7539 5.48114C18.7335 5.44412 18.7062 5.41272 18.6739 5.38917C18.6308 5.35775 18.5804 5.34162 18.5293 5.34284H7.89668C7.82538 5.34292 7.75487 5.35981 7.68954 5.39245C7.62421 5.42508 7.56545 5.47277 7.51694 5.53253L5.2765 8.28373C5.24204 8.32629 5.21917 8.37942 5.2107 8.43662C5.20222 8.49381 5.20851 8.5526 5.2288 8.60577C5.24908 8.65894 5.28248 8.70418 5.3249 8.73597C5.36732 8.76776 5.41692 8.78471 5.46764 8.78474Z" fill="#AE9955"/>
</g>
</g>
<defs>
<clipPath id="clip0_2442_4178">
<rect width="24" height="24" fill="white" transform="translate(0 0.293213)"/>
</clipPath>
</defs>
</svg>
