<svg width="24" height="24" viewBox="0 0 24 24" fill="none" xmlns="http://www.w3.org/2000/svg">
<path d="M11.9269 0.677669C8.83392 0.716955 6.33887 3.2365 6.33887 6.33859C6.33887 9.44068 8.87362 11.9998 12.0001 11.9998C15.1265 11.9998 17.6613 14.5346 17.6613 17.661C17.6613 20.7875 15.1665 23.2826 12.0733 23.3219C18.2931 23.2826 23.3226 18.2286 23.3226 11.9998C23.3226 5.77098 18.2931 0.716955 12.0733 0.677669C12.0488 0.677246 12.0246 0.677246 12.0001 0.677246C11.9756 0.677246 11.9514 0.677246 11.9269 0.677669ZM10.5848 6.33859C10.5848 5.55695 11.2184 4.92329 12.0001 4.92329C12.7817 4.92329 13.4154 5.55695 13.4154 6.33859C13.4154 7.12024 12.7817 7.75389 12.0001 7.75389C11.2184 7.75389 10.5848 7.12024 10.5848 6.33859Z" fill="white"/>
<path d="M11.9998 19.0762C12.7814 19.0762 13.4151 18.4426 13.4151 17.6609C13.4151 16.8793 12.7814 16.2456 11.9998 16.2456C11.2181 16.2456 10.5845 16.8793 10.5845 17.6609C10.5845 18.4426 11.2181 19.0762 11.9998 19.0762Z" fill="white"/>
<path d="M11.9998 7.7537C12.7814 7.7537 13.4151 7.12005 13.4151 6.3384C13.4151 5.55675 12.7814 4.9231 11.9998 4.9231C11.2181 4.9231 10.5845 5.55675 10.5845 6.3384C10.5845 7.12005 11.2181 7.7537 11.9998 7.7537Z" fill="black"/>
<path d="M23.0568 7.3287C22.4522 5.89974 21.5872 4.61652 20.4851 3.51495C19.3833 2.41295 18.1001 1.54781 16.6713 0.943159C15.1915 0.31739 13.6199 0 12 0C10.3801 0 8.8085 0.31739 7.3287 0.943159C5.89974 1.54781 4.61652 2.41281 3.51495 3.51495C2.41295 4.61666 1.54781 5.89988 0.943159 7.3287C0.31739 8.8085 0 10.3801 0 12C0 13.6199 0.31739 15.1915 0.943159 16.6713C1.54781 18.1003 2.41281 19.3835 3.51495 20.4851C4.61666 21.587 5.89988 22.4522 7.3287 23.0568C8.8085 23.6826 10.3801 24 12 24C13.6199 24 15.1915 23.6826 16.6713 23.0568C18.1003 22.4522 19.3835 21.5872 20.4851 20.4851C21.587 19.3833 22.4522 18.1001 23.0568 16.6713C23.6826 15.1915 24 13.6199 24 12C24 10.3801 23.6826 8.8085 23.0568 7.3287ZM10.5847 17.6612C10.5847 16.8796 11.2184 16.2459 12 16.2459C12.7816 16.2459 13.4153 16.8796 13.4153 17.6612C13.4153 18.4429 12.7816 19.0765 12 19.0765C11.2184 19.0765 10.5847 18.4429 10.5847 17.6612ZM12.2178 23.3183C15.244 23.204 17.6613 20.7153 17.6613 17.6612C17.6613 14.6071 15.127 12 12.0001 12C8.87327 12 6.33893 9.46566 6.33893 6.33879C6.33893 3.21192 8.75654 0.79601 11.7822 0.681671C11.7833 0.681249 11.784 0.681249 11.7851 0.681671C11.8565 0.680122 11.9282 0.679418 11.9999 0.679418C18.2522 0.679418 23.3204 5.74781 23.3204 12C23.3204 18.2522 18.3695 23.2026 12.2176 23.3183H12.2178Z" fill="black"/>
</svg>
