<svg width="181" height="181" viewBox="0 0 181 181" fill="none" xmlns="http://www.w3.org/2000/svg">
<g clip-path="url(#clip0_1582_63343)">
<path d="M90.6001 180.25C140.306 180.25 180.6 139.956 180.6 90.25C180.6 40.5444 140.306 0.25 90.6001 0.25C40.8945 0.25 0.600098 40.5444 0.600098 90.25C0.600098 139.956 40.8945 180.25 90.6001 180.25Z" fill="#BF9A35"/>
<path d="M94.8701 4.52002C117.702 4.49093 139.686 13.1707 156.34 28.79C148.101 19.9476 138.165 12.8553 127.125 7.9363C116.085 3.01726 104.167 0.37224 92.0828 0.159026C79.9985 -0.0541881 67.995 2.16877 56.7884 6.69529C45.5818 11.2218 35.4018 17.9592 26.8555 26.5054C18.3093 35.0517 11.5719 45.2317 7.04539 56.4383C2.51887 67.6449 0.29591 79.6484 0.509124 91.7327C0.722338 103.817 3.36736 115.735 8.28639 126.775C13.2054 137.815 20.2977 147.751 29.1401 155.99C17.1585 143.177 9.18274 127.141 6.19376 109.855C3.20478 92.5683 5.33284 74.7855 12.3163 58.6927C19.2997 42.5999 30.834 28.8988 45.5008 19.2743C60.1676 9.64982 77.3274 4.52151 94.8701 4.52002Z" fill="#997B2A"/>
<path d="M170.81 131.11L112.14 72.44L111.96 74.61L84.9601 47.61L62.5201 108.65L36.6001 123.52L93.2501 180.25C109.398 179.774 125.121 174.961 138.768 166.314C152.415 157.668 163.483 145.508 170.81 131.11Z" fill="#997B2A"/>
<path d="M36.5601 123.52H150.31L112.14 72.4401L79.3201 109.57L102.21 74.4401L84.9301 47.5801L65.5001 88.3901H56.1301L36.5601 123.52Z" fill="#EDE8D5"/>
</g>
<defs>
<clipPath id="clip0_1582_63343">
<rect width="180" height="180" fill="white" transform="translate(0.600098 0.25)"/>
</clipPath>
</defs>
</svg>
