<svg width="20" height="20" viewBox="0 0 20 20" fill="none" xmlns="http://www.w3.org/2000/svg">
<path d="M17.7556 9.99985C17.7535 8.37092 17.2392 6.7839 16.2856 5.46334C15.3319 4.14278 13.9871 3.15556 12.4415 2.64136C13.6337 3.35525 14.3578 4.43989 14.4058 5.71938C14.4697 7.43214 13.1888 9.45897 10.1894 10.1743C10.1668 10.1907 10.1411 10.2021 10.1138 10.2078C7.2525 10.8388 6.02976 12.7013 6.08791 14.2658C6.15479 16.0396 7.71921 17.4063 10.076 17.7553C12.1192 17.7338 14.0715 16.9075 15.5093 15.4555C16.947 14.0036 17.7542 12.0432 17.7556 9.99985ZM11.4921 14.0942C11.4921 14.3754 11.4087 14.6503 11.2525 14.8842C11.0962 15.118 10.8742 15.3003 10.6143 15.4079C10.3545 15.5156 10.0686 15.5437 9.79279 15.4888C9.51696 15.434 9.2636 15.2985 9.06474 15.0997C8.86587 14.9008 8.73045 14.6474 8.67558 14.3716C8.62072 14.0958 8.64887 13.8099 8.7565 13.55C8.86412 13.2902 9.04637 13.0681 9.28021 12.9119C9.51404 12.7556 9.78896 12.6722 10.0702 12.6722C10.4472 12.6726 10.8086 12.8225 11.0752 13.0891C11.3418 13.3557 11.4917 13.7172 11.4921 14.0942Z" fill="#66605B"/>
<path d="M10.0704 4.90967C10.2677 4.90967 10.4606 4.96819 10.6247 5.07785C10.7887 5.18752 10.9165 5.34338 10.992 5.52572C11.0674 5.70806 11.0871 5.90869 11.0485 6.10221C11.0099 6.29573 10.9148 6.47344 10.7751 6.61287C10.6355 6.7523 10.4576 6.84718 10.2641 6.88551C10.0705 6.92383 9.86992 6.90388 9.68769 6.82816C9.50547 6.75245 9.3498 6.62438 9.24038 6.46016C9.13096 6.29595 9.07271 6.10296 9.073 5.90563C9.073 5.77471 9.09881 5.64509 9.14895 5.52416C9.19909 5.40323 9.27259 5.29335 9.36522 5.20085C9.45786 5.10835 9.56781 5.03503 9.68881 4.98506C9.80981 4.9351 9.93947 4.90948 10.0704 4.90967Z" fill="#66605B"/>
<path d="M10.0704 15.0915C9.87304 15.0918 9.68007 15.0335 9.51586 14.9241C9.35165 14.8147 9.22359 14.659 9.14787 14.4768C9.07216 14.2946 9.0522 14.094 9.09052 13.9004C9.12884 13.7068 9.22372 13.529 9.36315 13.3893C9.50258 13.2497 9.68029 13.1546 9.8738 13.116C10.0673 13.0773 10.2679 13.097 10.4503 13.1725C10.6326 13.2479 10.7885 13.3757 10.8981 13.5398C11.0078 13.7039 11.0663 13.8968 11.0663 14.0941C11.0663 14.3584 10.9614 14.6119 10.7747 14.7989C10.588 14.9859 10.3346 15.0911 10.0704 15.0915Z" fill="#66605B"/>
<path d="M7.72209 17.4123C6.47608 16.6999 5.71422 15.5934 5.66479 14.282C5.60082 12.5677 6.88172 10.5409 9.88115 9.82558C9.90421 9.81011 9.9298 9.7988 9.95676 9.79214C12.8181 9.16112 14.0394 7.30005 13.9812 5.73413C13.9158 3.95739 12.347 2.59067 9.98584 2.24463C8.12993 2.24763 6.33666 2.91625 4.93178 4.12901C3.5269 5.34177 2.6036 7.01824 2.32961 8.85386C2.05562 10.6895 2.44911 12.5625 3.4386 14.1327C4.4281 15.7029 5.94795 16.866 7.72209 17.4109V17.4123ZM8.64823 5.90571C8.64823 5.62447 8.73163 5.34954 8.88787 5.1157C9.04412 4.88186 9.26619 4.6996 9.52601 4.59198C9.78584 4.48435 10.0717 4.4562 10.3476 4.51106C10.6234 4.56593 10.8768 4.70135 11.0756 4.90022C11.2745 5.09908 11.4099 5.35246 11.4648 5.6283C11.5196 5.90413 11.4915 6.19005 11.3839 6.44988C11.2762 6.70971 11.094 6.93178 10.8601 7.08803C10.6263 7.24427 10.3514 7.32768 10.0702 7.32768C9.69316 7.3273 9.33171 7.17736 9.06513 6.91077C8.79855 6.64418 8.64861 6.28272 8.64823 5.90571Z" fill="#66605B"/>
</svg>
