<svg width="181" height="181" viewBox="0 0 181 181" fill="none" xmlns="http://www.w3.org/2000/svg">
<g clip-path="url(#clip0_1582_63339)">
<path d="M90.6001 180.25C140.306 180.25 180.6 139.956 180.6 90.25C180.6 40.5444 140.306 0.25 90.6001 0.25C40.8945 0.25 0.600098 40.5444 0.600098 90.25C0.600098 139.956 40.8945 180.25 90.6001 180.25Z" fill="#C91B32"/>
<path d="M94.8701 4.52002C117.702 4.49093 139.686 13.1707 156.34 28.79C148.101 19.9476 138.165 12.8553 127.125 7.9363C116.085 3.01726 104.167 0.37224 92.0828 0.159026C79.9985 -0.0541881 67.995 2.16877 56.7884 6.69529C45.5818 11.2218 35.4018 17.9592 26.8555 26.5054C18.3093 35.0517 11.5719 45.2317 7.04539 56.4383C2.51887 67.6449 0.29591 79.6484 0.509124 91.7327C0.722338 103.817 3.36736 115.735 8.28639 126.775C13.2054 137.815 20.2977 147.751 29.1401 155.99C17.1585 143.177 9.18274 127.141 6.19376 109.855C3.20478 92.5683 5.33284 74.7855 12.3163 58.6927C19.2997 42.5999 30.834 28.8988 45.5008 19.2743C60.1676 9.64982 77.3274 4.52151 94.8701 4.52002Z" fill="#A31629"/>
<path d="M176.11 118.38L90.6003 32.9L95.8603 53.8L66.0103 135.93L108.54 178.46C124.097 175.284 138.538 168.055 150.403 157.505C162.268 146.955 171.136 133.458 176.11 118.38Z" fill="#A31629"/>
<path d="M123.29 97.64C123.84 100.115 123.81 102.684 123.203 105.146C122.596 107.608 121.429 109.896 119.792 111.833C118.156 113.769 116.094 115.301 113.767 116.31C111.441 117.318 108.913 117.775 106.381 117.646C103.849 117.516 101.381 116.804 99.1692 115.563C96.9577 114.323 95.0628 112.589 93.632 110.495C92.2013 108.402 91.2735 106.007 90.921 103.496C90.5686 100.985 90.8009 98.4263 91.6 96.02V95.96C92.6297 92.955 94.809 90.4809 97.66 89.08C102.085 86.8743 105.455 83.0042 107.031 78.318C108.608 73.6318 108.262 68.5118 106.07 64.08L90.6 32.9C90.0953 50.0702 83.4252 66.4847 71.81 79.14C66.43 84.99 61.21 92.36 58.35 100.88C56.5407 106.271 56.0752 112.022 56.9941 117.634C57.913 123.245 60.1883 128.548 63.6225 133.08C67.0567 137.612 71.5457 141.237 76.6995 143.64C81.8533 146.043 87.5159 147.151 93.1952 146.868C98.8746 146.584 104.399 144.918 109.288 142.014C114.177 139.11 118.283 135.057 121.249 130.205C124.215 125.353 125.951 119.851 126.307 114.176C126.662 108.5 125.627 102.824 123.29 97.64Z" fill="#EDE8D5"/>
</g>
<defs>
<clipPath id="clip0_1582_63339">
<rect width="180" height="180" fill="white" transform="translate(0.600098 0.25)"/>
</clipPath>
</defs>
</svg>
