<svg xmlns="http://www.w3.org/2000/svg" width="20" height="20" viewBox="0 0 20 20" fill="none">
<g clip-path="url(#clip0_99_31828)">
<circle cx="10" cy="10" r="10" fill="#FB2516"/>
<path d="M13.3611 8.57466C13.3286 8.53394 13.2892 8.54194 13.2686 8.55025C13.2513 8.55726 13.2116 8.57967 13.2171 8.63583C13.2237 8.70327 13.2274 8.77203 13.2281 8.84022C13.231 9.12311 13.1176 9.40025 12.9168 9.60058C12.7173 9.79963 12.4549 9.90687 12.1755 9.90376C11.7938 9.89889 11.4773 9.69982 11.26 9.32808C11.0804 9.02069 11.1594 8.62423 11.2429 8.20447C11.2918 7.95877 11.3424 7.7047 11.3424 7.46289C11.3424 5.58006 10.0767 4.49381 9.32217 4.01388C9.30656 4.00397 9.29171 4.00049 9.27855 4.00049C9.25716 4.00049 9.24021 4.00972 9.23185 4.01536C9.21566 4.02633 9.18974 4.05133 9.19807 4.09558C9.48647 5.62705 8.62628 6.54813 7.71557 7.52329C6.77686 8.52845 5.71289 9.66774 5.71289 11.7225C5.71289 14.1099 7.65522 16.0523 10.0427 16.0523C12.0084 16.0523 13.7416 14.6818 14.2574 12.7194C14.6091 11.3814 14.2405 9.67706 13.3611 8.57466ZM10.1507 15.1281C9.55287 15.1553 8.98432 14.9409 8.55006 14.5257C8.12046 14.1149 7.87406 13.5416 7.87406 12.9528C7.87406 11.8479 8.29653 11.0368 9.43282 9.95992C9.45142 9.94229 9.47046 9.93671 9.48706 9.93671C9.5021 9.93671 9.51514 9.9413 9.52411 9.94561C9.54301 9.95472 9.57408 9.97727 9.56989 10.026C9.52926 10.4988 9.52997 10.8912 9.57196 11.1924C9.6793 11.9618 10.2425 12.4787 10.9735 12.4787C11.3319 12.4787 11.6733 12.3438 11.9348 12.0989C11.9651 12.0705 11.999 12.0741 12.012 12.0769C12.0292 12.0806 12.0522 12.0911 12.0643 12.1202C12.1727 12.382 12.2281 12.6599 12.229 12.9461C12.2324 14.0977 11.3001 15.0766 10.1507 15.1281Z" fill="#FAF5F0"/>
</g>
<defs>
<clipPath id="clip0_99_31828">
<rect width="20" height="20" fill="white"/>
</clipPath>
</defs>
</svg>