<svg width="181" height="181" viewBox="0 0 181 181" fill="none" xmlns="http://www.w3.org/2000/svg">
<g clip-path="url(#clip0_1582_63340)">
<path d="M90.6001 180.25C140.306 180.25 180.6 139.956 180.6 90.25C180.6 40.5444 140.306 0.25 90.6001 0.25C40.8945 0.25 0.600098 40.5444 0.600098 90.25C0.600098 139.956 40.8945 180.25 90.6001 180.25Z" fill="#FCF593"/>
<path d="M94.8701 4.52002C117.702 4.49093 139.686 13.1707 156.34 28.79C148.101 19.9476 138.165 12.8553 127.125 7.9363C116.085 3.01726 104.167 0.37224 92.0828 0.159026C79.9985 -0.0541881 67.995 2.16877 56.7884 6.69529C45.5818 11.2218 35.4018 17.9592 26.8555 26.5054C18.3093 35.0517 11.5719 45.2317 7.04539 56.4383C2.51887 67.6449 0.29591 79.6484 0.509124 91.7327C0.722338 103.817 3.36736 115.735 8.28639 126.775C13.2054 137.815 20.2977 147.751 29.1401 155.99C17.1585 143.177 9.18274 127.141 6.19376 109.855C3.20478 92.5683 5.33284 74.7855 12.3163 58.6927C19.2997 42.5999 30.834 28.8988 45.5008 19.2743C60.1676 9.64982 77.3274 4.52151 94.8701 4.52002Z" fill="#AE9955"/>
<path d="M178.46 109.83L124.74 56.11L94.3004 42.11L61.6004 51.67L43.8604 78.12L44.5004 104.62L56.5004 124.39L110.22 178.11C126.899 174.371 142.17 165.966 154.252 153.876C166.335 141.787 174.731 126.51 178.46 109.83Z" fill="#C6C070"/>
<path d="M124.74 56.11C117.988 49.3582 109.385 44.7602 100.02 42.8975C90.6545 41.0348 80.9471 41.9911 72.1252 45.6453C63.3034 49.2996 55.7632 55.4878 50.4583 63.4273C45.1533 71.3669 42.3218 80.7012 42.3218 90.25C42.3218 99.7988 45.1533 109.133 50.4583 117.073C55.7632 125.012 63.3034 131.2 72.1252 134.855C80.9471 138.509 90.6545 139.465 100.02 137.602C109.385 135.74 117.988 131.142 124.74 124.39C129.225 119.907 132.782 114.585 135.209 108.727C137.637 102.869 138.886 96.5908 138.886 90.25C138.886 83.9092 137.637 77.6305 135.209 71.7727C132.782 65.9148 129.225 60.5926 124.74 56.11ZM50.33 106.95C47.0145 98.978 46.1405 90.2012 47.8188 81.7319C49.4971 73.2627 53.6522 65.4824 59.7573 59.3773C65.8624 53.2721 73.6427 49.1171 82.1119 47.4388C90.5812 45.7605 99.3581 46.6345 107.33 49.95C93.26 46.19 76.33 50.87 63.79 63.38C51.25 75.89 46.6 92.88 50.33 106.95ZM76.23 104.62V75.88H104.97V104.62H76.23ZM73.9 130.52C87.97 134.28 104.9 129.6 117.44 117.09C129.98 104.58 134.6 87.62 130.87 73.55C134.186 81.522 135.06 90.2988 133.381 98.7681C131.703 107.237 127.548 115.018 121.443 121.123C115.338 127.228 107.557 131.383 99.0881 133.061C90.6188 134.74 81.842 133.866 73.87 130.55L73.9 130.52Z" fill="#EDE8D5"/>
</g>
<defs>
<clipPath id="clip0_1582_63340">
<rect width="180" height="180" fill="white" transform="translate(0.600098 0.25)"/>
</clipPath>
</defs>
</svg>
