<svg xmlns="http://www.w3.org/2000/svg" width="20" height="20" viewBox="0 0 20 20" fill="none">
<g clip-path="url(#clip0_99_31848)">
<circle cx="10" cy="10" r="10" fill="#AC7D1C"/>
<path d="M13.7501 6.3235C13.0182 5.5916 12.0857 5.09317 11.0704 4.89126C10.0552 4.68934 9.00295 4.793 8.04665 5.18912C7.09035 5.58525 6.27298 6.25605 5.69792 7.11671C5.12286 7.97737 4.81592 8.98922 4.81592 10.0243C4.81592 11.0594 5.12286 12.0713 5.69792 12.9319C6.27298 13.7926 7.09035 14.4634 8.04665 14.8595C9.00295 15.2556 10.0552 15.3593 11.0704 15.1574C12.0857 14.9555 13.0182 14.457 13.7501 13.7251C14.2363 13.2392 14.6219 12.6623 14.885 12.0273C15.1482 11.3923 15.2836 10.7117 15.2836 10.0243C15.2836 9.33697 15.1482 8.65635 14.885 8.02135C14.6219 7.38636 14.2363 6.80942 13.7501 6.3235ZM5.68402 11.8346C5.32461 10.9704 5.22987 10.019 5.4118 9.10095C5.59373 8.18287 6.04414 7.33948 6.70595 6.67768C7.36775 6.01588 8.21114 5.56547 9.12921 5.38354C10.0473 5.2016 10.9987 5.29635 11.8629 5.65575C10.3377 5.24817 8.50245 5.75548 7.1431 7.11158C5.78375 8.46768 5.27968 10.3094 5.68402 11.8346ZM8.49161 11.582V8.46659H11.6071V11.582H8.49161ZM8.23903 14.3896C9.76424 14.7972 11.5995 14.2899 12.9588 12.9338C14.3182 11.5777 14.819 9.73922 14.4146 8.21402C14.774 9.07819 14.8688 10.0296 14.6869 10.9477C14.5049 11.8658 14.0545 12.7092 13.3927 13.371C12.7309 14.0328 11.8875 14.4832 10.9694 14.6651C10.0514 14.847 9.09995 14.7523 8.23578 14.3929L8.23903 14.3896Z" fill="#EDE8D5"/>
</g>
<defs>
<clipPath id="clip0_99_31848">
<rect width="20" height="20" fill="white"/>
</clipPath>
</defs>
</svg>