<svg width="81" height="80" viewBox="0 0 81 80" fill="none" xmlns="http://www.w3.org/2000/svg">
<path fill-rule="evenodd" clip-rule="evenodd" d="M33.0423 12.4796C24.5559 21.0625 23.3705 22.6615 22.2196 27.0804C21.5096 29.8067 21.5096 34.1135 22.2196 36.8398C23.3709 41.2598 24.5551 42.8566 33.0568 51.4547L41.0393 59.5278L44.4326 56.1684C48.5141 52.1273 49.3136 50.7477 49.3122 47.7491C49.3104 44.3654 48.6203 43.2312 43.2352 37.7572C37.6384 32.0678 37.5028 31.7465 39.7056 29.385L41.0665 27.9259L46.837 33.6595C54.1077 40.8838 54.843 42.1764 54.843 47.7327C54.843 53.0715 54.1929 54.2209 47.1006 61.4205C44.0065 64.5616 41.3457 67.1313 41.1876 67.1313C41.0295 67.1313 36.6108 62.8484 31.3682 57.6133C21.0607 47.3216 20.3551 46.3948 18.7346 41.0281C17.8607 38.1339 17.6438 34.5105 18.1587 31.4162C18.5301 29.1863 18.0075 29.5739 17.1815 32.1414C14.8177 39.4882 16.031 47.3876 20.5505 54.073C21.5067 55.4874 30.5026 64.7458 38.6004 72.6495L41.2137 75.2L48.7603 67.6306C52.9111 63.4673 56.8316 59.262 57.4723 58.2859C61.5527 52.0711 61.7046 43.7693 57.8509 37.5958C57.2232 36.59 53.1932 32.2175 48.8959 27.8791L41.0821 19.991L37.8607 23.1655C34.079 26.8925 32.91 28.9713 32.9169 31.9601C32.9238 35.1277 33.8517 36.6241 39.0765 41.8943C42.6598 45.509 43.7835 46.8651 43.7835 47.575C43.7835 48.4191 41.7717 51.5399 41.2275 51.5399C41.1035 51.5399 38.3096 48.806 35.0185 45.4644C27.9263 38.2633 27.3048 37.172 27.3291 31.9601C27.3548 26.3849 28.3074 24.8845 37.5619 15.8433L41.2543 12.2356L49.9815 20.9196C54.7814 25.6956 59.4021 30.5822 60.2499 31.7788C63.7109 36.664 65.1545 42.7903 64.054 47.9213C63.5699 50.1791 63.8473 50.6458 64.6012 48.8415C66.1908 45.0372 66.6517 39.284 65.7212 34.8612C64.3216 28.2066 62.4226 25.5176 51.2771 14.4068C46.2583 9.40339 41.895 5.1096 41.5814 4.86521C41.0944 4.48594 39.8438 5.60127 33.0423 12.4796Z" fill="#2D8B6F"/>
</svg>
