<svg width="81" height="80" viewBox="0 0 81 80" fill="none" xmlns="http://www.w3.org/2000/svg">
<path fill-rule="evenodd" clip-rule="evenodd" d="M36.6877 8.16567C29.835 8.92368 23.0313 12.2027 18.154 17.0981C13.386 21.8838 10.5137 27.4541 9.29048 34.2864C8.79257 37.0683 8.77549 42.8612 9.25716 45.6382C11.5312 58.749 21.0263 68.7375 33.8373 71.4956C36.9449 72.1647 42.929 72.1687 46.101 71.504C58.9188 68.817 68.405 58.8146 70.653 45.6155C71.236 42.1924 71.1313 36.2747 70.4303 33.0369C68.3106 23.2432 62.2153 15.4072 53.3473 11.0748C48.3617 8.63922 42.1743 7.55885 36.6877 8.16567ZM35.1259 10.7716C30.9974 11.4947 26.0775 13.629 22.7197 16.1531C19.3541 18.6837 16.1932 22.4706 14.3248 26.2104C12.553 29.7573 11.7498 32.6877 11.1836 37.6703L11.0593 38.7636H20.2146H29.3696L29.6135 37.5893C29.7476 36.9436 30.2244 35.7055 30.6732 34.8382L31.4891 33.2614L29.8194 31.5829C28.901 30.6598 28.1497 29.8077 28.1497 29.6894C28.1497 29.3814 29.4704 28.1432 29.799 28.1432C29.9506 28.1432 30.8365 28.886 31.7673 29.7937L33.4599 31.4443L34.6101 30.7291C35.2425 30.3358 36.4368 29.8508 37.2637 29.6513L38.7672 29.2885L38.7687 19.8655L38.7702 10.4424L37.781 10.4611C37.2369 10.4713 36.0422 10.6111 35.1259 10.7716ZM41.1108 19.849L41.165 29.2556L42.3603 29.5272C43.5912 29.8066 44.885 30.383 45.9221 31.1138L46.5141 31.5313L48.2172 29.8372C49.1536 28.9055 50.0162 28.1432 50.1336 28.1432C50.2511 28.1432 50.7096 28.5143 51.1528 28.968L51.9581 29.7927L50.1886 31.6231L48.4192 33.4534L49.1197 34.5987C49.8423 35.7803 50.4318 37.4344 50.4318 38.2809V38.7636H59.6254H68.819L68.6934 37.1341C68.0078 28.245 62.9692 19.7601 55.5338 14.9736C51.482 12.3653 45.7211 10.4424 41.9592 10.4424H41.0567L41.1108 19.849ZM33.0103 14.9238C26.4898 16.8524 20.6477 21.7132 17.6319 27.7194C16.2769 30.4176 15.0553 34.6477 15.4824 35.162C15.6634 35.3803 16.5478 35.4284 19.5565 35.3842L23.3997 35.3276L23.8657 33.8699C25.2237 29.624 28.0735 26.1936 31.8998 24.1996C32.7596 23.7515 33.9076 23.273 34.4508 23.1363L35.4382 22.8877V18.8932C35.4382 16.0642 35.3654 14.8259 35.1884 14.6489C34.8814 14.342 35.0482 14.321 33.0103 14.9238ZM44.8613 14.5544C44.6647 14.6206 44.601 15.6504 44.601 18.7566V22.871L45.8419 23.2469C48.0816 23.925 49.9691 25.1326 51.9937 27.1825C54.0251 29.2396 55.2775 31.2847 56.1288 33.9359L56.5759 35.3276L60.1156 35.3869C62.0625 35.4196 63.8777 35.3915 64.1493 35.3245C64.6126 35.2103 64.6347 35.1375 64.5039 34.1512C64.1387 31.3978 62.0531 26.6513 60.0311 23.9716C57.6979 20.8796 53.8183 17.7532 50.3567 16.1758C48.3298 15.252 45.3769 14.3809 44.8613 14.5544ZM30.8569 18.2101C26.5814 20.0777 22.5475 23.7069 20.2789 27.7267C19.488 29.1279 18.1636 32.2156 18.1575 32.6725C18.155 32.8607 18.6488 32.9328 19.9436 32.9328C21.5719 32.9328 21.7431 32.8943 21.8447 32.5065C22.0775 31.6154 23.4213 29.0476 24.2866 27.8395C26.0918 25.3192 29.0347 22.8877 31.8525 21.5883L33.0434 21.0389L32.9762 19.2809C32.9312 18.1081 32.8271 17.5235 32.6638 17.5252C32.5289 17.5267 31.7159 17.8349 30.8569 18.2101ZM46.8917 19.2436V21.0166L48.4822 21.7719C52.3114 23.5905 55.3703 26.6694 57.2885 30.6356C57.7552 31.6006 58.1369 32.5123 58.1369 32.6614C58.1369 32.8643 58.61 32.9328 60.0111 32.9328C61.0419 32.9328 61.8853 32.888 61.8853 32.8334C61.8853 32.5611 60.8191 29.9553 60.2206 28.7652C58.7102 25.7613 56.0959 22.6761 53.2829 20.5781C51.9437 19.5793 48.4789 17.788 47.5118 17.5948L46.8917 17.4706V19.2436ZM35.3341 24.2881C33.2148 24.8631 33.1153 24.9333 33.1871 25.8L33.2517 26.5813L35.4903 26.6405L37.7289 26.6996V25.3389V23.9783L37.0521 23.992C36.6798 23.9995 35.9068 24.1328 35.3341 24.2881ZM42.3103 25.3031V26.6855H44.4725C46.825 26.6855 46.9741 26.6017 46.6891 25.4393C46.5385 24.8258 45.2211 24.2632 43.4484 24.0547L42.3103 23.921V25.3031ZM37.7673 31.9953C34.6804 32.8634 32.4945 35.338 31.8804 38.6597C31.4443 41.0193 32.3187 43.8189 34.0463 45.5936C38.069 49.7258 45.0475 48.5769 47.4831 43.3814C47.9729 42.3365 48.037 41.946 48.037 40.0087C48.037 37.9513 47.9952 37.7328 47.3504 36.4232C45.9694 33.6177 43.4809 31.9251 40.5092 31.7695C39.4449 31.7137 38.488 31.7924 37.7673 31.9953ZM25.2147 33.9213C24.9332 34.6618 24.4084 36.8878 24.4044 37.358C24.4017 37.6649 24.5985 37.7224 25.6508 37.7224H26.9002V35.5358V33.3493H26.1662C25.5573 33.3493 25.3953 33.4467 25.2147 33.9213ZM53.0572 33.6787C52.9876 33.8599 52.9308 34.8438 52.9308 35.8653V37.7224H54.1802H55.4297V36.9113C55.4297 36.4652 55.2385 35.4813 55.0049 34.7247C54.5917 33.3876 54.5605 33.3493 53.8818 33.3493C53.4372 33.3493 53.1375 33.469 53.0572 33.6787ZM17.2844 41.2136L11.1045 41.2688L11.2095 42.4631C11.8633 49.8905 14.7525 56.2091 19.8079 61.2673C24.5893 66.0513 30.7178 68.999 37.0346 69.5527L38.7702 69.705V60.1068V50.5086L37.5299 50.2524C36.8479 50.1115 35.625 49.6544 34.8127 49.2364L33.3356 48.4767L31.7273 50.0756C30.8425 50.9553 29.9804 51.6743 29.8111 51.6737C29.4521 51.6727 28.1497 50.5063 28.1497 50.1858C28.1497 50.0659 28.9439 49.2173 29.9146 48.3002L31.6794 46.6327L31.0824 45.765C30.3563 44.7096 29.9645 43.7969 29.6195 42.3558L29.3577 41.2625L28.3892 41.2398C25.414 41.1701 22.8426 41.164 17.2844 41.2136ZM51.2648 41.1886C50.5512 41.2815 50.5285 41.3142 50.1778 42.7596C49.9806 43.5716 49.5006 44.7617 49.1109 45.4043L48.4025 46.5728L50.1903 48.3914L51.978 50.21L51.2681 50.9424C50.8779 51.3451 50.4127 51.6743 50.2348 51.6737C50.0568 51.6733 49.5832 51.3697 49.1824 50.9992C48.7815 50.6287 48.0133 49.9182 47.4752 49.4201L46.4968 48.5144L44.8067 49.3603C43.8771 49.8255 42.6541 50.2676 42.0887 50.3426L41.0608 50.479V60.1322V69.7855L42.3624 69.6635C54.4539 68.5298 64.1968 60.42 67.6078 48.6498C68.2105 46.5696 68.7552 43.4866 68.7565 42.1476L68.7573 41.2625H63.7928C61.0623 41.2625 57.2904 41.2246 55.4109 41.1782C53.5313 41.1318 51.6657 41.1363 51.2648 41.1886ZM24.4961 43.2513C24.8771 45.7929 25.5285 46.876 26.4917 46.5703C26.8615 46.4528 26.9002 46.2444 26.9002 44.3723V42.3038H25.627H24.354L24.4961 43.2513ZM52.9308 44.2865C52.9308 46.1713 52.9551 46.2804 53.4251 46.4945C54.2204 46.857 54.6988 46.4437 55.0875 45.058C55.2756 44.3872 55.4297 43.493 55.4297 43.0709V42.3038H54.1802H52.9308V44.2865ZM17.0086 44.79L15.3427 44.9068L15.4137 45.6257C15.5459 46.9651 16.4959 49.8957 17.4303 51.8478C20.508 58.2765 26.2087 63.1201 33.0214 65.0942C34.4391 65.5051 34.9385 65.5744 35.159 65.3914C35.3895 65.2 35.4357 64.3483 35.3906 61.1095L35.3341 57.0662L33.8341 56.5614C29.2197 55.0079 25.5829 51.2324 23.9067 46.2552L23.4013 44.7544L21.038 44.7138C19.7381 44.6915 17.9249 44.7259 17.0086 44.79ZM59.2433 44.75L56.4969 44.8146L56.1521 46.0061C55.7225 47.4909 54.5757 49.802 53.6288 51.0921C51.8402 53.5285 48.6543 55.8205 45.8509 56.6876L44.7051 57.0418L44.6487 61.2352C44.6041 64.5467 44.6499 65.4507 44.8659 65.5336C45.3857 65.7331 48.8777 64.5705 51.1607 63.4378C57.1914 60.4458 61.6297 55.2763 63.7572 48.7664C64.5354 46.3849 64.7409 45.0247 64.3592 44.7829C64.2011 44.6827 63.6033 44.6199 63.0306 44.6432C62.4579 44.6663 60.7537 44.7144 59.2433 44.75ZM18.154 47.2839C18.154 47.7662 19.4953 50.909 20.3153 52.3478C22.5948 56.3478 26.0521 59.5222 30.3579 61.5689C31.1717 61.9556 32.0853 62.3344 32.3883 62.4104L32.9393 62.5486V60.6801V58.8117L32.003 58.4541C29.4752 57.4887 25.8272 54.4521 24.0969 51.8732C23.2574 50.6221 22.1941 48.5517 21.8289 47.4578C21.7256 47.1488 21.4374 47.0934 19.9305 47.0934C18.9534 47.0934 18.154 47.1792 18.154 47.2839ZM58.1369 47.3647C58.1369 47.9089 56.4134 51.1806 55.4232 52.5165C53.5836 54.9979 50.9758 57.1155 48.2217 58.3644L46.8917 58.9675V60.8377V62.7082L48.2973 62.1809C54.4185 59.8848 59.6537 54.293 61.5935 47.9784L61.8653 47.0934H60.0011C58.6081 47.0934 58.1369 47.1619 58.1369 47.3647ZM33.4079 53.2668C33.0632 53.4107 33.0732 54.6858 33.4212 54.9746C33.7719 55.2657 36.1665 55.8326 37.0621 55.8365L37.7487 55.8396L37.6869 54.5381L37.6248 53.2366L35.6465 53.1972C34.5584 53.1758 33.5511 53.207 33.4079 53.2668ZM42.4059 53.3145C42.3534 53.3672 42.3103 53.9567 42.3103 54.625V55.8396L43.0912 55.8257C43.5208 55.818 44.4808 55.6506 45.2251 55.4536C46.4481 55.1299 46.5893 55.0364 46.6978 54.4783C46.9342 53.2635 46.6778 53.1123 44.4771 53.1685C43.3907 53.1962 42.4586 53.262 42.4059 53.3145Z" fill="#B26802"/>
</svg>
