<svg width="80" height="80" viewBox="0 0 80 80" fill="none" xmlns="http://www.w3.org/2000/svg">
<path fill-rule="evenodd" clip-rule="evenodd" d="M75.2108 40.414C70.6014 40.402 67.5481 38.8484 59.5563 32.4466C51.1555 25.7172 46.6921 23.3854 42.1642 23.3601C39.5169 23.3455 33.4989 25.0704 33.4989 25.8437C33.4989 26.0991 34.9451 26.6637 36.7128 27.0994C39.1417 27.6975 42.1011 29.6329 48.8227 35.0181C53.7159 38.9382 58.4745 42.4683 59.398 42.8622C62.0537 43.9958 69.6026 43.7075 73.2886 42.3317C76.7755 41.0298 77.3875 40.4197 75.2108 40.414ZM61.3632 45.8004C59.3587 45.5532 57.0267 45.06 56.1809 44.704C55.3352 44.348 50.6457 40.8306 45.7603 36.8877C36.5067 29.4199 32.2556 27.1791 27.2924 27.1538C24.2707 27.1386 17.3523 28.8704 17.3523 29.6424C17.3523 29.9105 18.9954 30.6427 21.0045 31.2699C23.7263 32.1203 27.1056 34.3776 34.2677 40.1301C39.5538 44.3752 44.986 48.3105 46.3392 48.8752C47.6932 49.4398 50.3613 49.902 52.2696 49.902C55.6335 49.902 63.8236 47.8249 64.6164 46.7703C64.8317 46.4839 63.3677 46.0476 61.3632 45.8004ZM49.3171 51.7988C47.3411 51.7988 44.6177 51.336 43.2637 50.7701C41.9104 50.2049 36.9973 46.5187 32.3455 42.5795C23.1012 34.7513 19.4229 32.8677 13.331 32.8443C9.87257 32.831 3.50313 34.406 3.52004 35.2704C3.52466 35.4929 5.51453 36.4388 7.94112 37.3721C11.2627 38.6486 14.8265 41.0937 22.35 47.2578C33.1513 56.1078 35.4495 57.2067 41.5429 56.4366C45.1321 55.9833 50.695 53.9935 52.0074 52.6929C52.7625 51.9443 52.3258 51.7988 49.3171 51.7988Z" fill="#2E90FA"/>
</svg>
