<svg width="81" height="80" viewBox="0 0 81 80" fill="none" xmlns="http://www.w3.org/2000/svg">
<path fill-rule="evenodd" clip-rule="evenodd" d="M43.6755 5.30795C43.2399 5.61898 42.7027 6.03395 42.4817 6.23005C42.2608 6.42615 41.7414 6.88011 41.3273 7.23868C40.3442 8.09073 38.4469 10.0914 37.5191 11.2546C34.3017 15.2882 32.8894 19.2195 33.2906 23.0252C33.5787 25.7572 34.1077 27.6557 35.1943 29.8582C36.2927 32.0849 37.3661 33.4292 40.5858 36.6118C44.3794 40.3614 45.1411 41.4229 45.5069 43.4707C45.646 44.25 45.6373 44.5119 45.4458 45.2881C45.1097 46.6501 44.9828 46.7033 44.2893 45.7718C43.3905 44.5648 40.1163 41.3818 38.2638 39.9141C33.767 36.3518 31.7072 33.4672 30.7479 29.3894C30.5474 28.5374 30.5075 25.12 30.6807 23.6397L30.797 22.6453L30.4094 22.9663C28.8297 24.2752 27.0236 27.1099 26.4025 29.2555C26.0136 30.5989 26.0423 33.28 26.4598 34.6101C27.4729 37.8377 29.2045 39.8695 35.3848 45.0827C40.3577 49.2773 42.2016 51.4295 44.0001 55.1388C44.4907 56.1505 44.9612 56.9794 45.0457 56.9806C45.3411 56.9848 47.7882 54.2561 48.6492 52.9623C49.5781 51.5664 50.4178 49.7754 50.869 48.2271C51.2977 46.7568 51.3641 43.7826 51.0047 42.1572C50.2892 38.922 49.0837 37.0214 45.498 33.4749C41.7449 29.7627 40.2793 27.6706 39.2579 24.5673C38.9265 23.5603 38.8828 23.2275 38.8793 21.6874C38.876 20.1418 38.9147 19.8373 39.2247 18.9779C39.4168 18.4453 39.7446 17.722 39.9532 17.3705L40.3326 16.7313L40.5012 18.0038C40.6813 19.3623 41.2461 21.1645 41.9058 22.4849C42.9433 24.5621 43.6919 25.4634 47.6962 29.4564C51.8045 33.5532 52.6054 34.5154 53.7869 36.7737C56.2154 41.4154 56.1219 47.356 53.5419 52.3615C52.1284 55.1037 50.2152 57.5745 48.0253 59.4857C46.8744 60.4901 46.5284 60.8673 46.7579 60.8673C46.7899 60.8673 47.2483 60.7763 47.7767 60.6651C52.7446 59.6198 57.1316 56.2146 59.5098 51.5579C62.8924 44.9348 62.015 38.185 56.8764 31.2967C56.0132 30.1398 53.8001 27.8529 50.2987 24.5003C47.691 22.0034 46.3888 19.9509 45.297 16.6169C44.3252 13.6489 43.9781 9.58854 44.4106 6.24345C44.5088 5.48477 44.5616 4.83659 44.5282 4.80324C44.4948 4.76989 44.1111 4.99706 43.6755 5.30795ZM22.6564 32.9056C21.8367 33.9897 20.9313 35.872 20.5782 37.2254C20.1631 38.8163 20.1891 41.0764 20.6425 42.8352C21.066 44.478 22.1528 46.7021 23.3666 48.4101C24.4559 49.943 26.9666 52.5011 28.8905 54.0383C29.6638 54.6562 30.3266 55.1948 30.3635 55.2354C30.4003 55.2759 31.033 55.8299 31.7694 56.4667C33.2222 57.7227 36.3784 60.903 37.6682 62.4103C41.4286 66.8053 43.2209 70.7086 43.0643 74.1619C43.0335 74.8429 43.0669 75.2003 43.1614 75.2C43.402 75.1995 43.8371 74.6405 44.2562 73.7933C47.308 67.6247 44.5543 59.5877 36.8432 52.158C36.0388 51.3828 34.1764 49.6988 32.7046 48.4156C26.2537 42.7911 24.4397 40.4929 23.6063 36.8893C23.3614 35.8303 23.2832 33.6113 23.4566 32.6377C23.5204 32.2788 23.5083 32.0684 23.4236 32.0684C23.3497 32.0684 23.0045 32.4452 22.6564 32.9056Z" fill="#EF232C"/>
</svg>
