<svg width="81" height="80" viewBox="0 0 81 80" fill="none" xmlns="http://www.w3.org/2000/svg">
<path d="M27.3158 22.4567L27.2464 25.2906L14.408 25.2906L14.408 34.8996L34.8569 34.8996L34.8569 14.8534L12.3933 14.8534L12.3933 11.9359L37.8366 11.9359V38.3419L11.8434 37.9291L12.1872 22.1818L27.3158 22.4567Z" fill="#FFD744"/>
<path d="M27.3465 52.5832L27.2761 55.457L14.2566 55.457L14.2566 65.2015L34.9939 65.2015V44.8727L12.2136 44.8727L12.2136 41.914L38.0157 41.914L38.0157 68.6923L11.6559 68.2737L12.0046 52.3043L27.3465 52.5832Z" fill="#FFD744"/>
<path d="M52.2576 58.0582L52.328 55.1844L65.3475 55.1844L65.3475 45.4398L44.6102 45.4398V65.7687L67.3906 65.7687V68.7273L41.5884 68.7273L41.5884 41.949L67.9482 42.3676L67.5995 58.337L52.2576 58.0582Z" fill="#FFD744"/>
<path d="M52.0802 27.5688L52.1506 24.695L65.17 24.695L65.17 14.9504L44.4327 14.9504V35.2793L67.2131 35.2793V38.238L41.411 38.238L41.411 11.4597L67.7707 11.8782L67.4221 27.8476L52.0802 27.5688Z" fill="#FFD744"/>
<path fill-rule="evenodd" clip-rule="evenodd" d="M39.6858 49.7415C45.1062 49.7415 49.5003 45.3474 49.5003 39.927C49.5003 34.5066 45.1062 30.1125 39.6858 30.1125C34.2654 30.1125 29.8713 34.5066 29.8713 39.927C29.8713 45.3474 34.2654 49.7415 39.6858 49.7415ZM39.6858 52.4206C46.5858 52.4206 52.1794 46.827 52.1794 39.927C52.1794 33.027 46.5858 27.4334 39.6858 27.4334C32.7858 27.4334 27.1922 33.027 27.1922 39.927C27.1922 46.827 32.7858 52.4206 39.6858 52.4206Z" fill="#FFD744"/>
</svg>
