<svg width="181" height="181" viewBox="0 0 181 181" fill="none" xmlns="http://www.w3.org/2000/svg">
<g clip-path="url(#clip0_1582_63341)">
<path d="M90.6001 180.25C140.306 180.25 180.6 139.956 180.6 90.25C180.6 40.5444 140.306 0.25 90.6001 0.25C40.8945 0.25 0.600098 40.5444 0.600098 90.25C0.600098 139.956 40.8945 180.25 90.6001 180.25Z" fill="#008CB3"/>
<path d="M94.8701 4.52002C117.702 4.49093 139.686 13.1707 156.34 28.79C148.101 19.9476 138.165 12.8553 127.125 7.9363C116.085 3.01726 104.167 0.37224 92.0828 0.159026C79.9985 -0.0541881 67.995 2.16877 56.7884 6.69529C45.5818 11.2218 35.4018 17.9592 26.8555 26.5054C18.3093 35.0517 11.5719 45.2317 7.04539 56.4383C2.51887 67.6449 0.29591 79.6484 0.509124 91.7327C0.722338 103.817 3.36736 115.735 8.28639 126.775C13.2054 137.815 20.2977 147.751 29.1401 155.99C17.1585 143.177 9.18274 127.141 6.19376 109.855C3.20478 92.5683 5.33284 74.7855 12.3163 58.6927C19.2997 42.5999 30.834 28.8988 45.5008 19.2743C60.1676 9.64982 77.3274 4.52151 94.8701 4.52002Z" fill="#006E8C"/>
<path d="M176.48 117.25L129.82 70.56L105.97 72.65L86.6001 53.25L69.0301 57.42V77.87L43.6001 91.31V120.78L102.31 179.49C119.316 177.253 135.33 170.208 148.468 159.183C161.607 148.157 171.326 133.609 176.48 117.25Z" fill="#006E8C"/>
<path d="M123.6 97.83C96.6601 97.83 92.4401 115.45 73.0301 114.97C52.7801 114.46 49.9601 98.61 56.6401 93.42C56.5258 94.4848 56.6526 95.5617 57.0109 96.5709C57.3692 97.5801 57.9499 98.4957 58.7101 99.25C60.6321 101.171 63.238 102.249 65.9551 102.249C68.6722 102.249 71.2781 101.171 73.2001 99.25C74.6817 97.7708 75.8266 95.9892 76.5566 94.0269C77.2866 92.0647 77.5846 89.968 77.4301 87.88C82.4788 89.6921 87.9387 90.031 93.1727 88.857C98.4068 87.6831 103.199 85.0448 106.99 81.25C120.07 68.17 131.99 75.63 136.37 82.12C136.37 82.12 131.8 66.04 120 66.04C102.16 66.04 99.3601 77.72 86.5001 77.4C73.0801 77.06 71.2201 66.56 75.6501 63.12C75.5711 63.8243 75.6524 64.5374 75.8879 65.2058C76.1234 65.8743 76.5071 66.4808 77.0101 66.98C78.2834 68.2526 80.0099 68.9675 81.8101 68.9675C83.6103 68.9675 85.3368 68.2526 86.6101 66.98C88.4291 65.1578 89.45 62.6877 89.4481 60.113C89.4462 57.5382 88.4218 55.0696 86.6001 53.25C85.3139 51.9635 83.7869 50.9429 82.1063 50.2466C80.4256 49.5503 78.6243 49.1919 76.8051 49.1919C74.9859 49.1919 73.1846 49.5503 71.5039 50.2466C69.8233 50.9429 68.2962 51.9635 67.0101 53.25C64.5137 55.753 62.7333 58.8789 61.854 62.3029C60.9747 65.7269 61.0286 69.3239 62.0101 72.72C58.6988 72.1353 55.2951 72.36 52.0895 73.3752C48.8838 74.3903 45.9712 76.1658 43.6001 78.55C40.8271 81.3228 38.6274 84.6147 37.1267 88.2376C35.6259 91.8605 34.8535 95.7436 34.8535 99.665C34.8535 103.586 35.6259 107.47 37.1267 111.092C38.6274 114.715 40.8271 118.007 43.6001 120.78C51.6021 128.781 62.4544 133.276 73.7701 133.276C85.0858 133.276 95.9381 128.781 103.94 120.78C123.68 101.04 141.61 112.3 148.28 122.09C148.31 122.09 141.41 97.83 123.6 97.83Z" fill="#EDE8D5"/>
</g>
<defs>
<clipPath id="clip0_1582_63341">
<rect width="180" height="180" fill="white" transform="translate(0.600098 0.25)"/>
</clipPath>
</defs>
</svg>
