<svg xmlns="http://www.w3.org/2000/svg" width="20" height="20" viewBox="0 0 20 20" fill="none">
<g clip-path="url(#clip0_99_31866)">
<circle cx="10" cy="10" r="10" fill="#303FB7"/>
<path d="M13.5777 10.8217C10.6574 10.8217 10.2 12.7318 8.0959 12.6797C5.90078 12.6245 5.59509 10.9063 6.31921 10.3437C6.30682 10.4591 6.32056 10.5759 6.3594 10.6852C6.39824 10.7946 6.4612 10.8939 6.5436 10.9757C6.75195 11.1839 7.03443 11.3008 7.32897 11.3008C7.6235 11.3008 7.90598 11.1839 8.11433 10.9757C8.27494 10.8153 8.39905 10.6222 8.47818 10.4095C8.55732 10.1968 8.58961 9.96949 8.57287 9.74315C9.12015 9.93958 9.71202 9.97631 10.2794 9.84906C10.8468 9.7218 11.3662 9.43581 11.7772 9.02445C13.1951 7.60657 14.4872 8.41524 14.962 9.11876C14.962 9.11876 14.4666 7.37567 13.1875 7.37567C11.2536 7.37567 10.9501 8.6418 9.55607 8.60711C8.10132 8.57025 7.8997 7.43204 8.37991 7.05914C8.37135 7.13549 8.38016 7.21279 8.40569 7.28525C8.43122 7.35771 8.47281 7.42345 8.52734 7.47757C8.66536 7.61552 8.85252 7.69302 9.04766 7.69302C9.24281 7.69302 9.42997 7.61552 9.56799 7.47757C9.76518 7.28004 9.87583 7.01228 9.87563 6.73317C9.87543 6.45407 9.76438 6.18647 9.56691 5.98922C9.42749 5.84976 9.26196 5.73913 9.07977 5.66365C8.89759 5.58817 8.70232 5.54932 8.50512 5.54932C8.30792 5.54932 8.11265 5.58817 7.93046 5.66365C7.74828 5.73913 7.58275 5.84976 7.44333 5.98922C7.17271 6.26055 6.97972 6.5994 6.8844 6.97057C6.78908 7.34173 6.79493 7.73165 6.90132 8.09979C6.54237 8.0364 6.17341 8.06077 5.82591 8.17081C5.47842 8.28086 5.16269 8.47331 4.90566 8.73177C4.60506 9.03234 4.36662 9.38918 4.20393 9.78191C4.04125 10.1746 3.95752 10.5956 3.95752 11.0207C3.95752 11.4458 4.04125 11.8667 4.20393 12.2594C4.36662 12.6521 4.60506 13.009 4.90566 13.3095C5.77308 14.1768 6.94949 14.6641 8.17612 14.6641C9.40275 14.6641 10.5792 14.1768 11.4466 13.3095C13.5864 11.1697 15.53 12.3903 16.2531 13.4516C16.2563 13.4516 15.5084 10.8217 13.5777 10.8217Z" fill="#EDE8D5"/>
</g>
<defs>
<clipPath id="clip0_99_31866">
<rect width="20" height="20" fill="white"/>
</clipPath>
</defs>
</svg>