<svg width="181" height="181" viewBox="0 0 181 181" fill="none" xmlns="http://www.w3.org/2000/svg">
<g clip-path="url(#clip0_1582_63342)">
<path d="M90.6001 180.25C140.306 180.25 180.6 139.956 180.6 90.25C180.6 40.5444 140.306 0.25 90.6001 0.25C40.8945 0.25 0.600098 40.5444 0.600098 90.25C0.600098 139.956 40.8945 180.25 90.6001 180.25Z" fill="#6DA62B"/>
<path d="M94.8701 4.52002C117.702 4.49093 139.686 13.1707 156.34 28.79C148.101 19.9476 138.165 12.8553 127.125 7.9363C116.085 3.01726 104.167 0.37224 92.0828 0.159026C79.9985 -0.0541881 67.995 2.16877 56.7884 6.69529C45.5818 11.2218 35.4018 17.9592 26.8555 26.5054C18.3093 35.0517 11.5719 45.2317 7.04539 56.4383C2.51887 67.6449 0.29591 79.6484 0.509124 91.7327C0.722338 103.817 3.36736 115.735 8.28639 126.775C13.2054 137.815 20.2977 147.751 29.1401 155.99C17.1585 143.177 9.18274 127.141 6.19376 109.855C3.20478 92.5683 5.33284 74.7855 12.3163 58.6927C19.2997 42.5999 30.834 28.8988 45.5008 19.2743C60.1676 9.64982 77.3274 4.52151 94.8701 4.52002Z" fill="#5A8A24"/>
<path d="M175.78 119.37L141.78 85.37H138.68L89.51 36.25V116.01L73.6 100.07L57.79 126.86L109.24 178.31C124.479 175.073 138.619 167.942 150.281 157.612C161.942 147.283 170.728 134.107 175.78 119.37Z" fill="#5A8A24"/>
<path d="M141.8 85.2501C131.004 85.2503 120.473 88.5914 111.651 94.815C102.83 101.038 96.1506 109.839 92.53 120.01V104.89C100.704 95.1365 104.929 82.6758 104.374 69.9623C103.818 57.2488 98.5229 45.2039 89.53 36.2001C80.535 45.2028 75.2379 57.2479 74.6826 69.9621C74.1274 82.6763 78.3541 95.1374 86.53 104.89V120.04C82.9115 109.856 76.2266 101.043 67.3948 94.8128C58.563 88.5829 48.018 85.2422 37.21 85.2501C37.2082 98.5957 42.3103 111.437 51.4708 121.142C60.6313 130.847 73.1565 136.682 86.48 137.45V148.45H92.53V137.45C105.853 136.682 118.379 130.847 127.539 121.142C136.7 111.437 141.802 98.5957 141.8 85.2501Z" fill="#EDE8D5"/>
</g>
<defs>
<clipPath id="clip0_1582_63342">
<rect width="180" height="180" fill="white" transform="translate(0.600098 0.25)"/>
</clipPath>
</defs>
</svg>
