<svg xmlns="http://www.w3.org/2000/svg" width="20" height="20" viewBox="0 0 20 20" fill="none">
<g clip-path="url(#clip0_99_31857)">
<circle cx="10" cy="10" r="10" fill="#01A850"/>
<path d="M15.7932 9.21386C14.623 9.21389 13.4814 9.57607 12.5251 10.2507C11.5688 10.9253 10.8448 11.8794 10.4523 12.9819V11.3429C11.3384 10.2856 11.7964 8.93481 11.7362 7.55665C11.676 6.17849 11.102 4.87282 10.1271 3.89679C9.15204 4.87269 8.57784 6.1784 8.51764 7.55663C8.45745 8.93487 8.91563 10.2857 9.80191 11.3429V12.9851C9.40966 11.8812 8.68501 10.9258 7.72764 10.2505C6.77026 9.57514 5.62717 9.21301 4.45557 9.21386C4.45538 10.6605 5.00845 12.0525 6.00146 13.1046C6.99446 14.1566 8.35221 14.7891 9.79649 14.8724V16.0648H10.4523V14.8724C11.8966 14.7891 13.2543 14.1566 14.2473 13.1046C15.2403 12.0525 15.7934 10.6605 15.7932 9.21386Z" fill="#EDE8D5"/>
</g>
<defs>
<clipPath id="clip0_99_31857">
<rect width="20" height="20" fill="white"/>
</clipPath>
</defs>
</svg>