<svg width="350" height="350" viewBox="0 0 350 350" fill="none" xmlns="http://www.w3.org/2000/svg">
<path fill-rule="evenodd" clip-rule="evenodd" d="M183.035 350L183.035 348.583L8.99347 348.583L8.99347 344.906L12.5907 344.906L12.5907 339.129L8.99347 339.129L8.99347 334.927L4.04713 334.927L4.04713 339.129L0.899475 339.129L0.899477 44.011L0.000123725 44.011L0.000121634 340.18L4.04713 340.18L4.04713 343.856L0.000121797 343.856L0.000122054 349.633L4.94649 349.633L4.94649 344.906L8.09412 344.906L8.09412 349.633L183.035 350ZM8.09412 343.856L4.94649 343.856L4.94649 340.18L8.09412 340.18L8.09412 343.856ZM8.99347 340.18L11.6915 340.18L11.6915 343.856L8.99347 343.856L8.99347 340.18ZM8.09412 339.129L4.94649 339.129L4.94649 335.978L8.09412 335.978L8.09412 339.129ZM4.04713 344.906L4.04713 348.583L0.899475 348.583L0.899475 344.906L4.04713 344.906Z" fill="#D4C79C"/>
<path fill-rule="evenodd" clip-rule="evenodd" d="M166.965 349.941L166.965 348.585L341.007 348.483L341.007 344.743L337.41 344.743L337.41 338.867L341.007 338.867L341.007 334.593L345.953 334.593L345.953 338.867L349.101 338.867L349.101 40.9145L350 40.9145L350 339.935L345.953 339.935L345.953 343.675L350 343.675L350 349.551L345.054 349.551L345.054 344.743L341.906 344.743L341.906 349.551L166.965 349.941ZM341.906 343.675L345.054 343.675L345.054 339.935L341.906 339.935L341.906 343.675ZM341.007 339.935L338.309 339.935L338.309 343.675L341.007 343.675L341.007 339.935ZM341.906 338.867L345.054 338.867L345.054 335.661L341.906 335.661L341.906 338.867ZM345.953 344.743L345.953 348.483L349.101 348.483L349.101 344.743L345.953 344.743Z" fill="#D4C79C"/>
<path fill-rule="evenodd" clip-rule="evenodd" d="M183.035 0.000244141L183.035 1.41744L8.99347 1.41744L8.99347 5.09399L12.5907 5.09399L12.5907 10.8714L8.99347 10.8714L8.99347 15.0732L4.04713 15.0732L4.04713 10.8714L0.899475 10.8714L0.899473 45.5361L0.000119812 50.7883L0.000121634 9.82098L4.04713 9.82098L4.04713 6.14443L0.000121797 6.14443L0.000122054 0.366992L4.94649 0.366993L4.94649 5.09399L8.09412 5.09399L8.09412 0.366993L183.035 0.000244141ZM8.09412 6.14443L4.94649 6.14443L4.94649 9.82098L8.09412 9.82098L8.09412 6.14443ZM8.99347 9.82098L11.6915 9.82098L11.6915 6.14443L8.99347 6.14443L8.99347 9.82098ZM8.09412 10.8714L4.94649 10.8714L4.94649 14.0228L8.09412 14.0228L8.09412 10.8714ZM4.04713 5.09399L4.04713 1.41744L0.899475 1.41744L0.899475 5.09399L4.04713 5.09399Z" fill="#D4C79C"/>
<path fill-rule="evenodd" clip-rule="evenodd" d="M166.965 0L166.965 1.51739L341.007 1.51739L341.007 5.25697L337.409 5.25697L337.409 11.1335L341.007 11.1335L341.007 15.4073L345.953 15.4073L345.953 11.1335L349.101 11.1335L349.101 46.3923L350 51.7346L350 10.065L345.953 10.065L345.953 6.32542L350 6.32542L350 0.448938L345.054 0.448939L345.054 5.25697L341.906 5.25697L341.906 0.448939L166.965 0ZM341.906 6.32542L345.054 6.32542L345.054 10.065L341.906 10.065L341.906 6.32542ZM341.007 10.065L338.309 10.065L338.309 6.32542L341.007 6.32542L341.007 10.065ZM341.906 11.1335L345.054 11.1335L345.054 14.3388L341.906 14.3388L341.906 11.1335ZM345.953 5.25697L345.953 1.51739L349.101 1.51739L349.101 5.25697L345.953 5.25697Z" fill="#D4C79C"/>
</svg>
