<svg width="49" height="49" viewBox="0 0 49 49" fill="none" xmlns="http://www.w3.org/2000/svg">
<path fill-rule="evenodd" clip-rule="evenodd" d="M48.5078 0.5L43.5078 1.5L10.5078 1.50001L10.5078 5.00001L14.5078 5.00001L14.5078 10.5L10.5078 10.5L10.5078 14.5L5.00781 14.5L5.00781 10.5L1.50781 10.5L1.50781 43.5L0.50781 48.5L0.507812 9.50001L5.00781 9.50001L5.00781 6.00001L0.507812 6.00001L0.507812 0.500008L6.00781 0.500008L6.00781 5.00001L9.50781 5.00001L9.50781 0.500008L48.5078 0.5ZM9.50781 6.00001L6.00781 6.00001L6.00781 9.50001L9.50781 9.50001L9.50781 6.00001ZM10.5078 9.50001L13.5078 9.50001L13.5078 6.00001L10.5078 6.00001L10.5078 9.50001ZM9.50781 10.5L6.00781 10.5L6.00781 13.5L9.50781 13.5L9.50781 10.5ZM5.00781 5.00001L5.00781 1.50001L1.50781 1.50001L1.50781 5.00001L5.00781 5.00001Z" fill="#FF0000"/>
</svg>
