<svg width="79" height="79" viewBox="0 0 79 79" fill="none" xmlns="http://www.w3.org/2000/svg">
<path fill-rule="evenodd" clip-rule="evenodd" d="M79 0L70.7708 1.64583L16.4583 1.64585L16.4583 7.40626L23.0417 7.40626L23.0417 16.4583L16.4583 16.4583L16.4583 23.0417L7.40625 23.0417L7.40625 16.4583L1.64583 16.4583L1.64583 70.7708L-5.36055e-06 79L-2.55482e-06 14.8125L7.40625 14.8125L7.40625 9.0521L-2.30303e-06 9.0521L-1.90735e-06 1.28934e-05L9.05208 1.32891e-05L9.05208 7.40626L14.8125 7.40626L14.8125 1.37371e-05L79 0ZM14.8125 9.0521L9.05208 9.0521L9.05208 14.8125L14.8125 14.8125L14.8125 9.0521ZM16.4583 14.8125L21.3958 14.8125L21.3958 9.0521L16.4583 9.0521L16.4583 14.8125ZM14.8125 16.4583L9.05208 16.4583L9.05208 21.3958L14.8125 21.3958L14.8125 16.4583ZM7.40625 7.40626L7.40625 1.64585L1.64583 1.64585L1.64583 7.40626L7.40625 7.40626Z" fill="#D4C79C"/>
</svg>
