<svg width="62" height="50" viewBox="0 0 62 50" fill="none" xmlns="http://www.w3.org/2000/svg">
<path d="M25.6439 1.973C28.5025 4.91324 28.4228 15.97 28.0256 21.1308C27.2907 22.3048 18.4468 24.0878 14.1167 24.8325L15.5451 25.9208C18.8099 25.9208 25.2257 24.6965 28.0256 24.0844V43.0608C26.2908 43.2649 0.733908 45.8717 0.835998 47.0967C0.91767 48.0768 2.84376 49.0705 3.79659 49.4448C30.9525 41.5839 60.0482 46.28 61.0691 44.1361C62.09 41.9922 54.6374 37.5003 51.6768 39.3379C49.88 41.543 37.7245 42.1624 31.8714 42.1964L32.4839 23.4118C37.4523 23.0375 47.4503 22.0572 47.6953 21.1308C48.0016 19.9728 41.672 16.5718 40.6511 17.6948C39.8344 18.5932 35.2063 19.6345 32.9943 20.0429C33.4027 15.2787 34.1785 5.42358 34.0151 4.11683C33.8109 2.48339 24.0103 -1.90648 25.6439 1.973Z" fill="#B26802"/>
</svg>
