<svg width="58" height="58" viewBox="0 0 58 58" fill="none" xmlns="http://www.w3.org/2000/svg">
<rect width="58" height="58" rx="29" fill="#EF9D23"/>
<path d="M44.8371 26.1134L39.4451 17.4502C39.2481 17.1339 38.9019 16.9415 38.5295 16.9415H18.4711C18.0987 16.9415 17.7526 17.1339 17.5555 17.4502L12.1635 26.1134C11.9047 26.5293 11.9582 27.0671 12.2944 27.4233L27.7156 43.7787C27.9194 43.9948 28.2033 44.1174 28.5003 44.1174C28.7972 44.1174 29.0812 43.9948 29.285 43.7784L44.7062 27.4233C45.042 27.0667 45.0959 26.5293 44.8371 26.1134ZM28.5003 41.4671L14.4336 26.548L19.0704 19.0983H37.9306L42.567 26.548L28.5003 41.4671Z" fill="white"/>
<path d="M43.9216 25.6047H13.0792V27.7615H43.9216V25.6047Z" fill="white"/>
<path d="M23.0781 26.58L24.741 18.2306L22.6255 17.8093L20.9001 26.4725C20.8595 26.6774 20.8789 26.8895 20.9565 27.0837L27.4989 43.4395L29.5015 42.6386L23.0781 26.58Z" fill="white"/>
<path d="M36.1693 26.386L34.3719 17.9744L32.2629 18.4251L33.9916 26.5143L27.5004 42.6365L29.5008 43.4417L36.1154 27.0143C36.1951 26.8148 36.2142 26.5959 36.1693 26.386Z" fill="white"/>
</svg>
