<svg width="46" height="46" viewBox="0 0 46 46" fill="none" xmlns="http://www.w3.org/2000/svg">
<rect width="46" height="46" rx="23" fill="#AA5200"/>
<path d="M36.78 29.5844L28.6992 21.5021L29.9246 20.2767C30.2033 20.3755 30.4923 20.433 30.7843 20.433C31.4449 20.433 32.1055 20.1808 32.6084 19.678L33.6509 18.6354C34.139 18.1473 34.4074 17.4985 34.4074 16.8099C34.4074 16.1212 34.1375 15.4724 33.6509 14.9873L27.3956 8.73049C26.4209 7.75872 24.7221 7.75429 23.746 8.73049L22.7034 9.77303C21.9779 10.4985 21.7847 11.5485 22.1047 12.4568L14.9602 19.6013C14.0533 19.2828 13.0019 19.476 12.2764 20.2L11.2339 21.2425C10.2282 22.2497 10.2282 23.885 11.2339 24.8922L17.4907 31.149C17.9788 31.6371 18.6261 31.9054 19.3148 31.9054C20.0034 31.9054 20.6522 31.6356 21.1388 31.149L22.1829 30.1064C22.9069 29.3809 23.1015 28.3295 22.7816 27.4212L24.007 26.1958L32.0878 34.2766C32.7337 34.9225 33.5845 35.2469 34.4339 35.2469C35.2833 35.2469 36.1341 34.9225 36.78 34.2766C38.0733 32.9834 38.0733 30.8776 36.78 29.5844ZM21.3998 25.6737L16.7076 20.9815L23.4849 14.2028L28.1772 18.895L21.3998 25.6723V25.6737ZM24.268 11.3361L25.3105 10.2936C25.4049 10.2007 25.514 10.1859 25.5715 10.1859C25.629 10.1859 25.7381 10.2007 25.8325 10.2936L32.0893 16.5518C32.1822 16.6432 32.1969 16.7538 32.1969 16.8099C32.1969 16.8674 32.1837 16.978 32.0893 17.0724L31.0467 18.1149C30.9022 18.2594 30.6692 18.2594 30.5247 18.1149L24.268 11.8581C24.1249 11.7136 24.1249 11.4806 24.268 11.3361ZM20.6183 28.5419L19.5743 29.5844C19.387 29.7717 19.2425 29.7717 19.0537 29.5844L12.797 23.3276C12.6539 23.1831 12.6539 22.9501 12.797 22.8056L13.8395 21.7631C13.9118 21.6908 14.0062 21.6554 14.1005 21.6554C14.1949 21.6554 14.2893 21.6908 14.3615 21.7631L20.6168 28.0184C20.7613 28.1629 20.7613 28.3974 20.6168 28.5404L20.6183 28.5419ZM35.2155 32.7121C34.7849 33.1426 34.083 33.1456 33.6509 32.7121L25.57 24.6312L27.1346 23.0666L35.2155 31.149C35.646 31.5796 35.646 32.2815 35.2155 32.7121Z" fill="white"/>
<path d="M23.3774 36.726H10.106C9.49547 36.726 9 36.2305 9 35.62C9 35.0095 9.49547 34.514 10.106 34.514H23.3774C23.9879 34.514 24.4834 35.0095 24.4834 35.62C24.4834 36.2305 23.9879 36.726 23.3774 36.726Z" fill="white"/>
</svg>
