<svg width="12" height="24" viewBox="0 0 12 24" fill="none" xmlns="http://www.w3.org/2000/svg">
<g id="50, candle, china, chinese">
<path id="Vector" d="M5.84085 8.02312C5.71154 8.02206 5.58782 7.97022 5.49639 7.87878C5.40495 7.78734 5.35311 7.66363 5.35205 7.53432L5.35205 4.23391C5.35205 4.10428 5.40355 3.97995 5.49521 3.88828C5.58688 3.79662 5.71121 3.74512 5.84085 3.74512C5.97048 3.74512 6.09481 3.79662 6.18648 3.88828C6.27814 3.97995 6.32964 4.10428 6.32964 4.23391L6.32964 7.53432C6.32197 7.66145 6.26801 7.78137 6.17795 7.87143C6.08789 7.96149 5.96798 8.01545 5.84085 8.02312Z" fill="white"/>
<path id="Vector_2" d="M10.1226 23.111H1.55861C1.40867 23.111 1.2602 23.0814 1.12173 23.0239C0.983256 22.9664 0.8575 22.8821 0.751665 22.7759C0.645831 22.6697 0.562001 22.5437 0.50499 22.405C0.44798 22.2663 0.418909 22.1177 0.419441 21.9678L0.419441 8.02288C0.421522 7.89389 0.473685 7.77077 0.564904 7.67955C0.656123 7.58833 0.779243 7.53616 0.90823 7.53408C1.02885 7.54118 1.14334 7.58966 1.23239 7.67134C1.32143 7.75302 1.37957 7.86291 1.39702 7.98248C1.43742 8.06327 1.72424 8.35009 2.66142 8.59651C3.71885 8.85438 4.80482 8.97655 5.89311 8.96008C6.98153 8.97923 8.06784 8.85703 9.12479 8.59651C10.066 8.35009 10.3367 8.06327 10.3892 7.98248C10.3912 7.92039 10.4057 7.85934 10.4318 7.80294C10.4578 7.74655 10.4949 7.69595 10.5409 7.65414C10.5868 7.61234 10.6407 7.58017 10.6993 7.55955C10.7579 7.53893 10.82 7.53026 10.882 7.53408C11.011 7.53616 11.1341 7.58833 11.2253 7.67955C11.3166 7.77077 11.3687 7.89389 11.3708 8.02288L11.3708 21.9678C11.3453 22.2807 11.2025 22.5724 10.9711 22.7844C10.7396 22.9964 10.4365 23.1131 10.1226 23.111ZM1.34047 9.16611L1.34047 21.9678C1.33874 21.9949 1.34275 22.0222 1.35224 22.0477C1.36172 22.0732 1.37647 22.0964 1.39552 22.1158C1.41457 22.1353 1.4375 22.1505 1.46281 22.1605C1.48813 22.1704 1.51526 22.175 1.54245 22.1738H10.1064C10.1336 22.175 10.1607 22.1704 10.1861 22.1605C10.2114 22.1505 10.2343 22.1353 10.2533 22.1158C10.2724 22.0964 10.2871 22.0732 10.2966 22.0477C10.3061 22.0222 10.3101 21.9949 10.3084 21.9678L10.3084 9.16611C9.16923 9.7357 7.16963 9.90132 5.82444 9.90132C4.47925 9.90132 2.4958 9.7357 1.34047 9.16611Z" fill="white"/>
<path id="Vector_3" d="M5.84059 9.90139C3.84098 9.90139 0.419434 9.49743 0.419434 8.02295C0.419434 6.54847 3.84098 6.10815 5.84059 6.10815C7.84019 6.10815 11.2617 6.51211 11.2617 7.98255C11.2617 9.45299 7.84019 9.90139 5.84059 9.90139ZM1.34046 8.02295C1.38086 8.10374 1.70807 8.39056 2.60486 8.59659C3.66229 8.85445 4.74825 8.97662 5.83655 8.96015C6.92496 8.97908 8.01123 8.85688 9.06823 8.59659C9.96503 8.35017 10.2801 8.10374 10.3326 8.02295C10.2922 7.94216 9.96503 7.65534 9.06823 7.45336C8.01136 7.19202 6.92512 7.06846 5.83655 7.08575C4.74786 7.06597 3.6613 7.18957 2.60486 7.45336C1.74443 7.65534 1.39702 7.90176 1.34046 8.02295Z" fill="white"/>
<path id="Vector_4" d="M5.84047 18.6272C5.78034 18.6291 5.72044 18.619 5.66425 18.5975C5.60807 18.576 5.55674 18.5436 5.51326 18.502L4.94367 17.9324H4.16807C4.03908 17.9303 3.91596 17.8781 3.82474 17.7869C3.73352 17.6957 3.68136 17.5726 3.67927 17.4436L3.67927 16.668L3.10969 16.0984C3.05797 16.0609 3.01585 16.0117 2.98681 15.9549C2.95777 15.898 2.94263 15.835 2.94263 15.7712C2.94263 15.7073 2.95777 15.6444 2.98681 15.5875C3.01585 15.5306 3.05797 15.4814 3.10969 15.444L3.67927 14.8744L3.67927 14.0988C3.68136 13.9698 3.73352 13.8466 3.82474 13.7554C3.91596 13.6642 4.03908 13.612 4.16807 13.61H4.94367L5.51326 13.0404C5.55071 12.9886 5.59989 12.9465 5.65677 12.9175C5.71365 12.8884 5.7766 12.8733 5.84047 12.8733C5.90433 12.8733 5.96729 12.8884 6.02417 12.9175C6.08104 12.9465 6.13022 12.9886 6.16767 13.0404L6.73726 13.61H7.51286C7.64185 13.612 7.76497 13.6642 7.85619 13.7554C7.94741 13.8466 7.99958 13.9698 8.00166 14.0988V14.8744L8.57124 15.444C8.62297 15.4814 8.66508 15.5306 8.69412 15.5875C8.72316 15.6444 8.73831 15.7073 8.73831 15.7712C8.73831 15.835 8.72316 15.898 8.69412 15.9549C8.66508 16.0117 8.62297 16.0609 8.57124 16.0984L8.00166 16.668V17.4436C7.99958 17.5726 7.94741 17.6957 7.85619 17.7869C7.76497 17.8781 7.64185 17.9303 7.51286 17.9324H6.73726L6.18787 18.502C6.14203 18.5461 6.08739 18.5801 6.02753 18.6017C5.96767 18.6232 5.90392 18.6319 5.84047 18.6272ZM4.65687 17.0113H5.14565C5.2664 17.0073 5.38391 17.0508 5.47286 17.1325L5.84047 17.5001L6.20807 17.1325C6.29702 17.0508 6.41454 17.0073 6.53528 17.0113H7.02408V16.5225C7.01999 16.4018 7.06351 16.2843 7.14526 16.1953L7.51286 15.8277L7.14526 15.4601C7.0645 15.3722 7.02105 15.2563 7.02408 15.1369V14.6441H6.53528C6.41454 14.6482 6.29702 14.6047 6.20807 14.5229L5.84047 14.1553L5.47286 14.5229C5.38391 14.6047 5.2664 14.6482 5.14565 14.6441H4.65687V15.1369C4.65989 15.2563 4.61644 15.3722 4.53568 15.4601L4.16807 15.8277L4.53568 16.1953C4.61743 16.2843 4.66095 16.4018 4.65687 16.5225V17.0113Z" fill="white"/>
<path id="Vector_5" d="M10.8134 11.7759L2.78271 11.7759C2.65372 11.7738 2.53059 11.7217 2.43938 11.6304C2.34816 11.5392 2.29599 11.4161 2.29391 11.2871C2.29105 11.2222 2.30173 11.1573 2.32528 11.0967C2.34883 11.0361 2.38473 10.9811 2.4307 10.9351C2.47668 10.8891 2.53172 10.8532 2.59232 10.8297C2.65292 10.8061 2.71776 10.7954 2.78271 10.7983L10.8134 10.7983C10.9431 10.7993 11.0673 10.8511 11.1594 10.9424C11.2514 11.0337 11.3042 11.1574 11.3063 11.2871C11.296 11.414 11.2407 11.533 11.1503 11.6227C11.0599 11.7123 10.9404 11.7667 10.8134 11.7759Z" fill="white"/>
<path id="Vector_6" d="M8.89871 21.2368H0.86797C0.799774 21.243 0.731036 21.2349 0.666138 21.2131C0.601241 21.1912 0.541608 21.1561 0.491045 21.1099C0.440482 21.0637 0.400094 21.0075 0.372463 20.9449C0.344832 20.8822 0.330566 20.8145 0.330566 20.746C0.330566 20.6775 0.344832 20.6098 0.372463 20.5471C0.400094 20.4845 0.440482 20.4283 0.491045 20.3821C0.541608 20.3359 0.601241 20.3008 0.666138 20.2789C0.731036 20.2571 0.799774 20.249 0.86797 20.2552H8.89871C9.0277 20.2573 9.15082 20.3094 9.24204 20.4007C9.33326 20.4919 9.38542 20.615 9.3875 20.744C9.39033 20.8091 9.37965 20.8741 9.35614 20.9349C9.33263 20.9957 9.2968 21.051 9.25089 21.0973C9.20498 21.1436 9.14999 21.1799 9.08939 21.2039C9.02878 21.2279 8.96386 21.2391 8.89871 21.2368Z" fill="white"/>
<path id="Vector_7" d="M5.88113 2.80372C5.75214 2.80164 5.62902 2.74947 5.5378 2.65825C5.44658 2.56703 5.39441 2.4439 5.39233 2.31492V1.37771C5.39233 1.24807 5.44383 1.12375 5.5355 1.03208C5.62716 0.940414 5.75149 0.888916 5.88113 0.888916C6.01076 0.888916 6.13509 0.940414 6.22675 1.03208C6.31842 1.12375 6.36992 1.24807 6.36992 1.37771V2.31492C6.36886 2.44423 6.31703 2.56795 6.22559 2.65939C6.13415 2.75083 6.01044 2.80267 5.88113 2.80372Z" fill="white"/>
<path id="Vector_8" d="M8.57131 4.31465C8.4878 4.31487 8.40586 4.29196 8.33456 4.24847C8.26326 4.20497 8.20538 4.14259 8.16735 4.06823C8.10866 3.95874 8.09311 3.83124 8.12377 3.71085C8.15443 3.59046 8.22907 3.48593 8.33298 3.41785L9.1409 2.96944C9.24992 2.91036 9.37709 2.89419 9.49743 2.92409C9.61777 2.95398 9.72258 3.02781 9.79128 3.13104C9.84968 3.24087 9.86549 3.36839 9.83567 3.48915C9.80585 3.60992 9.73251 3.71543 9.6297 3.78546L8.82177 4.23386C8.78879 4.26529 8.74914 4.28888 8.70577 4.30287C8.66241 4.31686 8.61645 4.32089 8.57131 4.31465Z" fill="white"/>
<path id="Vector_9" d="M3.1907 4.31455C3.10372 4.3056 3.01968 4.27804 2.94428 4.23376L2.13636 3.78536C2.0812 3.75453 2.03291 3.71278 1.99444 3.66265C1.95597 3.61252 1.92814 3.55507 1.91263 3.49381C1.89713 3.43255 1.89429 3.36877 1.90428 3.30638C1.91427 3.24398 1.93688 3.18429 1.97074 3.13094C2.00148 3.07567 2.04328 3.02732 2.09352 2.98892C2.14377 2.95051 2.20138 2.92287 2.26278 2.90771C2.32417 2.89255 2.38804 2.8902 2.45038 2.90081C2.51273 2.91141 2.57222 2.93474 2.62515 2.96934L3.43307 3.41775C3.48734 3.44894 3.53474 3.49077 3.57244 3.54073C3.61013 3.5907 3.63735 3.64776 3.65244 3.70851C3.66753 3.76925 3.67019 3.83242 3.66026 3.89422C3.65033 3.95601 3.62802 4.01517 3.59466 4.06813C3.557 4.14278 3.49921 4.20542 3.42783 4.24897C3.35644 4.29251 3.27431 4.31523 3.1907 4.31455Z" fill="#FFF4DD"/>
<path id="Vector_10" d="M7.34769 3.33713C7.26159 3.32727 7.17879 3.29829 7.10532 3.25231C7.05019 3.22197 7.00191 3.18056 6.96354 3.13068C6.92518 3.08079 6.89754 3.02351 6.88237 2.96244C6.86719 2.90136 6.86481 2.8378 6.87537 2.77576C6.88593 2.71372 6.90921 2.65454 6.94373 2.60193L7.22651 2.11312C7.25342 2.05052 7.29344 1.99441 7.34387 1.94859C7.3943 1.90276 7.45398 1.86829 7.51886 1.84749C7.58375 1.82668 7.65233 1.82001 7.72001 1.82796C7.78769 1.8359 7.85287 1.85827 7.91117 1.89354C7.96947 1.92882 8.01953 1.97617 8.05798 2.03243C8.09643 2.08869 8.12237 2.15254 8.13405 2.21967C8.14573 2.2868 8.14288 2.35566 8.1257 2.4216C8.10851 2.48754 8.07739 2.54903 8.03443 2.60193L7.74762 3.09072C7.71026 3.16476 7.65311 3.22699 7.5825 3.27049C7.5119 3.31399 7.43062 3.33706 7.34769 3.33713Z" fill="#FFF4DD"/>
<path id="Vector_11" d="M4.41462 3.33704C4.33101 3.33772 4.24887 3.315 4.17748 3.27145C4.1061 3.22791 4.04832 3.16528 4.01066 3.09063L3.72384 2.60183C3.66491 2.49173 3.64922 2.36358 3.67986 2.24252C3.7105 2.12145 3.78526 2.0162 3.88947 1.9474C3.99952 1.89142 4.12617 1.87736 4.24582 1.90783C4.36547 1.9383 4.46997 2.01123 4.53984 2.11302L4.82666 2.60183C4.88535 2.71132 4.9009 2.83882 4.87024 2.95921C4.83959 3.0796 4.76495 3.18413 4.66103 3.25221C4.58637 3.29876 4.50212 3.32776 4.41462 3.33704Z" fill="#FFF4DD"/>
</g>
</svg>
