<svg width="12" height="24" viewBox="0 0 12 24" fill="none" xmlns="http://www.w3.org/2000/svg">
<g id="50, candle, china, chinese">
<path id="Vector" d="M6.39651 8.04631C6.2672 8.04526 6.14349 7.99341 6.05205 7.90197C5.96061 7.81053 5.90877 7.68683 5.90771 7.55752L5.90771 4.25711C5.90771 4.12747 5.95921 4.00314 6.05088 3.91148C6.14255 3.81981 6.26687 3.76831 6.39651 3.76831C6.52615 3.76831 6.65048 3.81981 6.74214 3.91148C6.83381 4.00314 6.88531 4.12747 6.88531 4.25711L6.88531 7.55752C6.87764 7.68465 6.82367 7.80457 6.73362 7.89463C6.64356 7.98469 6.52364 8.03864 6.39651 8.04631Z" fill="#FF6B00"/>
<path id="Vector_2" d="M10.6784 23.1344H2.11439C1.96445 23.1345 1.81599 23.1049 1.67752 23.0474C1.53904 22.9899 1.41329 22.9056 1.30745 22.7994C1.20162 22.6931 1.11779 22.5671 1.06078 22.4284C1.00377 22.2897 0.974695 22.1412 0.975227 21.9912L0.975227 8.04631C0.977308 7.91732 1.02947 7.79421 1.12069 7.70299C1.21191 7.61177 1.33503 7.5596 1.46402 7.55752C1.58464 7.56462 1.69913 7.61309 1.78817 7.69478C1.87721 7.77646 1.93536 7.88635 1.95281 8.00591C1.99321 8.08671 2.28002 8.37353 3.21721 8.61995C4.27464 8.87782 5.3606 8.99999 6.4489 8.98352C7.53732 9.00267 8.62362 8.88046 9.68058 8.61995C10.6218 8.37353 10.8925 8.08671 10.945 8.00591C10.947 7.94382 10.9615 7.88278 10.9875 7.82638C11.0136 7.76998 11.0507 7.71939 11.0966 7.67758C11.1426 7.63577 11.1965 7.60361 11.2551 7.58299C11.3137 7.56236 11.3758 7.5537 11.4378 7.55752C11.5668 7.5596 11.6899 7.61177 11.7811 7.70299C11.8724 7.79421 11.9245 7.91732 11.9266 8.04631L11.9266 21.9912C11.9011 22.3041 11.7583 22.5958 11.5268 22.8078C11.2953 23.0198 10.9923 23.1365 10.6784 23.1344ZM1.89626 9.18954L1.89626 21.9912C1.89453 22.0184 1.89854 22.0456 1.90802 22.0711C1.91751 22.0966 1.93226 22.1198 1.95131 22.1393C1.97036 22.1587 1.99328 22.1739 2.0186 22.1839C2.04391 22.1939 2.07105 22.1984 2.09824 22.1972H10.6622C10.6894 22.1984 10.7165 22.1939 10.7418 22.1839C10.7672 22.1739 10.7901 22.1587 10.8091 22.1393C10.8282 22.1198 10.8429 22.0966 10.8524 22.0711C10.8619 22.0456 10.8659 22.0184 10.8642 21.9912L10.8642 9.18954C9.72501 9.75914 7.72541 9.92475 6.38022 9.92475C5.03503 9.92475 3.05158 9.75914 1.89626 9.18954Z" fill="#FF6B00"/>
<path id="Vector_3" d="M6.39637 9.92483C4.39677 9.92483 0.97522 9.52086 0.97522 8.04639C0.97522 6.57191 4.39677 6.13159 6.39637 6.13159C8.39598 6.13159 11.8175 6.53555 11.8175 8.00599C11.8175 9.47642 8.39598 9.92483 6.39637 9.92483ZM1.89625 8.04639C1.93665 8.12718 2.26386 8.414 3.16065 8.62002C4.21808 8.87789 5.30404 9.00006 6.39233 8.98359C7.48075 9.00252 8.56702 8.88031 9.62402 8.62002C10.5208 8.37361 10.8359 8.12718 10.8884 8.04639C10.848 7.96559 10.5208 7.67878 9.62402 7.47679C8.56714 7.21546 7.48091 7.09189 6.39233 7.10918C5.30364 7.08941 4.21709 7.21301 3.16065 7.47679C2.30021 7.67878 1.9528 7.9252 1.89625 8.04639Z" fill="#FF6B00"/>
<path id="Vector_4" d="M6.39613 18.6504C6.336 18.6523 6.2761 18.6422 6.21992 18.6207C6.16373 18.5992 6.1124 18.5668 6.06892 18.5252L5.49934 17.9556H4.72373C4.59475 17.9535 4.47163 17.9013 4.38041 17.8101C4.28919 17.7189 4.23702 17.5958 4.23494 17.4668V16.6912L3.66536 16.1216C3.61363 16.0841 3.57152 16.0349 3.54247 15.9781C3.51343 15.9212 3.49829 15.8582 3.49829 15.7944C3.49829 15.7305 3.51343 15.6675 3.54247 15.6107C3.57152 15.5538 3.61363 15.5046 3.66536 15.4671L4.23494 14.8976V14.1219C4.23702 13.993 4.28919 13.8698 4.38041 13.7786C4.47163 13.6874 4.59475 13.6352 4.72373 13.6331H5.49934L6.06892 13.0636C6.10638 13.0118 6.15555 12.9697 6.21243 12.9407C6.26931 12.9116 6.33227 12.8965 6.39613 12.8965C6.45999 12.8965 6.52295 12.9116 6.57983 12.9407C6.63671 12.9697 6.68589 13.0118 6.72334 13.0636L7.29292 13.6331H8.06853C8.19752 13.6352 8.32063 13.6874 8.41185 13.7786C8.50307 13.8698 8.55524 13.993 8.55732 14.1219V14.8976L9.1269 15.4671C9.17863 15.5046 9.22075 15.5538 9.24979 15.6107C9.27883 15.6675 9.29397 15.7305 9.29397 15.7944C9.29397 15.8582 9.27883 15.9212 9.24979 15.9781C9.22075 16.0349 9.17863 16.0841 9.1269 16.1216L8.55732 16.6912V17.4668C8.55524 17.5958 8.50307 17.7189 8.41185 17.8101C8.32063 17.9013 8.19752 17.9535 8.06853 17.9556H7.29292L6.74354 18.5252C6.69769 18.5693 6.64306 18.6033 6.58319 18.6248C6.52333 18.6464 6.45959 18.6551 6.39613 18.6504ZM5.21253 17.0345H5.70132C5.82206 17.0304 5.93957 17.074 6.02853 17.1557L6.39613 17.5233L6.76374 17.1557C6.85269 17.074 6.9702 17.0304 7.09094 17.0345H7.57974V16.5457C7.57565 16.425 7.61917 16.3075 7.70092 16.2185L8.06853 15.8509L7.70092 15.4833C7.62016 15.3954 7.57671 15.2795 7.57974 15.1601V14.6673H7.09094C6.9702 14.6714 6.85269 14.6279 6.76374 14.5461L6.39613 14.1785L6.02853 14.5461C5.93957 14.6279 5.82206 14.6714 5.70132 14.6673H5.21253V15.1601C5.21555 15.2795 5.1721 15.3954 5.09134 15.4833L4.72373 15.8509L5.09134 16.2185C5.17309 16.3075 5.21662 16.425 5.21253 16.5457V17.0345Z" fill="#FF6B00"/>
<path id="Vector_5" d="M11.3691 11.7993L3.33837 11.7993C3.20938 11.7973 3.08626 11.7451 2.99504 11.6539C2.90382 11.5627 2.85166 11.4395 2.84958 11.3106C2.84671 11.2456 2.85739 11.1808 2.88094 11.1202C2.9045 11.0596 2.94039 11.0045 2.98637 10.9585C3.03234 10.9126 3.08738 10.8767 3.14798 10.8531C3.20858 10.8296 3.27342 10.8189 3.33837 10.8217L11.3691 10.8217C11.4988 10.8228 11.6229 10.8745 11.715 10.9658C11.8071 11.0572 11.8598 11.1809 11.8619 11.3106C11.8517 11.4374 11.7963 11.5565 11.7059 11.6461C11.6156 11.7358 11.4961 11.7901 11.3691 11.7993Z" fill="#FF6B00"/>
<path id="Vector_6" d="M9.45438 21.26H1.42363C1.35544 21.2662 1.2867 21.2581 1.2218 21.2363C1.1569 21.2144 1.09727 21.1793 1.04671 21.1331C0.996146 21.0869 0.955758 21.0307 0.928127 20.9681C0.900496 20.9054 0.88623 20.8377 0.88623 20.7692C0.88623 20.7007 0.900496 20.633 0.928127 20.5703C0.955758 20.5077 0.996146 20.4515 1.04671 20.4053C1.09727 20.3591 1.1569 20.324 1.2218 20.3021C1.2867 20.2803 1.35544 20.2722 1.42363 20.2784H9.45438C9.58336 20.2805 9.70648 20.3326 9.7977 20.4239C9.88892 20.5151 9.94108 20.6382 9.94316 20.7672C9.94599 20.8323 9.93531 20.8973 9.9118 20.9581C9.88829 21.0189 9.85246 21.0742 9.80655 21.1205C9.76065 21.1668 9.70566 21.2031 9.64505 21.2271C9.58444 21.2511 9.51953 21.2623 9.45438 21.26Z" fill="#FF6B00"/>
<path id="Vector_7" d="M6.43692 2.82716C6.30793 2.82508 6.18481 2.77291 6.09359 2.68169C6.00237 2.59047 5.9502 2.46734 5.94812 2.33835V1.40115C5.94812 1.27151 5.99962 1.14719 6.09128 1.05552C6.18295 0.963852 6.30728 0.912354 6.43692 0.912354C6.56655 0.912354 6.69087 0.963852 6.78254 1.05552C6.87421 1.14719 6.9257 1.27151 6.9257 1.40115V2.33835C6.92465 2.46766 6.87281 2.59138 6.78138 2.68282C6.68994 2.77426 6.56622 2.82611 6.43692 2.82716Z" fill="#FF6B00"/>
<path id="Vector_8" d="M9.12698 4.33809C9.04346 4.3383 8.96152 4.3154 8.89022 4.2719C8.81892 4.22841 8.76105 4.16602 8.72302 4.09167C8.66432 3.98218 8.64877 3.85468 8.67943 3.73429C8.71009 3.6139 8.78473 3.50937 8.88864 3.44129L9.69656 2.99288C9.80558 2.9338 9.93275 2.91762 10.0531 2.94752C10.1734 2.97742 10.2782 3.05124 10.3469 3.15447C10.4053 3.26431 10.4212 3.39183 10.3913 3.51259C10.3615 3.63336 10.2882 3.73887 10.1854 3.8089L9.37744 4.25729C9.34445 4.28873 9.3048 4.31232 9.26144 4.32631C9.21808 4.34029 9.17211 4.34433 9.12698 4.33809Z" fill="#FF6B00"/>
<path id="Vector_9" d="M3.74648 4.33799C3.6595 4.32903 3.57547 4.30147 3.50007 4.25719L2.69215 3.8088C2.63699 3.77797 2.5887 3.73621 2.55023 3.68608C2.51176 3.63595 2.48392 3.57851 2.46842 3.51725C2.45292 3.45599 2.45008 3.39221 2.46007 3.32981C2.47006 3.26742 2.49267 3.20773 2.52652 3.15437C2.55727 3.09911 2.59906 3.05076 2.64931 3.01235C2.69955 2.97395 2.75717 2.94631 2.81856 2.93115C2.87996 2.91599 2.94382 2.91364 3.00617 2.92425C3.06851 2.93485 3.128 2.95817 3.18094 2.99278L3.98886 3.44119C4.04312 3.47237 4.09053 3.5142 4.12822 3.56417C4.16592 3.61414 4.19313 3.6712 4.20823 3.73194C4.22332 3.79269 4.22598 3.85586 4.21605 3.91765C4.20612 3.97945 4.18381 4.03861 4.15045 4.09157C4.11278 4.16622 4.05499 4.22886 3.98361 4.27241C3.91223 4.31595 3.8301 4.33867 3.74648 4.33799Z" fill="#FF6634"/>
<path id="Vector_10" d="M7.90348 3.36033C7.81738 3.35046 7.73457 3.32148 7.66111 3.2755C7.60597 3.24516 7.5577 3.20375 7.51933 3.15387C7.48096 3.10399 7.45333 3.04671 7.43815 2.98563C7.42298 2.92455 7.42059 2.861 7.43116 2.79896C7.44172 2.73692 7.46499 2.67773 7.49952 2.62512L7.7823 2.13631C7.80921 2.07371 7.84923 2.0176 7.89966 1.97178C7.95009 1.92596 8.00976 1.89149 8.07465 1.87068C8.13953 1.84987 8.20812 1.84321 8.2758 1.85115C8.34347 1.8591 8.40866 1.88146 8.46696 1.91674C8.52526 1.95201 8.57532 1.99937 8.61376 2.05562C8.65221 2.11188 8.67815 2.17573 8.68983 2.24286C8.70152 2.31 8.69867 2.37886 8.68148 2.4448C8.6643 2.51074 8.63318 2.57223 8.59022 2.62512L8.3034 3.11391C8.26605 3.18795 8.20889 3.25018 8.13829 3.29368C8.06769 3.33719 7.98641 3.36025 7.90348 3.36033Z" fill="#FF6634"/>
<path id="Vector_11" d="M4.97028 3.36048C4.88667 3.36115 4.80453 3.33844 4.73315 3.29489C4.66177 3.25135 4.60398 3.18872 4.56632 3.11406L4.27951 2.62527C4.22057 2.51517 4.20489 2.38702 4.23553 2.26595C4.26617 2.14489 4.34092 2.03964 4.44513 1.97083C4.55519 1.91486 4.68183 1.9008 4.80148 1.93127C4.92113 1.96174 5.02563 2.03466 5.09551 2.13646L5.38232 2.62527C5.44102 2.73476 5.45657 2.86226 5.42591 2.98265C5.39525 3.10303 5.32061 3.20757 5.2167 3.27565C5.14203 3.3222 5.05778 3.3512 4.97028 3.36048Z" fill="#FF6634"/>
</g>
</svg>
