<svg width="23" height="46" viewBox="0 0 23 46" fill="none" xmlns="http://www.w3.org/2000/svg">
<g id="50, candle, china, chinese">
<path id="Vector" d="M11.1815 15.0459C10.9229 15.0438 10.6755 14.9401 10.4926 14.7572C10.3097 14.5743 10.2061 14.3269 10.2039 14.0683L10.2039 7.46749C10.2039 7.20821 10.3069 6.95957 10.4903 6.77623C10.6736 6.5929 10.9223 6.4899 11.1815 6.4899C11.4408 6.4899 11.6895 6.5929 11.8728 6.77623C12.0561 6.95957 12.1591 7.20821 12.1591 7.46749L12.1591 14.0683C12.1438 14.3226 12.0359 14.5624 11.8558 14.7425C11.6756 14.9226 11.4358 15.0306 11.1815 15.0459Z" fill="#EF232C"/>
<path id="Vector_2" d="M19.7453 45.2222H2.61732C2.31745 45.2222 2.02052 45.163 1.74357 45.048C1.46662 44.933 1.21511 44.7644 1.00344 44.552C0.791772 44.3396 0.624112 44.0875 0.510091 43.8101C0.39607 43.5327 0.337929 43.2356 0.338992 42.9357L0.338992 15.0459C0.343154 14.7879 0.44748 14.5417 0.629918 14.3593C0.812357 14.1768 1.0586 14.0725 1.31657 14.0683C1.55782 14.0825 1.7868 14.1795 1.96488 14.3428C2.14296 14.5062 2.25926 14.726 2.29416 14.9651C2.37495 15.1267 2.94858 15.7003 4.82296 16.1932C6.93782 16.7089 9.10974 16.9533 11.2863 16.9203C13.4632 16.9586 15.6358 16.7142 17.7497 16.1932C19.6322 15.7003 20.1735 15.1267 20.2785 14.9651C20.2826 14.8409 20.3115 14.7188 20.3636 14.606C20.4157 14.4932 20.4899 14.3921 20.5818 14.3084C20.6737 14.2248 20.7815 14.1605 20.8987 14.1193C21.0159 14.078 21.1401 14.0607 21.2642 14.0683C21.5221 14.0725 21.7684 14.1768 21.9508 14.3593C22.1332 14.5417 22.2376 14.7879 22.2417 15.0459L22.2417 42.9357C22.1908 43.5615 21.9052 44.1449 21.4422 44.5689C20.9792 44.9929 20.3731 45.2263 19.7453 45.2222ZM2.18105 17.3324L2.18105 42.9357C2.1776 42.99 2.18562 43.0445 2.20459 43.0955C2.22356 43.1465 2.25305 43.193 2.29115 43.2318C2.32926 43.2707 2.37511 43.3011 2.42574 43.3211C2.47637 43.341 2.53064 43.3501 2.58501 43.3478H19.7129C19.7673 43.3501 19.8216 43.341 19.8722 43.3211C19.9228 43.3011 19.9687 43.2707 20.0068 43.2318C20.0449 43.193 20.0744 43.1465 20.0934 43.0955C20.1123 43.0445 20.1204 42.99 20.1169 42.9357L20.1169 17.3324C17.8386 18.4715 13.8394 18.8028 11.149 18.8028C8.45861 18.8028 4.49171 18.4715 2.18105 17.3324Z" fill="#EF232C"/>
<path id="Vector_3" d="M11.1813 18.8028C7.18207 18.8028 0.338978 17.9949 0.338978 15.0459C0.338978 12.0969 7.18207 11.2163 11.1813 11.2163C15.1805 11.2163 22.0236 12.0242 22.0236 14.9651C22.0236 17.906 15.1805 18.8028 11.1813 18.8028ZM2.18104 15.0459C2.26183 15.2075 2.91625 15.7811 4.70984 16.1932C6.8247 16.7089 8.99662 16.9532 11.1732 16.9203C13.35 16.9582 15.5226 16.7138 17.6366 16.1932C19.4302 15.7003 20.0603 15.2075 20.1654 15.0459C20.0846 14.8843 19.4302 14.3107 17.6366 13.9067C15.5228 13.384 13.3504 13.1369 11.1732 13.1715C8.99583 13.1319 6.82271 13.3791 4.70984 13.9067C2.98896 14.3107 2.29415 14.8035 2.18104 15.0459Z" fill="#EF232C"/>
<path id="Vector_4" d="M11.1809 36.2541C11.0606 36.258 10.9408 36.2378 10.8285 36.1948C10.7161 36.1518 10.6134 36.0868 10.5265 36.0037L9.38729 34.8645H7.83609C7.57811 34.8603 7.33187 34.756 7.14943 34.5736C6.967 34.3911 6.86266 34.1449 6.8585 33.8869L6.8585 32.3357L5.71934 31.1965C5.61588 31.1216 5.53165 31.0232 5.47357 30.9095C5.41548 30.7957 5.3852 30.6698 5.3852 30.5421C5.3852 30.4143 5.41548 30.2884 5.47357 30.1747C5.53165 30.0609 5.61588 29.9625 5.71934 29.8876L6.8585 28.7484L6.8585 27.1972C6.86266 26.9392 6.967 26.693 7.14943 26.5106C7.33187 26.3281 7.57811 26.2238 7.83609 26.2196H9.38729L10.5265 25.0804C10.6014 24.977 10.6997 24.8928 10.8135 24.8347C10.9272 24.7766 11.0532 24.7463 11.1809 24.7463C11.3086 24.7463 11.4345 24.7766 11.5483 24.8347C11.662 24.8928 11.7604 24.977 11.8353 25.0804L12.9745 26.2196H14.5257C14.7836 26.2238 15.0299 26.3281 15.2123 26.5106C15.3948 26.693 15.4991 26.9392 15.5033 27.1972V28.7484L16.6424 29.8876C16.7459 29.9625 16.8301 30.0609 16.8882 30.1747C16.9463 30.2884 16.9766 30.4143 16.9766 30.5421C16.9766 30.6698 16.9463 30.7957 16.8882 30.9095C16.8301 31.0232 16.7459 31.1216 16.6424 31.1965L15.5033 32.3357V33.8869C15.4991 34.1449 15.3948 34.3911 15.2123 34.5736C15.0299 34.756 14.7836 34.8603 14.5257 34.8645H12.9745L11.8757 36.0037C11.784 36.0919 11.6747 36.1599 11.555 36.203C11.4353 36.2462 11.3078 36.2636 11.1809 36.2541ZM8.81368 33.0224H9.79125C10.0327 33.0142 10.2678 33.1013 10.4457 33.2648L11.1809 34L11.9161 33.2648C12.094 33.1013 12.329 33.0142 12.5705 33.0224H13.5481V32.0448C13.5399 31.8033 13.627 31.5683 13.7905 31.3904L14.5257 30.6552L13.7905 29.92C13.6289 29.7441 13.542 29.5123 13.5481 29.2736V28.2879H12.5705C12.329 28.2961 12.094 28.2091 11.9161 28.0455L11.1809 27.3103L10.4457 28.0455C10.2678 28.2091 10.0327 28.2961 9.79125 28.2879H8.81368V29.2736C8.81973 29.5123 8.73282 29.7441 8.5713 29.92L7.83609 30.6552L8.5713 31.3904C8.7348 31.5683 8.82185 31.8033 8.81368 32.0448V33.0224Z" fill="#EF232C"/>
<path id="Vector_5" d="M21.1267 22.5516L5.06526 22.5516C4.80729 22.5474 4.56104 22.4431 4.3786 22.2606C4.19616 22.0782 4.09183 21.832 4.08767 21.574C4.08194 21.4441 4.10331 21.3144 4.15041 21.1932C4.19751 21.072 4.26931 20.9619 4.36125 20.87C4.4532 20.778 4.56328 20.7062 4.68448 20.6591C4.80568 20.612 4.93536 20.5906 5.06526 20.5964L21.1267 20.5964C21.3861 20.5984 21.6344 20.7019 21.8186 20.8845C22.0027 21.0672 22.1082 21.3146 22.1124 21.574C22.0918 21.8278 21.9812 22.0658 21.8004 22.2451C21.6196 22.4244 21.3807 22.5331 21.1267 22.5516Z" fill="#EF232C"/>
<path id="Vector_6" d="M17.2973 41.4733H1.23583C1.09944 41.4857 0.961964 41.4695 0.832169 41.4258C0.702374 41.3821 0.583109 41.3119 0.481983 41.2195C0.380857 41.1272 0.30008 41.0147 0.244819 40.8894C0.189557 40.7641 0.161026 40.6286 0.161026 40.4917C0.161026 40.3547 0.189557 40.2193 0.244819 40.094C0.30008 39.9686 0.380857 39.8562 0.481983 39.7639C0.583109 39.6715 0.702374 39.6012 0.832169 39.5575C0.961964 39.5138 1.09944 39.4977 1.23583 39.5101H17.2973C17.5553 39.5142 17.8015 39.6186 17.984 39.801C18.1664 39.9834 18.2707 40.2297 18.2749 40.4876C18.2805 40.6179 18.2592 40.7479 18.2122 40.8695C18.1651 40.9912 18.0935 41.1017 18.0017 41.1943C17.9099 41.2869 17.7999 41.3594 17.6787 41.4075C17.5575 41.4555 17.4276 41.4779 17.2973 41.4733Z" fill="#EF232C"/>
<path id="Vector_7" d="M11.2624 4.60742C11.0044 4.60326 10.7582 4.49892 10.5758 4.31648C10.3933 4.13403 10.289 3.88778 10.2848 3.6298V1.75539C10.2848 1.49612 10.3878 1.24747 10.5711 1.06413C10.7545 0.880798 11.0031 0.777802 11.2624 0.777802C11.5217 0.777802 11.7703 0.880798 11.9537 1.06413C12.137 1.24747 12.24 1.49612 12.24 1.75539V3.6298C12.2379 3.88842 12.1342 4.13586 11.9513 4.31874C11.7684 4.50162 11.521 4.60531 11.2624 4.60742Z" fill="#EF232C"/>
<path id="Vector_8" d="M16.6425 7.62907C16.4755 7.62949 16.3116 7.58367 16.169 7.49669C16.0264 7.4097 15.9106 7.28493 15.8346 7.13621C15.7172 6.91723 15.6861 6.66223 15.7474 6.42146C15.8087 6.18068 15.958 5.97161 16.1658 5.83545L17.7817 4.93864C17.9997 4.82048 18.2541 4.78813 18.4947 4.84793C18.7354 4.90772 18.945 5.05537 19.0824 5.26183C19.1992 5.48149 19.2309 5.73653 19.1712 5.97807C19.1116 6.2196 18.9649 6.43062 18.7593 6.57068L17.1434 7.46747C17.0775 7.53034 16.9981 7.57752 16.9114 7.60549C16.8247 7.63347 16.7328 7.64153 16.6425 7.62907Z" fill="#EF232C"/>
<path id="Vector_9" d="M5.88144 7.62908C5.70748 7.61116 5.53941 7.55604 5.38861 7.46748L3.77277 6.57069C3.66245 6.50903 3.56587 6.42552 3.48893 6.32526C3.41199 6.225 3.35632 6.11011 3.32531 5.98759C3.29431 5.86508 3.28863 5.73751 3.30861 5.61272C3.32859 5.48793 3.37381 5.36855 3.44152 5.26184C3.503 5.15131 3.5866 5.05461 3.68709 4.9778C3.78758 4.901 3.90281 4.84571 4.0256 4.81539C4.14839 4.78507 4.27612 4.78038 4.40081 4.80158C4.5255 4.82279 4.64448 4.86944 4.75035 4.93865L6.36619 5.83547C6.47472 5.89784 6.56953 5.9815 6.64492 6.08144C6.72031 6.18137 6.77474 6.29549 6.80493 6.41698C6.83511 6.53847 6.84043 6.6648 6.82057 6.7884C6.80071 6.912 6.75608 7.03031 6.68936 7.13622C6.61404 7.28553 6.49846 7.41082 6.3557 7.49791C6.21293 7.58499 6.04867 7.63043 5.88144 7.62908Z" fill="#FF6634"/>
<path id="Vector_10" d="M14.1955 5.67384C14.0233 5.65411 13.8577 5.59614 13.7108 5.50418C13.6005 5.44351 13.504 5.36069 13.4272 5.26093C13.3505 5.16116 13.2952 5.0466 13.2649 4.92444C13.2345 4.80229 13.2298 4.67518 13.2509 4.5511C13.272 4.42702 13.3186 4.30866 13.3876 4.20342L13.9532 3.22581C14.007 3.10061 14.087 2.9884 14.1879 2.89675C14.2888 2.8051 14.4081 2.73616 14.5379 2.69454C14.6676 2.65292 14.8048 2.6396 14.9402 2.65549C15.0755 2.67138 15.2059 2.71611 15.3225 2.78666C15.4391 2.8572 15.5392 2.95192 15.6161 3.06443C15.693 3.17695 15.7449 3.30465 15.7682 3.43891C15.7916 3.57318 15.7859 3.7109 15.7515 3.84278C15.7172 3.97466 15.6549 4.09764 15.569 4.20342L14.9954 5.18102C14.9207 5.32909 14.8064 5.45355 14.6652 5.54055C14.524 5.62756 14.3614 5.67369 14.1955 5.67384Z" fill="#FF6634"/>
<path id="Vector_11" d="M8.32908 5.67387C8.16186 5.67522 7.99758 5.62978 7.85482 5.54269C7.71205 5.45561 7.59649 5.33035 7.52116 5.18104L6.94753 4.20345C6.82966 3.98325 6.79829 3.72695 6.85957 3.48482C6.92085 3.24269 7.07036 3.03219 7.27878 2.89458C7.49889 2.78263 7.75218 2.75451 7.99148 2.81546C8.23079 2.8764 8.43978 3.02224 8.57954 3.22583L9.15317 4.20345C9.27056 4.42243 9.30165 4.67743 9.24034 4.9182C9.17902 5.15898 9.02974 5.36805 8.82192 5.50421C8.67258 5.59731 8.50408 5.65531 8.32908 5.67387Z" fill="#FF6634"/>
</g>
</svg>
