<svg width="16" height="24" viewBox="0 0 16 24" fill="none" xmlns="http://www.w3.org/2000/svg">
<g id="26, Chineseknot, China, chinese, decoration">
<path id="Vector" d="M2.08402 13.0088C1.57185 13.0031 1.08285 12.7945 0.724123 12.4289C0.53955 12.254 0.39283 12.043 0.293081 11.8091C0.193332 11.5752 0.142659 11.3233 0.144199 11.069C0.150411 10.5569 0.358887 10.0681 0.724123 9.70909L8.85504 1.59042C9.03042 1.40642 9.24145 1.2601 9.47527 1.1604C9.70909 1.06069 9.96078 1.00969 10.215 1.01051C10.7271 1.01672 11.2159 1.22518 11.5749 1.59042C11.7531 1.76842 11.8936 1.98068 11.9876 2.2144C12.0817 2.44812 12.1274 2.69846 12.1221 2.95033C12.1174 3.46192 11.9104 3.95085 11.5463 4.31025L3.37862 12.4779C3.02994 12.8125 2.56723 13.0023 2.08402 13.0088ZM10.1619 2.04372C10.0378 2.03822 9.91402 2.06112 9.80008 2.11066C9.68614 2.1602 9.58502 2.23508 9.50438 2.32959L1.38162 10.4523C1.20487 10.6267 1.10117 10.8618 1.09165 11.1099C1.08602 11.235 1.10925 11.3597 1.15953 11.4744C1.2098 11.5891 1.28579 11.6908 1.38162 11.7714C1.55719 11.9488 1.7938 12.0525 2.0432 12.0614C2.16764 12.0664 2.29158 12.0429 2.40554 11.9926C2.5195 11.9423 2.62046 11.8667 2.70069 11.7714L10.8194 3.64867C10.9982 3.47582 11.1023 3.23981 11.1093 2.99117C11.115 2.86605 11.0917 2.7413 11.0415 2.62658C10.9912 2.51187 10.9152 2.41025 10.8194 2.32959C10.6404 2.16037 10.4077 2.05922 10.1619 2.04372Z" fill="white"/>
<path id="Vector_2" d="M5.79243 16.7172C5.41215 16.7137 5.04131 16.5984 4.72621 16.3854C4.4111 16.1725 4.1657 15.8715 4.02063 15.5199C3.87557 15.1684 3.83726 14.7819 3.91051 14.4087C3.98376 14.0355 4.16532 13.6922 4.43251 13.4215L12.5512 5.29878C12.7274 5.11502 12.9392 4.96916 13.1738 4.87015C13.4083 4.77114 13.6606 4.72105 13.9152 4.72295C14.2955 4.72641 14.6663 4.8418 14.9814 5.05473C15.2965 5.26766 15.5419 5.56869 15.687 5.92024C15.8321 6.27179 15.8704 6.65829 15.7971 7.03147C15.7239 7.40465 15.5423 7.74799 15.2751 8.01862L7.15236 16.1863C6.97205 16.3603 6.75901 16.4968 6.52558 16.588C6.29215 16.6791 6.04296 16.723 5.79243 16.7172ZM13.8703 5.75208C13.7458 5.74708 13.6219 5.77062 13.5079 5.82087C13.394 5.87113 13.293 5.94678 13.2128 6.04204L5.09003 14.1811C4.96376 14.3165 4.87879 14.4852 4.84513 14.6673C4.81147 14.8493 4.83052 15.0372 4.90002 15.2088C4.96952 15.3804 5.08657 15.5286 5.23744 15.6359C5.3883 15.7433 5.5667 15.8053 5.75161 15.8147C5.87673 15.8203 6.00145 15.7971 6.11617 15.7468C6.23089 15.6965 6.33253 15.6205 6.41319 15.5247L14.5319 7.40195C14.7107 7.22081 14.8109 6.97652 14.8109 6.72199C14.8109 6.46746 14.7107 6.22318 14.5319 6.04204C14.4475 5.95076 14.3452 5.87788 14.2313 5.82799C14.1175 5.77809 13.9946 5.75224 13.8703 5.75208Z" fill="white"/>
<path id="Vector_3" d="M14.0372 12.8414C13.5256 12.8367 13.0367 12.6297 12.6773 12.2656L4.59537 4.18774C4.41269 4.01158 4.2675 3.8003 4.16854 3.5666C4.06959 3.3329 4.0189 3.08161 4.01954 2.82782C4.02467 2.31633 4.23164 1.82755 4.59537 1.4679C4.77177 1.28472 4.9833 1.13901 5.21732 1.03949C5.45134 0.939959 5.70304 0.888672 5.95734 0.888672C6.21165 0.888672 6.46332 0.939959 6.69734 1.03949C6.93136 1.13901 7.14289 1.28472 7.31929 1.4679L15.438 9.58658C15.7956 9.94886 15.9961 10.4374 15.9961 10.9465C15.9961 11.4556 15.7956 11.9441 15.438 12.3064C15.0486 12.6441 14.5526 12.8335 14.0372 12.8414ZM5.9553 1.87628C5.83085 1.87128 5.70689 1.89481 5.59293 1.94506C5.47897 1.99532 5.37802 2.07097 5.29778 2.16623C5.12043 2.3418 5.01675 2.57842 5.00785 2.82782C5.00285 2.95227 5.02636 3.07621 5.07662 3.19017C5.12687 3.30413 5.20252 3.40508 5.29778 3.48532L13.4165 11.6081C13.5929 11.7836 13.8293 11.8857 14.078 11.8939C14.2022 11.8994 14.3259 11.8765 14.4398 11.827C14.5538 11.7775 14.6549 11.7026 14.7356 11.6081C14.9146 11.4263 15.015 11.1813 15.015 10.9261C15.015 10.6709 14.9146 10.4259 14.7356 10.2441L6.61688 2.16623C6.44131 1.98888 6.2047 1.88518 5.9553 1.87628Z" fill="white"/>
<path id="Vector_4" d="M9.99849 16.8804C9.74509 16.8785 9.49456 16.8267 9.26121 16.7279C9.02786 16.6291 8.81627 16.4853 8.63857 16.3046L0.556651 8.22675C0.29002 7.95559 0.108977 7.61203 0.0360256 7.23881C-0.0369258 6.86558 0.00144256 6.47914 0.146347 6.12754C0.291252 5.77594 0.536312 5.47469 0.851049 5.26124C1.16579 5.0478 1.53631 4.93156 1.91658 4.927C2.42875 4.93277 2.91777 5.1413 3.2765 5.50691L11.3992 13.6256C11.5827 13.8012 11.7284 14.0123 11.8274 14.2462C11.9264 14.48 11.9767 14.7316 11.9751 14.9855C11.9704 15.4971 11.7634 15.986 11.3992 16.3454C11.02 16.6997 10.5173 16.8917 9.99849 16.8804ZM1.91249 5.91937C1.78837 5.91388 1.66463 5.93677 1.55069 5.98631C1.43675 6.03585 1.33563 6.11073 1.255 6.20525C1.08341 6.38472 0.980712 6.61902 0.965035 6.86683C0.960036 6.99128 0.983575 7.11521 1.03383 7.22917C1.08409 7.34313 1.15973 7.4441 1.255 7.52433L9.37368 15.6471C9.55013 15.8226 9.78652 15.9247 10.0353 15.933C10.1594 15.9385 10.2831 15.9156 10.3971 15.866C10.511 15.8165 10.6121 15.7416 10.6928 15.6471C10.8712 15.4722 10.9751 15.2352 10.9827 14.9855C10.9877 14.8611 10.9642 14.7371 10.9139 14.6232C10.8637 14.5092 10.788 14.4082 10.6928 14.328L2.57407 6.20525C2.39762 6.02974 2.16123 5.92759 1.91249 5.91937Z" fill="white"/>
<path id="Vector_5" d="M9.74924 23.1082H5.91451C5.77349 23.1032 5.64007 23.0431 5.54289 22.9408C5.4996 22.8831 5.46978 22.8165 5.45565 22.7458C5.44151 22.6752 5.44341 22.6022 5.4612 22.5324L5.91451 20.3884C5.90629 19.8687 6.09934 19.366 6.45328 18.9854C6.80721 18.6048 7.29462 18.3759 7.8135 18.3464C8.3342 18.3698 8.82481 18.597 9.17936 18.9791C9.53391 19.3612 9.72395 19.8674 9.70841 20.3884L10.1617 22.4915V22.614C10.1805 22.6752 10.1838 22.74 10.1712 22.8027C10.1586 22.8654 10.1305 22.9239 10.0895 22.973C10.0486 23.0221 9.99596 23.0602 9.93653 23.0838C9.8771 23.1074 9.81273 23.1158 9.74924 23.1082ZM6.53526 22.1567H9.17343L8.80179 20.5517V20.47C8.817 20.3317 8.80443 20.1917 8.76482 20.0582C8.72521 19.9248 8.65935 19.8006 8.5711 19.6929C8.48285 19.5853 8.37398 19.4963 8.2509 19.4313C8.12782 19.3663 7.99299 19.3265 7.85433 19.3143C7.57683 19.3452 7.32241 19.4834 7.14539 19.6993C6.96837 19.9153 6.88278 20.1919 6.90688 20.47V20.5517L6.53526 22.1567Z" fill="white"/>
<path id="Vector_6" d="M7.85485 19.2735C7.72445 19.2714 7.59997 19.2187 7.50776 19.1264C7.41554 19.0342 7.36282 18.9098 7.36072 18.7794L7.36072 14.9446C7.36178 14.8139 7.41417 14.6888 7.50661 14.5964C7.59905 14.504 7.72412 14.4516 7.85485 14.4505C7.92035 14.4482 7.98564 14.4594 8.04663 14.4834C8.10761 14.5075 8.16299 14.5438 8.20934 14.5901C8.25569 14.6365 8.292 14.6919 8.31602 14.7529C8.34005 14.8138 8.35128 14.8791 8.349 14.9446V18.8202C8.33136 18.9411 8.27256 19.0522 8.18255 19.1347C8.09253 19.2173 7.97679 19.2663 7.85485 19.2735Z" fill="white"/>
</g>
</svg>
