<svg width="40" height="56" viewBox="0 0 40 56" fill="none" xmlns="http://www.w3.org/2000/svg">
<g id="26, Chineseknot, China, chinese, decoration">
<path id="Vector" d="M5.20988 30.5226C3.92944 30.5082 2.70695 29.9868 1.81012 29.0728C1.34869 28.6355 0.981892 28.1081 0.732519 27.5233C0.483147 26.9385 0.356464 26.3088 0.360315 25.673C0.375844 24.3928 0.897035 23.1707 1.81012 22.2732L22.1374 1.97654C22.5759 1.51655 23.1035 1.15075 23.688 0.901486C24.2725 0.652222 24.9018 0.524712 25.5372 0.526758C26.8174 0.542287 28.0395 1.06345 28.937 1.97654C29.3827 2.42155 29.7337 2.95219 29.9689 3.53648C30.204 4.12078 30.3183 4.74663 30.3051 5.37632C30.2934 6.65529 29.7759 7.8776 28.8656 8.77611L8.44637 29.1953C7.57467 30.0318 6.41788 30.5062 5.20988 30.5226ZM25.4045 3.10979C25.0942 3.09605 24.7849 3.15329 24.5 3.27713C24.2152 3.40098 23.9624 3.58818 23.7608 3.82447L3.45386 24.1314C3.01198 24.5672 2.75275 25.155 2.72895 25.7751C2.71487 26.0879 2.77294 26.3998 2.89863 26.6866C3.02433 26.9734 3.2143 27.2274 3.45386 27.4291C3.89278 27.8725 4.48431 28.1317 5.10781 28.1539C5.41893 28.1664 5.72878 28.1076 6.01367 27.982C6.29857 27.8564 6.55096 27.6672 6.75154 27.4291L27.0482 7.12215C27.4954 6.69004 27.7557 6.10002 27.7731 5.47842C27.7872 5.16561 27.7292 4.85374 27.6035 4.56695C27.4778 4.28015 27.2878 4.02612 27.0482 3.82447C26.6007 3.40142 26.0191 3.14854 25.4045 3.10979Z" fill="#FFDFAC"/>
<path id="Vector_2" d="M14.481 39.7929C13.5302 39.7842 12.6032 39.4958 11.8154 38.9634C11.0276 38.4311 10.4141 37.6785 10.0515 36.7997C9.68881 35.9208 9.59303 34.9545 9.77616 34.0216C9.95929 33.0886 10.4132 32.2303 11.0811 31.5537L31.3779 11.2468C31.8184 10.7874 32.348 10.4228 32.9343 10.1753C33.5207 9.92773 34.1514 9.80251 34.7879 9.80726C35.7386 9.81589 36.6657 10.1044 37.4535 10.6367C38.2412 11.169 38.8547 11.9216 39.2174 12.8005C39.58 13.6793 39.6758 14.6456 39.4927 15.5785C39.3096 16.5115 38.8556 17.3698 38.1876 18.0464L17.8808 38.4656C17.43 38.9007 16.8974 39.242 16.3138 39.4698C15.7302 39.6976 15.1073 39.8074 14.481 39.7929ZM34.6756 12.3801C34.3645 12.3676 34.0546 12.4264 33.7697 12.5521C33.4848 12.6777 33.2324 12.8668 33.0318 13.105L12.7249 33.4527C12.4093 33.7912 12.1969 34.2129 12.1127 34.6681C12.0286 35.1232 12.0762 35.5929 12.2499 36.0219C12.4237 36.451 12.7163 36.8214 13.0935 37.0897C13.4706 37.3581 13.9166 37.5131 14.3789 37.5366C14.6917 37.5506 15.0035 37.4926 15.2903 37.3669C15.5771 37.2412 15.8312 37.0512 16.0328 36.8117L36.3295 16.5048C36.7766 16.0519 37.0272 15.4412 37.0272 14.8049C37.0272 14.1685 36.7766 13.5578 36.3295 13.105C36.1186 12.8768 35.8628 12.6946 35.5782 12.5698C35.2936 12.4451 34.9863 12.3805 34.6756 12.3801Z" fill="#FFDFAC"/>
<path id="Vector_3" d="M35.093 30.1041C33.8141 30.0923 32.5917 29.5748 31.6932 28.6645L11.4884 8.4699C11.0317 8.02949 10.6687 7.5013 10.4214 6.91705C10.174 6.3328 10.0473 5.70457 10.0488 5.07011C10.0617 3.79137 10.5791 2.56943 11.4884 1.67029C11.9294 1.21236 12.4583 0.848078 13.0433 0.599263C13.6283 0.350448 14.2576 0.222229 14.8934 0.222229C15.5291 0.222229 16.1583 0.350448 16.7434 0.599263C17.3284 0.848078 17.8572 1.21236 18.2982 1.67029L38.5949 21.967C39.489 22.8727 39.9903 24.0941 39.9903 25.3668C39.9903 26.6394 39.489 27.8609 38.5949 28.7666C37.6215 29.6108 36.3814 30.0844 35.093 30.1041ZM14.8882 2.69125C14.5771 2.67876 14.2672 2.73757 13.9823 2.86321C13.6974 2.98885 13.445 3.17797 13.2445 3.41613C12.8011 3.85506 12.5419 4.44661 12.5196 5.07011C12.5071 5.38123 12.5659 5.69108 12.6915 5.97598C12.8172 6.26087 13.0063 6.51326 13.2445 6.71384L33.5412 27.0208C33.9823 27.4595 34.5733 27.7149 35.1951 27.7354C35.5054 27.7492 35.8148 27.6919 36.0996 27.5681C36.3844 27.4442 36.6373 27.2571 36.8389 27.0208C37.2866 26.5662 37.5375 25.9538 37.5375 25.3157C37.5375 24.6777 37.2866 24.0653 36.8389 23.6107L16.5422 3.41613C16.1033 2.97275 15.5117 2.71351 14.8882 2.69125Z" fill="#FFDFAC"/>
<path id="Vector_4" d="M24.9962 40.2013C24.3627 40.1966 23.7364 40.067 23.153 39.82C22.5697 39.573 22.0407 39.2134 21.5964 38.7617L1.39163 18.5671C0.725051 17.8892 0.272442 17.0303 0.090064 16.0973C-0.0923144 15.1642 0.00360639 14.1981 0.365868 13.3191C0.72813 12.4401 1.34078 11.687 2.12762 11.1534C2.91447 10.6197 3.84079 10.3291 4.79144 10.3177C6.07189 10.3322 7.29443 10.8535 8.19126 11.7675L28.4981 32.0642C28.9567 32.5032 29.321 33.0311 29.5685 33.6157C29.816 34.2003 29.9417 34.8292 29.9377 35.464C29.926 36.743 29.4084 37.9653 28.4981 38.8638C27.55 39.7494 26.2933 40.2294 24.9962 40.2013ZM4.78122 12.7987C4.47093 12.7849 4.16157 12.8422 3.87673 12.966C3.59189 13.0899 3.33908 13.2771 3.13749 13.5134C2.70853 13.962 2.45178 14.5478 2.41259 15.1673C2.40009 15.4784 2.45894 15.7883 2.58458 16.0732C2.71021 16.3581 2.89934 16.6105 3.13749 16.8111L23.4342 37.118C23.8753 37.5567 24.4663 37.8121 25.0881 37.8327C25.3984 37.8464 25.7078 37.7892 25.9926 37.6653C26.2775 37.5415 26.5303 37.3543 26.7319 37.118C27.1779 36.6808 27.4376 36.0882 27.4568 35.464C27.4693 35.1529 27.4104 34.843 27.2848 34.5581C27.1592 34.2733 26.97 34.0208 26.7319 33.8203L6.43517 13.5134C5.99405 13.0746 5.40307 12.8192 4.78122 12.7987Z" fill="#FFDFAC"/>
<path id="Vector_5" d="M24.373 55.771H14.7861C14.4336 55.7584 14.1001 55.6081 13.8571 55.3524C13.7489 55.2083 13.6743 55.0418 13.639 54.8651C13.6037 54.6884 13.6084 54.506 13.6529 54.3314L14.7861 48.9714C14.7656 47.6722 15.2482 46.4155 16.1331 45.464C17.0179 44.5126 18.2364 43.9402 19.5336 43.8666C20.8354 43.925 22.0619 44.4931 22.9483 45.4482C23.8347 46.4034 24.3098 47.6689 24.2709 48.9714L25.4042 54.2293V54.5356C25.4512 54.6884 25.4593 54.8505 25.4278 55.0072C25.3963 55.1639 25.3261 55.3103 25.2237 55.433C25.1213 55.5558 24.9898 55.651 24.8412 55.71C24.6926 55.769 24.5317 55.7899 24.373 55.771ZM16.338 53.3921H22.9334L22.0043 49.3798V49.1756C22.0424 48.8296 22.011 48.4796 21.9119 48.146C21.8129 47.8124 21.6482 47.5019 21.4276 47.2328C21.207 46.9637 20.9348 46.7413 20.6271 46.5788C20.3194 46.4162 19.9824 46.3168 19.6357 46.2862C18.942 46.3636 18.3059 46.709 17.8634 47.2489C17.4208 47.7887 17.2068 48.4801 17.2671 49.1756V49.3798L16.338 53.3921Z" fill="#FFDFAC"/>
<path id="Vector_6" d="M19.6369 46.1841C19.3109 46.1789 18.9997 46.047 18.7692 45.8165C18.5387 45.5859 18.4069 45.2748 18.4016 44.9488V35.3619C18.4043 35.0351 18.5352 34.7225 18.7663 34.4914C18.9974 34.2603 19.3101 34.1292 19.6369 34.1266C19.8007 34.1209 19.9639 34.1489 20.1164 34.209C20.2688 34.2691 20.4073 34.3599 20.5232 34.4757C20.639 34.5916 20.7298 34.7301 20.7899 34.8825C20.8499 35.035 20.878 35.1982 20.8723 35.3619V45.0508C20.8282 45.353 20.6812 45.6308 20.4562 45.8372C20.2311 46.0437 19.9418 46.1662 19.6369 46.1841Z" fill="#FFDFAC"/>
</g>
</svg>
