<svg width="17" height="24" viewBox="0 0 17 24" fill="none" xmlns="http://www.w3.org/2000/svg">
<g id="26, Chineseknot, China, chinese, decoration">
<path id="Vector" d="M2.63969 13.0325C2.12751 13.0268 1.63852 12.8182 1.27979 12.4526C1.09521 12.2777 0.948494 12.0667 0.848745 11.8328C0.748996 11.5989 0.698323 11.347 0.699863 11.0927C0.706075 10.5806 0.914551 10.0918 1.27979 9.73277L9.41071 1.6141C9.58608 1.43011 9.79712 1.28379 10.0309 1.18408C10.2648 1.08438 10.5164 1.03337 10.7706 1.03419C11.2827 1.0404 11.7715 1.24887 12.1305 1.6141C12.3088 1.79211 12.4492 2.00436 12.5433 2.23808C12.6373 2.4718 12.6831 2.72214 12.6778 2.97401C12.6731 3.4856 12.4661 3.97453 12.102 4.33393L3.93428 12.5016C3.5856 12.8362 3.12289 13.026 2.63969 13.0325ZM10.7175 2.0674C10.5934 2.06191 10.4697 2.0848 10.3557 2.13434C10.2418 2.18388 10.1407 2.25876 10.06 2.35327L1.93728 10.476C1.76053 10.6503 1.65684 10.8855 1.64732 11.1335C1.64169 11.2587 1.66491 11.3834 1.71519 11.4981C1.76547 11.6128 1.84146 11.7145 1.93728 11.7951C2.11285 11.9725 2.34946 12.0762 2.59886 12.0851C2.72331 12.0901 2.84725 12.0665 2.96121 12.0163C3.07517 11.966 3.17612 11.8904 3.25635 11.7951L11.375 3.67235C11.5539 3.4995 11.658 3.2635 11.665 3.01486C11.6706 2.88973 11.6474 2.76498 11.5971 2.65027C11.5468 2.53555 11.4709 2.43394 11.375 2.35327C11.196 2.18406 10.9634 2.0829 10.7175 2.0674Z" fill="#FF6B00"/>
<path id="Vector_2" d="M6.3481 16.7406C5.96781 16.7372 5.59698 16.6218 5.28187 16.4089C4.96677 16.1959 4.72136 15.8949 4.5763 15.5433C4.43124 15.1918 4.39292 14.8053 4.46618 14.4321C4.53943 14.0589 4.72098 13.7156 4.98817 13.445L13.1069 5.32221C13.2831 5.13846 13.4949 4.9926 13.7295 4.89359C13.964 4.79458 14.2163 4.74449 14.4709 4.74639C14.8512 4.74984 15.222 4.86523 15.5371 5.07816C15.8522 5.2911 16.0976 5.59213 16.2427 5.94368C16.3877 6.29523 16.426 6.68172 16.3528 7.05491C16.2795 7.42809 16.098 7.77143 15.8308 8.04205L7.70803 16.2097C7.52771 16.3838 7.31467 16.5203 7.08124 16.6114C6.84781 16.7025 6.59862 16.7465 6.3481 16.7406ZM14.426 5.77551C14.3015 5.77051 14.1775 5.79405 14.0636 5.84431C13.9496 5.89456 13.8487 5.97021 13.7684 6.06548L5.64569 14.2046C5.51943 14.34 5.43445 14.5087 5.40079 14.6907C5.36713 14.8728 5.38618 15.0607 5.45568 15.2323C5.52518 15.4039 5.64224 15.552 5.7931 15.6594C5.94396 15.7667 6.12236 15.8287 6.30727 15.8381C6.4324 15.8437 6.55712 15.8205 6.67184 15.7702C6.78655 15.72 6.88819 15.644 6.96885 15.5482L15.0875 7.42539C15.2663 7.24425 15.3666 6.99996 15.3666 6.74543C15.3666 6.49089 15.2663 6.24661 15.0875 6.06548C15.0032 5.97419 14.9008 5.90132 14.787 5.85143C14.6732 5.80153 14.5502 5.77568 14.426 5.77551Z" fill="#FF6B00"/>
<path id="Vector_3" d="M14.5929 12.8651C14.0813 12.8604 13.5924 12.6534 13.233 12.2893L5.15104 4.21142C4.96835 4.03526 4.82316 3.82398 4.72421 3.59028C4.62525 3.35658 4.57457 3.10529 4.5752 2.85151C4.58033 2.34001 4.7873 1.85123 5.15104 1.49158C5.32744 1.3084 5.53897 1.16269 5.77299 1.06317C6.007 0.963641 6.25871 0.912354 6.51301 0.912354C6.76731 0.912354 7.01899 0.963641 7.253 1.06317C7.48702 1.16269 7.69855 1.3084 7.87495 1.49158L15.9936 9.61026C16.3513 9.97254 16.5518 10.4611 16.5518 10.9702C16.5518 11.4792 16.3513 11.9678 15.9936 12.3301C15.6043 12.6678 15.1082 12.8572 14.5929 12.8651ZM6.51096 1.89996C6.38652 1.89496 6.26255 1.91849 6.14859 1.96875C6.03463 2.019 5.93368 2.09465 5.85345 2.18991C5.67609 2.36548 5.57241 2.60211 5.56351 2.85151C5.55851 2.97595 5.58202 3.09989 5.63228 3.21385C5.68253 3.32781 5.75818 3.42877 5.85345 3.509L13.9721 11.6318C14.1486 11.8073 14.385 11.9094 14.6337 11.9176C14.7578 11.9231 14.8816 11.9002 14.9955 11.8507C15.1094 11.8012 15.2106 11.7263 15.2912 11.6318C15.4703 11.4499 15.5707 11.205 15.5707 10.9498C15.5707 10.6946 15.4703 10.4496 15.2912 10.2678L7.17254 2.18991C6.99697 2.01256 6.76036 1.90886 6.51096 1.89996Z" fill="#FF6B00"/>
<path id="Vector_4" d="M10.5542 16.9041C10.3008 16.9022 10.0502 16.8504 9.81688 16.7516C9.58353 16.6528 9.37193 16.5089 9.19423 16.3283L1.11231 8.25044C0.845684 7.97927 0.664641 7.63572 0.59169 7.26249C0.518738 6.88926 0.557107 6.50282 0.702011 6.15122C0.846916 5.79962 1.09198 5.49838 1.40671 5.28493C1.72145 5.07148 2.09198 4.95524 2.47224 4.95068C2.98442 4.95645 3.47344 5.16498 3.83217 5.53059L11.9549 13.6493C12.1384 13.8249 12.2841 14.036 12.3831 14.2699C12.4821 14.5037 12.5323 14.7553 12.5307 15.0092C12.5261 15.5208 12.319 16.0097 11.9549 16.3691C11.5757 16.7234 11.073 16.9153 10.5542 16.9041ZM2.46815 5.94305C2.34403 5.93756 2.22029 5.96045 2.10636 6.00999C1.99242 6.05953 1.8913 6.13441 1.81066 6.22893C1.63907 6.4084 1.53638 6.64271 1.5207 6.89051C1.5157 7.01496 1.53924 7.1389 1.58949 7.25286C1.63975 7.36681 1.7154 7.46778 1.81066 7.54801L9.92934 15.6708C10.1058 15.8463 10.3422 15.9484 10.5909 15.9566C10.715 15.9621 10.8388 15.9392 10.9527 15.8897C11.0667 15.8402 11.1678 15.7653 11.2484 15.6708C11.4268 15.4959 11.5307 15.2589 11.5384 15.0092C11.5434 14.8847 11.5198 14.7608 11.4696 14.6468C11.4193 14.5329 11.3437 14.4319 11.2484 14.3517L3.12973 6.22893C2.95328 6.05342 2.71689 5.95127 2.46815 5.94305Z" fill="#FF6B00"/>
<path id="Vector_5" d="M10.3049 23.1319H6.47017C6.32915 23.1268 6.19574 23.0667 6.09855 22.9644C6.05526 22.9068 6.02545 22.8402 6.01131 22.7695C5.99718 22.6988 5.99908 22.6259 6.01687 22.5561L6.47017 20.412C6.46196 19.8924 6.65501 19.3897 7.00894 19.0091C7.36288 18.6285 7.85028 18.3996 8.36917 18.3701C8.88987 18.3935 9.38048 18.6207 9.73503 19.0028C10.0896 19.3848 10.2796 19.891 10.2641 20.412L10.7174 22.5152V22.6377C10.7362 22.6988 10.7395 22.7637 10.7268 22.8264C10.7142 22.8891 10.6862 22.9476 10.6452 22.9967C10.6042 23.0458 10.5516 23.0839 10.4922 23.1075C10.4328 23.1311 10.3684 23.1395 10.3049 23.1319ZM7.09092 22.1803H9.72909L9.35745 20.5754V20.4937C9.37267 20.3553 9.3601 20.2153 9.32048 20.0819C9.28087 19.9485 9.21501 19.8243 9.12676 19.7166C9.03851 19.609 8.92965 19.52 8.80656 19.455C8.68348 19.39 8.54866 19.3502 8.41 19.338C8.1325 19.3689 7.87807 19.5071 7.70106 19.723C7.52404 19.939 7.43844 20.2155 7.46254 20.4937V20.5754L7.09092 22.1803Z" fill="#FF6B00"/>
<path id="Vector_6" d="M8.41039 19.2972C8.27999 19.2951 8.15552 19.2423 8.0633 19.1501C7.97108 19.0579 7.91836 18.9334 7.91626 18.803L7.91626 14.9683C7.91733 14.8376 7.96971 14.7125 8.06215 14.6201C8.15459 14.5276 8.27966 14.4752 8.41039 14.4742C8.4759 14.4719 8.54118 14.4831 8.60217 14.5071C8.66315 14.5312 8.71854 14.5675 8.76488 14.6138C8.81123 14.6602 8.84754 14.7156 8.87157 14.7765C8.89559 14.8375 8.90682 14.9028 8.90454 14.9683V18.8439C8.8869 18.9647 8.8281 19.0758 8.73809 19.1584C8.64807 19.241 8.53233 19.29 8.41039 19.2972Z" fill="#FF6B00"/>
</g>
</svg>
