<svg width="58" height="58" viewBox="0 0 58 58" fill="none" xmlns="http://www.w3.org/2000/svg">
<rect width="58" height="58" rx="29" fill="#EF232C"/>
<path d="M34.625 37.4375C34.2369 37.4375 33.9219 37.7525 33.9219 38.1406C33.9219 38.5287 34.2369 38.8438 34.625 38.8438C35.0131 38.8438 35.3281 38.5287 35.3281 38.1406C35.3281 37.7525 35.0131 37.4375 34.625 37.4375Z" fill="white"/>
<path d="M40.9727 19.7698V16.8696C40.9727 15.3554 39.7807 14.1304 38.3066 14.1304C37.8463 14.1304 37.4131 14.2509 37.0349 14.4627C36.6883 13.3631 35.6823 12.5652 34.498 12.5652C34.0377 12.5652 33.6045 12.6857 33.2263 12.8975C32.8797 11.7979 31.8737 11 30.6895 11C29.9441 11 29.2696 11.3164 28.7852 11.8248C28.3008 11.3164 27.6262 11 26.8809 11C25.4107 11 24.2148 12.2286 24.2148 13.7391V17.4901C23.1356 17.8191 22.1874 18.4886 21.4956 19.4222C19.3378 19.6925 17.7977 19.9584 16.8271 20.2293C15.6571 18.6586 13.5454 18.2449 11.8976 19.2211L7.37759 21.9333C7.14371 22.0736 7 22.331 7 22.6092C7 22.8874 7.14371 23.1445 7.37729 23.2851L11.9012 26.0004C13.438 26.9108 15.4429 26.6222 16.6607 25.1949C17.5918 25.4682 19.0637 25.7332 21.1965 26.0123C21.414 26.3758 21.6723 26.7121 21.9678 27.0154L24.6231 29.7435C25.3422 30.4824 25.7383 31.4649 25.7383 32.5101V34.4783H25.3574C23.8872 34.4783 22.6914 35.7069 22.6914 37.2174C22.6914 38.3078 23.3151 39.2513 24.2148 39.6918V46.2174C24.2148 46.6497 24.5558 47 24.9766 47H40.2109C40.6317 47 40.9727 46.6497 40.9727 46.2174V39.6918C41.8724 39.2513 42.4961 38.3078 42.4961 37.2174C42.4961 35.7069 41.3003 34.4783 39.8301 34.4783H39.4492V32.3151C39.4492 31.3463 39.6614 30.3705 40.0625 29.4937C40.6748 28.1566 40.9724 26.9337 40.9727 25.7561C44.3534 25.0463 46 24.0573 46 22.7391C46 20.9838 42.7392 20.1672 40.9727 19.7698ZM38.3066 15.6957C38.9383 15.6957 39.4492 16.2202 39.4492 16.8696V20C39.4492 20.6564 38.9276 21.1739 38.3066 21.1739C37.6767 21.1739 37.1641 20.6472 37.1641 20V16.8696C37.1641 16.2224 37.6767 15.6957 38.3066 15.6957ZM34.498 14.1304C35.128 14.1304 35.6406 14.6572 35.6406 15.3043V19.2174C35.6406 19.8646 35.128 20.3913 34.498 20.3913C33.869 20.3913 33.3555 19.8692 33.3555 19.2174V15.3043C33.3555 14.6572 33.8681 14.1304 34.498 14.1304ZM30.6895 12.5652C31.3194 12.5652 31.832 13.0919 31.832 13.7391V17.5919C31.4178 17.3789 30.9513 17.2609 30.4609 17.2609H29.5469V13.7391C29.5469 13.0919 30.0595 12.5652 30.6895 12.5652ZM25.7383 13.7391C25.7383 13.0919 26.251 12.5652 26.8809 12.5652C27.5108 12.5652 28.0234 13.0919 28.0234 13.7391V17.2609H25.7383V13.7391ZM20.5375 24.3438C19.1902 24.1527 18.1532 23.9662 17.4352 23.7868C17.5513 23.4083 17.6114 23.0118 17.6114 22.6092C17.6114 22.2913 17.5733 21.9739 17.4992 21.6664C18.2234 21.486 19.2759 21.3005 20.647 21.1115C20.4884 21.6352 20.4062 22.1827 20.4062 22.7391V23.1421C20.4062 23.5459 20.4512 23.9494 20.5375 24.3438ZM12.6662 24.6467L9.27177 22.6092L12.6623 20.5747C14.1735 19.6796 16.088 20.7936 16.088 22.6092C16.088 24.3985 14.1905 25.5501 12.6662 24.6467ZM25.7002 28.6368L23.0449 25.9087C22.764 25.6201 22.5301 25.2903 22.3495 24.9283C22.0749 24.3771 21.9297 23.7596 21.9297 23.1424V22.7391C21.9297 20.6041 23.6081 18.8261 25.7383 18.8261H30.4609C31.2854 18.8261 31.9844 19.5182 31.9844 20.3913C31.9844 21.2543 31.3009 21.9565 30.4609 21.9565H25.8921C25.4803 21.9565 25.1429 22.2928 25.1307 22.7159C25.1185 23.1387 25.4357 23.4951 25.8469 23.5202C29.23 23.7281 30.9278 26.8955 30.1033 29.6139C29.978 30.0266 30.2021 30.4653 30.6038 30.594C31.0051 30.7227 31.4324 30.4922 31.5574 30.0798C31.8996 28.952 31.9162 27.7487 31.6398 26.6491C34.4177 26.6234 37.1337 26.4101 39.4409 26.0383C39.396 26.8989 39.1475 27.8145 38.6836 28.8276C38.1879 29.9119 37.9258 31.1179 37.9258 32.3151V34.4783H27.2617V32.5101C27.2617 31.0467 26.7071 29.6713 25.7002 28.6368ZM40.9727 37.2174C40.9727 37.8646 40.46 38.3913 39.8301 38.3913H35.6406C35.2199 38.3913 34.8789 38.7416 34.8789 39.1739C34.8789 39.6062 35.2199 39.9565 35.6406 39.9565H39.4492V45.4348H25.7383V39.9565H29.5469C29.9676 39.9565 30.3086 39.6062 30.3086 39.1739C30.3086 38.7416 29.9676 38.3913 29.5469 38.3913H25.3574C24.7275 38.3913 24.2148 37.8646 24.2148 37.2174C24.2148 36.5702 24.7275 36.0435 25.3574 36.0435H39.8301C40.46 36.0435 40.9727 36.5702 40.9727 37.2174ZM40.0708 24.3416C37.5247 24.8222 34.3281 25.087 31.0703 25.087C31.0516 25.087 31.0325 25.0867 31.0138 25.0867C30.6799 24.4924 30.2592 23.965 29.77 23.5217H30.4609C31.7091 23.5217 32.7836 22.7465 33.254 21.6404C33.6283 21.8431 34.0526 21.9565 34.498 21.9565C35.0741 21.9565 35.6079 21.767 36.0444 21.4466C36.5157 22.2219 37.3533 22.7391 38.3066 22.7391C39.3019 22.7391 40.1961 22.165 40.6525 21.2999C43.3048 21.8951 44.2582 22.505 44.456 22.7559C44.2754 23.0253 43.2212 23.748 40.0708 24.3416Z" fill="white"/>
</svg>
