<svg width="48" height="48" viewBox="0 0 48 48" fill="none" xmlns="http://www.w3.org/2000/svg">
<rect x="0.5" y="0.5" width="47" height="47" rx="9.5" fill="#FAF5F0"/>
<rect x="0.5" y="0.5" width="47" height="47" rx="9.5" stroke="#EF232C"/>
<path d="M35.107 14.01C33.0054 13.0585 30.7855 12.3811 28.5052 12C28.1931 12.5529 27.9112 13.1208 27.6595 13.7011C25.2307 13.34 22.7616 13.34 20.3328 13.7011C20.0811 13.1208 19.7992 12.5529 19.4871 12C17.2068 12.3861 14.9844 13.0635 12.8803 14.0149C8.70219 20.132 7.56959 26.0971 8.13589 31.9776C10.5823 33.7659 13.3207 35.1283 16.2328 36C16.8872 35.1283 17.4686 34.2017 17.9669 33.2329C17.0206 32.8842 16.1069 32.4508 15.2361 31.9427C15.4651 31.7783 15.6891 31.609 15.9056 31.4446C21.0325 33.8306 26.9674 33.8306 32.0943 31.4446C32.3133 31.6214 32.5373 31.7908 32.7638 31.9427C31.893 32.4533 30.9768 32.8842 30.0279 33.2354C30.5263 34.2042 31.1052 35.1283 31.7621 36C34.6767 35.1308 37.4176 33.7709 39.864 31.9801C40.5285 25.1606 38.7289 19.2503 35.107 14.01ZM18.6842 28.3611C17.1061 28.3611 15.8024 26.944 15.8024 25.2005C15.8024 23.457 17.0608 22.0274 18.6792 22.0274C20.2976 22.0274 21.5913 23.457 21.5636 25.2005C21.5359 26.944 20.2925 28.3611 18.6842 28.3611ZM29.3156 28.3611C27.735 28.3611 26.4363 26.944 26.4363 25.2005C26.4363 23.457 27.6948 22.0274 29.3156 22.0274C30.9365 22.0274 32.2202 23.457 32.1925 25.2005C32.1648 26.944 30.924 28.3611 29.3156 28.3611Z" fill="#EF232C"/>
</svg>
