<svg width="24" height="25" viewBox="0 0 24 25" fill="none" xmlns="http://www.w3.org/2000/svg">
<g id="social">
<path id="Vector" d="M9.35017 5.32363C9.09343 5.32546 6.99005 5.38506 4.76931 7.04099C4.76931 7.04099 2.40002 11.3184 2.40002 16.5841C2.40002 16.5841 3.7818 18.9617 7.41825 19.0772C7.41825 19.0772 8.02707 18.351 8.52037 17.7229C6.43166 17.0949 5.64129 15.7901 5.64129 15.7901C5.64129 15.7901 5.80633 15.9056 6.10157 16.0716C6.11808 16.0716 6.13366 16.089 6.16576 16.1046C6.21619 16.1367 6.26478 16.1541 6.31429 16.1871C6.72507 16.4182 7.13584 16.5997 7.51544 16.7474C8.19028 17.0288 8.99624 17.2755 9.93515 17.457C11.1693 17.6881 12.6171 17.7706 14.1951 17.4745C15.0133 17.3222 15.8133 17.0843 16.5818 16.7648C17.2473 16.5134 17.8817 16.1864 18.4725 15.7901C18.4725 15.7901 17.6509 17.127 15.4953 17.7385C15.9886 18.3492 16.5818 19.058 16.5818 19.058C20.2173 18.9424 21.6 16.564 21.6 16.5823C21.6 11.3138 19.2307 7.03824 19.2307 7.03824C16.878 5.27411 14.6233 5.32363 14.6233 5.32363L14.3931 5.58769C17.1897 6.42941 18.4899 7.66907 18.4899 7.66907C16.9553 6.8334 15.2744 6.30078 13.5386 6.10025C12.4331 5.97719 11.3167 5.98828 10.2139 6.13325C10.1158 6.13325 10.0333 6.15067 9.93332 6.16535C9.3575 6.23136 7.95922 6.42941 6.19876 7.20603C5.59086 7.4701 5.22776 7.66907 5.22776 7.66907C5.22776 7.66907 6.57928 6.36431 9.53997 5.52259L9.37493 5.32363H9.35017ZM8.93114 11.4165C9.86822 11.4165 10.6265 12.2252 10.6091 13.2329C10.6091 14.2414 9.86822 15.0502 8.93114 15.0502C8.00965 15.0502 7.25321 14.2405 7.25321 13.2329C7.25321 12.2252 7.99223 11.4165 8.93114 11.4165ZM14.9369 11.4165C15.8574 11.4165 16.6148 12.2252 16.6148 13.2329C16.6148 14.2414 15.873 15.0502 14.9369 15.0502C14.0145 15.0502 13.2589 14.2405 13.2589 13.2329C13.2589 12.2252 13.998 11.4165 14.9369 11.4165Z" fill="#FFF4DD"/>
</g>
</svg>
