<svg width="21" height="20" viewBox="0 0 21 20" fill="none" xmlns="http://www.w3.org/2000/svg">
<g id="36, gong, music, china, chinese">
<path id="Vector" d="M15.0426 7.32185C14.9336 7.32092 14.8294 7.27542 14.7523 7.19517C14.6753 7.11492 14.6316 7.00635 14.6307 6.89285V2.74113L6.28135 2.74113L6.28135 6.07031C6.28047 6.18413 6.23691 6.29309 6.15995 6.37391C6.083 6.45473 5.97876 6.501 5.86949 6.50285C5.76054 6.50193 5.6563 6.45643 5.57925 6.37617C5.50221 6.29592 5.45853 6.18735 5.45764 6.07385L5.45764 2.35113C5.45939 2.23792 5.50335 2.12985 5.58021 2.04979C5.65707 1.96973 5.76081 1.92395 5.86949 1.92212L15.0085 1.92212C15.1172 1.92395 15.2209 1.96973 15.2978 2.04979C15.3747 2.12985 15.4186 2.23792 15.4204 2.35113V6.89285C15.4324 6.94866 15.4313 7.00666 15.4171 7.06191C15.403 7.11717 15.3762 7.16805 15.3391 7.21019C15.302 7.25233 15.2556 7.2845 15.204 7.30394C15.1524 7.32339 15.097 7.32953 15.0426 7.32185Z" fill="#FF6634"/>
<path id="Vector_2" d="M10.1441 17.1391C8.88654 17.1391 7.65725 16.7507 6.61166 16.023C5.56606 15.2952 4.75111 14.2609 4.26988 13.0507C3.78864 11.8405 3.66273 10.5089 3.90806 9.22416C4.15339 7.93944 4.75895 6.75935 5.64816 5.83312C6.53737 4.90689 7.67029 4.27612 8.90365 4.02057C10.137 3.76503 11.4154 3.89618 12.5772 4.39745C13.739 4.89872 14.7321 5.7476 15.4307 6.83673C16.1293 7.92587 16.5022 9.20634 16.5022 10.5162C16.5052 11.9668 16.0455 13.3773 15.1952 14.5261C15.1266 14.6176 15.0288 14.6805 14.9195 14.7034C14.8076 14.7058 14.6983 14.6683 14.6098 14.597L12.6526 12.5584C12.611 12.5178 12.5799 12.467 12.5621 12.4107C12.5442 12.3543 12.5402 12.2942 12.5505 12.2358C12.5555 12.1166 12.5366 11.9977 12.495 11.8866C12.4534 11.7755 12.39 11.6747 12.3088 11.5905L12.1863 11.4664C12.1217 11.419 12.0712 11.3536 12.0405 11.2778C12.0098 11.202 12.0002 11.1187 12.0127 11.0374C12.0549 10.8609 12.0788 10.6803 12.0842 10.4985C12.0842 10.0876 11.9672 9.68588 11.7481 9.34422C11.5289 9.00255 11.2174 8.73627 10.8529 8.57901C10.4884 8.42176 10.0874 8.38061 9.70049 8.46077C9.31357 8.54094 8.95817 8.73882 8.67922 9.02938C8.40027 9.31994 8.21031 9.69015 8.13335 10.0932C8.05639 10.4962 8.09588 10.9139 8.24685 11.2936C8.39782 11.6732 8.65347 11.9977 8.98148 12.226C9.30948 12.4543 9.69512 12.5761 10.0896 12.5761C10.2751 12.5699 10.4597 12.5462 10.641 12.5052C10.7206 12.482 10.8049 12.483 10.8839 12.5082C10.9629 12.5333 11.0334 12.5815 11.0869 12.647C11.1209 12.6825 11.155 12.718 11.155 12.7534C11.2358 12.8379 11.3326 12.9039 11.4393 12.9473C11.5459 12.9906 11.6601 13.0103 11.7745 13.0051C11.8863 13.0027 11.9956 13.0403 12.0842 13.1115L14.0413 15.1537C14.0829 15.1943 14.1141 15.2451 14.1319 15.3014C14.1498 15.3578 14.1537 15.4179 14.1435 15.4763C14.1339 15.5853 14.0853 15.6865 14.0073 15.7599C12.9001 16.6494 11.5423 17.1341 10.1441 17.1391ZM10.1441 4.73004C8.69149 4.76746 7.31049 5.39481 6.29583 6.47817C5.28116 7.56154 4.71322 9.01511 4.71322 10.5286C4.71322 12.0422 5.28116 13.4957 6.29583 14.5791C7.31049 15.6625 8.69149 16.2898 10.1441 16.3272C11.2157 16.3205 12.2619 15.9864 13.153 15.3664L11.6383 13.7922C11.2639 13.7679 10.9108 13.6028 10.6444 13.3278C10.4735 13.3572 10.3002 13.3691 10.1271 13.3632C9.57638 13.3632 9.03807 13.1931 8.5802 12.8745C8.12233 12.5558 7.76547 12.1028 7.55473 11.5729C7.344 11.043 7.28886 10.4598 7.39629 9.89724C7.50373 9.33466 7.7689 8.8179 8.15829 8.4123C8.54767 8.0067 9.04378 7.73049 9.58387 7.61859C10.124 7.50668 10.6838 7.56412 11.1925 7.78362C11.7013 8.00313 12.1361 8.37485 12.4421 8.85178C12.748 9.32872 12.9113 9.88944 12.9113 10.463C12.9183 10.6199 12.9068 10.7771 12.8773 10.931C13.1538 11.2111 13.3139 11.593 13.3232 11.9947L14.8004 13.5334C15.3736 12.606 15.6719 11.5233 15.6581 10.4205C15.6563 9.66825 15.5123 8.92376 15.2342 8.22954C14.956 7.53532 14.5493 6.90499 14.0373 6.37456C13.5252 5.84413 12.9178 5.424 12.2498 5.13818C11.5818 4.85235 10.8662 4.70644 10.1441 4.70877V4.73004Z" fill="#FF6634"/>
<path id="Vector_3" d="M10.1439 13.4058C9.5932 13.4058 9.0549 13.2357 8.59703 12.9171C8.13916 12.5984 7.78229 12.1454 7.57156 11.6155C7.36083 11.0856 7.30569 10.5024 7.41312 9.93985C7.52055 9.37727 7.78572 8.86051 8.17511 8.45491C8.56449 8.04931 9.0606 7.7731 9.60069 7.6612C10.1408 7.54929 10.7006 7.60672 11.2094 7.82623C11.7181 8.04574 12.153 8.41746 12.4589 8.89439C12.7648 9.37132 12.9281 9.93205 12.9281 10.5057C12.9277 10.7611 12.8933 11.0152 12.826 11.2608C12.8105 11.3248 12.7805 11.384 12.7384 11.4334C12.6964 11.4828 12.6435 11.5209 12.5844 11.5445C12.5224 11.5658 12.4569 11.5737 12.3919 11.5676C12.3269 11.5615 12.2638 11.5416 12.2065 11.509C12.0553 11.4003 11.8719 11.3513 11.6891 11.3708C11.5063 11.3903 11.3362 11.477 11.2092 11.6154C11.0773 11.7547 10.9978 11.9387 10.9853 12.134C10.9728 12.3293 11.0281 12.5227 11.1412 12.679C11.1779 12.7362 11.2029 12.8007 11.2146 12.8684C11.2263 12.9361 11.2245 13.0056 11.2092 13.0726C11.1911 13.1375 11.1556 13.1958 11.1067 13.2404C11.0579 13.285 10.9978 13.3141 10.9335 13.3243C10.6721 13.3677 10.4084 13.3949 10.1439 13.4058ZM10.1439 8.4422C9.62958 8.46434 9.14341 8.69273 8.78704 9.07961C8.43066 9.46648 8.23167 9.9819 8.23167 10.5181C8.23167 11.0542 8.43066 11.5696 8.78704 11.9565C9.14341 12.3434 9.62958 12.5718 10.1439 12.5939H10.2154C10.1453 12.317 10.1464 12.0257 10.2187 11.7493C10.291 11.473 10.4319 11.2214 10.6272 11.0197C10.773 10.8595 10.9488 10.7321 11.1438 10.6455C11.3388 10.5589 11.5487 10.515 11.7606 10.5163C11.8877 10.5101 12.015 10.5232 12.1385 10.5553V10.5163C12.134 9.96603 11.9227 9.43951 11.5498 9.04974C11.1769 8.65998 10.6721 8.43804 10.1439 8.43156V8.4422Z" fill="#FF6634"/>
<path id="Vector_4" d="M5.71996 10.9028C5.61097 10.9 5.50722 10.8535 5.43045 10.7728C5.35367 10.6922 5.30983 10.5838 5.30811 10.4702C5.30811 9.15379 5.81016 7.89127 6.70381 6.9604C7.59746 6.02954 8.80952 5.50659 10.0733 5.50659C10.1826 5.50844 10.2868 5.55471 10.3638 5.63553C10.4407 5.71635 10.4843 5.82531 10.4852 5.93914C10.4871 5.99601 10.4777 6.05268 10.4577 6.10562C10.4377 6.15857 10.4074 6.20665 10.3688 6.24689C10.3302 6.28713 10.284 6.31866 10.2332 6.33952C10.1823 6.36037 10.1279 6.37011 10.0733 6.36813C9.01683 6.36813 8.00355 6.80506 7.25617 7.58289C6.50879 8.36073 6.08846 9.41583 6.08756 10.5163C6.09222 10.568 6.08594 10.6201 6.06917 10.6689C6.05239 10.7178 6.02552 10.7622 5.99047 10.799C5.95541 10.8359 5.91302 10.8643 5.86628 10.8822C5.81953 10.9001 5.76959 10.9072 5.71996 10.9028Z" fill="#FF6634"/>
<path id="Vector_5" d="M16.2439 18.0928C15.9266 18.0843 15.6226 17.9587 15.3861 17.7382L11.5365 13.6964C11.4871 13.6391 11.452 13.5699 11.4342 13.4952C11.4164 13.4204 11.4165 13.3422 11.4344 13.2674C11.4641 13.1975 11.5115 13.1372 11.5714 13.0929C11.6313 13.0486 11.7015 13.0219 11.7748 13.0157C11.8723 13.0121 11.9682 12.988 12.0565 12.9447C12.1449 12.9015 12.2239 12.84 12.2887 12.764C12.424 12.6183 12.509 12.43 12.5304 12.2286C12.5272 12.1499 12.5492 12.0724 12.5929 12.0082C12.6367 11.944 12.6997 11.8968 12.7721 11.8741C12.8421 11.8406 12.921 11.8329 12.9958 11.8522C13.0707 11.8715 13.137 11.9167 13.1839 11.9804L17.0642 16.0258C17.1808 16.1392 17.2739 16.2765 17.3375 16.4289C17.4011 16.5814 17.4339 16.7459 17.4339 16.9121C17.4339 17.0784 17.4011 17.2429 17.3375 17.3954C17.2739 17.5478 17.1808 17.6851 17.0642 17.7985C16.8289 17.9872 16.5408 18.0905 16.2439 18.0928ZM12.527 13.5936L15.9307 17.1391C16.0061 17.2102 16.1048 17.2483 16.2064 17.2454C16.3079 17.2475 16.4064 17.2095 16.4821 17.1391C16.5223 17.1038 16.5545 17.0598 16.5766 17.0102C16.5987 16.9606 16.6102 16.9066 16.6102 16.8519C16.6102 16.7972 16.5987 16.7432 16.5766 16.6936C16.5545 16.644 16.5223 16.6 16.4821 16.5647L13.0784 13.0192C13.0099 13.1351 12.93 13.2432 12.8401 13.3419C12.7579 13.4521 12.6502 13.5387 12.527 13.5936Z" fill="#FF6634"/>
<path id="Vector_6" d="M11.7442 13.7993C11.533 13.7976 11.3241 13.7526 11.1297 13.6669C10.9352 13.5811 10.7588 13.4562 10.6107 13.2994C10.5392 13.2285 10.5052 13.154 10.4371 13.1186C10.2038 12.803 10.0922 12.4079 10.1243 12.011C10.1564 11.614 10.3299 11.244 10.6107 10.9735C10.8702 10.6893 11.2188 10.5112 11.5934 10.4716C11.968 10.4319 12.3439 10.5332 12.653 10.7573C12.721 10.8282 12.7925 10.8636 12.8606 10.9381C13.0115 11.1014 13.1277 11.296 13.2016 11.5092C13.2755 11.7224 13.3054 11.9494 13.2895 12.1755C13.262 12.5727 13.1046 12.9481 12.8436 13.2391C12.5728 13.5243 12.2073 13.6906 11.8224 13.7035C11.8122 13.7993 11.7782 13.7993 11.7442 13.7993ZM11.7442 11.3175C11.6402 11.3121 11.5364 11.3318 11.4408 11.3748C11.3452 11.4178 11.2603 11.4831 11.1928 11.5656C11.0608 11.7049 10.9813 11.889 10.9688 12.0843C10.9563 12.2795 11.0116 12.473 11.1247 12.6293C11.1587 12.6647 11.1928 12.7002 11.1928 12.7356C11.2736 12.8201 11.3704 12.8862 11.477 12.9295C11.5837 12.9728 11.6979 12.9926 11.8122 12.9874C11.9098 12.9838 12.0057 12.9597 12.094 12.9164C12.1823 12.8731 12.2613 12.8116 12.3262 12.7356C12.4615 12.59 12.5465 12.4017 12.5679 12.2003C12.5728 12.0811 12.5539 11.9622 12.5123 11.8511C12.4707 11.74 12.4073 11.6392 12.3262 11.555L12.2241 11.4486C12.0785 11.3618 11.9117 11.3211 11.7442 11.3316V11.3175Z" fill="#FF6634"/>
<path id="Vector_7" d="M19.8177 19.7415H18.235C18.1263 19.7397 18.0225 19.6939 17.9457 19.6139C17.8688 19.5338 17.8249 19.4257 17.8231 19.3125L17.8231 3.74444C17.8236 3.61284 17.7991 3.48245 17.751 3.36074C17.703 3.23902 17.6324 3.12838 17.5432 3.03517C17.454 2.94195 17.348 2.86799 17.2314 2.81752C17.1147 2.76706 16.9896 2.74108 16.8633 2.74108L4.08224 2.74108C3.95561 2.74061 3.83015 2.76624 3.71308 2.8165C3.59601 2.86675 3.48965 2.94065 3.40011 3.03391C3.31057 3.12717 3.23964 3.23797 3.19139 3.35991C3.14314 3.48186 3.11853 3.61255 3.11898 3.74444L3.11898 19.3444C3.11723 19.4576 3.07327 19.5657 2.99641 19.6458C2.91955 19.7258 2.81581 19.7716 2.70713 19.7734H1.12779C1.01911 19.7716 0.915371 19.7258 0.838511 19.6458C0.76165 19.5657 0.717696 19.4576 0.715942 19.3444L0.715942 2.09934C0.717729 1.61627 0.902519 1.15346 1.23013 0.811542C1.55775 0.469622 2.0017 0.276237 2.46546 0.273437L18.463 0.273437C18.9274 0.275305 19.3722 0.468277 19.7005 0.810298C20.0289 1.15232 20.2141 1.61566 20.2159 2.09934L20.2159 19.348C20.2124 19.4549 20.1686 19.556 20.0942 19.6297C20.0197 19.7033 19.9204 19.7435 19.8177 19.7415ZM18.6128 18.9119H19.4059L19.4059 2.09934C19.4059 1.83324 19.3044 1.57803 19.1237 1.38986C18.9431 1.2017 18.6981 1.09599 18.4426 1.09599L2.46546 1.09599C2.33913 1.09598 2.21403 1.12196 2.09736 1.17243C1.98068 1.2229 1.87471 1.29686 1.78554 1.39008C1.69636 1.4833 1.62573 1.59394 1.57769 1.71565C1.52966 1.83736 1.50516 1.96775 1.50561 2.09934L1.50561 18.9119H2.29528L2.29528 3.74444C2.29707 3.26075 2.48233 2.79741 2.81068 2.45539C3.13903 2.11337 3.58385 1.9204 4.0482 1.91853L16.8633 1.91853C17.327 1.92133 17.771 2.11472 18.0986 2.45664C18.4262 2.79856 18.611 3.26137 18.6128 3.74444L18.6128 18.9119Z" fill="#FF6634"/>
</g>
</svg>
