<svg width="20" height="20" viewBox="0 0 20 20" fill="none" xmlns="http://www.w3.org/2000/svg">
<g id="36, gong, music, china, chinese">
<path id="Vector" d="M14.4868 7.29841C14.3778 7.29749 14.2736 7.25199 14.1965 7.17173C14.1195 7.09148 14.0758 6.98291 14.0749 6.86942V2.71769L5.72556 2.71769L5.72556 6.04687C5.72469 6.16069 5.68112 6.26965 5.60417 6.35047C5.52721 6.43129 5.42297 6.47757 5.31371 6.47941C5.20475 6.47849 5.10051 6.43299 5.02347 6.35273C4.94642 6.27248 4.90274 6.16391 4.90186 6.05042L4.90186 2.32769C4.90361 2.21448 4.94756 2.10642 5.02442 2.02636C5.10128 1.9463 5.20502 1.90051 5.31371 1.89868L14.4527 1.89868C14.5614 1.90051 14.6652 1.9463 14.742 2.02636C14.8189 2.10642 14.8628 2.21448 14.8646 2.32769V6.86942C14.8766 6.92522 14.8755 6.98322 14.8614 7.03848C14.8472 7.09373 14.8204 7.14461 14.7833 7.18675C14.7462 7.2289 14.6998 7.26106 14.6482 7.28051C14.5966 7.29995 14.5412 7.30609 14.4868 7.29841Z" fill="white"/>
<path id="Vector_2" d="M9.58828 17.1159C8.33076 17.1159 7.10147 16.7275 6.05587 15.9998C5.01027 15.272 4.19533 14.2377 3.71409 13.0275C3.23286 11.8173 3.10694 10.4857 3.35228 9.20097C3.59761 7.91625 4.20317 6.73615 5.09237 5.80992C5.98158 4.88369 7.1145 4.25292 8.34786 3.99738C9.58123 3.74183 10.8596 3.87298 12.0215 4.37426C13.1833 4.87553 14.1763 5.72441 14.8749 6.81354C15.5736 7.90267 15.9465 9.18314 15.9465 10.493C15.9494 11.9436 15.4897 13.3541 14.6394 14.5029C14.5708 14.5945 14.473 14.6573 14.3637 14.6802C14.2518 14.6826 14.1425 14.6451 14.054 14.5738L12.0968 12.5352C12.0553 12.4946 12.0241 12.4438 12.0063 12.3875C11.9884 12.3311 11.9845 12.271 11.9947 12.2126C11.9997 12.0934 11.9808 11.9745 11.9392 11.8634C11.8976 11.7523 11.8342 11.6515 11.7531 11.5673L11.6305 11.4432C11.5659 11.3958 11.5154 11.3305 11.4847 11.2546C11.4541 11.1788 11.4444 11.0955 11.4569 11.0142C11.4991 10.8377 11.523 10.6571 11.5284 10.4753C11.5284 10.0644 11.4114 9.66269 11.1923 9.32102C10.9731 8.97936 10.6616 8.71307 10.2971 8.55582C9.93266 8.39857 9.53161 8.35742 9.1447 8.43758C8.75779 8.51775 8.40238 8.71562 8.12344 9.00619C7.84449 9.29675 7.65452 9.66695 7.57756 10.07C7.5006 10.473 7.5401 10.8907 7.69106 11.2704C7.84203 11.65 8.09768 11.9745 8.42569 12.2028C8.7537 12.4311 9.13933 12.5529 9.53382 12.5529C9.71931 12.5467 9.90387 12.523 10.0852 12.482C10.1648 12.4588 10.2491 12.4598 10.3281 12.485C10.4071 12.5101 10.4776 12.5583 10.5311 12.6238C10.5652 12.6593 10.5992 12.6948 10.5992 12.7302C10.68 12.8147 10.7768 12.8807 10.8835 12.9241C10.9901 12.9674 11.1043 12.9871 11.2187 12.9819C11.3305 12.9795 11.4399 13.0171 11.5284 13.0883L13.4856 15.1305C13.5271 15.1711 13.5583 15.2219 13.5761 15.2782C13.594 15.3346 13.5979 15.3947 13.5877 15.4531C13.5781 15.5621 13.5295 15.6634 13.4515 15.7368C12.3443 16.6262 10.9865 17.111 9.58828 17.1159ZM9.58828 4.70685C8.13571 4.74426 6.7547 5.37161 5.74004 6.45498C4.72538 7.53835 4.15743 8.99192 4.15743 10.5054C4.15743 12.019 4.72538 13.4725 5.74004 14.5559C6.7547 15.6393 8.13571 16.2666 9.58828 16.304C10.6599 16.2973 11.7061 15.9632 12.5972 15.3432L11.0825 13.769C10.7082 13.7447 10.355 13.5797 10.0886 13.3046C9.91771 13.334 9.74442 13.3459 9.57127 13.34C9.02059 13.34 8.48228 13.1699 8.02441 12.8513C7.56655 12.5326 7.20968 12.0796 6.99895 11.5497C6.78821 11.0198 6.73308 10.4366 6.84051 9.87405C6.94794 9.31147 7.21311 8.79471 7.6025 8.38911C7.99188 7.98351 8.48799 7.7073 9.02808 7.5954C9.56818 7.48349 10.128 7.54092 10.6368 7.76043C11.1455 7.97994 11.5804 8.35166 11.8863 8.82859C12.1922 9.30552 12.3555 9.86625 12.3555 10.4399C12.3625 10.5967 12.351 10.7539 12.3215 10.9078C12.598 11.188 12.7581 11.5698 12.7674 11.9715L14.2446 13.5102C14.8178 12.5828 15.1161 11.5002 15.1023 10.3973C15.1005 9.64506 14.9565 8.90057 14.6784 8.20635C14.4003 7.51213 13.9935 6.8818 13.4815 6.35137C12.9694 5.82094 12.362 5.40081 11.694 5.11498C11.026 4.82916 10.3105 4.68324 9.58828 4.68558V4.70685Z" fill="white"/>
<path id="Vector_3" d="M9.58809 13.3824C9.03742 13.3824 8.49911 13.2123 8.04124 12.8936C7.58337 12.575 7.22651 12.122 7.01577 11.5921C6.80504 11.0621 6.7499 10.479 6.85733 9.91641C6.96476 9.35383 7.22994 8.83707 7.61932 8.43147C8.00871 8.02587 8.50481 7.74966 9.04491 7.63776C9.585 7.52585 10.1448 7.58329 10.6536 7.80279C11.1623 8.0223 11.5972 8.39402 11.9031 8.87095C12.2091 9.34789 12.3723 9.90861 12.3723 10.4822C12.3719 10.7376 12.3375 10.9918 12.2702 11.2374C12.2548 11.3014 12.2247 11.3606 12.1827 11.41C12.1406 11.4593 12.0877 11.4974 12.0286 11.521C11.9666 11.5424 11.9011 11.5503 11.8361 11.5442C11.7711 11.5381 11.708 11.5181 11.6508 11.4856C11.4995 11.3769 11.3161 11.3279 11.1333 11.3474C10.9505 11.3669 10.7804 11.4536 10.6535 11.5919C10.5215 11.7312 10.442 11.9153 10.4295 12.1106C10.417 12.3058 10.4723 12.4993 10.5854 12.6556C10.6221 12.7128 10.6471 12.7772 10.6588 12.845C10.6706 12.9127 10.6687 12.9822 10.6535 13.0491C10.6354 13.1141 10.5998 13.1724 10.5509 13.217C10.5021 13.2616 10.442 13.2907 10.3778 13.3008C10.1163 13.3443 9.85263 13.3715 9.58809 13.3824ZM9.58809 8.41876C9.07379 8.4409 8.58763 8.66929 8.23125 9.05617C7.87487 9.44305 7.67588 9.95846 7.67588 10.4946C7.67588 11.0308 7.87487 11.5462 8.23125 11.9331C8.58763 12.32 9.07379 12.5483 9.58809 12.5705H9.65957C9.58947 12.2935 9.59063 12.0022 9.66293 11.7259C9.73522 11.4496 9.87611 11.1979 10.0714 10.9963C10.2172 10.8361 10.393 10.7087 10.588 10.6221C10.783 10.5355 10.9929 10.4915 11.2049 10.4929C11.332 10.4866 11.4592 10.4998 11.5827 10.5318V10.4929C11.5783 9.9426 11.3669 9.41607 10.994 9.02631C10.6211 8.63654 10.1163 8.4146 9.58809 8.40812V8.41876Z" fill="white"/>
<path id="Vector_4" d="M5.16405 10.8793C5.05506 10.8766 4.95131 10.83 4.87454 10.7494C4.79776 10.6688 4.75392 10.5603 4.7522 10.4468C4.7522 9.13035 5.25425 7.86783 6.1479 6.93697C7.04156 6.0061 8.25361 5.48315 9.51743 5.48315C9.62669 5.485 9.73093 5.53127 9.80789 5.61209C9.88484 5.69291 9.9284 5.80187 9.92928 5.9157C9.93118 5.97257 9.92183 6.02924 9.9018 6.08219C9.88178 6.13513 9.85151 6.18321 9.81288 6.22345C9.77425 6.26369 9.72808 6.29522 9.67726 6.31608C9.62643 6.33694 9.57202 6.34668 9.51743 6.3447C8.46092 6.3447 7.44764 6.78162 6.70026 7.55945C5.95288 8.33729 5.53256 9.39239 5.53165 10.4929C5.53631 10.5445 5.53003 10.5966 5.51326 10.6455C5.49648 10.6943 5.46962 10.7387 5.43456 10.7756C5.3995 10.8124 5.35711 10.8408 5.31037 10.8588C5.26363 10.8767 5.21368 10.8837 5.16405 10.8793Z" fill="white"/>
<path id="Vector_5" d="M15.6881 18.0694C15.3708 18.0609 15.0668 17.9352 14.8303 17.7148L10.9807 13.673C10.9313 13.6156 10.8962 13.5465 10.8784 13.4717C10.8606 13.3969 10.8607 13.3187 10.8786 13.244C10.9084 13.174 10.9557 13.1137 11.0156 13.0694C11.0755 13.0251 11.1458 12.9985 11.219 12.9923C11.3165 12.9887 11.4124 12.9646 11.5007 12.9213C11.5891 12.878 11.6681 12.8165 11.7329 12.7405C11.8682 12.5949 11.9532 12.4066 11.9746 12.2052C11.9714 12.1265 11.9934 12.049 12.0371 11.9848C12.0809 11.9206 12.1439 11.8734 12.2163 11.8506C12.2863 11.8172 12.3652 11.8095 12.4401 11.8288C12.5149 11.8481 12.5812 11.8933 12.6281 11.957L16.5084 16.0023C16.6251 16.1158 16.7181 16.253 16.7817 16.4055C16.8453 16.558 16.8781 16.7225 16.8781 16.8887C16.8781 17.055 16.8453 17.2194 16.7817 17.3719C16.7181 17.5244 16.6251 17.6616 16.5084 17.7751C16.2731 17.9637 15.985 18.0671 15.6881 18.0694ZM11.9712 13.5702L15.3749 17.1156C15.4503 17.1867 15.549 17.2248 15.6506 17.222C15.7521 17.2241 15.8507 17.1861 15.9263 17.1156C15.9665 17.0803 15.9987 17.0364 16.0208 16.9868C16.043 16.9372 16.0544 16.8831 16.0544 16.8284C16.0544 16.7738 16.043 16.7197 16.0208 16.6701C15.9987 16.6205 15.9665 16.5765 15.9263 16.5413L12.5226 12.9958C12.4541 13.1116 12.3743 13.2198 12.2843 13.3184C12.2022 13.4287 12.0944 13.5153 11.9712 13.5702Z" fill="white"/>
<path id="Vector_6" d="M11.1884 13.7761C10.9772 13.7744 10.7684 13.7295 10.5739 13.6437C10.3794 13.5579 10.203 13.433 10.0549 13.2762C9.98345 13.2053 9.94942 13.1308 9.88134 13.0954C9.64799 12.7798 9.5364 12.3847 9.56853 11.9878C9.60065 11.5908 9.77415 11.2208 10.0549 10.9504C10.3144 10.6661 10.663 10.488 11.0376 10.4484C11.4122 10.4087 11.7881 10.51 12.0972 10.7341C12.1652 10.805 12.2367 10.8405 12.3048 10.9149C12.4557 11.0782 12.5719 11.2728 12.6458 11.486C12.7197 11.6992 12.7497 11.9262 12.7337 12.1523C12.7062 12.5495 12.5488 12.9249 12.2878 13.2159C12.017 13.5011 11.6516 13.6674 11.2667 13.6804C11.2565 13.7761 11.2224 13.7761 11.1884 13.7761ZM11.1884 11.2943C11.0844 11.2889 10.9806 11.3086 10.885 11.3516C10.7894 11.3946 10.7045 11.4599 10.637 11.5424C10.505 11.6817 10.4255 11.8658 10.413 12.0611C10.4005 12.2563 10.4558 12.4498 10.5689 12.6061C10.6029 12.6415 10.637 12.677 10.637 12.7124C10.7178 12.7969 10.8146 12.863 10.9212 12.9063C11.0279 12.9497 11.1421 12.9694 11.2565 12.9642C11.354 12.9606 11.4499 12.9365 11.5382 12.8932C11.6266 12.8499 11.7055 12.7884 11.7704 12.7124C11.9057 12.5668 11.9907 12.3785 12.0121 12.1771C12.0171 12.0579 11.9981 11.939 11.9565 11.8279C11.9149 11.7168 11.8515 11.616 11.7704 11.5318L11.6683 11.4255C11.5227 11.3386 11.3559 11.2979 11.1884 11.3084V11.2943Z" fill="white"/>
<path id="Vector_7" d="M19.2619 19.7181H17.6792C17.5705 19.7163 17.4668 19.6705 17.3899 19.5904C17.313 19.5104 17.2691 19.4023 17.2673 19.2891L17.2673 3.721C17.2678 3.58941 17.2433 3.45901 17.1952 3.3373C17.1472 3.21558 17.0766 3.10495 16.9874 3.01173C16.8982 2.91851 16.7923 2.84455 16.6756 2.79409C16.5589 2.74362 16.4338 2.71764 16.3075 2.71764L3.52645 2.71764C3.39983 2.71718 3.27437 2.7428 3.1573 2.79306C3.04023 2.84332 2.93386 2.91721 2.84432 3.01047C2.75479 3.10374 2.68385 3.21453 2.6356 3.33648C2.58735 3.45842 2.56274 3.58911 2.56319 3.721L2.56319 19.321C2.56144 19.4342 2.51749 19.5423 2.44063 19.6223C2.36376 19.7024 2.26002 19.7482 2.15134 19.75H0.572009C0.463326 19.7482 0.359585 19.7024 0.282725 19.6223C0.205864 19.5423 0.16191 19.4342 0.160156 19.321L0.160156 2.07591C0.161943 1.59283 0.346733 1.13002 0.674348 0.788105C1.00196 0.446184 1.44592 0.2528 1.90968 0.25L17.9072 0.25C18.3716 0.251868 18.8164 0.44484 19.1448 0.78686C19.4731 1.12888 19.6584 1.59222 19.6602 2.07591L19.6602 19.3246C19.6566 19.4314 19.6129 19.5326 19.5384 19.6062C19.4639 19.6798 19.3646 19.72 19.2619 19.7181ZM18.057 18.8885H18.8501L18.8501 2.07591C18.8501 1.8098 18.7486 1.55459 18.5679 1.36643C18.3873 1.17826 18.1423 1.07255 17.8868 1.07255L1.90968 1.07255C1.78334 1.07255 1.65825 1.09852 1.54157 1.14899C1.42489 1.19946 1.31893 1.27343 1.22975 1.36664C1.14058 1.45986 1.06995 1.5705 1.02191 1.69221C0.973872 1.81393 0.949375 1.94431 0.949823 2.07591L0.949823 18.8885H1.73949L1.73949 3.721C1.74128 3.23732 1.92654 2.77398 2.25489 2.43196C2.58324 2.08994 3.02806 1.89696 3.49241 1.8951L16.3075 1.8951C16.7712 1.8979 17.2152 2.09128 17.5428 2.4332C17.8704 2.77512 18.0552 3.23793 18.057 3.721L18.057 18.8885Z" fill="#FFF4DD"/>
</g>
</svg>
