<svg width="216" height="227" viewBox="0 0 216 227" fill="none" xmlns="http://www.w3.org/2000/svg">
<g filter="url(#filter0_b_144_66723)">
<path d="M56.5079 226.471C53.5324 226.794 50.2807 225.914 47.3555 223.99C44.429 222.065 42.1863 219.331 41.0444 216.297L1.07507 110.099C0.00171968 107.247 0.143445 104.506 1.47002 102.382C2.79257 100.264 5.13474 99.013 8.06195 98.8558L81.8903 94.8942C84.6354 94.7471 87.6385 95.6714 90.3508 97.4957C93.0617 99.3193 95.1621 101.828 96.269 104.564L137.433 206.313C138.607 209.218 138.638 212.066 137.516 214.336C136.39 216.612 134.238 218.035 131.455 218.337L56.5086 226.472L56.5079 226.471Z" fill="white" fill-opacity="0.3"/>
</g>
<path d="M129.241 212.825L54.3417 220.767C51.2842 221.092 47.8438 218.828 46.667 215.714L6.62246 109.776C5.51686 106.85 7.06913 104.346 10.0823 104.177L83.9583 100.046C86.7827 99.8883 89.988 102.043 91.1245 104.863L132.229 206.852C133.435 209.846 132.101 212.522 129.241 212.825Z" fill="url(#paint0_linear_144_66723)"/>
<path d="M54.5694 125.086L53.0507 121.194L45.1725 121.699L46.6871 125.604L50.6353 125.344L52.1547 129.252L56.0914 128.986L60.6777 140.741L64.6064 140.457L58.4907 124.828L54.5694 125.086Z" fill="white"/>
<path d="M84.0585 139.045L82.5156 135.159L78.6528 135.432L77.1146 131.548L65.4548 132.354L66.9876 136.259L63.0737 136.536L64.6078 140.457L60.6791 140.741L59.147 136.814L55.2069 137.094L53.6802 133.168L41.7866 133.99L43.3073 137.936L39.3142 138.219L40.8369 142.18L36.8282 142.471L44.4828 162.451L48.5015 162.125L51.5919 170.167L55.6012 169.827L57.1535 173.855L61.1507 173.51L62.709 177.539L74.6267 176.489L73.063 172.481L77.0071 172.14L78.5728 176.141L90.3314 175.105L88.7603 171.125L92.652 170.789L91.083 166.825L94.9599 166.497L91.8285 158.61L95.6894 158.297L87.9126 138.767L84.0605 139.046L84.0585 139.045Z" fill="white"/>
<path d="M72.4209 204.557L63.7816 205.421L62.7506 202.735L69.3996 202.078L68.7118 200.295L62.0641 200.946L59.3243 193.809L67.9521 192.991L72.4222 204.557H72.4209ZM67.6801 197.623L66.9936 195.844L62.3463 196.291L63.0314 198.073L67.6794 197.623L67.6801 197.623Z" fill="white"/>
<path d="M81.6547 203.634L73.0827 204.491L72.0483 201.816L78.6456 201.164L77.9558 199.388L71.3598 200.035L68.6119 192.927L77.1719 192.115L81.6541 203.634H81.6547ZM76.922 196.728L76.2336 194.957L71.6224 195.399L72.3096 197.174L76.9214 196.728H76.922Z" fill="white"/>
<path d="M90.8163 202.718L82.3115 203.568L81.2744 200.904L87.8199 200.257L87.1281 198.489L80.5839 199.13L77.8286 192.053L86.3221 191.247L90.8163 202.718ZM86.0917 195.84L85.4012 194.076L80.8263 194.515L81.5155 196.283L86.0917 195.84Z" fill="white"/>
<path d="M99.907 201.809L91.4679 202.653L90.4282 200L96.9234 199.358L96.2295 197.597L89.7357 198.234L86.973 191.186L95.4007 190.386L99.907 201.809ZM95.1898 194.959L94.4979 193.201L89.9587 193.637L90.6498 195.398L95.1904 194.958L95.1898 194.959Z" fill="white"/>
<path d="M108.927 200.908L100.554 201.745L99.5114 199.103L105.956 198.466L105.26 196.712L98.8169 197.344L96.0469 190.325L104.41 189.531L108.928 200.908H108.927ZM104.218 194.085L103.524 192.335L99.0198 192.768L99.7129 194.521L104.218 194.084V194.085Z" fill="white"/>
<path d="M137.432 206.313L86.8897 189.531C86.8897 189.531 80.6531 188.785 82.1892 180.552C83.7254 172.32 124.745 175.109 124.745 175.109L137.432 206.312V206.313Z" fill="url(#paint1_linear_144_66723)"/>
<g filter="url(#filter1_d_144_66723)">
<g filter="url(#filter2_b_144_66723)">
<path d="M88.9626 189.415C86.3759 189.847 84.1587 189.144 82.7152 187.441C81.2751 185.741 80.7747 183.244 81.304 180.407L100.562 77.2168C101.099 74.3372 102.625 71.3812 104.862 68.8899C107.105 66.3919 109.799 64.6556 112.449 64.0047L184.823 46.2279C187.737 45.5119 190.259 46.0257 191.916 47.6787C193.577 49.3358 194.169 51.9352 193.579 54.9947L172.452 164.577C171.872 167.589 170.206 170.61 167.766 173.079C165.334 175.541 162.427 177.156 159.584 177.631L88.9619 189.416L88.9626 189.415Z" fill="white" fill-opacity="0.3"/>
</g>
<path d="M160.665 172.007L89.9681 184.046C87.3049 184.499 85.5968 182.493 86.1442 179.566L105.499 76.0379C106.054 73.0664 108.705 70.1244 111.426 69.4648L183.724 51.9506C186.718 51.2252 188.664 53.1778 188.061 56.3132L167.048 165.515C166.454 168.602 163.592 171.509 160.665 172.007Z" fill="white"/>
<path d="M140.262 85.5128L141.034 81.437L133.466 83.178L132.7 87.233L136.472 86.3752L135.703 90.4383L139.49 89.5859L137.177 101.791L140.973 100.965L144.07 84.6457L140.262 85.5128Z" fill="url(#paint2_linear_144_66723)"/>
<path d="M160.234 96.7729L161.023 92.6454L157.13 93.5025L157.916 89.3831L146.341 91.9596L145.564 96.0482L141.746 96.8885L140.972 100.965L137.176 101.791L137.947 97.7247L134.166 98.5569L134.933 94.4986L123.691 97.0013L122.931 101.03L119.222 101.847L118.466 105.864L114.777 106.666L111.017 126.666L114.691 125.913L113.185 133.916L116.871 133.178L116.115 137.187L119.816 136.455L119.059 140.471L130.26 138.284L131.027 134.239L134.8 133.493L134.03 137.548L145.45 135.319L146.228 131.233L150.075 130.473L150.857 126.374L154.726 125.6L156.297 117.376L160.191 116.576L164.142 95.9226L160.232 96.7736L160.234 96.7729Z" fill="url(#paint3_linear_144_66723)"/>
<path d="M113.398 167.151L105.524 168.557L106.013 165.957L112.066 164.866L112.394 163.125L106.339 164.223L107.645 157.283L115.537 155.817L113.398 167.15V167.151ZM112.886 160.514L113.215 158.772L108.968 159.554L108.64 161.291L112.886 160.514Z" fill="black"/>
<path d="M121.969 165.62L114.006 167.043L114.5 164.428L120.621 163.324L120.952 161.574L114.829 162.684L116.146 155.705L124.126 154.224L121.969 165.62H121.969ZM121.449 158.947L121.78 157.195L117.486 157.986L117.156 159.733L121.449 158.947Z" fill="black"/>
<path d="M130.635 164.071L122.585 165.509L123.082 162.879L129.271 161.764L129.605 160.003L123.414 161.126L124.743 154.108L132.811 152.609L130.635 164.071H130.635ZM130.106 157.362L130.441 155.6L126.098 156.4L125.766 158.156L130.107 157.362L130.106 157.362Z" fill="black"/>
<path d="M139.399 162.505L131.258 163.96L131.76 161.315L138.018 160.187L138.356 158.416L132.096 159.551L133.436 152.493L141.595 150.978L139.4 162.505H139.399ZM138.861 155.76L139.199 153.988L134.807 154.796L134.471 156.563L138.861 155.76H138.861Z" fill="black"/>
<path d="M148.262 160.922L140.029 162.393L140.535 159.734L146.864 158.593L147.204 156.812L140.872 157.961L142.225 150.862L150.476 149.329L148.261 160.922H148.262ZM147.715 154.139L148.055 152.357L143.615 153.175L143.276 154.952L147.716 154.139L147.715 154.139Z" fill="black"/>
<path d="M113.398 167.151L105.524 168.557L106.013 165.957L112.066 164.866L112.394 163.125L106.339 164.223L107.645 157.283L115.537 155.817L113.398 167.15V167.151ZM112.886 160.514L113.215 158.772L108.968 159.554L108.64 161.291L112.886 160.514Z" fill="url(#paint4_linear_144_66723)"/>
<path d="M121.969 165.62L114.006 167.043L114.5 164.428L120.621 163.324L120.952 161.574L114.829 162.684L116.146 155.705L124.126 154.224L121.969 165.62H121.969ZM121.449 158.947L121.78 157.195L117.486 157.986L117.156 159.733L121.449 158.947Z" fill="url(#paint5_linear_144_66723)"/>
<path d="M130.635 164.071L122.585 165.509L123.082 162.879L129.271 161.764L129.605 160.003L123.414 161.126L124.743 154.108L132.811 152.609L130.635 164.071H130.635ZM130.106 157.362L130.441 155.6L126.098 156.4L125.766 158.156L130.107 157.362L130.106 157.362Z" fill="url(#paint6_linear_144_66723)"/>
<path d="M139.399 162.505L131.258 163.96L131.76 161.315L138.018 160.187L138.356 158.416L132.096 159.551L133.436 152.493L141.595 150.978L139.4 162.505H139.399ZM138.861 155.76L139.199 153.988L134.807 154.796L134.471 156.563L138.861 155.76H138.861Z" fill="url(#paint7_linear_144_66723)"/>
<path d="M148.262 160.922L140.029 162.393L140.535 159.734L146.864 158.593L147.204 156.812L140.872 157.961L142.225 150.862L150.476 149.329L148.261 160.922H148.262ZM147.715 154.139L148.055 152.357L143.615 153.175L143.276 154.952L147.716 154.139L147.715 154.139Z" fill="url(#paint8_linear_144_66723)"/>
</g>
<defs>
<filter id="filter0_b_144_66723" x="-99.6387" y="-5.12097" width="337.975" height="331.658" filterUnits="userSpaceOnUse" color-interpolation-filters="sRGB">
<feFlood flood-opacity="0" result="BackgroundImageFix"/>
<feGaussianBlur in="BackgroundImageFix" stdDeviation="50"/>
<feComposite in2="SourceAlpha" operator="in" result="effect1_backgroundBlur_144_66723"/>
<feBlend mode="normal" in="SourceGraphic" in2="effect1_backgroundBlur_144_66723" result="shape"/>
</filter>
<filter id="filter1_d_144_66723" x="43.0984" y="0.912964" width="172.703" height="203.626" filterUnits="userSpaceOnUse" color-interpolation-filters="sRGB">
<feFlood flood-opacity="0" result="BackgroundImageFix"/>
<feColorMatrix in="SourceAlpha" type="matrix" values="0 0 0 0 0 0 0 0 0 0 0 0 0 0 0 0 0 0 127 0" result="hardAlpha"/>
<feOffset dx="-8" dy="-15"/>
<feGaussianBlur stdDeviation="15"/>
<feComposite in2="hardAlpha" operator="out"/>
<feColorMatrix type="matrix" values="0 0 0 0 0 0 0 0 0 0 0 0 0 0 0 0 0 0 0.12 0"/>
<feBlend mode="normal" in2="BackgroundImageFix" result="effect1_dropShadow_144_66723"/>
<feBlend mode="normal" in="SourceGraphic" in2="effect1_dropShadow_144_66723" result="shape"/>
</filter>
<filter id="filter2_b_144_66723" x="-18.9016" y="-54.087" width="312.703" height="343.626" filterUnits="userSpaceOnUse" color-interpolation-filters="sRGB">
<feFlood flood-opacity="0" result="BackgroundImageFix"/>
<feGaussianBlur in="BackgroundImageFix" stdDeviation="50"/>
<feComposite in2="SourceAlpha" operator="in" result="effect1_backgroundBlur_144_66723"/>
<feBlend mode="normal" in="SourceGraphic" in2="effect1_backgroundBlur_144_66723" result="shape"/>
</filter>
<linearGradient id="paint0_linear_144_66723" x1="69.4701" y1="220.798" x2="69.4701" y2="100.038" gradientUnits="userSpaceOnUse">
<stop stop-color="#D82323"/>
<stop offset="1" stop-color="#F87D47"/>
</linearGradient>
<linearGradient id="paint1_linear_144_66723" x1="81.9716" y1="179.78" x2="170.533" y2="211.651" gradientUnits="userSpaceOnUse">
<stop/>
<stop offset="1" stop-opacity="0"/>
</linearGradient>
<linearGradient id="paint2_linear_144_66723" x1="132.7" y1="91.6144" x2="144.07" y2="91.6144" gradientUnits="userSpaceOnUse">
<stop stop-color="#D82323"/>
<stop offset="1" stop-color="#F87D47"/>
</linearGradient>
<linearGradient id="paint3_linear_144_66723" x1="111.019" y1="114.927" x2="164.144" y2="114.927" gradientUnits="userSpaceOnUse">
<stop stop-color="#D82323"/>
<stop offset="1" stop-color="#F87D47"/>
</linearGradient>
<linearGradient id="paint4_linear_144_66723" x1="105.523" y1="158.943" x2="150.477" y2="158.943" gradientUnits="userSpaceOnUse">
<stop stop-color="#D82323"/>
<stop offset="1" stop-color="#F87D47"/>
</linearGradient>
<linearGradient id="paint5_linear_144_66723" x1="105.523" y1="158.943" x2="150.477" y2="158.943" gradientUnits="userSpaceOnUse">
<stop stop-color="#D82323"/>
<stop offset="1" stop-color="#F87D47"/>
</linearGradient>
<linearGradient id="paint6_linear_144_66723" x1="105.523" y1="158.943" x2="150.477" y2="158.943" gradientUnits="userSpaceOnUse">
<stop stop-color="#D82323"/>
<stop offset="1" stop-color="#F87D47"/>
</linearGradient>
<linearGradient id="paint7_linear_144_66723" x1="105.523" y1="158.943" x2="150.477" y2="158.943" gradientUnits="userSpaceOnUse">
<stop stop-color="#D82323"/>
<stop offset="1" stop-color="#F87D47"/>
</linearGradient>
<linearGradient id="paint8_linear_144_66723" x1="105.523" y1="158.943" x2="150.477" y2="158.943" gradientUnits="userSpaceOnUse">
<stop stop-color="#D82323"/>
<stop offset="1" stop-color="#F87D47"/>
</linearGradient>
</defs>
</svg>
