<svg width="15" height="24" viewBox="0 0 15 24" fill="none" xmlns="http://www.w3.org/2000/svg">
<g id="33, lantern, China, Chinese, decoration">
<path id="Vector" d="M11.324 16.0409H3.81018C2.92438 16.0367 2.07607 15.6829 1.44971 15.0565C0.823344 14.4302 0.469581 13.5819 0.465332 12.6961L0.465332 6.17199C0.469581 5.28619 0.823344 4.43788 1.44971 3.81152C2.07607 3.18516 2.92438 2.8314 3.81018 2.82715L11.324 2.82715C12.2098 2.8314 13.0581 3.18516 13.6844 3.81152C14.3108 4.43788 14.6646 5.28619 14.6688 6.17199L14.6688 12.7365C14.6662 13.1731 14.5775 13.6049 14.408 14.0072C14.2385 14.4096 13.9914 14.7746 13.6808 15.0814C13.3702 15.3883 13.0022 15.6309 12.5978 15.7956C12.1934 15.9602 11.7606 16.0436 11.324 16.0409ZM3.81018 3.76434C3.18304 3.76541 2.58197 4.01529 2.1389 4.45912C1.69582 4.90295 1.44697 5.50446 1.44697 6.13159L1.44697 12.6961C1.44697 13.3228 1.69595 13.9239 2.13914 14.3671C2.58233 14.8103 3.18342 15.0593 3.81018 15.0593L11.324 15.0593C11.9511 15.0593 12.5526 14.8104 12.9964 14.3673C13.4403 13.9243 13.6901 13.3232 13.6912 12.6961L13.6912 6.17199C13.6901 5.54486 13.4403 4.94377 12.9964 4.5007C12.5526 4.05763 11.9511 3.80878 11.324 3.80878L3.81018 3.80878V3.76434Z" fill="#FFF4DD"/>
<path id="Vector_2" d="M8.51236 16.0409H6.67834C5.79254 16.0367 4.94423 15.6829 4.31787 15.0565C3.69151 14.4302 3.33774 13.5819 3.3335 12.6961L3.3335 6.17199C3.33774 5.28619 3.69151 4.43788 4.31787 3.81152C4.94423 3.18516 5.79254 2.8314 6.67834 2.82715L8.51236 2.82715C9.39815 2.8314 10.2465 3.18516 10.8728 3.81152C11.4992 4.43788 11.853 5.28619 11.8572 6.17199L11.8572 12.7365C11.8435 13.6156 11.4854 14.4542 10.8599 15.0721C10.2345 15.69 9.39155 16.0378 8.51236 16.0409ZM6.63794 3.76434C6.01044 3.76541 5.40894 4.01516 4.96523 4.45887C4.52152 4.90258 4.27177 5.50409 4.2707 6.13159L4.2707 12.6961C4.27177 13.3232 4.52165 13.9243 4.96548 14.3673C5.40931 14.8104 6.01081 15.0593 6.63794 15.0593H8.47196C9.09872 15.0593 9.6998 14.8103 10.143 14.3671C10.5862 13.9239 10.8352 13.3228 10.8352 12.6961L10.8352 6.17199C10.8352 5.86165 10.774 5.55435 10.6553 5.26763C10.5365 4.98091 10.3624 4.72039 10.143 4.50095C9.92355 4.2815 9.66303 4.10744 9.37631 3.98868C9.08959 3.86991 8.7823 3.80878 8.47196 3.80878L6.63794 3.80878V3.76434Z" fill="#FFF4DD"/>
<path id="Vector_3" d="M9.93822 17.9557H5.69657C5.56758 17.9536 5.44446 17.9014 5.35324 17.8102C5.26201 17.719 5.20984 17.5958 5.20776 17.4669V15.5924C5.20981 15.4631 5.26185 15.3395 5.35296 15.2476C5.44408 15.1558 5.56722 15.1027 5.69657 15.0996H9.93822C10.0679 15.1017 10.1916 15.1544 10.2829 15.2465C10.3743 15.3386 10.426 15.4628 10.427 15.5924V17.4669C10.4185 17.5937 10.3643 17.7131 10.2744 17.803C10.1845 17.8929 10.0651 17.9471 9.93822 17.9557ZM6.14901 17.0104H9.46558V16.0813H6.16516V17.0104H6.14901Z" fill="#FFF4DD"/>
<path id="Vector_4" d="M9.93822 3.76436L5.69657 3.76436C5.56758 3.76228 5.44446 3.71012 5.35324 3.6189C5.26201 3.52768 5.20984 3.40455 5.20776 3.27556V1.40115C5.20984 1.27216 5.26201 1.14905 5.35324 1.05783C5.44446 0.966604 5.56758 0.914434 5.69657 0.912354L9.93822 0.912354C10.0675 0.913409 10.1912 0.965251 10.2827 1.05669C10.3741 1.14813 10.426 1.27184 10.427 1.40115V3.27556C10.4194 3.40269 10.3654 3.52262 10.2753 3.61267C10.1853 3.70273 10.0654 3.75669 9.93822 3.76436ZM6.14901 2.82717L9.46558 2.82717V1.88996L6.16516 1.88996V2.82717H6.14901Z" fill="#FFF4DD"/>
<path id="Vector_5" d="M7.81769 21.7086C7.48691 21.7086 7.16356 21.6105 6.88853 21.4268C6.6135 21.243 6.39915 20.9818 6.27257 20.6762C6.14599 20.3706 6.11287 20.0343 6.1774 19.7099C6.24193 19.3855 6.40121 19.0875 6.6351 18.8536C6.869 18.6197 7.16699 18.4604 7.49141 18.3959C7.81583 18.3314 8.15209 18.3645 8.45769 18.4911C8.76328 18.6177 9.02448 18.832 9.20825 19.1071C9.39202 19.3821 9.4901 19.7054 9.4901 20.0362C9.48083 20.4768 9.30164 20.8969 8.98999 21.2085C8.67834 21.5202 8.25833 21.6993 7.81769 21.7086ZM7.81769 19.3818C7.68027 19.3818 7.54592 19.4225 7.43166 19.4989C7.3174 19.5752 7.22834 19.6837 7.17575 19.8107C7.12316 19.9377 7.10941 20.0774 7.13622 20.2122C7.16303 20.3469 7.22919 20.4707 7.32636 20.5679C7.42354 20.6651 7.54735 20.7313 7.68213 20.7581C7.81691 20.7849 7.95662 20.7711 8.08358 20.7185C8.21054 20.6659 8.31906 20.5769 8.39541 20.4626C8.47176 20.3484 8.51251 20.214 8.51251 20.0766C8.5136 19.985 8.49635 19.8942 8.46182 19.8094C8.42728 19.7246 8.37615 19.6476 8.31142 19.5829C8.24668 19.5181 8.16965 19.467 8.08486 19.4325C8.00007 19.3979 7.90923 19.3807 7.81769 19.3818Z" fill="#FFF4DD"/>
<path id="Vector_6" d="M7.81693 19.3816C7.68795 19.3795 7.56482 19.3274 7.4736 19.2362C7.38238 19.1449 7.33021 19.0218 7.32812 18.8928V17.4668C7.32812 17.3372 7.37962 17.2129 7.47129 17.1212C7.56296 17.0295 7.6873 16.978 7.81693 16.978C7.94657 16.978 8.0709 17.0295 8.16256 17.1212C8.25423 17.2129 8.30573 17.3372 8.30573 17.4668V18.8928C8.29113 19.0174 8.23494 19.1334 8.14624 19.2221C8.05754 19.3108 7.94152 19.367 7.81693 19.3816Z" fill="#FFF4DD"/>
<path id="Vector_7" d="M7.81693 23.1346C7.68795 23.1325 7.56482 23.0803 7.4736 22.9891C7.38238 22.8979 7.33021 22.7748 7.32812 22.6458V21.2198C7.32812 21.0901 7.37962 20.9658 7.47129 20.8741C7.56296 20.7825 7.6873 20.731 7.81693 20.731C7.94657 20.731 8.0709 20.7825 8.16256 20.8741C8.25423 20.9658 8.30573 21.0901 8.30573 21.2198V22.666C8.29264 22.7892 8.23638 22.9038 8.14693 22.9896C8.05748 23.0753 7.9406 23.1267 7.81693 23.1346Z" fill="#FFF4DD"/>
<path id="Vector_8" d="M14.1798 9.92482L0.982243 9.92482C0.914045 9.93101 0.845306 9.92293 0.780407 9.90107C0.715509 9.87922 0.655875 9.84409 0.605311 9.79791C0.554747 9.75173 0.514359 9.69552 0.486727 9.63286C0.459096 9.57021 0.444824 9.50248 0.444824 9.434C0.444824 9.36552 0.459096 9.29779 0.486727 9.23514C0.514359 9.17248 0.554747 9.11628 0.605311 9.0701C0.655875 9.02392 0.715509 8.98878 0.780407 8.96693C0.845306 8.94507 0.914045 8.93699 0.982243 8.94318L14.192 8.94318C14.321 8.94526 14.4441 8.99743 14.5353 9.08865C14.6265 9.17987 14.6787 9.30299 14.6808 9.43198C14.6837 9.49818 14.6727 9.56426 14.6485 9.62594C14.6242 9.68761 14.5873 9.7435 14.5401 9.78997C14.4928 9.83645 14.4364 9.87247 14.3743 9.8957C14.3122 9.91893 14.246 9.92885 14.1798 9.92482Z" fill="#FFF4DD"/>
</g>
</svg>
