<svg width="29" height="46" viewBox="0 0 29 46" fill="none" xmlns="http://www.w3.org/2000/svg">
<g id="33, lantern, China, Chinese, decoration">
<path id="Vector" d="M22.0362 31.1701L7.00861 31.1701C5.23702 31.1616 3.54039 30.454 2.28767 29.2013C1.03495 27.9486 0.327421 26.252 0.318924 24.4804L0.318924 11.4322C0.327421 9.66065 1.03495 7.96402 2.28767 6.7113C3.54039 5.45858 5.23702 4.75105 7.00861 4.74255L22.0362 4.74255C23.8078 4.75105 25.5044 5.45858 26.7571 6.7113C28.0099 7.96402 28.7174 9.66065 28.7259 11.4322L28.7259 24.5612C28.7206 25.4344 28.5434 26.298 28.2043 27.1027C27.8652 27.9074 27.371 28.6374 26.7498 29.2511C26.1286 29.8648 25.3926 30.3502 24.5839 30.6794C23.7751 31.0087 22.9094 31.1754 22.0362 31.1701ZM7.00861 6.61694C5.75435 6.61908 4.55219 7.11883 3.66605 8.00649C2.77991 8.89415 2.2822 10.0972 2.2822 11.3514L2.2822 24.4804C2.2822 25.7339 2.78017 26.9361 3.66654 27.8224C4.55292 28.7088 5.75509 29.2068 7.00861 29.2068L22.0362 29.2068C23.2905 29.2068 24.4935 28.7091 25.3811 27.8229C26.2688 26.9368 26.7685 25.7346 26.7707 24.4804L26.7707 11.4322C26.7685 10.178 26.2688 8.9758 25.3811 8.08965C24.4935 7.20351 23.2905 6.70582 22.0362 6.70583L7.00861 6.70583V6.61694Z" fill="#EF232C"/>
<path id="Vector_2" d="M16.4132 31.1701H12.7452C10.9736 31.1616 9.27694 30.454 8.02421 29.2013C6.77149 27.9486 6.06396 26.252 6.05547 24.4804L6.05547 11.4322C6.06396 9.66065 6.77149 7.96402 8.02421 6.7113C9.27694 5.45858 10.9736 4.75105 12.7452 4.74255L16.4132 4.74255C18.1848 4.75105 19.8814 5.45858 21.1341 6.7113C22.3868 7.96402 23.0944 9.66065 23.1029 11.4322L23.1029 24.5612C23.0754 26.3194 22.3592 27.9966 21.1083 29.2324C19.8574 30.4682 18.1716 31.1639 16.4132 31.1701ZM12.6644 6.61694C11.4093 6.61908 10.2064 7.11857 9.31893 8.006C8.43151 8.89342 7.93201 10.0964 7.92988 11.3514L7.92988 24.4804C7.93202 25.7346 8.43177 26.9368 9.31943 27.8229C10.2071 28.7091 11.4101 29.2068 12.6644 29.2068H16.3324C17.5859 29.2068 18.7881 28.7088 19.6745 27.8224C20.5608 26.9361 21.0588 25.7339 21.0588 24.4804L21.0588 11.4322C21.0588 10.8116 20.9365 10.197 20.699 9.62352C20.4615 9.05008 20.1133 8.52904 19.6745 8.09015C19.2356 7.65126 18.7145 7.30313 18.1411 7.06561C17.5677 6.82809 16.9531 6.70583 16.3324 6.70583L12.6644 6.70583V6.61694Z" fill="#EF232C"/>
<path id="Vector_3" d="M19.2642 34.9997H10.7809C10.5229 34.9955 10.2767 34.8912 10.0942 34.7088C9.9118 34.5263 9.80746 34.2801 9.8033 34.0221V30.2733C9.8074 30.0145 9.91147 29.7674 10.0937 29.5837C10.2759 29.3999 10.5222 29.2938 10.7809 29.2876H19.2642C19.5236 29.2918 19.771 29.3973 19.9537 29.5815C20.1363 29.7656 20.2397 30.0139 20.2418 30.2733V34.0221C20.2248 34.2758 20.1163 34.5147 19.9365 34.6944C19.7568 34.8742 19.5179 34.9827 19.2642 34.9997ZM11.6858 33.1091H18.3189V31.2509H11.7181V33.1091H11.6858Z" fill="#EF232C"/>
<path id="Vector_4" d="M19.2642 6.61697L10.7809 6.61697C10.5229 6.61281 10.2767 6.5085 10.0942 6.32606C9.9118 6.14362 9.80746 5.89736 9.8033 5.63938V1.89056C9.80746 1.63258 9.9118 1.38635 10.0942 1.20391C10.2767 1.02147 10.5229 0.917126 10.7809 0.912964L19.2642 0.912964C19.5228 0.915075 19.7703 1.01876 19.9531 1.20164C20.136 1.38452 20.2397 1.63193 20.2418 1.89056V5.63938C20.2265 5.89365 20.1186 6.13349 19.9384 6.31361C19.7583 6.49372 19.5185 6.60164 19.2642 6.61697ZM11.6858 4.74259L18.3189 4.74259V2.86817L11.7181 2.86817V4.74259H11.6858Z" fill="#EF232C"/>
<path id="Vector_5" d="M15.0232 42.5054C14.3616 42.5054 13.7149 42.3092 13.1649 41.9417C12.6148 41.5741 12.1861 41.0517 11.933 40.4405C11.6798 39.8294 11.6136 39.1568 11.7426 38.508C11.8717 37.8591 12.1902 37.2632 12.658 36.7954C13.1258 36.3276 13.7218 36.009 14.3706 35.8799C15.0195 35.7509 15.692 35.8171 16.3032 36.0703C16.9144 36.3235 17.4368 36.7522 17.8043 37.3022C18.1718 37.8523 18.368 38.499 18.368 39.1605C18.3495 40.0418 17.9911 40.8818 17.3678 41.5052C16.7445 42.1285 15.9045 42.4868 15.0232 42.5054ZM15.0232 37.8517C14.7483 37.8517 14.4797 37.9332 14.2511 38.0859C14.0226 38.2386 13.8445 38.4556 13.7393 38.7095C13.6341 38.9635 13.6066 39.2429 13.6602 39.5124C13.7139 39.782 13.8462 40.0296 14.0405 40.2239C14.2349 40.4183 14.4825 40.5506 14.7521 40.6043C15.0216 40.6579 15.3011 40.6304 15.555 40.5252C15.8089 40.42 16.0259 40.2419 16.1786 40.0134C16.3313 39.7849 16.4128 39.5162 16.4128 39.2413C16.415 39.0582 16.3805 38.8766 16.3115 38.707C16.2424 38.5374 16.1401 38.3833 16.0106 38.2539C15.8812 38.1244 15.7271 38.0221 15.5575 37.953C15.388 37.884 15.2063 37.8495 15.0232 37.8517Z" fill="#EF232C"/>
<path id="Vector_6" d="M15.0229 37.8517C14.765 37.8476 14.5187 37.7432 14.3363 37.5608C14.1538 37.3784 14.0495 37.1321 14.0453 36.8742V34.0221C14.0453 33.7629 14.1483 33.5142 14.3317 33.3309C14.515 33.1476 14.7637 33.0446 15.0229 33.0446C15.2822 33.0446 15.5309 33.1476 15.7142 33.3309C15.8975 33.5142 16.0005 33.7629 16.0005 34.0221V36.8742C15.9713 37.1233 15.8589 37.3554 15.6816 37.5328C15.5042 37.7102 15.2721 37.8225 15.0229 37.8517Z" fill="#EF232C"/>
<path id="Vector_7" d="M15.0229 45.3574C14.765 45.3532 14.5187 45.2489 14.3363 45.0664C14.1538 44.884 14.0495 44.6378 14.0453 44.3798V41.5278C14.0453 41.2685 14.1483 41.0198 14.3317 40.8365C14.515 40.6532 14.7637 40.5502 15.0229 40.5502C15.2822 40.5502 15.5309 40.6532 15.7142 40.8365C15.8975 41.0198 16.0005 41.2685 16.0005 41.5278V44.4202C15.9743 44.6666 15.8618 44.8959 15.6829 45.0674C15.504 45.2389 15.2703 45.3416 15.0229 45.3574Z" fill="#EF232C"/>
<path id="Vector_8" d="M27.7482 18.938L1.35296 18.938C1.21656 18.9504 1.07908 18.9342 0.949288 18.8905C0.819491 18.8468 0.700224 18.7766 0.599096 18.6842C0.497968 18.5918 0.417191 18.4794 0.361928 18.3541C0.306666 18.2288 0.278122 18.0933 0.278122 17.9564C0.278122 17.8194 0.306666 17.684 0.361928 17.5587C0.417191 17.4333 0.497968 17.3209 0.599096 17.2286C0.700224 17.1362 0.819491 17.0659 0.949288 17.0222C1.07908 16.9785 1.21656 16.9624 1.35296 16.9747L27.7724 16.9747C28.0304 16.9789 28.2766 17.0832 28.4591 17.2657C28.6415 17.4481 28.7458 17.6944 28.75 17.9523C28.7559 18.0847 28.7339 18.2169 28.6854 18.3403C28.6369 18.4636 28.5631 18.5754 28.4686 18.6683C28.3741 18.7613 28.2612 18.8333 28.1371 18.8798C28.0129 18.9262 27.8804 18.9461 27.7482 18.938Z" fill="#EF232C"/>
</g>
</svg>
