<svg width="24" height="21" viewBox="0 0 24 21" fill="none" xmlns="http://www.w3.org/2000/svg">
<path d="M10.6437 20.5C15.2649 20.5 19.1627 17.3484 20.304 13.0821H23.0232L18.8624 5.87555L14.7014 13.0816H17.0904C16.0636 15.6366 13.5614 17.4461 10.6435 17.4461C6.81288 17.4461 3.6969 14.3299 3.6969 10.4996C3.6969 6.66945 6.81301 3.5531 10.6435 3.5531C12.6137 3.5531 14.3932 4.37881 15.6588 5.7003L17.2276 2.98256C15.4677 1.4384 13.1639 0.5 10.6437 0.5C5.12925 0.5 0.643555 4.98532 0.643555 10.4998C0.643555 16.0143 5.12963 20.5 10.6437 20.5Z" fill="white"/>
</svg>
