<svg xmlns="http://www.w3.org/2000/svg" width="48" height="48" viewBox="0 0 48 48" fill="none">
<rect x="0.5" y="0.5" width="47" height="47" rx="9.5" fill="#FAF5F0"/>
<rect x="0.5" y="0.5" width="47" height="47" rx="9.5" stroke="#EF232C"/>
<path d="M37.9748 13.2449C38.2085 11.749 36.7726 10.5683 35.4297 11.1523L8.68403 22.7832C7.72105 23.202 7.7915 24.6468 8.79025 24.9618L14.3058 26.7016C15.3586 27.0336 16.4984 26.8619 17.4177 26.2328L29.8531 17.7234C30.2281 17.4668 30.6368 17.9949 30.3164 18.322L21.3652 27.4628C20.4969 28.3496 20.6692 29.8522 21.7137 30.5009L31.7356 36.7257C32.8597 37.4238 34.3057 36.7226 34.5158 35.3771L37.9748 13.2449Z" fill="#EF232C"/>
</svg>