<svg width="78" height="78" viewBox="0 0 78 78" fill="none" xmlns="http://www.w3.org/2000/svg">
<path d="M64.0133 76.4854L64.0068 76.4919H14.0013L1.5 63.9906V14.0006C6.30686 9.18657 9.18657 6.30686 14.0006 1.5H63.9987L76.5 14.0013V63.9987L76.4861 64.0126L76.4563 64.0424L76.4265 64.0722L76.3968 64.1019L76.3672 64.1315L76.3375 64.1612L76.308 64.1907L76.2785 64.2202L76.249 64.2497L76.2196 64.2791L76.1902 64.3085L76.1609 64.3378L76.1316 64.3671L76.1023 64.3964L76.0732 64.4255L76.044 64.4547L76.0149 64.4838L75.9859 64.5128L75.9569 64.5418L75.9279 64.5708L75.899 64.5997L75.8701 64.6286L75.8413 64.6574L75.8125 64.6862L75.7838 64.7149L75.7551 64.7436L75.7265 64.7722L75.6979 64.8008L75.6693 64.8294L75.6408 64.8579L75.6124 64.8863L75.5839 64.9148L75.5556 64.9431L75.5272 64.9715L75.4989 64.9998L75.4707 65.028L75.4425 65.0562L75.4143 65.0844L75.3862 65.1125L75.3581 65.1406L75.33 65.1687L75.302 65.1967L75.2741 65.2246L75.2462 65.2525L75.2183 65.2804L75.1904 65.3083L75.1627 65.3361L75.1349 65.3638L75.1072 65.3915L75.0795 65.4192L75.0519 65.4469L75.0243 65.4744L74.9967 65.502L74.9692 65.5295L74.9417 65.557L74.9142 65.5845L74.8868 65.6119L74.8595 65.6392L74.8321 65.6666L74.8048 65.6939L74.7776 65.7211L74.7504 65.7483L74.7232 65.7755L74.696 65.8027L74.6689 65.8298L74.6418 65.8569L74.6148 65.8839L74.5878 65.9109L74.5608 65.9379L74.5339 65.9648L74.507 65.9917L74.4802 66.0185L74.4533 66.0454L74.4265 66.0722L74.3998 66.0989L74.3731 66.1256L74.3464 66.1523L74.3197 66.179L74.2931 66.2056L74.2665 66.2322L74.24 66.2587L74.2134 66.2853L74.187 66.3118L74.1605 66.3382L74.1341 66.3646L74.1077 66.391L74.0813 66.4174L74.055 66.4437L74.0287 66.47L74.0024 66.4963L73.9762 66.5225L73.95 66.5487L73.9238 66.5749L73.8977 66.601L73.8716 66.6271L73.8455 66.6532L73.8195 66.6792L73.7934 66.7053L73.7674 66.7313L73.7415 66.7572L73.7156 66.7831L73.6897 66.8091L73.6638 66.8349L73.6379 66.8608L73.6121 66.8866L73.5863 66.9124L73.5606 66.9381L73.5348 66.9639L73.5091 66.9896L73.4834 67.0153L73.4578 67.0409L73.4322 67.0665L73.4066 67.0921L73.381 67.1177L73.3554 67.1433L73.3299 67.1688L73.3044 67.1943L73.279 67.2197L73.2535 67.2452L73.2281 67.2706L73.2027 67.296L73.1773 67.3214L73.152 67.3467L73.1267 67.372L73.1014 67.3973L73.0761 67.4226L73.0509 67.4478L73.0256 67.4731L73.0004 67.4983L72.9753 67.5234L72.9501 67.5486L72.925 67.5737L72.8999 67.5988L72.8748 67.6239L72.8497 67.649L72.8247 67.674L72.7996 67.6991L72.7746 67.7241L72.7497 67.749L72.7247 67.774L72.6998 67.7989L72.6749 67.8238L72.65 67.8487L72.6251 67.8736L72.6002 67.8985L72.5754 67.9233L72.5506 67.9481L72.5258 67.9729L72.501 67.9977L72.4762 68.0225L72.4515 68.0472L72.4268 68.0719L72.4021 68.0966L72.3774 68.1213L72.3527 68.146L72.3281 68.1706L72.3035 68.1952L72.2788 68.2199L72.2542 68.2445L72.2297 68.269L72.2051 68.2936L72.1806 68.3181L72.156 68.3427L72.1315 68.3672L72.107 68.3917L72.0825 68.4162L72.0581 68.4406L72.0336 68.4651L72.0092 68.4895L71.9848 68.5139L71.9604 68.5383L71.936 68.5627L71.9116 68.5871L71.8872 68.6115L71.8629 68.6358L71.8386 68.6601L71.8142 68.6845L71.7899 68.7088L71.7656 68.7331L71.7413 68.7574L71.7171 68.7816L71.6928 68.8059L71.6686 68.8301L71.6443 68.8544L71.6201 68.8786L71.5959 68.9028L71.5717 68.927L71.5475 68.9512L71.5233 68.9754L71.4992 68.9995L71.475 69.0237L71.4509 69.0478L71.4268 69.072L71.4026 69.0961L71.3785 69.1202L71.3544 69.1443L71.3303 69.1684L71.3062 69.1925L71.2822 69.2166L71.2581 69.2406L71.234 69.2647L71.21 69.2887L71.1859 69.3128L71.1619 69.3368L71.1379 69.3608L71.1138 69.3849L71.0898 69.4089L71.0658 69.4329L71.0418 69.4569L71.0178 69.4809L70.9939 69.5049L70.9699 69.5288L70.9459 69.5528L70.9219 69.5768L70.898 69.6007L70.874 69.6247L70.8501 69.6487L70.8261 69.6726L70.8022 69.6965L70.7782 69.7205L70.7543 69.7444L70.7304 69.7683L70.7065 69.7923L70.6825 69.8162L70.6586 69.8401L70.6347 69.864L70.6108 69.8879L70.5869 69.9118L70.563 69.9357L70.5391 69.9596L70.5152 69.9835L70.4913 70.0074L70.4674 70.0313L70.4435 70.0552L70.4196 70.0791L70.3957 70.103L70.3718 70.1269L70.3479 70.1508L70.324 70.1747L70.3002 70.1985L70.2763 70.2224L70.2524 70.2463L70.2285 70.2702L70.2046 70.2941L70.1807 70.318L70.1568 70.3419L70.1329 70.3658L70.1091 70.3896L70.0852 70.4135L70.0613 70.4374L70.0374 70.4613L70.0135 70.4852L69.9896 70.5091L69.9657 70.533L69.9418 70.5569L69.9179 70.5808L69.894 70.6047L69.87 70.6287L69.8461 70.6526L69.8222 70.6765L69.7983 70.7004L69.7744 70.7243L69.7504 70.7483L69.7265 70.7722L69.7026 70.7962L69.6786 70.8201L69.6547 70.844L69.6307 70.868L69.6067 70.892L69.5828 70.9159L69.5588 70.9399L69.5348 70.9639L69.5108 70.9879L69.4868 71.0119L69.4628 71.0359L69.4388 71.0599L69.4148 71.0839L69.3908 71.1079L69.3668 71.1319L69.3427 71.156L69.3187 71.18L69.2947 71.2041L69.2706 71.2281L69.2465 71.2522L69.2225 71.2763L69.1984 71.3003L69.1743 71.3244L69.1502 71.3485L69.1261 71.3727L69.1019 71.3968L69.0778 71.4209L69.0537 71.4451L69.0295 71.4692L69.0053 71.4934L68.9812 71.5175L68.957 71.5417L68.9328 71.5659L68.9086 71.5901L68.8844 71.6144L68.8601 71.6386L68.8359 71.6628L68.8116 71.6871L68.7874 71.7114L68.7631 71.7356L68.7388 71.7599L68.7145 71.7842L68.6901 71.8086L68.6658 71.8329L68.6415 71.8572L68.6171 71.8816L68.5927 71.906L68.5683 71.9304L68.5439 71.9548L68.5195 71.9792L68.4951 72.0036L68.4706 72.0281L68.4462 72.0525L68.4217 72.077L68.3972 72.1015L68.3727 72.126L68.3482 72.1506L68.3236 72.1751L68.299 72.1997L68.2745 72.2242L68.2499 72.2488L68.2253 72.2734L68.2006 72.2981L68.176 72.3227L68.1513 72.3474L68.1266 72.3721L68.102 72.3968L68.0772 72.4215L68.0525 72.4462L68.0277 72.471L68.003 72.4957L67.9782 72.5205L67.9534 72.5453L67.9285 72.5702L67.9037 72.595L67.8788 72.6199L67.8539 72.6448L67.829 72.6697L67.8041 72.6946L67.7791 72.7196L67.7541 72.7446L67.7291 72.7696L67.7041 72.7946L67.6791 72.8196L67.654 72.8447L67.6289 72.8698L67.6038 72.8949L67.5787 72.92L67.5535 72.9452L67.5284 72.9704L67.5032 72.9956L67.4779 73.0208L67.4527 73.046L67.4274 73.0713L67.4021 73.0966L67.3768 73.1219L67.3515 73.1472L67.3261 73.1726L67.3007 73.198L67.2753 73.2234L67.2499 73.2489L67.2244 73.2743L67.1989 73.2998L67.1734 73.3253L67.1478 73.3509L67.1223 73.3764L67.0967 73.402L67.071 73.4277L67.0454 73.4533L67.0197 73.479L66.994 73.5047L66.9683 73.5304L66.9425 73.5562L66.9167 73.582L66.8909 73.6078L66.8651 73.6336L66.8392 73.6595L66.8133 73.6854L66.7874 73.7113L66.7614 73.7373L66.7354 73.7633L66.7094 73.7893L66.6834 73.8153L66.6573 73.8414L66.6312 73.8675L66.605 73.8937L66.5789 73.9198L66.5527 73.946L66.5265 73.9723L66.5002 73.9985L66.4739 74.0248L66.4476 74.0511L66.4212 74.0775L66.3948 74.1039L66.3684 74.1303L66.342 74.1567L66.3155 74.1832L66.289 74.2097L66.2624 74.2363L66.2358 74.2629L66.2092 74.2895L66.1826 74.3161L66.1559 74.3428L66.1292 74.3696L66.1024 74.3963L66.0756 74.4231L66.0488 74.4499L66.0219 74.4768L65.995 74.5037L65.9681 74.5306L65.9412 74.5575L65.9142 74.5845L65.8871 74.6116L65.8601 74.6386L65.8329 74.6658L65.8058 74.6929L65.7786 74.7201L65.7514 74.7473L65.7242 74.7745L65.6969 74.8018L65.6695 74.8292L65.6422 74.8565L65.6148 74.8839L65.5873 74.9114L65.5599 74.9389L65.5323 74.9664L65.5048 74.9939L65.4772 75.0215L65.4495 75.0492L65.4219 75.0768L65.3941 75.1046L65.3664 75.1323L65.3386 75.1601L65.3108 75.1879L65.2829 75.2158L65.255 75.2437L65.227 75.2717L65.199 75.2997L65.171 75.3277L65.1429 75.3558L65.1148 75.3839L65.0866 75.4121L65.0584 75.4403L65.0302 75.4685L65.0019 75.4968L64.9735 75.5252L64.9452 75.5535L64.9167 75.582L64.8883 75.6104L64.8598 75.6389L64.8312 75.6675L64.8026 75.6961L64.774 75.7247L64.7453 75.7534L64.7166 75.7821L64.6878 75.8109L64.659 75.8397L64.6301 75.8686L64.6012 75.8975L64.5723 75.9264L64.5433 75.9554L64.5142 75.9845L64.4852 76.0135L64.456 76.0427L64.4268 76.0719L64.3976 76.1011L64.3683 76.1304L64.339 76.1597L64.3096 76.1891L64.2802 76.2185L64.2508 76.2479L64.2212 76.2775L64.1917 76.307L64.1621 76.3366L64.1324 76.3663L64.1027 76.396L64.0729 76.4258L64.0431 76.4556L64.0133 76.4854Z" fill="url(#paint0_linear_144_57776)" stroke="#A05C34" stroke-width="3"/>
<path d="M34.5869 30.585V31.124C34.5869 31.8278 34.3473 32.4118 33.8682 32.876C33.389 33.3402 32.7975 33.5723 32.0938 33.5723C31.39 33.5723 30.7985 33.3402 30.3193 32.876C29.8551 32.4118 29.623 31.8278 29.623 31.124V29.1025C29.623 28.4137 29.8626 27.8298 30.3418 27.3506L34.1152 23.5771C34.5195 23.0531 35.1035 22.791 35.8672 22.791H44.1104C44.8141 22.791 45.3906 23.0531 45.8398 23.5771L49.7031 27.3506C50.1673 27.8148 50.3994 28.3988 50.3994 29.1025V35.1221C50.3994 35.8258 50.1673 36.4098 49.7031 36.874L48.7373 37.7949C48.4678 38.0645 48.333 38.4313 48.333 38.8955C48.333 39.3896 48.4678 39.7715 48.7373 40.041L49.7031 40.9619C50.1673 41.4261 50.3994 42.0101 50.3994 42.7139V48.6885C50.3994 49.3923 50.1673 49.9762 49.7031 50.4404L45.8398 54.2139C45.3906 54.738 44.8141 55 44.1104 55H35.8672C35.1035 55 34.5195 54.738 34.1152 54.2139L30.3418 50.4404C29.8626 49.9613 29.623 49.3773 29.623 48.6885V46.667C29.623 45.9632 29.8551 45.3942 30.3193 44.96C30.7835 44.5107 31.375 44.2861 32.0938 44.2861C32.8125 44.2861 33.404 44.5107 33.8682 44.96C34.3473 45.3942 34.5869 45.9632 34.5869 46.667V47.2285C34.5869 47.513 34.6917 47.7601 34.9014 47.9697L36.5635 49.6094C36.7881 49.834 37.0651 49.9463 37.3945 49.9463H42.583C42.9124 49.9463 43.1895 49.834 43.4141 49.6094L45.0762 47.9697C45.2559 47.7451 45.3457 47.498 45.3457 47.2285V44.1963C45.3457 43.8968 45.2559 43.6348 45.0762 43.4102L43.4141 41.7031C43.1595 41.4935 42.8825 41.3887 42.583 41.3887H37.5742C36.8704 41.3887 36.279 41.1491 35.7998 40.6699C35.3206 40.1908 35.0811 39.5993 35.0811 38.8955C35.0811 38.1917 35.3132 37.6152 35.7773 37.166C36.2565 36.7018 36.8555 36.4697 37.5742 36.4697H42.583C42.8675 36.4697 43.1445 36.3574 43.4141 36.1328L45.0762 34.4482C45.2559 34.2236 45.3457 33.9616 45.3457 33.6621V30.585C45.3457 30.3154 45.2559 30.0684 45.0762 29.8438L43.4141 28.1816C43.2044 27.972 42.9274 27.8672 42.583 27.8672H37.3945C37.0501 27.8672 36.7731 27.972 36.5635 28.1816L34.9014 29.8438C34.6917 30.0534 34.5869 30.3005 34.5869 30.585Z" fill="#FAF5F0"/>
<defs>
<linearGradient id="paint0_linear_144_57776" x1="39" y1="0" x2="39" y2="78" gradientUnits="userSpaceOnUse">
<stop stop-color="#FDA57E"/>
<stop offset="1" stop-color="#D86327"/>
</linearGradient>
</defs>
</svg>
