<svg width="35" height="45" viewBox="0 0 35 45" fill="none" xmlns="http://www.w3.org/2000/svg">
<g id="49, Pendant, china, chinese, decoration">
<path id="Vector" d="M27.9256 44.7451C27.6729 44.741 27.4318 44.6389 27.2531 44.4602C27.0744 44.2815 26.9723 44.0404 26.9682 43.7877V40.9868C26.9723 40.7341 27.0744 40.493 27.2531 40.3143C27.4318 40.1356 27.6729 40.0334 27.9256 40.0294C28.0525 40.025 28.179 40.0467 28.2971 40.0932C28.4153 40.1398 28.5226 40.2101 28.6124 40.2999C28.7022 40.3897 28.7725 40.4971 28.8191 40.6152C28.8656 40.7334 28.8874 40.8598 28.883 40.9868V43.7877C28.8874 43.9147 28.8656 44.0411 28.8191 44.1593C28.7725 44.2774 28.7022 44.3847 28.6124 44.4745C28.5226 44.5643 28.4153 44.6347 28.2971 44.6813C28.179 44.7278 28.0525 44.7495 27.9256 44.7451Z" fill="#EF232C"/>
<path id="Vector_2" d="M25.2115 44.7452C24.9588 44.7411 24.7177 44.6389 24.539 44.4603C24.3603 44.2816 24.2581 44.0404 24.2541 43.7878V40.9868C24.2541 40.7329 24.355 40.4894 24.5345 40.3098C24.714 40.1303 24.9576 40.0294 25.2115 40.0294C25.4654 40.0294 25.7089 40.1303 25.8884 40.3098C26.068 40.4894 26.1689 40.7329 26.1689 40.9868V43.7878C26.1522 44.0362 26.046 44.2702 25.8699 44.4462C25.6938 44.6223 25.4599 44.7285 25.2115 44.7452Z" fill="#EF232C"/>
<path id="Vector_3" d="M31.359 29.9649L21.7771 29.9649C21.3048 29.967 20.8368 29.8755 20.4 29.6957C19.9632 29.5159 19.5664 29.2514 19.2324 28.9174C18.8984 28.5834 18.6339 28.1866 18.4541 27.7498C18.2743 27.313 18.1828 26.845 18.1849 26.3727L18.1849 6.64718C18.1828 6.17486 18.2743 5.7068 18.4541 5.27003C18.6339 4.83326 18.8984 4.43642 19.2324 4.10243C19.5664 3.76845 19.9632 3.50392 20.4 3.32414C20.8368 3.14436 21.3048 3.05287 21.7771 3.05497L31.2719 3.05497C31.7443 3.05287 32.2124 3.14436 32.6491 3.32414C33.0859 3.50392 33.4827 3.76845 33.8167 4.10243C34.1507 4.43642 34.4152 4.83326 34.595 5.27003C34.7748 5.7068 34.8663 6.17486 34.8642 6.64718V26.3727C34.8727 27.3129 34.5088 28.2184 33.8522 28.8914C33.1955 29.5644 32.2992 29.9503 31.359 29.9649ZM21.7771 4.96977C21.3329 4.97185 20.9074 5.14923 20.5933 5.46336C20.2792 5.77748 20.1018 6.20294 20.0997 6.64718L20.0997 26.3727C20.1018 26.8169 20.2792 27.2424 20.5933 27.5565C20.9074 27.8706 21.3329 28.048 21.7771 28.0501L31.2719 28.0501C31.7162 28.048 32.1417 27.8706 32.4558 27.5565C32.7699 27.2424 32.9473 26.8169 32.9494 26.3727V6.64718C32.9473 6.20294 32.7699 5.77748 32.4558 5.46336C32.1417 5.14923 31.7162 4.97185 31.2719 4.96977L21.7771 4.96977Z" fill="#EF232C"/>
<path id="Vector_4" d="M27.6077 29.9649H25.4476C24.9753 29.967 24.5072 29.8755 24.0705 29.6957C23.6337 29.5159 23.2369 29.2514 22.9029 28.9174C22.5689 28.5834 22.3044 28.1866 22.1246 27.7498C21.9448 27.313 21.8533 26.845 21.8554 26.3727L21.8554 6.64718C21.8533 6.17486 21.9448 5.7068 22.1246 5.27003C22.3044 4.83326 22.5689 4.43642 22.9029 4.10243C23.2369 3.76845 23.6337 3.50392 24.0705 3.32414C24.5072 3.14436 24.9753 3.05287 25.4476 3.05497L27.6077 3.05497C28.08 3.05287 28.548 3.14436 28.9848 3.32414C29.4216 3.50392 29.8184 3.76845 30.1524 4.10243C30.4864 4.43642 30.7509 4.83326 30.9307 5.27003C31.1105 5.7068 31.202 6.17486 31.1999 6.64718L31.1999 26.3727C31.202 26.845 31.1105 27.313 30.9307 27.7498C30.7509 28.1866 30.4864 28.5834 30.1524 28.9174C29.8184 29.2514 29.4216 29.5159 28.9848 29.6957C28.548 29.8755 28.08 29.967 27.6077 29.9649ZM25.5267 4.96977C25.0825 4.97185 24.6571 5.14923 24.3429 5.46336C24.0288 5.77748 23.8514 6.20294 23.8493 6.64718L23.8493 26.3727C23.8514 26.8169 24.0288 27.2424 24.3429 27.5565C24.6571 27.8706 25.0825 28.048 25.5267 28.0501H27.6868C28.131 28.048 28.5565 27.8706 28.8706 27.5565C29.1847 27.2424 29.3621 26.8169 29.3642 26.3727L29.3642 6.64718C29.3621 6.20294 29.1847 5.77748 28.8706 5.46336C28.5565 5.14923 28.131 4.97185 27.6868 4.96977H25.5267Z" fill="#EF232C"/>
<path id="Vector_5" d="M29.3651 4.96976L23.7711 4.96976C23.5184 4.96568 23.2772 4.8635 23.0986 4.68483C22.9199 4.50616 22.8178 4.265 22.8137 4.01236C22.8462 3.06585 23.2425 2.16833 23.92 1.5066C24.5975 0.844861 25.5041 0.46988 26.4511 0.459686C27.3981 0.449492 28.3126 0.804871 29.0042 1.45187C29.6959 2.09887 30.1114 2.98764 30.1642 3.93323V4.01236C30.1896 4.12988 30.1878 4.25161 30.159 4.36833C30.1302 4.48505 30.0752 4.59368 29.9982 4.68596C29.9211 4.77825 29.8241 4.85177 29.7144 4.90094C29.6047 4.95011 29.4852 4.97366 29.3651 4.96976ZM24.9737 3.13409L28.1387 3.13409C27.9833 2.85019 27.7544 2.61332 27.476 2.44831C27.1975 2.28331 26.8799 2.19625 26.5562 2.19625C26.2326 2.19625 25.9149 2.28331 25.6365 2.44831C25.3581 2.61332 25.1291 2.85019 24.9737 3.13409Z" fill="#EF232C"/>
<path id="Vector_6" d="M26.5719 36.4371C26.0173 36.4387 25.4746 36.2756 25.0128 35.9684C24.551 35.6612 24.1907 35.2239 23.9778 34.7117C23.7648 34.1996 23.7086 33.6358 23.8165 33.0917C23.9243 32.5476 24.1912 32.0478 24.5834 31.6556C24.9756 31.2634 25.4754 30.9965 26.0195 30.8886C26.5636 30.7808 27.1274 30.837 27.6395 31.0499C28.1517 31.2629 28.5891 31.6231 28.8962 32.085C29.2034 32.5468 29.3665 33.0894 29.365 33.6441C29.3547 34.3817 29.0572 35.0862 28.5356 35.6078C28.014 36.1294 27.3095 36.4269 26.5719 36.4371ZM26.5719 32.6867C26.3826 32.6867 26.1975 32.7428 26.04 32.848C25.8826 32.9532 25.7599 33.1028 25.6874 33.2777C25.6149 33.4526 25.596 33.6451 25.6329 33.8309C25.6699 34.0166 25.761 34.1872 25.8949 34.3211C26.0288 34.455 26.1994 34.5461 26.3851 34.5831C26.5708 34.62 26.7633 34.6011 26.9383 34.5286C27.1132 34.4561 27.2627 34.3334 27.3679 34.176C27.4731 34.0185 27.5293 33.8334 27.5293 33.6441C27.5126 33.3957 27.4064 33.1617 27.2304 32.9857C27.0543 32.8096 26.8204 32.7034 26.5719 32.6867Z" fill="#EF232C"/>
<path id="Vector_7" d="M28.8826 41.9442H24.2538C23.9385 41.9626 23.6228 41.9165 23.326 41.8085C23.0291 41.7005 22.7575 41.533 22.5277 41.3163C22.298 41.0996 22.1149 40.8382 21.9898 40.5482C21.8647 40.2582 21.8001 39.9457 21.8001 39.6298C21.8001 39.314 21.8647 39.0015 21.9898 38.7115C22.1149 38.4215 22.298 38.1601 22.5277 37.9434C22.7575 37.7266 23.0291 37.5592 23.326 37.4512C23.6228 37.3432 23.9385 37.297 24.2538 37.3155H28.8826C29.1979 37.297 29.5136 37.3432 29.8104 37.4512C30.1072 37.5592 30.3789 37.7266 30.6087 37.9434C30.8384 38.1601 31.0215 38.4215 31.1466 38.7115C31.2717 39.0015 31.3363 39.314 31.3363 39.6298C31.3363 39.9457 31.2717 40.2582 31.1466 40.5482C31.0215 40.8382 30.8384 41.0996 30.6087 41.3163C30.3789 41.533 30.1072 41.7005 29.8104 41.8085C29.5136 41.9165 29.1979 41.9626 28.8826 41.9442ZM24.2538 39.1511C24.1858 39.1424 24.1167 39.1482 24.0511 39.1683C23.9855 39.1883 23.9249 39.2221 23.8734 39.2674C23.8219 39.3127 23.7807 39.3685 23.7524 39.4309C23.7241 39.4934 23.7095 39.5613 23.7095 39.6298C23.7095 39.6984 23.7241 39.7662 23.7524 39.8287C23.7807 39.8912 23.8219 39.947 23.8734 39.9923C23.9249 40.0376 23.9855 40.0714 24.0511 40.0914C24.1167 40.1115 24.1858 40.1173 24.2538 40.1085H28.8826C28.9506 40.1173 29.0197 40.1115 29.0853 40.0914C29.1509 40.0714 29.2115 40.0376 29.263 39.9923C29.3145 39.947 29.3557 39.8912 29.384 39.8287C29.4123 39.7662 29.4269 39.6984 29.4269 39.6298C29.4269 39.5613 29.4123 39.4934 29.384 39.4309C29.3557 39.3685 29.3145 39.3127 29.263 39.2674C29.2115 39.2221 29.1509 39.1883 29.0853 39.1683C29.0197 39.1482 28.9506 39.1424 28.8826 39.1511H24.2538Z" fill="#EF232C"/>
<path id="Vector_8" d="M26.5717 39.1512C26.3177 39.1491 26.0746 39.0478 25.8942 38.869C25.7138 38.6901 25.6105 38.4478 25.6064 38.1938V35.4007C25.6105 35.1467 25.7138 34.9044 25.8942 34.7255C26.0746 34.5466 26.3177 34.4453 26.5717 34.4433C26.6987 34.4389 26.8251 34.4606 26.9433 34.5072C27.0614 34.5537 27.1687 34.6241 27.2585 34.7139C27.3483 34.8037 27.4187 34.911 27.4653 35.0292C27.5118 35.1473 27.5335 35.2738 27.5291 35.4007V38.1938C27.525 38.4464 27.4229 38.6876 27.2442 38.8662C27.0655 39.0449 26.8244 39.1471 26.5717 39.1512Z" fill="#EF232C"/>
<path id="Vector_9" d="M26.5717 32.6867C26.317 32.6827 26.0738 32.5796 25.8937 32.3995C25.7135 32.2193 25.6105 31.9762 25.6064 31.7214V28.9284C25.6125 28.675 25.7164 28.4338 25.8964 28.2554C26.0763 28.0769 26.3183 27.975 26.5717 27.971C26.6993 27.9654 26.8266 27.9863 26.9457 28.0324C27.0648 28.0784 27.1731 28.1486 27.2637 28.2385C27.3544 28.3285 27.4255 28.4362 27.4725 28.5549C27.5195 28.6736 27.5415 28.8008 27.537 28.9284V31.7214C27.533 31.9762 27.4299 32.2193 27.2498 32.3995C27.0696 32.5796 26.8265 32.6827 26.5717 32.6867Z" fill="#EF232C"/>
<path id="Vector_10" d="M26.5717 9.60638C26.3342 9.61139 26.1042 9.52337 25.9307 9.36109L24.9734 8.40371C24.8187 8.232 24.7359 8.0075 24.7419 7.77651C24.748 7.54553 24.8424 7.32567 25.0058 7.16228C25.1692 6.9989 25.3891 6.90444 25.6201 6.8984C25.851 6.89236 26.0755 6.97519 26.2472 7.12982L26.4846 7.36719L26.7299 7.12982C26.8118 7.03885 26.9114 6.9655 27.0226 6.91425C27.1338 6.863 27.2542 6.83493 27.3766 6.83173C27.499 6.82853 27.6207 6.85027 27.7344 6.89563C27.8481 6.941 27.9514 7.00905 28.038 7.09562C28.1246 7.18218 28.1926 7.28545 28.238 7.39916C28.2833 7.51287 28.3051 7.63462 28.3019 7.757C28.2987 7.87938 28.2706 7.99983 28.2193 8.11101C28.1681 8.2222 28.0948 8.32178 28.0038 8.40371L27.0464 9.36109C27.0464 9.51934 26.809 9.60638 26.5717 9.60638Z" fill="#EF232C"/>
<path id="Vector_11" d="M26.5717 13.2778C26.3352 13.2858 26.105 13.2005 25.9307 13.0404L24.9734 12.0751C24.8187 11.9034 24.7359 11.6789 24.7419 11.4479C24.748 11.2169 24.8424 10.9971 25.0058 10.8337C25.1692 10.6703 25.3891 10.5758 25.6201 10.5698C25.851 10.5637 26.0755 10.6466 26.2472 10.8012L26.4846 11.0386L26.7299 10.8012C26.8118 10.7102 26.9114 10.6369 27.0226 10.5856C27.1338 10.5344 27.2542 10.5063 27.3766 10.5031C27.499 10.4999 27.6207 10.5217 27.7344 10.567C27.8481 10.6124 27.9514 10.6804 28.038 10.767C28.1246 10.8536 28.1926 10.9568 28.238 11.0705C28.2833 11.1843 28.3051 11.306 28.3019 11.4284C28.2987 11.5508 28.2706 11.6712 28.2193 11.7824C28.1681 11.8936 28.0948 11.9932 28.0038 12.0751L27.0464 13.0404C27.0464 13.1986 26.809 13.2778 26.5717 13.2778Z" fill="#EF232C"/>
<path id="Vector_12" d="M26.5725 17.0283C26.336 17.0363 26.1058 16.9511 25.9316 16.7909L24.9742 15.8335C24.89 15.7499 24.8231 15.6505 24.7774 15.541C24.7317 15.4315 24.7079 15.3141 24.7076 15.1954C24.7072 15.0768 24.7302 14.9592 24.7753 14.8494C24.8203 14.7397 24.8866 14.6399 24.9702 14.5557C25.0539 14.4715 25.1533 14.4047 25.2627 14.3589C25.3722 14.3132 25.4897 14.2894 25.6083 14.2891C25.727 14.2887 25.8446 14.3117 25.9544 14.3568C26.0641 14.4018 26.1639 14.4681 26.2481 14.5517L26.4854 14.797L26.7307 14.5517C26.8149 14.4681 26.9147 14.4018 27.0245 14.3568C27.1342 14.3117 27.2518 14.2887 27.3705 14.2891C27.4891 14.2894 27.6066 14.3132 27.716 14.3589C27.8255 14.4047 27.9249 14.4715 28.0085 14.5557C28.0922 14.6399 28.1585 14.7397 28.2036 14.8494C28.2486 14.9592 28.2716 15.0768 28.2713 15.1954C28.2709 15.3141 28.2471 15.4315 28.2014 15.541C28.1556 15.6505 28.0888 15.7499 28.0046 15.8335L27.0472 16.7909C27.0472 16.8701 26.8099 17.0283 26.5725 17.0283Z" fill="#EF232C"/>
<path id="Vector_13" d="M26.5723 21.5857C26.3419 21.5825 26.1213 21.492 25.9551 21.3325L24.9977 20.3751C24.843 20.2034 24.7602 19.9789 24.7663 19.748C24.7723 19.517 24.8668 19.2971 25.0302 19.1337C25.1936 18.9703 25.4134 18.8759 25.6444 18.8698C25.8754 18.8638 26.0999 18.9466 26.2716 19.1013L26.509 19.3386L26.7542 19.1013C26.8362 19.0103 26.9358 18.9369 27.0469 18.8857C27.1581 18.8344 27.2786 18.8064 27.4009 18.8032C27.5233 18.8 27.6451 18.8217 27.7588 18.8671C27.8725 18.9124 27.9757 18.9805 28.0623 19.0671C28.1489 19.1536 28.2169 19.2569 28.2623 19.3706C28.3077 19.4843 28.3294 19.6061 28.3262 19.7284C28.323 19.8508 28.2949 19.9713 28.2437 20.0825C28.1925 20.1936 28.1191 20.2932 28.0281 20.3751L27.2369 21.3325C27.149 21.4176 27.0448 21.4839 26.9306 21.5274C26.8163 21.5709 26.6944 21.5908 26.5723 21.5857Z" fill="#EF232C"/>
<path id="Vector_14" d="M10.3588 44.7451C10.1054 44.7411 9.86345 44.6392 9.68351 44.4607C9.50357 44.2823 9.39965 44.0411 9.39355 43.7877V40.9868C9.41534 40.7468 9.52606 40.5237 9.70393 40.3613C9.88181 40.1988 10.114 40.1088 10.3549 40.1088C10.5958 40.1088 10.828 40.1988 11.0059 40.3613C11.1837 40.5237 11.2945 40.7468 11.3162 40.9868V43.7877C11.3207 43.9147 11.2989 44.0411 11.2524 44.1593C11.2058 44.2774 11.1355 44.3847 11.0457 44.4745C10.9559 44.5643 10.8486 44.6347 10.7304 44.6813C10.6123 44.7278 10.4858 44.7495 10.3588 44.7451Z" fill="#EF232C"/>
<path id="Vector_15" d="M7.63798 44.7452C7.38534 44.7412 7.14422 44.639 6.96555 44.4603C6.78688 44.2817 6.68469 44.0405 6.68062 43.7879L6.68062 40.9869C6.68469 40.7342 6.78688 40.4931 6.96555 40.3144C7.14422 40.1357 7.38534 40.0336 7.63798 40.0295C7.7649 40.0251 7.89139 40.0468 8.00955 40.0934C8.1277 40.1399 8.23501 40.2103 8.32481 40.3001C8.41461 40.3899 8.48495 40.4972 8.5315 40.6153C8.57805 40.7335 8.59981 40.86 8.59539 40.9869V43.7879C8.57871 44.0363 8.47247 44.2702 8.29641 44.4463C8.12035 44.6223 7.88641 44.7286 7.63798 44.7452Z" fill="#EF232C"/>
<path id="Vector_16" d="M13.7935 29.9649L4.20371 29.9649C3.73139 29.967 3.2633 29.8755 2.82653 29.6957C2.38976 29.5159 1.99293 29.2514 1.65895 28.9174C1.32496 28.5834 1.06044 28.1866 0.880656 27.7498C0.700873 27.313 0.609376 26.845 0.61147 26.3727L0.61147 6.64718C0.609376 6.17486 0.700873 5.7068 0.880656 5.27003C1.06044 4.83326 1.32496 4.43642 1.65895 4.10243C1.99293 3.76845 2.38976 3.50392 2.82653 3.32414C3.2633 3.14436 3.73139 3.05287 4.20371 3.05497L13.6985 3.05497C14.1712 3.05288 14.6396 3.14432 15.0769 3.32401C15.5141 3.5037 15.9114 3.76808 16.246 4.10196C16.5807 4.43584 16.8459 4.83261 17.0266 5.26942C17.2072 5.70624 17.2997 6.17448 17.2986 6.64718L17.2986 26.3727C17.3071 27.3129 16.9433 28.2184 16.2866 28.8914C15.6299 29.5644 14.7337 29.9503 13.7935 29.9649ZM4.20371 4.96977C3.75947 4.97185 3.33402 5.14923 3.0199 5.46336C2.70577 5.77748 2.52837 6.20294 2.52629 6.64718L2.52629 26.3727C2.52837 26.8169 2.70577 27.2424 3.0199 27.5565C3.33402 27.8706 3.75947 28.048 4.20371 28.0501L13.6985 28.0501C14.1428 28.048 14.5682 27.8706 14.8823 27.5565C15.1965 27.2424 15.3739 26.8169 15.3759 26.3727L15.3759 6.64718C15.3739 6.20294 15.1965 5.77748 14.8823 5.46336C14.5682 5.14923 14.1428 4.97185 13.6985 4.96977L4.20371 4.96977Z" fill="#EF232C"/>
<path id="Vector_17" d="M10.0353 29.9649H7.8831C7.41012 29.968 6.94125 29.8773 6.50356 29.698C6.06587 29.5187 5.6681 29.2543 5.33327 28.9202C4.99845 28.5861 4.73318 28.189 4.5529 27.7517C4.37263 27.3144 4.28089 26.8457 4.28299 26.3727L4.28299 6.64718C4.28195 6.17448 4.37443 5.70624 4.55508 5.26942C4.73573 4.83261 5.00098 4.43584 5.33559 4.10196C5.67021 3.76808 6.06756 3.5037 6.50477 3.32401C6.94198 3.14432 7.41041 3.05288 7.8831 3.05497L10.0353 3.05497C10.5076 3.05287 10.9756 3.14436 11.4124 3.32414C11.8492 3.50392 12.2461 3.76845 12.58 4.10243C12.914 4.43642 13.1786 4.83326 13.3583 5.27003C13.5381 5.7068 13.6296 6.17486 13.6275 6.64718L13.6275 26.3727C13.6306 26.8453 13.5399 27.3138 13.3605 27.7511C13.1811 28.1883 12.9166 28.5856 12.5824 28.9198C12.2482 29.254 11.8509 29.5185 11.4137 29.6979C10.9764 29.8773 10.5079 29.968 10.0353 29.9649ZM7.96226 4.96977C7.51802 4.97185 7.09257 5.14923 6.77845 5.46336C6.46432 5.77748 6.28692 6.20294 6.28484 6.64718L6.28484 26.3727C6.28692 26.8169 6.46432 27.2424 6.77845 27.5565C7.09257 27.8706 7.51802 28.048 7.96226 28.0501H10.1302C10.5745 28.048 10.9999 27.8706 11.314 27.5565C11.6282 27.2424 11.8056 26.8169 11.8076 26.3727L11.8076 6.64718C11.8056 6.20294 11.6282 5.77748 11.314 5.46336C10.9999 5.14923 10.5745 4.97185 10.1302 4.96977H7.96226Z" fill="#EF232C"/>
<path id="Vector_18" d="M11.792 4.96978L6.17428 4.96978C5.92101 4.96771 5.67868 4.86617 5.49958 4.68707C5.32048 4.50797 5.21894 4.26565 5.21687 4.01238C5.20638 3.03868 5.58312 2.10069 6.26421 1.40476C6.94529 0.708837 7.87496 0.311975 8.84866 0.301483C9.82236 0.290991 10.7603 0.667728 11.4563 1.34882C12.1522 2.02991 12.5491 2.95955 12.5596 3.93325V4.01238C12.5842 4.12726 12.583 4.24618 12.556 4.36053C12.529 4.47488 12.4768 4.58178 12.4033 4.67346C12.3298 4.76514 12.2368 4.8393 12.1311 4.89055C12.0254 4.9418 11.9095 4.96887 11.792 4.96978ZM7.40069 3.13411L10.5656 3.13411C10.4085 2.85233 10.179 2.61763 9.90078 2.45425C9.62258 2.29086 9.30579 2.20472 8.98316 2.20472C8.66053 2.20472 8.34379 2.29086 8.06559 2.45425C7.78739 2.61763 7.55783 2.85233 7.40069 3.13411Z" fill="#EF232C"/>
<path id="Vector_19" d="M8.99838 36.4371C8.44373 36.4387 7.90111 36.2756 7.43928 35.9684C6.97746 35.6612 6.6172 35.2239 6.40422 34.7117C6.19124 34.1996 6.13509 33.6358 6.24292 33.0917C6.35074 32.5476 6.61771 32.0478 7.00991 31.6556C7.40211 31.2634 7.90188 30.9965 8.44595 30.8886C8.99003 30.7808 9.55386 30.837 10.066 31.0499C10.5781 31.2629 11.0155 31.6231 11.3227 32.085C11.6299 32.5468 11.793 33.0894 11.7914 33.6441C11.7812 34.3817 11.4836 35.0862 10.962 35.6078C10.4404 36.1294 9.73596 36.4269 8.99838 36.4371ZM8.99838 32.6867C8.80903 32.6867 8.62392 32.7428 8.46648 32.848C8.30904 32.9532 8.18631 33.1028 8.11384 33.2777C8.04138 33.4526 8.02243 33.6451 8.05937 33.8309C8.09631 34.0166 8.18751 34.1872 8.32141 34.3211C8.4553 34.455 8.62587 34.5461 8.81158 34.5831C8.9973 34.62 9.18979 34.6011 9.36473 34.5286C9.53967 34.4561 9.6892 34.3334 9.7944 34.176C9.8996 34.0185 9.95579 33.8334 9.95579 33.6441C9.94077 33.3951 9.83504 33.1602 9.65864 32.9838C9.48225 32.8074 9.24739 32.7017 8.99838 32.6867Z" fill="#EF232C"/>
<path id="Vector_20" d="M11.317 41.9442H6.68035C6.08994 41.9096 5.53503 41.6507 5.12923 41.2205C4.72342 40.7903 4.49741 40.2212 4.49741 39.6298C4.49741 39.0384 4.72342 38.4693 5.12923 38.0391C5.53503 37.6088 6.08994 37.35 6.68035 37.3154H11.317C11.9074 37.35 12.4623 37.6088 12.8681 38.0391C13.2739 38.4693 13.4999 39.0384 13.4999 39.6298C13.4999 40.2212 13.2739 40.7903 12.8681 41.2205C12.4623 41.6507 11.9074 41.9096 11.317 41.9442ZM6.68035 39.1511C6.56399 39.1661 6.45706 39.223 6.37958 39.3111C6.3021 39.3992 6.25938 39.5125 6.25938 39.6298C6.25938 39.7471 6.3021 39.8604 6.37958 39.9485C6.45706 40.0366 6.56399 40.0935 6.68035 40.1085H11.317C11.4333 40.0935 11.5403 40.0366 11.6177 39.9485C11.6952 39.8604 11.7379 39.7471 11.7379 39.6298C11.7379 39.5125 11.6952 39.3992 11.6177 39.3111C11.5403 39.223 11.4333 39.1661 11.317 39.1511H6.68035Z" fill="#EF232C"/>
<path id="Vector_21" d="M8.99853 39.1511C8.74526 39.1491 8.50293 39.0475 8.32383 38.8684C8.14473 38.6893 8.04319 38.447 8.04112 38.1937V35.4007C8.04319 35.1474 8.14473 34.9051 8.32383 34.726C8.50293 34.5469 8.74526 34.4453 8.99853 34.4433C9.12576 34.4377 9.25276 34.4586 9.37145 34.5047C9.49015 34.5508 9.59792 34.6212 9.68797 34.7112C9.77801 34.8013 9.84834 34.909 9.89447 35.0277C9.9406 35.1464 9.96156 35.2734 9.95595 35.4007V38.1937C9.95388 38.447 9.85234 38.6893 9.67324 38.8684C9.49414 39.0475 9.25181 39.1491 8.99853 39.1511Z" fill="#EF232C"/>
<path id="Vector_22" d="M8.99853 32.6868C8.74454 32.6827 8.50223 32.5794 8.32335 32.399C8.14446 32.2187 8.04315 31.9755 8.04112 31.7215V28.9284C8.0452 28.6758 8.14738 28.4346 8.32605 28.2559C8.50472 28.0773 8.74589 27.9751 8.99853 27.971C9.12545 27.9666 9.2519 27.9883 9.37005 28.0349C9.48821 28.0814 9.59556 28.1518 9.68536 28.2416C9.77516 28.3314 9.8455 28.4387 9.89205 28.5569C9.9386 28.675 9.96036 28.8015 9.95595 28.9284V31.7215C9.95391 31.9755 9.85261 32.2187 9.67372 32.399C9.49483 32.5794 9.25253 32.6827 8.99853 32.6868Z" fill="#EF232C"/>
<path id="Vector_23" d="M8.9986 9.60647C8.76143 9.60983 8.53202 9.52203 8.3577 9.36119L7.40029 8.4038C7.31665 8.31964 7.2504 8.21981 7.20533 8.11005C7.16026 8.00028 7.13726 7.88272 7.13762 7.76406C7.13799 7.6454 7.16171 7.52797 7.20746 7.41849C7.2532 7.309 7.32009 7.2096 7.40425 7.12595C7.48841 7.04231 7.58825 6.97606 7.69802 6.93099C7.80778 6.88592 7.92533 6.86292 8.04399 6.86329C8.16265 6.86365 8.28009 6.88738 8.38957 6.93313C8.49906 6.97888 8.59844 7.04575 8.68209 7.12991L8.91945 7.36728L9.15686 7.12991C9.32578 6.95993 9.55531 6.86403 9.79495 6.86329C10.0346 6.86254 10.2647 6.95702 10.4347 7.12595C10.6047 7.29488 10.7006 7.52442 10.7013 7.76406C10.7021 8.0037 10.6076 8.23382 10.4387 8.4038L9.48124 9.36119C9.48124 9.51943 9.23597 9.60647 8.9986 9.60647Z" fill="#EF232C"/>
<path id="Vector_24" d="M8.9986 13.2777C8.76237 13.2841 8.53281 13.1991 8.3577 13.0404L7.40029 12.0751C7.31665 11.9909 7.2504 11.8911 7.20533 11.7813C7.16026 11.6716 7.13726 11.554 7.13762 11.4353C7.13799 11.3167 7.16171 11.1992 7.20746 11.0898C7.2532 10.9803 7.32009 10.8809 7.40425 10.7972C7.48841 10.7136 7.58825 10.6473 7.69802 10.6023C7.80778 10.5572 7.92533 10.5342 8.04399 10.5346C8.16265 10.5349 8.28009 10.5586 8.38957 10.6044C8.49906 10.6501 8.59844 10.717 8.68209 10.8012L8.91945 11.0385L9.15686 10.8012C9.32578 10.6312 9.55531 10.5353 9.79495 10.5346C10.0346 10.5338 10.2647 10.6283 10.4347 10.7972C10.6047 10.9661 10.7006 11.1957 10.7013 11.4353C10.7021 11.675 10.6076 11.9051 10.4387 12.0751L9.48124 13.0404C9.48124 13.1986 9.23597 13.2777 8.9986 13.2777Z" fill="#EF232C"/>
<path id="Vector_25" d="M8.99833 17.0282C8.76211 17.0345 8.53254 16.9495 8.35743 16.7908L7.40002 15.8334C7.30321 15.7524 7.22435 15.6521 7.16841 15.5389C7.11247 15.4257 7.08068 15.3021 7.07511 15.1759C7.06953 15.0498 7.09027 14.9239 7.136 14.8062C7.18173 14.6885 7.25144 14.5816 7.34072 14.4923C7.43 14.4031 7.53689 14.3333 7.65458 14.2876C7.77227 14.2419 7.89822 14.2211 8.02436 14.2267C8.1505 14.2323 8.27409 14.2641 8.38728 14.32C8.50047 14.3759 8.60077 14.4548 8.68182 14.5516L8.91918 14.7969L9.15659 14.5516C9.33097 14.4056 9.55367 14.3302 9.78088 14.3403C10.0081 14.3503 10.2233 14.4451 10.3841 14.6059C10.5449 14.7667 10.6397 14.9819 10.6497 15.2091C10.6598 15.4363 10.5844 15.6591 10.4384 15.8334L9.48097 16.7908C9.48097 16.8699 9.2357 17.0282 8.99833 17.0282Z" fill="#EF232C"/>
<path id="Vector_26" d="M8.9986 21.5857C8.76143 21.5891 8.53202 21.5013 8.3577 21.3404L7.40029 20.383C7.31665 20.2989 7.2504 20.1991 7.20533 20.0893C7.16026 19.9795 7.13726 19.862 7.13762 19.7433C7.13799 19.6247 7.16171 19.5072 7.20746 19.3977C7.2532 19.2882 7.32009 19.1888 7.40425 19.1052C7.48841 19.0216 7.58825 18.9553 7.69802 18.9102C7.80778 18.8652 7.92533 18.8422 8.04399 18.8425C8.16265 18.8429 8.28009 18.8666 8.38957 18.9124C8.49906 18.9581 8.59844 19.025 8.68209 19.1092L8.91945 19.3465L9.15686 19.1092C9.32578 18.9392 9.55531 18.8433 9.79495 18.8425C10.0346 18.8418 10.2647 18.9363 10.4347 19.1052C10.6047 19.2741 10.7006 19.5037 10.7013 19.7433C10.7021 19.983 10.6076 20.2131 10.4387 20.383L9.64742 21.3404C9.47111 21.5032 9.23849 21.5911 8.9986 21.5857Z" fill="#EF232C"/>
</g>
</svg>
