<svg width="18" height="24" viewBox="0 0 18 24" fill="none" xmlns="http://www.w3.org/2000/svg">
<g id="49, Pendant, china, chinese, decoration">
<path id="Vector" d="M14.2128 23.1111C14.0865 23.109 13.9659 23.058 13.8766 22.9686C13.7872 22.8793 13.7362 22.7587 13.7341 22.6324V21.2319C13.7362 21.1056 13.7872 20.985 13.8766 20.8957C13.9659 20.8063 14.0865 20.7552 14.2128 20.7532C14.2763 20.751 14.3395 20.7619 14.3986 20.7851C14.4577 20.8084 14.5113 20.8436 14.5562 20.8885C14.6011 20.9334 14.6363 20.9871 14.6596 21.0461C14.6828 21.1052 14.6937 21.1684 14.6915 21.2319V22.6324C14.6937 22.6959 14.6828 22.7591 14.6596 22.8182C14.6363 22.8772 14.6011 22.9309 14.5562 22.9758C14.5113 23.0207 14.4577 23.0559 14.3986 23.0792C14.3395 23.1024 14.2763 23.1133 14.2128 23.1111Z" fill="white"/>
<path id="Vector_2" d="M12.8557 23.1108C12.7293 23.1088 12.6088 23.0577 12.5194 22.9683C12.4301 22.879 12.379 22.7584 12.377 22.6321V21.2316C12.377 21.1047 12.4274 20.9829 12.5172 20.8931C12.6069 20.8034 12.7287 20.7529 12.8557 20.7529C12.9826 20.7529 13.1044 20.8034 13.1941 20.8931C13.2839 20.9829 13.3344 21.1047 13.3344 21.2316V22.6321C13.326 22.7563 13.2729 22.8733 13.1849 22.9613C13.0968 23.0494 12.9799 23.1025 12.8557 23.1108Z" fill="white"/>
<path id="Vector_3" d="M15.9296 15.7206L11.1386 15.7206C10.9025 15.7216 10.6685 15.6759 10.4501 15.586C10.2317 15.4961 10.0333 15.3639 9.86629 15.1969C9.69929 15.0299 9.56703 14.8315 9.47714 14.6131C9.38725 14.3947 9.3415 14.1606 9.34255 13.9245L9.34255 4.06175C9.3415 3.82559 9.38725 3.59156 9.47714 3.37317C9.56703 3.15479 9.69929 2.95637 9.86629 2.78938C10.0333 2.62238 10.2317 2.49012 10.4501 2.40023C10.6685 2.31034 10.9025 2.2646 11.1386 2.26564L15.8861 2.26564C16.1222 2.2646 16.3563 2.31034 16.5746 2.40023C16.793 2.49012 16.9914 2.62238 17.1584 2.78938C17.3254 2.95637 17.4577 3.15479 17.5476 3.37317C17.6375 3.59156 17.6832 3.82559 17.6822 4.06175V13.9245C17.6864 14.3946 17.5045 14.8473 17.1762 15.1838C16.8478 15.5203 16.3997 15.7133 15.9296 15.7206ZM11.1386 3.22304C10.9165 3.22408 10.7038 3.31277 10.5467 3.46984C10.3897 3.6269 10.301 3.83963 10.2999 4.06175L10.2999 13.9245C10.301 14.1466 10.3897 14.3593 10.5467 14.5164C10.7038 14.6735 10.9165 14.7622 11.1386 14.7632L15.8861 14.7632C16.1082 14.7622 16.3209 14.6735 16.478 14.5164C16.635 14.3593 16.7237 14.1466 16.7248 13.9245V4.06175C16.7237 3.83963 16.635 3.6269 16.478 3.46984C16.3209 3.31277 16.1082 3.22408 15.8861 3.22304L11.1386 3.22304Z" fill="white"/>
<path id="Vector_4" d="M14.0539 15.7206H12.9738C12.7377 15.7216 12.5037 15.6759 12.2853 15.586C12.0669 15.4961 11.8685 15.3639 11.7015 15.1969C11.5345 15.0299 11.4022 14.8315 11.3123 14.6131C11.2225 14.3947 11.1767 14.1606 11.1778 13.9245L11.1778 4.06175C11.1767 3.82559 11.2225 3.59156 11.3123 3.37317C11.4022 3.15479 11.5345 2.95637 11.7015 2.78938C11.8685 2.62238 12.0669 2.49012 12.2853 2.40023C12.5037 2.31034 12.7377 2.2646 12.9738 2.26564L14.0539 2.26564C14.2901 2.2646 14.5241 2.31034 14.7425 2.40023C14.9608 2.49012 15.1593 2.62238 15.3263 2.78938C15.4932 2.95637 15.6255 3.15479 15.7154 3.37317C15.8053 3.59156 15.851 3.82559 15.85 4.06175L15.85 13.9245C15.851 14.1606 15.8053 14.3947 15.7154 14.6131C15.6255 14.8315 15.4932 15.0299 15.3263 15.1969C15.1593 15.3639 14.9608 15.4961 14.7425 15.586C14.5241 15.6759 14.2901 15.7216 14.0539 15.7206ZM13.0134 3.22304C12.7913 3.22408 12.5786 3.31277 12.4215 3.46984C12.2645 3.6269 12.1758 3.83963 12.1747 4.06175L12.1747 13.9245C12.1758 14.1466 12.2645 14.3593 12.4215 14.5164C12.5786 14.6735 12.7913 14.7622 13.0134 14.7632H14.0935C14.3156 14.7622 14.5283 14.6735 14.6854 14.5164C14.8424 14.3593 14.9311 14.1466 14.9322 13.9245L14.9322 4.06175C14.9311 3.83963 14.8424 3.6269 14.6854 3.46984C14.5283 3.31277 14.3156 3.22408 14.0935 3.22304H13.0134Z" fill="white"/>
<path id="Vector_5" d="M14.9326 3.22316L12.1355 3.22316C12.0092 3.22112 11.8886 3.17003 11.7993 3.0807C11.71 2.99136 11.6589 2.87078 11.6569 2.74446C11.6731 2.27121 11.8712 1.82245 12.21 1.49158C12.5488 1.16071 13.0021 0.973221 13.4756 0.968124C13.9491 0.963027 14.4063 1.14072 14.7521 1.46422C15.0979 1.78771 15.3057 2.2321 15.3321 2.7049V2.74446C15.3448 2.80322 15.3439 2.86409 15.3295 2.92245C15.3151 2.9808 15.2876 3.03512 15.2491 3.08126C15.2106 3.12741 15.1621 3.16417 15.1072 3.18875C15.0524 3.21334 14.9926 3.22511 14.9326 3.22316ZM12.7369 2.30533L14.3194 2.30533C14.2417 2.16338 14.1272 2.04494 13.988 1.96244C13.8488 1.87994 13.6899 1.8364 13.5281 1.8364C13.3663 1.8364 13.2075 1.87994 13.0683 1.96244C12.929 2.04494 12.8146 2.16338 12.7369 2.30533Z" fill="white"/>
<path id="Vector_6" d="M13.536 18.957C13.2587 18.9578 12.9874 18.8762 12.7565 18.7226C12.5256 18.569 12.3454 18.3503 12.239 18.0943C12.1325 17.8382 12.1044 17.5563 12.1583 17.2842C12.2122 17.0122 12.3457 16.7623 12.5418 16.5662C12.7379 16.3701 12.9878 16.2366 13.2598 16.1827C13.5319 16.1288 13.8138 16.1569 14.0698 16.2634C14.3259 16.3699 14.5446 16.55 14.6982 16.7809C14.8518 17.0118 14.9333 17.2831 14.9326 17.5604C14.9274 17.9292 14.7787 18.2815 14.5179 18.5423C14.2571 18.8031 13.9048 18.9519 13.536 18.957ZM13.536 17.0817C13.4414 17.0817 13.3488 17.1098 13.2701 17.1624C13.1914 17.215 13.13 17.2898 13.0938 17.3773C13.0575 17.4647 13.0481 17.561 13.0665 17.6538C13.085 17.7467 13.1306 17.832 13.1975 17.8989C13.2645 17.9659 13.3498 18.0115 13.4426 18.0299C13.5355 18.0484 13.6317 18.0389 13.7192 18.0027C13.8067 17.9665 13.8814 17.9051 13.934 17.8264C13.9866 17.7477 14.0147 17.6551 14.0147 17.5604C14.0064 17.4362 13.9533 17.3193 13.8653 17.2312C13.7772 17.1432 13.6603 17.0901 13.536 17.0817Z" fill="white"/>
<path id="Vector_7" d="M14.6914 21.7104H12.377C12.2193 21.7196 12.0615 21.6965 11.9131 21.6425C11.7646 21.5885 11.6288 21.5048 11.5139 21.3964C11.3991 21.2881 11.3075 21.1574 11.245 21.0124C11.1824 20.8674 11.1501 20.7111 11.1501 20.5532C11.1501 20.3953 11.1824 20.239 11.245 20.094C11.3075 19.949 11.3991 19.8183 11.5139 19.71C11.6288 19.6016 11.7646 19.5179 11.9131 19.4639C12.0615 19.4099 12.2193 19.3868 12.377 19.396H14.6914C14.849 19.3868 15.0069 19.4099 15.1553 19.4639C15.3037 19.5179 15.4395 19.6016 15.5544 19.71C15.6693 19.8183 15.7608 19.949 15.8234 20.094C15.8859 20.239 15.9182 20.3953 15.9182 20.5532C15.9182 20.7111 15.8859 20.8674 15.8234 21.0124C15.7608 21.1574 15.6693 21.2881 15.5544 21.3964C15.4395 21.5048 15.3037 21.5885 15.1553 21.6425C15.0069 21.6965 14.849 21.7196 14.6914 21.7104ZM12.377 20.3139C12.343 20.3095 12.3084 20.3124 12.2756 20.3224C12.2428 20.3324 12.2125 20.3493 12.1868 20.372C12.161 20.3946 12.1404 20.4225 12.1263 20.4538C12.1121 20.485 12.1048 20.5189 12.1048 20.5532C12.1048 20.5875 12.1121 20.6214 12.1263 20.6527C12.1404 20.6839 12.161 20.7118 12.1868 20.7344C12.2125 20.7571 12.2428 20.774 12.2756 20.784C12.3084 20.794 12.343 20.7969 12.377 20.7926H14.6914C14.7254 20.7969 14.7599 20.794 14.7927 20.784C14.8255 20.774 14.8558 20.7571 14.8816 20.7344C14.9073 20.7118 14.9279 20.6839 14.9421 20.6527C14.9562 20.6214 14.9635 20.5875 14.9635 20.5532C14.9635 20.5189 14.9562 20.485 14.9421 20.4538C14.9279 20.4225 14.9073 20.3946 14.8816 20.372C14.8558 20.3493 14.8255 20.3324 14.7927 20.3224C14.7599 20.3124 14.7254 20.3095 14.6914 20.3139H12.377Z" fill="white"/>
<path id="Vector_8" d="M13.5359 20.3139C13.4089 20.3129 13.2873 20.2623 13.1971 20.1728C13.1069 20.0834 13.0553 19.9622 13.0532 19.8352V18.4387C13.0553 18.3117 13.1069 18.1905 13.1971 18.1011C13.2873 18.0116 13.4089 17.961 13.5359 17.96C13.5993 17.9578 13.6626 17.9687 13.7216 17.9919C13.7807 18.0152 13.8344 18.0504 13.8793 18.0953C13.9242 18.1402 13.9594 18.1938 13.9826 18.2529C14.0059 18.312 14.0168 18.3752 14.0146 18.4387V19.8352C14.0125 19.9615 13.9614 20.0821 13.8721 20.1715C13.7828 20.2608 13.6622 20.3119 13.5359 20.3139Z" fill="white"/>
<path id="Vector_9" d="M13.5359 17.0817C13.4085 17.0797 13.2869 17.0282 13.1968 16.9381C13.1068 16.848 13.0553 16.7264 13.0532 16.5991V15.2025C13.0563 15.0758 13.1082 14.9553 13.1982 14.866C13.2882 14.7768 13.4092 14.7258 13.5359 14.7238C13.5997 14.7211 13.6633 14.7315 13.7229 14.7545C13.7824 14.7776 13.8366 14.8127 13.8819 14.8576C13.9272 14.9026 13.9628 14.9564 13.9863 15.0158C14.0098 15.0751 14.0208 15.1387 14.0185 15.2025V16.5991C14.0165 16.7264 13.965 16.848 13.8749 16.9381C13.7848 17.0282 13.6633 17.0797 13.5359 17.0817Z" fill="#FFF4DD"/>
<path id="Vector_10" d="M13.5359 5.54153C13.4171 5.54404 13.3021 5.50003 13.2154 5.41889L12.7367 4.9402C12.6594 4.85434 12.618 4.74209 12.621 4.6266C12.624 4.5111 12.6712 4.40118 12.7529 4.31948C12.8346 4.23779 12.9446 4.19056 13.0601 4.18754C13.1756 4.18452 13.2878 4.22594 13.3737 4.30325L13.4923 4.42194L13.615 4.30325C13.6559 4.25777 13.7057 4.22109 13.7613 4.19547C13.8169 4.16984 13.8771 4.15581 13.9383 4.15421C13.9995 4.15261 14.0604 4.16348 14.1172 4.18616C14.1741 4.20884 14.2257 4.24287 14.269 4.28615C14.3123 4.32943 14.3463 4.38107 14.369 4.43792C14.3917 4.49478 14.4026 4.55565 14.401 4.61684C14.3994 4.67803 14.3853 4.73826 14.3597 4.79385C14.3341 4.84944 14.2974 4.89923 14.2519 4.9402L13.7732 5.41889C13.7732 5.49801 13.6546 5.54153 13.5359 5.54153Z" fill="#FFF4DD"/>
<path id="Vector_11" d="M13.5359 7.37723C13.4176 7.38123 13.3025 7.33861 13.2154 7.25854L12.7367 6.77589C12.6594 6.69004 12.618 6.57779 12.621 6.46229C12.624 6.3468 12.6712 6.23687 12.7529 6.15518C12.8346 6.07348 12.9446 6.02625 13.0601 6.02323C13.1756 6.02021 13.2878 6.06163 13.3737 6.13894L13.4923 6.25763L13.615 6.13894C13.6559 6.09346 13.7057 6.05678 13.7613 6.03116C13.8169 6.00554 13.8771 5.9915 13.9383 5.9899C13.9995 5.9883 14.0604 5.99917 14.1172 6.02185C14.1741 6.04454 14.2257 6.07856 14.269 6.12184C14.3123 6.16513 14.3463 6.21676 14.369 6.27362C14.3917 6.33047 14.4026 6.39135 14.401 6.45254C14.3994 6.51373 14.3853 6.57395 14.3597 6.62954C14.3341 6.68513 14.2974 6.73493 14.2519 6.77589L13.7732 7.25854C13.7732 7.33767 13.6546 7.37723 13.5359 7.37723Z" fill="#FFF4DD"/>
<path id="Vector_12" d="M13.5362 9.25243C13.418 9.25644 13.3029 9.21381 13.2158 9.13375L12.7371 8.65505C12.695 8.61323 12.6616 8.56353 12.6387 8.50878C12.6158 8.45404 12.6039 8.39533 12.6038 8.336C12.6036 8.27667 12.6151 8.21788 12.6376 8.163C12.6602 8.10812 12.6933 8.05821 12.7351 8.01613C12.7769 7.97405 12.8266 7.94062 12.8814 7.91774C12.9361 7.89487 12.9948 7.883 13.0541 7.88281C13.1135 7.88263 13.1723 7.89413 13.2272 7.91667C13.282 7.9392 13.3319 7.97233 13.374 8.01415L13.4927 8.13679L13.6153 8.01415C13.6574 7.97233 13.7073 7.9392 13.7622 7.91667C13.8171 7.89413 13.8759 7.88263 13.9352 7.88281C13.9945 7.883 14.0533 7.89487 14.108 7.91774C14.1627 7.94062 14.2124 7.97405 14.2543 8.01613C14.2961 8.05821 14.3292 8.10812 14.3518 8.163C14.3743 8.21788 14.3858 8.27667 14.3856 8.336C14.3854 8.39533 14.3735 8.45404 14.3507 8.50878C14.3278 8.56353 14.2944 8.61323 14.2523 8.65505L13.7736 9.13375C13.7736 9.17331 13.6549 9.25243 13.5362 9.25243Z" fill="#FFF4DD"/>
<path id="Vector_13" d="M13.5362 11.5313C13.421 11.5297 13.3108 11.4845 13.2276 11.4047L12.7489 10.926C12.6716 10.8402 12.6302 10.7279 12.6332 10.6124C12.6362 10.497 12.6835 10.387 12.7652 10.3053C12.8469 10.2236 12.9568 10.1764 13.0723 10.1734C13.1878 10.1704 13.3 10.2118 13.3859 10.2891L13.5046 10.4078L13.6272 10.2891C13.6682 10.2436 13.718 10.2069 13.7736 10.1813C13.8291 10.1557 13.8894 10.1416 13.9506 10.14C14.0117 10.1384 14.0726 10.1493 14.1295 10.172C14.1863 10.1947 14.238 10.2287 14.2812 10.272C14.3245 10.3153 14.3585 10.3669 14.3812 10.4238C14.4039 10.4806 14.4148 10.5415 14.4132 10.6027C14.4116 10.6639 14.3976 10.7241 14.3719 10.7797C14.3463 10.8353 14.3096 10.8851 14.2641 10.926L13.8685 11.4047C13.8246 11.4473 13.7725 11.4804 13.7154 11.5022C13.6582 11.5239 13.5973 11.5339 13.5362 11.5313Z" fill="#FFF4DD"/>
<path id="Vector_14" d="M5.42942 23.1109C5.30272 23.1089 5.18172 23.0579 5.09175 22.9687C5.00178 22.8795 4.94983 22.7589 4.94678 22.6322V21.2317C4.95767 21.1118 5.01303 21.0002 5.10197 20.919C5.19091 20.8378 5.30699 20.7927 5.42744 20.7927C5.54789 20.7927 5.664 20.8378 5.75293 20.919C5.84187 21.0002 5.89723 21.1118 5.90812 21.2317V22.6322C5.91033 22.6957 5.89945 22.7589 5.87618 22.818C5.8529 22.8771 5.81773 22.9307 5.77283 22.9756C5.72793 23.0205 5.67428 23.0557 5.6152 23.079C5.55613 23.1022 5.49288 23.1131 5.42942 23.1109Z" fill="#FFF4DD"/>
<path id="Vector_15" d="M4.06901 23.1111C3.94269 23.109 3.82213 23.058 3.7328 22.9686C3.64346 22.8793 3.59237 22.7587 3.59033 22.6324L3.59033 21.2319C3.59237 21.1056 3.64346 20.985 3.7328 20.8957C3.82213 20.8063 3.94269 20.7552 4.06901 20.7532C4.13247 20.751 4.19572 20.7619 4.2548 20.7851C4.31388 20.8084 4.36753 20.8436 4.41243 20.8885C4.45733 20.9334 4.4925 20.9871 4.51577 21.0461C4.53905 21.1052 4.54993 21.1684 4.54772 21.2319V22.6324C4.53938 22.7566 4.48626 22.8736 4.39823 22.9616C4.3102 23.0496 4.19323 23.1027 4.06901 23.1111Z" fill="#FFF4DD"/>
<path id="Vector_16" d="M7.14668 15.7206L2.3518 15.7206C2.11564 15.7216 1.8816 15.6759 1.66321 15.586C1.44483 15.4961 1.24641 15.3639 1.07942 15.1969C0.912428 15.0299 0.780166 14.8315 0.690275 14.6131C0.600383 14.3947 0.554634 14.1606 0.555682 13.9245L0.555682 4.06175C0.554634 3.82559 0.600383 3.59156 0.690275 3.37317C0.780166 3.15479 0.912428 2.95637 1.07942 2.78938C1.24641 2.62238 1.44483 2.49012 1.66321 2.40023C1.8816 2.31034 2.11564 2.2646 2.3518 2.26564L7.09921 2.26564C7.33556 2.2646 7.56977 2.31032 7.78838 2.40016C8.00698 2.49001 8.20566 2.6222 8.37296 2.78914C8.54027 2.95608 8.6729 3.15446 8.76322 3.37287C8.85355 3.59128 8.89979 3.8254 8.89926 4.06175L8.89926 13.9245C8.9035 14.3946 8.72159 14.8473 8.39325 15.1838C8.0649 15.5203 7.61678 15.7133 7.14668 15.7206ZM2.3518 3.22304C2.12968 3.22408 1.91696 3.31277 1.7599 3.46984C1.60283 3.6269 1.51413 3.83963 1.51309 4.06175L1.51309 13.9245C1.51413 14.1466 1.60283 14.3593 1.7599 14.5164C1.91696 14.6735 2.12968 14.7622 2.3518 14.7632L7.09921 14.7632C7.32133 14.7622 7.53405 14.6735 7.69111 14.5164C7.84818 14.3593 7.93688 14.1466 7.93792 13.9245L7.93792 4.06175C7.93688 3.83963 7.84818 3.6269 7.69111 3.46984C7.53405 3.31277 7.32133 3.22408 7.09921 3.22304L2.3518 3.22304Z" fill="#FFF4DD"/>
<path id="Vector_17" d="M5.26764 15.7206H4.19155C3.95506 15.7222 3.72063 15.6768 3.50178 15.5872C3.28294 15.4975 3.08405 15.3653 2.91664 15.1983C2.74922 15.0312 2.61659 14.8326 2.52645 14.614C2.43631 14.3953 2.39045 14.161 2.3915 13.9245L2.3915 4.06175C2.39097 3.8254 2.43721 3.59128 2.52754 3.37287C2.61786 3.15446 2.75049 2.95608 2.9178 2.78914C3.0851 2.6222 3.28378 2.49001 3.50238 2.40016C3.72099 2.31032 3.95521 2.2646 4.19155 2.26564H5.26764C5.5038 2.2646 5.73782 2.31034 5.95621 2.40023C6.17459 2.49012 6.37303 2.62238 6.54002 2.78938C6.70702 2.95637 6.83928 3.15479 6.92917 3.37317C7.01906 3.59156 7.06478 3.82559 7.06374 4.06175L7.06374 13.9245C7.06531 14.1608 7.01994 14.3951 6.93023 14.6137C6.84053 14.8323 6.7083 15.0309 6.54121 15.198C6.37411 15.3651 6.17546 15.4974 5.95683 15.5871C5.73821 15.6768 5.50395 15.7222 5.26764 15.7206ZM4.23113 3.22304C4.00901 3.22408 3.79629 3.31277 3.63922 3.46984C3.48216 3.6269 3.39346 3.83963 3.39242 4.06175L3.39242 13.9245C3.39346 14.1466 3.48216 14.3593 3.63922 14.5164C3.79629 14.6735 4.00901 14.7622 4.23113 14.7632H5.31512C5.53723 14.7622 5.74996 14.6735 5.90702 14.5164C6.06408 14.3593 6.15278 14.1466 6.15382 13.9245L6.15382 4.06175C6.15278 3.83963 6.06408 3.6269 5.90702 3.46984C5.74996 3.31277 5.53723 3.22408 5.31512 3.22304H4.23113Z" fill="#FFF4DD"/>
<path id="Vector_18" d="M6.14609 3.22317L3.33721 3.22317C3.21057 3.22214 3.08941 3.17137 2.99986 3.08182C2.91031 2.99227 2.85954 2.87111 2.85851 2.74447C2.85326 2.25762 3.04163 1.78863 3.38217 1.44066C3.72272 1.0927 4.18755 0.894269 4.6744 0.889023C5.16125 0.883777 5.63023 1.07215 5.97819 1.41269C6.32616 1.75323 6.5246 2.21806 6.52985 2.70491V2.74447C6.54219 2.80191 6.54157 2.86137 6.52806 2.91855C6.51455 2.97572 6.48848 3.02917 6.45173 3.07501C6.41499 3.12085 6.36848 3.15793 6.31562 3.18356C6.26275 3.20918 6.20483 3.22272 6.14609 3.22317ZM3.95041 2.30533L5.53288 2.30533C5.45431 2.16445 5.33956 2.0471 5.20046 1.9654C5.06136 1.88371 4.90296 1.84064 4.74165 1.84064C4.58033 1.84064 4.42196 1.88371 4.28286 1.9654C4.14376 2.0471 4.02898 2.16445 3.95041 2.30533Z" fill="#FFF4DD"/>
<path id="Vector_19" d="M4.74917 18.957C4.47185 18.9578 4.20054 18.8762 3.96963 18.7226C3.73871 18.569 3.55858 18.3503 3.45209 18.0943C3.3456 17.8382 3.31753 17.5563 3.37144 17.2842C3.42536 17.0122 3.55884 16.7623 3.75494 16.5662C3.95104 16.3701 4.20093 16.2366 4.47296 16.1827C4.745 16.1288 5.02692 16.1569 5.28298 16.2634C5.53905 16.3699 5.75774 16.55 5.91132 16.7809C6.06491 17.0118 6.14647 17.2831 6.14569 17.5604C6.14058 17.9292 5.9918 18.2815 5.731 18.5423C5.4702 18.8031 5.11797 18.9519 4.74917 18.957ZM4.74917 17.0817C4.6545 17.0817 4.56195 17.1098 4.48322 17.1624C4.4045 17.215 4.34314 17.2898 4.30691 17.3773C4.27067 17.4647 4.2612 17.561 4.27967 17.6538C4.29814 17.7467 4.34374 17.832 4.41069 17.8989C4.47763 17.9659 4.56292 18.0115 4.65578 18.0299C4.74863 18.0484 4.84488 18.0389 4.93235 18.0027C5.01982 17.9665 5.09458 17.9051 5.14718 17.8264C5.19978 17.7477 5.22788 17.6551 5.22788 17.5604C5.22037 17.4359 5.1675 17.3185 5.07931 17.2303C4.99111 17.1421 4.87368 17.0893 4.74917 17.0817Z" fill="#FFF4DD"/>
<path id="Vector_20" d="M5.90856 21.7104H3.59025C3.29505 21.6931 3.01759 21.5637 2.81469 21.3485C2.61179 21.1334 2.49878 20.8489 2.49878 20.5532C2.49878 20.2575 2.61179 19.9729 2.81469 19.7578C3.01759 19.5427 3.29505 19.4133 3.59025 19.396H5.90856C6.20377 19.4133 6.48123 19.5427 6.68413 19.7578C6.88703 19.9729 7.00004 20.2575 7.00004 20.5532C7.00004 20.8489 6.88703 21.1334 6.68413 21.3485C6.48123 21.5637 6.20377 21.6931 5.90856 21.7104ZM3.59025 20.3138C3.53207 20.3213 3.47861 20.3498 3.43987 20.3938C3.40113 20.4379 3.37977 20.4945 3.37977 20.5532C3.37977 20.6118 3.40113 20.6685 3.43987 20.7125C3.47861 20.7566 3.53207 20.785 3.59025 20.7925H5.90856C5.96675 20.785 6.02021 20.7566 6.05895 20.7125C6.09769 20.6685 6.11905 20.6118 6.11905 20.5532C6.11905 20.4945 6.09769 20.4379 6.05895 20.3938C6.02021 20.3498 5.96675 20.3213 5.90856 20.3138H3.59025Z" fill="#FFF4DD"/>
<path id="Vector_21" d="M4.74921 20.3138C4.62257 20.3128 4.50141 20.262 4.41186 20.1725C4.32231 20.0829 4.27154 19.9618 4.27051 19.8351V18.4386C4.27154 18.312 4.32231 18.1908 4.41186 18.1013C4.50141 18.0117 4.62257 17.961 4.74921 17.9599C4.81282 17.9571 4.87632 17.9676 4.93567 17.9906C4.99502 18.0137 5.04891 18.0489 5.09393 18.0939C5.13895 18.1389 5.17412 18.1928 5.19718 18.2522C5.22024 18.3115 5.23073 18.375 5.22792 18.4386V19.8351C5.22689 19.9618 5.17612 20.0829 5.08657 20.1725C4.99702 20.262 4.87585 20.3128 4.74921 20.3138Z" fill="#FFF4DD"/>
<path id="Vector_22" d="M4.74921 17.0818C4.62221 17.0797 4.50106 17.0281 4.41162 16.9379C4.32218 16.8477 4.27152 16.7262 4.27051 16.5991V15.2026C4.27255 15.0763 4.32364 14.9557 4.41297 14.8664C4.50231 14.777 4.62289 14.726 4.74921 14.7239C4.81267 14.7217 4.8759 14.7326 4.93497 14.7558C4.99405 14.7791 5.04773 14.8143 5.09263 14.8592C5.13753 14.9041 5.1727 14.9578 5.19597 15.0168C5.21925 15.0759 5.23013 15.1392 5.22792 15.2026V16.5991C5.2269 16.7262 5.17625 16.8477 5.08681 16.9379C4.99736 17.0281 4.87621 17.0797 4.74921 17.0818Z" fill="#FFF4DD"/>
<path id="Vector_23" d="M4.74934 5.54152C4.63075 5.5432 4.51605 5.4993 4.42889 5.41888L3.95018 4.94018C3.90836 4.8981 3.87524 4.84819 3.8527 4.7933C3.83017 4.73842 3.81867 4.67964 3.81885 4.62031C3.81903 4.56098 3.83089 4.50227 3.85377 4.44753C3.87664 4.39278 3.91008 4.34308 3.95216 4.30126C3.99425 4.25943 4.04416 4.22631 4.09905 4.20378C4.15393 4.18124 4.2127 4.16974 4.27203 4.16992C4.33136 4.17011 4.39008 4.18197 4.44483 4.20485C4.49957 4.22772 4.54926 4.26116 4.59108 4.30324L4.70976 4.42192L4.82847 4.30324C4.91293 4.21825 5.02769 4.17029 5.14751 4.16992C5.26734 4.16955 5.3824 4.21679 5.46738 4.30126C5.55237 4.38572 5.60033 4.50049 5.6007 4.62031C5.60107 4.74013 5.55383 4.85519 5.46936 4.94018L4.99066 5.41888C4.99066 5.498 4.86802 5.54152 4.74934 5.54152Z" fill="#FFF4DD"/>
<path id="Vector_24" d="M4.74934 7.37721C4.63123 7.38038 4.51644 7.33787 4.42889 7.25853L3.95018 6.77587C3.90836 6.73379 3.87524 6.68389 3.8527 6.629C3.83017 6.57412 3.81867 6.51533 3.81885 6.45601C3.81903 6.39668 3.83089 6.33796 3.85377 6.28322C3.87664 6.22848 3.91008 6.17877 3.95216 6.13695C3.99425 6.09513 4.04416 6.06201 4.09905 6.03947C4.15393 6.01694 4.2127 6.00543 4.27203 6.00562C4.33136 6.0058 4.39008 6.01767 4.44483 6.04054C4.49957 6.06341 4.54926 6.09685 4.59108 6.13893L4.70976 6.25762L4.82847 6.13893C4.91293 6.05394 5.02769 6.00599 5.14751 6.00562C5.26734 6.00525 5.3824 6.05249 5.46738 6.13695C5.55237 6.22141 5.60033 6.33618 5.6007 6.45601C5.60107 6.57583 5.55383 6.69089 5.46936 6.77587L4.99066 7.25853C4.99066 7.33765 4.86802 7.37721 4.74934 7.37721Z" fill="#FFF4DD"/>
<path id="Vector_25" d="M4.74917 9.25225C4.63105 9.25542 4.51627 9.21291 4.42872 9.13357L3.95001 8.65487C3.90161 8.61435 3.86217 8.56419 3.8342 8.50759C3.80624 8.451 3.79034 8.38919 3.78755 8.32613C3.78476 8.26306 3.79514 8.2001 3.818 8.14125C3.84087 8.08241 3.87572 8.02896 3.92036 7.98432C3.965 7.93968 4.01844 7.90483 4.07729 7.88196C4.13613 7.8591 4.19911 7.84873 4.26218 7.85152C4.32525 7.85431 4.38704 7.87019 4.44364 7.89816C4.50024 7.92613 4.55038 7.96556 4.59091 8.01397L4.70959 8.13662L4.82829 8.01397C4.91548 7.94097 5.02684 7.90328 5.14044 7.9083C5.25404 7.91332 5.36165 7.9607 5.44205 8.04111C5.52246 8.12152 5.56984 8.22912 5.57486 8.34272C5.57988 8.45632 5.54219 8.56769 5.46919 8.65487L4.99049 9.13357C4.99049 9.17313 4.86785 9.25225 4.74917 9.25225Z" fill="#FFF4DD"/>
<path id="Vector_26" d="M4.74934 11.5313C4.63075 11.5329 4.51605 11.489 4.42889 11.4086L3.95018 10.9299C3.90836 10.8878 3.87524 10.8379 3.8527 10.7831C3.83017 10.7282 3.81867 10.6694 3.81885 10.6101C3.81903 10.5507 3.83089 10.492 3.85377 10.4373C3.87664 10.3825 3.91008 10.3328 3.95216 10.291C3.99425 10.2492 4.04416 10.2161 4.09905 10.1935C4.15393 10.171 4.2127 10.1595 4.27203 10.1597C4.33136 10.1599 4.39008 10.1717 4.44483 10.1946C4.49957 10.2175 4.54926 10.2509 4.59108 10.293L4.70976 10.4117L4.82847 10.293C4.91293 10.208 5.02769 10.16 5.14751 10.1597C5.26734 10.1593 5.3824 10.2065 5.46738 10.291C5.55237 10.3755 5.60033 10.4902 5.6007 10.6101C5.60107 10.7299 5.55383 10.8449 5.46936 10.9299L5.07375 11.4086C4.98559 11.49 4.86928 11.534 4.74934 11.5313Z" fill="#FFF4DD"/>
</g>
</svg>
