<svg width="18" height="24" viewBox="0 0 18 24" fill="none" xmlns="http://www.w3.org/2000/svg">
<g id="49, Pendant, china, chinese, decoration">
<path id="Vector" d="M13.7684 23.1343C13.642 23.1322 13.5214 23.0812 13.4321 22.9918C13.3428 22.9025 13.2917 22.7819 13.2897 22.6556V21.2551C13.2917 21.1288 13.3428 21.0082 13.4321 20.9189C13.5214 20.8295 13.642 20.7784 13.7684 20.7764C13.8318 20.7742 13.8951 20.7851 13.9541 20.8083C14.0132 20.8316 14.0669 20.8668 14.1118 20.9117C14.1567 20.9566 14.1918 21.0102 14.2151 21.0693C14.2384 21.1284 14.2493 21.1916 14.2471 21.2551V22.6556C14.2493 22.719 14.2384 22.7823 14.2151 22.8414C14.1918 22.9004 14.1567 22.9541 14.1118 22.999C14.0669 23.0439 14.0132 23.0791 13.9541 23.1023C13.8951 23.1256 13.8318 23.1365 13.7684 23.1343Z" fill="#FF6B00"/>
<path id="Vector_2" d="M12.4113 23.1342C12.285 23.1322 12.1644 23.0811 12.0751 22.9918C11.9857 22.9024 11.9347 22.7819 11.9326 22.6555V21.2551C11.9326 21.1281 11.9831 21.0063 12.0728 20.9166C12.1626 20.8268 12.2844 20.7764 12.4113 20.7764C12.5383 20.7764 12.66 20.8268 12.7498 20.9166C12.8396 21.0063 12.89 21.1281 12.89 21.2551V22.6555C12.8817 22.7798 12.8286 22.8967 12.7405 22.9848C12.6525 23.0728 12.5355 23.1259 12.4113 23.1342Z" fill="#FF6B00"/>
<path id="Vector_3" d="M15.4851 15.7443L10.6942 15.7443C10.458 15.7453 10.224 15.6996 10.0056 15.6097C9.78723 15.5198 9.58882 15.3875 9.42183 15.2205C9.25484 15.0536 9.12257 14.8551 9.03268 14.6367C8.94279 14.4184 8.89704 14.1843 8.89809 13.9482L8.89809 4.08543C8.89704 3.84927 8.94279 3.61524 9.03268 3.39686C9.12257 3.17847 9.25484 2.98005 9.42183 2.81306C9.58882 2.64606 9.78723 2.5138 10.0056 2.42391C10.224 2.33402 10.458 2.28828 10.6942 2.28932L15.4416 2.28932C15.6778 2.28828 15.9118 2.33402 16.1302 2.42391C16.3486 2.5138 16.547 2.64606 16.714 2.81306C16.881 2.98005 17.0132 3.17847 17.1031 3.39686C17.193 3.61524 17.2388 3.84927 17.2377 4.08543V13.9482C17.2419 14.4183 17.06 14.871 16.7317 15.2075C16.4033 15.544 15.9552 15.737 15.4851 15.7443ZM10.6942 3.24672C10.4721 3.24776 10.2593 3.33646 10.1023 3.49352C9.94521 3.65058 9.85652 3.86331 9.85548 4.08543L9.85548 13.9482C9.85652 14.1703 9.94521 14.383 10.1023 14.5401C10.2593 14.6971 10.4721 14.7858 10.6942 14.7869L15.4416 14.7869C15.6637 14.7858 15.8765 14.6971 16.0335 14.5401C16.1906 14.383 16.2793 14.1703 16.2803 13.9482V4.08543C16.2793 3.86331 16.1906 3.65058 16.0335 3.49352C15.8765 3.33646 15.6637 3.24776 15.4416 3.24672L10.6942 3.24672Z" fill="#FF6B00"/>
<path id="Vector_4" d="M13.6094 15.7443H12.5294C12.2932 15.7453 12.0592 15.6996 11.8408 15.6097C11.6224 15.5198 11.424 15.3875 11.257 15.2205C11.09 15.0536 10.9578 14.8551 10.8679 14.6367C10.778 14.4184 10.7322 14.1843 10.7333 13.9482L10.7333 4.08543C10.7322 3.84927 10.778 3.61524 10.8679 3.39685C10.9578 3.17847 11.09 2.98005 11.257 2.81306C11.424 2.64606 11.6224 2.5138 11.8408 2.42391C12.0592 2.33402 12.2932 2.28828 12.5294 2.28932H13.6094C13.8456 2.28828 14.0796 2.33402 14.298 2.42391C14.5164 2.5138 14.7148 2.64606 14.8818 2.81306C15.0488 2.98005 15.181 3.17847 15.2709 3.39685C15.3608 3.61524 15.4066 3.84927 15.4055 4.08543L15.4055 13.9482C15.4066 14.1843 15.3608 14.4184 15.2709 14.6367C15.181 14.8551 15.0488 15.0536 14.8818 15.2205C14.7148 15.3875 14.5164 15.5198 14.298 15.6097C14.0796 15.6996 13.8456 15.7453 13.6094 15.7443ZM12.569 3.24672C12.3468 3.24776 12.1341 3.33646 11.9771 3.49352C11.82 3.65058 11.7313 3.86331 11.7303 4.08543L11.7303 13.9482C11.7313 14.1703 11.82 14.383 11.9771 14.5401C12.1341 14.6971 12.3468 14.7858 12.569 14.7869H13.649C13.8711 14.7858 14.0838 14.6971 14.2409 14.5401C14.398 14.383 14.4867 14.1703 14.4877 13.9482L14.4877 4.08543C14.4867 3.86331 14.398 3.65058 14.2409 3.49352C14.0838 3.33646 13.8711 3.24776 13.649 3.24672H12.569Z" fill="#FF6B00"/>
<path id="Vector_5" d="M14.4881 3.2466L11.6911 3.2466C11.5648 3.24456 11.4442 3.19347 11.3548 3.10413C11.2655 3.0148 11.2144 2.89422 11.2124 2.7679C11.2287 2.29464 11.4268 1.84589 11.7656 1.51502C12.1043 1.18415 12.5576 0.996659 13.0311 0.991562C13.5046 0.986465 13.9619 1.16415 14.3077 1.48765C14.6535 1.81115 14.8612 2.25554 14.8877 2.72833V2.7679C14.9003 2.82666 14.8994 2.88752 14.885 2.94588C14.8707 3.00424 14.8432 3.05856 14.8046 3.1047C14.7661 3.15084 14.7176 3.1876 14.6628 3.21219C14.6079 3.23678 14.5482 3.24855 14.4881 3.2466ZM12.2924 2.32876L13.8749 2.32876C13.7972 2.18681 13.6827 2.06838 13.5435 1.98588C13.4043 1.90337 13.2455 1.85984 13.0837 1.85984C12.9218 1.85984 12.763 1.90337 12.6238 1.98588C12.4846 2.06838 12.3701 2.18681 12.2924 2.32876Z" fill="#FF6B00"/>
<path id="Vector_6" d="M13.0916 18.9804C12.8143 18.9812 12.5429 18.8996 12.312 18.746C12.0811 18.5925 11.901 18.3738 11.7945 18.1177C11.688 17.8616 11.6599 17.5797 11.7139 17.3077C11.7678 17.0356 11.9012 16.7857 12.0973 16.5896C12.2934 16.3935 12.5433 16.2601 12.8154 16.2062C13.0874 16.1523 13.3693 16.1803 13.6254 16.2868C13.8815 16.3933 14.1001 16.5734 14.2537 16.8043C14.4073 17.0352 14.4889 17.3066 14.4881 17.5839C14.483 17.9527 14.3342 18.3049 14.0734 18.5657C13.8126 18.8265 13.4604 18.9753 13.0916 18.9804ZM13.0916 17.1052C12.9969 17.1052 12.9044 17.1333 12.8256 17.1859C12.7469 17.2385 12.6855 17.3132 12.6493 17.4007C12.6131 17.4882 12.6036 17.5844 12.6221 17.6773C12.6405 17.7701 12.6861 17.8554 12.7531 17.9224C12.82 17.9893 12.9053 18.0349 12.9982 18.0534C13.091 18.0719 13.1873 18.0624 13.2748 18.0261C13.3622 17.9899 13.437 17.9286 13.4896 17.8498C13.5422 17.7711 13.5703 17.6786 13.5703 17.5839C13.5619 17.4597 13.5088 17.3427 13.4208 17.2547C13.3328 17.1666 13.2158 17.1135 13.0916 17.1052Z" fill="#FF6B00"/>
<path id="Vector_7" d="M14.2469 21.7338H11.9325C11.7749 21.743 11.617 21.72 11.4686 21.666C11.3202 21.612 11.1844 21.5282 11.0695 21.4199C10.9546 21.3115 10.8631 21.1808 10.8005 21.0358C10.738 20.8908 10.7057 20.7346 10.7057 20.5766C10.7057 20.4187 10.738 20.2625 10.8005 20.1175C10.8631 19.9724 10.9546 19.8418 11.0695 19.7334C11.1844 19.625 11.3202 19.5413 11.4686 19.4873C11.617 19.4333 11.7749 19.4102 11.9325 19.4195H14.2469C14.4046 19.4102 14.5624 19.4333 14.7108 19.4873C14.8592 19.5413 14.9951 19.625 15.11 19.7334C15.2248 19.8418 15.3164 19.9724 15.3789 20.1175C15.4415 20.2625 15.4737 20.4187 15.4737 20.5766C15.4737 20.7346 15.4415 20.8908 15.3789 21.0358C15.3164 21.1808 15.2248 21.3115 15.11 21.4199C14.9951 21.5282 14.8592 21.612 14.7108 21.666C14.5624 21.72 14.4046 21.743 14.2469 21.7338ZM11.9325 20.3373C11.8985 20.3329 11.864 20.3358 11.8312 20.3459C11.7984 20.3559 11.7681 20.3728 11.7423 20.3954C11.7166 20.4181 11.6959 20.4459 11.6818 20.4772C11.6677 20.5084 11.6604 20.5423 11.6604 20.5766C11.6604 20.6109 11.6677 20.6448 11.6818 20.6761C11.6959 20.7073 11.7166 20.7352 11.7423 20.7579C11.7681 20.7805 11.7984 20.7974 11.8312 20.8074C11.864 20.8175 11.8985 20.8204 11.9325 20.816H14.2469C14.2809 20.8204 14.3155 20.8175 14.3483 20.8074C14.3811 20.7974 14.4114 20.7805 14.4371 20.7579C14.4629 20.7352 14.4835 20.7073 14.4976 20.6761C14.5118 20.6448 14.5191 20.6109 14.5191 20.5766C14.5191 20.5423 14.5118 20.5084 14.4976 20.4772C14.4835 20.4459 14.4629 20.4181 14.4371 20.3954C14.4114 20.3728 14.3811 20.3559 14.3483 20.3459C14.3155 20.3358 14.2809 20.3329 14.2469 20.3373H11.9325Z" fill="#FF6B00"/>
<path id="Vector_8" d="M13.0914 20.3374C12.9644 20.3363 12.8428 20.2857 12.7527 20.1963C12.6625 20.1068 12.6108 19.9857 12.6088 19.8587V18.4621C12.6108 18.3351 12.6625 18.214 12.7527 18.1245C12.8428 18.0351 12.9644 17.9845 13.0914 17.9834C13.1549 17.9812 13.2181 17.9921 13.2772 18.0154C13.3363 18.0386 13.3899 18.0738 13.4348 18.1187C13.4797 18.1636 13.5149 18.2173 13.5382 18.2764C13.5615 18.3354 13.5723 18.3987 13.5701 18.4621V19.8587C13.5681 19.985 13.517 20.1056 13.4276 20.1949C13.3383 20.2842 13.2178 20.3353 13.0914 20.3374Z" fill="#FF6B00"/>
<path id="Vector_9" d="M13.0914 17.1051C12.9641 17.1031 12.8425 17.0516 12.7524 16.9615C12.6623 16.8714 12.6108 16.7499 12.6088 16.6225V15.226C12.6118 15.0993 12.6638 14.9787 12.7537 14.8895C12.8437 14.8002 12.9647 14.7493 13.0914 14.7473C13.1552 14.7445 13.2189 14.755 13.2784 14.778C13.338 14.801 13.3921 14.8361 13.4374 14.8811C13.4828 14.926 13.5183 14.9799 13.5418 15.0392C13.5653 15.0986 13.5763 15.1622 13.5741 15.226V16.6225C13.572 16.7499 13.5205 16.8714 13.4304 16.9615C13.3404 17.0516 13.2188 17.1031 13.0914 17.1051Z" fill="#FF6634"/>
<path id="Vector_10" d="M13.0914 5.56497C12.9727 5.56748 12.8577 5.52346 12.7709 5.44233L12.2923 4.96363C12.2149 4.87778 12.1735 4.76553 12.1765 4.65004C12.1796 4.53454 12.2268 4.42462 12.3085 4.34292C12.3902 4.26123 12.5001 4.214 12.6156 4.21098C12.7311 4.20796 12.8433 4.24938 12.9292 4.32669L13.0479 4.44538L13.1705 4.32669C13.2115 4.2812 13.2613 4.24453 13.3169 4.2189C13.3725 4.19328 13.4327 4.17924 13.4939 4.17764C13.5551 4.17604 13.6159 4.18691 13.6728 4.2096C13.7296 4.23228 13.7813 4.2663 13.8246 4.30959C13.8679 4.35287 13.9019 4.40451 13.9246 4.46136C13.9472 4.51821 13.9581 4.57909 13.9565 4.64028C13.9549 4.70147 13.9409 4.7617 13.9152 4.81729C13.8896 4.87288 13.853 4.92267 13.8075 4.96363L13.3288 5.44233C13.3288 5.52145 13.2101 5.56497 13.0914 5.56497Z" fill="#FF6634"/>
<path id="Vector_11" d="M13.0914 7.40067C12.9732 7.40467 12.8581 7.36204 12.7709 7.28198L12.2923 6.79933C12.2149 6.71347 12.1735 6.60122 12.1765 6.48573C12.1796 6.37024 12.2268 6.26031 12.3085 6.17862C12.3902 6.09692 12.5001 6.04969 12.6156 6.04667C12.7311 6.04365 12.8433 6.08507 12.9292 6.16238L13.0479 6.28107L13.1705 6.16238C13.2115 6.1169 13.2613 6.08022 13.3169 6.0546C13.3725 6.02897 13.4327 6.01494 13.4939 6.01334C13.5551 6.01174 13.6159 6.02261 13.6728 6.04529C13.7296 6.06797 13.7813 6.102 13.8246 6.14528C13.8679 6.18856 13.9019 6.2402 13.9246 6.29705C13.9472 6.35391 13.9581 6.41478 13.9565 6.47597C13.9549 6.53716 13.9409 6.59739 13.9152 6.65298C13.8896 6.70857 13.853 6.75837 13.8075 6.79933L13.3288 7.28198C13.3288 7.3611 13.2101 7.40067 13.0914 7.40067Z" fill="#FF6634"/>
<path id="Vector_12" d="M13.0919 9.27587C12.9736 9.27987 12.8585 9.23725 12.7714 9.15718L12.2927 8.67849C12.2507 8.63667 12.2172 8.58696 12.1943 8.53222C12.1715 8.47748 12.1596 8.41876 12.1594 8.35944C12.1592 8.30011 12.1707 8.24132 12.1933 8.18644C12.2158 8.13155 12.2489 8.08165 12.2908 8.03957C12.3326 7.99748 12.3823 7.96405 12.437 7.94118C12.4918 7.91831 12.5505 7.90644 12.6098 7.90625C12.6691 7.90607 12.7279 7.91757 12.7828 7.94011C12.8377 7.96264 12.8876 7.99576 12.9297 8.03759L13.0484 8.16023L13.171 8.03759C13.2131 7.99576 13.263 7.96264 13.3179 7.94011C13.3728 7.91757 13.4315 7.90607 13.4909 7.90625C13.5502 7.90644 13.6089 7.91831 13.6637 7.94118C13.7184 7.96405 13.7681 7.99748 13.8099 8.03957C13.8517 8.08165 13.8849 8.13155 13.9074 8.18644C13.93 8.24132 13.9415 8.30011 13.9413 8.35944C13.9411 8.41876 13.9292 8.47748 13.9063 8.53222C13.8835 8.58696 13.85 8.63667 13.808 8.67849L13.3293 9.15718C13.3293 9.19675 13.2106 9.27587 13.0919 9.27587Z" fill="#FF6634"/>
<path id="Vector_13" d="M13.0918 11.5545C12.9766 11.5529 12.8663 11.5077 12.7832 11.4279L12.3045 10.9492C12.2272 10.8634 12.1857 10.7511 12.1888 10.6356C12.1918 10.5201 12.239 10.4102 12.3207 10.3285C12.4024 10.2468 12.5123 10.1996 12.6278 10.1966C12.7433 10.1936 12.8556 10.235 12.9414 10.3123L13.0601 10.431L13.1827 10.3123C13.2237 10.2668 13.2735 10.2301 13.3291 10.2045C13.3847 10.1789 13.4449 10.1648 13.5061 10.1632C13.5673 10.1616 13.6282 10.1725 13.685 10.1952C13.7419 10.2179 13.7935 10.2519 13.8368 10.2952C13.8801 10.3385 13.9141 10.3901 13.9368 10.447C13.9595 10.5038 13.9703 10.5647 13.9687 10.6259C13.9671 10.6871 13.9531 10.7473 13.9275 10.8029C13.9019 10.8585 13.8652 10.9083 13.8197 10.9492L13.4241 11.4279C13.3801 11.4705 13.328 11.5036 13.2709 11.5254C13.2138 11.5471 13.1528 11.5571 13.0918 11.5545Z" fill="#FF6634"/>
<path id="Vector_14" d="M4.98508 23.1343C4.85838 23.1323 4.73739 23.0814 4.64742 22.9921C4.55745 22.9029 4.50549 22.7823 4.50244 22.6556V21.2552C4.51334 21.1352 4.56869 21.0237 4.65763 20.9424C4.74657 20.8612 4.86265 20.8162 4.9831 20.8162C5.10355 20.8162 5.21966 20.8612 5.3086 20.9424C5.39754 21.0237 5.45289 21.1352 5.46379 21.2552V22.6556C5.466 22.7191 5.45512 22.7823 5.43184 22.8414C5.40857 22.9005 5.37339 22.9541 5.3285 22.999C5.2836 23.0439 5.22994 23.0791 5.17087 23.1024C5.11179 23.1257 5.04854 23.1366 4.98508 23.1343Z" fill="#FF6634"/>
<path id="Vector_15" d="M3.62456 23.1343C3.49823 23.1322 3.37767 23.0812 3.28834 22.9918C3.199 22.9025 3.14791 22.7819 3.14587 22.6556L3.14587 21.2551C3.14791 21.1288 3.199 21.0082 3.28834 20.9189C3.37767 20.8295 3.49823 20.7784 3.62456 20.7764C3.68801 20.7742 3.75126 20.7851 3.81034 20.8083C3.86942 20.8316 3.92307 20.8668 3.96797 20.9117C4.01287 20.9566 4.04804 21.0102 4.07132 21.0693C4.09459 21.1284 4.10547 21.1916 4.10326 21.2551V22.6556C4.09492 22.7798 4.0418 22.8968 3.95377 22.9848C3.86574 23.0728 3.74877 23.1259 3.62456 23.1343Z" fill="#FF6634"/>
<path id="Vector_16" d="M6.70235 15.7443L1.90746 15.7443C1.6713 15.7453 1.43726 15.6996 1.21888 15.6097C1.00049 15.5198 0.802077 15.3875 0.635085 15.2205C0.468092 15.0536 0.33583 14.8551 0.245939 14.6367C0.156047 14.4184 0.110298 14.1843 0.111346 13.9482L0.111346 4.08543C0.110298 3.84927 0.156047 3.61524 0.245939 3.39685C0.33583 3.17847 0.468092 2.98005 0.635085 2.81306C0.802077 2.64606 1.00049 2.5138 1.21888 2.42391C1.43726 2.33402 1.6713 2.28828 1.90746 2.28932L6.65487 2.28932C6.89122 2.28828 7.12543 2.334 7.34404 2.42384C7.56265 2.51369 7.76132 2.64588 7.92863 2.81282C8.09594 2.97976 8.22856 3.17814 8.31889 3.39655C8.40921 3.61496 8.45545 3.84908 8.45493 4.08543L8.45493 13.9482C8.45916 14.4183 8.27726 14.871 7.94891 15.2075C7.62057 15.544 7.17244 15.737 6.70235 15.7443ZM1.90746 3.24672C1.68535 3.24776 1.47262 3.33646 1.31556 3.49352C1.1585 3.65058 1.0698 3.86331 1.06876 4.08543L1.06876 13.9482C1.0698 14.1703 1.1585 14.383 1.31556 14.5401C1.47262 14.6971 1.68535 14.7858 1.90746 14.7869L6.65487 14.7869C6.87699 14.7858 7.08971 14.6971 7.24678 14.5401C7.40384 14.383 7.49254 14.1703 7.49358 13.9482L7.49358 4.08543C7.49254 3.86331 7.40384 3.65058 7.24678 3.49352C7.08971 3.33646 6.87699 3.24776 6.65487 3.24672L1.90746 3.24672Z" fill="#FF6634"/>
<path id="Vector_17" d="M4.82331 15.7443H3.74722C3.51072 15.7459 3.27629 15.7005 3.05744 15.6108C2.8386 15.5212 2.63971 15.389 2.4723 15.222C2.30489 15.0549 2.17225 14.8563 2.08212 14.6377C1.99198 14.419 1.94611 14.1847 1.94716 13.9482L1.94716 4.08543C1.94664 3.84908 1.99288 3.61496 2.0832 3.39655C2.17353 3.17815 2.30615 2.97976 2.47346 2.81282C2.64077 2.64588 2.83944 2.51369 3.05805 2.42384C3.27665 2.334 3.51087 2.28828 3.74722 2.28932H4.82331C5.05947 2.28828 5.29349 2.33402 5.51187 2.42391C5.73026 2.5138 5.92869 2.64606 6.09569 2.81306C6.26268 2.98005 6.39494 3.17847 6.48483 3.39686C6.57473 3.61524 6.62045 3.84927 6.6194 4.08543L6.6194 13.9482C6.62098 14.1845 6.5756 14.4187 6.4859 14.6374C6.39619 14.856 6.26397 15.0546 6.09687 15.2217C5.92977 15.3888 5.73112 15.5211 5.5125 15.6108C5.29387 15.7005 5.05962 15.7459 4.82331 15.7443ZM3.78679 3.24672C3.56467 3.24776 3.35195 3.33646 3.19489 3.49352C3.03782 3.65058 2.94913 3.86331 2.94808 4.08543L2.94808 13.9482C2.94913 14.1703 3.03782 14.383 3.19489 14.5401C3.35195 14.6971 3.56467 14.7858 3.78679 14.7869H4.87078C5.0929 14.7858 5.30562 14.6971 5.46269 14.5401C5.61975 14.383 5.70845 14.1703 5.70949 13.9482L5.70949 4.08543C5.70845 3.86331 5.61975 3.65058 5.46269 3.49352C5.30562 3.33646 5.0929 3.24776 4.87078 3.24672H3.78679Z" fill="#FF6634"/>
<path id="Vector_18" d="M5.70163 3.24661L2.89275 3.24661C2.76611 3.24557 2.64495 3.1948 2.5554 3.10525C2.46585 3.0157 2.41508 2.89455 2.41405 2.76791C2.4088 2.28106 2.59717 1.81206 2.93771 1.4641C3.27826 1.11614 3.74309 0.917706 4.22994 0.91246C4.71679 0.907214 5.18577 1.09558 5.53374 1.43613C5.8817 1.77667 6.08014 2.24149 6.08539 2.72834V2.76791C6.09773 2.82535 6.09711 2.88481 6.0836 2.94199C6.07009 2.99916 6.04402 3.05261 6.00727 3.09845C5.97053 3.14429 5.92403 3.18137 5.87116 3.20699C5.81829 3.23262 5.76038 3.24615 5.70163 3.24661ZM3.50595 2.32877L5.08842 2.32877C5.00985 2.18789 4.8951 2.07054 4.756 1.98884C4.6169 1.90715 4.4585 1.86408 4.29719 1.86408C4.13588 1.86408 3.9775 1.90715 3.83841 1.98884C3.69931 2.07054 3.58453 2.18789 3.50595 2.32877Z" fill="#FF6634"/>
<path id="Vector_19" d="M4.30484 18.9804C4.02751 18.9812 3.7562 18.8996 3.52529 18.746C3.29438 18.5925 3.11425 18.3738 3.00776 18.1177C2.90127 17.8616 2.8732 17.5797 2.92711 17.3077C2.98102 17.0356 3.1145 16.7857 3.3106 16.5896C3.5067 16.3935 3.75659 16.2601 4.02863 16.2062C4.30066 16.1523 4.58258 16.1803 4.83865 16.2868C5.09471 16.3933 5.3134 16.5734 5.46699 16.8043C5.62057 17.0352 5.70214 17.3066 5.70136 17.5839C5.69624 17.9527 5.54746 18.3049 5.28666 18.5657C5.02586 18.8265 4.67363 18.9753 4.30484 18.9804ZM4.30484 17.1052C4.21016 17.1052 4.11761 17.1333 4.03889 17.1859C3.96017 17.2385 3.8988 17.3132 3.86257 17.4007C3.82634 17.4882 3.81686 17.5844 3.83533 17.6773C3.8538 17.7701 3.89941 17.8554 3.96635 17.9224C4.0333 17.9893 4.11858 18.0349 4.21144 18.0534C4.3043 18.0719 4.40054 18.0624 4.48801 18.0261C4.57548 17.9899 4.65025 17.9286 4.70285 17.8498C4.75545 17.7711 4.78354 17.6786 4.78354 17.5839C4.77604 17.4594 4.72317 17.3419 4.63497 17.2537C4.54677 17.1655 4.42934 17.1127 4.30484 17.1052Z" fill="#FF6634"/>
<path id="Vector_20" d="M5.46411 21.7338H3.14579C2.85059 21.7165 2.57313 21.5871 2.37023 21.372C2.16733 21.1569 2.05432 20.8723 2.05432 20.5766C2.05432 20.2809 2.16733 19.9964 2.37023 19.7813C2.57313 19.5661 2.85059 19.4367 3.14579 19.4194H5.46411C5.75931 19.4367 6.03677 19.5661 6.23967 19.7813C6.44257 19.9964 6.55558 20.2809 6.55558 20.5766C6.55558 20.8723 6.44257 21.1569 6.23967 21.372C6.03677 21.5871 5.75931 21.7165 5.46411 21.7338ZM3.14579 20.3373C3.08761 20.3448 3.03415 20.3732 2.99541 20.4172C2.95667 20.4613 2.93531 20.518 2.93531 20.5766C2.93531 20.6353 2.95667 20.6919 2.99541 20.736C3.03415 20.78 3.08761 20.8085 3.14579 20.816H5.46411C5.52229 20.8085 5.57575 20.78 5.61449 20.736C5.65323 20.6919 5.67459 20.6353 5.67459 20.5766C5.67459 20.518 5.65323 20.4613 5.61449 20.4172C5.57575 20.3732 5.52229 20.3448 5.46411 20.3373H3.14579Z" fill="#FF6634"/>
<path id="Vector_21" d="M4.30488 20.3373C4.17824 20.3362 4.05708 20.2855 3.96753 20.1959C3.87798 20.1064 3.82721 19.9852 3.82617 19.8586L3.82617 18.462C3.82721 18.3354 3.87798 18.2143 3.96753 18.1247C4.05708 18.0352 4.17824 17.9844 4.30488 17.9834C4.36849 17.9805 4.43199 17.991 4.49134 18.0141C4.55069 18.0371 4.60457 18.0723 4.64959 18.1173C4.69462 18.1623 4.72978 18.2162 4.75284 18.2756C4.77591 18.3349 4.78639 18.3984 4.78358 18.462V19.8586C4.78255 19.9852 4.73178 20.1064 4.64223 20.1959C4.55268 20.2855 4.43152 20.3362 4.30488 20.3373Z" fill="#FF6634"/>
<path id="Vector_22" d="M4.30488 17.105C4.17788 17.1029 4.05673 17.0513 3.96728 16.9611C3.87784 16.8709 3.82719 16.7493 3.82617 16.6223L3.82617 15.2258C3.82821 15.0995 3.8793 14.9789 3.96864 14.8896C4.05797 14.8002 4.17856 14.7491 4.30488 14.7471C4.36834 14.7449 4.43156 14.7558 4.49064 14.779C4.54971 14.8023 4.60339 14.8375 4.64829 14.8824C4.69319 14.9273 4.72836 14.981 4.75164 15.04C4.77491 15.0991 4.78579 15.1623 4.78358 15.2258V16.6223C4.78257 16.7493 4.73191 16.8709 4.64247 16.9611C4.55303 17.0513 4.43188 17.1029 4.30488 17.105Z" fill="#FF6634"/>
<path id="Vector_23" d="M4.30488 5.56495C4.1863 5.56663 4.07159 5.52274 3.98443 5.44231L3.50573 4.96362C3.4639 4.92154 3.43078 4.87162 3.40825 4.81674C3.38571 4.76186 3.37421 4.70308 3.37439 4.64375C3.37458 4.58442 3.38643 4.52571 3.40931 4.47096C3.43218 4.41622 3.46562 4.36652 3.50771 4.32469C3.54979 4.28287 3.59971 4.24975 3.65459 4.22722C3.70947 4.20468 3.76825 4.19318 3.82757 4.19336C3.8869 4.19355 3.94562 4.20541 4.00037 4.22828C4.05511 4.25116 4.1048 4.28459 4.14662 4.32667L4.2653 4.44536L4.38401 4.32667C4.46847 4.24169 4.58324 4.19373 4.70306 4.19336C4.82288 4.19299 4.93794 4.24023 5.02293 4.32469C5.10792 4.40916 5.15587 4.52393 5.15624 4.64375C5.15661 4.76357 5.10937 4.87863 5.02491 4.96362L4.5462 5.44231C4.5462 5.52144 4.42357 5.56495 4.30488 5.56495Z" fill="#FF6634"/>
<path id="Vector_24" d="M4.30488 7.40065C4.18677 7.40382 4.07199 7.3613 3.98443 7.28197L3.50573 6.79931C3.4639 6.75723 3.43078 6.70732 3.40825 6.65244C3.38571 6.59756 3.37421 6.53877 3.37439 6.47944C3.37458 6.42011 3.38643 6.3614 3.40931 6.30666C3.43218 6.25191 3.46562 6.20221 3.50771 6.16039C3.54979 6.11857 3.59971 6.08544 3.65459 6.06291C3.70947 6.04037 3.76825 6.02887 3.82757 6.02905C3.8869 6.02924 3.94562 6.0411 4.00037 6.06398C4.05511 6.08685 4.1048 6.12029 4.14662 6.16237L4.2653 6.28105L4.38401 6.16237C4.46847 6.07738 4.58324 6.02943 4.70306 6.02905C4.82288 6.02868 4.93794 6.07592 5.02293 6.16039C5.10792 6.24485 5.15587 6.35962 5.15624 6.47944C5.15661 6.59926 5.10937 6.71432 5.02491 6.79931L4.5462 7.28197C4.5462 7.36109 4.42357 7.40065 4.30488 7.40065Z" fill="#FF6634"/>
<path id="Vector_25" d="M4.30483 9.27569C4.18672 9.27886 4.07194 9.23635 3.98438 9.15701L3.50568 8.67831C3.45727 8.63779 3.41784 8.58763 3.38987 8.53103C3.3619 8.47443 3.34601 8.41263 3.34322 8.34956C3.34043 8.28649 3.3508 8.22354 3.37367 8.16469C3.39653 8.10585 3.43138 8.0524 3.47602 8.00776C3.52066 7.96312 3.57411 7.92826 3.63295 7.9054C3.6918 7.88253 3.75477 7.87217 3.81784 7.87496C3.88091 7.87774 3.94271 7.89363 3.9993 7.92159C4.0559 7.94956 4.10605 7.989 4.14657 8.03741L4.26525 8.16005L4.38396 8.03741C4.47115 7.96441 4.5825 7.92671 4.6961 7.93174C4.8097 7.93676 4.91731 7.98414 4.99772 8.06455C5.07812 8.14496 5.1255 8.25256 5.13052 8.36616C5.13555 8.47976 5.09785 8.59112 5.02486 8.67831L4.54615 9.15701C4.54615 9.19657 4.42352 9.27569 4.30483 9.27569Z" fill="#FF6634"/>
<path id="Vector_26" d="M4.30488 11.5545C4.1863 11.5561 4.07159 11.5122 3.98443 11.4318L3.50573 10.9531C3.4639 10.911 3.43078 10.8611 3.40825 10.8062C3.38571 10.7514 3.37421 10.6926 3.37439 10.6333C3.37458 10.5739 3.38643 10.5152 3.40931 10.4605C3.43218 10.4057 3.46562 10.356 3.50771 10.3142C3.54979 10.2724 3.59971 10.2393 3.65459 10.2167C3.70947 10.1942 3.76825 10.1827 3.82757 10.1829C3.8869 10.183 3.94562 10.1949 4.00037 10.2178C4.05511 10.2407 4.1048 10.2741 4.14662 10.3162L4.2653 10.4349L4.38401 10.3162C4.46847 10.2312 4.58324 10.1832 4.70306 10.1829C4.82288 10.1825 4.93794 10.2297 5.02293 10.3142C5.10792 10.3987 5.15587 10.5134 5.15624 10.6333C5.15661 10.7531 5.10937 10.8681 5.02491 10.9531L4.62929 11.4318C4.54113 11.5132 4.42482 11.5572 4.30488 11.5545Z" fill="#FF6634"/>
</g>
</svg>
