<svg xmlns="http://www.w3.org/2000/svg" width="18" height="18" viewBox="0 0 18 18" fill="none">
<path fill-rule="evenodd" clip-rule="evenodd" d="M8.3 2H4.8C3.2537 2 2 3.2537 2 4.8V13.2C2 14.7463 3.2537 16 4.8 16H13.2C14.7463 16 16 14.7463 16 13.2C16 11.6103 16 9.7 16 9.7C16 9.3136 15.6864 9 15.3 9C14.9136 9 14.6 9.3136 14.6 9.7V13.2C14.6 13.9728 13.9728 14.6 13.2 14.6C10.869 14.6 7.1303 14.6 4.8 14.6C4.0265 14.6 3.4 13.9728 3.4 13.2C3.4 10.869 3.4 7.1303 3.4 4.8C3.4 4.0265 4.0265 3.4 4.8 3.4H8.3C8.6864 3.4 9 3.0864 9 2.7C9 2.3136 8.6864 2 8.3 2ZM13.6102 3.4H11.1C10.7136 3.4 10.4 3.0864 10.4 2.7C10.4 2.3136 10.7136 2 11.1 2H15.3C15.6864 2 16 2.3136 16 2.7V6.9C16 7.2864 15.6864 7.6 15.3 7.6C14.9136 7.6 14.6 7.2864 14.6 6.9V4.3898L9.4949 9.4949C9.2219 9.7679 8.7781 9.7679 8.5051 9.4949C8.2314 9.2219 8.2314 8.7781 8.5051 8.5051L13.6102 3.4Z" fill="#EF232C"/>
</svg>