<svg width="82" height="82" viewBox="0 0 82 82" fill="none" xmlns="http://www.w3.org/2000/svg">
<circle cx="41" cy="41" r="39.5" fill="#068A63" stroke="url(#paint0_linear_144_67457)" stroke-width="3"/>
<path d="M64.7554 37.7777C59.9573 37.7778 55.2767 39.2628 51.3561 42.0288C47.4354 44.7948 44.4668 48.7063 42.8577 53.2266V46.5066C46.4904 42.1717 48.3683 36.6336 48.1216 30.9832C47.8748 25.3327 45.5212 19.9794 41.5243 15.9777C37.5265 19.9789 35.1723 25.3323 34.9255 30.9831C34.6787 36.6338 36.5573 42.1721 40.191 46.5066V53.2399C38.5828 48.7136 35.6117 44.7967 31.6865 42.0278C27.7612 39.259 23.0746 37.7742 18.271 37.7777C18.2702 43.7091 20.5378 49.4162 24.6091 53.7297C28.6805 58.0431 34.2472 60.6362 40.1688 60.9777V65.8666H42.8577V60.9777C48.7792 60.6362 54.346 58.0431 58.4173 53.7297C62.4886 49.4162 64.7562 43.7091 64.7554 37.7777Z" fill="#EDE8D5"/>
<defs>
<linearGradient id="paint0_linear_144_67457" x1="9.94519" y1="-5.38221" x2="28.5811" y2="88.7278" gradientUnits="userSpaceOnUse">
<stop stop-color="#E5B039"/>
<stop offset="0.47968" stop-color="#FFEBBD"/>
<stop offset="1" stop-color="#E5B039"/>
</linearGradient>
</defs>
</svg>
