<svg width="24" height="24" viewBox="0 0 24 24" fill="none" xmlns="http://www.w3.org/2000/svg">
<g id="38, flower, decoration, china, Chinese">
<path id="Vector" d="M9.96212 9.30555C9.85182 9.29671 9.74438 9.2661 9.64605 9.21552C9.13548 8.85031 8.72046 8.36806 8.436 7.80941C8.15153 7.25077 8.00595 6.63212 8.01154 6.00562C8.01154 4.65504 9.09971 3.34047 10.1879 2.0259C10.6891 1.44064 11.1857 0.805868 11.5966 0.225116C11.6487 0.154699 11.7168 0.0975859 11.7953 0.0584592C11.8738 0.0193326 11.9604 -0.000694372 12.0482 1.83795e-05C12.1358 1.83795e-05 12.2222 0.0203586 12.3006 0.0594287C12.3789 0.0984987 12.4471 0.155225 12.4997 0.225116C12.906 0.857878 13.3588 1.45978 13.8542 2.0259C14.8973 3.34047 16.0306 4.69555 16.0306 6.00562C16.0247 6.63006 15.874 7.24469 15.5905 7.8015C15.307 8.35831 14.8982 8.84225 14.3961 9.21552C14.3124 9.28124 14.2091 9.31698 14.1026 9.31698C13.9961 9.31698 13.8927 9.28124 13.8091 9.21552C13.2766 8.89179 12.665 8.72054 12.0414 8.72054C11.4177 8.72054 10.8061 8.89179 10.2737 9.21552C10.1743 9.25928 10.0695 9.28956 9.96212 9.30555ZM12.003 1.39562C11.6813 1.83505 11.3329 2.25451 10.96 2.65167C10.0073 3.78166 9.05455 4.95667 9.05455 5.9516C9.06256 6.35797 9.15085 6.75878 9.31432 7.13111C9.4778 7.50345 9.71327 7.84 10.0073 8.12154C10.6214 7.79479 11.307 7.62466 12.003 7.62632C12.6976 7.63613 13.3806 7.8056 13.9987 8.12154C14.3007 7.84621 14.5414 7.51088 14.7055 7.13715C14.8696 6.76342 14.9534 6.35957 14.9514 5.9516C14.9514 5.00169 13.9536 3.78166 13.0009 2.60665C12.6466 2.22119 12.3135 1.81692 12.003 1.39562Z" fill="#EF232C"/>
<path id="Vector_2" d="M17.9812 15.9503C17.3547 15.9481 16.7374 15.8 16.1785 15.5178C15.6196 15.2356 15.1345 14.8272 14.7618 14.3251C14.6963 14.2407 14.6607 14.137 14.6607 14.0302C14.6607 13.9235 14.6963 13.8198 14.7618 13.7354C15.0865 13.2045 15.2583 12.5947 15.2583 11.9729C15.2583 11.351 15.0865 10.7412 14.7618 10.2103C14.7065 10.1227 14.6771 10.0213 14.6771 9.91771C14.6771 9.81416 14.7065 9.71272 14.7618 9.62509C15.1307 9.11872 15.6149 8.70693 16.1746 8.4236C16.7343 8.14027 17.3535 7.99351 17.9812 7.99538C19.3357 7.99538 20.6542 9.08035 21.9681 10.1653C22.5596 10.6605 23.1918 11.1603 23.7742 11.5654C23.8443 11.6178 23.9012 11.6858 23.9404 11.764C23.9796 11.8421 24 11.9283 24 12.0156C24.0007 12.1031 23.9806 12.1895 23.9414 12.2678C23.9021 12.346 23.8448 12.4139 23.7742 12.4658C23.1407 12.8725 22.5371 13.3239 21.9681 13.8164C20.6903 14.8654 19.3357 15.9503 17.9812 15.9503ZM15.85 13.965C16.1299 14.2609 16.4671 14.4973 16.8411 14.6598C17.2151 14.8223 17.6183 14.9075 18.0263 14.9104C18.979 14.9104 20.2027 13.9154 21.3812 12.97C21.7875 12.6504 22.1984 12.2902 22.6499 11.9751C22.2083 11.6518 21.7847 11.3047 21.3812 10.9352C20.2478 9.98524 19.0694 9.03533 18.0715 9.03533C17.6638 9.04233 17.2615 9.12989 16.8879 9.29294C16.5143 9.456 16.1769 9.6913 15.8951 9.98524C16.2234 10.5973 16.394 11.281 16.3918 11.9751C16.3256 12.6632 16.1455 13.3355 15.859 13.965H15.85Z" fill="#EF232C"/>
<path id="Vector_3" d="M12.003 23.9999C11.9153 24.0006 11.8286 23.9806 11.7501 23.9414C11.6716 23.9023 11.6036 23.8452 11.5515 23.7748C11.1445 23.1425 10.6918 22.5406 10.1969 21.974C9.15842 20.6639 8.02058 19.3044 8.02058 17.9943C8.02652 17.3698 8.17713 16.7552 8.46067 16.1984C8.74421 15.6416 9.15298 15.1577 9.65509 14.7844C9.73975 14.7191 9.84379 14.6836 9.95085 14.6836C10.0579 14.6836 10.1619 14.7191 10.2466 14.7844C10.778 15.1111 11.39 15.284 12.0143 15.284C12.6386 15.284 13.2506 15.1111 13.782 14.7844C13.8699 14.7292 13.9716 14.6999 14.0755 14.6999C14.1793 14.6999 14.2811 14.7292 14.369 14.7844C14.876 15.153 15.2885 15.6359 15.5725 16.1938C15.8566 16.7517 16.0043 17.3686 16.0035 17.9943C16.0035 19.3449 14.9153 20.6639 13.8272 21.974C13.3289 22.5502 12.8602 23.1513 12.4229 23.7748C12.3781 23.845 12.316 23.9026 12.2424 23.942C12.1689 23.9814 12.0865 24.0013 12.003 23.9999ZM10.0073 15.8153C9.71005 16.0944 9.47243 16.4304 9.30871 16.8033C9.14499 17.1762 9.05854 17.5782 9.05456 17.9853C9.05456 18.9352 10.0524 20.1552 11.0051 21.3302C11.3257 21.7399 11.687 22.1451 12.003 22.5998C12.3191 22.1496 12.6848 21.7399 13.046 21.2852C13.9987 20.1552 14.9514 18.9802 14.9514 17.9853C14.9482 17.5781 14.8622 17.1758 14.6984 16.8028C14.5346 16.4298 14.2966 16.0939 13.9987 15.8153C13.3762 16.1145 12.6941 16.2699 12.003 16.2699C11.312 16.2699 10.6298 16.1145 10.0073 15.8153Z" fill="#EF232C"/>
<path id="Vector_4" d="M6.02035 15.9504C4.66578 15.9504 3.34281 14.8655 2.02888 13.7805C1.43738 13.2853 0.805249 12.7856 0.222785 12.3804C0.15349 12.3274 0.097364 12.2593 0.0587277 12.1812C0.0200914 12.1031 0 12.0172 0 11.9302C0 11.8431 0.0200914 11.7573 0.0587277 11.6792C0.097364 11.6011 0.15349 11.533 0.222785 11.48C0.856338 11.0733 1.45991 10.622 2.02888 10.1294C3.34281 9.08946 4.7019 7.95947 6.02035 7.95947C6.64625 7.96486 7.26244 8.11434 7.82087 8.39625C8.3793 8.67816 8.86487 9.08487 9.23971 9.58468C9.30524 9.66909 9.34079 9.77281 9.34079 9.87956C9.34079 9.9863 9.30524 10.09 9.23971 10.1744C8.91208 10.7043 8.73858 11.3145 8.73858 11.9369C8.73858 12.5594 8.91208 13.1696 9.23971 13.6995C9.29493 13.788 9.32417 13.8901 9.32417 13.9943C9.32417 14.0986 9.29493 14.2007 9.23971 14.2892C8.87114 14.7982 8.38776 15.2138 7.82856 15.5023C7.26936 15.7909 6.64997 15.9444 6.02035 15.9504ZM1.39224 11.9752C1.84376 12.2903 2.25464 12.6505 2.71068 13.0152C3.844 13.9651 5.02248 14.9105 6.02035 14.9105C6.42822 14.9068 6.83116 14.8212 7.2051 14.6588C7.57904 14.4964 7.91629 14.2604 8.19669 13.9651C7.85567 13.3578 7.68268 12.6711 7.69548 11.9752C7.70356 11.2819 7.87528 10.6002 8.19669 9.98535C7.91716 9.68857 7.58018 9.45138 7.20612 9.28811C6.83206 9.12484 6.42867 9.03889 6.02035 9.03544C5.06764 9.03544 3.84401 10.0304 2.66554 10.9803C2.25465 11.2954 1.84828 11.6556 1.39224 11.9752Z" fill="#EF232C"/>
<path id="Vector_5" d="M12.003 16.2701C11.1511 16.2701 10.3182 16.0183 9.60986 15.5463C8.9015 15.0744 8.34939 14.4036 8.02336 13.6189C7.69734 12.8341 7.61205 11.9705 7.77825 11.1374C7.94446 10.3043 8.35472 9.53901 8.95713 8.93836C9.55955 8.33771 10.3271 7.92866 11.1627 7.76295C11.9982 7.59723 12.8643 7.68228 13.6514 8.00735C14.4385 8.33242 15.1113 8.8829 15.5846 9.58919C16.0579 10.2955 16.3105 11.1258 16.3105 11.9753C16.3034 13.1122 15.8473 14.2005 15.041 15.0044C14.2347 15.8083 13.1432 16.2631 12.003 16.2701ZM12.003 8.72037C11.3575 8.72126 10.7268 8.91292 10.1906 9.27111C9.65433 9.62931 9.2366 10.138 8.99021 10.7328C8.74381 11.3276 8.67981 11.9819 8.80628 12.613C8.93275 13.2441 9.24402 13.8237 9.70075 14.2784C10.1575 14.7332 10.7392 15.0428 11.3723 15.168C12.0054 15.2932 12.6616 15.2285 13.2578 14.982C13.8541 14.7355 14.3637 14.3183 14.7222 13.7831C15.0807 13.248 15.272 12.6189 15.272 11.9753C15.2738 11.547 15.1905 11.1225 15.0268 10.7265C14.8631 10.3305 14.6223 9.97079 14.3183 9.66812C14.0143 9.36546 13.6532 9.12587 13.2558 8.96319C12.8584 8.80052 12.4326 8.71799 12.003 8.72037Z" fill="#EF232C"/>
<path id="Vector_6" d="M19.3357 12.5154H15.7687C15.6931 12.5223 15.6169 12.5134 15.5449 12.4893C15.4729 12.4651 15.4068 12.4263 15.3507 12.3753C15.2947 12.3242 15.2499 12.2621 15.2192 12.1928C15.1886 12.1235 15.1727 12.0487 15.1727 11.973C15.1727 11.8973 15.1886 11.8224 15.2192 11.7531C15.2499 11.6838 15.2947 11.6217 15.3507 11.5707C15.4068 11.5196 15.4729 11.4808 15.5449 11.4567C15.6169 11.4325 15.6931 11.4236 15.7687 11.4305H19.3357C19.4715 11.4428 19.5977 11.5053 19.6896 11.6057C19.7815 11.706 19.8325 11.8371 19.8325 11.973C19.8325 12.1089 19.7815 12.2399 19.6896 12.3402C19.5977 12.4406 19.4715 12.5031 19.3357 12.5154Z" fill="#EF232C"/>
<path id="Vector_7" d="M20.6181 12.5154C20.5462 12.5179 20.4747 12.5057 20.4078 12.4794C20.3409 12.4531 20.2802 12.4134 20.2293 12.3628C20.1785 12.3121 20.1387 12.2515 20.1124 12.1848C20.086 12.1182 20.0737 12.0468 20.0763 11.9752C20.0774 11.8318 20.1347 11.6946 20.236 11.5928C20.3372 11.491 20.4743 11.4328 20.6181 11.4304C20.7623 11.4327 20.8999 11.4909 21.0018 11.5925C21.1038 11.6942 21.1621 11.8314 21.1644 11.9752C21.1538 12.1157 21.0928 12.2477 20.9924 12.347C20.892 12.4462 20.7591 12.506 20.6181 12.5154Z" fill="#EF232C"/>
<path id="Vector_8" d="M8.19669 12.5154H4.6116C4.47585 12.503 4.34962 12.4406 4.25772 12.3402C4.16581 12.2398 4.11485 12.1088 4.11485 11.9729C4.11485 11.837 4.16581 11.706 4.25772 11.6056C4.34962 11.5053 4.47585 11.4428 4.6116 11.4304H8.19669C8.33244 11.4428 8.45864 11.5053 8.55054 11.6056C8.64245 11.706 8.69341 11.837 8.69341 11.9729C8.69341 12.1088 8.64245 12.2398 8.55054 12.3402C8.45864 12.4406 8.33244 12.503 8.19669 12.5154Z" fill="#EF232C"/>
<path id="Vector_9" d="M12.003 8.72022C11.8593 8.71788 11.7221 8.65959 11.6209 8.55781C11.5197 8.45603 11.4624 8.31882 11.4612 8.17548V4.60544C11.4543 4.53004 11.4633 4.45404 11.4875 4.38229C11.5117 4.31053 11.5506 4.2446 11.6018 4.18869C11.653 4.13278 11.7153 4.08812 11.7848 4.05756C11.8543 4.02701 11.9294 4.01123 12.0053 4.01123C12.0812 4.01123 12.1563 4.02701 12.2258 4.05756C12.2953 4.08812 12.3576 4.13278 12.4088 4.18869C12.46 4.2446 12.4989 4.31053 12.5231 4.38229C12.5473 4.45404 12.5562 4.53004 12.5494 4.60544V8.17548C12.547 8.31923 12.4887 8.45645 12.3868 8.55811C12.2848 8.65976 12.1472 8.7179 12.003 8.72022Z" fill="#EF232C"/>
<path id="Vector_10" d="M3.29764 12.5154C3.2258 12.5179 3.15421 12.5057 3.08734 12.4794C3.02046 12.4531 2.95972 12.4134 2.90889 12.3628C2.85807 12.3121 2.81827 12.2515 2.79193 12.1848C2.7656 12.1182 2.75331 12.0468 2.75583 11.9752C2.75699 11.8318 2.8143 11.6946 2.91553 11.5928C3.01677 11.491 3.15389 11.4328 3.29764 11.4304C3.44181 11.4327 3.57943 11.4909 3.68139 11.5925C3.78335 11.6942 3.84166 11.8314 3.84399 11.9752C3.82597 12.1129 3.7625 12.2407 3.66359 12.3385C3.56467 12.4364 3.43592 12.4986 3.29764 12.5154Z" fill="#EF232C"/>
<path id="Vector_11" d="M12.003 3.79069C11.8601 3.78837 11.7236 3.73071 11.6225 3.6299C11.5214 3.52908 11.4635 3.39301 11.4612 3.25046C11.4543 3.17506 11.4633 3.09906 11.4875 3.02731C11.5117 2.95555 11.5506 2.88962 11.6018 2.83371C11.653 2.7778 11.7153 2.73314 11.7848 2.70259C11.8543 2.67203 11.9294 2.65625 12.0053 2.65625C12.0812 2.65625 12.1563 2.67203 12.2258 2.70259C12.2953 2.73314 12.3576 2.7778 12.4088 2.83371C12.46 2.88962 12.4989 2.95555 12.5231 3.02731C12.5473 3.09906 12.5562 3.17506 12.5494 3.25046C12.547 3.39378 12.4886 3.53051 12.3865 3.63145C12.2844 3.73239 12.1468 3.78954 12.003 3.79069Z" fill="#EF232C"/>
<path id="Vector_12" d="M12.003 19.8402C11.8593 19.8379 11.7221 19.7796 11.6209 19.6778C11.5196 19.576 11.4623 19.4388 11.4612 19.2955V15.7074C11.4612 15.5618 11.5192 15.4221 11.6225 15.3191C11.7258 15.2161 11.866 15.1582 12.0121 15.1582C12.1582 15.1582 12.2983 15.2161 12.4016 15.3191C12.5049 15.4221 12.5629 15.5618 12.5629 15.7074V19.309C12.557 19.4527 12.4953 19.5885 12.3908 19.6877C12.2864 19.7868 12.1473 19.8415 12.003 19.8402Z" fill="#EF232C"/>
<path id="Vector_13" d="M12.003 21.1098C11.8601 21.1075 11.7236 21.0498 11.6225 20.949C11.5214 20.8482 11.4635 20.7121 11.4612 20.5696C11.4543 20.4942 11.4633 20.4182 11.4875 20.3464C11.5117 20.2746 11.5506 20.2087 11.6018 20.1528C11.653 20.0969 11.7153 20.0522 11.7848 20.0217C11.8543 19.9911 11.9294 19.9753 12.0053 19.9753C12.0812 19.9753 12.1563 19.9911 12.2258 20.0217C12.2953 20.0522 12.3576 20.0969 12.4088 20.1528C12.46 20.2087 12.4989 20.2746 12.5231 20.3464C12.5473 20.4182 12.5562 20.4942 12.5494 20.5696C12.5388 20.7101 12.4777 20.8421 12.3774 20.9414C12.277 21.0406 12.1441 21.1004 12.003 21.1098Z" fill="#EF232C"/>
<path id="Vector_14" d="M12.003 14.1902C11.5637 14.1902 11.1342 14.0603 10.7688 13.8169C10.4035 13.5735 10.1188 13.2276 9.95064 12.8228C9.7825 12.4181 9.73849 11.9728 9.8242 11.5431C9.90992 11.1134 10.1215 10.7188 10.4322 10.409C10.7429 10.0992 11.1387 9.88828 11.5696 9.80281C12.0006 9.71735 12.4472 9.76121 12.8532 9.92886C13.2591 10.0965 13.606 10.3804 13.8501 10.7446C14.0942 11.1089 14.2245 11.5371 14.2245 11.9752C14.2233 12.5623 13.9889 13.125 13.5725 13.5401C13.1562 13.9552 12.5918 14.189 12.003 14.1902ZM12.003 10.8002C11.6905 10.8002 11.3907 10.924 11.1697 11.1444C10.9487 11.3647 10.8246 11.6636 10.8246 11.9752C10.8246 12.2868 10.9487 12.5857 11.1697 12.8061C11.3907 13.0264 11.6905 13.1502 12.003 13.1502C12.1591 13.1552 12.3146 13.1283 12.4599 13.071C12.6051 13.0137 12.7371 12.9273 12.8475 12.8172C12.958 12.7071 13.0446 12.5755 13.102 12.4307C13.1595 12.2859 13.1865 12.1309 13.1815 11.9752C13.1768 11.665 13.0512 11.3689 12.8312 11.1495C12.6112 10.9301 12.3141 10.8049 12.003 10.8002Z" fill="#EF232C"/>
<path id="Vector_15" d="M18.9881 20.3804H14.7708C14.6779 20.3816 14.5864 20.3569 14.5066 20.3092C14.4269 20.2615 14.362 20.1926 14.3193 20.1103C14.2747 20.0272 14.2513 19.9344 14.2513 19.8401C14.2513 19.7459 14.2747 19.6531 14.3193 19.57C14.6734 19.1003 14.892 18.543 14.9514 17.9583C14.9482 17.5512 14.8622 17.1489 14.6984 16.7759C14.5346 16.4029 14.2966 16.0669 13.9987 15.7884C13.3898 16.1288 12.701 16.3013 12.003 16.2881C11.3078 16.279 10.6243 16.1079 10.0073 15.7884C9.46124 16.2512 9.12137 16.911 9.06213 17.6231C9.00289 18.3353 9.2291 19.0418 9.69122 19.588C9.73588 19.6711 9.75923 19.7639 9.75923 19.8582C9.75923 19.9524 9.73588 20.0452 9.69122 20.1283C9.64891 20.211 9.58415 20.2801 9.50431 20.3279C9.42448 20.3757 9.33278 20.4001 9.23969 20.3984H5.02246C4.8787 20.3972 4.74109 20.3401 4.63901 20.2391C4.53693 20.1382 4.47849 20.0015 4.47614 19.8582V15.2301C4.48099 15.1437 4.50351 15.0592 4.54233 14.9818C4.58116 14.9044 4.63547 14.8357 4.7019 14.78C4.77364 14.7282 4.85805 14.6967 4.94626 14.6887C5.03447 14.6808 5.12321 14.6968 5.20308 14.7349C5.45002 14.833 5.71024 14.8937 5.97517 14.915C6.38303 14.9114 6.78598 14.8258 7.15992 14.6633C7.53385 14.5009 7.8711 14.2649 8.15151 13.9696C7.84403 13.3496 7.68787 12.6659 7.69571 11.9743C7.70356 11.2827 7.87521 10.6028 8.19668 9.98988C7.91714 9.6931 7.58017 9.45591 7.20611 9.29264C6.83204 9.12937 6.42866 9.04341 6.02033 9.03996C5.75243 9.03939 5.48807 9.10105 5.24822 9.22004C5.16604 9.24715 5.07916 9.25715 4.99294 9.2494C4.90673 9.24166 4.82304 9.21634 4.74704 9.17502C4.67641 9.1231 4.61914 9.05523 4.57989 8.97698C4.54065 8.89873 4.52056 8.81232 4.52128 8.72483V4.10582C4.52068 4.0337 4.53435 3.96216 4.56148 3.8953C4.58862 3.82843 4.62868 3.76755 4.67941 3.71613C4.73014 3.66471 4.79056 3.62376 4.85716 3.59561C4.92377 3.56746 4.99529 3.55267 5.06763 3.55208H9.28483C9.37792 3.55039 9.46962 3.57481 9.54945 3.62257C9.62929 3.67033 9.69405 3.73951 9.73636 3.8222C9.78065 3.9062 9.80379 3.99967 9.80379 4.09457C9.80379 4.18947 9.78065 4.28294 9.73636 4.36694C9.37976 4.84081 9.15965 5.40273 9.09972 5.99214C9.10773 6.39851 9.19599 6.79932 9.35946 7.17166C9.52294 7.54399 9.75841 7.88055 10.0524 8.16208C10.6667 7.83586 11.3522 7.66576 12.0482 7.66687C12.7427 7.67667 13.4257 7.84614 14.0439 8.16208C14.3458 7.88675 14.5866 7.55143 14.7507 7.1777C14.9148 6.80396 14.9985 6.40011 14.9966 5.99214C14.9528 5.40464 14.7343 4.8435 14.369 4.38044C14.3247 4.29645 14.3015 4.20297 14.3015 4.10808C14.3015 4.01318 14.3247 3.9197 14.369 3.83571C14.4117 3.75335 14.4766 3.68447 14.5563 3.63676C14.636 3.58906 14.7275 3.56442 14.8205 3.56559H19.0377C19.1807 3.56791 19.3172 3.62557 19.4183 3.72639C19.5194 3.8272 19.5772 3.96327 19.5795 4.10582V8.72033C19.5752 8.80686 19.5529 8.89156 19.5141 8.96905C19.4752 9.04655 19.4206 9.11515 19.3538 9.17052C19.282 9.22229 19.1976 9.2538 19.1094 9.26173C19.0212 9.26965 18.9325 9.2537 18.8526 9.21554C18.6142 9.09707 18.3514 9.03542 18.085 9.03546C17.6773 9.04246 17.275 9.13003 16.9014 9.29308C16.5278 9.45613 16.1904 9.69144 15.9087 9.98538C16.2369 10.5974 16.4076 11.2812 16.4054 11.9752C16.3955 12.6678 16.2255 13.3487 15.9087 13.9651C16.1886 14.2611 16.5257 14.4974 16.8998 14.6599C17.2738 14.8224 17.677 14.9076 18.085 14.9105C18.3514 14.9106 18.6142 14.8489 18.8526 14.7304C18.9348 14.7033 19.0217 14.6933 19.1079 14.7011C19.1941 14.7088 19.2778 14.7341 19.3538 14.7755C19.4239 14.8279 19.4808 14.8958 19.52 14.974C19.5591 15.0521 19.5795 15.1383 19.5795 15.2256V19.8852C19.5445 20.0186 19.4688 20.1379 19.3628 20.2266C19.2569 20.3153 19.1259 20.369 18.9881 20.3804ZM15.6332 19.3449H18.4327V15.9054C18.2852 15.9427 18.1331 15.9578 17.9812 15.9505C17.3547 15.9482 16.7374 15.8001 16.1785 15.5179C15.6196 15.2358 15.1345 14.8274 14.7618 14.3253C14.6963 14.2408 14.6607 14.1371 14.6607 14.0304C14.6607 13.9236 14.6963 13.8199 14.7618 13.7355C15.0865 13.2046 15.2583 12.5948 15.2583 11.973C15.2583 11.3512 15.0865 10.7414 14.7618 10.2105C14.7065 10.1228 14.6771 10.0214 14.6771 9.91785C14.6771 9.81429 14.7065 9.71285 14.7618 9.62522C15.1307 9.11885 15.6149 8.70706 16.1746 8.42373C16.7343 8.14041 17.3535 7.99364 17.9812 7.99551C18.1331 7.98813 18.2852 8.00331 18.4327 8.04053V4.65056H15.6332C15.8344 5.07298 15.9422 5.53357 15.9493 6.00115C15.9434 6.62559 15.7928 7.24021 15.5092 7.79703C15.2257 8.35384 14.8169 8.83777 14.3148 9.21104C14.2312 9.27676 14.1278 9.3125 14.0213 9.3125C13.9148 9.3125 13.8115 9.27676 13.7278 9.21104C13.1947 8.88692 12.5823 8.71546 11.9578 8.71546C11.3334 8.71546 10.721 8.88692 10.1879 9.21104C10.1 9.26621 9.99826 9.29548 9.89441 9.29548C9.79055 9.29548 9.6888 9.26621 9.60091 9.21104C9.09033 8.84583 8.67532 8.36358 8.39086 7.80494C8.10639 7.24629 7.96081 6.62764 7.9664 6.00115C7.96831 5.53244 8.07799 5.0704 8.28699 4.65056H5.47398V8.08555C5.62147 8.04859 5.7736 8.03342 5.92551 8.04053C6.55179 8.04645 7.16823 8.19662 7.72669 8.47932C8.28515 8.76202 8.7705 9.1696 9.14486 9.67024C9.21078 9.75362 9.24664 9.8567 9.24664 9.96287C9.24664 10.069 9.21078 10.1721 9.14486 10.2555C8.81724 10.7853 8.64374 11.3956 8.64374 12.018C8.64374 12.6405 8.81724 13.2507 9.14486 13.7805C9.20008 13.869 9.22936 13.9712 9.22936 14.0754C9.22936 14.1796 9.20008 14.2818 9.14486 14.3703C8.77836 14.8788 8.29451 15.2919 7.73419 15.5748C7.17387 15.8576 6.55352 16.0019 5.92551 15.9955C5.7736 16.0026 5.62147 15.9874 5.47398 15.9505V19.39H8.28699C8.08304 18.9683 7.97363 18.5074 7.9664 18.0394C7.96885 17.4111 8.11779 16.792 8.40147 16.231C8.68514 15.6701 9.09577 15.1825 9.60091 14.807C9.68453 14.7412 9.78793 14.7055 9.89441 14.7055C10.0009 14.7055 10.1043 14.7412 10.1879 14.807C10.7202 15.1335 11.3329 15.3064 11.9578 15.3064C12.5828 15.3064 13.1956 15.1335 13.7278 14.807C13.8157 14.7518 13.9174 14.7225 14.0213 14.7225C14.1252 14.7225 14.2269 14.7518 14.3148 14.807C14.8219 15.1755 15.2343 15.6585 15.5183 16.2164C15.8024 16.7742 15.9501 17.3912 15.9493 18.0169C15.9622 18.4795 15.8532 18.9374 15.6332 19.3449Z" fill="#EF232C"/>
</g>
</svg>
