<svg width="25" height="25" viewBox="0 0 25 25" fill="none" xmlns="http://www.w3.org/2000/svg">
<g id="38, flower, decoration, china, Chinese">
<path id="Vector" d="M10.6992 9.80555C10.5889 9.79671 10.4815 9.7661 10.3831 9.71552C9.87256 9.35031 9.45755 8.86806 9.17308 8.30941C8.88861 7.75077 8.74303 7.13212 8.74862 6.50562C8.74862 5.15504 9.83679 3.84047 10.925 2.5259C11.4262 1.94064 11.9228 1.30587 12.3337 0.725116C12.3858 0.654699 12.4539 0.597586 12.5324 0.558459C12.6108 0.519333 12.6975 0.499306 12.7852 0.500018C12.8729 0.500018 12.9593 0.520359 13.0376 0.559429C13.116 0.598499 13.1842 0.655225 13.2368 0.725116C13.6431 1.35788 14.0959 1.95978 14.5913 2.5259C15.6343 3.84047 16.7677 5.19556 16.7677 6.50562C16.7617 7.13006 16.6111 7.74469 16.3276 8.3015C16.044 8.85831 15.6353 9.34225 15.1332 9.71552C15.0495 9.78124 14.9461 9.81698 14.8397 9.81698C14.7332 9.81698 14.6298 9.78124 14.5462 9.71552C14.0137 9.39179 13.4021 9.22054 12.7785 9.22054C12.1548 9.22054 11.5432 9.39179 11.0108 9.71552C10.9114 9.75928 10.8066 9.78956 10.6992 9.80555ZM12.7401 1.89562C12.4183 2.33505 12.07 2.75451 11.6971 3.15167C10.7444 4.28166 9.79164 5.45667 9.79164 6.4516C9.79965 6.85797 9.88793 7.25878 10.0514 7.63111C10.2149 8.00345 10.4504 8.34 10.7444 8.62154C11.3584 8.29479 12.0441 8.12466 12.7401 8.12633C13.4347 8.13613 14.1176 8.3056 14.7358 8.62154C15.0378 8.34621 15.2785 8.01088 15.4426 7.63715C15.6067 7.26342 15.6905 6.85957 15.6885 6.4516C15.6885 5.50169 14.6907 4.28166 13.7379 3.10665C13.3837 2.72119 13.0506 2.31692 12.7401 1.89562Z" fill="#4E473F"/>
<path id="Vector_2" d="M18.7183 16.4504C18.0918 16.4482 17.4745 16.3001 16.9156 16.0179C16.3567 15.7357 15.8716 15.3273 15.4989 14.8252C15.4334 14.7408 15.3978 14.6371 15.3978 14.5304C15.3978 14.4236 15.4334 14.3199 15.4989 14.2355C15.8236 13.7046 15.9953 13.0948 15.9953 12.473C15.9953 11.8511 15.8236 11.2413 15.4989 10.7104C15.4436 10.6228 15.4142 10.5214 15.4142 10.4178C15.4142 10.3143 15.4436 10.2128 15.4989 10.1252C15.8678 9.61883 16.352 9.20704 16.9117 8.92371C17.4714 8.64038 18.0906 8.49361 18.7183 8.49549C20.0728 8.49549 21.3913 9.58046 22.7052 10.6654C23.2967 11.1606 23.9288 11.6604 24.5113 12.0655C24.5814 12.118 24.6383 12.1859 24.6775 12.2641C24.7167 12.3422 24.7371 12.4284 24.7371 12.5157C24.7378 12.6032 24.7177 12.6896 24.6785 12.7679C24.6392 12.8461 24.5819 12.914 24.5113 12.9659C23.8778 13.3726 23.2742 13.824 22.7052 14.3165C21.4274 15.3655 20.0728 16.4504 18.7183 16.4504ZM16.5871 14.4651C16.867 14.761 17.2041 14.9974 17.5782 15.1599C17.9522 15.3224 18.3554 15.4076 18.7634 15.4105C19.7161 15.4105 20.9398 14.4156 22.1182 13.4701C22.5246 13.1505 22.9355 12.7903 23.387 12.4752C22.9453 12.152 22.5218 11.8048 22.1182 11.4353C20.9849 10.4854 19.8064 9.53544 18.8086 9.53544C18.4008 9.54244 17.9985 9.63 17.625 9.79305C17.2514 9.9561 16.914 10.1914 16.6322 10.4853C16.9605 11.0974 17.1311 11.7812 17.1289 12.4752C17.0627 13.1633 16.8826 13.8357 16.5961 14.4651H16.5871Z" fill="#4E473F"/>
<path id="Vector_3" d="M12.7401 24.4999C12.6524 24.5006 12.5657 24.4806 12.4872 24.4415C12.4087 24.4024 12.3407 24.3452 12.2886 24.2748C11.8816 23.6425 11.4289 23.0407 10.934 22.4741C9.89552 21.164 8.75768 19.8044 8.75768 18.4943C8.76362 17.8699 8.91423 17.2553 9.19777 16.6984C9.4813 16.1416 9.89008 15.6577 10.3922 15.2844C10.4769 15.2191 10.5809 15.1836 10.688 15.1836C10.795 15.1836 10.899 15.2191 10.9837 15.2844C11.5151 15.6111 12.1271 15.7841 12.7514 15.7841C13.3757 15.7841 13.9877 15.6111 14.5191 15.2844C14.607 15.2293 14.7087 15.2 14.8126 15.2C14.9164 15.2 15.0182 15.2293 15.1061 15.2844C15.6131 15.653 16.0256 16.136 16.3096 16.6938C16.5937 17.2517 16.7414 17.8687 16.7406 18.4943C16.7406 19.8449 15.6524 21.164 14.5643 22.4741C14.066 23.0503 13.5973 23.6513 13.16 24.2748C13.1152 24.345 13.0531 24.4026 12.9795 24.442C12.906 24.4815 12.8236 24.5014 12.7401 24.4999ZM10.7444 16.3154C10.4472 16.5944 10.2095 16.9305 10.0458 17.3034C9.88209 17.6763 9.79564 18.0783 9.79166 18.4853C9.79166 19.4352 10.7895 20.6553 11.7422 21.8303C12.0628 22.2399 12.4241 22.6451 12.7401 23.0998C13.0562 22.6496 13.4219 22.2399 13.7831 21.7853C14.7358 20.6553 15.6885 19.4803 15.6885 18.4853C15.6853 18.0782 15.5993 17.6759 15.4355 17.3029C15.2717 16.9299 15.0337 16.5939 14.7358 16.3154C14.1133 16.6145 13.4312 16.7699 12.7401 16.7699C12.0491 16.7699 11.3669 16.6145 10.7444 16.3154Z" fill="#4E473F"/>
<path id="Vector_4" d="M6.75744 16.4504C5.40287 16.4504 4.0799 15.3655 2.76597 14.2805C2.17447 13.7853 1.54234 13.2856 0.959876 12.8804C0.890581 12.8274 0.834455 12.7593 0.795819 12.6812C0.757183 12.6031 0.737091 12.5172 0.737091 12.4302C0.737091 12.3431 0.757183 12.2573 0.795819 12.1792C0.834455 12.1011 0.890581 12.033 0.959876 11.98C1.59343 11.5733 2.197 11.122 2.76597 10.6294C4.0799 9.58946 5.43899 8.45947 6.75744 8.45947C7.38334 8.46486 7.99954 8.61434 8.55796 8.89625C9.11639 9.17816 9.60196 9.58487 9.9768 10.0847C10.0423 10.1691 10.0779 10.2728 10.0779 10.3796C10.0779 10.4863 10.0423 10.59 9.9768 10.6744C9.64917 11.2043 9.47567 11.8145 9.47567 12.4369C9.47567 13.0594 9.64917 13.6696 9.9768 14.1995C10.032 14.288 10.0613 14.3901 10.0613 14.4943C10.0613 14.5986 10.032 14.7007 9.9768 14.7892C9.60823 15.2982 9.12486 15.7138 8.56565 16.0023C8.00645 16.2909 7.38706 16.4444 6.75744 16.4504ZM2.12933 12.4752C2.58085 12.7903 2.99173 13.1505 3.44777 13.5152C4.58109 14.4651 5.75957 15.4105 6.75744 15.4105C7.16531 15.4068 7.56825 15.3212 7.94219 15.1588C8.31613 14.9964 8.65338 14.7604 8.93378 14.4651C8.59276 13.8578 8.41977 13.1711 8.43257 12.4752C8.44066 11.7819 8.61237 11.1002 8.93378 10.4854C8.65425 10.1886 8.31727 9.95138 7.94321 9.78811C7.56915 9.62484 7.16576 9.53889 6.75744 9.53544C5.80473 9.53544 4.5811 10.5304 3.40263 11.4803C2.99174 11.7954 2.58537 12.1556 2.12933 12.4752Z" fill="#4E473F"/>
<path id="Vector_5" d="M12.7401 16.7701C11.8881 16.7701 11.0553 16.5182 10.3469 16.0463C9.63858 15.5743 9.08647 14.9036 8.76045 14.1188C8.43442 13.334 8.34913 12.4705 8.51534 11.6373C8.68154 10.8042 9.0918 10.0389 9.69422 9.43829C10.2966 8.83764 11.0642 8.4286 11.8997 8.26288C12.7353 8.09716 13.6014 8.18221 14.3885 8.50728C15.1756 8.83235 15.8483 9.38283 16.3217 10.0891C16.795 10.7954 17.0476 11.6258 17.0476 12.4752C17.0405 13.6121 16.5844 14.7004 15.7781 15.5043C14.9718 16.3082 13.8803 16.763 12.7401 16.7701ZM12.7401 9.2203C12.0946 9.22119 11.4639 9.41285 10.9277 9.77104C10.3914 10.1292 9.97368 10.6379 9.72729 11.2327C9.4809 11.8276 9.41689 12.4819 9.54336 13.113C9.66983 13.7441 9.98111 14.3236 10.4378 14.7784C10.8946 15.2331 11.4763 15.5427 12.1094 15.6679C12.7425 15.7931 13.3987 15.7284 13.9949 15.4819C14.5912 15.2354 15.1008 14.8182 15.4593 14.2831C15.8178 13.7479 16.0091 13.1188 16.0091 12.4752C16.0109 12.0469 15.9275 11.6225 15.7638 11.2265C15.6001 10.8304 15.3593 10.4707 15.0554 10.1681C14.7514 9.86539 14.3903 9.6258 13.9929 9.46313C13.5955 9.30045 13.1697 9.21792 12.7401 9.2203Z" fill="#4E473F"/>
<path id="Vector_6" d="M20.0728 13.0154H16.5058C16.4302 13.0223 16.354 13.0134 16.282 12.9893C16.21 12.9651 16.1439 12.9263 16.0878 12.8753C16.0318 12.8242 15.987 12.7621 15.9563 12.6928C15.9257 12.6235 15.9098 12.5487 15.9098 12.473C15.9098 12.3973 15.9257 12.3224 15.9563 12.2531C15.987 12.1838 16.0318 12.1217 16.0878 12.0707C16.1439 12.0196 16.21 11.9808 16.282 11.9567C16.354 11.9325 16.4302 11.9236 16.5058 11.9305H20.0728C20.2086 11.9428 20.3348 12.0053 20.4267 12.1057C20.5186 12.206 20.5696 12.3371 20.5696 12.473C20.5696 12.6089 20.5186 12.7399 20.4267 12.8402C20.3348 12.9406 20.2086 13.0031 20.0728 13.0154Z" fill="#4E473F"/>
<path id="Vector_7" d="M21.3552 13.0154C21.2833 13.018 21.2118 13.0057 21.1449 12.9794C21.078 12.9532 21.0173 12.9135 20.9664 12.8628C20.9156 12.8121 20.8758 12.7516 20.8494 12.6849C20.8231 12.6182 20.8108 12.5468 20.8133 12.4752C20.8145 12.3319 20.8718 12.1947 20.973 12.0929C21.0743 11.9911 21.2114 11.9328 21.3552 11.9305C21.4993 11.9328 21.6369 11.9909 21.7389 12.0926C21.8409 12.1942 21.8992 12.3315 21.9015 12.4752C21.8909 12.6158 21.8299 12.7478 21.7295 12.847C21.6291 12.9463 21.4962 13.0061 21.3552 13.0154Z" fill="#4E473F"/>
<path id="Vector_8" d="M8.93378 13.0154H5.34869C5.21294 13.0031 5.08671 12.9406 4.99481 12.8402C4.9029 12.7399 4.85194 12.6089 4.85194 12.473C4.85194 12.3371 4.9029 12.206 4.99481 12.1057C5.08671 12.0053 5.21294 11.9428 5.34869 11.9305H8.93378C9.06953 11.9428 9.19573 12.0053 9.28764 12.1057C9.37954 12.206 9.4305 12.3371 9.4305 12.473C9.4305 12.6089 9.37954 12.7399 9.28764 12.8402C9.19573 12.9406 9.06953 13.0031 8.93378 13.0154Z" fill="#4E473F"/>
<path id="Vector_9" d="M12.7401 9.2203C12.5964 9.21795 12.4592 9.15967 12.358 9.05789C12.2568 8.95611 12.1994 8.8189 12.1983 8.67556V5.10551C12.1914 5.03012 12.2003 4.95412 12.2245 4.88236C12.2488 4.81061 12.2877 4.74467 12.3389 4.68876C12.3901 4.63285 12.4524 4.5882 12.5219 4.55764C12.5914 4.52709 12.6664 4.51131 12.7424 4.51131C12.8183 4.51131 12.8934 4.52709 12.9629 4.55764C13.0323 4.5882 13.0947 4.63285 13.1459 4.68876C13.1971 4.74467 13.236 4.81061 13.2602 4.88236C13.2844 4.95412 13.2933 5.03012 13.2864 5.10551V8.67556C13.2841 8.81931 13.2258 8.95652 13.1239 9.05818C13.0219 9.15984 12.8843 9.21798 12.7401 9.2203Z" fill="#4E473F"/>
<path id="Vector_10" d="M4.03473 13.0154C3.96289 13.018 3.89131 13.0057 3.82443 12.9794C3.75755 12.9532 3.69681 12.9135 3.64598 12.8628C3.59516 12.8121 3.55536 12.7516 3.52902 12.6849C3.50269 12.6182 3.4904 12.5468 3.49292 12.4752C3.49408 12.3319 3.55139 12.1947 3.65263 12.0929C3.75386 11.9911 3.89098 11.9328 4.03473 11.9305C4.1789 11.9328 4.31652 11.9909 4.41848 12.0926C4.52044 12.1942 4.57875 12.3315 4.58108 12.4752C4.56306 12.6129 4.4996 12.7408 4.40068 12.8386C4.30176 12.9364 4.17301 12.9986 4.03473 13.0154Z" fill="#4E473F"/>
<path id="Vector_11" d="M12.7401 4.29066C12.5971 4.28834 12.4607 4.23068 12.3596 4.12987C12.2584 4.02905 12.2006 3.89298 12.1983 3.75043C12.1914 3.67503 12.2003 3.59903 12.2245 3.52728C12.2488 3.45552 12.2877 3.38959 12.3389 3.33368C12.3901 3.27777 12.4524 3.23311 12.5219 3.20255C12.5914 3.172 12.6664 3.15622 12.7424 3.15622C12.8183 3.15622 12.8934 3.172 12.9629 3.20255C13.0323 3.23311 13.0947 3.27777 13.1459 3.33368C13.1971 3.38959 13.236 3.45552 13.2602 3.52728C13.2844 3.59903 13.2933 3.67503 13.2864 3.75043C13.2841 3.89375 13.2257 4.03048 13.1236 4.13142C13.0215 4.23236 12.8839 4.28951 12.7401 4.29066Z" fill="#4E473F"/>
<path id="Vector_12" d="M12.7401 20.3401C12.5964 20.3378 12.4592 20.2795 12.358 20.1777C12.2567 20.0759 12.1994 19.9387 12.1983 19.7954V16.2073C12.1983 16.0617 12.2563 15.922 12.3596 15.819C12.4629 15.716 12.603 15.6581 12.7491 15.6581C12.8952 15.6581 13.0354 15.716 13.1387 15.819C13.242 15.922 13.3 16.0617 13.3 16.2073V19.8089C13.2941 19.9526 13.2324 20.0884 13.1279 20.1875C13.0234 20.2867 12.8843 20.3414 12.7401 20.3401Z" fill="#4E473F"/>
<path id="Vector_13" d="M12.7401 21.6097C12.5971 21.6074 12.4607 21.5497 12.3596 21.4489C12.2584 21.3481 12.2006 21.212 12.1983 21.0694C12.1914 20.994 12.2003 20.918 12.2245 20.8463C12.2488 20.7745 12.2877 20.7086 12.3389 20.6527C12.3901 20.5968 12.4524 20.5521 12.5219 20.5216C12.5914 20.491 12.6664 20.4752 12.7424 20.4752C12.8183 20.4752 12.8934 20.491 12.9629 20.5216C13.0323 20.5521 13.0947 20.5968 13.1459 20.6527C13.1971 20.7086 13.236 20.7745 13.2602 20.8463C13.2844 20.918 13.2933 20.994 13.2864 21.0694C13.2759 21.21 13.2148 21.342 13.1144 21.4413C13.0141 21.5405 12.8812 21.6003 12.7401 21.6097Z" fill="#4E473F"/>
<path id="Vector_14" d="M12.7401 14.6902C12.3007 14.6902 11.8712 14.5603 11.5059 14.3169C11.1406 14.0735 10.8559 13.7276 10.6877 13.3228C10.5196 12.9181 10.4756 12.4728 10.5613 12.0431C10.647 11.6134 10.8586 11.2188 11.1693 10.909C11.4799 10.5992 11.8758 10.3883 12.3067 10.3028C12.7376 10.2173 13.1843 10.2612 13.5902 10.4289C13.9962 10.5965 14.3431 10.8804 14.5872 11.2446C14.8313 11.6089 14.9616 12.0371 14.9616 12.4752C14.9604 13.0623 14.726 13.625 14.3096 14.0401C13.8933 14.4552 13.3289 14.689 12.7401 14.6902ZM12.7401 11.3002C12.4276 11.3002 12.1278 11.424 11.9068 11.6444C11.6858 11.8647 11.5616 12.1636 11.5616 12.4752C11.5616 12.7868 11.6858 13.0857 11.9068 13.3061C12.1278 13.5264 12.4276 13.6502 12.7401 13.6502C12.8962 13.6552 13.0517 13.6283 13.197 13.571C13.3422 13.5137 13.4741 13.4273 13.5846 13.3172C13.695 13.2071 13.7817 13.0755 13.8391 12.9307C13.8965 12.7859 13.9236 12.6309 13.9186 12.4752C13.9139 12.165 13.7883 11.8688 13.5683 11.6495C13.3482 11.4301 13.0512 11.3048 12.7401 11.3002Z" fill="#4E473F"/>
<path id="Vector_15" d="M19.7252 20.8804H15.5079C15.415 20.8815 15.3235 20.8569 15.2437 20.8092C15.164 20.7615 15.0991 20.6926 15.0564 20.6102C15.0118 20.5272 14.9884 20.4344 14.9884 20.3401C14.9884 20.2459 15.0118 20.1531 15.0564 20.07C15.4105 19.6003 15.6291 19.0429 15.6885 18.4583C15.6853 18.0511 15.5993 17.6489 15.4355 17.2759C15.2717 16.9029 15.0337 16.5669 14.7358 16.2884C14.1269 16.6288 13.4381 16.8013 12.7401 16.7881C12.0449 16.779 11.3614 16.6079 10.7444 16.2884C10.1983 16.7512 9.85847 17.4109 9.79923 18.1231C9.73999 18.8353 9.9662 19.5418 10.4283 20.088C10.473 20.1711 10.4963 20.2639 10.4963 20.3581C10.4963 20.4524 10.473 20.5452 10.4283 20.6283C10.386 20.7109 10.3212 20.7801 10.2414 20.8279C10.1616 20.8756 10.0699 20.9001 9.97679 20.8984H5.75956C5.6158 20.8972 5.47819 20.8401 5.37611 20.7391C5.27403 20.6382 5.21559 20.5015 5.21323 20.3581V15.7301C5.21809 15.6437 5.24061 15.5592 5.27943 15.4818C5.31825 15.4043 5.37257 15.3357 5.439 15.2799C5.51074 15.2282 5.59515 15.1966 5.68336 15.1887C5.77157 15.1808 5.86031 15.1968 5.94018 15.2349C6.18712 15.3329 6.44734 15.3936 6.71226 15.415C7.12013 15.4113 7.52308 15.3257 7.89702 15.1633C8.27095 15.0009 8.6082 14.7649 8.88861 14.4696C8.58113 13.8496 8.42497 13.1659 8.43281 12.4743C8.44066 11.7827 8.61231 11.1028 8.93378 10.4899C8.65424 10.1931 8.31727 9.95588 7.9432 9.79261C7.56914 9.62935 7.16575 9.54339 6.75743 9.53994C6.48953 9.53937 6.22517 9.60102 5.98532 9.72002C5.90314 9.74713 5.81626 9.75712 5.73004 9.74938C5.64383 9.74164 5.56013 9.71632 5.48414 9.675C5.41351 9.62308 5.35623 9.55521 5.31699 9.47696C5.27775 9.3987 5.25766 9.31229 5.25838 9.22481V4.6058C5.25778 4.53367 5.27145 4.46214 5.29858 4.39527C5.32572 4.32841 5.36577 4.26753 5.41651 4.21611C5.46724 4.16469 5.52765 4.12374 5.59426 4.09559C5.66087 4.06744 5.73239 4.05265 5.80473 4.05206H10.0219C10.115 4.05036 10.2067 4.07479 10.2866 4.12255C10.3664 4.17031 10.4312 4.23949 10.4735 4.32218C10.5178 4.40617 10.5409 4.49965 10.5409 4.59455C10.5409 4.68945 10.5178 4.78292 10.4735 4.86692C10.1169 5.34079 9.89674 5.90271 9.83682 6.49212C9.84483 6.89849 9.93309 7.2993 10.0966 7.67163C10.26 8.04397 10.4955 8.38053 10.7895 8.66206C11.4038 8.33583 12.0893 8.16574 12.7853 8.16685C13.4798 8.17665 14.1628 8.34612 14.781 8.66206C15.0829 8.38673 15.3237 8.0514 15.4878 7.67767C15.6519 7.30394 15.7356 6.90009 15.7337 6.49212C15.6899 5.90461 15.4714 5.34348 15.1061 4.88042C15.0618 4.79643 15.0386 4.70295 15.0386 4.60805C15.0386 4.51316 15.0618 4.41968 15.1061 4.33568C15.1488 4.25333 15.2137 4.18444 15.2934 4.13674C15.3731 4.08904 15.4646 4.06439 15.5576 4.06557H19.7748C19.9178 4.06789 20.0543 4.12555 20.1554 4.22636C20.2565 4.32718 20.3143 4.46325 20.3166 4.6058V9.2203C20.3123 9.30684 20.29 9.39153 20.2512 9.46903C20.2123 9.54653 20.1577 9.61513 20.0909 9.6705C20.0191 9.72227 19.9347 9.75378 19.8465 9.7617C19.7583 9.76963 19.6696 9.75367 19.5897 9.71552C19.3513 9.59705 19.0885 9.5354 18.8221 9.53544C18.4144 9.54244 18.0121 9.63 17.6385 9.79305C17.2649 9.95611 16.9275 10.1914 16.6458 10.4854C16.974 11.0974 17.1447 11.7812 17.1425 12.4752C17.1326 13.1678 16.9626 13.8487 16.6458 14.4651C16.9257 14.761 17.2628 14.9974 17.6369 15.1599C18.0109 15.3224 18.4141 15.4076 18.8221 15.4105C19.0885 15.4105 19.3513 15.3489 19.5897 15.2304C19.6719 15.2033 19.7588 15.1933 19.845 15.2011C19.9312 15.2088 20.0149 15.2341 20.0909 15.2754C20.161 15.3278 20.2179 15.3958 20.2571 15.474C20.2962 15.5521 20.3166 15.6383 20.3166 15.7256V20.3851C20.2816 20.5186 20.2059 20.6379 20.0999 20.7266C19.994 20.8153 19.863 20.869 19.7252 20.8804ZM16.3703 19.8449H19.1698V16.4054C19.0223 16.4426 18.8702 16.4578 18.7183 16.4504C18.0918 16.4482 17.4745 16.3001 16.9156 16.0179C16.3567 15.7358 15.8716 15.3273 15.4989 14.8252C15.4334 14.7408 15.3978 14.6371 15.3978 14.5304C15.3978 14.4236 15.4334 14.3199 15.4989 14.2355C15.8236 13.7046 15.9953 13.0948 15.9953 12.473C15.9953 11.8512 15.8236 11.2413 15.4989 10.7105C15.4436 10.6228 15.4142 10.5214 15.4142 10.4178C15.4142 10.3143 15.4436 10.2128 15.4989 10.1252C15.8678 9.61883 16.352 9.20704 16.9117 8.92371C17.4714 8.64038 18.0906 8.49362 18.7183 8.49549C18.8702 8.48811 19.0223 8.50328 19.1698 8.54051V5.15054H16.3703C16.5715 5.57296 16.6793 6.03355 16.6864 6.50112C16.6805 7.12557 16.5299 7.74019 16.2463 8.297C15.9628 8.85382 15.554 9.33775 15.0519 9.71102C14.9683 9.77674 14.8649 9.81248 14.7584 9.81248C14.6519 9.81248 14.5486 9.77674 14.4649 9.71102C13.9318 9.3869 13.3194 9.21544 12.6949 9.21544C12.0705 9.21544 11.4581 9.3869 10.925 9.71102C10.8371 9.76619 10.7354 9.79546 10.6315 9.79546C10.5276 9.79546 10.4259 9.76619 10.338 9.71102C9.82743 9.34581 9.41242 8.86356 9.12796 8.30491C8.84349 7.74627 8.69791 7.12762 8.7035 6.50112C8.70541 6.03241 8.81509 5.57038 9.02409 5.15054H6.21108V8.58553C6.35857 8.54856 6.5107 8.5334 6.6626 8.54051C7.28889 8.54642 7.90533 8.6966 8.46379 8.9793C9.02224 9.262 9.5076 9.66958 9.88196 10.1702C9.94788 10.2536 9.98374 10.3567 9.98374 10.4628C9.98374 10.569 9.94788 10.6721 9.88196 10.7555C9.55434 11.2853 9.38083 11.8955 9.38083 12.518C9.38083 13.1404 9.55434 13.7506 9.88196 14.2805C9.93718 14.369 9.96646 14.4711 9.96646 14.5754C9.96646 14.6796 9.93718 14.7818 9.88196 14.8703C9.51545 15.3788 9.03161 15.7919 8.47129 16.0748C7.91096 16.3576 7.29062 16.5019 6.6626 16.4955C6.5107 16.5026 6.35857 16.4874 6.21108 16.4504V19.8899H9.02409C8.82013 19.4683 8.71073 19.0074 8.7035 18.5393C8.70595 17.9111 8.85489 17.292 9.13857 16.731C9.42224 16.17 9.83287 15.6825 10.338 15.3069C10.4216 15.2412 10.525 15.2055 10.6315 15.2055C10.738 15.2055 10.8414 15.2412 10.925 15.3069C11.4573 15.6335 12.07 15.8064 12.6949 15.8064C13.3199 15.8064 13.9327 15.6335 14.4649 15.3069C14.5528 15.2518 14.6545 15.2225 14.7584 15.2225C14.8623 15.2225 14.964 15.2518 15.0519 15.3069C15.559 15.6755 15.9714 16.1585 16.2554 16.7163C16.5395 17.2742 16.6872 17.8912 16.6864 18.5168C16.6993 18.9795 16.5903 19.4374 16.3703 19.8449Z" fill="#4E473F"/>
</g>
</svg>
