<svg width="41" height="41" viewBox="0 0 41 41" fill="none" xmlns="http://www.w3.org/2000/svg">
<g id="Capa_1">
<rect x="0.958252" y="1.45142" width="39" height="39" rx="3.5" stroke="#4E473F"/>
<g id="Group">
<g id="Group_2">
<g id="Group_3">
<path id="Vector" d="M31.7977 13.085C31.0793 11.8032 29.7168 11.0073 28.2421 11.0073C27.5481 11.0073 26.8607 11.1871 26.2557 11.5272L18.6037 15.8225L19.484 17.3914L27.1364 13.0961C27.4748 12.9065 27.8572 12.8062 28.2433 12.8062C29.0673 12.8062 29.8281 13.2502 30.2293 13.9654C30.5257 14.4938 30.5982 15.1066 30.4335 15.6912C30.2696 16.2758 29.888 16.7619 29.3596 17.0583L22.4231 20.9507C22.291 20.1055 21.8968 19.326 21.2799 18.7087C20.1921 17.6221 18.4679 17.2377 17.0197 17.7575L16.3935 17.983L17.0018 19.675L17.6305 19.4508C18.4394 19.1564 19.402 19.3757 20.0083 19.9808C20.3581 20.331 20.5795 20.7746 20.6496 21.2553C20.6203 21.2484 20.5909 21.241 20.5628 21.2329C19.9769 21.0682 19.4917 20.6862 19.1949 20.1557L18.8679 19.578L17.2978 20.4602L17.6269 21.038C18.1585 21.9867 19.0278 22.6717 20.0764 22.966C20.1127 22.9754 20.1494 22.9856 20.1861 22.9942C20.1307 23.0643 20.0715 23.1312 20.0087 23.194L14.2746 28.9285C13.8457 29.357 13.2749 29.5926 12.6678 29.5926C12.0603 29.5926 11.4895 29.357 11.0614 28.9285C10.6333 28.5 10.3977 27.93 10.3977 27.322C10.3977 26.7145 10.6333 26.1442 11.0614 25.7161L16.0417 20.7363L14.7692 19.4638L9.78939 24.4436C9.02032 25.2133 8.59668 26.2355 8.59668 27.322C8.59668 28.4094 9.02032 29.4311 9.78924 30.2009C10.5586 30.9702 11.5803 31.393 12.6677 31.393C13.7551 31.393 14.7768 30.9702 15.5462 30.2009L21.2815 24.4668C21.7015 24.0452 22.0244 23.5355 22.2266 22.9766C22.5589 22.8881 22.8749 22.7609 23.1684 22.5954L30.2403 18.6271C31.187 18.095 31.8711 17.2254 32.1651 16.178C32.4594 15.1301 32.3289 14.0313 31.7977 13.085Z" fill="#4E473F"/>
</g>
<g id="Group_4">
<g id="Group_5">
<path id="Vector_2" d="M16.5764 13.4503C16.8023 13.4091 16.9531 13.1922 16.912 12.9659L16.0541 8.20381C16.0129 7.97714 15.7952 7.82627 15.5693 7.86664C15.3431 7.90782 15.1918 8.12471 15.233 8.35182L16.0912 13.1131C16.132 13.3403 16.3493 13.4907 16.5764 13.4503Z" fill="#4E473F"/>
</g>
</g>
<g id="Group_6">
<g id="Group_7">
<path id="Vector_3" d="M9.08693 18.534L13.8486 17.6753C14.0753 17.6342 14.2262 17.4173 14.185 17.191C14.1438 16.9639 13.9269 16.8126 13.701 16.8538L8.93891 17.7129C8.71305 17.7528 8.56177 17.9709 8.60295 18.1972C8.64333 18.424 8.86107 18.5748 9.08693 18.534Z" fill="#4E473F"/>
</g>
</g>
</g>
</g>
</g>
</svg>
