<svg width="24" height="25" viewBox="0 0 24 25" fill="none" xmlns="http://www.w3.org/2000/svg">
<g id="Capa_1">
<g id="Group">
<g id="Group_2">
<g id="Group_3">
<path id="Vector" d="M18.8039 7.78007C18.3729 7.01096 17.5553 6.53345 16.6705 6.53345C16.2542 6.53345 15.8417 6.64134 15.4787 6.84535L10.8875 9.42253L11.4157 10.3639L16.0071 7.78669C16.2102 7.67293 16.4396 7.61277 16.6713 7.61277C17.1657 7.61277 17.6222 7.87917 17.8629 8.30827C18.0407 8.62532 18.0842 8.99299 17.9854 9.34377C17.8871 9.69456 17.6581 9.98618 17.341 10.164L13.1792 12.4995C13.0999 11.9924 12.8634 11.5247 12.4932 11.1543C11.8406 10.5023 10.806 10.2717 9.93711 10.5836L9.56138 10.7188L9.92637 11.7341L10.3036 11.5995C10.7889 11.4229 11.3665 11.5545 11.7303 11.9175C11.9401 12.1276 12.073 12.3938 12.1151 12.6822C12.0974 12.6781 12.0798 12.6737 12.063 12.6688C11.7114 12.57 11.4203 12.3407 11.2422 12.0225L11.0461 11.6758L10.104 12.2052L10.3014 12.5518C10.6204 13.1211 11.142 13.5321 11.7711 13.7087C11.7929 13.7143 11.8149 13.7204 11.8369 13.7256C11.8037 13.7676 11.7682 13.8078 11.7305 13.8454L8.29008 17.2861C8.03274 17.5432 7.69026 17.6846 7.32599 17.6846C6.96148 17.6846 6.619 17.5432 6.36214 17.2861C6.10528 17.029 5.96389 16.687 5.96389 16.3223C5.96389 15.9578 6.10528 15.6156 6.36214 15.3587L9.35029 12.3708L8.58681 11.6073L5.59893 14.5952C5.13748 15.057 4.8833 15.6703 4.8833 16.3222C4.8833 16.9747 5.13748 17.5877 5.59884 18.0496C6.06046 18.5112 6.6735 18.7649 7.32593 18.7649C7.97835 18.7649 8.59139 18.5112 9.05302 18.0496L12.4942 14.6091C12.7462 14.3562 12.9399 14.0504 13.0613 13.715C13.2606 13.6619 13.4502 13.5856 13.6264 13.4863L17.8694 11.1053C18.4375 10.7861 18.848 10.2643 19.0243 9.63584C19.2009 9.00713 19.1227 8.34784 18.8039 7.78007Z" fill="#4E473F"/>
</g>
<g id="Group_4">
<g id="Group_5">
<path id="Vector_2" d="M9.67096 7.99938C9.80648 7.97468 9.897 7.84455 9.87229 7.70876L9.35758 4.85148C9.33287 4.71548 9.20223 4.62496 9.06671 4.64919C8.93095 4.67389 8.84019 4.80402 8.8649 4.94029L9.37985 7.79706C9.40432 7.93336 9.53472 8.02361 9.67096 7.99938Z" fill="#4E473F"/>
</g>
</g>
<g id="Group_6">
<g id="Group_7">
<path id="Vector_3" d="M5.17725 11.0495L8.03429 10.5343C8.17029 10.5096 8.26081 10.3795 8.2361 10.2437C8.2114 10.1074 8.08127 10.0167 7.94572 10.0414L5.08844 10.5568C4.95293 10.5808 4.86216 10.7117 4.88687 10.8475C4.9111 10.9835 5.04174 11.074 5.17725 11.0495Z" fill="#4E473F"/>
</g>
</g>
</g>
</g>
</g>
</svg>
