<svg width="24" height="24" viewBox="0 0 24 24" fill="none" xmlns="http://www.w3.org/2000/svg">
<g id="social">
<path id="Vector" d="M9.35005 4.80019C9.09331 4.80202 6.98993 4.86162 4.76919 6.51755C4.76919 6.51755 2.3999 10.7949 2.3999 16.0607C2.3999 16.0607 3.78168 18.4382 7.41813 18.5538C7.41813 18.5538 8.02695 17.8276 8.52025 17.1995C6.43154 16.5714 5.64116 15.2667 5.64116 15.2667C5.64116 15.2667 5.80621 15.3822 6.10145 15.5482C6.11795 15.5482 6.13354 15.5656 6.16563 15.5812C6.21606 15.6133 6.26466 15.6307 6.31417 15.6637C6.72495 15.8947 7.13572 16.0763 7.51532 16.2239C8.19016 16.5054 8.99612 16.7521 9.93503 16.9336C11.1692 17.1647 12.617 17.2472 14.195 16.951C15.0132 16.7987 15.8132 16.5609 16.5817 16.2413C17.2472 15.99 17.8816 15.663 18.4723 15.2667C18.4723 15.2667 17.6508 16.6035 15.4951 17.2151C15.9884 17.8257 16.5817 18.5345 16.5817 18.5345C20.2172 18.419 21.5999 16.0405 21.5999 16.0589C21.5999 10.7903 19.2306 6.5148 19.2306 6.5148C16.8778 4.75068 14.6232 4.80019 14.6232 4.80019L14.393 5.06426C17.1896 5.90598 18.4898 7.14563 18.4898 7.14563C16.9552 6.30997 15.2742 5.77734 13.5385 5.57681C12.433 5.45375 11.3166 5.46484 10.2138 5.60982C10.1157 5.60982 10.0331 5.62724 9.9332 5.64191C9.35738 5.70793 7.9591 5.90598 6.19864 6.6826C5.59073 6.94666 5.22764 7.14563 5.22764 7.14563C5.22764 7.14563 6.57916 5.84088 9.53985 4.99916L9.3748 4.80019H9.35005ZM8.93102 10.893C9.8681 10.893 10.6264 11.7017 10.609 12.7094C10.609 13.718 9.8681 14.5267 8.93102 14.5267C8.00953 14.5267 7.25308 13.7171 7.25308 12.7094C7.25308 11.7017 7.99211 10.893 8.93102 10.893ZM14.9368 10.893C15.8573 10.893 16.6147 11.7017 16.6147 12.7094C16.6147 13.718 15.8729 14.5267 14.9368 14.5267C14.0143 14.5267 13.2588 13.7171 13.2588 12.7094C13.2588 11.7017 13.9978 10.893 14.9368 10.893Z" fill="#4E473F"/>
</g>
</svg>
