<svg width="24" height="25" viewBox="0 0 24 25" fill="none" xmlns="http://www.w3.org/2000/svg">
<path d="M23.7361 9.69151L12.4392 0.654089C12.1825 0.448637 11.8176 0.448637 11.5608 0.654089L0.26393 9.69155C0.0307744 9.87812 -0.0591784 10.1916 0.0396806 10.4733C0.138493 10.7551 0.404554 10.9437 0.703147 10.9437H4.68108C4.57327 11.4527 4.51871 11.9733 4.51871 12.5C4.51871 13.6716 4.78969 14.781 5.27185 15.7692V17.7718C5.27185 18.1601 5.58666 18.475 5.97497 18.475C6.36328 18.475 6.67809 18.1601 6.67809 17.7718V17.7524C7.24406 18.3257 7.90153 18.8084 8.62677 19.1763C8.08495 19.376 7.56042 19.624 7.06036 19.9187C5.61347 20.7717 4.40415 21.991 3.56317 23.4448C3.43731 23.6623 3.43717 23.9304 3.5627 24.1481C3.68828 24.3659 3.92045 24.5 4.17179 24.5H19.8281C20.0794 24.5 20.3116 24.3659 20.4372 24.1481C20.5628 23.9305 20.5626 23.6623 20.4367 23.4447C19.5957 21.991 18.3864 20.7717 16.9395 19.9187C16.4394 19.624 15.9149 19.376 15.3731 19.1763C16.0983 18.8084 16.7558 18.3257 17.3218 17.7524V17.7718C17.3218 18.1601 17.6366 18.475 18.0249 18.475C18.4132 18.475 18.728 18.1601 18.728 17.7718V15.7692C19.2102 14.7809 19.4811 13.6716 19.4811 12.5C19.4811 11.9733 19.4265 11.4527 19.3187 10.9437H23.2968C23.5954 10.9437 23.8615 10.7551 23.9603 10.4733C24.0591 10.1916 23.9692 9.87807 23.7361 9.69151ZM11.2969 23.0937H5.505C6.92836 21.3293 9.02676 20.2051 11.2969 20.0112V23.0937ZM18.495 23.0937H12.7031V20.0112C14.9732 20.2051 17.0716 21.3293 18.495 23.0937ZM17.8726 14.0562H14.2594C13.8711 14.0562 13.5563 14.371 13.5563 14.7593C13.5563 15.1476 13.8711 15.4624 14.2594 15.4624H17.302C16.2611 17.318 14.2748 18.5749 12.0001 18.5749C9.72533 18.5749 7.73896 17.318 6.69806 15.4624H9.74071C10.129 15.4624 10.4438 15.1476 10.4438 14.7593C10.4438 14.371 10.129 14.0562 9.74071 14.0562H6.12745C5.99564 13.5592 5.9251 13.0377 5.9251 12.5C5.9251 11.9705 5.99278 11.4489 6.12633 10.9437H17.8739C18.0073 11.4489 18.075 11.9704 18.075 12.5C18.075 13.0378 18.0044 13.5593 17.8726 14.0562ZM2.70765 9.53743L12 2.10355L21.2924 9.53743H2.70765Z" fill="#FFFF"/>
</svg>
