<svg width="25" height="25" viewBox="0 0 25 25" fill="none" xmlns="http://www.w3.org/2000/svg">
<g id="41, Door, bridge, china, chinese">
<path id="Vector" d="M6.6202 20.5733H3.68832C3.55421 20.57 3.42654 20.5151 3.33206 20.4199C3.23759 20.3247 3.18364 20.1966 3.18152 20.0625V7.80928C3.18368 7.67561 3.23777 7.54801 3.33235 7.45348C3.42692 7.35895 3.55459 7.30489 3.68832 7.30273H6.6202C6.75394 7.30489 6.8816 7.35895 6.97618 7.45348C7.07075 7.54801 7.12484 7.67561 7.127 7.80928V20.0625C7.11828 20.1944 7.06219 20.3187 6.96907 20.4126C6.87595 20.5064 6.75207 20.5635 6.6202 20.5733ZM4.16581 19.5979H6.11339V8.36187H4.16581V19.5979Z" fill="#EF232C"/>
<path id="Vector_2" d="M20.8231 20.5733H17.8912C17.7563 20.5711 17.6276 20.5166 17.5322 20.4213C17.4369 20.326 17.3823 20.1973 17.3802 20.0625V7.80928C17.3834 7.67523 17.4384 7.54763 17.5337 7.4532C17.6289 7.35878 17.757 7.30486 17.8912 7.30273H20.8231C20.9568 7.30489 21.0844 7.35895 21.179 7.45348C21.2736 7.54801 21.3277 7.67561 21.3298 7.80928V20.0625C21.322 20.1947 21.2662 20.3195 21.1729 20.4135C21.0796 20.5075 20.9552 20.5643 20.8231 20.5733ZM18.3728 19.5979H20.3163V8.36187H18.3728V19.5979Z" fill="#EF232C"/>
<path id="Vector_3" d="M21.7947 22.0509H2.67053C2.53679 22.0488 2.40913 21.9947 2.31455 21.9002C2.21997 21.8057 2.16588 21.6781 2.16373 21.5444V20.0624C2.16588 19.9288 2.21997 19.8012 2.31455 19.7067C2.40913 19.6121 2.53679 19.5581 2.67053 19.5559H21.778C21.9117 19.5581 22.0394 19.6121 22.134 19.7067C22.2285 19.8012 22.2826 19.9288 22.2848 20.0624V21.5444C22.2765 21.6732 22.2226 21.7948 22.1329 21.8876C22.0431 21.9804 21.9232 22.0383 21.7947 22.0509ZM3.19408 21.0713H21.3298V20.5648H3.19408V21.0713Z" fill="#EF232C"/>
<path id="Vector_4" d="M23.7382 24.4999H0.743896C0.609824 24.4988 0.481549 24.4451 0.386742 24.3504C0.291936 24.2556 0.238186 24.1274 0.237091 23.9934C0.237091 23.2162 0.545975 22.4708 1.09581 21.9213C1.64564 21.3717 2.39138 21.063 3.16897 21.063H21.3047C22.0823 21.063 22.828 21.3717 23.3779 21.9213C23.9277 22.4708 24.2366 23.2162 24.2366 23.9934V24.0353C24.2491 24.2906 24.0313 24.4999 23.7382 24.4999ZM1.29257 23.5287H23.1937C23.0878 23.1053 22.8429 22.7296 22.4982 22.4617C22.1535 22.1938 21.7288 22.0492 21.2921 22.051H3.19829C2.76091 22.0482 2.33528 22.1924 1.9897 22.4604C1.64412 22.7284 1.39863 23.1046 1.29257 23.5287Z" fill="#EF232C"/>
<path id="Vector_5" d="M6.6202 16.1777H3.68832C3.55459 16.1756 3.42692 16.1215 3.33235 16.027C3.23777 15.9324 3.18368 15.8049 3.18152 15.6712V13.7246C3.18368 13.5909 3.23777 13.4633 3.33235 13.3688C3.42692 13.2742 3.55459 13.2202 3.68832 13.218H6.6202C6.75394 13.2202 6.8816 13.2742 6.97618 13.3688C7.07075 13.4633 7.12484 13.5909 7.127 13.7246V15.6712C7.11732 15.8023 7.06082 15.9256 6.96779 16.0186C6.87476 16.1116 6.7514 16.168 6.6202 16.1777ZM4.16581 15.2107H6.11339V14.2395H4.16581V15.2107Z" fill="#EF232C"/>
<path id="Vector_6" d="M6.6202 17.6554H3.68832C3.55459 17.6532 3.42692 17.5992 3.33235 17.5046C3.23777 17.4101 3.18368 17.2825 3.18152 17.1489V15.6711C3.18368 15.5374 3.23777 15.4098 3.33235 15.3153C3.42692 15.2208 3.55459 15.1667 3.68832 15.1646H6.6202C6.75394 15.1667 6.8816 15.2208 6.97618 15.3153C7.07075 15.4098 7.12484 15.5374 7.127 15.6711V17.1489C7.11116 17.2777 7.05267 17.3975 6.96084 17.4893C6.86901 17.5811 6.7491 17.6396 6.6202 17.6554ZM4.16581 16.6423H6.11339V16.1358H4.16581V16.6423Z" fill="#EF232C"/>
<path id="Vector_7" d="M20.8231 16.1777H17.8912C17.757 16.1756 17.6289 16.1217 17.5337 16.0273C17.4384 15.9328 17.3834 15.8052 17.3802 15.6712V13.7246C17.3834 13.5905 17.4384 13.4629 17.5337 13.3685C17.6289 13.2741 17.757 13.2201 17.8912 13.218H20.8231C20.9568 13.2202 21.0844 13.2742 21.179 13.3688C21.2736 13.4633 21.3277 13.5909 21.3298 13.7246V15.6712C21.321 15.8026 21.2648 15.9264 21.1716 16.0195C21.0784 16.1127 20.9546 16.1689 20.8231 16.1777ZM18.3728 15.2107H20.3163V14.2395H18.3728V15.2107Z" fill="#EF232C"/>
<path id="Vector_8" d="M20.8231 17.6554H17.8912C17.7567 17.6543 17.628 17.6007 17.5325 17.5061C17.437 17.4114 17.3824 17.2832 17.3802 17.1489V15.6711C17.3824 15.5367 17.437 15.4085 17.5325 15.3139C17.628 15.2192 17.7567 15.1656 17.8912 15.1646H20.8231C20.9571 15.1656 21.0854 15.2194 21.1802 15.3141C21.275 15.4089 21.3287 15.5371 21.3298 15.6711V17.1489C21.3147 17.278 21.2565 17.3982 21.1645 17.4901C21.0725 17.582 20.9522 17.6403 20.8231 17.6554ZM18.3728 16.6423H20.3163V16.1358H18.3728V16.6423Z" fill="#EF232C"/>
<path id="Vector_9" d="M19.5958 2.95317H4.88619C4.56072 2.95317 4.2486 2.82393 4.01845 2.59391C3.78831 2.36388 3.659 2.05189 3.659 1.72658C3.659 1.40127 3.78831 1.08928 4.01845 0.859255C4.2486 0.629226 4.56072 0.5 4.88619 0.5H19.5456C19.871 0.5 20.1832 0.629226 20.4133 0.859255C20.6435 1.08928 20.7728 1.40127 20.7728 1.72658C20.7772 1.88465 20.7502 2.04204 20.6933 2.18958C20.6363 2.33713 20.5506 2.47188 20.4411 2.58601C20.3316 2.70014 20.2004 2.79138 20.0553 2.85441C19.9102 2.91744 19.754 2.95101 19.5958 2.95317ZM4.88619 1.47122C4.82004 1.47606 4.75783 1.50453 4.71093 1.55141C4.66402 1.59829 4.63555 1.66046 4.63071 1.72658C4.63566 1.79226 4.6643 1.85393 4.71128 1.90012C4.75827 1.94631 4.8204 1.97389 4.88619 1.97776H19.5456C19.6114 1.97389 19.6735 1.94631 19.7205 1.90012C19.7675 1.85393 19.7961 1.79226 19.8011 1.72658C19.7962 1.66046 19.7677 1.59829 19.7208 1.55141C19.6739 1.50453 19.6117 1.47606 19.5456 1.47122H4.88619Z" fill="#EF232C"/>
<path id="Vector_10" d="M10.507 10.3042H3.659C3.52526 10.302 3.3976 10.248 3.30302 10.1534C3.20844 10.0589 3.15438 9.93132 3.15222 9.79765V7.85102C3.15438 7.71735 3.20844 7.58976 3.30302 7.49523C3.3976 7.4007 3.52526 7.34664 3.659 7.34448H10.507C10.6408 7.34664 10.7684 7.4007 10.863 7.49523C10.9576 7.58976 11.0117 7.71735 11.0138 7.85102V9.79765C11.0162 9.8648 11.0047 9.93171 10.98 9.99422C10.9554 10.0567 10.9181 10.1135 10.8706 10.161C10.823 10.2085 10.7662 10.2458 10.7037 10.2704C10.6412 10.295 10.5742 10.3065 10.507 10.3042ZM4.16581 9.34971H10.0296V8.37849H4.16581V9.34971Z" fill="#EF232C"/>
<path id="Vector_11" d="M23.2733 8.36187H13.9792C13.8448 8.35968 13.7165 8.30505 13.6218 8.20962C13.5271 8.11419 13.4735 7.98554 13.4724 7.85114V6.87992H11.018V7.85114C11.0169 7.98554 10.9633 8.11419 10.8686 8.20962C10.7739 8.30505 10.6457 8.35968 10.5112 8.36187H1.213C1.1263 8.36257 1.04113 8.33902 0.967122 8.2939C0.89311 8.24877 0.833205 8.18387 0.794156 8.1065C0.748387 8.02795 0.727843 7.93724 0.735334 7.84665C0.742825 7.75605 0.777979 7.66994 0.83603 7.59996L3.7679 3.66903C3.81191 3.60806 3.86894 3.55764 3.93486 3.52144C4.00079 3.48523 4.07397 3.46415 4.14906 3.45972H20.2618C20.3378 3.45979 20.4126 3.47901 20.4792 3.51559C20.5458 3.55217 20.6021 3.60495 20.6429 3.66903L23.5748 7.59996C23.6285 7.6697 23.6607 7.75359 23.6674 7.84133C23.6741 7.92908 23.655 8.01687 23.6125 8.09394C23.6125 8.23209 23.445 8.36187 23.2733 8.36187ZM14.4399 7.3446H22.2597L20.0608 4.4142H4.42129L2.22239 7.3446H10.0421V6.37338C10.0443 6.23971 10.0984 6.11212 10.1929 6.01758C10.2875 5.92305 10.4152 5.86899 10.5489 5.86683H13.9792C14.1129 5.86899 14.2406 5.92305 14.3352 6.01758C14.4298 6.11212 14.4839 6.23971 14.486 6.37338V7.3446H14.4399Z" fill="#EF232C"/>
<path id="Vector_12" d="M20.8231 10.3042H13.9792C13.8455 10.302 13.7178 10.248 13.6232 10.1534C13.5287 10.0589 13.4746 9.93132 13.4724 9.79765V7.85102C13.4746 7.71735 13.5287 7.58976 13.6232 7.49523C13.7178 7.4007 13.8455 7.34664 13.9792 7.34448H20.8272C20.961 7.34664 21.0886 7.4007 21.1832 7.49523C21.2778 7.58976 21.3319 7.71735 21.334 7.85102V9.79765C21.3251 9.92976 21.2683 10.0541 21.1742 10.1473C21.0801 10.2406 20.9553 10.2963 20.8231 10.3042ZM14.4399 9.34971H20.3037V8.37849H14.4399V9.34971Z" fill="#EF232C"/>
<path id="Vector_13" d="M13.9792 12.2466H10.5531C10.4194 12.2445 10.2917 12.1904 10.1971 12.0959C10.1025 12.0013 10.0485 11.8737 10.0463 11.7401V6.37324C10.0485 6.23957 10.1025 6.11198 10.1971 6.01745C10.2917 5.92292 10.4194 5.86886 10.5531 5.8667H13.9792C14.1129 5.86886 14.2406 5.92292 14.3352 6.01745C14.4298 6.11198 14.4838 6.23957 14.486 6.37324V11.7401C14.4772 11.8715 14.4209 11.9953 14.3277 12.0884C14.2345 12.1816 14.1107 12.2378 13.9792 12.2466ZM11.018 11.2754H13.4724V6.87979H11.018V11.2754Z" fill="#EF232C"/>
<path id="Vector_14" d="M12.1573 14.6538H11.9437C8.47986 14.4864 6.23907 10.2205 6.1553 10.0489C6.10528 9.93259 6.10103 9.80169 6.14342 9.68239C6.1858 9.56308 6.27171 9.46418 6.38392 9.40546C6.49614 9.34673 6.6264 9.33252 6.74864 9.36567C6.87089 9.39881 6.9761 9.47687 7.04324 9.58422C7.08512 9.62608 9.11229 13.5151 12.0316 13.6407C13.8494 13.7245 15.6671 12.3304 17.4765 9.54236C17.5517 9.44981 17.6579 9.38757 17.7754 9.36713C17.893 9.34669 18.0139 9.36943 18.116 9.43115C18.2181 9.49287 18.2944 9.5894 18.3308 9.70294C18.3672 9.81648 18.3613 9.93936 18.3142 10.0489C16.3415 13.0923 14.2682 14.6538 12.1573 14.6538Z" fill="#EF232C"/>
<path id="Vector_15" d="M6.62021 4.43082C6.48647 4.42867 6.35881 4.37461 6.26423 4.28008C6.16965 4.18555 6.11556 4.05795 6.1134 3.92428V2.44233C6.1134 2.30799 6.16681 2.17915 6.26185 2.08415C6.3569 1.98916 6.4858 1.93579 6.62021 1.93579C6.75462 1.93579 6.88352 1.98916 6.97856 2.08415C7.07361 2.17915 7.12701 2.30799 7.12701 2.44233V3.90754C7.12124 4.04164 7.06647 4.16896 6.97307 4.2654C6.87967 4.36185 6.75412 4.4207 6.62021 4.43082Z" fill="#EF232C"/>
<path id="Vector_16" d="M8.56363 4.43082C8.42989 4.42867 8.30223 4.37461 8.20765 4.28008C8.11307 4.18555 8.05898 4.05795 8.05682 3.92428V2.44233C8.05682 2.30799 8.11023 2.17915 8.20527 2.08415C8.30032 1.98916 8.42922 1.93579 8.56363 1.93579C8.69804 1.93579 8.82694 1.98916 8.92198 2.08415C9.01703 2.17915 9.07043 2.30799 9.07043 2.44233V3.90754C9.07518 3.97605 9.06544 4.0448 9.04188 4.10931C9.01832 4.17383 8.98143 4.23267 8.93364 4.28201C8.88585 4.33136 8.82821 4.37011 8.76446 4.39575C8.70071 4.42138 8.6323 4.43333 8.56363 4.43082Z" fill="#EF232C"/>
<path id="Vector_17" d="M10.507 4.43082C10.4394 4.42973 10.3726 4.41533 10.3105 4.38844C10.2484 4.36155 10.1922 4.3227 10.1452 4.27411C10.0981 4.22551 10.0611 4.16813 10.0362 4.10523C10.0113 4.04233 9.99911 3.97516 10.0002 3.90754V2.44233C10.0002 2.30799 10.0536 2.17915 10.1487 2.08415C10.2437 1.98916 10.3726 1.93579 10.507 1.93579C10.6414 1.93579 10.7703 1.98916 10.8654 2.08415C10.9604 2.17915 11.0138 2.30799 11.0138 2.44233V3.90754C11.0185 3.97605 11.0088 4.0448 10.9853 4.10931C10.9617 4.17383 10.9248 4.23267 10.877 4.28201C10.8292 4.33136 10.7716 4.37011 10.7079 4.39575C10.6441 4.42138 10.5757 4.43333 10.507 4.43082Z" fill="#EF232C"/>
<path id="Vector_18" d="M12.4965 4.43081C12.3624 4.42868 12.2343 4.37476 12.139 4.28034C12.0438 4.18592 11.9888 4.05831 11.9855 3.92426V2.44232C11.9971 2.31539 12.0557 2.19735 12.1498 2.1114C12.244 2.02544 12.3669 1.97778 12.4944 1.97778C12.622 1.97778 12.7449 2.02544 12.839 2.1114C12.9332 2.19735 12.9918 2.31539 13.0033 2.44232V3.90752C12.9975 4.04162 12.9428 4.16895 12.8494 4.26539C12.756 4.36183 12.6304 4.42069 12.4965 4.43081Z" fill="#EF232C"/>
<path id="Vector_19" d="M14.4399 4.43082C14.3062 4.42867 14.1785 4.37461 14.084 4.28008C13.9894 4.18555 13.9353 4.05795 13.9331 3.92428V2.44233C13.9331 2.30799 13.9865 2.17915 14.0816 2.08415C14.1766 1.98916 14.3055 1.93579 14.4399 1.93579C14.5743 1.93579 14.7033 1.98916 14.7983 2.08415C14.8933 2.17915 14.9467 2.30799 14.9467 2.44233V3.90754C14.9515 3.97605 14.9417 4.0448 14.9182 4.10931C14.8946 4.17383 14.8577 4.23267 14.81 4.28201C14.7622 4.33136 14.7045 4.37011 14.6408 4.39575C14.577 4.42138 14.5086 4.43333 14.4399 4.43082Z" fill="#EF232C"/>
<path id="Vector_20" d="M16.3833 4.43084C16.2496 4.42868 16.1219 4.37462 16.0274 4.28009C15.9328 4.18556 15.8787 4.05796 15.8766 3.92429V2.44235C15.8787 2.30868 15.9328 2.18109 16.0274 2.08656C16.1219 1.99202 16.2496 1.93796 16.3833 1.9358C16.4522 1.93044 16.5215 1.9397 16.5865 1.96298C16.6516 1.98625 16.711 2.02301 16.7608 2.07085C16.8106 2.11868 16.8498 2.17651 16.8757 2.24053C16.9016 2.30456 16.9136 2.37334 16.9111 2.44235V3.90755C16.9161 3.97793 16.9059 4.04856 16.8811 4.11462C16.8563 4.18068 16.8175 4.24061 16.7674 4.2903C16.7173 4.34 16.6571 4.37828 16.5908 4.40254C16.5245 4.42679 16.4537 4.43644 16.3833 4.43084Z" fill="#EF232C"/>
<path id="Vector_21" d="M18.3728 4.43087C18.2387 4.42875 18.1106 4.37483 18.0153 4.2804C17.9201 4.18598 17.8651 4.05838 17.8618 3.92433V2.44239C17.8651 2.30834 17.9201 2.18074 18.0153 2.08631C18.1106 1.99189 18.2387 1.93797 18.3728 1.93584C18.44 1.93351 18.507 1.94501 18.5695 1.96964C18.6321 1.99427 18.6889 2.0315 18.7364 2.07901C18.7839 2.12652 18.8212 2.1833 18.8458 2.24581C18.8704 2.30832 18.882 2.37524 18.8796 2.44239V3.90759C18.8739 4.04169 18.8191 4.16902 18.7257 4.26546C18.6323 4.3619 18.5067 4.42075 18.3728 4.43087Z" fill="#EF232C"/>
</g>
</svg>
