<svg width="24" height="24" viewBox="0 0 24 24" fill="none" xmlns="http://www.w3.org/2000/svg">
<g id="41, Door, bridge, china, chinese">
<path id="Vector" d="M6.38311 20.0733H3.45123C3.31712 20.07 3.18944 20.0151 3.09497 19.9199C3.0005 19.8247 2.94655 19.6966 2.94443 19.5625V7.30928C2.94658 7.17561 3.00068 7.04801 3.09525 6.95348C3.18983 6.85895 3.31749 6.80489 3.45123 6.80273H6.38311C6.51684 6.80489 6.64451 6.85895 6.73908 6.95348C6.83366 7.04801 6.88775 7.17561 6.88991 7.30928V19.5625C6.88119 19.6944 6.8251 19.8187 6.73198 19.9126C6.63886 20.0064 6.51498 20.0635 6.38311 20.0733ZM3.92871 19.0979H5.8763V7.86187H3.92871V19.0979Z" fill="#4E473F"/>
<path id="Vector_2" d="M20.586 20.0733H17.6541C17.5192 20.0711 17.3905 20.0166 17.2952 19.9213C17.1998 19.826 17.1453 19.6973 17.1431 19.5625V7.30928C17.1463 7.17523 17.2013 7.04763 17.2966 6.9532C17.3918 6.85878 17.52 6.80486 17.6541 6.80273H20.586C20.7197 6.80489 20.8473 6.85895 20.9419 6.95348C21.0365 7.04801 21.0906 7.17561 21.0927 7.30928V19.5625C21.0849 19.6947 21.0291 19.8195 20.9358 19.9135C20.8425 20.0075 20.7181 20.0643 20.586 20.0733ZM18.1357 19.0979H20.0792V7.86187H18.1357V19.0979Z" fill="#4E473F"/>
<path id="Vector_3" d="M21.5576 21.5509H2.43344C2.2997 21.5488 2.17204 21.4947 2.07746 21.4002C1.98288 21.3057 1.92879 21.1781 1.92664 21.0444V19.5624C1.92879 19.4288 1.98288 19.3012 2.07746 19.2067C2.17204 19.1121 2.2997 19.0581 2.43344 19.0559H21.5409C21.6746 19.0581 21.8023 19.1121 21.8969 19.2067C21.9914 19.3012 22.0455 19.4288 22.0477 19.5624V21.0444C22.0394 21.1732 21.9855 21.2948 21.8958 21.3876C21.806 21.4804 21.6861 21.5383 21.5576 21.5509ZM2.95699 20.5713H21.0927V20.0648H2.95699V20.5713Z" fill="#4E473F"/>
<path id="Vector_4" d="M23.5011 23.9999H0.506805C0.372733 23.9988 0.244458 23.9451 0.149651 23.8504C0.0548448 23.7556 0.00109452 23.6274 0 23.4934C0 22.7162 0.308884 21.9708 0.858718 21.4213C1.40855 20.8717 2.15429 20.563 2.93187 20.563H21.0676C21.8452 20.563 22.5909 20.8717 23.1408 21.4213C23.6906 21.9708 23.9995 22.7162 23.9995 23.4934V23.5353C24.012 23.7906 23.7942 23.9999 23.5011 23.9999ZM1.05548 23.0287H22.9566C22.8507 22.6053 22.6058 22.2296 22.2611 21.9617C21.9164 21.6938 21.4917 21.5492 21.0551 21.551H2.9612C2.52382 21.5482 2.09819 21.6924 1.75261 21.9604C1.40703 22.2284 1.16154 22.6046 1.05548 23.0287Z" fill="#4E473F"/>
<path id="Vector_5" d="M6.38311 15.6777H3.45123C3.31749 15.6756 3.18983 15.6215 3.09525 15.527C3.00068 15.4324 2.94658 15.3049 2.94443 15.1712V13.2246C2.94658 13.0909 3.00068 12.9633 3.09525 12.8688C3.18983 12.7742 3.31749 12.7202 3.45123 12.718H6.38311C6.51684 12.7202 6.64451 12.7742 6.73908 12.8688C6.83366 12.9633 6.88775 13.0909 6.88991 13.2246V15.1712C6.88023 15.3023 6.82372 15.4256 6.7307 15.5186C6.63767 15.6116 6.51431 15.668 6.38311 15.6777ZM3.92871 14.7107H5.8763V13.7395H3.92871V14.7107Z" fill="#4E473F"/>
<path id="Vector_6" d="M6.38311 17.1554H3.45123C3.31749 17.1532 3.18983 17.0992 3.09525 17.0046C3.00068 16.9101 2.94658 16.7825 2.94443 16.6489V15.1711C2.94658 15.0374 3.00068 14.9098 3.09525 14.8153C3.18983 14.7208 3.31749 14.6667 3.45123 14.6646H6.38311C6.51684 14.6667 6.64451 14.7208 6.73908 14.8153C6.83366 14.9098 6.88775 15.0374 6.88991 15.1711V16.6489C6.87406 16.7777 6.81558 16.8975 6.72375 16.9893C6.63191 17.0811 6.512 17.1396 6.38311 17.1554ZM3.92871 16.1423H5.8763V15.6358H3.92871V16.1423Z" fill="#4E473F"/>
<path id="Vector_7" d="M20.586 15.6777H17.6541C17.52 15.6756 17.3918 15.6217 17.2966 15.5273C17.2013 15.4328 17.1463 15.3052 17.1431 15.1712V13.2246C17.1463 13.0905 17.2013 12.9629 17.2966 12.8685C17.3918 12.7741 17.52 12.7201 17.6541 12.718H20.586C20.7197 12.7202 20.8473 12.7742 20.9419 12.8688C21.0365 12.9633 21.0906 13.0909 21.0927 13.2246V15.1712C21.0839 15.3026 21.0277 15.4264 20.9345 15.5195C20.8413 15.6127 20.7175 15.6689 20.586 15.6777ZM18.1357 14.7107H20.0792V13.7395H18.1357V14.7107Z" fill="#4E473F"/>
<path id="Vector_8" d="M20.586 17.1554H17.6541C17.5196 17.1543 17.3909 17.1007 17.2954 17.0061C17.2 16.9114 17.1453 16.7832 17.1431 16.6489V15.1711C17.1453 15.0367 17.2 14.9085 17.2954 14.8139C17.3909 14.7192 17.5196 14.6656 17.6541 14.6646H20.586C20.72 14.6656 20.8483 14.7194 20.9431 14.8141C21.0379 14.9089 21.0917 15.0371 21.0927 15.1711V16.6489C21.0776 16.778 21.0194 16.8982 20.9274 16.9901C20.8354 17.082 20.7151 17.1403 20.586 17.1554ZM18.1357 16.1423H20.0792V15.6358H18.1357V16.1423Z" fill="#4E473F"/>
<path id="Vector_9" d="M19.3587 2.45317H4.6491C4.32363 2.45317 4.0115 2.32393 3.78136 2.09391C3.55122 1.86388 3.42191 1.55189 3.42191 1.22658C3.42191 0.90127 3.55122 0.589284 3.78136 0.359255C4.0115 0.129226 4.32363 0 4.6491 0H19.3085C19.6339 0 19.9461 0.129226 20.1762 0.359255C20.4064 0.589284 20.5357 0.90127 20.5357 1.22658C20.5401 1.38465 20.5131 1.54204 20.4562 1.68958C20.3992 1.83713 20.3135 1.97188 20.204 2.08601C20.0945 2.20014 19.9634 2.29138 19.8182 2.35441C19.6731 2.41744 19.5169 2.45101 19.3587 2.45317ZM4.6491 0.971216C4.58295 0.976061 4.52074 1.00453 4.47384 1.05141C4.42693 1.09829 4.39846 1.16046 4.39362 1.22658C4.39857 1.29226 4.42721 1.35393 4.47419 1.40012C4.52118 1.44631 4.58331 1.47389 4.6491 1.47776H19.3085C19.3743 1.47389 19.4364 1.44631 19.4834 1.40012C19.5304 1.35393 19.559 1.29226 19.564 1.22658C19.5591 1.16046 19.5306 1.09829 19.4837 1.05141C19.4368 1.00453 19.3746 0.976061 19.3085 0.971216H4.6491Z" fill="#4E473F"/>
<path id="Vector_10" d="M10.2699 9.80419H3.42191C3.28817 9.80203 3.16051 9.74797 3.06593 9.65344C2.97135 9.55891 2.91729 9.43132 2.91513 9.29765V7.35102C2.91729 7.21735 2.97135 7.08976 3.06593 6.99523C3.16051 6.9007 3.28817 6.84664 3.42191 6.84448H10.2699C10.4037 6.84664 10.5313 6.9007 10.6259 6.99523C10.7205 7.08976 10.7746 7.21735 10.7767 7.35102V9.29765C10.7791 9.3648 10.7676 9.43171 10.7429 9.49422C10.7183 9.55673 10.681 9.61351 10.6335 9.66102C10.586 9.70853 10.5292 9.74577 10.4666 9.77039C10.4041 9.79502 10.3371 9.80652 10.2699 9.80419ZM3.92871 8.84971H9.79246V7.87849H3.92871V8.84971Z" fill="#4E473F"/>
<path id="Vector_11" d="M23.0362 7.86187H13.7421C13.6077 7.85968 13.4794 7.80505 13.3847 7.70962C13.29 7.61419 13.2364 7.48554 13.2353 7.35114V6.37992H10.7809V7.35114C10.7798 7.48554 10.7262 7.61419 10.6316 7.70962C10.5369 7.80505 10.4086 7.85968 10.2741 7.86187H0.975904C0.889212 7.86257 0.804042 7.83902 0.730031 7.7939C0.656019 7.74877 0.596114 7.68387 0.557065 7.6065C0.511296 7.52795 0.490752 7.43724 0.498243 7.34665C0.505733 7.25605 0.540888 7.16994 0.598939 7.09996L3.53081 3.16903C3.57482 3.10806 3.63185 3.05764 3.69777 3.02144C3.7637 2.98523 3.83688 2.96415 3.91197 2.95972H20.0247C20.1007 2.95979 20.1755 2.97901 20.2421 3.01559C20.3087 3.05217 20.365 3.10495 20.4058 3.16903L23.3377 7.09996C23.3914 7.1697 23.4236 7.25359 23.4303 7.34133C23.437 7.42908 23.4179 7.51687 23.3754 7.59394C23.3754 7.73209 23.2079 7.86187 23.0362 7.86187ZM14.2028 6.8446H22.0226L19.8237 3.9142H4.1842L1.9853 6.8446H9.80502V5.87338C9.80718 5.73971 9.86127 5.61212 9.95584 5.51758C10.0504 5.42305 10.1781 5.36899 10.3118 5.36683H13.7421C13.8759 5.36899 14.0035 5.42305 14.0981 5.51758C14.1927 5.61212 14.2468 5.73971 14.2489 5.87338V6.8446H14.2028Z" fill="#4E473F"/>
<path id="Vector_12" d="M20.586 9.80419H13.7421C13.6084 9.80203 13.4807 9.74797 13.3861 9.65344C13.2916 9.55891 13.2375 9.43132 13.2353 9.29765V7.35102C13.2375 7.21735 13.2916 7.08976 13.3861 6.99523C13.4807 6.9007 13.6084 6.84664 13.7421 6.84448H20.5901C20.7239 6.84664 20.8515 6.9007 20.9461 6.99523C21.0407 7.08976 21.0948 7.21735 21.0969 7.35102V9.29765C21.088 9.42976 21.0312 9.55408 20.9371 9.64733C20.8431 9.74057 20.7182 9.79634 20.586 9.80419ZM14.2028 8.84971H20.0666V7.87849H14.2028V8.84971Z" fill="#4E473F"/>
<path id="Vector_13" d="M13.7421 11.7466H10.316C10.1823 11.7445 10.0546 11.6904 9.96003 11.5959C9.86545 11.5013 9.81136 11.3737 9.8092 11.2401V5.87324C9.81136 5.73957 9.86545 5.61198 9.96003 5.51745C10.0546 5.42292 10.1823 5.36886 10.316 5.3667H13.7421C13.8758 5.36886 14.0035 5.42292 14.0981 5.51745C14.1927 5.61198 14.2468 5.73957 14.2489 5.87324V11.2401C14.2401 11.3715 14.1838 11.4953 14.0906 11.5884C13.9975 11.6816 13.8736 11.7378 13.7421 11.7466ZM10.7809 10.7754H13.2353V6.37979H10.7809V10.7754Z" fill="#4E473F"/>
<path id="Vector_14" d="M11.9202 14.1538H11.7066C8.24277 13.9864 6.00198 9.72053 5.91821 9.5489C5.86819 9.43259 5.86394 9.30169 5.90633 9.18239C5.94871 9.06308 6.03462 8.96418 6.14683 8.90546C6.25904 8.84673 6.3893 8.83252 6.51155 8.86567C6.6338 8.89881 6.73901 8.97687 6.80615 9.08422C6.84803 9.12608 8.8752 13.0151 11.7945 13.1407C13.6123 13.2245 15.43 11.8304 17.2394 9.04236C17.3146 8.94981 17.4208 8.88757 17.5383 8.86713C17.6559 8.84669 17.7768 8.86943 17.8789 8.93115C17.981 8.99287 18.0573 9.0894 18.0937 9.20294C18.1301 9.31648 18.1242 9.43936 18.0771 9.5489C16.1044 12.5923 14.0311 14.1538 11.9202 14.1538Z" fill="#4E473F"/>
<path id="Vector_15" d="M6.38312 3.93082C6.24938 3.92867 6.12172 3.87461 6.02714 3.78008C5.93256 3.68555 5.87847 3.55795 5.87631 3.42428V1.94233C5.87631 1.80799 5.92972 1.67915 6.02476 1.58415C6.1198 1.48916 6.24871 1.43579 6.38312 1.43579C6.51753 1.43579 6.64643 1.48916 6.74147 1.58415C6.83651 1.67915 6.88992 1.80799 6.88992 1.94233V3.40754C6.88415 3.54164 6.82938 3.66896 6.73598 3.7654C6.64257 3.86185 6.51702 3.9207 6.38312 3.93082Z" fill="#4E473F"/>
<path id="Vector_16" d="M8.32654 3.93082C8.1928 3.92867 8.06514 3.87461 7.97056 3.78008C7.87598 3.68555 7.82189 3.55795 7.81973 3.42428V1.94233C7.81973 1.80799 7.87314 1.67915 7.96818 1.58415C8.06322 1.48916 8.19213 1.43579 8.32654 1.43579C8.46095 1.43579 8.58985 1.48916 8.68489 1.58415C8.77993 1.67915 8.83334 1.80799 8.83334 1.94233V3.40754C8.83809 3.47605 8.82835 3.5448 8.80479 3.60931C8.78122 3.67383 8.74434 3.73267 8.69655 3.78201C8.64876 3.83136 8.59111 3.87011 8.52737 3.89575C8.46362 3.92138 8.39521 3.93333 8.32654 3.93082Z" fill="#4E473F"/>
<path id="Vector_17" d="M10.2699 3.93082C10.2023 3.92973 10.1355 3.91533 10.0734 3.88844C10.0113 3.86155 9.95514 3.8227 9.90808 3.77411C9.86102 3.72551 9.82399 3.66813 9.79912 3.60523C9.77425 3.54233 9.76202 3.47516 9.76313 3.40754V1.94233C9.76313 1.80799 9.81654 1.67915 9.91158 1.58415C10.0066 1.48916 10.1355 1.43579 10.2699 1.43579C10.4043 1.43579 10.5332 1.48916 10.6283 1.58415C10.7233 1.67915 10.7767 1.80799 10.7767 1.94233V3.40754C10.7815 3.47605 10.7717 3.5448 10.7482 3.60931C10.7246 3.67383 10.6877 3.73267 10.6399 3.78201C10.5922 3.83136 10.5345 3.87011 10.4708 3.89575C10.407 3.92138 10.3386 3.93333 10.2699 3.93082Z" fill="#4E473F"/>
<path id="Vector_18" d="M12.2594 3.93081C12.1253 3.92868 11.9972 3.87476 11.9019 3.78034C11.8067 3.68592 11.7517 3.55831 11.7484 3.42426V1.94232C11.76 1.81539 11.8186 1.69735 11.9127 1.6114C12.0069 1.52544 12.1298 1.47778 12.2573 1.47778C12.3849 1.47778 12.5078 1.52544 12.6019 1.6114C12.6961 1.69735 12.7547 1.81539 12.7662 1.94232V3.40752C12.7605 3.54162 12.7057 3.66895 12.6123 3.76539C12.5189 3.86183 12.3933 3.92069 12.2594 3.93081Z" fill="#4E473F"/>
<path id="Vector_19" d="M14.2028 3.93082C14.0691 3.92867 13.9415 3.87461 13.8469 3.78008C13.7523 3.68555 13.6982 3.55795 13.696 3.42428V1.94233C13.696 1.80799 13.7494 1.67915 13.8445 1.58415C13.9395 1.48916 14.0684 1.43579 14.2028 1.43579C14.3372 1.43579 14.4662 1.48916 14.5612 1.58415C14.6562 1.67915 14.7096 1.80799 14.7096 1.94233V3.40754C14.7144 3.47605 14.7046 3.5448 14.6811 3.60931C14.6575 3.67383 14.6207 3.73267 14.5729 3.78201C14.5251 3.83136 14.4674 3.87011 14.4037 3.89575C14.3399 3.92138 14.2715 3.93333 14.2028 3.93082Z" fill="#4E473F"/>
<path id="Vector_20" d="M16.1462 3.93084C16.0125 3.92868 15.8848 3.87462 15.7903 3.78009C15.6957 3.68556 15.6416 3.55796 15.6395 3.42429V1.94235C15.6416 1.80868 15.6957 1.68109 15.7903 1.58656C15.8848 1.49202 16.0125 1.43796 16.1462 1.4358C16.2151 1.43044 16.2844 1.4397 16.3494 1.46298C16.4145 1.48625 16.4739 1.52301 16.5237 1.57085C16.5736 1.61868 16.6127 1.67651 16.6386 1.74053C16.6645 1.80456 16.6766 1.87334 16.674 1.94235V3.40755C16.679 3.47793 16.6688 3.54856 16.644 3.61462C16.6192 3.68068 16.5804 3.74061 16.5303 3.7903C16.4802 3.84 16.42 3.87828 16.3537 3.90254C16.2874 3.92679 16.2166 3.93644 16.1462 3.93084Z" fill="#4E473F"/>
<path id="Vector_21" d="M18.1357 3.93087C18.0016 3.92875 17.8735 3.87483 17.7782 3.7804C17.683 3.68598 17.628 3.55838 17.6248 3.42433V1.94239C17.628 1.80834 17.683 1.68074 17.7782 1.58631C17.8735 1.49189 18.0016 1.43797 18.1357 1.43584C18.2029 1.43351 18.2699 1.44501 18.3324 1.46964C18.395 1.49427 18.4518 1.5315 18.4993 1.57901C18.5468 1.62652 18.5841 1.6833 18.6087 1.74581C18.6334 1.80832 18.6449 1.87524 18.6425 1.94239V3.40759C18.6368 3.54169 18.582 3.66902 18.4886 3.76546C18.3952 3.8619 18.2696 3.92075 18.1357 3.93087Z" fill="#4E473F"/>
</g>
</svg>
