<svg width="24" height="24" viewBox="0 0 24 24" fill="none" xmlns="http://www.w3.org/2000/svg">
<g id="35, scroll, letter, china, chinese">
<path id="Vector" d="M19.6928 4.47433H3.67403C3.52789 4.47197 3.38839 4.41283 3.28504 4.30942C3.18169 4.20601 3.1226 4.06643 3.12024 3.9202V0.714474C3.12256 0.567807 3.18151 0.427725 3.28475 0.323577C3.38798 0.219428 3.52747 0.159292 3.67403 0.155762H19.6928C19.8394 0.159292 19.9789 0.219428 20.0821 0.323577C20.1854 0.427725 20.2443 0.567807 20.2466 0.714474V3.9202C20.2286 4.06084 20.1644 4.19151 20.0642 4.29177C19.964 4.39204 19.8334 4.45624 19.6928 4.47433ZM4.21409 3.36606H19.1391V1.24113H4.19579L4.21409 3.36606Z" fill="#EF232C"/>
<path id="Vector_2" d="M22.6311 3.92016H19.6928C19.5467 3.9178 19.4072 3.85866 19.3038 3.75524C19.2005 3.65183 19.1414 3.51225 19.139 3.36602V1.24109C19.1402 1.09406 19.1988 0.953317 19.3023 0.848923C19.4057 0.74453 19.5459 0.684759 19.6928 0.682373H22.6494C22.796 0.685903 22.9355 0.74604 23.0387 0.850188C23.142 0.954337 23.2009 1.09442 23.2032 1.24109V3.36602C23.206 3.4411 23.1929 3.51592 23.1649 3.58562C23.1369 3.65533 23.0945 3.71835 23.0406 3.77061C22.9866 3.82286 22.9223 3.86318 22.8517 3.88894C22.7812 3.91471 22.706 3.92535 22.6311 3.92016ZM20.2283 2.85769H22.1231V1.79521H20.2283V2.85769Z" fill="#EF232C"/>
<path id="Vector_3" d="M3.67402 3.92016H0.717408C0.571268 3.9178 0.431769 3.85866 0.328419 3.75524C0.225069 3.65183 0.165962 3.51225 0.163605 3.36602V1.24109C0.165927 1.09442 0.22488 0.954337 0.328112 0.850188C0.431343 0.74604 0.570854 0.685903 0.717408 0.682373H3.67402C3.82137 0.684733 3.96203 0.744351 4.06624 0.848623C4.17044 0.952894 4.23003 1.09364 4.23239 1.24109V3.36602C4.22075 3.50987 4.15806 3.64481 4.05565 3.74645C3.95324 3.84808 3.81787 3.9097 3.67402 3.92016ZM1.22543 2.85769H3.12023V1.79521H1.22543V2.85769Z" fill="#EF232C"/>
<path id="Vector_4" d="M19.6928 23.1958H3.674C3.52786 23.1935 3.38836 23.1343 3.28501 23.0309C3.18166 22.9275 3.12257 22.7879 3.12021 22.6417V19.436C3.12257 19.2897 3.18166 19.1502 3.28501 19.0467C3.38836 18.9433 3.52786 18.8842 3.674 18.8818H19.6928C19.839 18.8842 19.9785 18.9433 20.0818 19.0467C20.1852 19.1502 20.2442 19.2897 20.2466 19.436V22.6417C20.2351 22.7848 20.1731 22.9192 20.0716 23.0207C19.9701 23.1222 19.8359 23.1843 19.6928 23.1958ZM4.21406 22.1334H19.139V20.0038H4.19576L4.21406 22.1334Z" fill="#EF232C"/>
<path id="Vector_5" d="M22.6311 22.6416H19.6928C19.5467 22.6392 19.4072 22.5801 19.3038 22.4767C19.2005 22.3733 19.1414 22.2337 19.139 22.0875V19.9579C19.1414 19.8117 19.2005 19.6721 19.3038 19.5687C19.4072 19.4653 19.5467 19.4062 19.6928 19.4038H22.6494C22.7956 19.4062 22.9351 19.4653 23.0384 19.5687C23.1418 19.6721 23.2009 19.8117 23.2032 19.9579V22.0875C23.206 22.1625 23.1929 22.2374 23.1649 22.3071C23.1369 22.3768 23.0945 22.4398 23.0406 22.492C22.9866 22.5443 22.9223 22.5846 22.8517 22.6104C22.7812 22.6361 22.706 22.6468 22.6311 22.6416ZM20.2283 21.5791H22.1231V20.5166H20.2283V21.5791Z" fill="#EF232C"/>
<path id="Vector_6" d="M3.67402 22.6416H0.717408C0.571268 22.6392 0.431769 22.5801 0.328419 22.4767C0.225069 22.3733 0.165962 22.2337 0.163605 22.0875V19.9579C0.165962 19.8117 0.225069 19.6721 0.328419 19.5687C0.431769 19.4653 0.571268 19.4062 0.717408 19.4038H3.67402C3.8206 19.4061 3.96059 19.4651 4.06467 19.5684C4.16876 19.6717 4.22886 19.8113 4.23239 19.9579V22.0875C4.22075 22.2313 4.15806 22.3663 4.05565 22.4679C3.95324 22.5695 3.81787 22.6311 3.67402 22.6416ZM1.22543 21.5791H3.12023V20.5167H1.22543V21.5791Z" fill="#EF232C"/>
<path id="Vector_7" d="M18.8873 20.0037H4.47496C4.32846 20.0025 4.18829 19.9437 4.08469 19.8401C3.98109 19.7364 3.92237 19.5961 3.92117 19.4495V3.9201C3.92237 3.77351 3.98109 3.63325 4.08469 3.52959C4.18829 3.42593 4.32846 3.36716 4.47496 3.36597H18.9331C19.0796 3.36716 19.2198 3.42593 19.3234 3.52959C19.427 3.63325 19.4857 3.77351 19.4869 3.9201V19.4495C19.4677 19.5976 19.3972 19.7342 19.2876 19.8355C19.178 19.9368 19.0363 19.9963 18.8873 20.0037ZM4.98298 18.8954H18.3793V4.47423H4.98298V18.8954Z" fill="#EF232C"/>
<path id="Vector_8" d="M11.6834 17.3247C10.5678 17.3256 9.47702 16.9953 8.54905 16.3757C7.62108 15.7561 6.89765 14.875 6.47031 13.8438C6.04297 12.8127 5.93093 11.6779 6.14835 10.583C6.36577 9.48813 6.90288 8.48238 7.69173 7.69305C8.48059 6.90372 9.48571 6.36627 10.5799 6.14872C11.6741 5.93116 12.8083 6.04328 13.8388 6.47088C14.8693 6.89849 15.7499 7.62235 16.3691 8.55089C16.9883 9.47942 17.3184 10.5709 17.3175 11.6872C17.3114 13.1805 16.7159 14.6109 15.6606 15.6668C14.6054 16.7228 13.1758 17.3186 11.6834 17.3247ZM11.6834 7.15795C10.7882 7.15795 9.91302 7.42358 9.16865 7.92126C8.42428 8.41894 7.84411 9.12631 7.50151 9.95392C7.15892 10.7815 7.06929 11.6922 7.24394 12.5708C7.4186 13.4494 7.84969 14.2564 8.48273 14.8898C9.11577 15.5233 9.92231 15.9546 10.8004 16.1294C11.6784 16.3041 12.5885 16.2145 13.4156 15.8716C14.2427 15.5288 14.9497 14.9483 15.447 14.2035C15.9444 13.4587 16.2099 12.583 16.2099 11.6872C16.2075 10.4867 15.7298 9.33608 14.8814 8.48721C14.0331 7.63833 12.8832 7.16037 11.6834 7.15795Z" fill="#EF232C"/>
</g>
</svg>
