<svg width="24" height="24" viewBox="0 0 24 24" fill="none" xmlns="http://www.w3.org/2000/svg">
<g id="35, scroll, letter, china, chinese">
<path id="Vector" d="M20.4299 4.97442H4.41112C4.26498 4.97206 4.12548 4.91292 4.02213 4.80951C3.91878 4.7061 3.85969 4.56652 3.85733 4.42029V1.21457C3.85965 1.0679 3.91861 0.927817 4.02184 0.823668C4.12507 0.71952 4.26457 0.659384 4.41112 0.655853H20.4299C20.5765 0.659384 20.716 0.71952 20.8192 0.823668C20.9224 0.927817 20.9814 1.0679 20.9837 1.21457V4.42029C20.9656 4.56093 20.9015 4.6916 20.8013 4.79187C20.7011 4.89213 20.5705 4.95633 20.4299 4.97442ZM4.95118 3.86615H19.8761V1.74122H4.93288L4.95118 3.86615Z" fill="#4E473F"/>
<path id="Vector_2" d="M23.3682 4.4203H20.4299C20.2838 4.41794 20.1443 4.35879 20.0409 4.25538C19.9376 4.15197 19.8785 4.01239 19.8761 3.86616V1.74122C19.8773 1.5942 19.9359 1.45345 20.0394 1.34906C20.1428 1.24467 20.283 1.1849 20.4299 1.18251H23.3865C23.5331 1.18604 23.6726 1.24618 23.7758 1.35033C23.8791 1.45447 23.938 1.59456 23.9403 1.74122V3.86616C23.9431 3.94124 23.93 4.01606 23.902 4.08576C23.874 4.15546 23.8316 4.21849 23.7776 4.27075C23.7237 4.323 23.6594 4.36332 23.5888 4.38908C23.5183 4.41484 23.4431 4.42548 23.3682 4.4203ZM20.9654 3.35782H22.8602V2.29535H20.9654V3.35782Z" fill="#4E473F"/>
<path id="Vector_3" d="M4.41111 4.4203H1.4545C1.30836 4.41794 1.16886 4.35879 1.06551 4.25538C0.96216 4.15197 0.903053 4.01239 0.900696 3.86616V1.74122C0.903018 1.59456 0.961971 1.45447 1.0652 1.35033C1.16843 1.24618 1.30795 1.18604 1.4545 1.18251H4.41111C4.55846 1.18487 4.69912 1.24449 4.80333 1.34876C4.90753 1.45303 4.96712 1.59378 4.96948 1.74122V3.86616C4.95784 4.01001 4.89515 4.14495 4.79274 4.24658C4.69033 4.34821 4.55497 4.40983 4.41111 4.4203ZM1.96252 3.35782H3.85732V2.29535H1.96252V3.35782Z" fill="#4E473F"/>
<path id="Vector_4" d="M20.4299 23.6959H4.41109C4.26495 23.6935 4.12545 23.6344 4.0221 23.5309C3.91875 23.4275 3.85966 23.2879 3.8573 23.1417V19.936C3.85966 19.7898 3.91875 19.6502 4.0221 19.5468C4.12545 19.4434 4.26495 19.3842 4.41109 19.3819H20.4299C20.576 19.3842 20.7155 19.4434 20.8189 19.5468C20.9222 19.6502 20.9813 19.7898 20.9837 19.936V23.1417C20.9722 23.2848 20.9102 23.4192 20.8087 23.5207C20.7072 23.6223 20.5729 23.6844 20.4299 23.6959ZM4.95115 22.6334H19.8761V20.5039H4.93285L4.95115 22.6334Z" fill="#4E473F"/>
<path id="Vector_5" d="M23.3682 23.1417H20.4299C20.2838 23.1394 20.1443 23.0802 20.0409 22.9768C19.9376 22.8734 19.8785 22.7338 19.8761 22.5876V20.4581C19.8785 20.3118 19.9376 20.1723 20.0409 20.0688C20.1443 19.9654 20.2838 19.9063 20.4299 19.9039H23.3865C23.5327 19.9063 23.6722 19.9654 23.7755 20.0688C23.8789 20.1723 23.938 20.3118 23.9403 20.4581V22.5876C23.9431 22.6627 23.93 22.7375 23.902 22.8072C23.874 22.8769 23.8316 22.9399 23.7776 22.9922C23.7237 23.0444 23.6594 23.0847 23.5888 23.1105C23.5183 23.1363 23.4431 23.1469 23.3682 23.1417ZM20.9654 22.0793H22.8602V21.0168H20.9654V22.0793Z" fill="#4E473F"/>
<path id="Vector_6" d="M4.41111 23.1417H1.4545C1.30836 23.1394 1.16886 23.0802 1.06551 22.9768C0.96216 22.8734 0.903053 22.7338 0.900696 22.5876V20.4581C0.903053 20.3118 0.96216 20.1723 1.06551 20.0688C1.16886 19.9654 1.30836 19.9063 1.4545 19.9039H4.41111C4.55769 19.9063 4.69768 19.9652 4.80176 20.0685C4.90585 20.1718 4.96595 20.3114 4.96948 20.4581V22.5876C4.95784 22.7314 4.89515 22.8664 4.79274 22.968C4.69033 23.0696 4.55497 23.1313 4.41111 23.1417ZM1.96252 22.0793H3.85732V21.0168H1.96252V22.0793Z" fill="#4E473F"/>
<path id="Vector_7" d="M19.6244 20.5039H5.21205C5.06555 20.5027 4.92538 20.4439 4.82178 20.3402C4.71818 20.2366 4.65946 20.0963 4.65826 19.9497V4.42029C4.65946 4.2737 4.71818 4.13344 4.82178 4.02978C4.92538 3.92612 5.06555 3.86735 5.21205 3.86616H19.6702C19.8167 3.86735 19.9569 3.92612 20.0604 4.02978C20.164 4.13344 20.2228 4.2737 20.224 4.42029V19.9497C20.2048 20.0978 20.1343 20.2344 20.0247 20.3357C19.9151 20.437 19.7734 20.4965 19.6244 20.5039ZM5.72007 19.3956H19.1164V4.97442H5.72007V19.3956Z" fill="#4E473F"/>
<path id="Vector_8" d="M12.4205 17.8248C11.3049 17.8257 10.2141 17.4954 9.28614 16.8758C8.35817 16.2562 7.63474 15.3751 7.2074 14.344C6.78006 13.3128 6.66802 12.178 6.88544 11.0831C7.10286 9.98824 7.63997 8.9825 8.42883 8.19316C9.21768 7.40383 10.2228 6.86639 11.317 6.64883C12.4112 6.43128 13.5454 6.54339 14.5759 6.971C15.6064 7.3986 16.487 8.12247 17.1062 9.051C17.7254 9.97954 18.0555 11.071 18.0546 12.1873C18.0485 13.6806 17.453 15.111 16.3977 16.1669C15.3424 17.2229 13.9129 17.8188 12.4205 17.8248ZM12.4205 7.65806C11.5253 7.65806 10.6501 7.9237 9.90574 8.42138C9.16137 8.91905 8.5812 9.62642 8.23861 10.454C7.89601 11.2816 7.80638 12.1923 7.98103 13.0709C8.15569 13.9495 8.58679 14.7565 9.21982 15.3899C9.85286 16.0234 10.6594 16.4547 11.5374 16.6295C12.4155 16.8043 13.3256 16.7146 14.1527 16.3718C14.9798 16.029 15.6868 15.4484 16.1841 14.7036C16.6815 13.9588 16.947 13.0831 16.947 12.1873C16.9446 10.9868 16.4669 9.83619 15.6185 8.98732C14.7702 8.13845 13.6203 7.66048 12.4205 7.65806Z" fill="#4E473F"/>
</g>
</svg>
