<svg width="24" height="24" viewBox="0 0 24 24" fill="none" xmlns="http://www.w3.org/2000/svg">
<g id="35, scroll, letter, china, chinese">
<path id="Vector" d="M20.4299 4.97433H4.41112C4.26498 4.97197 4.12548 4.91283 4.02213 4.80942C3.91878 4.70601 3.85969 4.56643 3.85733 4.4202V1.21447C3.85965 1.06781 3.91861 0.927725 4.02184 0.823577C4.12507 0.719428 4.26457 0.659292 4.41112 0.655762H20.4299C20.5765 0.659292 20.716 0.719428 20.8192 0.823577C20.9224 0.927725 20.9814 1.06781 20.9837 1.21447V4.4202C20.9656 4.56084 20.9015 4.69151 20.8013 4.79177C20.7011 4.89204 20.5705 4.95624 20.4299 4.97433ZM4.95118 3.86606H19.8761V1.74113H4.93288L4.95118 3.86606Z" fill="#FFF4DD"/>
<path id="Vector_2" d="M23.3682 4.42016H20.4299C20.2838 4.4178 20.1443 4.35866 20.0409 4.25524C19.9376 4.15183 19.8785 4.01225 19.8761 3.86602V1.74109C19.8773 1.59406 19.9359 1.45332 20.0394 1.34892C20.1428 1.24453 20.283 1.18476 20.4299 1.18237H23.3865C23.5331 1.1859 23.6726 1.24604 23.7758 1.35019C23.8791 1.45434 23.938 1.59442 23.9403 1.74109V3.86602C23.9431 3.9411 23.93 4.01592 23.902 4.08562C23.874 4.15533 23.8316 4.21835 23.7776 4.27061C23.7237 4.32286 23.6594 4.36318 23.5888 4.38894C23.5183 4.41471 23.4431 4.42535 23.3682 4.42016ZM20.9654 3.35769H22.8602V2.29521H20.9654V3.35769Z" fill="#FFF4DD"/>
<path id="Vector_3" d="M4.41111 4.42016H1.4545C1.30836 4.4178 1.16886 4.35866 1.06551 4.25524C0.96216 4.15183 0.903053 4.01225 0.900696 3.86602V1.74109C0.903018 1.59442 0.961971 1.45434 1.0652 1.35019C1.16843 1.24604 1.30795 1.1859 1.4545 1.18237H4.41111C4.55846 1.18473 4.69912 1.24435 4.80333 1.34862C4.90753 1.45289 4.96712 1.59364 4.96948 1.74109V3.86602C4.95784 4.00987 4.89515 4.14481 4.79274 4.24645C4.69033 4.34808 4.55497 4.4097 4.41111 4.42016ZM1.96252 3.35769H3.85732V2.29521H1.96252V3.35769Z" fill="#FFF4DD"/>
<path id="Vector_4" d="M20.4299 23.6958H4.41109C4.26495 23.6935 4.12545 23.6343 4.0221 23.5309C3.91875 23.4275 3.85966 23.2879 3.8573 23.1417V19.936C3.85966 19.7897 3.91875 19.6502 4.0221 19.5467C4.12545 19.4433 4.26495 19.3842 4.41109 19.3818H20.4299C20.576 19.3842 20.7155 19.4433 20.8189 19.5467C20.9222 19.6502 20.9813 19.7897 20.9837 19.936V23.1417C20.9722 23.2848 20.9102 23.4192 20.8087 23.5207C20.7072 23.6222 20.5729 23.6843 20.4299 23.6958ZM4.95115 22.6334H19.8761V20.5038H4.93285L4.95115 22.6334Z" fill="#FFF4DD"/>
<path id="Vector_5" d="M23.3682 23.1416H20.4299C20.2838 23.1392 20.1443 23.0801 20.0409 22.9767C19.9376 22.8733 19.8785 22.7337 19.8761 22.5875V20.4579C19.8785 20.3117 19.9376 20.1721 20.0409 20.0687C20.1443 19.9653 20.2838 19.9062 20.4299 19.9038H23.3865C23.5327 19.9062 23.6722 19.9653 23.7755 20.0687C23.8789 20.1721 23.938 20.3117 23.9403 20.4579V22.5875C23.9431 22.6625 23.93 22.7374 23.902 22.8071C23.874 22.8768 23.8316 22.9398 23.7776 22.992C23.7237 23.0443 23.6594 23.0846 23.5888 23.1104C23.5183 23.1361 23.4431 23.1468 23.3682 23.1416ZM20.9654 22.0791H22.8602V21.0166H20.9654V22.0791Z" fill="#FFF4DD"/>
<path id="Vector_6" d="M4.41111 23.1416H1.4545C1.30836 23.1392 1.16886 23.0801 1.06551 22.9767C0.96216 22.8733 0.903053 22.7337 0.900696 22.5875V20.4579C0.903053 20.3117 0.96216 20.1721 1.06551 20.0687C1.16886 19.9653 1.30836 19.9062 1.4545 19.9038H4.41111C4.55769 19.9061 4.69768 19.9651 4.80176 20.0684C4.90585 20.1717 4.96595 20.3113 4.96948 20.4579V22.5875C4.95784 22.7313 4.89515 22.8663 4.79274 22.9679C4.69033 23.0695 4.55497 23.1311 4.41111 23.1416ZM1.96252 22.0791H3.85732V21.0167H1.96252V22.0791Z" fill="#FFF4DD"/>
<path id="Vector_7" d="M19.6244 20.5037H5.21205C5.06555 20.5025 4.92538 20.4437 4.82178 20.3401C4.71818 20.2364 4.65946 20.0961 4.65826 19.9495V4.4201C4.65946 4.27351 4.71818 4.13325 4.82178 4.02959C4.92538 3.92593 5.06555 3.86716 5.21205 3.86597H19.6702C19.8167 3.86716 19.9569 3.92593 20.0604 4.02959C20.164 4.13325 20.2228 4.27351 20.224 4.4201V19.9495C20.2048 20.0976 20.1343 20.2342 20.0247 20.3355C19.9151 20.4368 19.7734 20.4963 19.6244 20.5037ZM5.72007 19.3954H19.1164V4.97423H5.72007V19.3954Z" fill="#FFF4DD"/>
<path id="Vector_8" d="M12.4205 17.8247C11.3049 17.8256 10.2141 17.4953 9.28614 16.8757C8.35817 16.2561 7.63474 15.375 7.2074 14.3438C6.78006 13.3127 6.66802 12.1779 6.88544 11.083C7.10286 9.98813 7.63997 8.98238 8.42883 8.19305C9.21768 7.40372 10.2228 6.86627 11.317 6.64872C12.4112 6.43116 13.5454 6.54328 14.5759 6.97088C15.6064 7.39849 16.487 8.12235 17.1062 9.05089C17.7254 9.97942 18.0555 11.0709 18.0546 12.1872C18.0485 13.6805 17.453 15.1109 16.3977 16.1668C15.3424 17.2228 13.9129 17.8186 12.4205 17.8247ZM12.4205 7.65795C11.5253 7.65795 10.6501 7.92358 9.90574 8.42126C9.16137 8.91894 8.5812 9.62631 8.23861 10.4539C7.89601 11.2815 7.80638 12.1922 7.98103 13.0708C8.15569 13.9494 8.58679 14.7564 9.21982 15.3898C9.85286 16.0233 10.6594 16.4546 11.5374 16.6294C12.4155 16.8041 13.3256 16.7145 14.1527 16.3716C14.9798 16.0288 15.6868 15.4483 16.1841 14.7035C16.6815 13.9587 16.947 13.083 16.947 12.1872C16.9446 10.9867 16.4669 9.83608 15.6185 8.98721C14.7702 8.13833 13.6203 7.66037 12.4205 7.65795Z" fill="#FFF4DD"/>
</g>
</svg>
