<svg width="25" height="25" viewBox="0 0 25 25" fill="none" xmlns="http://www.w3.org/2000/svg">
<g id="nav icon" clip-path="url(#clip0_2010_1901)">
<path id="Vector" d="M16.8345 24.4998L7.39331 24.4008C7.25439 24.4044 7.11953 24.3537 7.01717 24.2594L0.401729 17.4946C0.307727 17.392 0.257159 17.2568 0.260681 17.1175L0.354723 7.6468C0.351201 7.50751 0.401769 7.37229 0.495771 7.26967L7.24756 0.641597C7.34991 0.547349 7.48477 0.496642 7.6237 0.500173L17.0696 0.594456C17.2086 0.590925 17.3434 0.641631 17.4458 0.735879L24.0565 7.50538C24.1508 7.60971 24.2013 7.74648 24.1976 7.88722L24.1035 17.3532C24.107 17.4925 24.0565 17.6277 23.9625 17.7303L17.2107 24.3584C17.1083 24.4527 16.9735 24.5034 16.8345 24.4998ZM7.6237 23.3166L16.5948 23.4109L23.0174 17.1175L23.1114 8.12293L16.7969 1.63628L7.82116 1.542L1.3938 7.90136L1.28096 16.8818L7.6237 23.3166Z" fill="#4E473F"/>
<path id="Vector_2" d="M14.3757 7.50531C14.2944 7.51265 14.2128 7.49628 14.1406 7.45817C14.0757 7.43043 14.0169 7.39011 13.9675 7.33952C13.9182 7.28893 13.8792 7.22906 13.853 7.16336C13.8268 7.09766 13.8138 7.02742 13.8148 6.95666C13.8157 6.88591 13.8306 6.81603 13.8585 6.75105L16.5009 0.877241C16.5269 0.80888 16.5664 0.746499 16.6171 0.693856C16.6677 0.641213 16.7285 0.599396 16.7957 0.570924C16.8629 0.542452 16.9352 0.527915 17.0082 0.528187C17.0811 0.528458 17.1533 0.543534 17.2203 0.572506C17.2873 0.601478 17.3477 0.643745 17.398 0.696765C17.4483 0.749784 17.4874 0.812457 17.5128 0.881009C17.5383 0.949562 17.5497 1.02258 17.5463 1.09565C17.5429 1.16873 17.5247 1.24036 17.493 1.30623L14.8506 7.17532C14.8193 7.27547 14.7557 7.36231 14.6697 7.42208C14.5836 7.48185 14.4802 7.51114 14.3757 7.50531Z" fill="#4E473F"/>
<path id="Vector_3" d="M9.89007 7.50537C9.78168 7.50448 9.67571 7.47308 9.58427 7.41473C9.49282 7.35639 9.41958 7.27345 9.37288 7.17538L7.05957 1.212C7.02102 1.07688 7.03492 0.932143 7.09846 0.806875C7.16199 0.681606 7.27047 0.585092 7.40208 0.53673C7.53368 0.488367 7.67866 0.491742 7.80789 0.546175C7.93711 0.600607 8.04101 0.702064 8.09868 0.830153L10.412 6.79825C10.4594 6.93589 10.4515 7.08662 10.3901 7.21858C10.3287 7.35054 10.2185 7.45338 10.0828 7.50537H9.89007Z" fill="#4E473F"/>
<path id="Vector_4" d="M6.73041 10.0651C6.6631 10.067 6.59651 10.0507 6.53762 10.018L0.683862 8.13235C0.610547 8.11132 0.542362 8.07537 0.483524 8.02673C0.424687 7.9781 0.376467 7.91783 0.341902 7.84968C0.307337 7.78153 0.287152 7.70696 0.282613 7.63064C0.278073 7.55432 0.289287 7.47789 0.315529 7.4061C0.341771 7.33431 0.382485 7.26872 0.43514 7.21342C0.487795 7.15812 0.551256 7.11429 0.62156 7.08468C0.691863 7.05507 0.767487 7.0403 0.843736 7.04131C0.919985 7.04231 0.995205 7.05907 1.06471 7.09052L6.91846 8.97618C6.98716 8.99983 7.05041 9.03713 7.10442 9.08583C7.15843 9.13454 7.20209 9.19365 7.23281 9.25965C7.26353 9.32565 7.28067 9.39718 7.28321 9.46997C7.28574 9.54275 7.27364 9.61531 7.24759 9.6833C7.21153 9.79286 7.14236 9.88847 7.04969 9.95689C6.95703 10.0253 6.84547 10.0631 6.73041 10.0651Z" fill="#4E473F"/>
<path id="Vector_5" d="M0.777996 17.6832C0.661731 17.6893 0.546895 17.6552 0.452738 17.5865C0.358581 17.5178 0.290833 17.4188 0.260809 17.3061C0.239514 17.2377 0.232447 17.1656 0.24006 17.0944C0.247674 17.0231 0.269796 16.9542 0.30506 16.8919C0.340325 16.8296 0.387987 16.7752 0.445076 16.7321C0.502164 16.689 0.567468 16.6581 0.636948 16.6414L6.58474 14.8453C6.65488 14.8197 6.72955 14.8089 6.80405 14.8136C6.87855 14.8184 6.95124 14.8385 7.01759 14.8728C7.08394 14.9071 7.14249 14.9548 7.18954 15.0129C7.2366 15.071 7.27116 15.1383 7.29102 15.2104C7.31088 15.2826 7.31563 15.358 7.30497 15.4321C7.2943 15.5062 7.26844 15.5773 7.22903 15.6408C7.18963 15.7044 7.13751 15.7591 7.07599 15.8015C7.01446 15.8439 6.94486 15.873 6.87155 15.8871L0.919044 17.6832C0.872026 17.636 0.810909 17.6832 0.777996 17.6832Z" fill="#4E473F"/>
<path id="Vector_6" d="M7.3935 24.4008C7.32722 24.4079 7.26058 24.3912 7.20542 24.3537C7.1374 24.33 7.07526 24.2919 7.02319 24.242C6.97112 24.1921 6.93035 24.1316 6.9036 24.0646C6.87686 23.9976 6.86476 23.9256 6.86816 23.8534C6.87157 23.7813 6.89038 23.7108 6.92332 23.6466L9.42468 17.6313C9.48534 17.5055 9.5921 17.408 9.72271 17.3592C9.85331 17.3104 9.99764 17.3141 10.1256 17.3694C10.2536 17.4248 10.3553 17.5275 10.4096 17.6563C10.4638 17.785 10.4664 17.9297 10.4168 18.0603L7.91069 24.0755C7.86205 24.1717 7.78824 24.2528 7.69712 24.3101C7.606 24.3674 7.50104 24.3988 7.3935 24.4008Z" fill="#4E473F"/>
<path id="Vector_7" d="M16.8347 24.4998C16.7255 24.4998 16.6185 24.4688 16.5261 24.4104C16.4338 24.3521 16.3598 24.2686 16.3127 24.1698L13.8584 18.0415C13.8088 17.9109 13.8114 17.7661 13.8656 17.6374C13.9198 17.5087 14.0216 17.4059 14.1496 17.3506C14.2775 17.2953 14.4219 17.2916 14.5525 17.3404C14.6831 17.3892 14.7898 17.4867 14.8505 17.6125L17.3049 23.7409C17.3328 23.8058 17.3477 23.8757 17.3486 23.9465C17.3495 24.0172 17.3365 24.0875 17.3103 24.1532C17.2841 24.2189 17.2452 24.2787 17.1958 24.3293C17.1465 24.3799 17.0877 24.4202 17.0227 24.448C16.9757 24.4527 16.8817 24.4998 16.8347 24.4998Z" fill="#4E473F"/>
<path id="Vector_8" d="M23.5345 17.8718C23.4533 17.8791 23.3716 17.8627 23.2994 17.8246L17.3046 15.1753C17.1832 15.1125 17.0899 15.006 17.0436 14.8772C16.9973 14.7483 17.0014 14.6067 17.055 14.4807C17.1086 14.3547 17.2077 14.2537 17.3326 14.1981C17.4574 14.1424 17.5986 14.1361 17.7278 14.1806L23.7743 16.7875C23.841 16.8131 23.9016 16.8522 23.9524 16.9024C24.0032 16.9526 24.0431 17.0128 24.0696 17.0792C24.0961 17.1456 24.1086 17.2168 24.1064 17.2883C24.1041 17.3598 24.0871 17.43 24.0564 17.4946C24.0199 17.6044 23.9499 17.7 23.8562 17.7677C23.7625 17.8353 23.65 17.8718 23.5345 17.8718Z" fill="#4E473F"/>
<path id="Vector_9" d="M17.5868 10.0652C17.4557 10.0706 17.3274 10.0269 17.2268 9.94245C17.1262 9.85801 17.0607 9.73899 17.043 9.60866C17.0254 9.47834 17.0569 9.3461 17.1314 9.23784C17.2059 9.12958 17.318 9.05309 17.4457 9.02334L23.5581 7.31682C23.6263 7.29474 23.6983 7.28711 23.7696 7.29442C23.8409 7.30173 23.9099 7.32381 23.9723 7.35927C24.0346 7.39473 24.0889 7.44279 24.1317 7.50041C24.1746 7.55802 24.205 7.62393 24.221 7.69396C24.2549 7.83196 24.2348 7.97771 24.1648 8.10132C24.0949 8.22492 23.9804 8.317 23.8449 8.35865L17.7325 10.0652H17.5868Z" fill="#4E473F"/>
<path id="Vector_10" d="M12.2033 16.8818C11.41 16.8789 10.6322 16.6621 9.95133 16.254C9.27048 15.8459 8.71173 15.2616 8.33368 14.5624C8.06289 14.0532 7.89574 13.4951 7.84192 12.9205C7.7881 12.3459 7.8487 11.7664 8.02019 11.2155C8.19167 10.6646 8.47063 10.1534 8.84085 9.71148C9.21107 9.2696 9.66516 8.90589 10.1768 8.64147C10.4782 8.48756 10.793 8.36134 11.1171 8.26434C11.4877 8.17122 11.8683 8.12373 12.2503 8.12292C13.0443 8.12493 13.8231 8.34138 14.5049 8.74951C15.1866 9.15764 15.7461 9.74239 16.1246 10.4423C16.3991 10.9526 16.5696 11.5126 16.6261 12.0897C16.6826 12.6668 16.624 13.2493 16.4537 13.8034C16.2896 14.3546 16.017 14.8671 15.652 15.3108C15.2869 15.7546 14.8369 16.1204 14.3285 16.3868C14.0013 16.5613 13.6516 16.6898 13.2894 16.7686C12.9296 16.826 12.5671 16.8637 12.2033 16.8818ZM12.2033 9.21188C11.919 9.21993 11.636 9.25147 11.3569 9.30616C11.1056 9.35813 10.8653 9.45386 10.647 9.58901C10.0028 9.9376 9.49292 10.4916 9.19796 11.1633C8.90301 11.835 8.83982 12.5861 9.01837 13.2978C9.19693 14.0096 9.60702 14.6414 10.1838 15.0932C10.7607 15.5451 11.4713 15.7913 12.2033 15.7928C12.458 15.785 12.7114 15.7534 12.9603 15.6985C13.2288 15.6526 13.4858 15.555 13.7173 15.411C14.476 14.9906 15.0485 14.2987 15.3206 13.4735C15.4586 13.0614 15.509 12.6249 15.4685 12.1922C15.428 11.7594 15.2975 11.3399 15.0855 10.9608C14.8137 10.4303 14.4004 9.98579 13.8915 9.67698C13.3826 9.36817 12.7981 9.20715 12.2033 9.21188Z" fill="#4E473F"/>
<path id="Vector_11" d="M12.2035 18.7439C11.7265 18.7531 11.2508 18.6895 10.7929 18.5553C9.44209 18.2359 8.23589 17.4744 7.36485 16.3911C6.49381 15.3078 6.00759 13.9644 5.98297 12.5731C5.95543 11.7512 6.09599 10.9324 6.39599 10.1671C6.69599 9.40172 7.14908 8.70606 7.72735 8.12292C8.8731 6.92643 10.4417 6.22896 12.0953 6.18069C12.569 6.18165 13.0414 6.22901 13.5059 6.32212C14.8667 6.61394 16.0941 7.34605 16.9993 8.40577C17.9011 9.5032 18.4153 10.869 18.4616 12.2902C18.4819 13.9499 17.8493 15.5509 16.7009 16.7464C15.5525 17.9419 13.9807 18.6358 12.3257 18.6779C12.2952 18.7151 12.2513 18.7388 12.2035 18.7439ZM12.2035 7.33566H12.0953C10.8447 7.36744 9.64842 7.85514 8.73053 8.70745C7.81264 9.55977 7.23603 10.7183 7.10863 11.9661C6.98124 13.2139 7.31178 14.4655 8.03841 15.4866C8.76503 16.5077 9.83791 17.2283 11.0562 17.5135C11.4761 17.6071 11.905 17.6545 12.3351 17.6549C13.5795 17.5938 14.7601 17.0844 15.6598 16.2203C16.5595 15.3562 17.1178 14.1956 17.2322 12.9517C17.3466 11.7078 17.0093 10.4644 16.2824 9.4499C15.5555 8.43544 14.4877 7.71817 13.2755 7.42994C12.9207 7.37118 12.5627 7.3334 12.2035 7.3168V7.33566Z" fill="#4E473F"/>
<path id="Vector_12" d="M13.9995 16.3868H13.9055C13.7623 16.3552 13.6374 16.268 13.5581 16.1443C13.4788 16.0207 13.4515 15.8706 13.4823 15.7268C13.6704 14.8736 13.6704 13.4546 13.1955 13.0256C13.1485 12.9785 12.9604 12.7899 12.3492 12.9785C12.0389 13.1032 11.7011 13.1427 11.3705 13.093C11.0399 13.0432 10.7286 12.9061 10.4684 12.6956C9.38232 11.7009 9.80548 9.24017 9.8525 8.95732C9.88368 8.81292 9.97079 8.68684 10.0947 8.60683C10.2186 8.52682 10.3691 8.49944 10.5131 8.53069C10.6571 8.56195 10.7829 8.64929 10.8627 8.7735C10.9425 8.89771 10.9698 9.04862 10.9386 9.19303C10.7505 10.0463 10.7506 11.4652 11.2254 11.8895C11.2725 11.9367 11.4605 12.1252 12.0718 11.9367C12.382 11.812 12.7198 11.7725 13.0504 11.8222C13.381 11.8719 13.6924 12.009 13.9525 12.2195C15.0386 13.2142 14.6154 15.6797 14.5684 15.9625C14.5224 16.0794 14.4448 16.181 14.3443 16.256C14.2437 16.3309 14.1243 16.3762 13.9995 16.3868Z" fill="#4E473F"/>
<path id="Vector_13" d="M12.2504 11.437C12.1114 11.4405 11.9766 11.3898 11.8742 11.2955C11.7799 11.1912 11.7294 11.0544 11.7332 10.9137C11.7263 10.8411 11.7346 10.7679 11.7575 10.6987C11.7805 10.6296 11.8177 10.566 11.8666 10.5121C11.9155 10.4581 11.9751 10.415 12.0416 10.3855C12.1081 10.356 12.18 10.3408 12.2527 10.3408C12.3254 10.3408 12.3973 10.356 12.4638 10.3855C12.5303 10.415 12.5899 10.4581 12.6388 10.5121C12.6878 10.566 12.7249 10.6296 12.7479 10.6987C12.7708 10.7679 12.7792 10.8411 12.7723 10.9137C12.776 11.0544 12.7255 11.1912 12.6312 11.2955C12.5277 11.3909 12.3909 11.4417 12.2504 11.437Z" fill="#4E473F"/>
<path id="Vector_14" d="M12.0154 14.6567C11.9431 14.6596 11.871 14.6472 11.8038 14.6204C11.7366 14.5936 11.6757 14.553 11.6251 14.5011C11.5483 14.4287 11.4955 14.3344 11.4736 14.2309C11.4518 14.1275 11.462 14.0198 11.503 13.9223C11.5439 13.8249 11.6135 13.7423 11.7026 13.6856C11.7917 13.629 11.8959 13.601 12.0013 13.6055C12.1416 13.6017 12.278 13.6523 12.3821 13.7469C12.4727 13.8515 12.5227 13.9854 12.5227 14.124C12.5227 14.2626 12.4727 14.3965 12.3821 14.5011C12.3492 14.6096 12.2035 14.6567 12.0154 14.6567Z" fill="#4E473F"/>
</g>
<defs>
<clipPath id="clip0_2010_1901">
<rect width="24" height="24" fill="white" transform="translate(0.237091 0.5)"/>
</clipPath>
</defs>
</svg>
