<svg width="25" height="25" viewBox="0 0 25 25" fill="none" xmlns="http://www.w3.org/2000/svg">
<g id="nav icon" clip-path="url(#clip0_2009_6113)">
<path id="Vector" d="M16.8345 24.4998L7.39331 24.4008C7.25439 24.4044 7.11953 24.3537 7.01717 24.2594L0.401729 17.4946C0.307727 17.392 0.257159 17.2568 0.260681 17.1175L0.354723 7.6468C0.351201 7.50751 0.401769 7.37229 0.495771 7.26967L7.24756 0.641597C7.34991 0.547349 7.48477 0.496642 7.6237 0.500173L17.0696 0.594456C17.2086 0.590925 17.3434 0.641631 17.4458 0.735879L24.0565 7.50538C24.1508 7.60971 24.2013 7.74648 24.1976 7.88722L24.1035 17.3532C24.107 17.4925 24.0565 17.6277 23.9625 17.7303L17.2107 24.3584C17.1083 24.4527 16.9735 24.5034 16.8345 24.4998ZM7.6237 23.3166L16.5948 23.4109L23.0174 17.1175L23.1114 8.12293L16.7969 1.63628L7.82116 1.542L1.3938 7.90136L1.28096 16.8818L7.6237 23.3166Z" fill="#FFF4DD"/>
<path id="Vector_2" d="M14.3757 7.50521C14.2944 7.51254 14.2128 7.49617 14.1406 7.45807C14.0757 7.43033 14.0169 7.39 13.9675 7.33941C13.9182 7.28882 13.8792 7.22896 13.853 7.16326C13.8268 7.09756 13.8138 7.02731 13.8148 6.95656C13.8157 6.8858 13.8306 6.81593 13.8585 6.75095L16.5009 0.877134C16.5269 0.808773 16.5664 0.746392 16.6171 0.693749C16.6677 0.641106 16.7285 0.599289 16.7957 0.570817C16.8629 0.542346 16.9352 0.527808 17.0082 0.52808C17.0811 0.528352 17.1533 0.543427 17.2203 0.572399C17.2873 0.601371 17.3477 0.643639 17.398 0.696658C17.4483 0.749677 17.4874 0.81235 17.5128 0.880903C17.5383 0.949455 17.5497 1.02247 17.5463 1.09555C17.5429 1.16862 17.5247 1.24025 17.493 1.30612L14.8506 7.17522C14.8193 7.27537 14.7557 7.3622 14.6697 7.42198C14.5836 7.48175 14.4802 7.51104 14.3757 7.50521Z" fill="#FFF4DD"/>
<path id="Vector_3" d="M9.89007 7.5053C9.78168 7.50442 9.67571 7.47301 9.58427 7.41466C9.49282 7.35632 9.41958 7.27338 9.37288 7.17531L7.05957 1.21193C7.02102 1.07681 7.03492 0.932075 7.09846 0.806806C7.16199 0.681538 7.27047 0.585024 7.40208 0.536661C7.53368 0.488299 7.67866 0.491673 7.80789 0.546106C7.93711 0.600539 8.04101 0.701995 8.09868 0.830084L10.412 6.79818C10.4594 6.93582 10.4515 7.08655 10.3901 7.21851C10.3287 7.35047 10.2185 7.45331 10.0828 7.5053H9.89007Z" fill="#FFF4DD"/>
<path id="Vector_4" d="M6.73041 10.0651C6.6631 10.067 6.59651 10.0507 6.53762 10.018L0.683862 8.13235C0.610547 8.11132 0.542362 8.07537 0.483524 8.02673C0.424687 7.9781 0.376467 7.91783 0.341902 7.84968C0.307337 7.78153 0.287152 7.70696 0.282613 7.63064C0.278073 7.55432 0.289287 7.47789 0.315529 7.4061C0.341771 7.33431 0.382485 7.26872 0.43514 7.21342C0.487795 7.15812 0.551256 7.11429 0.62156 7.08468C0.691863 7.05507 0.767487 7.0403 0.843736 7.04131C0.919985 7.04231 0.995205 7.05907 1.06471 7.09052L6.91846 8.97618C6.98716 8.99983 7.05041 9.03713 7.10442 9.08583C7.15843 9.13454 7.20209 9.19365 7.23281 9.25965C7.26353 9.32565 7.28067 9.39718 7.28321 9.46997C7.28574 9.54275 7.27364 9.61531 7.24759 9.6833C7.21153 9.79286 7.14236 9.88847 7.04969 9.95689C6.95703 10.0253 6.84547 10.0631 6.73041 10.0651Z" fill="#FFF4DD"/>
<path id="Vector_5" d="M0.777996 17.6832C0.661731 17.6893 0.546895 17.6551 0.452738 17.5865C0.358581 17.5178 0.290833 17.4188 0.260809 17.306C0.239514 17.2376 0.232447 17.1656 0.24006 17.0943C0.247674 17.0231 0.269796 16.9542 0.30506 16.8919C0.340325 16.8295 0.387987 16.7752 0.445076 16.7321C0.502164 16.689 0.567468 16.6581 0.636948 16.6413L6.58474 14.8452C6.65488 14.8196 6.72955 14.8088 6.80405 14.8136C6.87855 14.8183 6.95124 14.8385 7.01759 14.8728C7.08394 14.9071 7.14249 14.9548 7.18954 15.0129C7.2366 15.071 7.27116 15.1382 7.29102 15.2104C7.31088 15.2825 7.31563 15.358 7.30497 15.4321C7.2943 15.5062 7.26844 15.5772 7.22903 15.6408C7.18963 15.7044 7.13751 15.7591 7.07599 15.8014C7.01446 15.8438 6.94486 15.873 6.87155 15.8871L0.919044 17.6832C0.872026 17.636 0.810909 17.6832 0.777996 17.6832Z" fill="#FFF4DD"/>
<path id="Vector_6" d="M7.3935 24.4009C7.32722 24.408 7.26058 24.3913 7.20542 24.3538C7.1374 24.33 7.07526 24.292 7.02319 24.2421C6.97112 24.1922 6.93035 24.1317 6.9036 24.0647C6.87686 23.9976 6.86476 23.9256 6.86816 23.8535C6.87157 23.7814 6.89038 23.7108 6.92332 23.6466L9.42468 17.6314C9.48534 17.5056 9.5921 17.4081 9.72271 17.3593C9.85331 17.3105 9.99764 17.3142 10.1256 17.3695C10.2536 17.4249 10.3553 17.5276 10.4096 17.6563C10.4638 17.7851 10.4664 17.9298 10.4168 18.0604L7.91069 24.0756C7.86205 24.1718 7.78824 24.2529 7.69712 24.3102C7.606 24.3675 7.50104 24.3989 7.3935 24.4009Z" fill="#FFF4DD"/>
<path id="Vector_7" d="M16.8347 24.4997C16.7255 24.4997 16.6185 24.4687 16.5261 24.4103C16.4338 24.3519 16.3598 24.2685 16.3127 24.1697L13.8584 18.0413C13.8088 17.9108 13.8114 17.766 13.8656 17.6373C13.9198 17.5086 14.0216 17.4058 14.1496 17.3505C14.2775 17.2951 14.4219 17.2915 14.5525 17.3403C14.6831 17.3891 14.7898 17.4865 14.8505 17.6124L17.3049 23.7407C17.3328 23.8057 17.3477 23.8756 17.3486 23.9463C17.3495 24.0171 17.3365 24.0873 17.3103 24.153C17.2841 24.2187 17.2452 24.2786 17.1958 24.3292C17.1465 24.3798 17.0877 24.4201 17.0227 24.4479C16.9757 24.4526 16.8817 24.4997 16.8347 24.4997Z" fill="#FFF4DD"/>
<path id="Vector_8" d="M23.5345 17.8719C23.4533 17.8792 23.3716 17.8628 23.2994 17.8247L17.3046 15.1754C17.1832 15.1126 17.0899 15.0061 17.0436 14.8773C16.9973 14.7484 17.0014 14.6068 17.055 14.4808C17.1086 14.3548 17.2077 14.2538 17.3326 14.1982C17.4574 14.1425 17.5986 14.1363 17.7278 14.1807L23.7743 16.7876C23.841 16.8132 23.9016 16.8523 23.9524 16.9025C24.0032 16.9527 24.0431 17.0129 24.0696 17.0793C24.0961 17.1457 24.1086 17.2169 24.1064 17.2884C24.1041 17.3599 24.0871 17.4302 24.0564 17.4947C24.0199 17.6046 23.9499 17.7001 23.8562 17.7678C23.7625 17.8355 23.65 17.8719 23.5345 17.8719Z" fill="#FFF4DD"/>
<path id="Vector_9" d="M17.5868 10.0652C17.4557 10.0707 17.3274 10.0269 17.2268 9.94246C17.1262 9.85803 17.0607 9.739 17.043 9.60868C17.0254 9.47835 17.0569 9.34612 17.1314 9.23786C17.2059 9.1296 17.318 9.05311 17.4457 9.02336L23.5581 7.31684C23.6263 7.29476 23.6983 7.28713 23.7696 7.29444C23.8409 7.30174 23.9099 7.32383 23.9723 7.35928C24.0346 7.39474 24.0889 7.44281 24.1317 7.50042C24.1746 7.55804 24.205 7.62395 24.221 7.69397C24.2549 7.83197 24.2348 7.97773 24.1648 8.10133C24.0949 8.22493 23.9804 8.31701 23.8449 8.35866L17.7325 10.0652H17.5868Z" fill="#FFF4DD"/>
<path id="Vector_10" d="M12.2033 16.8817C11.41 16.8788 10.6322 16.662 9.95133 16.2539C9.27048 15.8458 8.71173 15.2615 8.33368 14.5623C8.06289 14.0531 7.89574 13.4949 7.84192 12.9204C7.7881 12.3458 7.8487 11.7662 8.02019 11.2154C8.19167 10.6645 8.47063 10.1532 8.84085 9.71136C9.21107 9.26948 9.66516 8.90577 10.1768 8.64136C10.4782 8.48745 10.793 8.36122 11.1171 8.26423C11.4877 8.1711 11.8683 8.12361 12.2503 8.1228C13.0443 8.12482 13.8231 8.34126 14.5049 8.7494C15.1866 9.15753 15.7461 9.74227 16.1246 10.4422C16.3991 10.9525 16.5696 11.5125 16.6261 12.0896C16.6826 12.6666 16.624 13.2492 16.4537 13.8033C16.2896 14.3545 16.017 14.867 15.652 15.3107C15.2869 15.7544 14.8369 16.1203 14.3285 16.3867C14.0013 16.5612 13.6516 16.6897 13.2894 16.7685C12.9296 16.8259 12.5671 16.8636 12.2033 16.8817ZM12.2033 9.21177C11.919 9.21982 11.636 9.25135 11.3569 9.30605C11.1056 9.35801 10.8653 9.45374 10.647 9.5889C10.0028 9.93749 9.49292 10.4914 9.19796 11.1631C8.90301 11.8349 8.83982 12.586 9.01837 13.2977C9.19693 14.0095 9.60702 14.6412 10.1838 15.0931C10.7607 15.545 11.4713 15.7911 12.2033 15.7927C12.458 15.7848 12.7114 15.7533 12.9603 15.6984C13.2288 15.6525 13.4858 15.5549 13.7173 15.4109C14.476 14.9905 15.0485 14.2986 15.3206 13.4733C15.4586 13.0613 15.509 12.6248 15.4685 12.1921C15.428 11.7593 15.2975 11.3398 15.0855 10.9607C14.8137 10.4301 14.4004 9.98568 13.8915 9.67687C13.3826 9.36806 12.7981 9.20704 12.2033 9.21177Z" fill="#FFF4DD"/>
<path id="Vector_11" d="M12.2035 18.7438C11.7265 18.7531 11.2508 18.6895 10.7929 18.5553C9.44209 18.2359 8.23589 17.4744 7.36485 16.3911C6.49381 15.3077 6.00759 13.9643 5.98297 12.573C5.95543 11.7512 6.09599 10.9324 6.39599 10.167C6.69599 9.40169 7.14908 8.70603 7.72735 8.12289C8.8731 6.9264 10.4417 6.22893 12.0953 6.18066C12.569 6.18162 13.0414 6.22898 13.5059 6.32209C14.8667 6.61391 16.0941 7.34602 16.9993 8.40574C17.9011 9.50317 18.4153 10.869 18.4616 12.2902C18.4819 13.9499 17.8493 15.5508 16.7009 16.7464C15.5525 17.9419 13.9807 18.6358 12.3257 18.6778C12.2952 18.715 12.2513 18.7387 12.2035 18.7438ZM12.2035 7.33563H12.0953C10.8447 7.36741 9.64842 7.85511 8.73053 8.70742C7.81264 9.55974 7.23603 10.7182 7.10863 11.9661C6.98124 13.2139 7.31178 14.4655 8.03841 15.4866C8.76503 16.5077 9.83791 17.2283 11.0562 17.5134C11.4761 17.607 11.905 17.6545 12.3351 17.6549C13.5795 17.5938 14.7601 17.0843 15.6598 16.2203C16.5595 15.3562 17.1178 14.1955 17.2322 12.9517C17.3466 11.7078 17.0093 10.4643 16.2824 9.44987C15.5555 8.43541 14.4877 7.71814 13.2755 7.42991C12.9207 7.37115 12.5627 7.33337 12.2035 7.31677V7.33563Z" fill="#FFF4DD"/>
<path id="Vector_12" d="M13.9995 16.3868H13.9055C13.7623 16.3552 13.6374 16.268 13.5581 16.1443C13.4788 16.0207 13.4515 15.8705 13.4823 15.7268C13.6704 14.8735 13.6704 13.4546 13.1955 13.0256C13.1485 12.9785 12.9604 12.7899 12.3492 12.9785C12.0389 13.1031 11.7011 13.1427 11.3705 13.0929C11.0399 13.0432 10.7286 12.9061 10.4684 12.6956C9.38232 11.7009 9.80548 9.24016 9.8525 8.95731C9.88368 8.8129 9.97079 8.68683 10.0947 8.60682C10.2186 8.52681 10.3691 8.49942 10.5131 8.53068C10.6571 8.56193 10.7829 8.64928 10.8627 8.77349C10.9425 8.8977 10.9698 9.04861 10.9386 9.19301C10.7505 10.0463 10.7506 11.4652 11.2254 11.8895C11.2725 11.9366 11.4605 12.1252 12.0718 11.9366C12.382 11.812 12.7198 11.7724 13.0504 11.8222C13.381 11.8719 13.6924 12.009 13.9525 12.2195C15.0386 13.2142 14.6154 15.6797 14.5684 15.9625C14.5224 16.0793 14.4448 16.181 14.3443 16.2559C14.2437 16.3309 14.1243 16.3762 13.9995 16.3868Z" fill="#FFF4DD"/>
<path id="Vector_13" d="M12.2504 11.437C12.1114 11.4405 11.9766 11.3898 11.8742 11.2955C11.7799 11.1912 11.7294 11.0544 11.7332 10.9137C11.7263 10.8411 11.7346 10.7679 11.7575 10.6987C11.7805 10.6296 11.8177 10.566 11.8666 10.5121C11.9155 10.4581 11.9751 10.415 12.0416 10.3855C12.1081 10.3561 12.18 10.3408 12.2527 10.3408C12.3254 10.3408 12.3973 10.3561 12.4638 10.3855C12.5303 10.415 12.5899 10.4581 12.6388 10.5121C12.6878 10.566 12.7249 10.6296 12.7479 10.6987C12.7708 10.7679 12.7792 10.8411 12.7723 10.9137C12.776 11.0544 12.7255 11.1912 12.6312 11.2955C12.5277 11.3909 12.3909 11.4417 12.2504 11.437Z" fill="#FFF4DD"/>
<path id="Vector_14" d="M12.0154 14.6567C11.9431 14.6596 11.871 14.6472 11.8038 14.6204C11.7366 14.5936 11.6757 14.553 11.6251 14.5011C11.5483 14.4286 11.4955 14.3344 11.4736 14.2309C11.4518 14.1274 11.462 14.0198 11.503 13.9223C11.5439 13.8248 11.6135 13.7423 11.7026 13.6856C11.7917 13.629 11.8959 13.601 12.0013 13.6054C12.1416 13.6017 12.278 13.6523 12.3821 13.7469C12.4727 13.8515 12.5227 13.9854 12.5227 14.124C12.5227 14.2626 12.4727 14.3965 12.3821 14.5011C12.3492 14.6095 12.2035 14.6567 12.0154 14.6567Z" fill="#FFF4DD"/>
</g>
<defs>
<clipPath id="clip0_2009_6113">
<rect width="24" height="24" fill="white" transform="translate(0.237091 0.5)"/>
</clipPath>
</defs>
</svg>
