<svg width="24" height="24" viewBox="0 0 24 24" fill="none" xmlns="http://www.w3.org/2000/svg">
<g id="nav icon" clip-path="url(#clip0_2009_6195)">
<path id="Vector" d="M16.5975 23.9998L7.15623 23.9008C7.0173 23.9044 6.88244 23.8537 6.78009 23.7594L0.164643 16.9946C0.0706411 16.892 0.0200731 16.7568 0.0235946 16.6175L0.117636 7.1468C0.114115 7.00751 0.164683 6.87229 0.258685 6.76967L7.01047 0.141597C7.11283 0.0473489 7.24768 -0.00335796 7.38661 0.00017275L16.8326 0.0944558C16.9715 0.0909251 17.1063 0.141631 17.2087 0.235879L23.8194 7.00538C23.9137 7.10971 23.9642 7.24648 23.9605 7.38722L23.8664 16.8532C23.87 16.9925 23.8194 17.1277 23.7254 17.2303L16.9736 23.8584C16.8712 23.9527 16.7364 24.0034 16.5975 23.9998ZM7.38661 22.8166L16.3577 22.9109L22.7803 16.6175L22.8744 7.62293L16.5598 1.13628L7.58408 1.042L1.15672 7.40136L1.04388 16.3818L7.38661 22.8166Z" fill="#EF232C"/>
<path id="Vector_2" d="M14.1386 7.00521C14.0573 7.01254 13.9757 6.99617 13.9035 6.95807C13.8386 6.93033 13.7798 6.89 13.7304 6.83941C13.6811 6.78882 13.6421 6.72896 13.6159 6.66326C13.5897 6.59756 13.5767 6.52731 13.5777 6.45656C13.5786 6.3858 13.5935 6.31593 13.6214 6.25095L16.2638 0.377134C16.2898 0.308773 16.3293 0.246392 16.38 0.193749C16.4306 0.141106 16.4914 0.0992892 16.5586 0.0708174C16.6258 0.0423455 16.6981 0.0278082 16.7711 0.0280799C16.844 0.0283517 16.9162 0.0434273 16.9832 0.072399C17.0502 0.101371 17.1106 0.143639 17.1609 0.196658C17.2112 0.249677 17.2503 0.31235 17.2757 0.380903C17.3012 0.449455 17.3126 0.522469 17.3092 0.595547C17.3058 0.668624 17.2876 0.740253 17.2559 0.80612L14.6135 6.67522C14.5822 6.77537 14.5186 6.8622 14.4326 6.92198C14.3465 6.98175 14.2431 7.01104 14.1386 7.00521Z" fill="#EF232C"/>
<path id="Vector_3" d="M9.65297 7.0053C9.54458 7.00442 9.43862 6.97301 9.34717 6.91466C9.25573 6.85632 9.18249 6.77338 9.13579 6.67531L6.82248 0.711929C6.78393 0.576812 6.79783 0.432075 6.86136 0.306806C6.9249 0.181538 7.03338 0.0850236 7.16498 0.0366612C7.29659 -0.0117012 7.44157 -0.00832679 7.57079 0.0461059C7.70002 0.100539 7.80392 0.201995 7.86159 0.330084L10.1749 6.29818C10.2223 6.43582 10.2144 6.58655 10.153 6.71851C10.0916 6.85047 9.9814 6.95331 9.84573 7.0053H9.65297Z" fill="#EF232C"/>
<path id="Vector_4" d="M6.49332 9.56514C6.42601 9.56701 6.35942 9.55073 6.30053 9.518L0.446773 7.63235C0.373458 7.61132 0.305272 7.57537 0.246435 7.52673C0.187598 7.4781 0.139378 7.41783 0.104813 7.34968C0.0702475 7.28153 0.0500633 7.20696 0.0455237 7.13064C0.0409841 7.05432 0.052198 6.97789 0.0784398 6.9061C0.104682 6.83431 0.145396 6.76872 0.198051 6.71342C0.250706 6.65812 0.314167 6.61429 0.38447 6.58468C0.454774 6.55507 0.530398 6.5403 0.606647 6.54131C0.682896 6.54231 0.758116 6.55907 0.827618 6.59052L6.68137 8.47618C6.75007 8.49983 6.81332 8.53713 6.86733 8.58583C6.92134 8.63454 6.96501 8.69365 6.99572 8.75965C7.02644 8.82565 7.04358 8.89718 7.04612 8.96997C7.04866 9.04275 7.03655 9.11531 7.0105 9.1833C6.97444 9.29286 6.90527 9.38847 6.81261 9.45689C6.71994 9.5253 6.60838 9.56313 6.49332 9.56514Z" fill="#EF232C"/>
<path id="Vector_5" d="M0.540905 17.1832C0.42464 17.1893 0.309804 17.1551 0.215647 17.0865C0.12149 17.0178 0.0537424 16.9188 0.0237178 16.806C0.00242259 16.7376 -0.00464429 16.6656 0.00296943 16.5943C0.0105832 16.5231 0.0327048 16.4542 0.0679694 16.3919C0.103234 16.3295 0.150896 16.2752 0.207985 16.2321C0.265073 16.189 0.330377 16.1581 0.399857 16.1413L6.34765 14.3452C6.41779 14.3196 6.49246 14.3088 6.56696 14.3136C6.64146 14.3183 6.71415 14.3385 6.7805 14.3728C6.84685 14.4071 6.9054 14.4548 6.95245 14.5129C6.99951 14.571 7.03407 14.6382 7.05393 14.7104C7.07379 14.7825 7.07854 14.858 7.06787 14.9321C7.05721 15.0062 7.03135 15.0772 6.99194 15.1408C6.95254 15.2044 6.90042 15.2591 6.8389 15.3014C6.77737 15.3438 6.70777 15.373 6.63446 15.3871L0.681953 17.1832C0.634935 17.136 0.573818 17.1832 0.540905 17.1832Z" fill="#EF232C"/>
<path id="Vector_6" d="M7.15641 23.9009C7.09013 23.908 7.02349 23.8913 6.96832 23.8538C6.90031 23.83 6.83817 23.792 6.78609 23.7421C6.73402 23.6922 6.69326 23.6317 6.66651 23.5647C6.63977 23.4976 6.62767 23.4256 6.63107 23.3535C6.63447 23.2814 6.65329 23.2108 6.68623 23.1466L9.18759 17.1314C9.24824 17.0056 9.35501 16.9081 9.48561 16.8593C9.61622 16.8105 9.76055 16.8142 9.88853 16.8695C10.0165 16.9249 10.1182 17.0276 10.1725 17.1563C10.2267 17.2851 10.2293 17.4298 10.1797 17.5604L7.67359 23.5756C7.62496 23.6718 7.55114 23.7529 7.46003 23.8102C7.36891 23.8675 7.26395 23.8989 7.15641 23.9009Z" fill="#EF232C"/>
<path id="Vector_7" d="M16.5976 23.9997C16.4884 23.9997 16.3814 23.9687 16.2891 23.9103C16.1967 23.8519 16.1227 23.7685 16.0757 23.6697L13.6213 17.5413C13.5717 17.4108 13.5743 17.266 13.6285 17.1373C13.6827 17.0086 13.7845 16.9058 13.9125 16.8505C14.0404 16.7951 14.1848 16.7915 14.3154 16.8403C14.446 16.8891 14.5528 16.9865 14.6134 17.1124L17.0678 23.2407C17.0957 23.3057 17.1106 23.3756 17.1115 23.4463C17.1124 23.5171 17.0994 23.5873 17.0732 23.653C17.047 23.7187 17.0081 23.7786 16.9587 23.8292C16.9094 23.8798 16.8506 23.9201 16.7856 23.9479C16.7386 23.9526 16.6446 23.9997 16.5976 23.9997Z" fill="#EF232C"/>
<path id="Vector_8" d="M23.2974 17.3719C23.2162 17.3792 23.1345 17.3628 23.0623 17.3247L17.0675 14.6754C16.9461 14.6126 16.8529 14.5061 16.8065 14.3773C16.7602 14.2484 16.7643 14.1068 16.8179 13.9808C16.8715 13.8548 16.9707 13.7538 17.0955 13.6982C17.2203 13.6425 17.3615 13.6363 17.4907 13.6807L23.5372 16.2876C23.6039 16.3132 23.6645 16.3523 23.7153 16.4025C23.7661 16.4527 23.806 16.5129 23.8325 16.5793C23.859 16.6457 23.8715 16.7169 23.8693 16.7884C23.867 16.8599 23.85 16.9302 23.8193 16.9947C23.7828 17.1046 23.7128 17.2001 23.6191 17.2678C23.5254 17.3355 23.4129 17.3719 23.2974 17.3719Z" fill="#EF232C"/>
<path id="Vector_9" d="M17.3497 9.56518C17.2186 9.57066 17.0903 9.5269 16.9897 9.44246C16.8891 9.35803 16.8236 9.239 16.8059 9.10868C16.7883 8.97835 16.8198 8.84612 16.8943 8.73786C16.9688 8.6296 17.0809 8.55311 17.2086 8.52336L23.321 6.81684C23.3892 6.79476 23.4612 6.78713 23.5325 6.79444C23.6038 6.80174 23.6728 6.82383 23.7352 6.85928C23.7975 6.89474 23.8518 6.94281 23.8946 7.00042C23.9375 7.05804 23.9679 7.12395 23.9839 7.19397C24.0178 7.33197 23.9977 7.47773 23.9277 7.60133C23.8578 7.72493 23.7433 7.81701 23.6078 7.85866L17.4954 9.56518H17.3497Z" fill="#EF232C"/>
<path id="Vector_10" d="M11.9662 16.3817C11.1729 16.3788 10.3951 16.162 9.71424 15.7539C9.03339 15.3458 8.47464 14.7615 8.09659 14.0623C7.82581 13.5531 7.65865 12.9949 7.60483 12.4204C7.55101 11.8458 7.61162 11.2662 7.7831 10.7154C7.95458 10.1645 8.23354 9.65324 8.60376 9.21136C8.97399 8.76948 9.42808 8.40577 9.93969 8.14136C10.2412 7.98745 10.5559 7.86122 10.8801 7.76423C11.2506 7.6711 11.6312 7.62361 12.0132 7.6228C12.8072 7.62482 13.586 7.84126 14.2678 8.2494C14.9496 8.65753 15.5091 9.24227 15.8875 9.94216C16.162 10.4525 16.3325 11.0125 16.389 11.5896C16.4455 12.1666 16.3869 12.7492 16.2166 13.3033C16.0525 13.8545 15.7799 14.367 15.4149 14.8107C15.0498 15.2544 14.5998 15.6203 14.0914 15.8867C13.7642 16.0612 13.4145 16.1897 13.0523 16.2685C12.6925 16.3259 12.33 16.3636 11.9662 16.3817ZM11.9662 8.71177C11.682 8.71982 11.3989 8.75135 11.1199 8.80605C10.8685 8.85801 10.6282 8.95374 10.4099 9.0889C9.76571 9.43749 9.25583 9.99144 8.96088 10.6631C8.66592 11.3349 8.60274 12.086 8.78129 12.7977C8.95984 13.5095 9.36994 14.1412 9.94675 14.5931C10.5236 15.045 11.2342 15.2911 11.9662 15.2927C12.2209 15.2848 12.4743 15.2533 12.7232 15.1984C12.9917 15.1525 13.2488 15.0549 13.4802 14.9109C14.2389 14.4905 14.8115 13.7986 15.0835 12.9733C15.2215 12.5613 15.2719 12.1248 15.2314 11.6921C15.1909 11.2593 15.0604 10.8398 14.8484 10.4607C14.5767 9.93015 14.1633 9.48568 13.6544 9.17687C13.1455 8.86806 12.561 8.70704 11.9662 8.71177Z" fill="#EF232C"/>
<path id="Vector_11" d="M11.9664 18.2438C11.4894 18.2531 11.0137 18.1895 10.5558 18.0553C9.205 17.7359 7.9988 16.9744 7.12776 15.8911C6.25671 14.8077 5.77049 13.4643 5.74588 12.073C5.71834 11.2512 5.8589 10.4324 6.1589 9.66702C6.4589 8.90169 6.91199 8.20603 7.49026 7.62289C8.63601 6.4264 10.2046 5.72893 11.8582 5.68066C12.3319 5.68162 12.8043 5.72898 13.2688 5.82209C14.6296 6.11391 15.857 6.84602 16.7622 7.90574C17.664 9.00317 18.1782 10.369 18.2245 11.7902C18.2448 13.4499 17.6123 15.0508 16.4638 16.2464C15.3154 17.4419 13.7436 18.1358 12.0886 18.1778C12.0581 18.215 12.0142 18.2387 11.9664 18.2438ZM11.9664 6.83563H11.8582C10.6076 6.86741 9.41133 7.35511 8.49344 8.20742C7.57555 9.05974 6.99894 10.2182 6.87154 11.4661C6.74415 12.7139 7.07469 13.9655 7.80132 14.9866C8.52794 16.0077 9.60082 16.7283 10.8191 17.0134C11.239 17.107 11.6679 17.1545 12.098 17.1549C13.3424 17.0938 14.523 16.5843 15.4227 15.7203C16.3224 14.8562 16.8808 13.6955 16.9951 12.4517C17.1095 11.2078 16.7723 9.96434 16.0453 8.94987C15.3184 7.93541 14.2506 7.21814 13.0384 6.92991C12.6836 6.87115 12.3256 6.83337 11.9664 6.81677V6.83563Z" fill="#EF232C"/>
<path id="Vector_12" d="M13.7624 15.8868H13.6684C13.5252 15.8552 13.4003 15.768 13.321 15.6443C13.2417 15.5207 13.2144 15.3705 13.2452 15.2268C13.4333 14.3735 13.4333 12.9546 12.9584 12.5256C12.9114 12.4785 12.7233 12.2899 12.1121 12.4785C11.8018 12.6031 11.464 12.6427 11.1334 12.5929C10.8029 12.5432 10.4915 12.4061 10.2313 12.1956C9.14522 11.2009 9.56839 8.74016 9.6154 8.45731C9.64658 8.3129 9.7337 8.18683 9.85758 8.10682C9.98147 8.02681 10.132 7.99942 10.276 8.03068C10.42 8.06193 10.5458 8.14928 10.6256 8.27349C10.7054 8.3977 10.7327 8.54861 10.7015 8.69301C10.5134 9.54627 10.5135 10.9652 10.9884 11.3895C11.0354 11.4366 11.2234 11.6252 11.8347 11.4366C12.1449 11.312 12.4827 11.2724 12.8133 11.3222C13.1439 11.3719 13.4553 11.509 13.7154 11.7195C14.8015 12.7142 14.3783 15.1797 14.3313 15.4625C14.2853 15.5793 14.2077 15.681 14.1072 15.7559C14.0066 15.8309 13.8872 15.8762 13.7624 15.8868Z" fill="#EF232C"/>
<path id="Vector_13" d="M12.0133 10.937C11.8744 10.9405 11.7395 10.8898 11.6371 10.7955C11.5428 10.6912 11.4923 10.5544 11.4961 10.4137C11.4892 10.3411 11.4975 10.2679 11.5205 10.1987C11.5434 10.1296 11.5806 10.066 11.6295 10.0121C11.6784 9.95812 11.738 9.91503 11.8045 9.88554C11.871 9.85605 11.9429 9.84082 12.0156 9.84082C12.0883 9.84082 12.1602 9.85605 12.2267 9.88554C12.2932 9.91503 12.3528 9.95812 12.4018 10.0121C12.4507 10.066 12.4878 10.1296 12.5108 10.1987C12.5338 10.2679 12.5421 10.3411 12.5352 10.4137C12.5389 10.5544 12.4884 10.6912 12.3941 10.7955C12.2906 10.8909 12.1538 10.9417 12.0133 10.937Z" fill="#EF232C"/>
<path id="Vector_14" d="M11.7783 14.1567C11.706 14.1596 11.6339 14.1472 11.5667 14.1204C11.4995 14.0936 11.4386 14.053 11.388 14.0011C11.3112 13.9286 11.2584 13.8344 11.2365 13.7309C11.2147 13.6274 11.2249 13.5198 11.2659 13.4223C11.3068 13.3248 11.3764 13.2423 11.4655 13.1856C11.5546 13.129 11.6588 13.101 11.7642 13.1054C11.9045 13.1017 12.041 13.1523 12.145 13.2469C12.2356 13.3515 12.2856 13.4854 12.2856 13.624C12.2856 13.7626 12.2356 13.8965 12.145 14.0011C12.1121 14.1095 11.9664 14.1567 11.7783 14.1567Z" fill="#EF232C"/>
</g>
<defs>
<clipPath id="clip0_2009_6195">
<rect width="24" height="24" fill="white"/>
</clipPath>
</defs>
</svg>
