<svg width="21" height="21" viewBox="0 0 21 21" fill="none" xmlns="http://www.w3.org/2000/svg">
<g id="Frame">
<g id="Layer_35">
<g id="Group">
<g id="Group_2">
<path id="Vector" d="M9.69824 9.79148C9.81824 9.79148 9.91824 9.73147 9.97824 9.61147C10.0382 9.45147 9.97824 9.29147 9.81824 9.21147L9.09824 8.89148C8.93824 8.83148 8.77824 8.89147 8.69824 9.05147C8.63824 9.21147 8.69824 9.37147 8.85824 9.45147L9.57824 9.77147C9.61824 9.79147 9.65824 9.79148 9.69824 9.79148Z" fill="#EF232C"/>
<path id="Vector_2" d="M12.2182 9.79148C12.2582 9.79148 12.2982 9.79147 12.3382 9.77147L13.0582 9.45147C13.2182 9.39147 13.2782 9.21147 13.2182 9.05147C13.1582 8.89147 12.9782 8.83148 12.8182 8.89148L12.0982 9.21147C11.9382 9.27147 11.8782 9.45147 11.9382 9.61147C11.9782 9.73147 12.0982 9.79148 12.2182 9.79148Z" fill="#EF232C"/>
<path id="Vector_3" d="M13.3183 13.9114V12.8314C13.3183 12.7514 13.3183 12.6514 13.2983 12.5714C14.3183 11.9114 15.0183 10.8914 15.2383 9.73142H15.4983C16.2383 9.73142 16.8383 9.13142 16.8383 8.39142C16.8383 7.65142 16.2383 7.05142 15.4983 7.05142H15.2983C15.2583 5.95142 14.7783 4.95142 13.9983 4.21142C14.5583 4.15142 14.9983 3.67142 14.9983 3.09142C14.9983 2.47142 14.4983 1.95142 13.8583 1.95142H8.03825C7.41825 1.95142 6.89825 2.45142 6.89825 3.09142C6.89825 3.67142 7.33825 4.15142 7.89825 4.21142C7.11825 4.95142 6.65825 5.97142 6.57825 7.05142H6.37825C5.63825 7.05142 5.03825 7.65142 5.03825 8.39142C5.03825 9.13142 5.63825 9.73142 6.37825 9.73142H6.63825C6.85825 10.8914 7.55825 11.9314 8.57825 12.5714C8.57825 12.6514 8.55825 12.7514 8.55825 12.8314V13.9114C6.13825 14.6314 3.95825 15.7914 3.95825 19.1114V19.6714C3.95825 19.8314 4.09825 19.9714 4.25825 19.9714H17.5783C17.7383 19.9714 17.8783 19.8314 17.8783 19.6714V19.1114C17.9183 15.7914 15.7383 14.6314 13.3183 13.9114ZM13.6983 19.3514H11.9183C13.5183 18.1314 14.6383 16.5314 14.8183 15.1114C15.2983 15.3314 15.6983 15.5914 16.0383 15.9114C15.6583 17.3514 14.5983 18.5514 13.6983 19.3514ZM8.21825 19.3514C7.33825 18.5514 6.25825 17.3514 5.85825 15.9114C6.19825 15.5914 6.61825 15.3314 7.07825 15.1114C7.27825 16.5314 8.37825 18.1514 9.97825 19.3514H8.21825ZM9.19825 12.8114C9.19825 11.9314 9.83825 11.2114 10.6383 11.2114H11.2783C12.0783 11.2114 12.7183 11.9314 12.7183 12.8114V14.4514C11.6183 13.9514 11.2583 13.4514 11.2583 12.5514C11.2583 12.3914 11.1183 12.2514 10.9583 12.2514C10.7983 12.2514 10.6583 12.3914 10.6583 12.5514C10.6583 13.4514 10.2983 13.9514 9.19825 14.4514V12.8114ZM8.83825 4.21142H13.0583C14.0183 4.87142 14.6183 5.89142 14.6983 7.03142H7.19825C7.27825 5.91142 7.87825 4.87142 8.83825 4.21142ZM16.2583 8.37142C16.2583 8.77142 15.9383 9.11142 15.5183 9.11142H15.3183C15.3183 9.03142 15.3183 8.95142 15.3183 8.87142V7.65142H15.4983C15.9183 7.65142 16.2583 7.97142 16.2583 8.37142ZM7.49825 3.09142C7.49825 2.79142 7.73825 2.55142 8.03825 2.55142H13.8783C14.1783 2.55142 14.4183 2.79142 14.4183 3.09142C14.4183 3.39142 14.1783 3.63142 13.8783 3.63142H8.03825C7.73825 3.61142 7.49825 3.37142 7.49825 3.09142ZM6.39825 9.11142C5.99825 9.11142 5.65825 8.79142 5.65825 8.37142C5.65825 7.97142 5.97825 7.63142 6.39825 7.63142H6.57825V8.85142V9.09142H6.39825V9.11142ZM7.17825 8.87142V7.65142H14.7383V8.87142C14.7383 10.0914 14.1383 11.2314 13.1583 11.9314C12.8383 11.1514 12.1183 10.6114 11.2783 10.6114H10.6383C9.79825 10.6114 9.07825 11.1514 8.75825 11.9314C7.77825 11.2314 7.17825 10.0914 7.17825 8.87142ZM8.71825 15.1514C8.79825 15.2114 8.89825 15.2114 8.99825 15.1914C9.89825 14.8314 10.5983 14.4314 10.9583 13.8114C11.3183 14.4514 11.9983 14.8314 12.9183 15.1914C12.9583 15.2114 12.9983 15.2114 13.0383 15.2114C13.0983 15.2114 13.1583 15.1914 13.1983 15.1514C13.2783 15.0914 13.3383 15.0114 13.3383 14.9114V14.5314C13.6783 14.6314 13.9783 14.7514 14.2783 14.8514C14.1583 16.3114 12.8183 18.1114 10.9583 19.2914C9.09825 18.1114 7.75825 16.2914 7.65825 14.8514C7.95825 14.7314 8.25825 14.6314 8.59825 14.5314V14.9114C8.59825 14.9914 8.63825 15.0914 8.71825 15.1514ZM4.59825 19.0914C4.59825 17.9314 4.87825 17.0714 5.37825 16.4114C5.79825 17.5914 6.57825 18.5914 7.33825 19.3514H4.59825V19.0914ZM17.3183 19.3514H14.5783C15.3383 18.5914 16.1183 17.5914 16.5383 16.4114C17.0383 17.0714 17.3183 17.9314 17.3183 19.0914V19.3514Z" fill="#EF232C"/>
</g>
</g>
</g>
</g>
</svg>
