<svg width="20" height="20" viewBox="0 0 20 20" fill="none" xmlns="http://www.w3.org/2000/svg">
<g id="Frame">
<g id="Layer_35">
<g id="Group">
<g id="Group_2">
<path id="Vector" d="M8.74011 8.84006C8.86011 8.84006 8.96011 8.78006 9.02011 8.66006C9.08011 8.50006 9.02011 8.34006 8.86011 8.26006L8.14011 7.94006C7.98011 7.88006 7.82011 7.94006 7.74011 8.10006C7.68011 8.26006 7.74011 8.42006 7.90011 8.50006L8.62011 8.82006C8.66011 8.84006 8.70011 8.84006 8.74011 8.84006Z" fill="black"/>
<path id="Vector_2" d="M11.2599 8.84006C11.2999 8.84006 11.3399 8.84006 11.3799 8.82006L12.0999 8.50006C12.2599 8.44006 12.3199 8.26006 12.2599 8.10006C12.1999 7.94006 12.0199 7.88006 11.8599 7.94006L11.1399 8.26006C10.9799 8.32006 10.9199 8.50006 10.9799 8.66006C11.0199 8.78006 11.1399 8.84006 11.2599 8.84006Z" fill="black"/>
<path id="Vector_3" d="M12.36 12.96V11.88C12.36 11.8 12.36 11.7 12.34 11.62C13.36 10.96 14.06 9.94 14.28 8.78H14.54C15.28 8.78 15.88 8.18 15.88 7.44C15.88 6.7 15.28 6.1 14.54 6.1H14.34C14.3 5 13.82 4 13.04 3.26C13.6 3.2 14.04 2.72 14.04 2.14C14.04 1.52 13.54 1 12.9 1H7.08C6.46 1 5.94 1.5 5.94 2.14C5.94 2.72 6.38 3.2 6.94 3.26C6.16 4 5.7 5.02 5.62 6.1H5.42C4.68 6.1 4.08 6.7 4.08 7.44C4.08 8.18 4.68 8.78 5.42 8.78H5.68C5.9 9.94 6.6 10.98 7.62 11.62C7.62 11.7 7.6 11.8 7.6 11.88V12.96C5.18 13.68 3 14.84 3 18.16V18.72C3 18.88 3.14 19.02 3.3 19.02H16.62C16.78 19.02 16.92 18.88 16.92 18.72V18.16C16.96 14.84 14.78 13.68 12.36 12.96ZM12.74 18.4H10.96C12.56 17.18 13.68 15.58 13.86 14.16C14.34 14.38 14.74 14.64 15.08 14.96C14.7 16.4 13.64 17.6 12.74 18.4ZM7.26 18.4C6.38 17.6 5.3 16.4 4.9 14.96C5.24 14.64 5.66 14.38 6.12 14.16C6.32 15.58 7.42 17.2 9.02 18.4H7.26ZM8.24 11.86C8.24 10.98 8.88 10.26 9.68 10.26H10.32C11.12 10.26 11.76 10.98 11.76 11.86V13.5C10.66 13 10.3 12.5 10.3 11.6C10.3 11.44 10.16 11.3 10 11.3C9.84 11.3 9.7 11.44 9.7 11.6C9.7 12.5 9.34 13 8.24 13.5V11.86ZM7.88 3.26H12.1C13.06 3.92 13.66 4.94 13.74 6.08H6.24C6.32 4.96 6.92 3.92 7.88 3.26ZM15.3 7.42C15.3 7.82 14.98 8.16 14.56 8.16H14.36C14.36 8.08 14.36 8 14.36 7.92V6.7H14.54C14.96 6.7 15.3 7.02 15.3 7.42ZM6.54 2.14C6.54 1.84 6.78 1.6 7.08 1.6H12.92C13.22 1.6 13.46 1.84 13.46 2.14C13.46 2.44 13.22 2.68 12.92 2.68H7.08C6.78 2.66 6.54 2.42 6.54 2.14ZM5.44 8.16C5.04 8.16 4.7 7.84 4.7 7.42C4.7 7.02 5.02 6.68 5.44 6.68H5.62V7.9V8.14H5.44V8.16ZM6.22 7.92V6.7H13.78V7.92C13.78 9.14 13.18 10.28 12.2 10.98C11.88 10.2 11.16 9.66 10.32 9.66H9.68C8.84 9.66 8.12 10.2 7.8 10.98C6.82 10.28 6.22 9.14 6.22 7.92ZM7.76 14.2C7.84 14.26 7.94 14.26 8.04 14.24C8.94 13.88 9.64 13.48 10 12.86C10.36 13.5 11.04 13.88 11.96 14.24C12 14.26 12.04 14.26 12.08 14.26C12.14 14.26 12.2 14.24 12.24 14.2C12.32 14.14 12.38 14.06 12.38 13.96V13.58C12.72 13.68 13.02 13.8 13.32 13.9C13.2 15.36 11.86 17.16 10 18.34C8.14 17.16 6.8 15.34 6.7 13.9C7 13.78 7.3 13.68 7.64 13.58V13.96C7.64 14.04 7.68 14.14 7.76 14.2ZM3.64 18.14C3.64 16.98 3.92 16.12 4.42 15.46C4.84 16.64 5.62 17.64 6.38 18.4H3.64V18.14ZM16.36 18.4H13.62C14.38 17.64 15.16 16.64 15.58 15.46C16.08 16.12 16.36 16.98 16.36 18.14V18.4Z" fill="black"/>
</g>
</g>
</g>
</g>
</svg>
