<svg width="24" height="25" viewBox="0 0 24 25" fill="none" xmlns="http://www.w3.org/2000/svg">
<g id="Glyph">
<path id="XMLID_436_" d="M22.5 18.0234V19.8984C22.5 20.9327 21.6585 21.7734 20.625 21.7734H4.5C2.8455 21.7734 1.5 20.4279 1.5 18.7734C1.5 18.7734 1.5 6.03469 1.5 6.02344C1.5 4.36894 2.8455 3.02344 4.5 3.02344H18.375C18.9967 3.02344 19.5 3.52744 19.5 4.14844C19.5 4.76944 18.9967 5.27344 18.375 5.27344H4.5C4.08675 5.27344 3.75 5.60944 3.75 6.02344C3.75 6.43744 4.08675 6.77344 4.5 6.77344H20.625C21.6585 6.77344 22.5 7.61419 22.5 8.64844V10.5234H18.75C16.6823 10.5234 15 12.2057 15 14.2734C15 16.3412 16.6823 18.0234 18.75 18.0234H22.5Z" fill="#FFF"/>
<path id="XMLID_438_" d="M22.5 12.0234V16.5234H18.75C17.5073 16.5234 16.5 15.5162 16.5 14.2734C16.5 13.0307 17.5073 12.0234 18.75 12.0234H22.5Z" fill="#FFF"/>
</g>
</svg>
