<svg width="24" height="25" viewBox="0 0 24 25" fill="none" xmlns="http://www.w3.org/2000/svg">
<g id="Glyph">
<path id="XMLID_436_" d="M22.5 18.5V20.375C22.5 21.4093 21.6585 22.25 20.625 22.25H4.5C2.8455 22.25 1.5 20.9045 1.5 19.25C1.5 19.25 1.5 6.51125 1.5 6.5C1.5 4.8455 2.8455 3.5 4.5 3.5H18.375C18.9967 3.5 19.5 4.004 19.5 4.625C19.5 5.246 18.9967 5.75 18.375 5.75H4.5C4.08675 5.75 3.75 6.086 3.75 6.5C3.75 6.914 4.08675 7.25 4.5 7.25H20.625C21.6585 7.25 22.5 8.09075 22.5 9.125V11H18.75C16.6823 11 15 12.6823 15 14.75C15 16.8177 16.6823 18.5 18.75 18.5H22.5Z" fill="#4E473F"/>
<path id="XMLID_438_" d="M22.5 12.5V17H18.75C17.5073 17 16.5 15.9927 16.5 14.75C16.5 13.5073 17.5073 12.5 18.75 12.5H22.5Z" fill="#4E473F"/>
</g>
</svg>
