<svg width="48" height="49" viewBox="0 0 48 49" fill="none" xmlns="http://www.w3.org/2000/svg">
<g id="logo">
<rect y="0.5" width="48" height="48" rx="8" fill="#EF232C"/>
<path id="Vector" d="M35.9338 17.0201C33.4647 14.5299 30.2617 13.5752 26.8813 15.0028C24.9204 15.8295 23.0563 15.8224 21.1165 15.0088C18.8763 14.0692 16.619 14.05 14.4504 15.2346C10.7807 17.2389 9.19982 20.5195 8.90543 24.5412C8.76731 26.4214 9.14941 28.2361 9.6656 30.0337C10.6254 33.3698 12.1014 36.4256 14.515 38.9682C15.5635 40.0722 16.7541 40.9685 18.3027 41.2518C19.5861 41.4867 20.8342 41.2871 22.037 40.8455C23.389 40.3494 24.6774 40.3837 26.0445 40.8878C28.6053 41.8315 30.9241 41.3717 32.9526 39.4643C34.3126 38.1869 35.4014 36.7311 36.2634 35.0908C37.9048 31.9664 38.9563 28.6737 39.1206 25.2156C39.0722 22.0227 38.1457 19.2502 35.9318 17.0191L35.9338 17.0201ZM33.2208 34.8145C32.6229 35.7663 31.8315 36.6182 31.035 37.4217C29.8504 38.6184 28.3865 38.7636 26.8672 38.1808C25.8257 37.7806 24.7883 37.4479 23.6642 37.58C23.0391 37.6526 22.4201 37.7856 21.8061 37.9238C21.0873 38.0861 20.3856 38.3301 19.6617 38.4531C18.6535 38.6255 17.8016 38.2181 17.0405 37.585C15.388 36.2119 14.3375 34.4102 13.4463 32.5018C12.3161 30.0811 11.5559 27.5607 11.6426 24.8597C11.7404 21.7818 12.922 19.2906 15.7147 17.742C17.3026 16.8618 18.9066 17.1068 20.4763 17.7702C22.0299 18.4265 23.6219 18.7855 25.2964 18.4709C25.9951 18.3398 26.6928 18.109 27.339 17.8115C30.6196 16.3033 33.2691 17.6694 35.0405 20.3038C36.0679 21.8312 36.3491 22.9886 36.337 24.2659C36.3673 28.6908 35.0788 31.8575 33.2208 34.8135V34.8145Z" fill="#FFDFAC"/>
<path id="Vector_2" d="M30.2424 7.63721C31.4663 7.64326 32.1569 8.18062 32.1922 9.15553C32.2204 9.93183 31.9795 10.2746 31.2284 10.4994C31.0479 10.5529 30.8553 10.6063 30.6708 10.5992C28.8833 10.5287 27.7703 11.5157 26.9063 12.9392C26.7057 13.2699 26.4415 13.6288 26.1149 13.8022C25.2377 14.267 24.3596 13.5401 24.4635 12.4563C24.5532 11.5177 25.0391 10.7525 25.6088 10.0306C26.7278 8.61313 28.6222 7.63116 30.2424 7.63822V7.63721Z" fill="#FFDFAC"/>
<path id="Vector_3" d="M22.3203 11.3866C22.3012 12.3625 21.6237 12.9201 20.8958 12.664C19.69 12.2395 18.7967 11.4158 18.334 10.2161C18.1384 9.71101 18.2231 9.17365 18.7111 8.78852C19.1819 8.41751 19.6981 8.37315 20.183 8.68267C21.2638 9.37025 22.0219 10.3169 22.3203 11.3876V11.3866Z" fill="#FFDFAC"/>
<path id="Vector_4" d="M34.3074 28.0226C34.2721 28.3059 34.1501 28.5842 34.0362 28.8372C33.8396 29.2748 33.4525 29.3857 33.0361 29.2203C32.6106 29.053 32.4352 28.6951 32.5915 28.2474C32.773 27.7292 33.0764 26.9943 33.7267 26.965C34.2086 26.9449 34.3538 27.6647 34.3084 28.0216L34.3074 28.0226Z" fill="#FFDFAC"/>
<path id="Vector_5" d="M32.5902 31.8727C32.2474 32.8456 31.7191 33.76 30.9973 34.4949C30.7725 34.7238 30.5285 34.9345 30.2704 35.122C29.8984 35.3922 29.4951 35.5929 29.0717 35.7511C28.5948 35.9306 28.0605 35.858 27.641 35.5697C27.3658 35.3791 27.2388 35.0212 27.3709 34.7157C27.3809 34.6915 27.392 34.6673 27.4051 34.6442C27.516 34.4486 27.7046 34.3115 27.8961 34.1965C28.3276 33.9374 28.8065 33.761 29.2239 33.4797C30.0083 32.9514 30.5113 32.1086 30.9872 31.2909C31.1425 31.0258 31.3038 30.7516 31.5508 30.5671C31.7968 30.3816 32.1537 30.308 32.4138 30.4723C32.5932 30.5852 32.6981 30.7909 32.7303 31.0006C32.7747 31.295 32.69 31.5924 32.5902 31.8727Z" fill="#FFDFAC"/>
</g>
</svg>
