<svg width="253" height="57" viewBox="0 0 253 57" fill="none" xmlns="http://www.w3.org/2000/svg">
<path d="M9.41103 49.8462H8.62902C4.36959 49.8462 0.916656 46.3764 0.916656 42.0962V15.5962C0.916656 11.316 4.36959 7.84619 8.62902 7.84619H9.41103C9.78643 3.91788 13.0801 0.846191 17.0877 0.846191H235.912C239.92 0.846191 243.214 3.91788 243.589 7.84619H244.371C248.63 7.84619 252.083 11.316 252.083 15.5962V42.0962C252.083 46.3764 248.63 49.8462 244.371 49.8462H243.589C243.214 53.7745 239.92 56.8462 235.912 56.8462H17.0877C13.0801 56.8462 9.78643 53.7745 9.41103 49.8462Z" fill="#FAF5F0"/>
<path d="M14.0477 45.7419L14.0034 45.2907H13.5501H12.8167C9.08734 45.2907 6.08333 42.3372 6.08333 38.7173V18.9752C6.08333 15.3553 9.08734 12.4018 12.8167 12.4018H13.5501H14.0034L14.0477 11.9507C14.374 8.62781 17.2419 6.01294 20.75 6.01294H232.25C235.758 6.01294 238.626 8.62781 238.952 11.9507L238.997 12.4018H239.45H240.183C243.913 12.4018 246.917 15.3553 246.917 18.9752V38.7173C246.917 42.3372 243.913 45.2907 240.183 45.2907H239.45H238.997L238.952 45.7419C238.626 49.0647 235.758 51.6796 232.25 51.6796H20.75C17.2419 51.6796 14.374 49.0647 14.0477 45.7419Z" stroke="#EF232C"/>
</svg>
