<svg  viewBox="0 0 221 48" fill="none" xmlns="http://www.w3.org/2000/svg">
<path d="M7.28089 42H6.6106C2.95966 42 0 39.0259 0 35.3571V12.6429C0 8.9741 2.95966 6 6.6106 6H7.28089C7.60266 2.63287 10.4258 0 13.8609 0H207.139C210.574 0 213.397 2.63287 213.719 6H214.389C218.04 6 221 8.9741 221 12.6429V35.3571C221 39.0259 218.04 42 214.389 42H213.719C213.397 45.3671 210.574 48 207.139 48H13.8609C10.4258 48 7.60266 45.3671 7.28089 42Z" fill="#EF232C"/>
<path d="M11.3263 38.4749L11.282 38.0238H10.8287H10.2C7.04138 38.0238 4.5 35.5227 4.5 32.4609V15.5391C4.5 12.4773 7.04138 9.97619 10.2 9.97619H10.8287H11.282L11.3263 9.52505C11.6023 6.71437 14.0289 4.5 17 4.5H204C206.971 4.5 209.398 6.71437 209.674 9.52506L209.718 9.97619H210.171H210.8C213.959 9.97619 216.5 12.4773 216.5 15.5391V32.4609C216.5 35.5227 213.959 38.0238 210.8 38.0238H210.171H209.718L209.674 38.4749C209.398 41.2856 206.971 43.5 204 43.5H17C14.0289 43.5 11.6023 41.2856 11.3263 38.4749Z" stroke="#FAF5F0"/>
</svg>
