<svg xmlns="http://www.w3.org/2000/svg" viewBox="0 0 221 48" fill="none">
<path d="M8.27636 41.9049L8.18989 41H7.28089H6.6106C3.51653 41 1 38.4782 1 35.3571V12.6429C1 9.52179 3.51653 7 6.6106 7H7.28089H8.18989L8.27636 6.09513C8.54994 3.23219 10.9501 1 13.8609 1H207.139C210.05 1 212.45 3.2322 212.724 6.09513L212.81 7H213.719H214.389C217.483 7 220 9.52179 220 12.6429V35.3571C220 38.4782 217.483 41 214.389 41H213.719H212.81L212.724 41.9049C212.45 44.7678 210.05 47 207.139 47H13.8609C10.9501 47 8.54994 44.7678 8.27636 41.9049Z" stroke="#EF232C" stroke-width="2"/>
<path d="M11.3263 38.4749L11.282 38.0238H10.8287H10.2C7.04138 38.0238 4.5 35.5227 4.5 32.4609V15.5391C4.5 12.4773 7.04138 9.97619 10.2 9.97619H10.8287H11.282L11.3263 9.52505C11.6023 6.71437 14.0289 4.5 17 4.5H204C206.971 4.5 209.398 6.71437 209.674 9.52506L209.718 9.97619H210.171H210.8C213.959 9.97619 216.5 12.4773 216.5 15.5391V32.4609C216.5 35.5227 213.959 38.0238 210.8 38.0238H210.171H209.718L209.674 38.4749C209.398 41.2856 206.971 43.5 204 43.5H17C14.0289 43.5 11.6023 41.2856 11.3263 38.4749Z" stroke="#EF232C"/>
</svg>