<svg width="17" height="17" viewBox="0 0 17 17" fill="none" xmlns="http://www.w3.org/2000/svg">
<circle cx="8.24229" cy="8.348" r="8" transform="rotate(-0.66468 8.24229 8.348)" fill="url(#paint0_linear_2154_15258)"/>
<path d="M5.00731 0.850033C4.04763 1.26929 3.1883 1.86323 2.45289 2.61562C1.71776 3.36802 1.14392 4.2409 0.747038 5.21031C0.336239 6.21392 0.134381 7.27696 0.147067 8.37046C0.15975 9.4637 0.386219 10.522 0.820191 11.5158C1.23945 12.4755 1.83339 13.3351 2.58578 14.07C3.33817 14.8051 4.21133 15.3792 5.18047 15.7758C6.18381 16.1866 7.24712 16.3885 8.34035 16.3758C9.43385 16.3631 10.4919 16.1367 11.4857 15.7027C12.4454 15.2834 13.3047 14.6895 14.0401 13.9371C14.7753 13.1847 15.3494 12.3118 15.746 11.3427C16.1568 10.3391 16.3587 9.27604 16.346 8.18253C16.3333 7.0893 16.1068 6.03096 15.6728 5.03715C15.2539 4.07747 14.6597 3.21814 13.9073 2.48274C13.1549 1.7476 12.282 1.17376 11.3126 0.776883C10.309 0.366084 9.24592 0.164225 8.15242 0.176911C7.05919 0.189594 6.00112 0.416061 5.00731 0.850033ZM5.22985 15.6553C4.27618 15.265 3.41718 14.7002 2.6768 13.9768C1.93643 13.2534 1.35211 12.4078 0.939507 11.4634C0.512475 10.4857 0.289717 9.44463 0.277235 8.36868C0.264752 7.29273 0.463297 6.24675 0.867532 5.25942C1.25784 4.30575 1.82266 3.44675 2.54605 2.70638C3.26944 1.96601 4.11511 1.38141 5.05947 0.969084C6.03715 0.542052 7.07825 0.319292 8.1542 0.30681C9.23015 0.294328 10.2761 0.492874 11.2635 0.897109C12.2171 1.28742 13.0761 1.85223 13.8165 2.57563C14.5569 3.29902 15.1415 4.14468 15.5538 5.08904C15.9808 6.06673 16.2036 7.10782 16.2161 8.18377C16.2285 9.25945 16.03 10.3057 15.6258 11.293C15.2355 12.2467 14.6706 13.1054 13.9473 13.8461C13.2239 14.5864 12.3782 15.171 11.4338 15.5834C10.4562 16.0104 9.41506 16.2332 8.33911 16.2456C7.26316 16.2579 6.2169 16.0593 5.22985 15.6553ZM6.39838 0.806884C6.40688 0.841089 6.58103 1.53296 6.58951 1.56582C6.94691 1.47767 7.31734 1.41773 7.69081 1.38774L7.7097 1.38617L7.72818 1.69873L7.7101 1.70002C7.30587 1.73281 6.90288 1.80312 6.51273 1.9092C6.10022 2.02041 5.69524 2.17528 5.3088 2.3683L5.29269 2.37632L5.14551 2.09955L5.16243 2.09098C5.48952 1.92755 5.82934 1.79018 6.1722 1.68194C6.1621 1.64965 5.95134 0.96819 5.94069 0.934281C5.37688 1.11207 4.83274 1.35526 4.32332 1.65747C3.81175 1.96079 3.33678 2.3223 2.91071 2.73159C2.93532 2.75696 3.43231 3.26872 3.45582 3.29302C3.72188 3.03766 4.01272 2.80038 4.32061 2.58828L4.33615 2.57757L4.50855 2.83919L4.49354 2.84963C4.15913 3.0804 3.84561 3.34279 3.56128 3.62916C3.2601 3.93139 2.98661 4.26787 2.74797 4.62879L2.73788 4.64377L2.47233 4.47749L2.48268 4.46171C2.68388 4.15686 2.90931 3.8682 3.15257 3.60257C3.12772 3.57963 2.60431 3.09492 2.57837 3.07091C2.17961 3.50581 1.83002 3.98849 1.53945 4.50587C1.24808 5.02434 1.01732 5.57506 0.853197 6.14229C0.887072 6.15189 1.57324 6.34678 1.60576 6.35612C1.70861 6.00217 1.84176 5.65166 2.00232 5.31324L2.0105 5.29613L2.29061 5.43658L2.28296 5.45287C2.10869 5.82062 1.9681 6.20471 1.86539 6.59404C1.75565 7.00669 1.68714 7.43478 1.66109 7.86617L1.65995 7.88428L1.3465 7.87306L1.34763 7.85414C1.36934 7.49033 1.42023 7.12726 1.49798 6.77522C1.46495 6.76777 0.769481 6.60946 0.735089 6.60176C0.607269 7.17856 0.545806 7.77107 0.552683 8.36387C0.559576 8.95801 0.635051 9.55002 0.776492 10.124C0.810696 10.1155 1.5023 9.94133 1.53516 9.93285C1.44727 9.57463 1.38706 9.2042 1.35735 8.83153L1.35578 8.81265L1.66834 8.79443L1.66991 8.81251C1.70268 9.21648 1.77299 9.6192 1.87881 10.0096C1.99002 10.4221 2.14489 10.8271 2.33791 11.2135L2.34593 11.2297L2.06916 11.3766L2.06059 11.3597C1.89772 11.0339 1.76035 10.6944 1.65128 10.3502C1.61899 10.3603 0.937528 10.571 0.903616 10.5814C1.08112 11.1444 1.32431 11.6883 1.62708 12.1988C1.93012 12.7101 2.29136 13.185 2.70119 13.6111C2.72657 13.5865 3.23833 13.09 3.26263 13.0663C3.00726 12.7999 2.76998 12.5091 2.55789 12.2015L2.54718 12.1859L2.8088 12.0135L2.81923 12.0285C3.05 12.3627 3.31212 12.6762 3.59876 12.9608C3.90099 13.262 4.23747 13.5352 4.5984 13.7741L4.61337 13.7842L4.44709 14.0495L4.43131 14.0389C4.12673 13.8379 3.83781 13.6125 3.57217 13.3692C3.54923 13.3941 3.06453 13.9175 3.04052 13.9434C3.47569 14.3422 3.9581 14.6918 4.47548 14.9826C4.99449 15.274 5.54493 15.5048 6.11189 15.6686C6.12149 15.6347 6.31665 14.9486 6.32599 14.9161C5.97204 14.8132 5.62126 14.6801 5.28312 14.5195L5.26601 14.5113L5.40672 14.2312L5.42329 14.2388C5.79375 14.4144 6.18082 14.5558 6.57394 14.659C6.57341 14.6596 6.58776 14.6629 6.58776 14.6629L6.6143 14.6693C6.61457 14.6693 6.62785 14.673 6.62785 14.673L6.65116 14.6792C7.0461 14.7767 7.45386 14.8384 7.8628 14.862L7.88091 14.8632L7.86969 15.1763L7.85077 15.1752C7.47589 15.1539 7.10444 15.1023 6.74563 15.0227C6.73818 15.0558 6.58013 15.7512 6.57216 15.7859C7.14951 15.914 7.7431 15.976 8.33725 15.9691C8.93005 15.9622 9.52125 15.887 10.0947 15.7458C10.0862 15.7116 9.91175 15.0198 9.90353 14.9869C9.55448 15.0728 9.19295 15.1321 8.82866 15.1625L8.80951 15.1641L8.79129 14.8513L8.80937 14.8497C9.24031 14.8134 9.6667 14.7349 10.077 14.617C10.4646 14.5031 10.8453 14.3539 11.2079 14.1717L11.224 14.1637L11.3709 14.4405L11.354 14.4491C11.0199 14.6174 10.6723 14.7587 10.3208 14.8697C10.3309 14.902 10.5414 15.5835 10.5518 15.6171C11.1151 15.4399 11.66 15.1967 12.1721 14.8933C12.6824 14.5908 13.1568 14.2299 13.5826 13.8211C13.558 13.7958 13.0613 13.2837 13.0375 13.2594C12.7776 13.5088 12.4942 13.7408 12.1941 13.9488L12.1786 13.9598L12.0062 13.6982L12.0212 13.6877C12.377 13.44 12.7071 13.159 13.0025 12.8525C13.2817 12.5603 13.5367 12.2407 13.7594 11.9013L13.7695 11.8861L14.035 12.0524L14.0247 12.0682C13.8195 12.3812 13.589 12.6772 13.3402 12.9491C13.365 12.972 13.8884 13.4567 13.9144 13.4807C14.3137 13.0453 14.6641 12.5621 14.9554 12.0439C15.2463 11.5265 15.4765 10.9771 15.6406 10.4102C15.6068 10.4006 14.9206 10.2057 14.8881 10.1963C14.7873 10.5424 14.6578 10.8851 14.5023 11.215L14.4941 11.2322L14.2143 11.0917L14.222 11.0754C14.4059 10.6835 14.5514 10.275 14.6543 9.86141C14.7497 9.46865 14.8107 9.06441 14.8341 8.65952L14.8352 8.64141L15.1484 8.65263L15.1473 8.67155C15.1259 9.04562 15.0746 9.41734 14.9948 9.7767C15.0278 9.78415 15.7235 9.94219 15.7579 9.95016C15.886 9.37254 15.9477 8.77895 15.9408 8.18507C15.934 7.59146 15.8588 7.00027 15.7176 6.42767C15.6834 6.43617 14.9918 6.61058 14.959 6.61879C15.0448 6.96785 15.1039 7.32937 15.1343 7.69393L15.1359 7.71282L14.823 7.7313L14.8215 7.71322C14.7849 7.28202 14.7067 6.85562 14.5888 6.44589C14.4754 6.05853 14.326 5.6778 14.1435 5.315L14.1355 5.29889L14.4123 5.15199L14.4208 5.1689C14.5892 5.50296 14.7304 5.85056 14.8412 6.2023C14.8735 6.19221 15.555 5.98145 15.5886 5.97107C15.4111 5.40672 15.1679 4.86177 14.8648 4.35101C14.5624 3.84078 14.2017 3.36634 13.7929 2.94054C13.7675 2.96514 13.2555 3.46186 13.2312 3.48537C13.4803 3.74502 13.7124 4.02864 13.9206 4.32874L13.9313 4.34428L13.6697 4.51667L13.6592 4.50167C13.412 4.14665 13.1311 3.8166 12.824 3.52035C12.5318 3.24148 12.2123 2.98643 11.8731 2.76374L11.8579 2.75366L12.0242 2.48811L12.0399 2.49846C12.3527 2.70335 12.6487 2.93383 12.9209 3.18295C12.9438 3.1581 13.4285 2.63469 13.4525 2.60875C13.0171 2.20919 12.5338 1.85907 12.0156 1.56769C11.4985 1.27712 10.9489 1.04661 10.3819 0.882216C10.3723 0.916091 10.1772 1.60226 10.1678 1.63505C10.5142 1.73583 10.8568 1.86502 11.1868 2.02055L11.2039 2.02872L11.0635 2.30883L11.0472 2.30119C10.6879 2.13249 10.3119 1.99559 9.92963 1.89414C9.9299 1.8936 9.90579 1.88766 9.90579 1.88766L9.88602 1.88276L9.85811 1.87552L9.83292 1.86906C9.44855 1.7752 9.05297 1.71497 8.65725 1.69066L8.63914 1.68952L8.65009 1.37634L8.66928 1.37747C9.03363 1.39944 9.39616 1.45007 9.74793 1.52783C9.75538 1.49479 9.91369 0.799054 9.9214 0.764662C9.3454 0.636833 8.75289 0.57537 8.15928 0.582257C7.56487 0.589693 6.9726 0.665171 6.39838 0.806884ZM6.82027 1.24793L6.75543 0.967505L6.77429 0.963775C7.2316 0.872036 7.6983 0.822865 8.16147 0.817492C8.62896 0.812068 9.10074 0.851162 9.56358 0.933846L9.58252 0.937138L9.52064 1.23686L9.50278 1.23383C9.13116 1.16818 8.75232 1.13179 8.3768 1.12534C8.37613 1.16073 8.36455 1.88529 8.36414 1.91959C8.85664 1.92847 9.34845 1.99434 9.82634 2.11655C10.3004 2.23854 10.7603 2.4158 11.194 2.64278C11.2099 2.61235 11.5476 1.97099 11.564 1.93946C11.2295 1.76427 10.8796 1.61464 10.5238 1.49452L10.5067 1.48877L10.5963 1.19629L10.6144 1.20229C11.0608 1.35215 11.4935 1.54431 11.9003 1.77296C12.3043 1.99975 12.6901 2.26673 13.0471 2.56672L13.0619 2.57898L12.8584 2.80742L12.8445 2.79596C12.559 2.55699 12.252 2.33853 11.9319 2.14615C11.9136 2.17661 11.5413 2.79839 11.5235 2.82776C11.9601 3.0901 12.3638 3.4036 12.7239 3.76028C13.0625 4.09641 13.3623 4.47 13.616 4.87086C13.6449 4.85243 14.2582 4.46582 14.2879 4.44684C14.0868 4.1291 13.8588 3.82436 13.6097 3.54148L13.5977 3.52785L13.8216 3.31916L13.8342 3.3336C14.1449 3.68518 14.4235 4.06793 14.6626 4.47085C14.8992 4.87029 15.0997 5.29446 15.2587 5.7318L15.2652 5.74982L14.9748 5.84584L14.9687 5.82889C14.8406 5.47843 14.6838 5.1356 14.5034 4.80979C14.4725 4.82689 13.8389 5.17917 13.8088 5.19599C14.0563 5.64311 14.2495 6.11706 14.3827 6.60549C14.5074 7.0643 14.5801 7.53748 14.5997 8.01183C14.634 8.01062 15.358 7.98196 15.3934 7.98047C15.378 7.60467 15.3331 7.22704 15.2588 6.85732L15.2554 6.83954L15.5536 6.77071L15.5573 6.78958C15.6507 7.25064 15.7007 7.72112 15.7059 8.18861C15.7113 8.65204 15.6729 9.11977 15.5918 9.5788L15.5885 9.59775L15.2891 9.53586L15.2921 9.518C15.3565 9.14964 15.3918 8.7746 15.3983 8.40259C15.3629 8.40192 14.6381 8.39034 14.604 8.38965C14.5951 8.89782 14.5259 9.40291 14.3976 9.89166C14.2765 10.3525 14.1026 10.8005 13.8809 11.2236C13.9113 11.2395 14.5527 11.5769 14.584 11.5936C14.7589 11.2601 14.9085 10.9105 15.0289 10.5534L15.0346 10.5363L15.3271 10.6258L15.3211 10.644C15.1718 11.0892 14.9799 11.5217 14.7505 11.9296C14.5231 12.3341 14.2562 12.7199 13.9567 13.0764L13.9444 13.0912L13.7157 12.8877L13.7272 12.8738C13.9664 12.588 14.1849 12.2808 14.377 11.9609C14.3465 11.9426 13.725 11.5703 13.6956 11.5526C13.4344 11.9875 13.1219 12.3901 12.7666 12.7494C12.4302 13.0887 12.0553 13.3899 11.6523 13.645C11.6707 13.674 12.0573 14.2869 12.0763 14.317C12.394 14.1158 12.6985 13.8881 12.9817 13.6388L12.9953 13.6267L13.204 13.8506L13.1895 13.8632C12.8372 14.1744 12.4544 14.453 12.0523 14.6913C11.6537 14.9277 11.2295 15.1285 10.7913 15.2878L10.7733 15.2945L10.677 15.0041L10.694 14.998C11.0447 14.8697 11.3873 14.7128 11.7131 14.5324C11.696 14.5015 11.344 13.8679 11.3272 13.8381C10.8803 14.0853 10.4064 14.2785 9.91766 14.4117C9.45858 14.5364 8.98539 14.6092 8.51131 14.6287C8.51279 14.663 8.54091 15.3873 8.5424 15.4227C8.91983 15.4073 9.29772 15.3621 9.66555 15.2879L9.68334 15.2844L9.75216 15.5826L9.7333 15.5864C9.27277 15.6795 8.80229 15.7295 8.33426 15.7349C7.87056 15.7403 7.40283 15.702 6.94407 15.6209L6.92512 15.6176L6.98701 15.3179L7.00487 15.3209C7.37242 15.3852 7.74774 15.4209 8.12029 15.4273C8.12096 15.3919 8.13253 14.6671 8.13294 14.6328C7.64368 14.6242 7.15404 14.5588 6.67699 14.4377C6.19802 14.3155 5.73353 14.1369 5.29573 13.9076C5.27988 13.938 4.94213 14.5793 4.92574 14.6106C5.25593 14.7837 5.60204 14.9326 5.95538 15.0524L5.97246 15.0582L5.88267 15.3509L5.8645 15.3447C5.42304 15.1955 4.99433 15.0047 4.59032 14.7776C4.18306 14.549 3.79395 14.2791 3.43443 13.9759L3.4197 13.9636L3.62315 13.7352L3.63705 13.7466C3.92591 13.9893 4.23585 14.2102 4.55789 14.4036C4.57618 14.3732 4.94846 13.7514 4.96622 13.722C4.55876 13.4772 4.1775 13.1853 3.83306 12.8541C3.46839 12.5023 3.14642 12.1063 2.87513 11.6776C2.84616 11.6957 2.23319 12.0826 2.20316 12.1016C2.40237 12.4167 2.6279 12.7184 2.87398 12.9992L2.88602 13.0128L2.6621 13.2215L2.64951 13.2071C2.34158 12.8574 2.06572 12.4778 1.82935 12.0789C1.59132 11.6776 1.38918 11.2497 1.229 10.8069L1.22258 10.7889L1.51291 10.6924L1.51904 10.7093C1.64767 11.0635 1.80565 11.4096 1.988 11.7386C2.01887 11.7215 2.65249 11.3693 2.68255 11.3527C2.45275 10.9381 2.26881 10.4959 2.13628 10.038C1.99557 9.55017 1.91435 9.04494 1.89359 8.53603C1.8593 8.53751 1.13521 8.5659 1.09984 8.56739C1.11498 8.94104 1.1593 9.31516 1.23214 9.68003L1.23559 9.69782L0.937379 9.76664L0.933649 9.74778C0.842184 9.29074 0.793014 8.82404 0.787638 8.3606C0.782208 7.89257 0.821302 7.42079 0.903723 6.9585L0.907015 6.93955L1.20647 7.00144L1.20343 7.0193C1.13777 7.38957 1.10165 7.76813 1.09495 8.14527C1.13034 8.14594 1.85489 8.15753 1.8892 8.15821C1.89774 7.683 1.95974 7.2069 2.07429 6.74342C2.19661 6.25149 2.37852 5.77427 2.61424 5.32478C2.5838 5.30866 1.94218 4.97145 1.91092 4.95507C1.73784 5.28525 1.58897 5.63136 1.46909 5.98443L1.46335 6.00151L1.17087 5.91226L1.17687 5.89409C1.32598 5.45263 1.51683 5.02392 1.74389 4.61965C1.97307 4.2121 2.24272 3.82326 2.54565 3.46348L2.55791 3.44876L2.78607 3.6522L2.77435 3.66611C2.5319 3.95496 2.31104 4.26463 2.11761 4.58695C2.14807 4.60523 2.76984 4.97751 2.79922 4.99527C3.0454 4.58591 3.33808 4.2041 3.66956 3.85992C4.02107 3.49607 4.41601 3.17465 4.84395 2.90391C4.82552 2.87495 4.43864 2.26171 4.41993 2.23194C4.1046 2.43143 3.80281 2.65695 3.52259 2.90276L3.50895 2.91453L3.3 2.69088L3.31444 2.67829C3.66443 2.37036 4.04424 2.09423 4.4426 1.85813C4.84472 1.61982 5.27266 1.41768 5.71485 1.25778L5.73287 1.25136L5.82915 1.54169L5.81221 1.54783C5.45879 1.67644 5.11245 1.83415 4.78288 2.01678C4.79999 2.04765 5.15226 2.68127 5.16882 2.71133C5.58373 2.48152 6.02564 2.29759 6.48302 2.16533C6.97081 2.02489 7.47604 1.9434 7.98522 1.92264C7.98374 1.88835 7.95536 1.16427 7.95414 1.1289C7.58076 1.14403 7.20637 1.18835 6.84149 1.26119L6.8237 1.26464L6.82027 1.24793ZM3.88966 4.01943C2.75252 5.18326 2.13668 6.72001 2.15556 8.34716C2.17443 9.97405 2.82576 11.4964 3.98959 12.6335C5.15343 13.7706 6.69017 14.3865 8.31732 14.3676C9.94421 14.3487 11.4665 13.6974 12.6037 12.5336C13.7408 11.3697 14.3566 9.83299 14.3378 8.20583C14.3189 6.57895 13.6676 5.05663 12.5037 3.9195C11.3399 2.78236 9.80315 2.16652 8.17599 2.1854C6.54884 2.20428 5.0268 2.8556 3.88966 4.01943ZM2.28573 8.34538C2.26726 6.75333 2.86996 5.24916 3.98254 4.11019C5.09539 2.97122 6.58491 2.33378 8.17723 2.3153C9.76955 2.29683 11.2734 2.89954 12.4124 4.01239C13.5514 5.12524 14.1888 6.61476 14.2073 8.20707C14.2258 9.79912 13.6231 11.3033 12.5102 12.4423C11.3974 13.5812 9.90758 14.2184 8.31554 14.2369C6.72349 14.2554 5.21931 13.6526 4.08034 12.5401C2.94164 11.4272 2.3042 9.9377 2.28573 8.34538Z" fill="#B3B0AD"/>
<path d="M6.48601 8.9708L6.47435 7.96567C6.47419 7.95167 6.46849 7.94333 6.46289 7.9434C6.45729 7.94346 6.45453 7.9463 6.44622 7.95479L6.37707 8.0284C6.3494 8.05672 6.31037 8.07118 6.27117 8.07163C6.18717 8.07261 6.12203 8.00896 6.12106 7.92496C6.12057 7.88297 6.13415 7.84641 6.16459 7.81525L6.51321 7.45278C6.54365 7.42163 6.58268 7.40717 6.62468 7.40669C6.71147 7.40568 6.77665 7.47213 6.77762 7.55612L6.79399 8.96723C6.79458 9.01762 6.83989 9.0619 6.89029 9.06132L7.00508 9.05998C7.08908 9.05901 7.15425 9.12546 7.15523 9.20945C7.1562 9.29345 7.09259 9.36139 7.00859 9.36236L6.28624 9.37074C6.20225 9.37172 6.13707 9.30527 6.1361 9.22128C6.13512 9.13728 6.19874 9.06934 6.28273 9.06836L6.39472 9.06707C6.44792 9.06645 6.4866 9.0212 6.48601 8.9708Z" fill="#FFF4DD"/>
<path d="M8.66224 7.88988L8.66185 7.85628C8.66168 7.84228 8.65586 7.82275 8.64453 7.81168L8.54257 7.71206C8.53124 7.70099 8.51434 7.69278 8.49754 7.69298L8.17556 7.69671C8.15876 7.69691 8.14206 7.7055 8.13099 7.71683L8.03137 7.8188C8.0203 7.83012 8.01213 7.84982 8.01229 7.86382L8.01447 8.05141C8.01466 8.06821 8.02329 8.08771 8.03462 8.09878L8.13661 8.2012C8.15074 8.21224 8.16484 8.22047 8.18164 8.22028L8.59041 8.21554C8.63241 8.21505 8.66897 8.22863 8.69729 8.2563L8.93527 8.49435C8.96359 8.52203 8.97798 8.55546 8.97847 8.59746L8.98266 8.95864C8.98305 8.99223 8.97233 9.03436 8.94186 9.06272L8.70934 9.29503C8.6817 9.32615 8.6427 9.34341 8.6035 9.34386L8.10793 9.34961C8.06874 9.35006 8.02654 9.33375 8.00099 9.30325L7.76314 9.07639C7.73198 9.04595 7.71753 9.00692 7.71714 8.97332L7.71571 8.85013C7.71477 8.76893 7.78128 8.70936 7.86808 8.70835C7.95487 8.70734 8.02275 8.76536 8.02369 8.84655L8.02405 8.87735C8.02421 8.89135 8.03287 8.91365 8.0442 8.92472L8.14613 9.02154C8.15746 9.03261 8.17435 9.04082 8.19115 9.04062L8.51313 9.03689C8.52993 9.03669 8.54663 9.0281 8.5577 9.01677L8.65736 8.91761C8.66843 8.90628 8.67377 8.88381 8.6736 8.86982L8.67156 8.69343C8.67136 8.67663 8.6627 8.65433 8.65417 8.64323L8.55221 8.5436C8.53808 8.53257 8.52399 8.52433 8.50719 8.52452L8.09842 8.52927C8.05642 8.52975 8.01706 8.51621 7.99154 8.4885L7.75356 8.25045C7.7252 8.21997 7.70801 8.18657 7.70753 8.14457L7.70327 7.7778C7.70288 7.7442 7.71639 7.70204 7.74683 7.67089L7.97935 7.43857C8.0042 7.40748 8.046 7.3902 8.0852 7.38974L8.58076 7.38399C8.61996 7.38354 8.65935 7.39988 8.68771 7.43036L8.92555 7.65721C8.95668 7.68485 8.9684 7.72952 8.96879 7.76312L8.97022 7.88631C8.97119 7.9703 8.90754 8.03545 8.82075 8.03645C8.73395 8.03746 8.66321 7.97388 8.66224 7.88988Z" fill="#FFF4DD"/>
<path d="M10.1971 7.76847L10.2135 9.17957C10.2145 9.26357 10.1509 9.33151 10.0613 9.33255C9.97449 9.33356 9.90651 9.26714 9.90554 9.18315L9.88917 7.77204C9.88858 7.72164 9.84607 7.67733 9.79287 7.67795L9.55768 7.68068C9.47369 7.68165 9.40572 7.61524 9.40471 7.52844C9.4037 7.44165 9.47012 7.37368 9.55411 7.3727L10.5256 7.36143C10.6096 7.36045 10.6748 7.4269 10.6758 7.5137C10.6768 7.60049 10.6132 7.66843 10.5292 7.66941L10.2912 7.67217C10.2408 7.67275 10.1966 7.71807 10.1971 7.76847Z" fill="#FFF4DD"/>
<defs>
<linearGradient id="paint0_linear_2154_15258" x1="8.24229" y1="0.348002" x2="8.24229" y2="16.348" gradientUnits="userSpaceOnUse">
<stop stop-color="#41D1BE"/>
<stop offset="1" stop-color="#01806F"/>
</linearGradient>
</defs>
</svg>
