<svg width="17" height="17" viewBox="0 0 17 17" fill="none" xmlns="http://www.w3.org/2000/svg">
<circle cx="8.24229" cy="8.34803" r="8" transform="rotate(-0.66468 8.24229 8.34803)" fill="url(#paint0_linear_2154_4320)"/>
<path d="M5.00731 0.850063C4.04763 1.26932 3.1883 1.86326 2.45289 2.61565C1.71776 3.36805 1.14392 4.24093 0.747038 5.21034C0.336239 6.21395 0.134381 7.27699 0.147067 8.37049C0.15975 9.46373 0.386219 10.5221 0.820191 11.5159C1.23945 12.4756 1.83339 13.3352 2.58578 14.07C3.33817 14.8052 4.21133 15.3793 5.18047 15.7759C6.18381 16.1867 7.24712 16.3885 8.34035 16.3759C9.43385 16.3632 10.4919 16.1367 11.4857 15.7027C12.4454 15.2835 13.3047 14.6895 14.0401 13.9371C14.7753 13.1847 15.3494 12.3119 15.746 11.3427C16.1568 10.3391 16.3587 9.27607 16.346 8.18256C16.3333 7.08933 16.1068 6.03099 15.6728 5.03718C15.2539 4.0775 14.6597 3.21817 13.9073 2.48277C13.1549 1.74763 12.282 1.17379 11.3126 0.776914C10.309 0.366115 9.24592 0.164255 8.15242 0.176941C7.05919 0.189624 6.00112 0.416092 5.00731 0.850063ZM5.22985 15.6554C4.27618 15.2651 3.41718 14.7002 2.6768 13.9769C1.93643 13.2535 1.35211 12.4078 0.939507 11.4634C0.512475 10.4858 0.289717 9.44466 0.277235 8.36871C0.264752 7.29277 0.463297 6.24678 0.867532 5.25945C1.25784 4.30578 1.82266 3.44678 2.54605 2.70641C3.26944 1.96604 4.11511 1.38144 5.05947 0.969114C6.03715 0.542082 7.07825 0.319323 8.1542 0.306841C9.23015 0.294358 10.2761 0.492904 11.2635 0.897139C12.2171 1.28745 13.0761 1.85226 13.8165 2.57566C14.5569 3.29905 15.1415 4.14471 15.5538 5.08907C15.9808 6.06676 16.2036 7.10785 16.2161 8.1838C16.2285 9.25948 16.03 10.3057 15.6258 11.2931C15.2355 12.2467 14.6706 13.1055 13.9473 13.8461C13.2239 14.5865 12.3782 15.1711 11.4338 15.5834C10.4562 16.0104 9.41506 16.2332 8.33911 16.2457C7.26316 16.2579 6.2169 16.0593 5.22985 15.6554ZM6.39838 0.806915C6.40688 0.841119 6.58103 1.533 6.58951 1.56585C6.94691 1.4777 7.31734 1.41776 7.69081 1.38777L7.7097 1.3862L7.72818 1.69877L7.7101 1.70006C7.30587 1.73284 6.90288 1.80315 6.51273 1.90923C6.10022 2.02044 5.69524 2.17531 5.3088 2.36833L5.29269 2.37635L5.14551 2.09958L5.16243 2.09101C5.48952 1.92758 5.82934 1.79021 6.1722 1.68197C6.1621 1.64968 5.95134 0.968221 5.94069 0.934311C5.37688 1.1121 4.83274 1.35529 4.32332 1.65751C3.81175 1.96082 3.33678 2.32233 2.91071 2.73162C2.93532 2.75699 3.43231 3.26875 3.45582 3.29305C3.72188 3.03769 4.01272 2.80041 4.32061 2.58831L4.33615 2.5776L4.50855 2.83922L4.49354 2.84966C4.15913 3.08043 3.84561 3.34282 3.56128 3.62919C3.2601 3.93142 2.98661 4.2679 2.74797 4.62882L2.73788 4.6438L2.47233 4.47752L2.48268 4.46174C2.68388 4.15689 2.90931 3.86823 3.15257 3.6026C3.12772 3.57966 2.60431 3.09495 2.57837 3.07094C2.17961 3.50585 1.83002 3.98852 1.53945 4.5059C1.24808 5.02437 1.01732 5.57509 0.853197 6.14232C0.887072 6.15192 1.57324 6.34681 1.60576 6.35615C1.70861 6.00221 1.84176 5.65169 2.00232 5.31327L2.0105 5.29616L2.29061 5.43661L2.28296 5.4529C2.10869 5.82065 1.9681 6.20474 1.86539 6.59408C1.75565 7.00672 1.68714 7.43481 1.66109 7.8662L1.65995 7.88431L1.3465 7.87309L1.34763 7.85417C1.36934 7.49036 1.42023 7.12729 1.49798 6.77525C1.46495 6.76781 0.769481 6.60949 0.735089 6.60179C0.607269 7.17859 0.545806 7.7711 0.552683 8.3639C0.559576 8.95805 0.635051 9.55005 0.776492 10.124C0.810696 10.1155 1.5023 9.94136 1.53516 9.93288C1.44727 9.57466 1.38706 9.20423 1.35735 8.83156L1.35578 8.81268L1.66834 8.79446L1.66991 8.81254C1.70268 9.21651 1.77299 9.61923 1.87881 10.0097C1.99002 10.4222 2.14489 10.8271 2.33791 11.2136L2.34593 11.2297L2.06916 11.3766L2.06059 11.3597C1.89772 11.0339 1.76035 10.6944 1.65128 10.3502C1.61899 10.3603 0.937528 10.571 0.903616 10.5814C1.08112 11.1444 1.32431 11.6883 1.62708 12.1988C1.93012 12.7101 2.29136 13.1851 2.70119 13.6111C2.72657 13.5865 3.23833 13.0901 3.26263 13.0663C3.00726 12.8 2.76998 12.5091 2.55789 12.2015L2.54718 12.186L2.8088 12.0136L2.81923 12.0286C3.05 12.3627 3.31212 12.6762 3.59876 12.9608C3.90099 13.262 4.23747 13.5352 4.5984 13.7741L4.61337 13.7842L4.44709 14.0495L4.43131 14.0389C4.12673 13.8379 3.83781 13.6125 3.57217 13.3693C3.54923 13.3941 3.06453 13.9175 3.04052 13.9435C3.47569 14.3422 3.9581 14.6918 4.47548 14.9827C4.99449 15.274 5.54493 15.5048 6.11189 15.6686C6.12149 15.6348 6.31665 14.9486 6.32599 14.9161C5.97204 14.8132 5.62126 14.6801 5.28312 14.5195L5.26601 14.5113L5.40672 14.2312L5.42329 14.2389C5.79375 14.4145 6.18082 14.5558 6.57394 14.659C6.57341 14.6596 6.58776 14.6629 6.58776 14.6629L6.6143 14.6694C6.61457 14.6694 6.62785 14.673 6.62785 14.673L6.65116 14.6792C7.0461 14.7767 7.45386 14.8384 7.8628 14.8621L7.88091 14.8632L7.86969 15.1764L7.85077 15.1752C7.47589 15.1539 7.10444 15.1023 6.74563 15.0228C6.73818 15.0558 6.58013 15.7513 6.57216 15.7859C7.14951 15.914 7.7431 15.976 8.33725 15.9691C8.93005 15.9622 9.52125 15.887 10.0947 15.7459C10.0862 15.7117 9.91175 15.0198 9.90353 14.9869C9.55448 15.0728 9.19295 15.1321 8.82866 15.1626L8.80951 15.1641L8.79129 14.8513L8.80937 14.8497C9.24031 14.8134 9.6667 14.735 10.077 14.617C10.4646 14.5032 10.8453 14.354 11.2079 14.1718L11.224 14.1637L11.3709 14.4405L11.354 14.4491C11.0199 14.6175 10.6723 14.7587 10.3208 14.8697C10.3309 14.902 10.5414 15.5835 10.5518 15.6171C11.1151 15.4399 11.66 15.1967 12.1721 14.8934C12.6824 14.5909 13.1568 14.2299 13.5826 13.8212C13.558 13.7958 13.0613 13.2838 13.0375 13.2595C12.7776 13.5088 12.4942 13.7409 12.1941 13.9488L12.1786 13.9598L12.0062 13.6982L12.0212 13.6878C12.377 13.44 12.7071 13.159 13.0025 12.8526C13.2817 12.5603 13.5367 12.2408 13.7594 11.9014L13.7695 11.8861L14.035 12.0524L14.0247 12.0682C13.8195 12.3812 13.589 12.6772 13.3402 12.9491C13.365 12.9721 13.8884 13.4568 13.9144 13.4808C14.3137 13.0453 14.6641 12.5621 14.9554 12.0439C15.2463 11.5265 15.4765 10.9772 15.6406 10.4102C15.6068 10.4006 14.9206 10.2057 14.8881 10.1964C14.7873 10.5424 14.6578 10.8851 14.5023 11.2151L14.4941 11.2322L14.2143 11.0917L14.222 11.0754C14.4059 10.6835 14.5514 10.2751 14.6543 9.86144C14.7497 9.46868 14.8107 9.06444 14.8341 8.65955L14.8352 8.64144L15.1484 8.65266L15.1473 8.67158C15.1259 9.04565 15.0746 9.41737 14.9948 9.77673C15.0278 9.78418 15.7235 9.94222 15.7579 9.95019C15.886 9.37257 15.9477 8.77898 15.9408 8.1851C15.934 7.5915 15.8588 7.0003 15.7176 6.4277C15.6834 6.4362 14.9918 6.61061 14.959 6.61882C15.0448 6.96788 15.1039 7.3294 15.1343 7.69396L15.1359 7.71285L14.823 7.73133L14.8215 7.71325C14.7849 7.28205 14.7067 6.85565 14.5888 6.44593C14.4754 6.05856 14.326 5.67783 14.1435 5.31504L14.1355 5.29892L14.4123 5.15202L14.4208 5.16893C14.5892 5.50299 14.7304 5.85059 14.8412 6.20234C14.8735 6.19224 15.555 5.98148 15.5886 5.9711C15.4111 5.40675 15.1679 4.8618 14.8648 4.35104C14.5624 3.84081 14.2017 3.36637 13.7929 2.94057C13.7675 2.96517 13.2555 3.46189 13.2312 3.4854C13.4803 3.74505 13.7124 4.02867 13.9206 4.32877L13.9313 4.34431L13.6697 4.5167L13.6592 4.5017C13.412 4.14668 13.1311 3.81663 12.824 3.52038C12.5318 3.24151 12.2123 2.98646 11.8731 2.76378L11.8579 2.75369L12.0242 2.48814L12.0399 2.49849C12.3527 2.70338 12.6487 2.93386 12.9209 3.18298C12.9438 3.15813 13.4285 2.63472 13.4525 2.60878C13.0171 2.20922 12.5338 1.8591 12.0156 1.56772C11.4985 1.27715 10.9489 1.04664 10.3819 0.882247C10.3723 0.916121 10.1772 1.60229 10.1678 1.63508C10.5142 1.73586 10.8568 1.86505 11.1868 2.02058L11.2039 2.02875L11.0635 2.30886L11.0472 2.30122C10.6879 2.13252 10.3119 1.99562 9.92963 1.89417C9.9299 1.89363 9.90579 1.88769 9.90579 1.88769L9.88602 1.88279L9.85811 1.87555L9.83292 1.86909C9.44855 1.77523 9.05297 1.715 8.65725 1.69069L8.63914 1.68955L8.65009 1.37637L8.66928 1.3775C9.03363 1.39947 9.39616 1.4501 9.74793 1.52786C9.75538 1.49482 9.91369 0.799085 9.9214 0.764692C9.3454 0.636863 8.75289 0.575401 8.15928 0.582287C7.56487 0.589723 6.9726 0.665201 6.39838 0.806915ZM6.82027 1.24796L6.75543 0.967536L6.77429 0.963805C7.2316 0.872067 7.6983 0.822896 8.16147 0.817522C8.62896 0.812099 9.10074 0.851193 9.56358 0.933877L9.58252 0.937168L9.52064 1.23689L9.50278 1.23386C9.13116 1.16821 8.75232 1.13182 8.3768 1.12537C8.37613 1.16076 8.36455 1.88532 8.36414 1.91962C8.85664 1.9285 9.34845 1.99437 9.82634 2.11658C10.3004 2.23857 10.7603 2.41583 11.194 2.64281C11.2099 2.61238 11.5476 1.97102 11.564 1.93949C11.2295 1.7643 10.8796 1.61467 10.5238 1.49455L10.5067 1.4888L10.5963 1.19632L10.6144 1.20232C11.0608 1.35218 11.4935 1.54434 11.9003 1.77299C12.3043 1.99978 12.6901 2.26676 13.0471 2.56675L13.0619 2.57901L12.8584 2.80745L12.8445 2.79599C12.559 2.55702 12.252 2.33856 11.9319 2.14618C11.9136 2.17664 11.5413 2.79842 11.5235 2.82779C11.9601 3.09013 12.3638 3.40363 12.7239 3.76031C13.0625 4.09644 13.3623 4.47003 13.616 4.87089C13.6449 4.85246 14.2582 4.46585 14.2879 4.44687C14.0868 4.12913 13.8588 3.82439 13.6097 3.54151L13.5977 3.52788L13.8216 3.31919L13.8342 3.33363C14.1449 3.68521 14.4235 4.06796 14.6626 4.47088C14.8992 4.87032 15.0997 5.29449 15.2587 5.73183L15.2652 5.74985L14.9748 5.84587L14.9687 5.82892C14.8406 5.47846 14.6838 5.13563 14.5034 4.80982C14.4725 4.82692 13.8389 5.1792 13.8088 5.19602C14.0563 5.64314 14.2495 6.11709 14.3827 6.60552C14.5074 7.06433 14.5801 7.53752 14.5997 8.01186C14.634 8.01065 15.358 7.98199 15.3934 7.9805C15.378 7.6047 15.3331 7.22707 15.2588 6.85735L15.2554 6.83957L15.5536 6.77074L15.5573 6.78961C15.6507 7.25067 15.7007 7.72115 15.7059 8.18864C15.7113 8.65207 15.6729 9.1198 15.5918 9.57884L15.5885 9.59778L15.2891 9.53589L15.2921 9.51803C15.3565 9.14967 15.3918 8.77463 15.3983 8.40262C15.3629 8.40195 14.6381 8.39037 14.604 8.38968C14.5951 8.89785 14.5259 9.40294 14.3976 9.8917C14.2765 10.3525 14.1026 10.8005 13.8809 11.2236C13.9113 11.2395 14.5527 11.577 14.584 11.5936C14.7589 11.2602 14.9085 10.9105 15.0289 10.5534L15.0346 10.5363L15.3271 10.6259L15.3211 10.644C15.1718 11.0893 14.9799 11.5218 14.7505 11.9296C14.5231 12.3341 14.2562 12.72 13.9567 13.0765L13.9444 13.0912L13.7157 12.8878L13.7272 12.8739C13.9664 12.588 14.1849 12.2808 14.377 11.9609C14.3465 11.9426 13.725 11.5704 13.6956 11.5526C13.4344 11.9875 13.1219 12.3901 12.7666 12.7494C12.4302 13.0888 12.0553 13.39 11.6523 13.645C11.6707 13.674 12.0573 14.287 12.0763 14.317C12.394 14.1159 12.6985 13.8881 12.9817 13.6388L12.9953 13.6268L13.204 13.8507L13.1895 13.8633C12.8372 14.1745 12.4544 14.4531 12.0523 14.6914C11.6537 14.9277 11.2295 15.1285 10.7913 15.2878L10.7733 15.2945L10.677 15.0042L10.694 14.998C11.0447 14.8697 11.3873 14.7129 11.7131 14.5324C11.696 14.5016 11.344 13.8679 11.3272 13.8381C10.8803 14.0853 10.4064 14.2786 9.91766 14.4117C9.45858 14.5364 8.98539 14.6092 8.51131 14.6287C8.51279 14.663 8.54091 15.3874 8.5424 15.4227C8.91983 15.4073 9.29772 15.3621 9.66555 15.2879L9.68334 15.2844L9.75216 15.5827L9.7333 15.5864C9.27277 15.6795 8.80229 15.7295 8.33426 15.735C7.87056 15.7403 7.40283 15.702 6.94407 15.6209L6.92512 15.6176L6.98701 15.3179L7.00487 15.3209C7.37242 15.3853 7.74774 15.4209 8.12029 15.4274C8.12096 15.392 8.13253 14.6672 8.13294 14.6328C7.64368 14.6242 7.15404 14.5589 6.67699 14.4377C6.19802 14.3155 5.73353 14.137 5.29573 13.9076C5.27988 13.938 4.94213 14.5794 4.92574 14.6106C5.25593 14.7837 5.60204 14.9326 5.95538 15.0525L5.97246 15.0582L5.88267 15.351L5.8645 15.3447C5.42304 15.1956 4.99433 15.0047 4.59032 14.7777C4.18306 14.549 3.79395 14.2791 3.43443 13.9759L3.4197 13.9636L3.62315 13.7352L3.63705 13.7467C3.92591 13.9894 4.23585 14.2102 4.55789 14.4037C4.57618 14.3732 4.94846 13.7514 4.96622 13.7221C4.55876 13.4772 4.1775 13.1853 3.83306 12.8541C3.46839 12.5024 3.14642 12.1063 2.87513 11.6776C2.84616 11.6958 2.23319 12.0826 2.20316 12.1016C2.40237 12.4167 2.6279 12.7185 2.87398 12.9992L2.88602 13.0129L2.6621 13.2215L2.64951 13.2071C2.34158 12.8574 2.06572 12.4778 1.82935 12.0789C1.59132 11.6776 1.38918 11.2497 1.229 10.807L1.22258 10.7889L1.51291 10.6924L1.51904 10.7093C1.64767 11.0636 1.80565 11.4096 1.988 11.7387C2.01887 11.7216 2.65249 11.3693 2.68255 11.3527C2.45275 10.9381 2.26881 10.4959 2.13628 10.038C1.99557 9.5502 1.91435 9.04497 1.89359 8.53606C1.8593 8.53754 1.13521 8.56593 1.09984 8.56742C1.11498 8.94107 1.1593 9.31519 1.23214 9.68006L1.23559 9.69785L0.937379 9.76667L0.933649 9.74781C0.842184 9.29078 0.793014 8.82407 0.787638 8.36063C0.782208 7.8926 0.821302 7.42082 0.903723 6.95853L0.907015 6.93958L1.20647 7.00147L1.20343 7.01933C1.13777 7.3896 1.10165 7.76816 1.09495 8.14531C1.13034 8.14598 1.85489 8.15756 1.8892 8.15824C1.89774 7.68303 1.95974 7.20693 2.07429 6.74345C2.19661 6.25152 2.37852 5.7743 2.61424 5.32481C2.5838 5.30869 1.94218 4.97148 1.91092 4.9551C1.73784 5.28528 1.58897 5.63139 1.46909 5.98446L1.46335 6.00154L1.17087 5.91229L1.17687 5.89412C1.32598 5.45266 1.51683 5.02395 1.74389 4.61968C1.97307 4.21213 2.24272 3.8233 2.54565 3.46351L2.55791 3.44879L2.78607 3.65223L2.77435 3.66614C2.5319 3.95499 2.31104 4.26466 2.11761 4.58698C2.14807 4.60526 2.76984 4.97755 2.79922 4.9953C3.0454 4.58594 3.33808 4.20413 3.66956 3.85995C4.02107 3.4961 4.41601 3.17468 4.84395 2.90394C4.82552 2.87498 4.43864 2.26174 4.41993 2.23198C4.1046 2.43146 3.80281 2.65699 3.52259 2.90279L3.50895 2.91456L3.3 2.69091L3.31444 2.67832C3.66443 2.37039 4.04424 2.09426 4.4426 1.85816C4.84472 1.61985 5.27266 1.41771 5.71485 1.25781L5.73287 1.25139L5.82915 1.54172L5.81221 1.54786C5.45879 1.67647 5.11245 1.83418 4.78288 2.01681C4.79999 2.04768 5.15226 2.68131 5.16882 2.71136C5.58373 2.48155 6.02564 2.29762 6.48302 2.16536C6.97081 2.02492 7.47604 1.94343 7.98522 1.92267C7.98374 1.88838 7.95536 1.1643 7.95414 1.12893C7.58076 1.14406 7.20637 1.18838 6.84149 1.26122L6.8237 1.26467L6.82027 1.24796ZM3.88966 4.01946C2.75252 5.18329 2.13668 6.72004 2.15556 8.34719C2.17443 9.97408 2.82576 11.4964 3.98959 12.6335C5.15343 13.7707 6.69017 14.3865 8.31732 14.3676C9.94421 14.3488 11.4665 13.6974 12.6037 12.5336C13.7408 11.3698 14.3566 9.83302 14.3378 8.20586C14.3189 6.57898 13.6676 5.05667 12.5037 3.91953C11.3399 2.78239 9.80315 2.16655 8.17599 2.18543C6.54884 2.20431 5.0268 2.85563 3.88966 4.01946ZM2.28573 8.34541C2.26726 6.75337 2.86996 5.24919 3.98254 4.11022C5.09539 2.97125 6.58491 2.33381 8.17723 2.31533C9.76955 2.29686 11.2734 2.89957 12.4124 4.01242C13.5514 5.12527 14.1888 6.61479 14.2073 8.20711C14.2258 9.79915 13.6231 11.3033 12.5102 12.4423C11.3974 13.5813 9.90758 14.2184 8.31554 14.2369C6.72349 14.2554 5.21931 13.6527 4.08034 12.5401C2.94164 11.4272 2.3042 9.93773 2.28573 8.34541Z" fill="#B3B0AD"/>
<path d="M6.29984 7.88652L6.3002 7.91732C6.30118 8.00131 6.23473 8.06649 6.15073 8.06746C6.06674 8.06844 5.9988 8.00482 5.99782 7.92083L5.99639 7.79764C5.996 7.76404 6.00952 7.72188 6.03996 7.69072L6.26688 7.45848C6.29172 7.42739 6.33352 7.4101 6.37272 7.40964L6.87948 7.40377C6.91868 7.40331 6.95807 7.41966 6.98643 7.45013L7.21868 7.67705C7.24423 7.70755 7.26145 7.74376 7.26191 7.78296L7.26386 7.95094C7.26425 7.98454 7.25074 8.0267 7.22306 8.05502L6.33188 8.95862C6.32358 8.96712 6.31814 8.98118 6.31827 8.99238C6.31873 9.03158 6.36948 9.06179 6.40868 9.06134L7.12823 9.05299C7.21223 9.05202 7.2774 9.11846 7.27841 9.20526C7.27942 9.29205 7.2158 9.36 7.13181 9.36097L6.16587 9.37218C6.08188 9.37315 6.0139 9.30673 6.01289 9.21994L6.00939 8.91756C6.00893 8.87836 6.02254 8.8446 6.05301 8.81625L6.94969 7.90418C6.9552 7.89572 6.96067 7.88446 6.9605 7.87046C6.96037 7.85926 6.95461 7.84532 6.94891 7.83699L6.84129 7.73183C6.82996 7.72076 6.80746 7.71262 6.79066 7.71282L6.46868 7.71655C6.45189 7.71675 6.42958 7.72541 6.41852 7.73674L6.31889 7.8387C6.30782 7.85003 6.29968 7.87252 6.29984 7.88652Z" fill="#FFF4DD"/>
<path d="M7.9909 7.46648L8.65078 8.5901C8.65651 8.60123 8.66214 8.60397 8.66494 8.60393C8.66774 8.6039 8.67048 8.59827 8.67031 8.58427L8.65813 7.53434C8.65716 7.45035 8.72638 7.38234 8.81317 7.38133C8.89996 7.38033 8.96514 7.44677 8.96611 7.53077L8.98534 9.18826C8.98632 9.27225 8.9227 9.34019 8.83591 9.3412C8.77711 9.34188 8.72636 9.31167 8.69784 9.2672L8.03506 8.13521C8.02933 8.12408 8.0237 8.12134 8.0209 8.12137C8.0181 8.12141 8.01537 8.12704 8.01553 8.14104L8.02781 9.19937C8.02878 9.28336 7.96237 9.35133 7.87557 9.35234C7.78878 9.35335 7.7208 9.28693 7.71983 9.20294L7.7006 7.54545C7.69962 7.46146 7.76604 7.39348 7.85283 7.39247C7.90883 7.39182 7.96518 7.42197 7.9909 7.46648Z" fill="#FFF4DD"/>
<path d="M10.3386 7.40844L10.6304 7.69627C10.6587 7.72395 10.6759 7.75735 10.6764 7.80215L10.6889 8.87727C10.6894 8.92207 10.673 8.95586 10.6453 8.98419L10.3603 9.27871C10.3299 9.30987 10.2964 9.32426 10.2572 9.32471L9.58247 9.33254C9.49568 9.33355 9.4277 9.26713 9.4267 9.18034L9.40753 7.52845C9.40652 7.44165 9.47294 7.37368 9.55973 7.37267L10.2345 7.36484C10.2737 7.36439 10.3074 7.378 10.3386 7.40844ZM10.2086 8.99765L10.3636 8.84184C10.3719 8.83055 10.38 8.80805 10.3798 8.79125L10.3695 7.89531C10.3693 7.87851 10.3606 7.85621 10.3521 7.84511L10.1935 7.69294C10.1822 7.68187 10.1625 7.6737 10.1457 7.67389L9.80969 7.67779C9.75929 7.67838 9.71782 7.72366 9.7184 7.77406L9.73178 8.92758C9.73237 8.97798 9.77489 9.02229 9.82528 9.0217L10.1613 9.0178C10.1781 9.01761 10.1976 9.00898 10.2086 8.99765Z" fill="#FFF4DD"/>
<defs>
<linearGradient id="paint0_linear_2154_4320" x1="8.24229" y1="0.348033" x2="8.24229" y2="16.348" gradientUnits="userSpaceOnUse">
<stop stop-color="#F34A49"/>
<stop offset="1" stop-color="#9F0100"/>
</linearGradient>
</defs>
</svg>
