<svg width="1440" height="760" viewBox="0 0 1440 760" fill="none" xmlns="http://www.w3.org/2000/svg">
<g clip-path="url(#clip0_144_57586)">
<rect width="1440" height="760" fill="black"/>
<g clip-path="url(#clip1_144_57586)">
<rect width="1600" height="1530" transform="translate(-80 -385)" fill="url(#paint0_linear_144_57586)"/>
<g opacity="0.4">
<g filter="url(#filter0_i_144_57586)">
<path d="M689.054 236.585H750.729L748.204 216.985L708.978 216.807V178.057H730.452V158.207H750.729V139.26H771.967V120.03H793.138V99.8293H854.14V139.26H813.64V158.207H793.138V178.057H771.967V197.907H750.729V216.985H854.14V236.382H875.35V255.968H895.817V275.553H916.655V294.95H936.935V314.536H957.402V489.676H937.494V528.659H916.338V567.224H895.468V605.554H874.276V625.946H853.911V645.532H833.865V664.821H771.296V645.532H668.636V664.821H606.298V645.532H585.627V625.59H564.632V606.301H544.284V566.417H523.289V528.82H502.941V489.262H482.598V314.253H503.128V294.859H522.836V276.142H544.333V256.364H566.316V236.585H585.245V216.807H689.054V236.585Z" fill="url(#paint1_linear_144_57586)"/>
</g>
<g filter="url(#filter1_i_144_57586)">
<path d="M689.054 236.585H750.729L748.204 216.985L708.978 216.807V178.057H730.452V158.207H750.729V139.26H771.967V120.03H793.138V99.8293H854.14V139.26H813.64V158.207H793.138V178.057H771.967V197.907H750.729V216.985H854.14V236.382H875.35V255.968H895.817V275.553H916.655V294.95H936.935V314.536H957.402V489.676H937.494V528.659H916.338V567.224H895.468V605.554H874.276V625.946H853.911V645.532H833.865V664.821H771.296V645.532H668.636V664.821H606.298V645.532H585.627V625.59H564.632V606.301H544.284V566.417H523.289V528.82H502.941V489.262H482.598V314.253H503.128V294.859H522.836V276.142H544.333V256.364H566.316V236.585H585.245V216.807H689.054V236.585Z" fill="url(#paint2_linear_144_57586)"/>
</g>
<path d="M689.454 139.183V198.111H647.524V158.475H627.078V119.541H668.316V139.183H689.454Z" fill="url(#paint3_linear_144_57586)"/>
</g>
<path d="M100.359 -408.383C182.87 -395.584 257.806 -350.408 308.982 -282.613C360.158 -214.819 383.466 -129.846 373.87 -46.0515C364.274 37.7435 322.546 113.635 257.698 165.231C192.85 216.827 110.089 239.985 27.2894 229.703C-55.5097 219.422 -131.7 176.526 -184.824 110.281C-237.948 44.0356 -263.741 -40.2408 -256.633 -124.345C-249.525 -208.448 -210.085 -285.629 -146.833 -339.215C-83.5811 -392.8 -1.59409 -418.49 81.4186 -410.735L70.4937 -253.763C28.1086 -257.723 -13.7529 -244.606 -46.0485 -217.246C-78.344 -189.885 -98.4814 -150.478 -102.111 -107.536C-105.74 -64.5936 -92.5704 -21.5632 -65.4461 12.2605C-38.3217 46.0843 0.580015 67.9865 42.8561 73.2362C85.1323 78.4858 127.389 66.6616 160.5 40.3175C193.61 13.9734 214.916 -24.7759 219.816 -67.5605C224.715 -110.345 212.815 -153.731 186.685 -188.346C160.555 -222.961 122.293 -246.027 80.1644 -252.562L100.359 -408.383Z" fill="url(#paint4_linear_144_57586)"/>
<path d="M1331.03 -172.341C1537.54 -84.6926 1685.52 55.1813 1742.99 217.067C1800.47 378.953 1762.84 549.856 1638.22 692.861C1513.6 835.867 1312 939.495 1076.97 981.362C841.939 1023.23 592.337 999.975 382.082 916.623C171.827 833.27 17.7945 696.509 -46.7436 535.881C-111.282 375.253 -81.1453 203.651 37.1562 58.1415C155.458 -87.3677 352.429 -195.104 585.522 -241.797C818.616 -288.49 1069.12 -270.39 1282.93 -191.409L1068.42 82.0064C959.255 41.6794 831.35 32.4381 712.336 56.2788C593.321 80.1194 492.751 135.128 432.347 209.423C371.944 283.718 356.557 371.336 389.509 453.35C422.461 535.365 501.108 605.193 608.462 647.752C715.815 690.311 843.258 702.184 963.263 680.807C1083.27 659.43 1186.2 606.519 1249.83 533.503C1313.46 460.486 1332.67 373.225 1303.32 290.569C1273.98 207.912 1198.42 136.494 1092.98 91.7418L1331.03 -172.341Z" fill="url(#paint5_linear_144_57586)" fill-opacity="0.6"/>
<ellipse cx="1448.55" cy="721.812" rx="188.969" ry="191.152" fill="url(#paint6_radial_144_57586)" fill-opacity="0.3"/>
<circle cx="1465.06" cy="732.455" r="149.972" fill="url(#paint7_radial_144_57586)" fill-opacity="0.8"/>
<rect x="-23" y="-184" width="1485" height="438" fill="url(#paint8_linear_144_57586)"/>
</g>
</g>
<defs>
<filter id="filter0_i_144_57586" x="482.598" y="99.8293" width="482.405" height="572.593" filterUnits="userSpaceOnUse" color-interpolation-filters="sRGB">
<feFlood flood-opacity="0" result="BackgroundImageFix"/>
<feBlend mode="normal" in="SourceGraphic" in2="BackgroundImageFix" result="shape"/>
<feColorMatrix in="SourceAlpha" type="matrix" values="0 0 0 0 0 0 0 0 0 0 0 0 0 0 0 0 0 0 127 0" result="hardAlpha"/>
<feOffset dx="22.8029" dy="15.2019"/>
<feGaussianBlur stdDeviation="3.80048"/>
<feComposite in2="hardAlpha" operator="arithmetic" k2="-1" k3="1"/>
<feColorMatrix type="matrix" values="0 0 0 0 0.772549 0 0 0 0 0.129412 0 0 0 0 0.156863 0 0 0 1 0"/>
<feBlend mode="normal" in2="shape" result="effect1_innerShadow_144_57586"/>
</filter>
<filter id="filter1_i_144_57586" x="457.895" y="99.8293" width="499.507" height="580.194" filterUnits="userSpaceOnUse" color-interpolation-filters="sRGB">
<feFlood flood-opacity="0" result="BackgroundImageFix"/>
<feBlend mode="normal" in="SourceGraphic" in2="BackgroundImageFix" result="shape"/>
<feColorMatrix in="SourceAlpha" type="matrix" values="0 0 0 0 0 0 0 0 0 0 0 0 0 0 0 0 0 0 127 0" result="hardAlpha"/>
<feOffset dx="-24.7031" dy="15.2019"/>
<feGaussianBlur stdDeviation="19.0024"/>
<feComposite in2="hardAlpha" operator="arithmetic" k2="-1" k3="1"/>
<feColorMatrix type="matrix" values="0 0 0 0 0.933333 0 0 0 0 0.415686 0 0 0 0 0.282353 0 0 0 1 0"/>
<feBlend mode="normal" in2="shape" result="effect1_innerShadow_144_57586"/>
</filter>
<linearGradient id="paint0_linear_144_57586" x1="1393.34" y1="-32.8637" x2="-153" y2="881.818" gradientUnits="userSpaceOnUse">
<stop offset="0.161675" stop-color="#F7774D"/>
<stop offset="0.523362" stop-color="#C63434"/>
<stop offset="0.700961" stop-color="#A81D25"/>
<stop offset="1" stop-color="#7F171B"/>
</linearGradient>
<linearGradient id="paint1_linear_144_57586" x1="720" y1="99.8293" x2="720" y2="664.821" gradientUnits="userSpaceOnUse">
<stop stop-color="#E3252E" stop-opacity="0.59"/>
<stop offset="1" stop-color="#FF1D27" stop-opacity="0"/>
</linearGradient>
<linearGradient id="paint2_linear_144_57586" x1="720" y1="99.8293" x2="720" y2="665" gradientUnits="userSpaceOnUse">
<stop stop-color="#FF3D12"/>
<stop offset="1" stop-color="#FF1D27" stop-opacity="0"/>
</linearGradient>
<linearGradient id="paint3_linear_144_57586" x1="658.266" y1="119.541" x2="658.266" y2="319.482" gradientUnits="userSpaceOnUse">
<stop stop-color="#E55D41"/>
<stop offset="1" stop-color="#FF1D27" stop-opacity="0"/>
</linearGradient>
<linearGradient id="paint4_linear_144_57586" x1="-77.3828" y1="-277.76" x2="323.138" y2="411.657" gradientUnits="userSpaceOnUse">
<stop offset="0.187294" stop-color="#B31A2C" stop-opacity="0"/>
<stop offset="0.423322" stop-color="#BC2536" stop-opacity="0.2"/>
<stop offset="0.725436" stop-color="#D34B3E"/>
<stop offset="0.954118" stop-color="#D03F4F"/>
</linearGradient>
<linearGradient id="paint5_linear_144_57586" x1="729.779" y1="-81.1231" x2="786.234" y2="1067.5" gradientUnits="userSpaceOnUse">
<stop offset="0.352399" stop-color="#B31A2C" stop-opacity="0"/>
<stop offset="0.913751" stop-color="#FF586A"/>
</linearGradient>
<radialGradient id="paint6_radial_144_57586" cx="0" cy="0" r="1" gradientUnits="userSpaceOnUse" gradientTransform="translate(1312.1 570.878) rotate(41.84) scale(436.796 437.377)">
<stop offset="0.196628" stop-color="#F7774C"/>
<stop offset="0.996551" stop-color="#8E141C"/>
</radialGradient>
<radialGradient id="paint7_radial_144_57586" cx="0" cy="0" r="1" gradientUnits="userSpaceOnUse" gradientTransform="translate(1356.77 614.037) rotate(41.5131) scale(344.901)">
<stop offset="0.254627" stop-color="#F7774C" stop-opacity="0.59"/>
<stop offset="0.836653" stop-color="#8E141C" stop-opacity="0"/>
</radialGradient>
<linearGradient id="paint8_linear_144_57586" x1="719.5" y1="-184" x2="719.5" y2="254" gradientUnits="userSpaceOnUse">
<stop/>
<stop offset="1" stop-opacity="0"/>
</linearGradient>
<clipPath id="clip0_144_57586">
<rect width="1440" height="760" fill="white"/>
</clipPath>
<clipPath id="clip1_144_57586">
<rect width="1600" height="1530" fill="white" transform="translate(-80 -385)"/>
</clipPath>
</defs>
</svg>
