
<svg width="1440" height="823" viewBox="0 0 1440 823" fill="none" xmlns="http://www.w3.org/2000/svg">
<g clip-path="url(#clip0_144_58580)">
<rect width="1600" height="1530" transform="translate(-80 -353)" fill="url(#paint0_linear_144_58580)"/>
<g opacity="0.4">
<g filter="url(#filter0_i_144_58580)">
<path d="M689.054 268.585H750.729L748.204 248.985L708.978 248.807V210.057H730.452V190.207H750.729V171.26H771.967V152.03H793.138V131.829H854.14V171.26H813.64V190.207H793.138V210.057H771.967V229.907H750.729V248.985H854.14V268.382H875.35V287.967H895.817V307.553H916.655V326.95H936.935V346.536H957.402V521.676H937.494V560.659H916.338V599.223H895.468V637.554H874.276V657.946H853.911V677.532H833.865V696.821H771.296V677.532H668.636V696.821H606.298V677.532H585.627V657.59H564.632V638.301H544.284V598.416H523.289V560.82H502.941V521.262H482.598V346.253H503.128V326.859H522.836V308.142H544.333V288.364H566.316V268.585H585.245V248.807H689.054V268.585Z" fill="url(#paint1_linear_144_58580)"/>
</g>
</g>
<path d="M100.359 -376.383C182.87 -363.585 257.806 -318.409 308.982 -250.614C360.158 -182.819 383.466 -97.8467 373.87 -14.0517C364.274 69.7432 322.546 145.635 257.698 197.231C192.85 248.827 110.089 271.985 27.2894 261.703C-55.5097 251.421 -131.7 208.525 -184.824 142.28C-237.948 76.0354 -263.741 -8.24104 -256.633 -92.3449C-249.525 -176.449 -210.085 -253.629 -146.833 -307.215C-83.5811 -360.801 -1.59409 -386.49 81.4186 -378.735L70.4937 -221.763C28.1086 -225.723 -13.7529 -212.606 -46.0485 -185.246C-78.344 -157.886 -98.4814 -118.478 -102.111 -75.5361C-105.74 -32.5939 -92.5704 10.4365 -65.4461 44.2603C-38.3217 78.0841 0.580015 99.9863 42.8561 105.236C85.1323 110.486 127.389 98.6614 160.5 72.3173C193.61 45.9732 214.916 7.22385 219.816 -35.5607C224.715 -78.3453 212.815 -121.731 186.685 -156.346C160.555 -190.961 122.293 -214.027 80.1644 -220.562L100.359 -376.383Z" fill="url(#paint2_linear_144_58580)"/>
<path d="M1331.03 -140.342C1537.54 -52.6928 1685.52 87.1811 1742.99 249.067C1800.47 410.953 1762.84 581.856 1638.22 724.861C1513.6 867.866 1312 971.495 1076.97 1013.36C841.939 1055.23 592.337 1031.98 382.082 948.622C171.827 865.269 17.7945 728.509 -46.7436 567.88C-111.282 407.252 -81.1453 235.65 37.1562 90.1412C155.458 -55.3679 352.429 -163.105 585.522 -209.797C818.616 -256.49 1069.12 -238.391 1282.93 -159.409L1068.42 114.006C959.255 73.6792 831.35 64.4379 712.336 88.2785C593.321 112.119 492.751 167.128 432.347 241.423C371.944 315.718 356.557 403.336 389.509 485.35C422.461 567.365 501.108 637.193 608.462 679.752C715.815 722.311 843.258 734.184 963.263 712.807C1083.27 691.43 1186.2 638.519 1249.83 565.503C1313.46 492.486 1332.67 405.225 1303.32 322.568C1273.98 239.912 1198.42 168.494 1092.98 123.742L1331.03 -140.342Z" fill="url(#paint3_linear_144_58580)" fill-opacity="0.6"/>
<ellipse cx="1448.55" cy="753.812" rx="188.969" ry="191.152" fill="url(#paint4_radial_144_58580)" fill-opacity="0.3"/>
<circle cx="1465.06" cy="764.455" r="149.972" fill="url(#paint5_radial_144_58580)" fill-opacity="0.8"/>
</g>
<defs>
<filter id="filter0_i_144_58580" x="482.598" y="131.829" width="482.405" height="572.593" filterUnits="userSpaceOnUse" color-interpolation-filters="sRGB">
<feFlood flood-opacity="0" result="BackgroundImageFix"/>
<feBlend mode="normal" in="SourceGraphic" in2="BackgroundImageFix" result="shape"/>
<feColorMatrix in="SourceAlpha" type="matrix" values="0 0 0 0 0 0 0 0 0 0 0 0 0 0 0 0 0 0 127 0" result="hardAlpha"/>
<feOffset dx="22.8029" dy="15.2019"/>
<feGaussianBlur stdDeviation="3.80048"/>
<feComposite in2="hardAlpha" operator="arithmetic" k2="-1" k3="1"/>
<feColorMatrix type="matrix" values="0 0 0 0 0.772549 0 0 0 0 0.129412 0 0 0 0 0.156863 0 0 0 1 0"/>
<feBlend mode="normal" in2="shape" result="effect1_innerShadow_144_58580"/>
</filter>
<linearGradient id="paint0_linear_144_58580" x1="1393.34" y1="-32.8637" x2="156.283" y2="877.771" gradientUnits="userSpaceOnUse">
<stop stop-color="#F7774D"/>
<stop offset="0.417916" stop-color="#C63434"/>
<stop offset="0.634" stop-color="#A81D25"/>
<stop offset="1" stop-color="#7F171B"/>
</linearGradient>
<linearGradient id="paint1_linear_144_58580" x1="720" y1="131.829" x2="720" y2="696.821" gradientUnits="userSpaceOnUse">
<stop stop-color="#E3252E" stop-opacity="0.59"/>
<stop offset="1" stop-color="#FF1D27" stop-opacity="0"/>
</linearGradient>
<linearGradient id="paint2_linear_144_58580" x1="-77.3828" y1="-245.76" x2="323.138" y2="443.657" gradientUnits="userSpaceOnUse">
<stop offset="0.187294" stop-color="#B31A2C" stop-opacity="0"/>
<stop offset="0.423322" stop-color="#BC2536" stop-opacity="0.2"/>
<stop offset="0.725436" stop-color="#D34B3E"/>
<stop offset="0.954118" stop-color="#D03F4F"/>
</linearGradient>
<linearGradient id="paint3_linear_144_58580" x1="729.779" y1="-49.1233" x2="786.234" y2="1099.5" gradientUnits="userSpaceOnUse">
<stop offset="0.352399" stop-color="#B31A2C" stop-opacity="0"/>
<stop offset="0.913751" stop-color="#FF586A"/>
</linearGradient>
<radialGradient id="paint4_radial_144_58580" cx="0" cy="0" r="1" gradientUnits="userSpaceOnUse" gradientTransform="translate(1312.1 602.878) rotate(41.84) scale(436.796 437.377)">
<stop offset="0.196628" stop-color="#F7774C"/>
<stop offset="0.996551" stop-color="#8E141C"/>
</radialGradient>
<radialGradient id="paint5_radial_144_58580" cx="0" cy="0" r="1" gradientUnits="userSpaceOnUse" gradientTransform="translate(1356.77 646.037) rotate(41.5131) scale(344.901)">
<stop offset="0.254627" stop-color="#F7774C" stop-opacity="0.59"/>
<stop offset="0.836653" stop-color="#8E141C" stop-opacity="0"/>
</radialGradient>
<clipPath id="clip0_144_58580">
<rect width="1600" height="1530" fill="white" transform="translate(-80 -353)"/>
</clipPath>
</defs>
</svg>
