<svg width="806" height="1227" viewBox="0 0 806 1227" fill="none" xmlns="http://www.w3.org/2000/svg">
<path d="M799.862 722.795C771.272 738.139 714.412 787.387 715.682 861.625C716.953 935.863 772.331 1047.46 799.862 1093.98" stroke="#FFDFAC" stroke-width="3"/>
<path d="M792.753 91.4662C789.433 95.3096 782.385 105.152 780.753 113.776C775.121 114.358 762.341 117.272 756.281 124.264C748.706 133.004 753.368 102.705 759.777 100.374C766.186 98.0437 730.644 108.24 728.604 132.712C726.565 157.184 715.494 144.366 718.99 138.539C722.486 132.712 708.502 142.909 707.046 153.106C705.589 163.302 688.401 137.956 704.715 124.264C721.03 110.571 719.573 65.4145 714.329 58.4225C710.134 52.8289 712.581 55.315 714.329 57.2572C712.678 71.6296 703.608 103.055 680.535 113.776C667.424 117.272 707.337 84.9338 709.668 47.0605C711.532 16.762 707.143 4.9144 704.715 2.77795C701.996 12.1977 692.479 33.0183 676.164 40.9425C655.771 50.8478 649.653 64.2491 647.614 83.1858C645.575 102.122 605.371 152.523 597.505 146.988C589.639 141.452 614.985 119.311 614.111 107.658C613.237 96.0044 593.534 64.9793 593.534 77.8114C593.534 87.5365 583.521 107.366 583.812 115.815C584.103 124.264 581.468 139.355 573.198 158.813C564.928 178.272 556.172 175.84 551.307 181.191C546.443 186.542 544.74 190.19 542.551 181.191C540.362 172.191 535.254 160.759 529.903 158.813C532.173 169.11 534.281 191.844 524.552 200.406C512.39 211.108 498.769 219.135 493.418 250.025C491.58 243.86 492.216 224.915 509.471 198.46C510.607 195.866 512.536 188.779 511.174 181.191C511.417 186.136 506.553 200.065 485.148 216.216C463.744 232.367 455.474 248.728 454.015 254.89C452.682 252.656 450.415 246.785 452.015 241.177C447.255 245.85 438.098 257.067 439.552 264.544C436.177 262.034 429.998 256.08 432.283 252.341C429.427 262.813 424.909 286.302 429.686 296.479C434.464 306.657 438.254 308.855 439.552 308.682C437.475 312.923 436.437 323.066 448.899 329.712C445.87 333.78 442.253 343.421 452.015 349.445C457.987 353.339 454.092 368.138 437.475 368.138C420.859 368.138 382.433 392.025 378.279 397.996C372.87 396.376 360.234 395.503 352.963 404.972C347.326 405.395 336.686 410.088 339.223 425.476C313.883 420.232 262.674 397.196 260.553 347.01C257.903 284.278 296.779 270.583 297.662 203.434C298.546 136.284 241.115 81.5046 158.062 68.6931C202.681 76.3505 292.096 113.136 292.803 199.016C292.655 211.533 288.827 243.37 274.69 270.583C257.019 304.6 242.44 356.287 267.621 389.862C287.766 416.722 322.254 429.033 336.98 431.831C340.59 442.139 350.857 467.172 363.044 484.843L366.579 477.333L373.308 484.843L378.279 481.663L384.612 488.052L391.738 484.843C394.768 485.913 402.118 488.052 407.274 488.052L414.597 494.927L420.163 490.24L422.214 477.333L431.002 488.052L433.931 468.856H440.083C440.952 470.995 442.169 476.552 440.083 481.663C437.997 486.775 431.988 492.636 429.244 494.927C426.315 495.904 419.87 497.974 417.527 498.443C415.183 498.911 414.597 503.325 414.597 505.473L411.668 510.453L409.91 501.958C406.974 507.817 399.229 521.995 391.738 531.838C382.374 544.141 389.405 575.192 411.668 586.031C433.931 596.87 435.103 582.809 458.538 604.779C467.209 611.81 471.33 624.894 472.306 630.558V647.862C477.036 645.49 486.899 635.275 488.508 613.389C489.848 621.432 492.127 638.145 490.519 640.647C488.508 643.775 501.467 612.718 488.508 590.599C495.509 595.738 514.694 602.932 535.428 590.599L533.64 587.918C528.278 588.663 517.33 588.678 516.436 582.779C523.69 584.27 541.218 585.163 553.306 576.806C568.415 566.36 601.806 571.023 607.589 575.5C605.039 572.018 595.053 564.569 575.504 562.629C586.211 561.174 611.272 561.042 625.859 572.148C618.328 565.049 593.274 552.479 553.306 558.994C563.359 555.473 588.926 548.825 610.761 550.41C604.447 546.668 584.118 539.976 553.306 543.146C563.446 539.404 592.153 535.618 625.859 550.41C667.991 568.9 720.21 525.165 749.035 523.607C772.095 522.361 796.038 528.575 805.127 531.838" stroke="#FFDFAC" stroke-width="3"/>
<path d="M796.637 1155.32C773.933 1153.02 727.144 1146.35 721.626 1138.08C714.728 1127.73 700.933 1108.76 711.279 1101C721.626 1093.24 686.275 1101.87 674.204 1110.49C653.799 1109.05 611.029 1107.85 596.544 1123.72C582.059 1139.58 580.363 1137.16 577.874 1137.91C550.315 1139.25 494.6 1142.94 479.359 1146.25C460.307 1150.39 443.741 1168.62 427.175 1170.27C410.608 1171.93 366.708 1188.5 348.485 1210.86" stroke="#FFDFAC" stroke-width="3"/>
<path d="M242.749 1213.55C259.577 1205.34 295.276 1184.46 303.45 1166.67C275.804 1179.49 219.07 1202.37 213.301 1191.31C206.089 1177.49 289.026 1146.24 303.45 1134.22C317.874 1122.2 334.101 1105.97 335.904 1089.75C324.685 1094.75 294.074 1102.85 261.38 1095.15C220.512 1085.54 190.462 1096.96 177.241 1110.18C164.019 1123.4 139.979 1140.23 141.181 1130.61C142.383 1121 189.862 1070.51 177.241 1038.66C170.438 1054.7 148.059 1088.46 112.96 1095.15C77.862 1101.85 64.909 1145.62 62.8198 1166.67C60.7306 1137.44 57.8058 1073.44 62.8198 1051.29C39.8402 1070.38 -4.41708 1129.55 2.39098 1213.55" stroke="#FFDFAC" stroke-width="3"/>
<path d="M385.556 1225.22C392.322 1220.08 411.536 1208.82 434.269 1204.93C462.684 1200.05 478.11 1179.76 492.723 1177.32C507.337 1174.89 572.688 1179.04 592.772 1166.68C612.856 1154.32 645.043 1140.93 666.415 1145.05C672.55 1138.74 686.096 1126.11 691.201 1126.11C688.061 1134.46 685.428 1152.71 700.012 1158.92C718.242 1166.68 762.415 1176.62 793.498 1177.32" stroke="#FFDFAC" stroke-width="3"/>
<path d="M795.13 687.58C779.425 690.676 746.82 697.666 742.042 700.852C736.07 704.833 763.277 718.769 768.586 718.769C773.895 718.769 750.005 734.695 742.042 734.695C734.079 734.695 694.263 749.958 694.263 755.267C694.263 760.576 722.134 755.267 727.443 755.267C732.752 755.267 713.507 789.774 706.208 794.419C698.908 799.065 678.336 811.673 686.3 816.318C692.67 820.034 698.687 822.291 700.899 822.954C701.341 826.494 700.633 834.368 694.263 837.554C686.3 841.535 668.648 865.69 679.292 860.224C686.474 856.536 694.263 855.471 694.263 869.406C694.263 883.342 682.318 896.614 677.673 901.259C673.957 904.975 687.184 907.232 694.263 907.895C698.687 913.425 706.207 926.343 700.899 933.776C694.263 943.066 685.632 954.209 689.848 960.322C693.588 958.523 706.002 954.01 708.07 958.329C710.655 963.728 708.888 992.792 703.286 1003.44C698.805 1011.95 710.942 1015.01 717.571 1015.48H726.954C733.516 1025.17 741.247 1029.58 741.247 1043.12C741.247 1048.55 738.413 1058.55 738.413 1073.04C741.483 1073.35 751.221 1068.17 756.048 1062.33C760.387 1065.93 768.613 1078.65 770.137 1089.32C772.042 1102.66 773.367 1116.49 792.262 1131.92" stroke="#FFDFAC" stroke-width="3"/>
</svg>
