<svg width="82" height="82" viewBox="0 0 82 82" fill="none" xmlns="http://www.w3.org/2000/svg">
<circle cx="41" cy="41" r="39.5" fill="#FB2516" stroke="url(#paint0_linear_144_66880)" stroke-width="3"/>
<path d="M54.7863 35.1538C54.653 34.9868 54.4915 35.0196 54.4069 35.0537C54.3359 35.0824 54.1734 35.1743 54.1959 35.4046C54.2229 35.6811 54.2381 35.963 54.241 36.2426C54.253 37.4024 53.7878 38.5387 52.9645 39.3601C52.1465 40.1761 51.0707 40.6158 49.9251 40.6031C48.3603 40.5831 47.0625 39.7669 46.1718 38.2428C45.4354 36.9825 45.7591 35.357 46.1018 33.636C46.3023 32.6286 46.5097 31.5869 46.5097 30.5955C46.5097 22.8759 41.3201 18.4223 38.2266 16.4546C38.1626 16.4139 38.1017 16.3997 38.0478 16.3997C37.9601 16.3997 37.8906 16.4375 37.8563 16.4607C37.7899 16.5056 37.6837 16.6081 37.7178 16.7896C38.9003 23.0685 35.3735 26.845 31.6396 30.8431C27.7908 34.9643 23.4286 39.6354 23.4286 48.0598C23.4286 57.8484 31.3921 65.8119 41.1807 65.8119C49.2403 65.8119 56.3463 60.1928 58.461 52.1474C59.903 46.6616 58.3919 39.6736 54.7863 35.1538ZM41.6236 62.0227C39.1725 62.1345 36.8415 61.2554 35.061 59.553C33.2996 57.8687 32.2894 55.5183 32.2894 53.1042C32.2894 48.5741 34.0215 45.2484 38.6803 40.8333C38.7566 40.7611 38.8346 40.7382 38.9027 40.7382C38.9643 40.7382 39.0178 40.757 39.0546 40.7747C39.1321 40.812 39.2595 40.9045 39.2423 41.1044C39.0757 43.0428 39.0786 44.6517 39.2508 45.8866C39.6908 49.041 42 51.1604 44.997 51.1604C46.4665 51.1604 47.8661 50.6074 48.9382 49.6032C49.0626 49.4866 49.2016 49.5015 49.2549 49.5128C49.3254 49.528 49.4199 49.5713 49.4694 49.6907C49.9139 50.7639 50.1411 51.9032 50.1446 53.0766C50.1588 57.7983 46.3363 61.8116 41.6236 62.0227Z" fill="#FAF5F0"/>
<defs>
<linearGradient id="paint0_linear_144_66880" x1="9.94519" y1="-5.38221" x2="28.5811" y2="88.7278" gradientUnits="userSpaceOnUse">
<stop stop-color="#E5B039"/>
<stop offset="0.47968" stop-color="#FFEBBD"/>
<stop offset="1" stop-color="#E5B039"/>
</linearGradient>
</defs>
</svg>
