<svg width="73" height="40" viewBox="0 0 73 40" fill="none" xmlns="http://www.w3.org/2000/svg">
<path d="M0.874687 9.36505H6.53341V27.7895L7.40324 21.2125V9.36505H9.08973V11.729H12.5207V8.50128H9.95956V6.96014H25.37L32.5582 6.14183H9.95956V0.818302H59.1966L72.7273 0H9.08973V6.14183H7.40324V2.414H5.41713V0.00909042H2.28882e-05V5.10077H2.56119V6.96014H6.52856V8.54674H2.28882e-05V40L0.870979 32.8421L0.874687 9.36505ZM11.6509 9.31959V10.9107H9.95956V9.31959H11.6509ZM0.874687 4.27337V0.818302H4.5473V2.414H2.56602V4.28246L0.874687 4.27337ZM4.5473 3.22776V4.27337H3.43584V3.22776H4.5473ZM3.43584 6.14183V5.09167H5.41713V3.22776H6.53341V6.14183H3.43584ZM7.40324 6.96014H9.08973V8.54674H7.40324V6.96014Z" fill="#C86B6C"/>
</svg>
