<svg width="73" height="40" viewBox="0 0 73 40" fill="none" xmlns="http://www.w3.org/2000/svg">
<path d="M72.1253 30.635H66.4666V12.2105L65.5968 18.7875V30.635H63.9103V28.271H60.4793V31.4987H63.0404V33.0399H47.63L40.4418 33.8582H63.0404V39.1817H13.8034L0.272705 40H63.9103V33.8582H65.5968V37.586H67.5829V39.9909H73V34.8992H70.4388V33.0399H66.4714V31.4533H73V0L72.129 7.15789L72.1253 30.635ZM61.3491 30.6804V29.0893H63.0404V30.6804H61.3491ZM72.1253 35.7266V39.1817H68.4527V37.586H70.434V35.7175L72.1253 35.7266ZM68.4527 36.7722V35.7266H69.5642V36.7722H68.4527ZM69.5642 33.8582V34.9083H67.5829V36.7722H66.4666V33.8582H69.5642ZM65.5968 33.0399H63.9103V31.4533H65.5968V33.0399Z" fill="#C86B6C"/>
</svg>
