<svg width="104" height="171" viewBox="0 0 104 171" fill="none" xmlns="http://www.w3.org/2000/svg">
<g id="Frame 1410102768" opacity="0.3" clip-path="url(#clip0_3013_27518)">
<path id="Vector" d="M11.35 101.156C11.1603 101.073 10.9887 100.954 10.8452 100.804C10.7018 100.655 10.5892 100.478 10.514 100.285L2.37298 79.2187C2.22365 78.8321 2.23389 78.4021 2.40146 78.023C2.56902 77.644 2.88021 77.347 3.26663 77.1973L24.3954 69.0324C24.7841 68.8832 25.2161 68.894 25.5969 69.0623C25.9776 69.2306 26.2763 69.5429 26.4275 69.9308L34.5792 91.0023C34.7285 91.3889 34.7183 91.8189 34.5507 92.1979C34.3832 92.577 34.072 92.8739 33.6856 93.0236L12.6141 101.175C12.4137 101.26 12.1977 101.303 11.98 101.299C11.7623 101.296 11.5478 101.247 11.35 101.156ZM5.85181 79.5485L12.8806 97.6943L31.0216 90.6762L24.0037 72.5352L5.85181 79.5485Z" fill="#D4C79C"/>
<path id="Vector_2" d="M25.3757 118.013C25.1741 117.932 24.9912 117.811 24.8381 117.658C24.6851 117.504 24.5652 117.32 24.4859 117.118L21.4016 109.122C21.2855 108.741 21.3177 108.331 21.4917 107.973C21.6658 107.616 21.9688 107.337 22.3399 107.193C22.711 107.05 23.1227 107.052 23.4922 107.199C23.8618 107.347 24.1618 107.629 24.332 107.988L27.4164 115.984C27.5656 116.373 27.5548 116.805 27.3865 117.186C27.2182 117.567 26.9059 117.865 26.518 118.016C26.1504 118.159 25.7424 118.158 25.3757 118.013Z" fill="#D4C79C"/>
<path id="Vector_3" d="M33.0505 115.044C32.6714 114.876 32.3746 114.564 32.2252 114.178L29.1301 106.177C29.014 105.796 29.0462 105.386 29.2202 105.028C29.3943 104.67 29.6973 104.392 30.0684 104.248C30.4395 104.105 30.8512 104.107 31.2208 104.254C31.5903 104.402 31.8903 104.684 32.0605 105.043L35.1449 113.039C35.2941 113.428 35.2834 113.86 35.115 114.241C34.9467 114.621 34.6344 114.92 34.2465 115.071C33.86 115.221 33.4298 115.211 33.0505 115.044Z" fill="#D4C79C"/>
<path id="Vector_4" d="M5.77451 66.3789C5.57291 66.2985 5.38994 66.1777 5.2369 66.0238C5.08385 65.8699 4.96397 65.6863 4.88471 65.4842L1.80037 57.4883C1.66561 57.1051 1.68528 56.6844 1.8553 56.3154C2.02532 55.9464 2.33232 55.658 2.71123 55.5115C3.09013 55.3649 3.51124 55.3716 3.88532 55.5301C4.25941 55.6886 4.55709 55.9865 4.71535 56.3606L7.81046 64.3613C7.92183 64.6496 7.94525 64.9645 7.87777 65.2661C7.81029 65.5677 7.65492 65.8426 7.4313 66.0559C7.20768 66.2693 6.92588 66.4116 6.62142 66.4648C6.31697 66.5181 6.00353 66.4799 5.72077 66.3551L5.77451 66.3789Z" fill="#D4C79C"/>
<path id="Vector_5" d="M13.4498 63.4093C13.0707 63.2415 12.7739 62.9299 12.6245 62.5432L9.52938 54.5425C9.39461 54.1592 9.41429 53.7386 9.5843 53.3696C9.75432 53.0006 10.0613 52.7123 10.4402 52.5657C10.8191 52.4191 11.2402 52.4258 11.6143 52.5843C11.9884 52.7428 12.2861 53.0406 12.4444 53.4148L15.5442 61.4047C15.6934 61.7934 15.6826 62.2254 15.5143 62.6061C15.3459 62.9869 15.0337 63.2856 14.6458 63.4368C14.2593 63.5866 13.829 63.5767 13.4498 63.4093Z" fill="#D4C79C"/>
<path id="Vector_6" d="M41.1669 82.2958C40.8745 82.1782 40.624 81.9757 40.4479 81.7143C40.2718 81.4529 40.1781 81.1447 40.179 80.8295C40.1799 80.5143 40.2754 80.2066 40.4531 79.9463C40.6307 79.6859 40.8824 79.4848 41.1755 79.369L49.1715 76.2847C49.3632 76.2099 49.5677 76.1737 49.7734 76.178C49.9792 76.1823 50.1821 76.2271 50.3705 76.3098C50.5589 76.3925 50.7291 76.5114 50.8716 76.66C51.014 76.8085 51.1258 76.9836 51.2006 77.1753C51.2753 77.367 51.3115 77.5716 51.3072 77.7773C51.3029 77.983 51.2582 78.1859 51.1755 78.3743C51.0928 78.5627 50.9738 78.733 50.8253 78.8754C50.6767 79.0179 50.5016 79.1296 50.3099 79.2044L42.3092 82.2995C41.9416 82.4424 41.5336 82.441 41.1669 82.2958Z" fill="#D4C79C"/>
<path id="Vector_7" d="M38.1977 74.6204C37.9147 74.494 37.6752 74.2869 37.5094 74.0251C37.3435 73.7632 37.2585 73.4582 37.2652 73.1483C37.2718 72.8383 37.3698 72.5373 37.5468 72.2827C37.7237 72.0282 37.9719 71.8316 38.2601 71.7175L46.2608 68.6223C46.4565 68.5297 46.6692 68.4784 46.8857 68.4716C47.1021 68.4649 47.3176 68.5028 47.5188 68.5831C47.7199 68.6634 47.9022 68.7843 48.0546 68.9382C48.2069 69.0921 48.3258 69.2758 48.4039 69.4778C48.482 69.6797 48.5177 69.8956 48.5086 70.112C48.4996 70.3283 48.446 70.5405 48.3513 70.7353C48.2566 70.93 48.1227 71.1031 47.9581 71.2437C47.7934 71.3844 47.6016 71.4896 47.3945 71.5528L39.3938 74.6479C39.0072 74.7977 38.577 74.7878 38.1977 74.6204Z" fill="#D4C79C"/>
<path id="Vector_8" d="M-10.4677 101.896C-10.7503 101.771 -10.9894 101.565 -11.1549 101.304C-11.3204 101.043 -11.4049 100.739 -11.3976 100.43C-11.3902 100.121 -11.2915 99.8208 -11.1138 99.5679C-10.9362 99.315 -10.6875 99.1204 -10.3993 99.0088L-2.39862 95.9137C-2.01535 95.7789 -1.59466 95.7986 -1.22567 95.9686C-0.856684 96.1386 -0.56841 96.4456 -0.421827 96.8245C-0.275242 97.2034 -0.2819 97.6245 -0.440398 97.9986C-0.598896 98.3727 -0.896747 98.6704 -1.27093 98.8287L-9.26086 101.929C-9.45412 102.003 -9.66035 102.039 -9.86752 102.034C-10.0747 102.028 -10.2787 101.981 -10.4677 101.896Z" fill="#D4C79C"/>
<path id="Vector_9" d="M-7.48471 144.05C-19.1107 138.91 -28.9514 130.438 -35.7622 119.705C-42.573 108.972 -46.0481 96.4608 -45.7479 83.7528C-45.4477 71.0448 -41.3857 58.7112 -34.0757 48.3119C-26.7657 37.9125 -16.536 29.9145 -4.68025 25.3292C7.17549 20.7439 20.1247 19.7774 32.5297 22.5519C44.9348 25.3264 56.2385 31.7172 65.0113 40.9162C73.7841 50.1152 79.6319 61.7091 81.8153 74.2317C83.9986 86.7543 82.4195 99.6432 77.2774 111.268C70.3684 126.842 57.5645 139.039 41.6743 145.185C25.7841 151.33 8.10511 150.922 -7.48471 144.05ZM43.2154 29.3722C32.1576 24.4834 19.8985 22.9835 7.98823 25.0621C-3.92201 27.1406 -14.9484 32.7042 -23.6966 41.0495C-32.4449 49.3947 -38.522 60.1467 -41.1595 71.9457C-43.797 83.7448 -42.8765 96.061 -38.5143 107.337C-34.1521 118.613 -26.5442 128.342 -16.6527 135.294C-6.76113 142.246 4.96984 146.109 17.0567 146.394C29.1436 146.679 41.0436 143.373 51.2518 136.895C61.46 130.417 69.5179 121.057 74.4067 109.999C80.9428 95.1688 81.3296 78.3514 75.4821 63.2362C69.6347 48.1211 58.0306 35.9425 43.2154 29.3722Z" fill="#D4C79C"/>
<path id="Vector_10" d="M-1.80949 131.213C-10.8965 127.195 -18.588 120.573 -23.9113 112.184C-29.2346 103.795 -31.9507 94.016 -31.716 84.0834C-31.4812 74.1507 -28.3061 64.5108 -22.5924 56.3827C-16.8787 48.2545 -8.88295 42.0034 0.383677 38.4198C9.6503 34.8361 19.7715 34.081 29.4673 36.2498C39.1631 38.4187 47.998 43.4141 54.8546 50.6044C61.7113 57.7946 66.2816 66.8567 67.9877 76.6446C69.6938 86.4324 68.4589 96.5064 64.4394 105.592C59.0406 117.765 49.0332 127.3 36.6132 132.103C24.1931 136.906 10.3748 136.586 -1.80949 131.213ZM37.5394 42.2095C29.0207 38.4433 19.5764 37.2878 10.4009 38.8891C1.22547 40.4903 -7.26909 44.7765 -14.0086 51.2055C-20.7481 57.6346 -25.4298 65.9177 -27.4617 75.0075C-29.4936 84.0973 -28.7845 93.5855 -25.4239 102.272C-22.0634 110.959 -16.2023 118.454 -8.58201 123.81C-0.961705 129.166 8.07566 132.142 17.3872 132.361C26.6988 132.581 35.8663 130.034 43.7306 125.043C51.5948 120.053 57.8026 112.842 61.5688 104.323C66.6061 92.8985 66.905 79.9418 62.4 68.2968C57.895 56.6517 48.9542 47.2696 37.5394 42.2095Z" fill="#D4C79C"/>
</g>
<defs>
<clipPath id="clip0_3013_27518">
<rect width="128.536" height="128.536" fill="white" transform="translate(-14.2905 0.503662) rotate(23.8506)"/>
</clipPath>
</defs>
</svg>
