<svg width="80" height="219" viewBox="0 0 80 219" fill="none" xmlns="http://www.w3.org/2000/svg">
<g id="Group 369995" opacity="0.3">
<path id="Vector" d="M90.4286 40.2702H40.3496C40.0001 40.2728 39.6536 40.2059 39.3302 40.0734C39.0068 39.9409 38.713 39.7454 38.4658 39.4983C38.2187 39.2511 38.0232 38.9573 37.8907 38.6339C37.7581 38.3105 37.6913 37.964 37.6939 37.6145V21.5005C37.6913 21.151 37.7581 20.8045 37.8907 20.4811C38.0232 20.1577 38.2187 19.8639 38.4658 19.6167C38.713 19.3696 39.0068 19.1741 39.3302 19.0416C39.6536 18.909 40.0001 18.8421 40.3496 18.8448H90.4286C90.7781 18.8421 91.1246 18.909 91.448 19.0416C91.7714 19.1741 92.0653 19.3696 92.3124 19.6167C92.5596 19.8639 92.7551 20.1577 92.8876 20.4811C93.0201 20.8045 93.087 21.151 93.0843 21.5005V37.6145C93.087 37.964 93.0201 38.3105 92.8876 38.6339C92.7551 38.9573 92.5596 39.2511 92.3124 39.4983C92.0653 39.7454 91.7714 39.9409 91.448 40.0734C91.1246 40.2059 90.7781 40.2728 90.4286 40.2702ZM43.0053 34.9588H87.7729V24.1562H43.0053V34.9588Z" fill="#D4C79C"/>
<path id="Vector_2" d="M90.4286 171.439H40.3496C40.0001 171.442 39.6536 171.375 39.3302 171.242C39.0068 171.11 38.713 170.914 38.4658 170.667C38.2187 170.42 38.0232 170.126 37.8907 169.803C37.7581 169.48 37.6913 169.133 37.6939 168.783V152.669C37.6913 152.319 37.758 151.972 37.8903 151.647C38.0226 151.323 38.2178 151.027 38.4646 150.779C38.7115 150.53 39.0052 150.333 39.3287 150.198C39.6522 150.063 39.9992 149.994 40.3496 149.994H90.4286C90.7791 149.994 91.126 150.063 91.4496 150.198C91.7731 150.333 92.0667 150.53 92.3136 150.779C92.5604 151.027 92.7556 151.323 92.8879 151.647C93.0202 151.972 93.0869 152.319 93.0843 152.669V168.783C93.087 169.133 93.0201 169.48 92.8876 169.803C92.7551 170.126 92.5596 170.42 92.3124 170.667C92.0653 170.914 91.7714 171.11 91.448 171.242C91.1246 171.375 90.7781 171.442 90.4286 171.439ZM43.0053 166.068H87.7729V155.265H43.0053V166.068Z" fill="#D4C79C"/>
<path id="Vector_3" d="M65.3891 24.0773C64.6848 24.0773 64.0093 23.7975 63.5113 23.2995C63.0132 22.8014 62.7334 22.1259 62.7334 21.4216V2.99137C62.7334 2.28703 63.0132 1.61159 63.5113 1.11355C64.0093 0.615508 64.6848 0.335693 65.3891 0.335693C66.0934 0.335693 66.7689 0.615508 67.267 1.11355C67.765 1.61159 68.0448 2.28703 68.0448 2.99137V21.4216C68.0448 22.1259 67.765 22.8014 67.267 23.2995C66.7689 23.7975 66.0934 24.0773 65.3891 24.0773Z" fill="#D4C79C"/>
<path id="Vector_4" d="M65.3892 187.553C65.0397 187.556 64.6931 187.489 64.3697 187.357C64.0463 187.224 63.7525 187.029 63.5054 186.782C63.2583 186.534 63.0627 186.241 62.9302 185.917C62.7977 185.594 62.7308 185.247 62.7335 184.898V168.784C62.7335 168.079 63.0133 167.404 63.5113 166.906C64.0094 166.408 64.6848 166.128 65.3892 166.128C66.0935 166.128 66.769 166.408 67.267 166.906C67.7651 167.404 68.0449 168.079 68.0449 168.784V184.898C68.0475 185.247 67.9807 185.594 67.8482 185.917C67.7156 186.241 67.5201 186.534 67.273 186.782C67.0258 187.029 66.732 187.224 66.4086 187.357C66.0852 187.489 65.7387 187.556 65.3892 187.553Z" fill="#D4C79C"/>
<path id="Vector_5" d="M65.3895 204.545C63.1819 204.545 61.0238 203.891 59.1882 202.664C57.3527 201.438 55.922 199.694 55.0772 197.655C54.2324 195.615 54.0113 193.371 54.442 191.206C54.8727 189.04 55.9358 187.052 57.4968 185.491C59.0578 183.93 61.0467 182.866 63.2119 182.436C65.3771 182.005 67.6214 182.226 69.661 183.071C71.7006 183.916 73.4438 185.346 74.6703 187.182C75.8968 189.017 76.5514 191.176 76.5514 193.383C76.5462 196.342 75.3685 199.178 73.2764 201.27C71.1842 203.362 68.3482 204.54 65.3895 204.545ZM65.3895 187.553C64.2363 187.553 63.109 187.895 62.1502 188.535C61.1914 189.176 60.4441 190.087 60.0028 191.152C59.5615 192.217 59.446 193.39 59.671 194.521C59.8959 195.652 60.4512 196.691 61.2666 197.506C62.0821 198.321 63.121 198.877 64.252 199.102C65.383 199.327 66.5553 199.211 67.6207 198.77C68.6861 198.329 69.5968 197.581 70.2374 196.622C70.8781 195.664 71.2201 194.536 71.2201 193.383C71.2148 191.838 70.5988 190.358 69.5065 189.266C68.4142 188.174 66.9342 187.558 65.3895 187.553Z" fill="#D4C79C"/>
<path id="Vector_6" d="M65.3892 218.643C65.0397 218.646 64.6931 218.579 64.3697 218.446C64.0463 218.314 63.7525 218.118 63.5054 217.871C63.2583 217.624 63.0627 217.33 62.9302 217.007C62.7977 216.684 62.7308 216.337 62.7335 215.988V201.89C62.7335 201.186 63.0133 200.511 63.5113 200.013C64.0094 199.514 64.6848 199.235 65.3892 199.235C66.0935 199.235 66.769 199.514 67.267 200.013C67.7651 200.511 68.0449 201.186 68.0449 201.89V215.988C68.0475 216.337 67.9807 216.684 67.8482 217.007C67.7156 217.33 67.5201 217.624 67.273 217.871C67.0258 218.118 66.732 218.314 66.4086 218.446C66.0852 218.579 65.7387 218.646 65.3892 218.643Z" fill="#D4C79C"/>
<path id="Vector_7" d="M65.3891 155.325C64.6848 155.325 64.0093 155.045 63.5113 154.547C63.0132 154.049 62.7334 153.373 62.7334 152.669V37.5351C62.7334 36.8308 63.0132 36.1553 63.5113 35.6573C64.0093 35.1592 64.6848 34.8794 65.3891 34.8794C66.0934 34.8794 66.7689 35.1592 67.267 35.6573C67.765 36.1553 68.0448 36.8308 68.0448 37.5351V152.669C68.0448 153.373 67.765 154.049 67.267 154.547C66.7689 155.045 66.0934 155.325 65.3891 155.325Z" fill="#D4C79C"/>
<path id="Vector_8" d="M40.3495 155.885C39.9708 155.882 39.5968 155.8 39.2513 155.645C27.7381 150.259 17.9993 141.701 11.1765 130.977C4.35379 120.252 0.72998 107.804 0.72998 95.0932C0.72998 82.3822 4.35379 69.9347 11.1765 59.21C17.9993 48.4852 27.7381 39.9279 39.2513 34.5412C39.8947 34.2499 40.6275 34.2262 41.2884 34.4752C41.9494 34.7242 42.4843 35.2256 42.7756 35.8691C43.0669 36.5125 43.0906 37.2452 42.8415 37.9062C42.5925 38.5671 42.0912 39.1021 41.4477 39.3933C30.8666 44.3594 21.9185 52.2361 15.6505 62.102C9.38246 71.9678 6.05371 83.4146 6.05371 95.1032C6.05371 106.792 9.38246 118.239 15.6505 128.104C21.9185 137.97 30.8666 145.847 41.4477 150.813C41.999 151.065 42.4478 151.497 42.7194 152.039C42.991 152.581 43.0692 153.199 42.9409 153.791C42.8127 154.383 42.4857 154.914 42.0143 155.295C41.543 155.676 40.9555 155.884 40.3495 155.885Z" fill="#D4C79C"/>
<path id="Vector_9" d="M52.8694 155.326C52.4854 155.318 52.1077 155.227 51.7628 155.058C51.4179 154.889 51.1141 154.646 50.8727 154.348C50.4733 153.888 12.335 106.106 50.5931 36.2585C50.9321 35.6389 51.5033 35.1793 52.181 34.9808C52.8588 34.7824 53.5877 34.8613 54.2073 35.2002C54.8269 35.5391 55.2865 36.1103 55.4849 36.7881C55.6834 37.4659 55.6045 38.1948 55.2656 38.8144C18.7846 105.387 54.6266 150.634 54.986 150.973C55.4338 151.519 55.6474 152.221 55.5801 152.924C55.5127 153.627 55.17 154.275 54.6266 154.727C54.1294 155.127 53.5073 155.339 52.8694 155.326Z" fill="#D4C79C"/>
<path id="Vector_10" d="M77.909 155.326C77.2916 155.325 76.693 155.114 76.2117 154.727C75.6684 154.275 75.3256 153.627 75.2583 152.924C75.191 152.221 75.4045 151.519 75.8523 150.973C76.2118 150.534 112.054 105.387 75.5728 38.8144C75.405 38.5076 75.2992 38.1707 75.2616 37.823C75.2239 37.4754 75.2552 37.1237 75.3534 36.7881C75.4517 36.4525 75.6151 36.1396 75.8343 35.8671C76.0535 35.5946 76.3243 35.368 76.6311 35.2002C76.9379 35.0324 77.2747 34.9266 77.6224 34.889C77.9701 34.8514 78.3217 34.8826 78.6573 34.9808C78.9929 35.0791 79.3059 35.2425 79.5783 35.4617C79.8508 35.681 80.0774 35.9517 80.2452 36.2585C118.503 106.145 80.365 153.888 79.9657 154.348C79.7178 154.654 79.4044 154.901 79.0485 155.07C78.6926 155.24 78.3031 155.327 77.909 155.326Z" fill="#D4C79C"/>
<path id="Vector_11" d="M53.888 218.642C53.2689 218.651 52.6669 218.439 52.1907 218.043C51.6457 217.598 51.2996 216.955 51.2285 216.255C51.1573 215.555 51.367 214.855 51.8113 214.309L63.3327 200.192C63.7802 199.647 64.4261 199.301 65.1282 199.232C65.8303 199.163 66.5312 199.375 67.0767 199.823C67.6221 200.27 67.9675 200.916 68.0367 201.618C68.106 202.32 67.8936 203.021 67.4461 203.567L55.9447 217.664C55.6968 217.97 55.3834 218.217 55.0275 218.386C54.6715 218.556 54.2822 218.643 53.888 218.642Z" fill="#D4C79C"/>
<path id="Vector_12" d="M76.8903 218.642C76.5063 218.634 76.1286 218.543 75.7837 218.374C75.4388 218.205 75.1349 217.962 74.8935 217.664L63.3921 203.567C63.1705 203.296 63.0043 202.985 62.903 202.651C62.8016 202.317 62.7671 201.966 62.8014 201.618C62.8357 201.27 62.9382 200.933 63.1029 200.625C63.2676 200.317 63.4914 200.044 63.7615 199.823C64.0316 199.601 64.3427 199.435 64.677 199.333C65.0113 199.232 65.3623 199.198 65.71 199.232C66.0577 199.266 66.3952 199.369 66.7032 199.533C67.0113 199.698 67.2839 199.922 67.5055 200.192L79.0268 214.309C79.4712 214.855 79.6809 215.555 79.6097 216.255C79.5386 216.955 79.1925 217.598 78.6475 218.043C78.1556 218.453 77.5298 218.666 76.8903 218.642Z" fill="#D4C79C"/>
</g>
</svg>
