<svg width="14" height="14" viewBox="0 0 14 14" fill="none" xmlns="http://www.w3.org/2000/svg">
<g id="Frame">
<g id="Layer 2">
<path id="Vector" d="M12.1339 5.88578C11.9778 5.72862 11.8898 5.51636 11.8889 5.29486V4.54995C11.8883 4.09668 11.7079 3.66216 11.3874 3.34165C11.0669 3.02115 10.6324 2.84081 10.1791 2.8402H9.43538C9.21423 2.83951 9.00222 2.75193 8.84505 2.59636L8.20921 1.95995C7.88837 1.63992 7.45371 1.46021 7.00055 1.46021C6.54738 1.46021 6.11272 1.63992 5.79188 1.95995L5.15663 2.59636C4.99946 2.75245 4.78721 2.84045 4.56571 2.84136H3.82079C3.36773 2.84198 2.93338 3.02215 2.61291 3.34241C2.29244 3.66266 2.11197 4.09689 2.11104 4.54995V5.29486C2.11035 5.51601 2.02278 5.72802 1.86721 5.8852L1.23021 6.52103C0.910187 6.84187 0.730469 7.27654 0.730469 7.7297C0.730469 8.18286 0.910187 8.61752 1.23021 8.93836L1.86721 9.57361C2.0233 9.73078 2.1113 9.94303 2.11221 10.1645V10.9094C2.11283 11.3627 2.29316 11.7972 2.61367 12.1177C2.93417 12.4382 3.3687 12.6186 3.82196 12.6192H4.56571C4.78694 12.62 4.99897 12.7078 5.15604 12.8636L5.79188 13.5C6.11264 13.8202 6.54734 14 7.00055 14C7.45375 14 7.88844 13.8202 8.20921 13.5L8.84446 12.8642C9.00163 12.7081 9.21388 12.6201 9.43538 12.6192H10.1803C10.6336 12.6186 11.0681 12.4382 11.3886 12.1177C11.7091 11.7972 11.8894 11.3627 11.89 10.9094V10.1645C11.8909 9.94318 11.9789 9.73108 12.135 9.5742L12.7709 8.93836C13.0909 8.61752 13.2706 8.18286 13.2706 7.7297C13.2706 7.27654 13.0909 6.84187 12.7709 6.52103L12.1339 5.88578Z" fill="#EF232C"/>
<path id="Vector_2" d="M6.41747 9.33414C6.36001 9.33428 6.30309 9.32301 6.25002 9.30098C6.19695 9.27895 6.14878 9.2466 6.10831 9.20581L4.94164 8.03914C4.86436 7.9562 4.82229 7.84651 4.82429 7.73317C4.82629 7.61983 4.8722 7.51168 4.95236 7.43153C5.03252 7.35137 5.14066 7.30545 5.254 7.30345C5.36734 7.30145 5.47704 7.34353 5.55997 7.42081L6.41747 8.27772L8.44164 6.25414C8.52457 6.17686 8.63427 6.13479 8.74761 6.13679C8.86095 6.13879 8.96909 6.1847 9.04925 6.26486C9.12941 6.34502 9.17533 6.45316 9.17733 6.5665C9.17933 6.67984 9.13725 6.78954 9.05997 6.87247L6.72664 9.20581C6.68617 9.2466 6.638 9.27895 6.58493 9.30098C6.53185 9.32301 6.47494 9.33428 6.41747 9.33414Z" fill="#F2F2F2"/>
</g>
</g>
</svg>
