<svg width="20" height="21" viewBox="0 0 20 21" fill="none" xmlns="http://www.w3.org/2000/svg">
<path id="Vector" fill-rule="evenodd" clip-rule="evenodd" d="M20 10.5767C20 16.0995 15.5228 20.5767 10 20.5767C4.47715 20.5767 0 16.0995 0 10.5767C0 5.05381 4.47715 0.57666 10 0.57666C15.5228 0.57666 20 5.05381 20 10.5767ZM6.96963 7.54631C7.26252 7.25342 7.73739 7.25342 8.03029 7.54631L9.99997 9.51599L11.9696 7.54633C12.2625 7.25344 12.7374 7.25344 13.0303 7.54633C13.3232 7.83922 13.3232 8.3141 13.0303 8.60699L11.0606 10.5767L13.0303 12.5463C13.3232 12.8392 13.3232 13.3141 13.0303 13.607C12.7374 13.8998 12.2625 13.8998 11.9696 13.607L9.99997 11.6373L8.03031 13.607C7.73742 13.8999 7.26254 13.8999 6.96965 13.607C6.67676 13.3141 6.67676 12.8392 6.96965 12.5463L8.93931 10.5767L6.96963 8.60697C6.67673 8.31408 6.67673 7.8392 6.96963 7.54631Z" fill="#D4C79C"/>
</svg>
