<svg width="48" height="27" viewBox="0 0 48 27" fill="none" xmlns="http://www.w3.org/2000/svg">
<g id="corner">
<path d="M-3.38524e-07 4.41525L4.41525 4.41525L4.41525 2.84172e-05L-5.3152e-07 2.86102e-05L-3.38524e-07 4.41525ZM3.92162 0.493656L3.92162 3.9326L0.49363 3.9326L0.49363 0.504625L3.92162 0.493656Z" fill="#A08B8B"/>
<path d="M1.0805 1.08054L1.0805 3.33477L3.33475 3.33477L3.33475 1.08054L1.0805 1.08054ZM2.84112 1.57417L2.84112 2.83566L1.57413 2.83566L1.57413 1.57417L2.84112 1.57417Z" fill="#A08B8B"/>
<path d="M3.35943 8.63035L3.35943 5.88249L1.08324 5.88249L1.08324 7.61841L2.47912 7.61841L2.47912 7.12479L1.57687 7.12479L1.57687 6.37886L2.8658 6.37886L2.8658 8.13672L0.49363 8.13672L0.49363 5.35596L3.92162 5.35595L3.92162 9.26932L-1.26346e-07 9.26932L0 26.4475L0.49363 9.76295L4.41525 9.76295L4.41525 4.86233L-3.18982e-07 4.86233L-1.54277e-07 8.63035L3.35943 8.63035Z" fill="#A08B8B"/>
<path d="M9.76291 4.41525L9.76291 0.493656L47.1191 3.03653e-05L9.26928 2.82051e-05L9.26928 3.92163L5.35314 3.92163L5.35314 0.493656L8.13667 0.493656L8.13667 2.86581L6.37606 2.86581L6.37606 1.5769L7.12473 1.5769L7.12473 2.47914L7.61562 2.47914L7.61562 1.08327L5.88243 1.08327L5.88243 3.35944L8.6303 3.35944L8.6303 2.8233e-05L4.86225 2.83977e-05L4.86226 4.41525L9.76291 4.41525Z" fill="#A08B8B"/>
</g>
</svg>
