<svg width="14" height="14" viewBox="0 0 14 14" fill="none" xmlns="http://www.w3.org/2000/svg">
<g id="elemental">
<path id="Vector" fill-rule="evenodd" clip-rule="evenodd" d="M7.48222 0.928982C7.406 0.983412 7.31198 1.05603 7.27332 1.09035C7.23465 1.12467 7.14376 1.20411 7.0713 1.26686C6.89925 1.41597 6.56723 1.76608 6.40486 1.96964C5.84181 2.67552 5.59466 3.36351 5.66487 4.02949C5.7153 4.50759 5.80786 4.83984 5.99802 5.22528C6.19024 5.61494 6.37808 5.8502 6.94153 6.40715C7.60541 7.06333 7.7387 7.2491 7.80272 7.60747C7.82707 7.74385 7.82554 7.78968 7.79203 7.92552C7.73322 8.16386 7.711 8.17317 7.58964 8.01016C7.43236 7.79893 6.85937 7.24191 6.53517 6.98506C5.74824 6.36165 5.38777 5.85685 5.2199 5.14324C5.18482 4.99413 5.17783 4.39608 5.20813 4.13704L5.2285 3.96301L5.16066 4.0192C4.88422 4.24824 4.56815 4.74432 4.45944 5.1198C4.39139 5.35489 4.39641 5.82408 4.46947 6.05685C4.64677 6.62168 4.94981 6.97726 6.03136 7.88956C6.90162 8.62361 7.22429 9.00026 7.53903 9.64939C7.62488 9.82644 7.70723 9.97149 7.72201 9.9717C7.77371 9.97242 8.20195 9.49491 8.35262 9.26849C8.51518 9.02421 8.66213 8.71079 8.7411 8.43983C8.81611 8.18252 8.82773 7.66204 8.76484 7.37761C8.63963 6.81144 8.42866 6.47883 7.80117 5.85819C7.14436 5.20857 6.88789 4.84245 6.70914 4.29937C6.65114 4.12314 6.6435 4.06491 6.6429 3.79539C6.64231 3.5249 6.64908 3.47162 6.70333 3.32122C6.73696 3.22802 6.79432 3.10144 6.83083 3.03993L6.89722 2.92807L6.92672 3.15076C6.95824 3.3885 7.05708 3.70387 7.17253 3.93495C7.35409 4.29845 7.48511 4.45619 8.18585 5.15496C8.9048 5.8719 9.04496 6.04028 9.25173 6.43549C9.67671 7.24779 9.66036 8.2874 9.20885 9.16336C8.96149 9.64324 8.62667 10.0756 8.24345 10.4101C8.04204 10.5859 7.98149 10.6519 8.02165 10.6519C8.02725 10.6519 8.10747 10.6359 8.19993 10.6165C9.06933 10.4336 9.83704 9.83764 10.2532 9.02272C10.8452 7.86368 10.6916 6.68247 9.79238 5.47702C9.64133 5.27456 9.25403 4.87435 8.6413 4.28765C8.18494 3.85068 7.95705 3.4915 7.766 2.90805C7.59592 2.38865 7.53518 1.67808 7.61087 1.09269C7.62805 0.959924 7.6373 0.846493 7.63145 0.840657C7.62561 0.83482 7.55845 0.874576 7.48222 0.928982ZM3.80388 5.75856C3.66044 5.9483 3.50199 6.27769 3.4402 6.51453C3.36755 6.79294 3.3721 7.18846 3.45144 7.49624C3.52556 7.78374 3.71575 8.17296 3.92817 8.47185C4.1188 8.74011 4.55817 9.18779 4.89485 9.45679C5.03018 9.56493 5.14618 9.65918 5.15262 9.66629C5.15906 9.67336 5.26978 9.77032 5.39867 9.88175C5.65289 10.1016 6.20524 10.6581 6.43094 10.9219C7.08902 11.691 7.40267 12.3741 7.37528 12.9784C7.36989 13.0976 7.37572 13.1601 7.39226 13.1601C7.43437 13.16 7.51051 13.0622 7.58385 12.9139C8.11792 11.8344 7.63601 10.4279 6.28657 9.12773C6.14581 8.99208 5.81988 8.69738 5.56232 8.47281C4.43341 7.48853 4.11596 7.08635 3.97011 6.45572C3.92725 6.2704 3.91357 5.88207 3.94392 5.71168C3.95509 5.64888 3.95296 5.61206 3.93815 5.61206C3.92522 5.61206 3.8648 5.678 3.80388 5.75856Z" fill="#EF232C"/>
</g>
</svg>
