<svg width="18" height="20" viewBox="0 0 18 20" fill="none" xmlns="http://www.w3.org/2000/svg">
<g id="Frame 1410102767">
<path id="Vector" d="M6.40794 16.2481C6.37509 16.2472 6.34272 16.2391 6.31269 16.2243C6.26064 16.1959 6.22076 16.1458 6.2017 16.0848C6.18263 16.0238 6.18593 15.957 6.21087 15.8987L8.03203 11.6766C8.04432 11.6476 8.06168 11.6215 8.08311 11.6001C8.10453 11.5786 8.12959 11.5621 8.15681 11.5515C8.18403 11.541 8.21286 11.5366 8.24163 11.5386C8.27039 11.5406 8.29851 11.5489 8.32434 11.5632C8.35018 11.5774 8.37325 11.5971 8.39221 11.6213C8.41117 11.6455 8.42564 11.6736 8.4348 11.7041C8.44396 11.7345 8.44762 11.7667 8.44557 11.7987C8.44353 11.8307 8.43581 11.8619 8.42287 11.8906L6.60171 16.1109C6.58403 16.1515 6.55654 16.1859 6.52231 16.2101C6.48809 16.2344 6.44848 16.2475 6.40794 16.2481Z" fill="#FFDFAC"/>
<path id="Vector_2" d="M9.78923 8.41494C9.75219 8.41503 9.71574 8.40463 9.68329 8.38471C9.65085 8.36479 9.62349 8.33601 9.60378 8.30107C9.58408 8.26613 9.57267 8.22618 9.57064 8.18498C9.56861 8.14377 9.57602 8.10267 9.59218 8.06554L11.3887 3.90017C11.4012 3.87134 11.4187 3.84553 11.4402 3.82423C11.4616 3.80293 11.4866 3.78655 11.5138 3.77602C11.5409 3.76549 11.5696 3.76101 11.5983 3.76285C11.627 3.7647 11.6551 3.77281 11.681 3.78675C11.7069 3.80068 11.73 3.82016 11.7492 3.84406C11.7683 3.86796 11.783 3.89583 11.7925 3.92607C11.8019 3.95631 11.8059 3.98832 11.8043 4.02028C11.8026 4.05225 11.7953 4.08353 11.7828 4.11236L9.98629 8.26859C9.96956 8.31151 9.94207 8.34815 9.90712 8.3741C9.87217 8.40006 9.83123 8.41424 9.78923 8.41494Z" fill="#FFDFAC"/>
<path id="Vector_3" d="M14.3855 13.1292C14.3526 13.1294 14.32 13.1213 14.2903 13.1054L10.5002 11.0767C10.4481 11.0483 10.4083 10.9982 10.3892 10.9372C10.3701 10.8762 10.3734 10.8094 10.3984 10.7511C10.4105 10.7219 10.4278 10.6957 10.4491 10.674C10.4705 10.6524 10.4955 10.6357 10.5227 10.6249C10.55 10.6142 10.5789 10.6096 10.6077 10.6115C10.6365 10.6134 10.6648 10.6217 10.6907 10.6358L14.4808 12.6646C14.525 12.689 14.5606 12.7294 14.5817 12.7791C14.6029 12.8288 14.6084 12.885 14.5974 12.9387C14.5864 12.9923 14.5596 13.0403 14.5211 13.0748C14.4827 13.1094 14.4349 13.1286 14.3855 13.1292Z" fill="#FFDFAC"/>
<path id="Vector_4" d="M7.3451 9.36071C7.31267 9.36093 7.28064 9.35279 7.2515 9.33692L3.5123 7.33564C3.46003 7.3075 3.41994 7.25739 3.40085 7.19632C3.38176 7.13526 3.38522 7.06825 3.41048 7.01003C3.43574 6.95181 3.48073 6.90715 3.53555 6.88588C3.59037 6.86461 3.65052 6.86847 3.70279 6.89661L7.43707 8.89606C7.4813 8.92054 7.51686 8.96089 7.53802 9.01061C7.55917 9.06033 7.56469 9.11653 7.5537 9.17017C7.5427 9.22381 7.51583 9.27177 7.47739 9.30633C7.43896 9.34089 7.39121 9.36004 7.34182 9.36071H7.3451Z" fill="#FFDFAC"/>
<path id="Vector_5" d="M0.685637 13.8041C0.633907 13.8052 0.583489 13.7859 0.543371 13.7495C0.503253 13.7131 0.476039 13.662 0.466575 13.6054C0.457112 13.5487 0.466016 13.4901 0.491698 13.4401C0.51738 13.39 0.558173 13.3518 0.606812 13.3321L7.23458 10.493C7.2888 10.4688 7.34946 10.4695 7.4032 10.4951C7.45694 10.5206 7.49937 10.5689 7.52114 10.6293C7.54292 10.6897 7.54226 10.7573 7.51932 10.8171C7.49637 10.877 7.45302 10.9243 7.3988 10.9485L0.771028 13.7876C0.743913 13.7997 0.714822 13.8053 0.685637 13.8041Z" fill="#FFDFAC"/>
<path id="Vector_6" d="M10.6787 9.52346C10.6345 9.5237 10.5914 9.50895 10.555 9.48117C10.5187 9.45338 10.4907 9.41389 10.475 9.36797C10.4546 9.30729 10.4564 9.2401 10.4801 9.1809C10.5037 9.12169 10.5473 9.07521 10.6015 9.05149L17.2309 6.2197C17.2852 6.19752 17.3451 6.19983 17.3978 6.22614C17.4506 6.25246 17.492 6.3007 17.5133 6.36056C17.5236 6.39047 17.5285 6.42233 17.5278 6.45435C17.527 6.48637 17.5205 6.5179 17.5088 6.54714C17.497 6.57637 17.4802 6.60272 17.4593 6.6247C17.4384 6.64668 17.4138 6.66384 17.3869 6.6752L10.7575 9.51249C10.732 9.52136 10.7053 9.52508 10.6787 9.52346Z" fill="#FFDFAC"/>
<path id="Vector_7" d="M12.1994 19.5026C12.1551 19.5027 12.1118 19.4879 12.0752 19.4601C12.0386 19.4324 12.0103 19.393 11.9941 19.3471L9.43234 11.92C9.4221 11.8901 9.41725 11.8582 9.41806 11.8262C9.41887 11.7942 9.42533 11.7627 9.43707 11.7335C9.44881 11.7043 9.4656 11.678 9.48649 11.656C9.50737 11.634 9.53194 11.6168 9.55879 11.6054C9.58564 11.594 9.61424 11.5885 9.64297 11.5895C9.67169 11.5904 9.69998 11.5976 9.72621 11.6106C9.75244 11.6237 9.77609 11.6424 9.79583 11.6657C9.81557 11.689 9.831 11.7163 9.84125 11.7462L12.403 19.1715C12.4167 19.2083 12.4219 19.2483 12.4182 19.288C12.4144 19.3276 12.4019 19.3656 12.3817 19.3984C12.3615 19.4313 12.3342 19.458 12.3024 19.4762C12.2705 19.4944 12.2352 19.5035 12.1994 19.5026Z" fill="#FFDFAC"/>
<path id="Vector_8" d="M8.33423 8.32704C8.28992 8.32714 8.24665 8.31211 8.21024 8.28398C8.17383 8.25585 8.14604 8.21597 8.1306 8.1697L5.59674 0.828638C5.57585 0.768476 5.57726 0.701526 5.60067 0.642523C5.62407 0.583521 5.66755 0.53729 5.72154 0.513988C5.77581 0.491147 5.83595 0.492909 5.88907 0.518901C5.94218 0.544893 5.98403 0.593046 6.00564 0.653019L8.5395 7.99593C8.5498 8.02583 8.55469 8.0577 8.55391 8.08972C8.55313 8.12173 8.54668 8.15327 8.53493 8.1825C8.52318 8.21173 8.50637 8.23809 8.48545 8.26007C8.46454 8.28204 8.43993 8.29921 8.41305 8.31057C8.38788 8.32131 8.36118 8.32689 8.33423 8.32704Z" fill="#FFDFAC"/>
<path id="Vector_9" d="M4.30434 15.4724C4.24643 15.4724 4.19091 15.4467 4.14998 15.4011C4.10896 15.3551 4.08594 15.293 4.08594 15.2282C4.08594 15.1634 4.10896 15.1013 4.14998 15.0553L7.57881 11.2357C7.61975 11.1898 7.67536 11.164 7.73342 11.1638C7.79147 11.1636 7.8472 11.1892 7.88836 11.2348C7.92952 11.2804 7.95273 11.3423 7.95288 11.407C7.95304 11.4717 7.93012 11.5338 7.88918 11.5796L4.4587 15.4011C4.41777 15.4467 4.36225 15.4724 4.30434 15.4724Z" fill="#FFDFAC"/>
<path id="Vector_10" d="M10.2844 8.80993C10.241 8.81026 10.1986 8.79625 10.1625 8.76965C10.1263 8.74305 10.0981 8.70509 10.0814 8.66057C10.0647 8.61606 10.0602 8.56701 10.0686 8.51967C10.0769 8.47232 10.0977 8.42882 10.1284 8.39468L13.5358 4.60067C13.5542 4.57182 13.578 4.54777 13.6055 4.5302C13.6331 4.51264 13.6637 4.50197 13.6953 4.49894C13.7269 4.49591 13.7588 4.5006 13.7886 4.51267C13.8184 4.52475 13.8456 4.54391 13.8681 4.56885C13.8906 4.59378 13.9079 4.62388 13.9189 4.65704C13.9299 4.69021 13.9343 4.72564 13.9317 4.76088C13.9292 4.79612 13.9198 4.83032 13.9042 4.8611C13.8885 4.89187 13.8671 4.91849 13.8413 4.93909L10.4354 8.7331C10.3961 8.77988 10.3418 8.80748 10.2844 8.80993Z" fill="#FFDFAC"/>
<path id="Vector_11" d="M13.69 15.4724C13.6321 15.4724 13.5766 15.4467 13.5356 15.4011L10.1282 11.6052C10.0872 11.5594 10.0643 11.4973 10.0645 11.4326C10.0646 11.368 10.0878 11.306 10.129 11.2604C10.1701 11.2148 10.2259 11.1893 10.2839 11.1895C10.342 11.1896 10.3976 11.2155 10.4385 11.2613L13.8411 15.0553C13.8821 15.1013 13.9051 15.1634 13.9051 15.2282C13.9051 15.293 13.8821 15.3552 13.8411 15.4011C13.801 15.4458 13.7468 15.4714 13.69 15.4724Z" fill="#FFDFAC"/>
<path id="Vector_12" d="M7.6966 8.79537C7.6382 8.79541 7.58214 8.76977 7.5406 8.72402L4.15282 4.93915C4.1315 4.91683 4.11443 4.88997 4.10261 4.86016C4.09079 4.83036 4.08446 4.79821 4.08401 4.76563C4.08356 4.73305 4.08899 4.7007 4.09997 4.6705C4.11096 4.6403 4.12727 4.61286 4.14796 4.58982C4.16864 4.56678 4.19327 4.5486 4.22038 4.53636C4.24749 4.52412 4.27653 4.51808 4.30578 4.51858C4.33503 4.51909 4.36389 4.52614 4.39064 4.53931C4.4174 4.55247 4.44151 4.57149 4.46155 4.59523L7.85426 8.37279C7.89527 8.41873 7.91829 8.48088 7.91829 8.54567C7.91829 8.61045 7.89527 8.67259 7.85426 8.71853C7.83402 8.74256 7.80961 8.76176 7.78251 8.77497C7.75541 8.78817 7.72618 8.79512 7.6966 8.79537Z" fill="#FFDFAC"/>
<path id="Vector_13" d="M7.74208 10.2442H0.239043C0.208658 10.2472 0.178055 10.243 0.149182 10.2321C0.120308 10.2211 0.0937953 10.2036 0.0713184 10.1807C0.0488416 10.1577 0.0308948 10.1298 0.0186177 10.0987C0.00634056 10.0676 0 10.034 0 10C0 9.96603 0.00634056 9.93244 0.0186177 9.90134C0.0308948 9.87024 0.0488416 9.84231 0.0713184 9.81935C0.0937953 9.79639 0.120308 9.77888 0.149182 9.76794C0.178055 9.75699 0.208658 9.75287 0.239043 9.7558H7.74208C7.77247 9.75287 7.80307 9.75699 7.83194 9.76794C7.86082 9.77888 7.88733 9.79639 7.90981 9.81935C7.93228 9.84231 7.95023 9.87024 7.96251 9.90134C7.97478 9.93244 7.98112 9.96603 7.98112 10C7.98112 10.034 7.97478 10.0676 7.96251 10.0987C7.95023 10.1298 7.93228 10.1577 7.90981 10.1807C7.88733 10.2036 7.86082 10.2211 7.83194 10.2321C7.80307 10.243 7.77247 10.2472 7.74208 10.2442Z" fill="#FFDFAC"/>
<path id="Vector_14" d="M17.7544 10.2442H10.2284C10.1735 10.2389 10.1224 10.2109 10.0852 10.1657C10.048 10.1205 10.0273 10.0614 10.0273 10C10.0273 9.93866 10.048 9.87954 10.0852 9.83432C10.1224 9.78911 10.1735 9.76109 10.2284 9.7558H17.761C17.7914 9.75287 17.822 9.75699 17.8509 9.76794C17.8797 9.77888 17.9062 9.79639 17.9287 9.81935C17.9512 9.84231 17.9691 9.87024 17.9814 9.90134C17.9937 9.93244 18 9.96603 18 10C18 10.034 17.9937 10.0676 17.9814 10.0987C17.9691 10.1298 17.9512 10.1577 17.9287 10.1807C17.9062 10.2036 17.8797 10.2211 17.8509 10.2321C17.822 10.243 17.7914 10.2472 17.761 10.2442H17.7544Z" fill="#FFDFAC"/>
<path id="Vector_15" d="M8.99576 19.9999C8.96701 20.0001 8.93852 19.994 8.91192 19.9819C8.88532 19.9697 8.86116 19.9518 8.84083 19.9292C8.82051 19.9065 8.80443 19.8796 8.79353 19.85C8.78263 19.8204 8.77713 19.7886 8.77735 19.7566V11.3417C8.77735 11.2772 8.80036 11.2153 8.84132 11.1697C8.88228 11.124 8.93783 11.0984 8.99576 11.0984C9.05368 11.0984 9.10924 11.124 9.15019 11.1697C9.19115 11.2153 9.21416 11.2772 9.21416 11.3417V19.7566C9.21438 19.7886 9.20888 19.8204 9.19798 19.85C9.18709 19.8796 9.17101 19.9065 9.15068 19.9292C9.13036 19.9518 9.10619 19.9697 9.07959 19.9819C9.053 19.994 9.0245 20.0001 8.99576 19.9999Z" fill="#FFDFAC"/>
<path id="Vector_16" d="M8.99575 8.821C8.93782 8.821 8.88227 8.79537 8.84131 8.74974C8.80035 8.70411 8.77734 8.64223 8.77734 8.5777V0.243303C8.77734 0.178776 8.80035 0.116885 8.84131 0.071257C8.88227 0.0256294 8.93782 0 8.99575 0C9.05367 0 9.10923 0.0256294 9.15019 0.071257C9.19115 0.116885 9.21415 0.178776 9.21415 0.243303V8.5777C9.21415 8.64223 9.19115 8.70411 9.15019 8.74974C9.10923 8.79537 9.05367 8.821 8.99575 8.821Z" fill="#FFDFAC"/>
</g>
</svg>
