<svg width="40" height="40" viewBox="0 0 40 40" fill="none" xmlns="http://www.w3.org/2000/svg">
<g id="Frame 1410102898">
<path id="Vector" d="M24.279 10.3401H15.815C15.6003 10.3382 15.3949 10.2451 15.2431 10.081C15.0912 9.91681 15.0052 9.69474 15.0034 9.46261V5.19141C15.0052 4.95929 15.0912 4.73721 15.2431 4.57306C15.3949 4.40892 15.6003 4.31586 15.815 4.31396H24.279C24.4931 4.3177 24.6976 4.41135 24.849 4.5751C25.0005 4.73885 25.087 4.95987 25.0905 5.19141V9.43361C25.0827 9.66641 24.9955 9.88785 24.8457 10.0552C24.6958 10.2226 24.4939 10.3241 24.279 10.3401ZM16.5594 8.65768H23.4674V6.09786H16.5594V8.65768Z" fill="#EF232C"/>
<path id="Vector_2" d="M25.8348 34.9231H14.0576C13.8435 34.9193 13.6391 34.8257 13.4876 34.6619C13.3362 34.4982 13.2495 34.2772 13.2461 34.0456V29.8469C13.2495 29.6154 13.3362 29.3944 13.4876 29.2306C13.6391 29.0669 13.8435 28.9732 14.0576 28.9695H25.8348C26.049 28.9732 26.2534 29.0669 26.4048 29.2306C26.5563 29.3944 26.6429 29.6154 26.6463 29.8469V34.0964C26.6204 34.3144 26.5254 34.516 26.3774 34.6667C26.2294 34.8175 26.0377 34.9081 25.8348 34.9231ZM14.8021 33.1609H25.0233V30.6736H14.8021V33.1609Z" fill="#EF232C"/>
<path id="Vector_3" d="M19.9933 30.688C16.137 30.7751 12.3363 29.6843 9.02763 27.5409C5.97602 25.4959 4.28589 22.6388 4.28589 19.6366C4.28589 16.6344 5.97602 13.7846 9.02763 11.7324C12.3455 9.61252 16.1399 8.52349 19.9933 8.58515C23.8551 8.4896 27.6632 9.57554 30.9791 11.7178C34.024 13.7701 35.7141 16.6199 35.7141 19.6221C35.7141 22.6243 34.024 25.4814 30.9791 27.5263C27.666 29.6788 23.8577 30.7748 19.9933 30.688ZM19.9933 10.34C16.4616 10.2507 12.9772 11.2302 9.93304 13.1682C7.35761 14.9231 5.90893 17.1928 5.90893 19.6076C5.90893 22.0224 7.33078 24.2921 9.93304 26.047C13.0128 27.9199 16.4867 28.9037 20.0201 28.9037C23.5536 28.9037 27.0275 27.9199 30.1072 26.047C32.6759 24.2921 34.0978 22.0224 34.0978 19.6076C34.0978 17.1928 32.6759 14.9231 30.1072 13.1682C27.0472 11.2204 23.543 10.2405 19.9933 10.34Z" fill="#EF232C"/>
<path id="Vector_4" d="M19.9932 30.688C18.8536 30.6628 17.7349 30.3524 16.7248 29.7812C15.7148 29.21 14.8409 28.3935 14.1717 27.3958C12.6759 25.1591 11.8706 22.4693 11.8706 19.7091C11.8706 16.9489 12.6759 14.2591 14.1717 12.0224C14.8245 11.0067 15.6949 10.1769 16.7086 9.60383C17.7224 9.03076 18.8493 8.73145 19.9932 8.73145C21.1372 8.73145 22.2641 9.03076 23.2778 9.60383C24.2916 10.1769 25.162 11.0067 25.8148 12.0224C27.3432 14.241 28.1518 16.9429 28.1152 19.7091C28.1635 22.4771 27.3537 25.183 25.8148 27.3958C25.1456 28.3935 24.2717 29.21 23.2616 29.7812C22.2516 30.3524 21.1329 30.6628 19.9932 30.688ZM19.9932 10.34C16.338 10.34 13.4273 14.5169 13.4273 19.6366C13.4273 24.7562 16.4051 28.9331 19.9932 28.9331C23.5814 28.9331 26.5592 24.7634 26.5592 19.6366C26.5592 14.5097 23.6686 10.34 19.9932 10.34Z" fill="#EF232C"/>
<path id="Vector_5" d="M19.9933 30.6881C16.9175 30.748 13.9205 29.6337 11.5293 27.5409C10.4317 26.6047 9.5403 25.4163 8.91972 24.0618C8.29914 22.7073 7.96491 21.2206 7.94116 19.7092C7.96485 18.1874 8.29869 16.6901 8.9189 15.3238C9.53912 13.9576 10.4304 12.7561 11.5293 11.8049C13.9258 9.72255 16.9192 8.60952 19.9933 8.65773C23.067 8.5989 26.0615 9.71323 28.4507 11.8049C29.5656 12.7239 30.4693 13.9087 31.0913 15.2671C31.7134 16.6255 32.037 18.1209 32.037 19.6367C32.037 21.1525 31.7134 22.6478 31.0913 24.0062C30.4693 25.3647 29.5656 26.5495 28.4507 27.4684C26.0685 29.5818 23.0746 30.7215 19.9933 30.6881ZM19.9933 10.3401C14.1718 10.3401 9.49711 14.517 9.49711 19.6367C9.49711 24.7563 14.2389 29.0057 19.9933 29.0057C25.7478 29.0057 30.4828 24.7635 30.4828 19.6367C30.4828 14.5098 25.835 10.3401 19.9933 10.3401Z" fill="#EF232C"/>
<path id="Vector_6" d="M19.9933 23.0013C18.8241 23.0277 17.6686 22.7253 16.6399 22.1239C16.1762 21.9022 15.7787 21.5454 15.492 21.0932C15.2054 20.6411 15.0408 20.1116 15.0168 19.5641C15.0545 19.0205 15.2244 18.4973 15.5095 18.0478C15.7945 17.5982 16.1845 17.2381 16.6399 17.0042C17.6656 16.3944 18.8232 16.0915 19.9933 16.1268C21.1628 16.0981 22.3188 16.4006 23.3467 17.0042C23.8122 17.2241 24.2114 17.5803 24.4994 18.0327C24.7874 18.4851 24.9527 19.0155 24.9765 19.5641C24.9389 20.1086 24.7682 20.6325 24.4819 21.0823C24.1955 21.5321 23.8038 21.8915 23.3467 22.1239C22.3188 22.7275 21.1628 23.03 19.9933 23.0013ZM19.9933 17.9252C18.0282 17.9252 16.5393 18.8751 16.5393 19.6076C16.5393 20.34 18.0282 21.2899 19.9933 21.2899C21.9584 21.2899 23.4473 20.34 23.4473 19.6076C23.4473 18.8751 22.0054 17.9542 19.9933 17.9542V17.9252Z" fill="#EF232C"/>
<path id="Vector_7" d="M22.676 6.09793H17.1965C16.9823 6.09419 16.7779 6.00055 16.6265 5.8368C16.475 5.67305 16.3884 5.45203 16.3849 5.22048V3.97321C16.3642 3.45976 16.4398 2.94708 16.6073 2.46608C16.7747 1.98508 17.0305 1.54571 17.3592 1.17446C17.6879 0.803204 18.0827 0.507751 18.5198 0.305905C18.9569 0.104059 19.4273 0 19.9027 0C20.378 0 20.8484 0.104059 21.2856 0.305905C21.7227 0.507751 22.1175 0.803204 22.4462 1.17446C22.7749 1.54571 23.0307 1.98508 23.1981 2.46608C23.3655 2.94708 23.4412 3.45976 23.4204 3.97321V5.19148C23.4494 5.30755 23.4512 5.4296 23.4257 5.54662C23.4002 5.66365 23.3482 5.77198 23.2744 5.86188C23.2006 5.95177 23.1072 6.02042 23.0028 6.06162C22.8983 6.10283 22.786 6.1153 22.676 6.09793ZM17.9812 4.41555H21.9047V3.97321C21.9203 3.68423 21.8812 3.39484 21.7896 3.12281C21.6981 2.85077 21.5562 2.60183 21.3725 2.39125C21.1888 2.18067 20.9672 2.01291 20.7214 1.89824C20.4756 1.78356 20.2106 1.72441 19.9429 1.72441C19.6752 1.72441 19.4103 1.78356 19.1645 1.89824C18.9187 2.01291 18.6971 2.18067 18.5134 2.39125C18.3297 2.60183 18.1877 2.85077 18.0962 3.12281C18.0047 3.39484 17.9655 3.68423 17.9812 3.97321V4.41555Z" fill="#EF232C"/>
<path id="Vector_8" d="M16.4253 39.9992C16.2106 39.9973 16.0052 39.9042 15.8534 39.7401C15.7016 39.5759 15.6155 39.3539 15.6138 39.1217V34.0456C15.6155 33.8128 15.7014 33.59 15.853 33.4246C16.0046 33.2593 16.21 33.1647 16.4253 33.1609C16.5335 33.1568 16.6413 33.1769 16.7419 33.22C16.8425 33.2631 16.9338 33.3283 17.01 33.4114C17.0862 33.4945 17.1458 33.5937 17.1848 33.7028C17.2238 33.812 17.2415 33.9287 17.2369 34.0456V39.1217C17.2227 39.3494 17.1327 39.5638 16.9834 39.7252C16.8342 39.8865 16.6359 39.9839 16.4253 39.9992Z" fill="#EF232C"/>
<path id="Vector_9" d="M14.0576 39.9992C13.8429 39.9973 13.6375 39.9043 13.4857 39.7401C13.3339 39.576 13.2478 39.3539 13.2461 39.1218V34.0457C13.2461 33.8129 13.3316 33.5898 13.4838 33.4252C13.636 33.2607 13.8424 33.1682 14.0576 33.1682C14.2729 33.1682 14.4793 33.2607 14.6315 33.4252C14.7837 33.5898 14.8691 33.8129 14.8691 34.0457V39.1218C14.855 39.3495 14.765 39.5639 14.6157 39.7252C14.4665 39.8866 14.2682 39.9839 14.0576 39.9992Z" fill="#EF232C"/>
<path id="Vector_10" d="M18.7927 39.9992C18.5786 39.9955 18.3742 39.9018 18.2227 39.7381C18.0713 39.5743 17.9847 39.3533 17.9812 39.1218V34.0457C17.9812 33.8129 18.0667 33.5898 18.2189 33.4252C18.3711 33.2607 18.5775 33.1682 18.7927 33.1682C19.008 33.1682 19.2144 33.2607 19.3666 33.4252C19.5188 33.5898 19.6042 33.8129 19.6042 34.0457V39.1218C19.5915 39.35 19.5019 39.5653 19.3524 39.7269C19.2029 39.8886 19.0038 39.9855 18.7927 39.9992Z" fill="#EF232C"/>
<path id="Vector_11" d="M21.0933 39.9992C20.8791 39.9954 20.6747 39.9018 20.5233 39.7381C20.3718 39.5743 20.2852 39.3533 20.2817 39.1217V34.0456C20.2851 33.8134 20.3715 33.5916 20.5228 33.4267C20.6741 33.2617 20.8785 33.1665 21.0933 33.1609C21.2014 33.1568 21.3092 33.1769 21.4098 33.22C21.5105 33.2631 21.6018 33.3283 21.678 33.4114C21.7542 33.4945 21.8137 33.5937 21.8527 33.7028C21.8917 33.812 21.9095 33.9287 21.9048 34.0456V39.1217C21.9095 39.2383 21.8918 39.3547 21.8527 39.4635C21.8136 39.5723 21.754 39.6711 21.6777 39.7536C21.6013 39.8362 21.51 39.9006 21.4094 39.9429C21.3088 39.9851 21.2011 40.0043 21.0933 39.9992Z" fill="#EF232C"/>
<path id="Vector_12" d="M23.4674 39.9992C23.2521 39.9973 23.0459 39.9045 22.8931 39.7406C22.7402 39.5766 22.6527 39.3545 22.6492 39.1217V34.0456C22.6526 33.8121 22.7399 33.5893 22.8927 33.4242C23.0454 33.2591 23.2515 33.1647 23.4674 33.1609C23.5756 33.1568 23.6834 33.1769 23.784 33.22C23.8846 33.2631 23.9759 33.3283 24.0521 33.4114C24.1283 33.4945 24.1878 33.5937 24.2269 33.7028C24.2659 33.812 24.2836 33.9287 24.2789 34.0456V39.1217C24.2755 39.3533 24.1889 39.5743 24.0374 39.7381C23.886 39.9018 23.6815 39.9954 23.4674 39.9992Z" fill="#EF232C"/>
<path id="Vector_13" d="M25.835 39.9992C25.6203 39.9973 25.4149 39.9042 25.2631 39.7401C25.1113 39.5759 25.0252 39.3539 25.0234 39.1217V34.0456C25.0252 33.8128 25.111 33.59 25.2626 33.4246C25.4143 33.2593 25.6197 33.1647 25.835 33.1609C25.9431 33.1568 26.0509 33.1769 26.1515 33.22C26.2522 33.2631 26.3434 33.3283 26.4197 33.4114C26.4959 33.4945 26.5554 33.5937 26.5944 33.7028C26.6334 33.812 26.6512 33.9287 26.6465 34.0456V39.1217C26.6323 39.3494 26.5423 39.5638 26.3931 39.7252C26.2439 39.8865 26.0456 39.9839 25.835 39.9992Z" fill="#EF232C"/>
</g>
</svg>
