<svg width="21" height="21" viewBox="0 0 21 21" fill="none" xmlns="http://www.w3.org/2000/svg">
<g id="tick">
<path id="Subtract" d="M2.60547 0.5C1.22476 0.5 0.105469 1.61929 0.105469 3V18C0.105469 19.3807 1.22476 20.5 2.60547 20.5H17.6055C18.9862 20.5 20.1055 19.3807 20.1055 18V3C20.1055 1.61929 18.9862 0.5 17.6055 0.5H2.60547ZM15.1434 6.71209C15.505 7.07371 15.5094 7.65727 15.1567 8.02434L10.1664 14.2622C10.1592 14.2712 10.1515 14.2798 10.1434 14.2879C9.77726 14.654 9.18366 14.654 8.81755 14.2879L5.50949 10.9799C5.14337 10.6137 5.14337 10.0201 5.50949 9.65403C5.87561 9.28791 6.4692 9.28791 6.83531 9.65403L9.45221 12.2709L13.7927 6.74013C13.8004 6.73029 13.8087 6.72093 13.8175 6.71209C14.1837 6.34597 14.7773 6.34597 15.1434 6.71209Z" fill="#FF6634"/>
</g>
</svg>
