<svg width="24" height="25" viewBox="0 0 24 25" fill="none" xmlns="http://www.w3.org/2000/svg">
<path d="M19.1738 3.70889C18.1641 2.9637 16.8199 4.03058 16.0749 5.03964L9.78906 14.5158L11.6172 15.8644L18.8169 7.06214C19.5619 6.05287 20.1835 4.45386 19.1738 3.70889Z" fill="#AE9955"/>
<path d="M5.79189 19.531C5.79185 20.2372 4.7965 20.7844 4.29883 20.9696C4.71625 21.58 6.14517 22.5128 8.52145 21.362C10.8977 20.2111 10.6676 18.4193 10.2555 17.6673L11.3152 16.3759L9.46875 14.9536L8.52145 16.3759C8.23779 16.365 7.52598 16.4249 6.94796 16.7519C6.22545 17.1606 5.79194 18.6482 5.79189 19.531Z" fill="#AE9955"/>
</svg>
