<svg xmlns="http://www.w3.org/2000/svg" width="25" height="24" viewBox="0 0 25 24" fill="none">
<path d="M7.50073 10.8333C8.41993 10.8333 9.16732 10.0858 9.16732 9.16667C9.16732 8.24751 8.41993 7.5 7.50073 7.5C6.58152 7.5 5.83398 8.24751 5.83398 9.16667C5.83398 10.0858 6.58152 10.8333 7.50073 10.8333Z" fill="#A88D65"/>
<path d="M19.9999 4.16675H4.99993C3.62207 4.16675 2.5 5.33556 2.5 6.77102V18.2291C2.5 19.6646 3.62207 20.8334 4.99993 20.8334H19.9999C21.3779 20.8334 22.5 19.6646 22.5 18.2291V6.77102C22.5 5.33556 21.3779 4.16675 19.9999 4.16675ZM4.99993 6.25013H19.9999C20.276 6.25013 20.4999 6.4834 20.4999 6.77102V14.1658L17.341 10.3261C17.0059 9.91679 16.5209 9.69802 16 9.68562C15.482 9.68867 14.996 9.92823 14.664 10.3429L10.9499 14.9865L9.73997 13.7292C9.05607 13.0168 7.94298 13.0168 7.26 13.7292L4.50006 16.6031V6.77102C4.50006 6.4834 4.72399 6.25013 4.99993 6.25013Z" fill="#A88D65"/>
</svg>
