<svg width="82" height="82" viewBox="0 0 82 82" fill="none" xmlns="http://www.w3.org/2000/svg">
<circle cx="41" cy="41" r="39.5" fill="#AC7D1C" stroke="url(#paint0_linear_144_67229)" stroke-width="3"/>
<path d="M56.3732 25.9268C53.3723 22.926 49.5489 20.8824 45.3865 20.0546C41.2241 19.2267 36.9097 19.6517 32.9889 21.2758C29.0681 22.8999 25.7169 25.6502 23.3591 29.1789C21.0014 32.7076 19.7429 36.8562 19.7429 41.1001C19.7429 45.344 21.0014 49.4926 23.3591 53.0213C25.7169 56.55 29.0681 59.3003 32.9889 60.9244C36.9097 62.5485 41.2241 62.9735 45.3865 62.1457C49.5489 61.3178 53.3723 59.2743 56.3732 56.2735C58.3664 54.2812 59.9476 51.9158 61.0263 49.3123C62.1051 46.7088 62.6603 43.9183 62.6603 41.1001C62.6603 38.282 62.1051 35.4915 61.0263 32.888C59.9476 30.2845 58.3664 27.919 56.3732 25.9268ZM23.3021 48.5223C21.8286 44.9792 21.4401 41.0784 22.186 37.3143C22.932 33.5502 24.7786 30.0923 27.492 27.3789C30.2054 24.6655 33.6633 22.8188 37.4274 22.0729C41.1915 21.327 45.0924 21.7154 48.6355 23.189C42.3821 21.5179 34.8577 23.5979 29.2844 29.1579C23.711 34.7179 21.6444 42.269 23.3021 48.5223ZM34.8132 47.4868V34.7135H47.5866V47.4868H34.8132ZM33.7777 58.9979C40.031 60.669 47.5555 58.589 53.1288 53.029C58.7021 47.469 60.7555 39.9312 59.0977 33.6779C60.5713 37.221 60.9597 41.1218 60.2138 44.8859C59.4679 48.65 57.6212 52.1079 54.9078 54.8213C52.1944 57.5347 48.7365 59.3814 44.9724 60.1273C41.2083 60.8732 37.3074 60.4848 33.7644 59.0112L33.7777 58.9979Z" fill="#EDE8D5"/>
<defs>
<linearGradient id="paint0_linear_144_67229" x1="9.94519" y1="-5.38221" x2="28.5811" y2="88.7278" gradientUnits="userSpaceOnUse">
<stop stop-color="#E5B039"/>
<stop offset="0.47968" stop-color="#FFEBBD"/>
<stop offset="1" stop-color="#E5B039"/>
</linearGradient>
</defs>
</svg>
