<svg width="52" height="47" viewBox="0 0 52 47" fill="none" xmlns="http://www.w3.org/2000/svg">
<path fill-rule="evenodd" clip-rule="evenodd" d="M18.3066 0.0385938C17.7075 0.129594 17.7206 0.668755 18.3526 1.93232C19.2379 3.70202 19.48 5.55506 19.4789 10.5531C19.4776 16.2382 18.992 22.3309 18.2776 25.6232C17.202 30.5814 15.3886 34.3619 12.5779 37.5054C10.2207 40.142 6.32602 42.9999 2.67344 44.7736C1.07981 45.5474 0.82322 45.732 0.935403 46.0243C1.01757 46.2386 1.84829 46.2574 3.17456 46.0751C6.13074 45.6685 9.2421 44.2928 12.0889 42.1338C15.7755 39.3377 18.5144 36.0182 19.8293 32.7525C20.7383 30.4949 21.0897 29.395 21.9894 25.9911L22.1373 25.4317L22.3997 25.7013C22.5439 25.8496 23.2046 26.7535 23.8677 27.7098C24.5308 28.6662 25.4043 29.9182 25.8087 30.492C26.2131 31.0658 26.7604 31.8483 27.0248 32.2309C28.1008 33.7876 31.8937 39.0172 33.3382 40.9356C34.1764 42.0488 36.1085 43.9651 36.9552 44.5231C38.1321 45.2986 38.7175 45.4704 40.703 45.623C43.5297 45.8401 50.0868 45.3917 50.9657 44.9212C51.2841 44.7507 51.2497 44.2917 50.8975 44.0146C50.6007 43.7812 49.3499 43.3135 48.1781 42.9982C47.3824 42.784 44.4147 41.6937 43.4845 41.2738C40.3033 39.8381 37.7562 38.3469 35.6038 36.66C31.5705 33.4989 26.8123 28.3305 23.5895 23.6096L22.6818 22.2802L22.6804 21.2854C22.679 20.2529 22.8049 18.0418 23.0966 13.9729C23.4615 8.88219 23.8525 5.90248 24.3874 4.13511C24.7922 2.79735 24.6845 2.43045 23.7001 1.79403C23.3115 1.54271 22.9364 1.33694 22.8666 1.33659C22.7969 1.33636 22.3225 1.17314 21.8126 0.973867C20.161 0.328519 18.7956 -0.0357133 18.3066 0.0385938ZM36.5991 9.88748C36.356 10.1306 36.2393 10.3857 36.1838 10.795C35.9333 12.6418 35.1015 13.737 30.68 18.0414C28.8339 19.8386 27.556 21.1689 27.5757 21.273C27.6444 21.6367 28.2983 21.536 29.5343 20.9712C30.1953 20.6691 30.8145 20.3622 30.9101 20.2893C31.0058 20.2165 31.4089 19.9942 31.8061 19.7952C32.597 19.3994 36.2401 17.3078 36.7056 16.9825C37.3189 16.5538 40.273 15.1458 40.956 14.9566C42.0465 14.6546 42.3768 14.2109 42.0028 13.5506C41.7177 13.0473 40.2147 11.4777 39.3863 10.8182C38.4566 10.0779 37.8952 9.75625 37.3134 9.63071C36.9941 9.56173 36.8858 9.6008 36.5991 9.88748ZM8.33432 15.1553C7.93808 15.5516 8.34394 16.7462 9.53647 18.6948C11.5008 21.904 13.3766 23.9423 14.3655 23.9423C15.1138 23.9423 15.6525 22.763 15.6627 21.1022C15.6725 19.5023 15.1394 18.7089 13.0424 17.203C12.4257 16.7601 11.318 16.0868 10.5808 15.707C9.23665 15.0142 8.62544 14.8641 8.33432 15.1553Z" fill="#EF232C"/>
</svg>
