<svg width="41" height="40" viewBox="0 0 41 40" fill="none" xmlns="http://www.w3.org/2000/svg">
<path d="M1.22266 39.2563V28.0789C1.22266 27.5266 1.67037 27.0789 2.22266 27.0789H13.539C14.0913 27.0789 14.539 26.6312 14.539 26.0789V2.32251C14.539 1.77023 14.9868 1.32251 15.539 1.32251H21.1609C21.7131 1.32251 22.1609 1.77023 22.1609 2.32251V8.44443C22.1609 9.00654 21.6977 9.45822 21.1358 9.44412L2.19756 8.96868C1.65522 8.95507 1.22266 8.51151 1.22266 7.969V2.32251C1.22266 1.77022 1.67037 1.32251 2.22266 1.32251H8.37024C8.92252 1.32251 9.37024 1.77023 9.37024 2.32251V21.0853C9.37024 21.6375 8.92252 22.0853 8.37024 22.0853H2.22266C1.67037 22.0853 1.22266 21.6375 1.22266 21.0853V15.7263C1.22266 15.174 1.67037 14.7263 2.22266 14.7263H26.1544C26.7067 14.7263 27.1544 14.2786 27.1544 13.7263V2.32251C27.1544 1.77023 27.6022 1.32251 28.1544 1.32251H40.4707" stroke="#D4C79C"/>
</svg>
