<svg width="189" height="32" viewBox="0 0 189 32" fill="none" xmlns="http://www.w3.org/2000/svg">
<g filter="url(#filter0_dd_136_8546)">
<mask id="path-1-inside-1_136_8546" fill="white">
<path d="M10.3083 19.4121C10.3083 22.5371 8.74583 24.0996 5.62083 24.0996H4.05833V19.4121H5.62083V8.47461H4.05833V3.78711H13.4333V2.22461H18.1208V3.78711H27.4958V8.47461H25.9333V19.4121H27.4958V24.0996H25.9333C22.8083 24.0996 21.2458 22.5371 21.2458 19.4121V8.47461H18.1208V16.2871H13.4333V8.47461H10.3083V19.4121ZM43.0641 16.2871H33.6891C31.6057 16.2871 30.5641 15.2454 30.5641 13.1621V3.78711H35.2516V11.5996H43.0641V3.78711H47.7516V11.5996H49.3141V16.2871H47.7516C47.7516 21.4954 45.1474 24.0996 39.9391 24.0996H35.2516V19.4121H39.9391C42.0224 19.4121 43.0641 18.3704 43.0641 16.2871ZM69.6381 3.78711V2.22461H74.3256V3.78711H82.1381V8.47461H80.5756V19.4121H82.1381V24.0996H80.5756C77.4506 24.0996 75.8881 22.5371 75.8881 19.4121V16.2871H68.0756V19.4121C68.0756 22.5371 66.5131 24.0996 63.3881 24.0996H61.8256V19.4121H63.3881V8.47461H61.8256V3.78711H69.6381ZM75.8881 8.47461H68.0756V11.5996H75.8881V8.47461ZM102.394 16.2871C102.394 21.4954 99.7896 24.0996 94.5813 24.0996H85.2063V19.4121H94.5813C96.6646 19.4121 97.7063 18.3704 97.7063 16.2871H85.2063V11.5996C85.2063 6.39128 87.8105 3.78711 93.0188 3.78711H102.394V8.47461H93.0188C90.9355 8.47461 89.8938 9.51628 89.8938 11.5996H102.394V16.2871ZM122.65 16.2871C122.65 21.4954 120.045 24.0996 114.837 24.0996H105.462V19.4121H114.837C116.92 19.4121 117.962 18.3704 117.962 16.2871H105.462V11.5996C105.462 6.39128 108.066 3.78711 113.275 3.78711H122.65V8.47461H113.275C111.191 8.47461 110.15 9.51628 110.15 11.5996H122.65V16.2871ZM131.968 11.5996H141.343V16.2871H131.968C131.968 18.3704 133.009 19.4121 135.093 19.4121H144.468V24.0996H135.093C129.884 24.0996 127.28 21.4954 127.28 16.2871H125.718V11.5996H127.28V8.47461H125.718V3.78711H144.468V8.47461H131.968V11.5996ZM158.474 19.4121C158.474 22.5371 156.911 24.0996 153.786 24.0996H152.224V19.4121H153.786V8.47461H147.536V3.78711H164.724V8.47461H158.474V19.4121ZM184.979 16.2871C184.979 21.4954 182.375 24.0996 177.167 24.0996H167.792V19.4121H177.167C179.25 19.4121 180.292 18.3704 180.292 16.2871H167.792V11.5996C167.792 6.39128 170.396 3.78711 175.604 3.78711H184.979V8.47461H175.604C173.521 8.47461 172.479 9.51628 172.479 11.5996H184.979V16.2871Z"/>
</mask>
<path d="M10.3083 19.4121C10.3083 22.5371 8.74583 24.0996 5.62083 24.0996H4.05833V19.4121H5.62083V8.47461H4.05833V3.78711H13.4333V2.22461H18.1208V3.78711H27.4958V8.47461H25.9333V19.4121H27.4958V24.0996H25.9333C22.8083 24.0996 21.2458 22.5371 21.2458 19.4121V8.47461H18.1208V16.2871H13.4333V8.47461H10.3083V19.4121ZM43.0641 16.2871H33.6891C31.6057 16.2871 30.5641 15.2454 30.5641 13.1621V3.78711H35.2516V11.5996H43.0641V3.78711H47.7516V11.5996H49.3141V16.2871H47.7516C47.7516 21.4954 45.1474 24.0996 39.9391 24.0996H35.2516V19.4121H39.9391C42.0224 19.4121 43.0641 18.3704 43.0641 16.2871ZM69.6381 3.78711V2.22461H74.3256V3.78711H82.1381V8.47461H80.5756V19.4121H82.1381V24.0996H80.5756C77.4506 24.0996 75.8881 22.5371 75.8881 19.4121V16.2871H68.0756V19.4121C68.0756 22.5371 66.5131 24.0996 63.3881 24.0996H61.8256V19.4121H63.3881V8.47461H61.8256V3.78711H69.6381ZM75.8881 8.47461H68.0756V11.5996H75.8881V8.47461ZM102.394 16.2871C102.394 21.4954 99.7896 24.0996 94.5813 24.0996H85.2063V19.4121H94.5813C96.6646 19.4121 97.7063 18.3704 97.7063 16.2871H85.2063V11.5996C85.2063 6.39128 87.8105 3.78711 93.0188 3.78711H102.394V8.47461H93.0188C90.9355 8.47461 89.8938 9.51628 89.8938 11.5996H102.394V16.2871ZM122.65 16.2871C122.65 21.4954 120.045 24.0996 114.837 24.0996H105.462V19.4121H114.837C116.92 19.4121 117.962 18.3704 117.962 16.2871H105.462V11.5996C105.462 6.39128 108.066 3.78711 113.275 3.78711H122.65V8.47461H113.275C111.191 8.47461 110.15 9.51628 110.15 11.5996H122.65V16.2871ZM131.968 11.5996H141.343V16.2871H131.968C131.968 18.3704 133.009 19.4121 135.093 19.4121H144.468V24.0996H135.093C129.884 24.0996 127.28 21.4954 127.28 16.2871H125.718V11.5996H127.28V8.47461H125.718V3.78711H144.468V8.47461H131.968V11.5996ZM158.474 19.4121C158.474 22.5371 156.911 24.0996 153.786 24.0996H152.224V19.4121H153.786V8.47461H147.536V3.78711H164.724V8.47461H158.474V19.4121ZM184.979 16.2871C184.979 21.4954 182.375 24.0996 177.167 24.0996H167.792V19.4121H177.167C179.25 19.4121 180.292 18.3704 180.292 16.2871H167.792V11.5996C167.792 6.39128 170.396 3.78711 175.604 3.78711H184.979V8.47461H175.604C173.521 8.47461 172.479 9.51628 172.479 11.5996H184.979V16.2871Z" fill="url(#paint0_linear_136_8546)"/>
<path d="M4.05833 24.0996H3.44227V24.7157H4.05833V24.0996ZM4.05833 19.4121V18.796H3.44227V19.4121H4.05833ZM5.62083 19.4121V20.0282H6.23689V19.4121H5.62083ZM5.62083 8.47461H6.23689V7.85855H5.62083V8.47461ZM4.05833 8.47461H3.44227V9.09067H4.05833V8.47461ZM4.05833 3.78711V3.17105H3.44227V3.78711H4.05833ZM13.4333 3.78711V4.40317H14.0494V3.78711H13.4333ZM13.4333 2.22461V1.60855H12.8173V2.22461H13.4333ZM18.1208 2.22461H18.7369V1.60855H18.1208V2.22461ZM18.1208 3.78711H17.5048V4.40317H18.1208V3.78711ZM27.4958 3.78711H28.1119V3.17105H27.4958V3.78711ZM27.4958 8.47461V9.09067H28.1119V8.47461H27.4958ZM25.9333 8.47461V7.85855H25.3173V8.47461H25.9333ZM25.9333 19.4121H25.3173V20.0282H25.9333V19.4121ZM27.4958 19.4121H28.1119V18.796H27.4958V19.4121ZM27.4958 24.0996V24.7157H28.1119V24.0996H27.4958ZM21.2458 8.47461H21.8619V7.85855H21.2458V8.47461ZM18.1208 8.47461V7.85855H17.5048V8.47461H18.1208ZM18.1208 16.2871V16.9032H18.7369V16.2871H18.1208ZM13.4333 16.2871H12.8173V16.9032H13.4333V16.2871ZM13.4333 8.47461H14.0494V7.85855H13.4333V8.47461ZM10.3083 8.47461V7.85855H9.69227V8.47461H10.3083ZM9.69227 19.4121C9.69227 20.8796 9.32581 21.8671 8.70084 22.4921C8.07587 23.1171 7.08837 23.4835 5.62083 23.4835V24.7157C7.2783 24.7157 8.63455 24.3009 9.57208 23.3634C10.5096 22.4258 10.9244 21.0696 10.9244 19.4121H9.69227ZM5.62083 23.4835H4.05833V24.7157H5.62083V23.4835ZM4.67439 24.0996V19.4121H3.44227V24.0996H4.67439ZM4.05833 20.0282H5.62083V18.796H4.05833V20.0282ZM6.23689 19.4121V8.47461H5.00477V19.4121H6.23689ZM5.62083 7.85855H4.05833V9.09067H5.62083V7.85855ZM4.67439 8.47461V3.78711H3.44227V8.47461H4.67439ZM4.05833 4.40317H13.4333V3.17105H4.05833V4.40317ZM14.0494 3.78711V2.22461H12.8173V3.78711H14.0494ZM13.4333 2.84067H18.1208V1.60855H13.4333V2.84067ZM17.5048 2.22461V3.78711H18.7369V2.22461H17.5048ZM18.1208 4.40317H27.4958V3.17105H18.1208V4.40317ZM26.8798 3.78711V8.47461H28.1119V3.78711H26.8798ZM27.4958 7.85855H25.9333V9.09067H27.4958V7.85855ZM25.3173 8.47461V19.4121H26.5494V8.47461H25.3173ZM25.9333 20.0282H27.4958V18.796H25.9333V20.0282ZM26.8798 19.4121V24.0996H28.1119V19.4121H26.8798ZM27.4958 23.4835H25.9333V24.7157H27.4958V23.4835ZM25.9333 23.4835C24.4658 23.4835 23.4783 23.1171 22.8533 22.4921C22.2284 21.8671 21.8619 20.8796 21.8619 19.4121H20.6298C20.6298 21.0696 21.0446 22.4258 21.9821 23.3634C22.9196 24.3009 24.2759 24.7157 25.9333 24.7157V23.4835ZM21.8619 19.4121V8.47461H20.6298V19.4121H21.8619ZM21.2458 7.85855H18.1208V9.09067H21.2458V7.85855ZM17.5048 8.47461V16.2871H18.7369V8.47461H17.5048ZM18.1208 15.671H13.4333V16.9032H18.1208V15.671ZM14.0494 16.2871V8.47461H12.8173V16.2871H14.0494ZM13.4333 7.85855H10.3083V9.09067H13.4333V7.85855ZM9.69227 8.47461V19.4121H10.9244V8.47461H9.69227ZM43.0641 16.2871H43.6801V15.671H43.0641V16.2871ZM30.5641 3.78711V3.17105H29.948V3.78711H30.5641ZM35.2516 3.78711H35.8676V3.17105H35.2516V3.78711ZM35.2516 11.5996H34.6355V12.2157H35.2516V11.5996ZM43.0641 11.5996V12.2157H43.6801V11.5996H43.0641ZM43.0641 3.78711V3.17105H42.448V3.78711H43.0641ZM47.7516 3.78711H48.3676V3.17105H47.7516V3.78711ZM47.7516 11.5996H47.1355V12.2157H47.7516V11.5996ZM49.3141 11.5996H49.9301V10.9835H49.3141V11.5996ZM49.3141 16.2871V16.9032H49.9301V16.2871H49.3141ZM47.7516 16.2871V15.671H47.1355V16.2871H47.7516ZM35.2516 24.0996H34.6355V24.7157H35.2516V24.0996ZM35.2516 19.4121V18.796H34.6355V19.4121H35.2516ZM43.0641 15.671H33.6891V16.9032H43.0641V15.671ZM33.6891 15.671C32.7424 15.671 32.1455 15.4348 31.7809 15.0702C31.4164 14.7057 31.1801 14.1088 31.1801 13.1621H29.948C29.948 14.2987 30.2326 15.2644 30.9097 15.9415C31.5868 16.6186 32.5524 16.9032 33.6891 16.9032V15.671ZM31.1801 13.1621V3.78711H29.948V13.1621H31.1801ZM30.5641 4.40317H35.2516V3.17105H30.5641V4.40317ZM34.6355 3.78711V11.5996H35.8676V3.78711H34.6355ZM35.2516 12.2157H43.0641V10.9835H35.2516V12.2157ZM43.6801 11.5996V3.78711H42.448V11.5996H43.6801ZM43.0641 4.40317H47.7516V3.17105H43.0641V4.40317ZM47.1355 3.78711V11.5996H48.3676V3.78711H47.1355ZM47.7516 12.2157H49.3141V10.9835H47.7516V12.2157ZM48.698 11.5996V16.2871H49.9301V11.5996H48.698ZM49.3141 15.671H47.7516V16.9032H49.3141V15.671ZM47.1355 16.2871C47.1355 18.7963 46.5086 20.5651 45.3628 21.7109C44.217 22.8567 42.4483 23.4835 39.9391 23.4835V24.7157C42.6382 24.7157 44.7757 24.0405 46.2341 22.5821C47.6924 21.1237 48.3676 18.9862 48.3676 16.2871H47.1355ZM39.9391 23.4835H35.2516V24.7157H39.9391V23.4835ZM35.8676 24.0996V19.4121H34.6355V24.0996H35.8676ZM35.2516 20.0282H39.9391V18.796H35.2516V20.0282ZM39.9391 20.0282C41.0757 20.0282 42.0413 19.7436 42.7184 19.0665C43.3956 18.3894 43.6801 17.4237 43.6801 16.2871H42.448C42.448 17.2338 42.2118 17.8307 41.8472 18.1952C41.4827 18.5598 40.8858 18.796 39.9391 18.796V20.0282ZM69.6381 3.78711V4.40317H70.2541V3.78711H69.6381ZM69.6381 2.22461V1.60855H69.022V2.22461H69.6381ZM74.3256 2.22461H74.9416V1.60855H74.3256V2.22461ZM74.3256 3.78711H73.7095V4.40317H74.3256V3.78711ZM82.1381 3.78711H82.7541V3.17105H82.1381V3.78711ZM82.1381 8.47461V9.09067H82.7541V8.47461H82.1381ZM80.5756 8.47461V7.85855H79.9595V8.47461H80.5756ZM80.5756 19.4121H79.9595V20.0282H80.5756V19.4121ZM82.1381 19.4121H82.7541V18.796H82.1381V19.4121ZM82.1381 24.0996V24.7157H82.7541V24.0996H82.1381ZM75.8881 16.2871H76.5041V15.671H75.8881V16.2871ZM68.0756 16.2871V15.671H67.4595V16.2871H68.0756ZM61.8256 24.0996H61.2095V24.7157H61.8256V24.0996ZM61.8256 19.4121V18.796H61.2095V19.4121H61.8256ZM63.3881 19.4121V20.0282H64.0041V19.4121H63.3881ZM63.3881 8.47461H64.0041V7.85855H63.3881V8.47461ZM61.8256 8.47461H61.2095V9.09067H61.8256V8.47461ZM61.8256 3.78711V3.17105H61.2095V3.78711H61.8256ZM75.8881 8.47461H76.5041V7.85855H75.8881V8.47461ZM68.0756 8.47461V7.85855H67.4595V8.47461H68.0756ZM68.0756 11.5996H67.4595V12.2157H68.0756V11.5996ZM75.8881 11.5996V12.2157H76.5041V11.5996H75.8881ZM70.2541 3.78711V2.22461H69.022V3.78711H70.2541ZM69.6381 2.84067H74.3256V1.60855H69.6381V2.84067ZM73.7095 2.22461V3.78711H74.9416V2.22461H73.7095ZM74.3256 4.40317H82.1381V3.17105H74.3256V4.40317ZM81.522 3.78711V8.47461H82.7541V3.78711H81.522ZM82.1381 7.85855H80.5756V9.09067H82.1381V7.85855ZM79.9595 8.47461V19.4121H81.1916V8.47461H79.9595ZM80.5756 20.0282H82.1381V18.796H80.5756V20.0282ZM81.522 19.4121V24.0996H82.7541V19.4121H81.522ZM82.1381 23.4835H80.5756V24.7157H82.1381V23.4835ZM80.5756 23.4835C79.108 23.4835 78.1205 23.1171 77.4956 22.4921C76.8706 21.8671 76.5041 20.8796 76.5041 19.4121H75.272C75.272 21.0696 75.6868 22.4258 76.6243 23.3634C77.5618 24.3009 78.9181 24.7157 80.5756 24.7157V23.4835ZM76.5041 19.4121V16.2871H75.272V19.4121H76.5041ZM75.8881 15.671H68.0756V16.9032H75.8881V15.671ZM67.4595 16.2871V19.4121H68.6916V16.2871H67.4595ZM67.4595 19.4121C67.4595 20.8796 67.093 21.8671 66.4681 22.4921C65.8431 23.1171 64.8556 23.4835 63.3881 23.4835V24.7157C65.0455 24.7157 66.4018 24.3009 67.3393 23.3634C68.2768 22.4258 68.6916 21.0696 68.6916 19.4121H67.4595ZM63.3881 23.4835H61.8256V24.7157H63.3881V23.4835ZM62.4416 24.0996V19.4121H61.2095V24.0996H62.4416ZM61.8256 20.0282H63.3881V18.796H61.8256V20.0282ZM64.0041 19.4121V8.47461H62.772V19.4121H64.0041ZM63.3881 7.85855H61.8256V9.09067H63.3881V7.85855ZM62.4416 8.47461V3.78711H61.2095V8.47461H62.4416ZM61.8256 4.40317H69.6381V3.17105H61.8256V4.40317ZM75.8881 7.85855H68.0756V9.09067H75.8881V7.85855ZM67.4595 8.47461V11.5996H68.6916V8.47461H67.4595ZM68.0756 12.2157H75.8881V10.9835H68.0756V12.2157ZM76.5041 11.5996V8.47461H75.272V11.5996H76.5041ZM85.2063 24.0996H84.5902V24.7157H85.2063V24.0996ZM85.2063 19.4121V18.796H84.5902V19.4121H85.2063ZM97.7063 16.2871H98.3224V15.671H97.7063V16.2871ZM85.2063 16.2871H84.5902V16.9032H85.2063V16.2871ZM102.394 3.78711H103.01V3.17105H102.394V3.78711ZM102.394 8.47461V9.09067H103.01V8.47461H102.394ZM89.8938 11.5996H89.2777V12.2157H89.8938V11.5996ZM102.394 11.5996H103.01V10.9835H102.394V11.5996ZM101.778 16.2871C101.778 18.7963 101.151 20.5651 100.005 21.7109C98.8593 22.8567 97.0905 23.4835 94.5813 23.4835V24.7157C97.2804 24.7157 99.4179 24.0405 100.876 22.5821C102.335 21.1237 103.01 18.9862 103.01 16.2871H101.778ZM94.5813 23.4835H85.2063V24.7157H94.5813V23.4835ZM85.8224 24.0996V19.4121H84.5902V24.0996H85.8224ZM85.2063 20.0282H94.5813V18.796H85.2063V20.0282ZM94.5813 20.0282C95.7179 20.0282 96.6836 19.7436 97.3607 19.0665C98.0378 18.3894 98.3224 17.4237 98.3224 16.2871H97.0902C97.0902 17.2338 96.854 17.8307 96.4894 18.1952C96.1249 18.5598 95.528 18.796 94.5813 18.796V20.0282ZM97.7063 15.671H85.2063V16.9032H97.7063V15.671ZM85.8224 16.2871V11.5996H84.5902V16.2871H85.8224ZM85.8224 11.5996C85.8224 9.09041 86.4492 7.32166 87.595 6.17585C88.7408 5.03005 90.5096 4.40317 93.0188 4.40317V3.17105C90.3197 3.17105 88.1822 3.84625 86.7238 5.30461C85.2654 6.76298 84.5902 8.90048 84.5902 11.5996H85.8224ZM93.0188 4.40317H102.394V3.17105H93.0188V4.40317ZM101.778 3.78711V8.47461H103.01V3.78711H101.778ZM102.394 7.85855H93.0188V9.09067H102.394V7.85855ZM93.0188 7.85855C91.8822 7.85855 90.9165 8.14312 90.2394 8.82024C89.5623 9.49735 89.2777 10.463 89.2777 11.5996H90.5099C90.5099 10.6529 90.7461 10.056 91.1107 9.69148C91.4752 9.32693 92.0721 9.09067 93.0188 9.09067V7.85855ZM89.8938 12.2157H102.394V10.9835H89.8938V12.2157ZM101.778 11.5996V16.2871H103.01V11.5996H101.778ZM105.462 24.0996H104.846V24.7157H105.462V24.0996ZM105.462 19.4121V18.796H104.846V19.4121H105.462ZM117.962 16.2871H118.578V15.671H117.962V16.2871ZM105.462 16.2871H104.846V16.9032H105.462V16.2871ZM122.65 3.78711H123.266V3.17105H122.65V3.78711ZM122.65 8.47461V9.09067H123.266V8.47461H122.65ZM110.15 11.5996H109.533V12.2157H110.15V11.5996ZM122.65 11.5996H123.266V10.9835H122.65V11.5996ZM122.033 16.2871C122.033 18.7963 121.407 20.5651 120.261 21.7109C119.115 22.8567 117.346 23.4835 114.837 23.4835V24.7157C117.536 24.7157 119.674 24.0405 121.132 22.5821C122.59 21.1237 123.266 18.9862 123.266 16.2871H122.033ZM114.837 23.4835H105.462V24.7157H114.837V23.4835ZM106.078 24.0996V19.4121H104.846V24.0996H106.078ZM105.462 20.0282H114.837V18.796H105.462V20.0282ZM114.837 20.0282C115.974 20.0282 116.939 19.7436 117.616 19.0665C118.294 18.3894 118.578 17.4237 118.578 16.2871H117.346C117.346 17.2338 117.11 17.8307 116.745 18.1952C116.381 18.5598 115.784 18.796 114.837 18.796V20.0282ZM117.962 15.671H105.462V16.9032H117.962V15.671ZM106.078 16.2871V11.5996H104.846V16.2871H106.078ZM106.078 11.5996C106.078 9.09041 106.705 7.32166 107.851 6.17585C108.997 5.03005 110.765 4.40317 113.275 4.40317V3.17105C110.575 3.17105 108.438 3.84625 106.98 5.30461C105.521 6.76298 104.846 8.90048 104.846 11.5996H106.078ZM113.275 4.40317H122.65V3.17105H113.275V4.40317ZM122.033 3.78711V8.47461H123.266V3.78711H122.033ZM122.65 7.85855H113.275V9.09067H122.65V7.85855ZM113.275 7.85855C112.138 7.85855 111.172 8.14312 110.495 8.82024C109.818 9.49735 109.533 10.463 109.533 11.5996H110.766C110.766 10.6529 111.002 10.056 111.366 9.69148C111.731 9.32693 112.328 9.09067 113.275 9.09067V7.85855ZM110.15 12.2157H122.65V10.9835H110.15V12.2157ZM122.033 11.5996V16.2871H123.266V11.5996H122.033ZM131.968 11.5996H131.352V12.2157H131.968V11.5996ZM141.343 11.5996H141.959V10.9835H141.343V11.5996ZM141.343 16.2871V16.9032H141.959V16.2871H141.343ZM131.968 16.2871V15.671H131.352V16.2871H131.968ZM144.468 19.4121H145.084V18.796H144.468V19.4121ZM144.468 24.0996V24.7157H145.084V24.0996H144.468ZM127.28 16.2871H127.896V15.671H127.28V16.2871ZM125.718 16.2871H125.102V16.9032H125.718V16.2871ZM125.718 11.5996V10.9835H125.102V11.5996H125.718ZM127.28 11.5996V12.2157H127.896V11.5996H127.28ZM127.28 8.47461H127.896V7.85855H127.28V8.47461ZM125.718 8.47461H125.102V9.09067H125.718V8.47461ZM125.718 3.78711V3.17105H125.102V3.78711H125.718ZM144.468 3.78711H145.084V3.17105H144.468V3.78711ZM144.468 8.47461V9.09067H145.084V8.47461H144.468ZM131.968 8.47461V7.85855H131.352V8.47461H131.968ZM131.968 12.2157H141.343V10.9835H131.968V12.2157ZM140.727 11.5996V16.2871H141.959V11.5996H140.727ZM141.343 15.671H131.968V16.9032H141.343V15.671ZM131.352 16.2871C131.352 17.4237 131.636 18.3894 132.313 19.0665C132.991 19.7436 133.956 20.0282 135.093 20.0282V18.796C134.146 18.796 133.549 18.5598 133.185 18.1952C132.82 17.8307 132.584 17.2338 132.584 16.2871H131.352ZM135.093 20.0282H144.468V18.796H135.093V20.0282ZM143.852 19.4121V24.0996H145.084V19.4121H143.852ZM144.468 23.4835H135.093V24.7157H144.468V23.4835ZM135.093 23.4835C132.584 23.4835 130.815 22.8567 129.669 21.7109C128.523 20.5651 127.896 18.7963 127.896 16.2871H126.664C126.664 18.9862 127.339 21.1237 128.798 22.5821C130.256 24.0405 132.394 24.7157 135.093 24.7157V23.4835ZM127.28 15.671H125.718V16.9032H127.28V15.671ZM126.334 16.2871V11.5996H125.102V16.2871H126.334ZM125.718 12.2157H127.28V10.9835H125.718V12.2157ZM127.896 11.5996V8.47461H126.664V11.5996H127.896ZM127.28 7.85855H125.718V9.09067H127.28V7.85855ZM126.334 8.47461V3.78711H125.102V8.47461H126.334ZM125.718 4.40317H144.468V3.17105H125.718V4.40317ZM143.852 3.78711V8.47461H145.084V3.78711H143.852ZM144.468 7.85855H131.968V9.09067H144.468V7.85855ZM131.352 8.47461V11.5996H132.584V8.47461H131.352ZM152.224 24.0996H151.607V24.7157H152.224V24.0996ZM152.224 19.4121V18.796H151.607V19.4121H152.224ZM153.786 19.4121V20.0282H154.402V19.4121H153.786ZM153.786 8.47461H154.402V7.85855H153.786V8.47461ZM147.536 8.47461H146.92V9.09067H147.536V8.47461ZM147.536 3.78711V3.17105H146.92V3.78711H147.536ZM164.724 3.78711H165.34V3.17105H164.724V3.78711ZM164.724 8.47461V9.09067H165.34V8.47461H164.724ZM158.474 8.47461V7.85855H157.857V8.47461H158.474ZM157.857 19.4121C157.857 20.8796 157.491 21.8671 156.866 22.4921C156.241 23.1171 155.254 23.4835 153.786 23.4835V24.7157C155.443 24.7157 156.8 24.3009 157.737 23.3634C158.675 22.4258 159.09 21.0696 159.09 19.4121H157.857ZM153.786 23.4835H152.224V24.7157H153.786V23.4835ZM152.84 24.0996V19.4121H151.607V24.0996H152.84ZM152.224 20.0282H153.786V18.796H152.224V20.0282ZM154.402 19.4121V8.47461H153.17V19.4121H154.402ZM153.786 7.85855H147.536V9.09067H153.786V7.85855ZM148.152 8.47461V3.78711H146.92V8.47461H148.152ZM147.536 4.40317H164.724V3.17105H147.536V4.40317ZM164.107 3.78711V8.47461H165.34V3.78711H164.107ZM164.724 7.85855H158.474V9.09067H164.724V7.85855ZM157.857 8.47461V19.4121H159.09V8.47461H157.857ZM167.792 24.0996H167.176V24.7157H167.792V24.0996ZM167.792 19.4121V18.796H167.176V19.4121H167.792ZM180.292 16.2871H180.908V15.671H180.292V16.2871ZM167.792 16.2871H167.176V16.9032H167.792V16.2871ZM184.979 3.78711H185.595V3.17105H184.979V3.78711ZM184.979 8.47461V9.09067H185.595V8.47461H184.979ZM172.479 11.5996H171.863V12.2157H172.479V11.5996ZM184.979 11.5996H185.595V10.9835H184.979V11.5996ZM184.363 16.2871C184.363 18.7963 183.736 20.5651 182.591 21.7109C181.445 22.8567 179.676 23.4835 177.167 23.4835V24.7157C179.866 24.7157 182.003 24.0405 183.462 22.5821C184.92 21.1237 185.595 18.9862 185.595 16.2871H184.363ZM177.167 23.4835H167.792V24.7157H177.167V23.4835ZM168.408 24.0996V19.4121H167.176V24.0996H168.408ZM167.792 20.0282H177.167V18.796H167.792V20.0282ZM177.167 20.0282C178.303 20.0282 179.269 19.7436 179.946 19.0665C180.623 18.3894 180.908 17.4237 180.908 16.2871H179.676C179.676 17.2338 179.439 17.8307 179.075 18.1952C178.71 18.5598 178.113 18.796 177.167 18.796V20.0282ZM180.292 15.671H167.792V16.9032H180.292V15.671ZM168.408 16.2871V11.5996H167.176V16.2871H168.408ZM168.408 11.5996C168.408 9.09041 169.035 7.32166 170.181 6.17585C171.326 5.03005 173.095 4.40317 175.604 4.40317V3.17105C172.905 3.17105 170.768 3.84625 169.309 5.30461C167.851 6.76298 167.176 8.90048 167.176 11.5996H168.408ZM175.604 4.40317H184.979V3.17105H175.604V4.40317ZM184.363 3.78711V8.47461H185.595V3.78711H184.363ZM184.979 7.85855H175.604V9.09067H184.979V7.85855ZM175.604 7.85855C174.468 7.85855 173.502 8.14312 172.825 8.82024C172.148 9.49735 171.863 10.463 171.863 11.5996H173.095C173.095 10.6529 173.332 10.056 173.696 9.69148C174.061 9.32693 174.658 9.09067 175.604 9.09067V7.85855ZM172.479 12.2157H184.979V10.9835H172.479V12.2157ZM184.363 11.5996V16.2871H185.595V11.5996H184.363Z" fill="black" style="mix-blend-mode:soft-light" mask="url(#path-1-inside-1_136_8546)"/>
</g>
<defs>
<filter id="filter0_dd_136_8546" x="0.0583496" y="0.724609" width="188.921" height="30.375" filterUnits="userSpaceOnUse" color-interpolation-filters="sRGB">
<feFlood flood-opacity="0" result="BackgroundImageFix"/>
<feColorMatrix in="SourceAlpha" type="matrix" values="0 0 0 0 0 0 0 0 0 0 0 0 0 0 0 0 0 0 127 0" result="hardAlpha"/>
<feOffset dy="-1.5"/>
<feComposite in2="hardAlpha" operator="out"/>
<feColorMatrix type="matrix" values="0 0 0 0 0.815686 0 0 0 0 0.611765 0 0 0 0 0.054902 0 0 0 1 0"/>
<feBlend mode="normal" in2="BackgroundImageFix" result="effect1_dropShadow_136_8546"/>
<feColorMatrix in="SourceAlpha" type="matrix" values="0 0 0 0 0 0 0 0 0 0 0 0 0 0 0 0 0 0 127 0" result="hardAlpha"/>
<feOffset dy="3"/>
<feGaussianBlur stdDeviation="2"/>
<feComposite in2="hardAlpha" operator="out"/>
<feColorMatrix type="matrix" values="0 0 0 0 0.317647 0 0 0 0 0.12549 0 0 0 0 0.054902 0 0 0 1 0"/>
<feBlend mode="normal" in2="effect1_dropShadow_136_8546" result="effect2_dropShadow_136_8546"/>
<feBlend mode="normal" in="SourceGraphic" in2="effect2_dropShadow_136_8546" result="shape"/>
</filter>
<linearGradient id="paint0_linear_136_8546" x1="95.3" y1="-3.90039" x2="95.3" y2="38.4256" gradientUnits="userSpaceOnUse">
<stop stop-color="#FFF4AD"/>
<stop offset="1" stop-color="#C87A03"/>
</linearGradient>
</defs>
</svg>
